<svg width="360" height="800" viewBox="0 0 360 800" fill="none" xmlns="http://www.w3.org/2000/svg">
<g clip-path="url(#clip0_40001505_14945)">
<g filter="url(#filter0_d_40001505_14945)">
<path d="M346.5 711C367.211 711 384 694.211 384 673.5C384 652.789 367.211 636 346.5 636C325.789 636 309 652.789 309 673.5C309 694.211 325.789 711 346.5 711Z" fill="#FBFBFB"/>
<path d="M346.5 636.5C366.935 636.5 383.5 653.065 383.5 673.5C383.5 693.935 366.935 710.5 346.5 710.5C326.065 710.5 309.5 693.935 309.5 673.5C309.5 653.065 326.065 636.5 346.5 636.5Z" stroke="#9C9C9C"/>
</g>
<path d="M345.964 701.357C361.645 701.357 374.357 688.645 374.357 672.964C374.357 657.283 361.645 644.571 345.964 644.571C330.283 644.571 317.571 657.283 317.571 672.964C317.571 688.645 330.283 701.357 345.964 701.357Z" fill="#FEE888"/>
<g filter="url(#filter1_d_40001505_14945)">
<path d="M15.5 203C36.2107 203 53 186.211 53 165.5C53 144.789 36.2107 128 15.5 128C-5.21068 128 -22 144.789 -22 165.5C-22 186.211 -5.21068 203 15.5 203Z" fill="#FBFBFB"/>
<path d="M15.5 128.5C35.9345 128.5 52.5 145.065 52.5 165.5C52.5 185.935 35.9345 202.5 15.5 202.5C-4.93454 202.5 -21.5 185.935 -21.5 165.5C-21.5 145.065 -4.93454 128.5 15.5 128.5Z" stroke="#9C9C9C"/>
</g>
<path d="M14.9641 193.357C30.6451 193.357 43.357 180.645 43.357 164.964C43.357 149.283 30.6451 136.571 14.9641 136.571C-0.716801 136.571 -13.4287 149.283 -13.4287 164.964C-13.4287 180.645 -0.716801 193.357 14.9641 193.357Z" fill="#FEE888"/>
<g clip-path="url(#clip1_40001505_14945)" filter="url(#filter2_g_40001505_14945)">
<g filter="url(#filter3_d_40001505_14945)">
<path d="M95.0593 731.645C84.6709 735.527 74.6215 738.579 66.7659 740.236C60.6717 741.518 49.3255 743.913 46.385 736.044C45.1932 732.855 46.2115 730.1 47.8143 727.93C46.7877 725.501 46.3517 722.842 46.6463 720.23C47.2061 715.171 50.3031 710.982 55.131 708.758C55.5522 708.564 56.0115 708.374 56.5088 708.188C58.771 707.343 61.3354 706.768 64.175 706.465L62.1795 698.654C54.7502 700.718 45.3461 697.839 40.5898 691.863C39.8526 690.943 39.2517 689.971 38.7692 688.973C35.2768 688.826 31.7223 687.387 28.5153 684.75C23.7979 680.86 19.5704 673.755 20.7697 666.64C20.7828 666.553 20.799 666.474 20.8151 666.395C18.5649 664.606 16.8019 662.114 15.661 659.061C12.4419 650.447 14.8565 642.229 19.5847 637.659C19.2776 636.568 19.096 635.421 19.0477 634.216C18.7001 626.117 24.5913 617.222 32.196 614.38C33.3031 613.967 34.4149 613.688 35.5205 613.54C37.2562 608.937 41.4502 605.041 46.9773 602.975C52.5044 600.91 58.2255 601.101 62.5544 603.438C63.4863 602.824 64.5083 602.306 65.6154 601.892C68.5674 600.789 71.9472 600.512 75.3278 601.02C78.2017 596.577 82.4391 593.139 87.549 591.23C100.464 586.404 114.885 592.969 119.706 605.87C123.844 616.945 119.577 629.133 110.122 635.415C111.509 636.951 112.652 638.835 113.472 641.03C116.691 649.645 114.28 657.87 109.552 662.44C109.859 663.531 110.04 664.678 110.089 665.884C110.409 673.298 105.5 681.37 98.8368 684.873L101.516 688.986C102.788 687.716 104.138 686.582 105.588 685.547C105.943 685.296 106.337 685.03 106.814 684.742C107.695 684.212 108.585 683.779 109.491 683.44C116.374 680.868 123.96 683.896 127.54 690.64C128.836 693.078 129.431 695.65 129.387 698.151C131.722 698.895 133.69 700.369 134.693 703.054C137.634 710.923 127.497 716.555 122.056 719.584C115.039 723.485 105.451 727.771 95.0622 731.653L95.0593 731.645Z" fill="#FBFBFB"/>
<path d="M95.0593 731.645C84.6709 735.527 74.6215 738.579 66.7659 740.236C60.6717 741.518 49.3255 743.913 46.385 736.044C45.1932 732.855 46.2115 730.1 47.8143 727.93C46.7877 725.501 46.3517 722.842 46.6463 720.23C47.2061 715.171 50.3031 710.982 55.131 708.758C55.5522 708.564 56.0115 708.374 56.5088 708.188C58.771 707.343 61.3354 706.768 64.175 706.465L62.1795 698.654C54.7502 700.718 45.3461 697.839 40.5898 691.863C39.8526 690.943 39.2517 689.971 38.7692 688.973C35.2768 688.826 31.7223 687.387 28.5153 684.75C23.7979 680.86 19.5704 673.755 20.7697 666.64C20.7828 666.553 20.799 666.474 20.8151 666.395C18.5649 664.606 16.8019 662.114 15.661 659.061C12.4419 650.447 14.8565 642.229 19.5847 637.659C19.2776 636.568 19.096 635.421 19.0477 634.216C18.7001 626.117 24.5913 617.222 32.196 614.38C33.3031 613.967 34.4149 613.688 35.5205 613.54C37.2562 608.937 41.4502 605.041 46.9773 602.975C52.5044 600.91 58.2255 601.101 62.5544 603.438C63.4863 602.824 64.5083 602.306 65.6154 601.892C68.5674 600.789 71.9472 600.512 75.3278 601.02C78.2017 596.577 82.4391 593.139 87.549 591.23C100.464 586.404 114.885 592.969 119.706 605.87C123.844 616.945 119.577 629.133 110.122 635.415C111.509 636.951 112.652 638.835 113.472 641.03C116.691 649.645 114.28 657.87 109.552 662.44C109.859 663.531 110.04 664.678 110.089 665.884C110.409 673.298 105.5 681.37 98.8368 684.873L101.516 688.986C102.788 687.716 104.138 686.582 105.588 685.547C105.943 685.296 106.337 685.03 106.814 684.742C107.695 684.212 108.585 683.779 109.491 683.44C116.374 680.868 123.96 683.896 127.54 690.64C128.836 693.078 129.431 695.65 129.387 698.151C131.722 698.895 133.69 700.369 134.693 703.054C137.634 710.923 127.497 716.555 122.056 719.584C115.039 723.485 105.451 727.771 95.0622 731.653L95.0593 731.645Z" stroke="#9C9C9C" stroke-miterlimit="10"/>
</g>
<path d="M102.64 631.583C112.028 628.075 116.797 617.629 113.293 608.251C109.788 598.873 99.3371 594.114 89.9491 597.623C80.5611 601.131 75.7915 611.577 79.2959 620.955C82.8003 630.333 93.2517 635.091 102.64 631.583Z" fill="#2C2C2C"/>
<path d="M102.64 631.583C112.028 628.075 116.797 617.629 113.293 608.251C109.788 598.873 99.3371 594.114 89.9491 597.623C80.5611 601.131 75.7915 611.577 79.2959 620.955C82.8003 630.333 93.2517 635.091 102.64 631.583Z" fill="#FEE888"/>
<path d="M92.687 725.227C113.527 717.439 129.47 708.579 128.296 705.437C127.122 702.294 109.275 706.06 88.4348 713.848C67.5943 721.636 51.6516 730.496 52.8258 733.639C54 736.781 71.8464 733.015 92.687 725.227Z" fill="#2C2C2C"/>
<path d="M66.3286 662.265L86.2987 715.706C87.3917 718.631 85.9035 721.89 82.9755 722.984L64.5812 729.858C54.9469 733.458 48.6846 719.269 58.0224 714.948C58.3102 714.813 58.6121 714.691 58.9249 714.575C62.96 713.067 68.1667 712.811 72.9946 713.18L60.5157 664.447L66.3316 662.273L66.3286 662.265Z" fill="#CBCBC5" stroke="#2C2C2C" stroke-miterlimit="10"/>
<path d="M77.9271 713.947C76.8751 713.773 74.5146 713.304 70.2417 713.074L77.9271 713.947Z" fill="#CBCBC5"/>
<path d="M77.9271 713.947C76.8751 713.773 74.5146 713.304 70.2417 713.074" stroke="#2C2C2C" stroke-miterlimit="10" stroke-linecap="round"/>
<path d="M69.982 664.514L95.1256 714.405C96.9367 716.952 100.461 717.552 103.012 715.741L119.028 704.386C127.419 698.438 119.189 685.294 110.367 690.582C110.092 690.749 109.819 690.924 109.552 691.115C106.04 693.605 103.524 696.709 101.119 700.914L75.0404 660.925L69.974 664.517L69.982 664.514Z" fill="#CBCBC5" stroke="#2C2C2C" stroke-miterlimit="10"/>
<path d="M98.3066 706.465C98.7491 705.496 99.6944 703.28 101.9 699.615L98.3066 706.465Z" fill="#CBCBC5"/>
<path d="M98.3066 706.465C98.7491 705.496 99.6944 703.28 101.9 699.615" stroke="#2C2C2C" stroke-miterlimit="10" stroke-linecap="round"/>
<path d="M102.852 715.377C102.852 715.377 112.833 693.867 117.797 696.14" stroke="#2C2C2C" stroke-miterlimit="10" stroke-linecap="round"/>
<path d="M63.0857 616.303C62.401 600.477 33.6504 611.221 43.5122 623.617C33.6504 611.221 16.6932 636.79 31.971 641.026C16.7012 636.787 18.021 667.426 32.8776 661.874C18.021 667.426 37.1174 691.422 45.8733 678.205C37.1174 691.422 66.6793 699.607 66.0026 683.778C66.6873 699.604 95.4379 688.861 85.5761 676.464C95.4379 688.861 112.395 663.291 97.1173 659.055C112.395 663.291 111.075 632.653 96.2187 638.204C111.075 632.653 91.9789 608.657 83.2231 621.874C91.9789 608.657 62.4171 600.471 63.0937 616.3L63.0857 616.303Z" fill="#EEEDEB"/>
<path d="M63.0857 616.303C62.401 600.477 33.6504 611.221 43.5122 623.617C33.6504 611.221 16.6932 636.79 31.971 641.026C16.7012 636.787 18.021 667.426 32.8776 661.874C18.021 667.426 37.1174 691.422 45.8733 678.205C37.1174 691.422 66.6793 699.607 66.0026 683.778C66.6873 699.604 95.4379 688.861 85.5761 676.464C95.4379 688.861 112.395 663.291 97.1173 659.055C112.395 663.291 111.075 632.653 96.2187 638.204C111.075 632.653 91.9789 608.657 83.2231 621.874C91.9789 608.657 62.4171 600.471 63.0937 616.3L63.0857 616.303Z" fill="#EEEDEB" stroke="#2C2C2C" stroke-miterlimit="10"/>
<path d="M77.9479 713.937L70.3848 713.074C74.5875 713.312 76.9069 713.769 77.9479 713.937Z" fill="white" stroke="#2C2C2C" stroke-miterlimit="10"/>
<path d="M77.9479 713.937L70.3848 713.074C74.5875 713.312 76.9069 713.769 77.9479 713.937Z" fill="white" stroke="#2C2C2C" stroke-miterlimit="10" stroke-linecap="round"/>
<path d="M101.804 699.722L98.2491 706.503C98.6664 705.589 99.5192 703.59 101.443 700.323C101.561 700.124 101.678 699.924 101.804 699.722Z" fill="white" stroke="#2C2C2C" stroke-miterlimit="10"/>
<path d="M101.804 699.722L98.2491 706.503C98.6664 705.589 99.5192 703.59 101.443 700.323C101.561 700.124 101.678 699.924 101.804 699.722Z" fill="white" stroke="#2C2C2C" stroke-miterlimit="10" stroke-linecap="round"/>
<path d="M64.3701 645.092L64.4689 645.356C64.5288 645.517 64.5777 645.672 64.6375 645.832C64.7194 646.076 64.7931 646.322 64.8639 646.56C64.8909 646.632 64.9098 646.708 64.9288 646.783C65.8659 650.049 65.6262 652.832 62.3612 654.053C58.7835 655.389 55.9322 652.775 54.447 648.8C54.1026 647.879 53.8344 646.965 53.6924 646.096C55.2724 645.725 56.8956 645.273 58.5439 644.767C60.08 644.302 61.6301 643.778 63.2024 643.19C63.2936 643.165 63.3899 643.129 63.4781 643.096C63.8089 643.713 64.1036 644.379 64.3701 645.092Z" fill="#FBFBFB" stroke="#2C2C2C" stroke-miterlimit="10"/>
<path d="M59.0544 645.128C60.3843 644.719 61.7247 644.267 63.0805 643.767C63.3861 644.157 63.6647 644.649 63.9114 645.22L64.0386 645.527L64.0892 645.662C64.1319 645.777 64.1642 645.865 64.1923 645.961L64.1954 645.969L64.1979 645.978C64.2765 646.212 64.3479 646.451 64.4187 646.689L64.4239 646.706L64.4301 646.722C64.4454 646.763 64.4577 646.81 64.4771 646.887C64.6675 647.676 64.6884 648.329 64.5147 648.832C64.3512 649.306 63.9932 649.712 63.2665 649.983C62.442 650.292 61.7263 650.149 61.1084 649.698C60.4679 649.231 59.9138 648.416 59.5226 647.369C59.214 646.543 59.0425 645.781 59.0544 645.128Z" fill="#2C2C2C" stroke="#2C2C2C"/>
<path d="M74.2922 641.384C74.3431 641.52 74.394 641.656 74.4369 641.796C75.7941 645.599 75.9654 648.968 72.2753 650.347C68.5852 651.726 65.8463 649.07 64.361 645.095C64.0945 644.382 63.8801 643.686 63.7258 643.004C65.2981 642.416 66.8123 641.795 68.2795 641.147C69.883 640.447 71.4044 639.723 72.8567 638.961L72.8647 638.958C72.9449 638.928 73.0222 638.89 73.0964 638.844C73.4793 639.478 73.8189 640.191 74.1224 640.954C74.1844 641.095 74.2383 641.24 74.2922 641.384Z" fill="#FBFBFB" stroke="#2C2C2C" stroke-miterlimit="10"/>
<path d="M67.1132 652.569C67.2674 652.514 67.4207 652.474 67.5365 652.447C67.5936 652.433 67.6406 652.423 67.6723 652.417C67.688 652.414 67.7001 652.412 67.7076 652.411C67.7113 652.41 67.7138 652.409 67.7153 652.409L67.7162 652.409L67.7878 652.397C67.8147 652.395 67.8465 652.392 67.8821 652.39C68.0147 652.381 68.2038 652.37 68.4263 652.364C68.8751 652.352 69.4453 652.359 69.9643 652.427C70.2237 652.46 70.4591 652.507 70.6539 652.57C70.853 652.635 70.9803 652.707 71.0517 652.77C71.1117 652.823 71.1206 652.859 71.1218 652.891C71.1237 652.941 71.1052 653.065 70.9629 653.283C70.3037 654.286 69.7074 654.686 69.2203 654.816C68.7363 654.945 68.2589 654.834 67.7749 654.597C67.7225 654.57 67.6047 654.48 67.4437 654.305C67.2924 654.14 67.1322 653.932 66.9914 653.714C66.8496 653.494 66.7364 653.279 66.6699 653.099C66.5943 652.894 66.6129 652.828 66.6057 652.852C66.6002 652.87 66.6062 652.832 66.7149 652.759C66.8157 652.691 66.9555 652.626 67.1132 652.569Z" fill="#FEE888" stroke="#2C2C2C"/>
<path d="M63.2974 661.769C67.7001 662.297 72.0971 660.681 75.1106 657.418L75.2019 657.32" stroke="#2C2C2C" stroke-miterlimit="10" stroke-linecap="round"/>
<path d="M63.5063 643.091C63.4181 643.124 63.3218 643.16 63.2306 643.185C61.6583 643.772 60.1081 644.297 58.5721 644.761C56.9238 645.268 55.3006 645.719 53.7206 646.09C53.2098 643.231 53.928 640.798 57.0084 639.647C59.8722 638.577 62.0154 640.251 63.5063 643.091Z" stroke="#2C2C2C" stroke-miterlimit="10"/>
<path d="M73.0953 638.851C73.0211 638.897 72.9439 638.935 72.8637 638.965L72.8557 638.968C71.4034 639.73 69.882 640.453 68.2784 641.153C66.8113 641.802 65.297 642.422 63.7248 643.01C63.0039 639.882 63.6042 637.183 66.8932 635.954C69.5726 634.953 71.6219 636.351 73.0953 638.851Z" stroke="#2C2C2C" stroke-miterlimit="10"/>
<path d="M72.7869 639.572C73.1226 639.98 73.4282 640.513 73.7006 641.147L73.7019 641.15C73.7573 641.277 73.8064 641.408 73.861 641.554C73.9128 641.692 73.9593 641.815 73.9972 641.938L73.9963 641.938L74.001 641.951C74.3369 642.945 74.4804 643.797 74.3509 644.458C74.2313 645.067 73.8711 645.565 73.0314 645.878C72.2067 646.187 71.4908 646.043 70.8729 645.593C70.2323 645.125 69.6783 644.31 69.2871 643.263C69.0441 642.612 68.8862 642.006 68.8355 641.457C70.2089 640.851 71.523 640.225 72.7869 639.572Z" fill="#2C2C2C" stroke="#2C2C2C"/>
</g>
</g>
<defs>
<filter id="filter0_d_40001505_14945" x="306" y="635" width="79" height="79" filterUnits="userSpaceOnUse" color-interpolation-filters="sRGB">
<feFlood flood-opacity="0" result="BackgroundImageFix"/>
<feColorMatrix in="SourceAlpha" type="matrix" values="0 0 0 0 0 0 0 0 0 0 0 0 0 0 0 0 0 0 127 0" result="hardAlpha"/>
<feOffset dx="-1" dy="1"/>
<feGaussianBlur stdDeviation="1"/>
<feComposite in2="hardAlpha" operator="out"/>
<feColorMatrix type="matrix" values="0 0 0 0 0 0 0 0 0 0 0 0 0 0 0 0 0 0 0.25 0"/>
<feBlend mode="normal" in2="BackgroundImageFix" result="effect1_dropShadow_40001505_14945"/>
<feBlend mode="normal" in="SourceGraphic" in2="effect1_dropShadow_40001505_14945" result="shape"/>
</filter>
<filter id="filter1_d_40001505_14945" x="-25" y="127" width="79" height="79" filterUnits="userSpaceOnUse" color-interpolation-filters="sRGB">
<feFlood flood-opacity="0" result="BackgroundImageFix"/>
<feColorMatrix in="SourceAlpha" type="matrix" values="0 0 0 0 0 0 0 0 0 0 0 0 0 0 0 0 0 0 127 0" result="hardAlpha"/>
<feOffset dx="-1" dy="1"/>
<feGaussianBlur stdDeviation="1"/>
<feComposite in2="hardAlpha" operator="out"/>
<feColorMatrix type="matrix" values="0 0 0 0 0 0 0 0 0 0 0 0 0 0 0 0 0 0 0.25 0"/>
<feBlend mode="normal" in2="BackgroundImageFix" result="effect1_dropShadow_40001505_14945"/>
<feBlend mode="normal" in="SourceGraphic" in2="effect1_dropShadow_40001505_14945" result="shape"/>
</filter>
<filter id="filter2_g_40001505_14945" x="-20.4" y="561.6" width="198.954" height="205.407" filterUnits="userSpaceOnUse" color-interpolation-filters="sRGB">
<feFlood flood-opacity="0" result="BackgroundImageFix"/>
<feBlend mode="normal" in="SourceGraphic" in2="BackgroundImageFix" result="shape"/>
<feTurbulence type="fractalNoise" baseFrequency="0.66666668653488159 0.66666668653488159" numOctaves="3" seed="7043" />
<feDisplacementMap in="shape" scale="0.80000001192092896" xChannelSelector="R" yChannelSelector="G" result="displacedImage" width="100%" height="100%" />
<feMerge result="effect1_texture_40001505_14945">
<feMergeNode in="displacedImage"/>
</feMerge>
</filter>
<filter id="filter3_d_40001505_14945" x="10.6924" y="588.145" width="126.027" height="156.962" filterUnits="userSpaceOnUse" color-interpolation-filters="sRGB">
<feFlood flood-opacity="0" result="BackgroundImageFix"/>
<feColorMatrix in="SourceAlpha" type="matrix" values="0 0 0 0 0 0 0 0 0 0 0 0 0 0 0 0 0 0 127 0" result="hardAlpha"/>
<feOffset dx="-1" dy="1"/>
<feGaussianBlur stdDeviation="1"/>
<feComposite in2="hardAlpha" operator="out"/>
<feColorMatrix type="matrix" values="0 0 0 0 0 0 0 0 0 0 0 0 0 0 0 0 0 0 0.25 0"/>
<feBlend mode="normal" in2="BackgroundImageFix" result="effect1_dropShadow_40001505_14945"/>
<feBlend mode="normal" in="SourceGraphic" in2="effect1_dropShadow_40001505_14945" result="shape"/>
</filter>
<clipPath id="clip0_40001505_14945">
<rect width="360" height="800" fill="white"/>
</clipPath>
<clipPath id="clip1_40001505_14945">
<rect width="151" height="162" fill="white" transform="translate(-20 614.856) rotate(-20.49)"/>
</clipPath>
</defs>
</svg>