<svg width="360" height="800" viewBox="0 0 360 800" fill="none" xmlns="http://www.w3.org/2000/svg">
<g clip-path="url(#clip0_40001505_15395)">
<g filter="url(#filter0_d_40001505_15395)">
<path d="M362.463 643.843C377.298 645.866 384.263 660.734 379.46 673.575C383.727 686.902 379.46 700.708 362.463 703.306C354.363 715.419 333.896 714.365 328.468 703.306C311.471 701.958 305.425 684.57 311.471 673.575C304.313 659.89 313.535 645.866 328.468 643.843C339.254 633.122 351.578 633.653 362.463 643.843Z" fill="#FBFBFB"/>
<path d="M345.423 636.501C351.054 636.566 356.742 639.172 362.121 644.208L362.237 644.317L362.396 644.339C376.865 646.312 383.7 660.813 378.991 673.399L378.931 673.562L378.983 673.727C381.09 680.305 381.072 686.949 378.486 692.244C375.911 697.517 370.748 701.534 362.387 702.812L362.17 702.845L362.047 703.027C358.113 708.91 351.154 711.624 344.474 711.495C337.781 711.366 331.521 708.39 328.917 703.085L328.792 702.83L328.508 702.808L327.736 702.734C319.846 701.861 314.497 697.397 311.778 691.838C308.963 686.082 308.971 679.159 311.909 673.815L312.039 673.58L311.914 673.343C308.415 666.654 308.927 659.912 312.114 654.593C315.307 649.264 321.207 645.332 328.535 644.339L328.702 644.316L328.821 644.198C334.142 638.909 339.797 636.437 345.423 636.501Z" stroke="#9C9C9C"/>
</g>
<path d="M357.524 652.552C369.431 651.024 377.28 664.564 370.001 674.076C377.28 683.587 369.431 697.128 357.524 695.599C352.895 706.639 337.197 706.639 332.569 695.599C320.662 697.128 312.813 683.587 320.091 674.076C312.813 664.564 320.662 651.024 332.569 652.552C337.197 641.513 352.895 641.513 357.524 652.552Z" fill="#A7E1B6"/>
<g filter="url(#filter1_d_40001505_15395)">
<path d="M31.4627 135.843C46.2977 137.866 53.2633 152.734 48.4598 165.575C52.7274 178.902 48.4598 192.708 31.4627 195.306C23.3635 207.419 2.89612 206.365 -2.53152 195.306C-19.5286 193.958 -25.5748 176.57 -19.5286 165.575C-26.6869 151.89 -17.4649 137.866 -2.53152 135.843C8.25432 125.122 20.5782 125.653 31.4627 135.843Z" fill="#FBFBFB"/>
<path d="M14.4229 128.501C20.0543 128.566 25.7424 131.172 31.1211 136.208L31.2373 136.317L31.3955 136.339C45.8651 138.312 52.6997 152.813 47.9912 165.399L47.9307 165.562L47.9834 165.727C50.0899 172.305 50.0723 178.949 47.4863 184.244C44.9108 189.517 39.7484 193.534 31.3867 194.812L31.1699 194.845L31.0469 195.027C27.1135 200.91 20.1536 203.624 13.4736 203.495C6.78114 203.366 0.520786 200.39 -2.08301 195.085L-2.20801 194.83L-2.49219 194.808L-3.26367 194.734C-11.1545 193.861 -16.5031 189.397 -19.2217 183.838C-22.0367 178.082 -22.0289 171.159 -19.0908 165.815L-18.9609 165.58L-19.0859 165.343C-22.5847 158.654 -22.0732 151.912 -18.8857 146.593C-15.6927 141.264 -9.79318 137.332 -2.46484 136.339L-2.29785 136.316L-2.17871 136.198C3.14236 130.909 8.79674 128.437 14.4229 128.501Z" stroke="#9C9C9C"/>
</g>
<path d="M26.5238 144.552C38.4307 143.024 46.2798 156.564 39.0013 166.076C46.2798 175.587 38.4307 189.128 26.5238 187.599C21.8954 198.639 6.19704 198.639 1.56869 187.599C-10.3382 189.128 -18.1874 175.587 -10.9088 166.076C-18.1874 156.564 -10.3382 143.024 1.56869 144.552C6.19704 133.513 21.8954 133.513 26.5238 144.552Z" fill="#A7E1B6"/>
<g clip-path="url(#clip1_40001505_15395)" filter="url(#filter2_g_40001505_15395)">
<g filter="url(#filter3_d_40001505_15395)">
<path d="M98.8634 716.911C87.4151 721.189 76.339 724.55 67.6797 726.37C60.4879 727.884 48.4548 730.408 45.1949 721.685C43.8751 718.153 44.9898 715.097 46.7533 712.698C45.6203 710.017 45.1404 707.061 45.4517 704.173C45.7465 701.484 46.6801 699.022 48.1673 696.909L47.4512 697.176C44.1095 698.425 40.3323 698.157 37.0721 696.443C33.5102 694.568 30.8874 691.189 29.8692 687.17C22.2674 656.879 36.0007 626.767 61.8235 617.117C64.0425 616.288 66.3034 615.625 68.6064 615.128C68.3858 608.688 71.6971 602.505 77.3516 599.249C79.0474 594.378 82.8054 590.415 87.8003 588.548C92.7951 586.682 98.2278 587.2 102.703 589.765C108.178 588.7 113.87 590.315 118.095 594.289C121.701 597.685 123.659 602.303 123.671 607.082C125.032 608.647 126.093 610.435 126.829 612.405C129.694 620.072 126.94 628.474 120.652 632.999C125.098 637.699 128.861 643.079 131.879 649.051C133.748 652.731 133.987 657.011 132.536 660.759C131.822 662.594 130.726 664.217 129.352 665.529C131.466 667.035 133.287 669.075 134.613 671.573C136.045 674.274 136.703 677.113 136.659 679.88C139.235 680.708 141.417 682.34 142.528 685.313C145.788 694.036 135.039 700.025 128.617 703.598C120.886 707.903 110.321 712.63 98.8722 716.908L98.8634 716.911Z" fill="#FBFBFB" stroke="#9C9C9C" stroke-miterlimit="10"/>
<path d="M101.319 598.222C109.219 594.046 118.246 601.514 115.669 610.093C123.24 614.879 121.323 626.437 112.621 628.466C112.292 637.427 101.348 641.517 95.2226 634.967C87.3227 639.143 78.2955 631.674 80.8728 623.096C73.3013 618.31 75.2185 606.751 83.921 604.723C84.2493 595.761 95.1938 591.671 101.319 598.222Z" fill="#A7E1B6"/>
<path d="M96.2069 709.803C119.174 701.22 136.738 691.442 135.438 687.962C134.137 684.482 114.465 688.619 91.4979 697.201C68.531 705.784 50.9667 715.562 52.2671 719.042C53.5675 722.522 73.24 718.385 96.2069 709.803Z" fill="#2C2C2C"/>
<path d="M67.0329 640.089L89.1486 699.272C90.3591 702.511 88.7239 706.116 85.4971 707.321L65.2261 714.896C54.6087 718.864 47.6781 703.148 57.9672 698.383C58.2843 698.234 58.6169 698.1 58.9617 697.971C63.4085 696.309 69.1494 696.035 74.4738 696.452L60.6269 642.493L67.0362 640.098L67.0329 640.089Z" fill="#CBCBC5" stroke="#2C2C2C" stroke-miterlimit="10"/>
<path d="M79.9562 697.266C78.7958 697.073 76.1921 696.549 71.48 696.287L79.9562 697.266Z" fill="#CBCBC5"/>
<path d="M79.9562 697.266C78.7958 697.073 76.1921 696.549 71.48 696.287" stroke="#2C2C2C" stroke-miterlimit="10" stroke-linecap="round"/>
<path d="M71.0768 642.553L98.8912 697.816C100.893 700.638 104.781 701.309 107.59 699.309L125.23 686.77C134.472 680.201 125.374 665.64 115.656 671.476C115.352 671.66 115.052 671.853 114.758 672.064C110.889 674.815 108.121 678.246 105.476 682.895L76.6483 638.589L71.068 642.556L71.0768 642.553Z" fill="#CBCBC5" stroke="#2C2C2C" stroke-miterlimit="10"/>
<path d="M102.361 689.065C102.848 687.993 103.886 685.542 106.311 681.491L102.361 689.065Z" fill="#CBCBC5"/>
<path d="M102.361 689.065C102.848 687.993 103.886 685.542 106.311 681.491" stroke="#2C2C2C" stroke-miterlimit="10" stroke-linecap="round"/>
<path d="M107.453 698.915C107.453 698.915 118.42 675.126 123.897 677.65" stroke="#2C2C2C" stroke-miterlimit="10" stroke-linecap="round"/>
<path d="M122.518 661.044L44.8014 690.086C41.7161 691.239 38.1265 689.02 37.1923 685.334C30.5911 659.068 41.9332 632.641 64.4675 624.22C87.0017 615.799 112.895 628.312 125.137 652.47C126.858 655.862 125.594 659.895 122.509 661.048L122.518 661.044Z" fill="#EEEDEB" stroke="#2C2C2C" stroke-miterlimit="10"/>
<path d="M106.311 681.492L106.247 681.617C106.157 681.752 106.069 681.896 105.985 682.049C106.089 681.868 106.202 681.684 106.311 681.492Z" fill="white" stroke="#2C2C2C" stroke-miterlimit="10" stroke-linecap="round"/>
<path d="M84.4131 644.245C86.058 648.646 86.4098 652.58 82.2017 654.153C78.2589 655.626 75.1135 652.736 73.4687 648.334C71.8238 643.933 71.8256 639.866 76.2458 638.215C80.0914 636.778 82.7683 639.843 84.4131 644.245Z" fill="#FBFBFB" stroke="#2C2C2C" stroke-miterlimit="10"/>
<path d="M73.4776 648.331C75.1224 652.732 75.4742 656.666 71.2662 658.239C67.3234 659.712 64.178 656.822 62.5331 652.42C60.8883 648.019 60.8901 643.952 65.3103 642.301C69.1559 640.864 71.8327 643.929 73.4776 648.331Z" fill="#FBFBFB" stroke="#2C2C2C" stroke-miterlimit="10"/>
<path d="M73.5607 648.553C74.4727 650.993 74.6729 653.174 72.3391 654.046C70.1555 654.862 68.4082 653.259 67.4962 650.819C66.5842 648.378 66.5873 646.122 69.0361 645.207C71.1667 644.411 72.6488 646.112 73.5607 648.553Z" fill="#2C2C2C"/>
<path d="M84.4963 644.467C85.4082 646.907 85.6085 649.088 83.2746 649.96C81.091 650.776 79.3437 649.173 78.4317 646.733C77.5198 644.292 77.5229 642.036 79.9717 641.121C82.1022 640.325 83.5843 642.026 84.4963 644.467Z" fill="#2C2C2C"/>
<path d="M76.531 656.422C76.6132 656.391 76.7828 656.378 76.9542 656.436C77.1153 656.489 77.2162 656.581 77.2597 656.698C77.3125 656.839 77.3041 657.075 77.2157 657.322C77.1739 657.438 77.1222 657.534 77.0742 657.599C77.0494 657.632 77.0318 657.649 77.0237 657.656C76.8952 657.702 76.7216 657.733 76.5709 657.697C76.4526 657.669 76.2818 657.587 76.1529 657.243C76.0512 656.971 76.1324 656.79 76.2608 656.641C76.3304 656.561 76.4115 656.496 76.4783 656.451C76.4919 656.442 76.5051 656.434 76.5164 656.427L76.531 656.422Z" fill="#A7E1B6" stroke="#2C2C2C"/>
<path d="M57.2988 643.859C57.2988 643.859 57.2055 638.998 62.258 638.688" stroke="#2C2C2C" stroke-miterlimit="10" stroke-linecap="round"/>
<path d="M81.1737 659.948C81.1737 659.948 77.8168 663.447 74.0171 660.073" stroke="#2C2C2C" stroke-miterlimit="10" stroke-linecap="round"/>
</g>
</g>
</g>
<defs>
<filter id="filter0_d_40001505_15395" x="306" y="635" width="76" height="80" filterUnits="userSpaceOnUse" color-interpolation-filters="sRGB">
<feFlood flood-opacity="0" result="BackgroundImageFix"/>
<feColorMatrix in="SourceAlpha" type="matrix" values="0 0 0 0 0 0 0 0 0 0 0 0 0 0 0 0 0 0 127 0" result="hardAlpha"/>
<feOffset dx="-1" dy="1"/>
<feGaussianBlur stdDeviation="1"/>
<feComposite in2="hardAlpha" operator="out"/>
<feColorMatrix type="matrix" values="0 0 0 0 0 0 0 0 0 0 0 0 0 0 0 0 0 0 0.25 0"/>
<feBlend mode="normal" in2="BackgroundImageFix" result="effect1_dropShadow_40001505_15395"/>
<feBlend mode="normal" in="SourceGraphic" in2="effect1_dropShadow_40001505_15395" result="shape"/>
</filter>
<filter id="filter1_d_40001505_15395" x="-25" y="127" width="76" height="80" filterUnits="userSpaceOnUse" color-interpolation-filters="sRGB">
<feFlood flood-opacity="0" result="BackgroundImageFix"/>
<feColorMatrix in="SourceAlpha" type="matrix" values="0 0 0 0 0 0 0 0 0 0 0 0 0 0 0 0 0 0 127 0" result="hardAlpha"/>
<feOffset dx="-1" dy="1"/>
<feGaussianBlur stdDeviation="1"/>
<feComposite in2="hardAlpha" operator="out"/>
<feColorMatrix type="matrix" values="0 0 0 0 0 0 0 0 0 0 0 0 0 0 0 0 0 0 0.25 0"/>
<feBlend mode="normal" in2="BackgroundImageFix" result="effect1_dropShadow_40001505_15395"/>
<feBlend mode="normal" in="SourceGraphic" in2="effect1_dropShadow_40001505_15395" result="shape"/>
</filter>
<filter id="filter2_g_40001505_15395" x="-18.4" y="554.6" width="198.954" height="205.407" filterUnits="userSpaceOnUse" color-interpolation-filters="sRGB">
<feFlood flood-opacity="0" result="BackgroundImageFix"/>
<feBlend mode="normal" in="SourceGraphic" in2="BackgroundImageFix" result="shape"/>
<feTurbulence type="fractalNoise" baseFrequency="0.66666668653488159 0.66666668653488159" numOctaves="3" seed="7043" />
<feDisplacementMap in="shape" scale="0.80000001192092896" xChannelSelector="R" yChannelSelector="G" result="displacedImage" width="100%" height="100%" />
<feMerge result="effect1_texture_40001505_15395">
<feMergeNode in="displacedImage"/>
</feMerge>
</filter>
<filter id="filter3_d_40001505_15395" x="24.2832" y="585.932" width="120.348" height="145.479" filterUnits="userSpaceOnUse" color-interpolation-filters="sRGB">
<feFlood flood-opacity="0" result="BackgroundImageFix"/>
<feColorMatrix in="SourceAlpha" type="matrix" values="0 0 0 0 0 0 0 0 0 0 0 0 0 0 0 0 0 0 127 0" result="hardAlpha"/>
<feOffset dx="-1" dy="1"/>
<feGaussianBlur stdDeviation="1"/>
<feComposite in2="hardAlpha" operator="out"/>
<feColorMatrix type="matrix" values="0 0 0 0 0 0 0 0 0 0 0 0 0 0 0 0 0 0 0.25 0"/>
<feBlend mode="normal" in2="BackgroundImageFix" result="effect1_dropShadow_40001505_15395"/>
<feBlend mode="normal" in="SourceGraphic" in2="effect1_dropShadow_40001505_15395" result="shape"/>
</filter>
<clipPath id="clip0_40001505_15395">
<rect width="360" height="800" fill="white"/>
</clipPath>
<clipPath id="clip1_40001505_15395">
<rect width="151" height="162" fill="white" transform="translate(-18 607.856) rotate(-20.49)"/>
</clipPath>
</defs>
</svg>