<svg width="360" height="800" viewBox="0 0 360 800" fill="none" xmlns="http://www.w3.org/2000/svg">
<g clip-path="url(#clip0_40001435_13721)">
<g filter="url(#filter0_d_40001435_13721)">
<path d="M346.812 711C341.771 711 337.163 708.918 333.914 705.447C333.511 705.478 333.099 705.488 332.696 705.488C326.529 705.488 320.694 702.128 317.464 696.726C315.703 693.769 314.878 690.47 314.999 687.16C311.327 683.961 309.083 679.304 309.003 674.124C308.912 668.943 311.005 664.226 314.556 660.906C314.315 657.506 315.08 654.076 316.85 650.998C320.05 645.445 325.935 641.985 332.213 641.985C332.425 641.985 332.626 641.985 332.837 641.995C336.097 638.253 340.866 636 346.178 636C351.49 636 355.827 638.082 359.086 641.553C359.489 641.522 359.901 641.512 360.304 641.512C366.471 641.512 372.306 644.872 375.536 650.274C377.297 653.231 378.122 656.53 378.001 659.84C381.673 663.039 383.917 667.696 383.997 672.876C384.088 678.057 381.995 682.774 378.444 686.094C378.685 689.494 377.92 692.914 376.15 696.002C372.95 701.555 367.065 705.015 360.787 705.015C360.575 705.015 360.374 705.015 360.163 705.005C356.903 708.747 352.134 711 346.822 711H346.812Z" fill="#FBFBFB"/>
<path d="M346.812 711C341.771 711 337.163 708.918 333.914 705.447C333.511 705.478 333.099 705.488 332.696 705.488C326.529 705.488 320.694 702.128 317.464 696.726C315.703 693.769 314.878 690.47 314.999 687.16C311.327 683.961 309.083 679.304 309.003 674.124C308.912 668.943 311.005 664.226 314.556 660.906C314.315 657.506 315.08 654.076 316.85 650.998C320.05 645.445 325.935 641.985 332.213 641.985C332.425 641.985 332.626 641.985 332.837 641.995C336.097 638.253 340.866 636 346.178 636C351.49 636 355.827 638.082 359.086 641.553C359.489 641.522 359.901 641.512 360.304 641.512C366.471 641.512 372.306 644.872 375.536 650.274C377.297 653.231 378.122 656.53 378.001 659.84C381.673 663.039 383.917 667.696 383.997 672.876C384.088 678.057 381.995 682.774 378.444 686.094C378.685 689.494 377.92 692.914 376.15 696.002C372.95 701.555 367.065 705.015 360.787 705.015C360.575 705.015 360.374 705.015 360.163 705.005C356.903 708.747 352.134 711 346.822 711H346.812Z" stroke="#9C9C9C" stroke-miterlimit="10"/>
</g>
<g filter="url(#filter1_g_40001435_13721)">
<path d="M356.149 695.761C353.664 705.176 340.373 705.397 337.576 696.073C329.155 700.971 319.607 691.737 324.225 683.157C314.808 680.672 314.587 667.384 323.913 664.588C319.014 656.168 328.25 646.622 336.832 651.24C339.317 641.824 352.607 641.603 355.404 650.928C363.825 646.029 373.373 655.263 368.755 663.843C378.172 666.328 378.393 679.616 369.067 682.412C373.967 690.832 364.731 700.378 356.149 695.761Z" fill="#FBD7D5"/>
</g>
<g filter="url(#filter2_d_40001435_13721)">
<path d="M15.8119 203C10.7714 203 6.16343 200.918 2.91375 197.447C2.51131 197.478 2.09881 197.488 1.69637 197.488C-4.471 197.488 -10.3063 194.128 -13.5359 188.726C-15.2966 185.769 -16.1216 182.47 -16.0008 179.16C-19.6731 175.961 -21.9167 171.304 -21.9972 166.124C-22.0877 160.943 -19.995 156.226 -16.4435 152.906C-16.685 149.506 -15.9204 146.076 -14.1496 142.998C-10.9502 137.445 -5.06459 133.985 1.21344 133.985C1.42472 133.985 1.62594 133.985 1.83722 133.995C5.09697 130.253 9.86586 128 15.178 128C20.4902 128 24.8265 130.082 28.0863 133.553C28.4887 133.522 28.9012 133.512 29.3036 133.512C35.471 133.512 41.3063 136.872 44.5359 142.274C46.2966 145.231 47.1216 148.53 47.0008 151.84C50.6731 155.039 52.9167 159.696 52.9972 164.876C53.0877 170.057 50.995 174.774 47.4435 178.094C47.685 181.494 46.9204 184.914 45.1496 188.002C41.9502 193.555 36.0646 197.015 29.7866 197.015C29.5753 197.015 29.3741 197.015 29.1628 197.005C25.903 200.747 21.1341 203 15.8219 203H15.8119Z" fill="#FBFBFB"/>
<path d="M15.8119 203C10.7714 203 6.16343 200.918 2.91375 197.447C2.51131 197.478 2.09881 197.488 1.69637 197.488C-4.471 197.488 -10.3063 194.128 -13.5359 188.726C-15.2966 185.769 -16.1216 182.47 -16.0008 179.16C-19.6731 175.961 -21.9167 171.304 -21.9972 166.124C-22.0877 160.943 -19.995 156.226 -16.4435 152.906C-16.685 149.506 -15.9204 146.076 -14.1496 142.998C-10.9502 137.445 -5.06459 133.985 1.21344 133.985C1.42472 133.985 1.62594 133.985 1.83722 133.995C5.09697 130.253 9.86586 128 15.178 128C20.4902 128 24.8265 130.082 28.0863 133.553C28.4887 133.522 28.9012 133.512 29.3036 133.512C35.471 133.512 41.3063 136.872 44.5359 142.274C46.2966 145.231 47.1216 148.53 47.0008 151.84C50.6731 155.039 52.9167 159.696 52.9972 164.876C53.0877 170.057 50.995 174.774 47.4435 178.094C47.685 181.494 46.9204 184.914 45.1496 188.002C41.9502 193.555 36.0646 197.015 29.7866 197.015C29.5753 197.015 29.3741 197.015 29.1628 197.005C25.903 200.747 21.1341 203 15.8219 203H15.8119Z" stroke="#9C9C9C" stroke-miterlimit="10"/>
</g>
<g filter="url(#filter3_g_40001435_13721)">
<path d="M25.1487 187.761C22.6636 197.176 9.37309 197.397 6.57615 188.073C-1.84487 192.971 -11.3927 183.737 -6.77474 175.157C-16.1918 172.672 -16.4131 159.384 -7.08663 156.588C-11.9863 148.168 -2.75036 138.622 5.83164 143.24C8.31669 133.824 21.6072 133.603 24.4042 142.928C32.8252 138.029 42.373 147.263 37.755 155.843C47.1721 158.328 47.3934 171.616 38.0669 174.412C42.9666 182.832 33.7307 192.378 25.1487 187.761Z" fill="#FBD7D5"/>
</g>
<g clip-path="url(#clip1_40001435_13721)" filter="url(#filter4_g_40001435_13721)">
<g filter="url(#filter5_d_40001435_13721)">
<path d="M90.0754 736.831C80.6954 740.336 71.6199 743.088 64.5241 744.577C58.6308 745.816 48.7632 747.884 46.0885 740.727C45.0045 737.826 45.9188 735.325 47.3698 733.354C46.4368 731.144 46.0443 728.724 46.2975 726.354C46.7925 721.758 49.5823 717.958 53.9379 715.94C54.2964 715.773 54.711 715.601 55.1818 715.425C57.2244 714.662 59.5408 714.145 62.1064 713.876L60.6431 708.193C55.6333 708.77 50.7297 708.725 46.0013 708.067C37.1451 706.833 29.198 701.339 24.7574 693.388C23.3948 690.957 22.2051 688.37 21.2055 685.695C18.7297 679.07 17.5442 672.054 17.7629 665.394C18.2658 650.504 25.6014 638.635 36.9226 634.404C41.0512 632.861 45.4363 632.402 49.9581 633.038C50.1502 633.065 50.3331 633.047 50.507 632.982C50.6808 632.917 50.8383 632.808 50.9695 632.651C53.9733 629.203 57.5803 626.684 61.7018 625.144C65.8232 623.603 70.3721 623.141 74.9221 623.808C76.4644 621.595 78.6365 619.853 81.2079 618.892C81.36 618.836 81.5049 618.781 81.6524 618.735C82.9861 615.146 85.812 612.238 89.6364 610.809C93.4609 609.38 97.1465 609.722 100.433 611.359C100.715 611.229 101.009 611.111 101.299 611.002C105.739 609.343 110.839 610.203 114.627 613.248C116.693 614.909 118.183 617.085 118.996 619.505C122.581 620.857 125.487 623.708 126.928 627.564C128.292 631.215 128.048 635.111 126.428 638.399C126.562 638.689 126.678 638.978 126.79 639.277C129.391 646.237 125.748 654.293 118.838 656.876C118.686 656.933 118.534 656.989 118.379 657.039C117.045 660.627 114.219 663.535 110.402 664.962C110.257 665.016 110.12 665.068 109.975 665.122C110.456 672.085 108.408 678.997 104.105 684.625C101.261 688.346 97.7345 691.832 93.7368 694.896L95.8082 698.075C96.952 696.917 98.1693 695.889 99.4881 694.956C99.8293 694.72 100.223 694.448 100.676 694.18C101.432 693.731 102.216 693.355 103.013 693.057C109.228 690.734 116.09 693.502 119.334 699.641C120.509 701.86 121.053 704.198 121.019 706.47C123.131 707.151 124.913 708.495 125.825 710.937C128.5 718.094 119.701 723.002 114.44 725.931C108.107 729.461 99.4509 733.335 90.0709 736.841L90.0754 736.831Z" fill="#FBFBFB" stroke="#9C9C9C" stroke-miterlimit="10"/>
<path d="M113 651.416C113.76 658.906 104.252 662.642 99.7135 656.639C94.9773 662.454 85.6031 658.332 86.6045 650.872C79.152 651.606 75.3947 642.038 81.3521 637.502C75.5449 632.72 79.6094 623.319 87.0381 624.355C86.2778 616.865 95.7863 613.129 100.325 619.132C105.061 613.317 114.435 617.439 113.434 624.899C120.886 624.165 124.643 633.733 118.686 638.269C124.493 643.051 120.429 652.452 113 651.416Z" fill="#FBD7D5"/>
<path d="M87.8959 731C106.714 723.968 121.102 715.95 120.034 713.092C118.966 710.234 102.846 713.618 84.0283 720.651C65.2107 727.683 50.8218 735.701 51.8899 738.558C52.9579 741.416 69.0783 738.032 87.8959 731Z" fill="#2C2C2C"/>
<path d="M63.9398 673.745L82.1039 722.35C83.0981 725.01 81.7603 727.969 79.1165 728.957L62.5077 735.164C53.8085 738.415 48.1181 725.507 56.5477 721.601C56.8075 721.479 57.0801 721.369 57.3626 721.263C61.0059 719.902 65.7109 719.68 70.0749 720.026L58.6912 675.715L63.9425 673.752L63.9398 673.745Z" fill="#CBCBC5" stroke="#2C2C2C" stroke-miterlimit="10"/>
<path d="M74.5686 720.698C73.6175 720.538 71.4832 720.107 67.6211 719.889L74.5686 720.698Z" fill="#CBCBC5"/>
<path d="M74.5686 720.698C73.6175 720.538 71.4832 720.107 67.6211 719.889" stroke="#2C2C2C" stroke-miterlimit="10" stroke-linecap="round"/>
<path d="M67.2555 675.77L90.0875 721.161C91.7298 723.479 94.9166 724.032 97.2175 722.392L111.667 712.108C119.238 706.72 111.771 694.759 103.81 699.545C103.562 699.696 103.315 699.854 103.075 700.027C99.9057 702.283 97.6394 705.098 95.4746 708.914L71.8192 672.519L67.2483 675.773L67.2555 675.77Z" fill="#CBCBC5" stroke="#2C2C2C" stroke-miterlimit="10"/>
<path d="M92.9236 713.971C93.3213 713.091 94.1709 711.079 96.156 707.754L92.9236 713.971Z" fill="#CBCBC5"/>
<path d="M92.9236 713.971C93.3213 713.091 94.1709 711.079 96.156 707.754" stroke="#2C2C2C" stroke-miterlimit="10" stroke-linecap="round"/>
<path d="M74.5699 720.697L67.7329 719.896C71.5289 720.114 73.6288 720.542 74.5699 720.697Z" fill="#FBFBFB" stroke="#2C2C2C" stroke-miterlimit="10"/>
<path d="M74.5699 720.697L67.7329 719.896C71.5289 720.114 73.6288 720.542 74.5699 720.697Z" fill="#FBFBFB" stroke="#2C2C2C" stroke-miterlimit="10" stroke-linecap="round"/>
<path d="M96.1084 707.847L92.924 713.971C93.272 713.201 93.9716 711.561 95.4826 708.911C95.6734 708.583 95.8851 708.221 96.1084 707.847Z" fill="#FBFBFB" stroke="#2C2C2C" stroke-miterlimit="10"/>
<path d="M96.1084 707.847L92.924 713.971C93.272 713.201 93.9716 711.561 95.4826 708.911C95.6734 708.583 95.8851 708.221 96.1084 707.847Z" fill="#FBFBFB" stroke="#2C2C2C" stroke-miterlimit="10" stroke-linecap="round"/>
<path d="M97.1054 722.068C97.1054 722.068 106.079 702.542 110.569 704.619" stroke="#2C2C2C" stroke-miterlimit="10" stroke-linecap="round"/>
<path d="M101.4 655.717C102.163 657.758 102.779 659.804 103.25 661.837C104.795 668.469 103.317 675.425 99.1965 680.811C93.8817 687.773 85.8155 693.91 75.8979 697.899C75.3963 698.103 74.892 698.3 74.3777 698.492L73.9359 698.657C64.5504 702.081 55.0947 703.065 46.8336 701.9C39.7763 700.907 33.6417 696.596 30.1518 690.35C28.9571 688.214 27.8963 685.927 26.9975 683.522C24.7287 677.451 23.7577 671.318 23.9491 665.624C24.346 653.697 29.8229 643.702 39.0943 640.237C42.3175 639.032 45.7092 638.72 49.116 639.199C51.5798 639.541 54.0063 638.634 55.6349 636.763C57.8878 634.177 60.6502 632.181 63.8663 630.979C73.6954 627.306 85.1196 631.966 93.3759 641.821C96.6372 645.711 99.4074 650.407 101.393 655.72L101.4 655.717Z" fill="#EEEDEB" stroke="#2C2C2C" stroke-miterlimit="10"/>
<path d="M63.2973 665.396C64.6482 669.011 64.9391 672.241 61.4913 673.53C58.2608 674.737 55.6811 672.362 54.3301 668.747C52.9792 665.132 52.978 661.793 56.5996 660.44C59.7505 659.263 61.9463 661.781 63.2973 665.396Z" fill="#FBFBFB" stroke="#2C2C2C" stroke-miterlimit="10"/>
<path d="M63.4337 665.76C64.1827 667.764 64.3482 669.555 62.436 670.269C60.6469 670.938 59.2138 669.621 58.4648 667.617C57.7158 665.613 57.7168 663.76 59.7232 663.01C61.4688 662.358 62.6847 663.756 63.4337 665.76Z" fill="#2C2C2C"/>
<path d="M72.2568 662.047C73.6077 665.662 73.8986 668.893 70.4508 670.181C67.2203 671.388 64.6405 669.013 63.2896 665.398C61.9387 661.783 61.9375 658.445 65.5591 657.091C68.7099 655.914 70.9058 658.432 72.2568 662.047Z" fill="#FBFBFB" stroke="#2C2C2C" stroke-miterlimit="10"/>
<path d="M66.4256 671.935C66.4256 671.935 62.8386 673.492 64.0675 675.366C65.2964 677.241 70.2449 674.91 70.6424 673.765C71.0399 672.619 69.8057 670.863 66.4229 671.928L66.4256 671.935Z" fill="#FBD7D5" stroke="#2C2C2C"/>
<path d="M56.0898 677.035C56.0898 677.035 62.3533 684.629 70.311 676.654" stroke="#2C2C2C" stroke-miterlimit="10" stroke-linecap="round"/>
<path d="M72.2569 662.047C73.0059 664.051 73.1714 665.842 71.2592 666.556C69.4701 667.225 68.037 665.908 67.288 663.904C66.539 661.9 66.5401 660.047 68.5465 659.297C70.2921 658.645 71.5079 660.043 72.2569 662.047Z" fill="#2C2C2C"/>
<path d="M49.1091 677.351C49.3611 677.257 49.4886 676.975 49.3938 676.722C49.299 676.468 49.0179 676.339 48.7659 676.433C48.5139 676.527 48.3864 676.809 48.4812 677.063C48.5759 677.316 48.8571 677.445 49.1091 677.351Z" fill="#2C2C2C"/>
<path d="M51.9558 676.288C52.2078 676.194 52.3353 675.912 52.2405 675.658C52.1457 675.405 51.8646 675.275 51.6126 675.37C51.3606 675.464 51.2331 675.746 51.3278 675.999C51.4226 676.253 51.7037 676.382 51.9558 676.288Z" fill="#2C2C2C"/>
<path d="M51.0666 678.239C51.3186 678.145 51.4461 677.863 51.3513 677.609C51.2566 677.356 50.9754 677.226 50.7234 677.321C50.4714 677.415 50.3439 677.697 50.4387 677.95C50.5334 678.204 50.8146 678.333 51.0666 678.239Z" fill="#2C2C2C"/>
<path d="M76.0246 667.293C76.2766 667.199 76.4041 666.917 76.3093 666.663C76.2146 666.409 75.9334 666.28 75.6814 666.374C75.4294 666.469 75.3019 666.75 75.3967 667.004C75.4915 667.258 75.7726 667.387 76.0246 667.293Z" fill="#2C2C2C"/>
<path d="M78.864 666.232C79.116 666.138 79.2435 665.856 79.1487 665.602C79.0539 665.349 78.7728 665.22 78.5208 665.314C78.2688 665.408 78.1413 665.69 78.236 665.944C78.3308 666.197 78.6119 666.326 78.864 666.232Z" fill="#2C2C2C"/>
<path d="M77.9758 668.183C78.2278 668.089 78.3553 667.807 78.2605 667.554C78.1658 667.3 77.8846 667.171 77.6326 667.265C77.3806 667.359 77.2531 667.641 77.3479 667.895C77.4426 668.148 77.7238 668.278 77.9758 668.183Z" fill="#2C2C2C"/>
</g>
</g>
</g>
<defs>
<filter id="filter0_d_40001435_13721" x="305.5" y="634.5" width="80" height="80" filterUnits="userSpaceOnUse" color-interpolation-filters="sRGB">
<feFlood flood-opacity="0" result="BackgroundImageFix"/>
<feColorMatrix in="SourceAlpha" type="matrix" values="0 0 0 0 0 0 0 0 0 0 0 0 0 0 0 0 0 0 127 0" result="hardAlpha"/>
<feOffset dx="-1" dy="1"/>
<feGaussianBlur stdDeviation="1"/>
<feComposite in2="hardAlpha" operator="out"/>
<feColorMatrix type="matrix" values="0 0 0 0 0 0 0 0 0 0 0 0 0 0 0 0 0 0 0.25 0"/>
<feBlend mode="normal" in2="BackgroundImageFix" result="effect1_dropShadow_40001435_13721"/>
<feBlend mode="normal" in="SourceGraphic" in2="effect1_dropShadow_40001435_13721" result="shape"/>
</filter>
<filter id="filter1_g_40001435_13721" x="316.639" y="643.655" width="59.7023" height="59.6906" filterUnits="userSpaceOnUse" color-interpolation-filters="sRGB">
<feFlood flood-opacity="0" result="BackgroundImageFix"/>
<feBlend mode="normal" in="SourceGraphic" in2="BackgroundImageFix" result="shape"/>
<feTurbulence type="fractalNoise" baseFrequency="0.66666668653488159 0.66666668653488159" numOctaves="3" seed="7043" />
<feDisplacementMap in="shape" scale="0.80000001192092896" xChannelSelector="R" yChannelSelector="G" result="displacedImage" width="100%" height="100%" />
<feMerge result="effect1_texture_40001435_13721">
<feMergeNode in="displacedImage"/>
</feMerge>
</filter>
<filter id="filter2_d_40001435_13721" x="-25.5" y="126.5" width="80" height="80" filterUnits="userSpaceOnUse" color-interpolation-filters="sRGB">
<feFlood flood-opacity="0" result="BackgroundImageFix"/>
<feColorMatrix in="SourceAlpha" type="matrix" values="0 0 0 0 0 0 0 0 0 0 0 0 0 0 0 0 0 0 127 0" result="hardAlpha"/>
<feOffset dx="-1" dy="1"/>
<feGaussianBlur stdDeviation="1"/>
<feComposite in2="hardAlpha" operator="out"/>
<feColorMatrix type="matrix" values="0 0 0 0 0 0 0 0 0 0 0 0 0 0 0 0 0 0 0.25 0"/>
<feBlend mode="normal" in2="BackgroundImageFix" result="effect1_dropShadow_40001435_13721"/>
<feBlend mode="normal" in="SourceGraphic" in2="effect1_dropShadow_40001435_13721" result="shape"/>
</filter>
<filter id="filter3_g_40001435_13721" x="-14.3609" y="135.655" width="59.7023" height="59.6906" filterUnits="userSpaceOnUse" color-interpolation-filters="sRGB">
<feFlood flood-opacity="0" result="BackgroundImageFix"/>
<feBlend mode="normal" in="SourceGraphic" in2="BackgroundImageFix" result="shape"/>
<feTurbulence type="fractalNoise" baseFrequency="0.66666668653488159 0.66666668653488159" numOctaves="3" seed="7043" />
<feDisplacementMap in="shape" scale="0.80000001192092896" xChannelSelector="R" yChannelSelector="G" result="displacedImage" width="100%" height="100%" />
<feMerge result="effect1_texture_40001435_13721">
<feMergeNode in="displacedImage"/>
</feMerge>
</filter>
<filter id="filter4_g_40001435_13721" x="-4.4" y="588.6" width="171.319" height="176.872" filterUnits="userSpaceOnUse" color-interpolation-filters="sRGB">
<feFlood flood-opacity="0" result="BackgroundImageFix"/>
<feBlend mode="normal" in="SourceGraphic" in2="BackgroundImageFix" result="shape"/>
<feTurbulence type="fractalNoise" baseFrequency="0.66666668653488159 0.66666668653488159" numOctaves="3" seed="7043" />
<feDisplacementMap in="shape" scale="0.80000001192092896" xChannelSelector="R" yChannelSelector="G" result="displacedImage" width="100%" height="100%" />
<feMerge result="effect1_texture_40001435_13721">
<feMergeNode in="displacedImage"/>
</feMerge>
</filter>
<filter id="filter5_d_40001435_13721" x="14.2373" y="608.41" width="115.077" height="140.927" filterUnits="userSpaceOnUse" color-interpolation-filters="sRGB">
<feFlood flood-opacity="0" result="BackgroundImageFix"/>
<feColorMatrix in="SourceAlpha" type="matrix" values="0 0 0 0 0 0 0 0 0 0 0 0 0 0 0 0 0 0 127 0" result="hardAlpha"/>
<feOffset dx="-1" dy="1"/>
<feGaussianBlur stdDeviation="1"/>
<feComposite in2="hardAlpha" operator="out"/>
<feColorMatrix type="matrix" values="0 0 0 0 0 0 0 0 0 0 0 0 0 0 0 0 0 0 0.25 0"/>
<feBlend mode="normal" in2="BackgroundImageFix" result="effect1_dropShadow_40001435_13721"/>
<feBlend mode="normal" in="SourceGraphic" in2="effect1_dropShadow_40001435_13721" result="shape"/>
</filter>
<clipPath id="clip0_40001435_13721">
<rect width="360" height="800" fill="white"/>
</clipPath>
<clipPath id="clip1_40001435_13721">
<rect width="129.94" height="139.406" fill="white" transform="translate(-4 634.487) rotate(-20.4911)"/>
</clipPath>
</defs>
</svg>