<svg width="360" height="800" viewBox="0 0 360 800" fill="none" xmlns="http://www.w3.org/2000/svg">
<g clip-path="url(#clip0_40001505_15550)">
<g filter="url(#filter0_d_40001505_15550)">
<path d="M339.5 711C356.345 711 370 694.211 370 673.5C370 652.789 356.345 636 339.5 636C322.655 636 309 652.789 309 673.5C309 694.211 322.655 711 339.5 711Z" fill="#FBFBFB"/>
<path d="M339.5 636.5C355.977 636.5 369.5 652.964 369.5 673.5C369.5 694.036 355.977 710.5 339.5 710.5C323.023 710.5 309.5 694.036 309.5 673.5C309.5 652.964 323.023 636.5 339.5 636.5Z" stroke="#9C9C9C"/>
</g>
<path d="M339.5 701.357C352.207 701.357 362.509 688.645 362.509 672.964C362.509 657.283 352.207 644.571 339.5 644.571C326.793 644.571 316.491 657.283 316.491 672.964C316.491 688.645 326.793 701.357 339.5 701.357Z" fill="#93D1E0"/>
<g filter="url(#filter1_d_40001505_15550)">
<path d="M8.5 203C25.3447 203 39 186.211 39 165.5C39 144.789 25.3447 128 8.5 128C-8.34469 128 -22 144.789 -22 165.5C-22 186.211 -8.34469 203 8.5 203Z" fill="#FBFBFB"/>
<path d="M8.5 128.5C24.977 128.5 38.5 144.964 38.5 165.5C38.5 186.036 24.977 202.5 8.5 202.5C-7.97696 202.5 -21.5 186.036 -21.5 165.5C-21.5 144.964 -7.97696 128.5 8.5 128.5Z" stroke="#9C9C9C"/>
</g>
<path d="M8.49998 193.357C21.2074 193.357 31.5088 180.645 31.5088 164.964C31.5088 149.283 21.2074 136.571 8.49998 136.571C-4.20741 136.571 -14.5088 149.283 -14.5088 164.964C-14.5088 180.645 -4.20741 193.357 8.49998 193.357Z" fill="#93D1E0"/>
<g clip-path="url(#clip1_40001505_15550)" filter="url(#filter2_g_40001505_15550)">
<g filter="url(#filter3_d_40001505_15550)">
<path d="M102.607 732.574C91.7014 736.649 81.1667 739.844 72.924 741.577C66.5295 742.917 54.6242 745.421 51.5212 737.118C50.2648 733.756 51.3259 730.846 53.013 728.56C51.9313 725.999 51.4745 723.186 51.7824 720.442C52.3646 715.123 55.5946 710.729 60.6552 708.386C60.7141 708.364 60.7646 708.345 60.8203 708.314C61.2737 708.116 61.6881 707.942 62.1089 707.785C64.4903 706.895 67.1811 706.294 70.1527 705.982L66.2717 690.874C57.976 688.795 51.4241 683.272 48.5894 675.686C47.0458 671.556 46.713 667.021 47.6266 662.588C48.0251 660.677 47.3864 658.711 45.8683 657.19C43.6475 654.968 41.9578 652.345 40.8593 649.406C39.5651 645.942 39.1765 642.131 39.7347 638.389C40.1384 635.697 39.4081 633.178 37.7701 631.643C35.3778 629.399 33.5861 626.708 32.4465 623.659C27.9472 611.593 35.3566 597.647 48.9637 592.563C57.2778 589.456 66.2329 590.297 72.9424 594.471C73.4957 594.206 74.0616 593.976 74.6339 593.762C87.4079 588.988 102.286 597.108 107.801 611.866C112.877 625.449 108.279 639.99 97.548 645.945C100.326 648.478 102.453 651.602 103.747 655.065C106.294 661.882 105.503 669.388 101.717 675.963L109.306 687.625C110.639 686.29 112.051 685.088 113.575 684.009C113.96 683.73 114.39 683.444 114.885 683.153C115.792 682.602 116.728 682.156 117.679 681.801C124.899 679.103 132.867 682.306 136.637 689.417C138 691.988 138.626 694.69 138.593 697.321C141.045 698.109 143.113 699.666 144.171 702.496C147.274 710.799 136.644 716.716 130.937 719.898C123.579 723.996 113.522 728.495 102.616 732.571L102.607 732.574Z" fill="#FBFBFB"/>
<path d="M102.607 732.574C91.7014 736.649 81.1667 739.844 72.924 741.577C66.5295 742.917 54.6242 745.421 51.5212 737.118C50.2648 733.756 51.3259 730.846 53.013 728.56C51.9313 725.999 51.4745 723.186 51.7824 720.442C52.3646 715.123 55.5946 710.729 60.6552 708.386C60.7141 708.364 60.7646 708.345 60.8203 708.314C61.2737 708.116 61.6881 707.942 62.1089 707.785C64.4903 706.895 67.1811 706.294 70.1527 705.982L66.2717 690.874C57.976 688.795 51.4241 683.272 48.5894 675.686C47.0458 671.556 46.713 667.021 47.6266 662.588C48.0251 660.677 47.3864 658.711 45.8683 657.19C43.6475 654.968 41.9578 652.345 40.8593 649.406C39.5651 645.942 39.1765 642.131 39.7347 638.389C40.1384 635.697 39.4081 633.178 37.7701 631.643C35.3778 629.399 33.5861 626.708 32.4465 623.659C27.9472 611.593 35.3566 597.647 48.9637 592.563C57.2778 589.456 66.2329 590.297 72.9424 594.471C73.4957 594.206 74.0616 593.976 74.6339 593.762C87.4079 588.988 102.286 597.108 107.801 611.866C112.877 625.449 108.279 639.99 97.548 645.945C100.326 648.478 102.453 651.602 103.747 655.065C106.294 661.882 105.503 669.388 101.717 675.963L109.306 687.625C110.639 686.29 112.051 685.088 113.575 684.009C113.96 683.73 114.39 683.444 114.885 683.153C115.792 682.602 116.728 682.156 117.679 681.801C124.899 679.103 132.867 682.306 136.637 689.417C138 691.988 138.626 694.69 138.593 697.321C141.045 698.109 143.113 699.666 144.171 702.496C147.274 710.799 136.644 716.716 130.937 719.898C123.579 723.996 113.522 728.495 102.616 732.571L102.607 732.574Z" stroke="#9C9C9C" stroke-miterlimit="10"/>
</g>
<path d="M92.109 640.526C101.186 637.134 105.197 625.429 101.069 614.382C96.9404 603.334 86.2358 597.128 77.1592 600.52C68.0826 603.912 64.0712 615.617 68.1995 626.664C72.3278 637.712 83.0325 643.918 92.109 640.526Z" fill="#93D1E0"/>
<path d="M100.082 725.816C121.944 717.647 138.663 708.339 137.425 705.027C136.187 701.714 117.461 705.652 95.5995 713.821C73.7377 721.991 57.0186 731.298 58.2564 734.611C59.4941 737.923 78.2201 733.986 100.082 725.816Z" fill="#2C2C2C"/>
<path d="M72.3084 659.449L93.36 715.784C94.5122 718.867 92.9557 722.298 89.8842 723.446L70.5885 730.657C60.482 734.433 53.8849 719.474 63.6789 714.938C63.9808 714.796 64.2974 714.668 64.6256 714.546C68.8584 712.964 74.3231 712.703 79.3913 713.1L66.2106 661.737L72.3115 659.457L72.3084 659.449Z" fill="#CBCBC5" stroke="#2C2C2C" stroke-miterlimit="10"/>
<path d="M84.6216 713.879C83.517 713.695 81.0386 713.197 76.5532 712.947L84.6216 713.879Z" fill="#CBCBC5"/>
<path d="M84.6216 713.879C83.517 713.695 81.0386 713.197 76.5532 712.947" stroke="#2C2C2C" stroke-miterlimit="10" stroke-linecap="round"/>
<path d="M76.1605 661.802L102.636 714.407C104.542 717.093 108.243 717.732 110.916 715.828L127.708 703.892C136.506 697.639 127.845 683.779 118.595 689.334C118.305 689.509 118.019 689.693 117.74 689.894C114.057 692.512 111.422 695.778 108.904 700.204L81.4639 658.03L76.1521 661.806L76.1605 661.802Z" fill="#CBCBC5" stroke="#2C2C2C" stroke-miterlimit="10"/>
<path d="M105.937 706.068C106.399 705.048 107.388 702.715 109.697 698.858L105.937 706.068Z" fill="#FBFBFB"/>
<path d="M105.937 706.068C106.399 705.048 107.388 702.715 109.697 698.858" stroke="#2C2C2C" stroke-miterlimit="10" stroke-linecap="round"/>
<path d="M110.783 715.445C110.783 715.445 121.223 692.8 126.437 695.203" stroke="#2C2C2C" stroke-miterlimit="10" stroke-linecap="round"/>
<path d="M97.0151 657.581C100.633 667.262 94.2245 678.6 82.7127 682.902C71.2009 687.203 58.9277 682.846 55.3102 673.166C54.2022 670.201 54.0325 667.078 54.6602 664.061C55.5676 659.688 54.0955 655.261 50.9467 652.096C49.4876 650.629 48.3366 648.884 47.5885 646.882C46.6857 644.466 46.4729 641.946 46.8419 639.469C47.5683 634.663 46.2223 629.727 42.6833 626.39C41.1453 624.943 39.9364 623.171 39.1757 621.135C36.0601 612.798 41.568 603.028 51.4809 599.324C61.3938 595.62 71.9671 599.38 75.0827 607.717C75.8466 609.761 76.0961 611.892 75.8838 613.993C75.4004 618.833 77.6215 623.442 81.3246 626.602C83.2245 628.222 84.708 630.267 85.6076 632.674C86.3557 634.676 86.6315 636.749 86.4919 638.813C86.1904 643.268 87.9823 647.575 91.5349 650.281C93.9903 652.156 95.9071 654.616 97.0151 657.581Z" fill="#EEEDEB" stroke="#2C2C2C" stroke-miterlimit="10"/>
<path d="M76.767 712.955C76.767 712.955 76.687 712.946 76.6418 712.953L76.5503 712.939C76.6271 712.94 76.6986 712.951 76.767 712.955Z" fill="#FBFBFB" stroke="#2C2C2C" stroke-miterlimit="10" stroke-linecap="round"/>
<path d="M56.6855 615.061C57.8008 618.046 58.0396 620.724 55.1898 621.789C52.5158 622.788 50.3804 620.829 49.2618 617.835C48.1433 614.842 48.1452 612.084 51.1446 610.963C53.757 609.987 55.567 612.068 56.6855 615.061Z" fill="#FBFBFB" stroke="#2C2C2C" stroke-miterlimit="10"/>
<path d="M64.1093 612.287C64.1489 612.393 64.1852 612.49 64.2248 612.596C64.7286 613.998 65.0091 615.312 64.8509 616.417C63.8877 616.898 63.2435 617.803 63.0523 618.82C62.9182 618.891 62.7719 618.955 62.6224 619.011C59.9485 620.01 57.813 618.051 56.6945 615.058C55.5759 612.065 55.5866 609.304 58.5772 608.186C61.0928 607.246 62.8633 609.14 63.9961 611.957C64.0357 612.063 64.0786 612.178 64.1181 612.284L64.1093 612.287Z" fill="#FBFBFB" stroke="#2C2C2C" stroke-miterlimit="10"/>
<path d="M56.7974 615.361C57.4177 617.021 57.5498 618.501 55.9665 619.093C54.48 619.648 53.3012 618.559 52.6809 616.9C52.0606 615.24 52.0604 613.71 53.7229 613.089C55.1742 612.547 56.1771 613.701 56.7974 615.361Z" fill="#2C2C2C"/>
<path d="M64.1089 612.287C64.7292 613.947 64.8613 615.427 63.278 616.019C61.7915 616.574 60.6127 615.485 59.9924 613.825C59.3721 612.165 59.372 610.636 61.0344 610.015C62.4857 609.472 63.4886 610.627 64.1089 612.287Z" fill="#2C2C2C"/>
<path d="M58.8688 620.358C59.3706 620.26 59.7093 620.415 59.9268 620.626C60.1679 620.859 60.2523 621.148 60.2463 621.296C60.2379 621.309 60.2037 621.367 60.088 621.456C59.9402 621.568 59.728 621.675 59.4951 621.736C59.0122 621.861 58.6338 621.762 58.4381 621.429C58.3067 621.205 58.2966 621.053 58.3105 620.956C58.3255 620.853 58.3775 620.753 58.4656 620.655C58.5548 620.555 58.6658 620.474 58.762 620.416C58.8049 620.39 58.8425 620.371 58.8688 620.358Z" fill="#93D1E0" stroke="#2C2C2C"/>
<path d="M64.3408 619.989C64.3408 619.989 64.1203 624.871 58.0103 624.427" stroke="#2C2C2C" stroke-miterlimit="10" stroke-linecap="round"/>
<path d="M64.8414 616.421C64.9492 616.361 65.069 616.306 65.1834 616.263C66.362 615.823 67.632 616.083 68.5337 616.832" stroke="#2C2C2C" stroke-miterlimit="10" stroke-linecap="round"/>
<path d="M63.0434 618.824L63.0279 618.891" stroke="#2C2C2C" stroke-miterlimit="10" stroke-linecap="round"/>
</g>
</g>
<defs>
<filter id="filter0_d_40001505_15550" x="306" y="635" width="65" height="79" filterUnits="userSpaceOnUse" color-interpolation-filters="sRGB">
<feFlood flood-opacity="0" result="BackgroundImageFix"/>
<feColorMatrix in="SourceAlpha" type="matrix" values="0 0 0 0 0 0 0 0 0 0 0 0 0 0 0 0 0 0 127 0" result="hardAlpha"/>
<feOffset dx="-1" dy="1"/>
<feGaussianBlur stdDeviation="1"/>
<feComposite in2="hardAlpha" operator="out"/>
<feColorMatrix type="matrix" values="0 0 0 0 0 0 0 0 0 0 0 0 0 0 0 0 0 0 0.25 0"/>
<feBlend mode="normal" in2="BackgroundImageFix" result="effect1_dropShadow_40001505_15550"/>
<feBlend mode="normal" in="SourceGraphic" in2="effect1_dropShadow_40001505_15550" result="shape"/>
</filter>
<filter id="filter1_d_40001505_15550" x="-25" y="127" width="65" height="79" filterUnits="userSpaceOnUse" color-interpolation-filters="sRGB">
<feFlood flood-opacity="0" result="BackgroundImageFix"/>
<feColorMatrix in="SourceAlpha" type="matrix" values="0 0 0 0 0 0 0 0 0 0 0 0 0 0 0 0 0 0 127 0" result="hardAlpha"/>
<feOffset dx="-1" dy="1"/>
<feGaussianBlur stdDeviation="1"/>
<feComposite in2="hardAlpha" operator="out"/>
<feColorMatrix type="matrix" values="0 0 0 0 0 0 0 0 0 0 0 0 0 0 0 0 0 0 0.25 0"/>
<feBlend mode="normal" in2="BackgroundImageFix" result="effect1_dropShadow_40001505_15550"/>
<feBlend mode="normal" in="SourceGraphic" in2="effect1_dropShadow_40001505_15550" result="shape"/>
</filter>
<filter id="filter2_g_40001505_15550" x="-11.4" y="551.6" width="198.954" height="205.407" filterUnits="userSpaceOnUse" color-interpolation-filters="sRGB">
<feFlood flood-opacity="0" result="BackgroundImageFix"/>
<feBlend mode="normal" in="SourceGraphic" in2="BackgroundImageFix" result="shape"/>
<feTurbulence type="fractalNoise" baseFrequency="0.66666668653488159 0.66666668653488159" numOctaves="3" seed="7043" />
<feDisplacementMap in="shape" scale="0.80000001192092896" xChannelSelector="R" yChannelSelector="G" result="displacedImage" width="100%" height="100%" />
<feMerge result="effect1_texture_40001505_15550">
<feMergeNode in="displacedImage"/>
</feMerge>
</filter>
<filter id="filter3_d_40001505_15550" x="27.6284" y="589.189" width="118.6" height="157.313" filterUnits="userSpaceOnUse" color-interpolation-filters="sRGB">
<feFlood flood-opacity="0" result="BackgroundImageFix"/>
<feColorMatrix in="SourceAlpha" type="matrix" values="0 0 0 0 0 0 0 0 0 0 0 0 0 0 0 0 0 0 127 0" result="hardAlpha"/>
<feOffset dx="-1" dy="1"/>
<feGaussianBlur stdDeviation="1"/>
<feComposite in2="hardAlpha" operator="out"/>
<feColorMatrix type="matrix" values="0 0 0 0 0 0 0 0 0 0 0 0 0 0 0 0 0 0 0.25 0"/>
<feBlend mode="normal" in2="BackgroundImageFix" result="effect1_dropShadow_40001505_15550"/>
<feBlend mode="normal" in="SourceGraphic" in2="effect1_dropShadow_40001505_15550" result="shape"/>
</filter>
<clipPath id="clip0_40001505_15550">
<rect width="360" height="800" fill="white"/>
</clipPath>
<clipPath id="clip1_40001505_15550">
<rect width="151" height="162" fill="white" transform="translate(-11 604.856) rotate(-20.49)"/>
</clipPath>
</defs>
</svg>