<svg width="24" height="24" viewBox="0 0 24 24" fill="none" xmlns="http://www.w3.org/2000/svg">
<g filter="url(#filter0_g_40000319_7061)">
<path d="M3 6.6001H4.88889H20" stroke="#5C5C5C" stroke-width="2" stroke-linecap="round" stroke-linejoin="round"/>
<path d="M18 6.59998V19.2C18 19.6774 17.8043 20.1352 17.4561 20.4728C17.1078 20.8103 16.6354 21 16.1429 21H6.85714C6.3646 21 5.89223 20.8103 5.54394 20.4728C5.19566 20.1352 5 19.6774 5 19.2V6.59998M7.78571 6.59998V4.79998C7.78571 4.32259 7.98138 3.86475 8.32966 3.52718C8.67794 3.18962 9.15031 2.99998 9.64286 2.99998H13.3571C13.8497 2.99998 14.3221 3.18962 14.6703 3.52718C15.0186 3.86475 15.2143 4.32259 15.2143 4.79998V6.59998" stroke="#5C5C5C" stroke-width="2" stroke-linecap="round" stroke-linejoin="round"/>
<path d="M10 10.6001V15.6001" stroke="#5C5C5C" stroke-width="2" stroke-linecap="round" stroke-linejoin="round"/>
<path d="M13 10.6001V15.6001" stroke="#5C5C5C" stroke-width="2" stroke-linecap="round" stroke-linejoin="round"/>
</g>
<defs>
<filter id="filter0_g_40000319_7061" x="-0.4" y="-0.4" width="24.8" height="24.8" filterUnits="userSpaceOnUse" color-interpolation-filters="sRGB">
<feFlood flood-opacity="0" result="BackgroundImageFix"/>
<feBlend mode="normal" in="SourceGraphic" in2="BackgroundImageFix" result="shape"/>
<feTurbulence type="fractalNoise" baseFrequency="0.66666668653488159 0.66666668653488159" numOctaves="3" seed="7043" />
<feDisplacementMap in="shape" scale="0.80000001192092896" xChannelSelector="R" yChannelSelector="G" result="displacedImage" width="100%" height="100%" />
<feMerge result="effect1_texture_40000319_7061">
<feMergeNode in="displacedImage"/>
</feMerge>
</filter>
</defs>
</svg>
