<svg width="480" height="480" viewBox="0 0 480 480" fill="none" xmlns="http://www.w3.org/2000/svg">
<g clip-path="url(#clip0_40001778_16615)">
<rect width="480" height="480" fill="#F7F0E6"/>
<g opacity="0.6">
<line x1="-1" y1="7.5" x2="605" y2="7.5" stroke="#CBCBC5"/>
<line x1="-1" y1="57.5" x2="605" y2="57.5" stroke="#CBCBC5"/>
<line x1="-1" y1="107.5" x2="605" y2="107.5" stroke="#CBCBC5"/>
<line x1="-1" y1="157.5" x2="605" y2="157.5" stroke="#CBCBC5"/>
<line x1="-1" y1="207.5" x2="605" y2="207.5" stroke="#CBCBC5"/>
<line x1="-1" y1="257.5" x2="605" y2="257.5" stroke="#CBCBC5"/>
<line x1="-1" y1="307.5" x2="605" y2="307.5" stroke="#CBCBC5"/>
<line x1="-1" y1="357.5" x2="605" y2="357.5" stroke="#CBCBC5"/>
<line x1="-1" y1="407.5" x2="605" y2="407.5" stroke="#CBCBC5"/>
<line x1="-1" y1="457.5" x2="605" y2="457.5" stroke="#CBCBC5"/>
</g>
<g filter="url(#filter0_g_40001778_16615)">
<path d="M293.992 253.865L-116.851 187.709C-133.161 185.082 -143.307 166.507 -138.237 148.119C-101.867 17.2382 13.1303 -69.8418 132.256 -50.6595C251.383 -31.4773 333.231 87.2999 326.678 222.982C325.767 242.039 310.256 256.484 293.946 253.857L293.992 253.865Z" fill="#A7E1B6"/>
<path d="M132.656 -53.1351C253.332 -33.7023 335.781 86.4625 329.181 223.104C328.216 243.262 311.71 259.219 293.596 256.335L293.595 256.34L-117.252 190.183C-135.39 187.261 -146.02 166.91 -140.655 147.453L-140.654 147.449C-104.027 15.6419 11.9792 -72.567 132.656 -53.1351ZM131.859 -48.1831C14.2829 -67.1157 -99.7074 18.8371 -135.82 148.793C-140.592 166.108 -130.933 182.899 -116.454 185.231L294.344 251.38C308.83 253.713 323.316 240.8 324.174 222.863C330.681 88.141 249.433 -29.2497 131.859 -48.1831Z" fill="#2C2C2C"/>
<path d="M169.541 86.1146C165.794 109.384 157.57 127.408 135.324 123.826C114.481 120.469 107.937 100.067 111.684 76.7982C115.431 53.529 125.525 35.806 148.892 39.5687C169.221 42.8423 173.288 62.8454 169.541 86.1146Z" fill="#FBFBFB"/>
<path d="M167.064 85.718C168.909 74.2635 168.765 63.9463 165.896 56.2183C163.099 48.6873 157.704 43.5278 148.492 42.0445C137.614 40.2932 130.139 43.5155 124.832 49.6804C119.368 56.0278 116.006 65.7328 114.159 77.199C112.333 88.5448 113.064 98.924 116.569 106.755C120.017 114.457 126.182 119.813 135.722 121.349C140.926 122.187 145.147 121.74 148.613 120.384C152.075 119.028 154.952 116.699 157.374 113.519C162.286 107.068 165.205 97.2667 167.064 85.718ZM172.016 86.5154C170.129 98.2338 167.061 109.076 161.364 116.558C158.481 120.344 154.895 123.31 150.441 125.054C145.992 126.795 140.841 127.254 134.924 126.301C123.622 124.481 116.09 117.96 111.992 108.806C107.952 99.7804 107.288 88.323 109.207 76.4016C111.108 64.5987 114.666 53.7993 121.027 46.4086C127.545 38.8372 136.802 35.0821 149.289 37.0925C160.407 38.8827 167.216 45.3638 170.598 54.47C173.906 63.3789 173.919 74.7022 172.016 86.5154Z" fill="#2C2C2C"/>
<path d="M111.731 76.8055C107.984 100.075 99.7594 118.099 77.5138 114.517C56.6702 111.16 50.1264 90.7583 53.8734 67.4891C57.6203 44.2199 67.714 26.4969 91.0813 30.2596C111.411 33.5332 115.478 53.5364 111.731 76.8055Z" fill="#FBFBFB"/>
<path d="M109.254 76.4092C111.099 64.9547 110.955 54.6375 108.086 46.9095C105.288 39.3784 99.8933 34.219 90.6813 32.7356C79.8032 30.9843 72.3291 34.2066 67.0216 40.3716C61.5579 46.7189 58.1954 56.4239 56.349 67.8902C54.5224 79.236 55.2539 89.6152 58.759 97.4459C62.2067 105.148 68.3722 110.504 77.9113 112.04C83.1157 112.878 87.3368 112.431 90.8025 111.075C94.2643 109.719 97.1417 107.39 99.5632 104.21C104.475 97.7589 107.394 87.9578 109.254 76.4092ZM114.206 77.2066C112.319 88.9249 109.251 99.7669 103.554 107.249C100.67 111.036 97.0843 114.001 92.6304 115.745C88.1813 117.486 83.0303 117.945 77.1139 116.992C65.8114 115.172 58.2799 108.651 54.1818 99.4971C50.1416 90.4715 49.4777 79.0142 51.397 67.0928C53.2976 55.2898 56.8554 44.4905 63.2172 37.0997C69.7345 29.5283 78.992 25.7733 91.4787 27.7836C102.596 29.5738 109.406 36.055 112.788 45.1612C116.096 54.0701 116.108 65.3933 114.206 77.2066Z" fill="#2C2C2C"/>
<path d="M111.541 77.9786C109.464 90.8798 104.929 100.883 92.5908 98.8958C81.0473 97.037 77.4042 85.7174 79.4816 72.8161C81.5591 59.9149 87.1694 50.0853 100.115 52.1698C111.378 53.9834 113.619 65.0773 111.541 77.9786Z" fill="#2C2C2C"/>
<path d="M169.352 87.2872C167.275 100.188 162.739 110.191 150.401 108.204C138.858 106.346 135.215 95.026 137.292 82.1247C139.37 69.2235 144.98 59.3939 157.925 61.4784C169.188 63.292 171.429 74.3859 169.352 87.2872Z" fill="#2C2C2C"/>
<path d="M105.381 117.127C105.381 117.127 99.6432 116.733 98.8122 121.893C97.9813 127.054 101.88 128.451 103.749 128.752C105.618 129.053 109.441 126.156 109.94 123.059C110.438 119.963 107.523 117.52 105.374 117.174L105.381 117.127Z" fill="#2C2C2C"/>
<path d="M105.372 117.175C107.522 117.521 110.44 119.965 109.941 123.061L109.809 123.635C108.972 126.503 105.504 129.032 103.751 128.752L102.965 128.581C101.119 128.079 98.4911 126.635 98.7085 122.815L98.8121 121.894C99.6349 116.784 105.268 117.12 105.38 117.127L105.372 117.175ZM105.109 122.134C105.102 122.134 105.094 122.135 105.084 122.135L105.094 122.136C105.108 122.137 105.118 122.136 105.124 122.136C105.121 122.136 105.115 122.134 105.109 122.134ZM103.715 123.368C103.718 123.426 103.728 123.469 103.733 123.5C103.756 123.516 103.79 123.536 103.837 123.561C103.914 123.505 104.003 123.449 104.091 123.374C104.398 123.111 104.653 122.818 104.822 122.559C104.856 122.507 104.878 122.457 104.9 122.418C104.814 122.327 104.703 122.246 104.596 122.18C104.42 122.207 104.241 122.246 104.085 122.301C103.936 122.354 103.861 122.399 103.833 122.42C103.884 122.361 103.814 122.381 103.764 122.691C103.712 123.014 103.707 123.235 103.715 123.368Z" fill="#2C2C2C"/>
<path d="M59.5445 5.79743C65.9604 1.39126 75.5337 -1.34671 87.839 4.68772L86.7329 6.93569L85.6307 9.18927C75.1411 4.04523 67.488 6.42749 62.3809 9.93546C59.765 11.7327 57.7751 13.864 56.4342 15.5616C55.7668 16.4065 55.2694 17.1328 54.9438 17.6385C54.7813 17.8909 54.6631 18.0886 54.5878 18.2163C54.5506 18.2795 54.522 18.3244 54.5064 18.352C54.4988 18.3654 54.4945 18.3752 54.4921 18.3794C53.8297 19.5945 52.3073 20.041 51.0913 19.3798C49.8749 18.7179 49.4245 17.1947 50.0861 15.9782L50.0869 15.9733L50.0925 15.9693C50.0956 15.9637 50.1015 15.9548 50.1061 15.9466C50.1151 15.9304 50.1265 15.9088 50.1411 15.8828C50.171 15.8301 50.2123 15.755 50.2656 15.6647C50.372 15.4843 50.528 15.2308 50.7277 14.9205C51.1282 14.2987 51.7196 13.4396 52.4995 12.4523C54.0546 10.4837 56.4004 7.95708 59.5445 5.79743ZM87.839 4.68772C89.0814 5.29809 89.5952 6.79962 88.9857 8.04264C88.376 9.28588 86.8741 9.79829 85.6307 9.18927L87.839 4.68772Z" fill="#2C2C2C"/>
<path d="M84.1482 126.963C85.2957 126.573 86.5319 127.059 87.1209 128.066L87.3296 128.527L88.079 130.528C91.9888 140.1 98.561 143.457 104.247 144.522C107.357 145.105 110.264 145.007 112.406 144.754C113.47 144.629 114.333 144.468 114.918 144.34C115.21 144.277 115.431 144.22 115.574 144.183C115.645 144.164 115.699 144.152 115.729 144.144C115.742 144.14 115.751 144.134 115.755 144.133L116.252 144.039C117.414 143.937 118.526 144.663 118.871 145.825C119.265 147.152 118.51 148.547 117.184 148.942L117.179 148.941L117.178 148.946L117.169 148.945L117.074 148.974C117.016 148.99 116.936 149.014 116.836 149.04C116.633 149.093 116.346 149.162 115.985 149.24C115.264 149.397 114.24 149.589 112.993 149.736C110.506 150.029 107.067 150.155 103.324 149.454C95.9212 148.067 87.543 143.461 83.007 131.338L82.5841 130.144L82.4654 129.648C82.3187 128.492 83.0017 127.353 84.1482 126.963Z" fill="#2C2C2C"/>
</g>
<g filter="url(#filter1_g_40001778_16615)">
<path d="M450.967 -19.7472C475.153 -94.1259 323.614 -94.1259 347.799 -19.7472C323.614 -94.1259 200.996 -5.17559 264.334 40.8201C201.038 -5.17559 154.19 138.809 232.496 138.809C154.19 138.809 201.038 282.794 264.377 236.798C201.038 282.794 323.614 371.744 347.842 297.365C323.656 371.744 475.195 371.744 451.01 297.365C475.195 371.744 597.813 282.794 534.475 236.798C597.813 282.794 644.662 138.809 566.355 138.809C644.662 138.809 597.813 -5.17559 534.475 40.8201C597.813 -5.17559 475.237 -94.1259 451.01 -19.7472H450.967Z" fill="#EEEDEB"/>
<path d="M450.967 -19.7472C475.153 -94.1259 323.614 -94.1259 347.799 -19.7472C323.614 -94.1259 200.996 -5.17559 264.334 40.8201C201.038 -5.17559 154.19 138.809 232.496 138.809C154.19 138.809 201.038 282.794 264.377 236.798C201.038 282.794 323.614 371.744 347.842 297.365C323.656 371.744 475.195 371.744 451.01 297.365C475.195 371.744 597.813 282.794 534.475 236.798C597.813 282.794 644.662 138.809 566.355 138.809C644.662 138.809 597.813 -5.17559 534.475 40.8201C597.813 -5.17559 475.237 -94.1259 451.01 -19.7472H450.967Z" fill="#FEE888"/>
<path d="M399.381 -78C415.699 -78 432.278 -73.2481 443.292 -63.429C448.827 -58.4933 452.961 -52.2677 454.878 -44.7645C455.638 -41.7918 456.037 -38.6431 456.054 -35.3238C458.025 -38.0056 460.205 -40.3234 462.573 -42.2862C468.54 -47.2307 475.547 -49.8399 482.93 -50.5842C497.619 -52.0646 513.827 -46.1814 527.029 -36.6015C540.23 -27.0219 550.842 -13.4445 553.972 0.968643C555.545 8.2132 555.226 15.6763 552.362 22.8733C551.236 25.702 549.718 28.4616 547.8 31.1376C550.942 30.1405 554.04 29.5599 557.082 29.3632C564.817 28.8631 572.021 30.8623 578.432 34.5947C591.185 42.0205 600.833 56.2998 605.877 71.8032C610.921 87.3069 611.52 104.524 605.573 118.023C602.584 124.809 597.935 130.658 591.383 134.798C588.806 136.426 585.953 137.766 582.825 138.805C585.954 139.843 588.805 141.192 591.383 142.821C597.934 146.96 602.584 152.806 605.573 159.591C611.52 173.09 610.921 190.312 605.877 205.816C600.833 221.319 591.185 235.598 578.432 243.024C572.021 246.756 564.817 248.756 557.082 248.256C554.038 248.059 550.939 247.47 547.796 246.472C549.716 249.15 551.23 251.914 552.357 254.745C555.221 261.943 555.542 269.405 553.967 276.65C550.834 291.063 540.218 304.641 527.014 314.22C513.811 323.8 497.602 329.683 482.916 328.203C475.534 327.459 468.528 324.85 462.564 319.905C460.216 317.958 458.05 315.664 456.093 313.01C456.071 316.304 455.676 319.431 454.921 322.383C453.004 329.886 448.871 336.112 443.335 341.048C432.321 350.867 415.743 355.619 399.424 355.619C383.107 355.619 366.532 350.866 355.519 341.048C349.983 336.112 345.85 329.886 343.932 322.383C343.177 319.427 342.777 316.295 342.756 312.996C340.795 315.655 338.628 317.955 336.276 319.905C330.308 324.85 323.302 327.459 315.919 328.203C301.23 329.683 285.021 323.8 271.82 314.22C258.62 304.641 248.007 291.063 244.877 276.65C243.304 269.405 243.627 261.943 246.492 254.745C247.618 251.916 249.13 249.153 251.048 246.476C247.907 247.473 244.808 248.059 241.767 248.256C234.033 248.755 226.831 246.756 220.421 243.024C207.667 235.599 198.016 221.32 192.972 205.816C187.927 190.312 187.329 173.09 193.276 159.591C196.265 152.806 200.915 146.96 207.466 142.821C210.042 141.193 212.892 139.843 216.019 138.805C212.893 137.766 210.041 136.425 207.466 134.798C200.915 130.659 196.265 124.808 193.276 118.023C187.329 104.524 187.926 87.3065 192.967 71.8032C198.009 56.2993 207.654 42.0204 220.402 34.5947C226.81 30.8622 234.011 28.8631 241.743 29.3632C244.778 29.5598 247.871 30.1383 251.005 31.1328C249.089 28.4582 247.573 25.7003 246.449 22.8733C243.585 15.6761 243.268 8.2132 244.843 0.968643C247.976 -13.4445 258.592 -27.022 271.796 -36.6015C285 -46.1811 301.207 -52.0645 315.894 -50.5842C323.277 -49.8401 330.282 -47.2314 336.247 -42.2862C338.593 -40.3406 340.757 -38.0481 342.712 -35.3961C342.735 -38.6888 343.135 -41.8134 343.889 -44.7645C345.806 -52.2677 349.939 -58.4933 355.475 -63.429C366.488 -73.2475 383.064 -77.9996 399.381 -78ZM399.381 -73.0627C383.862 -73.0622 368.6 -68.5151 358.759 -59.7405C353.868 -55.3793 350.318 -49.9817 348.672 -43.5398C347.025 -37.0939 347.244 -29.4413 350.147 -20.5117L347.799 -19.7451L345.451 -18.9833L344.892 -20.6274C342.005 -28.6966 337.899 -34.5025 333.093 -38.4867C327.971 -42.7331 321.922 -45.0182 315.398 -45.6758C302.272 -46.9981 287.249 -41.7139 274.694 -32.6044C262.138 -23.4946 252.464 -10.861 249.665 2.01494C248.273 8.41512 248.58 14.8704 251.039 21.0507C253.5 27.2338 258.179 33.3008 265.783 38.8233L262.886 42.8156H262.881C255.281 37.2936 248.063 34.7159 241.42 34.2861C234.78 33.8571 228.546 35.5643 222.885 38.8618C211.495 45.4974 202.457 58.59 197.663 73.3316C192.87 88.074 192.48 103.977 197.794 116.037C200.435 122.03 204.476 127.072 210.103 130.627C215.382 133.962 222.178 136.066 230.754 136.317L232.495 136.341V141.278C223.092 141.278 215.734 143.434 210.103 146.992C204.476 150.547 200.434 155.588 197.794 161.582C192.48 173.642 192.872 189.545 197.668 204.287C202.465 219.029 211.508 232.121 222.905 238.757C228.569 242.055 234.805 243.757 241.449 243.328C248.097 242.898 255.318 240.322 262.924 234.798L264.375 236.799L265.827 238.796C258.222 244.318 253.539 250.384 251.077 256.568C248.617 262.748 248.313 269.204 249.703 275.604C252.5 288.48 262.169 301.114 274.723 310.223C287.276 319.332 302.294 324.612 315.422 323.29C321.947 322.632 328.001 320.353 333.127 316.105C338.256 311.856 342.585 305.532 345.494 296.602L347.843 297.364L350.191 298.13C347.287 307.06 347.068 314.713 348.715 321.159C350.361 327.601 353.911 332.998 358.802 337.359C368.644 346.134 383.905 350.681 399.424 350.681C414.944 350.681 430.205 346.134 440.047 337.359C444.938 332.998 448.492 327.601 450.138 321.159C451.785 314.713 451.566 307.06 448.663 298.13L451.011 297.364L453.359 296.602L453.918 298.246C456.805 306.315 460.907 312.121 465.712 316.105C470.835 320.352 476.884 322.632 483.408 323.29C496.534 324.613 511.555 319.333 524.112 310.223C536.668 301.113 546.341 288.476 549.141 275.599C550.532 269.199 550.23 262.748 547.771 256.568C545.31 250.384 540.627 244.318 533.022 238.796L534.473 236.799L535.925 234.798C543.53 240.322 550.752 242.898 557.4 243.328C564.044 243.757 570.28 242.055 575.944 238.757C587.341 232.122 596.389 219.03 601.185 204.287C605.982 189.545 606.368 173.642 601.055 161.582C598.414 155.588 594.372 150.547 588.746 146.992C583.115 143.435 575.757 141.278 566.354 141.278V136.341L568.095 136.317C576.671 136.066 583.467 133.961 588.746 130.627C594.372 127.072 598.414 122.03 601.055 116.037C606.368 103.977 605.982 88.0737 601.185 73.3316C596.389 58.5892 587.341 45.4972 575.944 38.8618C570.28 35.5641 564.044 33.8565 557.4 34.2861C550.752 34.716 543.53 37.2927 535.925 42.8156L533.022 38.8233C540.628 33.2999 545.31 27.2303 547.771 21.0459C550.231 14.8658 550.54 8.41467 549.15 2.01494C546.354 -10.861 536.684 -23.4946 524.131 -32.6044C511.577 -41.7141 496.555 -46.9987 483.427 -45.6758C476.902 -45.0182 470.852 -42.7334 465.727 -38.4867C460.598 -34.2369 456.268 -27.9134 453.359 -18.9833L452.8 -17.2764H447.568L448.619 -20.5117C451.523 -29.4411 451.742 -37.094 450.095 -43.5398C448.449 -49.9815 444.899 -55.3793 440.008 -59.7405C430.166 -68.5155 414.901 -73.0627 399.381 -73.0627Z" fill="#2C2C2C"/>
<path d="M407.146 115.62V117.014C407.146 117.859 407.188 118.661 407.188 119.506C407.23 120.773 407.315 122.04 407.399 123.265C407.399 123.645 407.442 124.025 407.484 124.405C408.795 141.131 414.714 153.591 431.923 153.591C450.781 153.591 459.448 136.57 459.448 115.62C459.448 110.763 459.11 106.075 458.265 101.809C450.316 102.823 442.028 103.541 433.53 104.047C425.623 104.554 417.547 104.808 409.26 104.808C408.795 104.85 408.287 104.85 407.822 104.85C407.357 108.271 407.146 111.861 407.146 115.62Z" fill="#FBFBFB"/>
<path d="M409.612 115.62C409.612 112.717 409.751 109.935 410.027 107.269C418.096 107.253 425.969 107.006 433.686 106.512V106.507C441.394 106.047 448.941 105.406 456.232 104.535C456.755 107.991 456.98 111.727 456.98 115.62C456.98 125.805 454.866 134.772 450.697 141.107C446.604 147.326 440.474 151.126 431.922 151.126C424.011 151.126 419.012 148.311 415.735 143.816C412.342 139.16 410.587 132.412 409.945 124.217L409.94 124.173L409.935 124.135C409.89 123.731 409.868 123.487 409.868 123.267V123.18L409.863 123.098C409.778 121.872 409.696 120.642 409.655 119.424C409.654 118.995 409.646 118.581 409.636 118.199C409.625 117.783 409.612 117.403 409.612 117.018V115.62ZM404.675 117.018C404.675 117.476 404.688 117.918 404.699 118.325C404.709 118.74 404.718 119.121 404.718 119.506V119.588C404.762 120.903 404.851 122.212 404.935 123.435L404.94 123.431C404.949 123.871 404.992 124.285 405.027 124.597C405.695 133.125 407.553 140.969 411.748 146.724C416.061 152.64 422.624 156.063 431.922 156.063C442.227 156.063 449.864 151.35 454.82 143.821C459.698 136.408 461.917 126.383 461.917 115.62C461.917 110.658 461.574 105.799 460.687 101.328L460.239 99.0718L457.954 99.3611C450.072 100.366 441.84 101.079 433.383 101.584H433.373C425.521 102.087 417.497 102.341 409.26 102.341H409.149L409.038 102.35C408.705 102.381 408.311 102.384 407.823 102.384H405.668L405.374 104.52C404.891 108.069 404.675 111.771 404.675 115.62V117.018Z" fill="#2C2C2C"/>
<path d="M406.962 117.013V117.773C406.962 118.364 406.962 118.913 407.004 119.505C407.046 120.772 407.131 122.039 407.215 123.264C407.215 123.644 407.258 124.024 407.3 124.404C408.315 132.767 411.782 138.807 420.703 138.807C431.147 138.807 435.967 129.388 435.967 117.773C435.967 112.535 435.248 107.72 433.346 104.046C425.439 104.553 417.363 104.806 409.076 104.806C407.68 108.185 407.046 112.409 406.962 117.013Z" fill="#2C2C2C"/>
<path d="M412.153 123.265V123.091L412.139 122.923C412.054 121.695 411.975 120.509 411.936 119.34V119.244L411.926 119.152C411.899 118.764 411.897 118.387 411.897 117.773V117.103L411.951 115.536C412.06 113.371 412.319 111.422 412.708 109.716C418.582 109.664 424.356 109.479 430.046 109.171C430.696 111.512 431.03 114.402 431.03 117.773C431.03 123.001 429.931 127.2 428.132 129.928C426.484 132.427 424.174 133.868 420.702 133.868V138.805L421.666 138.781C430.813 138.254 435.36 130.175 435.909 119.924L435.967 117.773C435.967 112.536 435.247 107.72 433.344 104.046C425.438 104.553 417.363 104.808 409.077 104.808C407.682 108.186 407.045 112.408 406.96 117.011V117.773L407.004 119.504C407.046 120.771 407.131 122.04 407.216 123.265L407.298 124.403L407.519 125.946C408.769 133.499 412.34 138.804 420.702 138.805V133.868C417.501 133.867 415.886 132.86 414.843 131.597C413.605 130.095 412.66 127.587 412.201 123.81C412.159 123.426 412.153 123.323 412.153 123.265Z" fill="#2C2C2C"/>
<path d="M354.849 115.62C354.849 116.338 354.849 117.056 354.891 117.774C355.187 137.71 360.218 153.591 379.668 153.591C399.118 153.591 407.194 136.57 407.194 115.62C407.194 111.861 406.982 108.271 406.517 104.85C398.23 104.85 390.154 104.596 382.247 104.132C373.622 103.667 365.335 102.949 357.301 101.936H357.259C356.836 101.936 356.413 101.893 355.99 101.809C355.314 105.399 354.975 109.285 354.891 113.339C354.849 114.1 354.849 114.86 354.849 115.62Z" fill="#FBFBFB"/>
<path d="M357.357 113.479V113.392C357.421 110.281 357.652 107.302 358.056 104.506C365.819 105.458 373.811 106.146 382.106 106.593C389.357 107.019 396.751 107.261 404.319 107.302C404.593 109.958 404.724 112.73 404.724 115.619C404.724 125.835 402.748 134.797 398.654 141.121C394.648 147.309 388.534 151.126 379.666 151.126C375.146 151.126 371.618 150.204 368.842 148.648C366.071 147.094 363.91 144.828 362.236 141.926C358.836 136.029 357.503 127.605 357.357 117.741V117.63C357.319 116.997 357.318 116.349 357.318 115.619C357.318 114.849 357.319 114.158 357.357 113.479ZM352.424 117.808C352.574 127.88 353.907 137.368 357.959 144.395C360.012 147.954 362.775 150.906 366.426 152.953C370.071 154.997 374.464 156.063 379.666 156.063C390.247 156.063 397.901 151.366 402.796 143.807C407.602 136.383 409.662 126.353 409.662 115.619C409.662 111.77 409.445 108.069 408.962 104.52L408.673 102.384H406.518C398.281 102.384 390.251 102.132 382.39 101.67H382.381C373.807 101.209 365.575 100.492 357.607 99.4862L357.453 99.467H357.26C357.003 99.467 356.741 99.4429 356.474 99.3898L354.025 98.9028L353.562 101.352C352.859 105.082 352.518 109.08 352.429 113.204C352.382 114.043 352.381 114.871 352.381 115.619C352.381 116.293 352.383 117.044 352.424 117.808Z" fill="#2C2C2C"/>
<path d="M403.848 152.782C403.848 152.782 379.197 159.413 389.345 166.889C399.493 174.322 405.539 171.493 409.64 167.142C411.67 164.946 413.953 156.203 412.177 153.88C410.401 151.557 403.848 152.824 403.848 152.824V152.782Z" fill="#2C2C2C"/>
<path d="M412.179 153.882C410.403 151.559 403.848 152.826 403.848 152.826V152.783C403.703 152.822 379.226 159.437 389.344 166.891L391.2 168.164C399.639 173.576 405.039 171.548 408.848 167.937L409.638 167.142C411.667 164.946 413.952 156.209 412.179 153.882ZM407.84 157.426C407.788 158.023 407.681 158.732 407.512 159.504C407.265 160.632 406.925 161.736 406.567 162.619C406.156 163.632 405.9 163.912 406.012 163.791C404.409 165.481 402.912 166.36 401.278 166.52C399.642 166.679 396.859 166.209 392.488 163.058C392.507 163.042 392.525 163.021 392.546 163.005C393.18 162.501 394.043 161.955 395.101 161.394C397.222 160.271 399.713 159.303 401.755 158.603C402.758 158.258 403.62 157.993 404.224 157.812C404.343 157.776 404.454 157.744 404.551 157.715L404.783 157.672C404.786 157.671 404.792 157.673 404.797 157.672C404.824 157.667 404.872 157.659 404.937 157.648C405.07 157.626 405.275 157.594 405.53 157.561C406.052 157.494 406.73 157.426 407.416 157.417C407.565 157.414 407.707 157.423 407.84 157.426Z" fill="#2C2C2C"/>
<path d="M378.816 188.508C377.707 188.212 376.504 188.724 375.971 189.791C375.362 191.011 375.86 192.494 377.08 193.103L377.668 193.397C397.317 203.315 420.417 203.5 440.161 194.034L442.061 193.089L442.48 192.814C443.373 192.093 443.669 190.821 443.122 189.762C442.574 188.702 441.363 188.205 440.258 188.518L439.795 188.701L438.025 189.583C419.657 198.39 398.165 198.214 379.886 188.986L379.876 188.981L379.283 188.687L378.816 188.508Z" fill="#2C2C2C"/>
<path d="M431.786 75.249C423.52 75.249 417.27 78.4271 412.894 83.8556C408.605 89.1775 406.256 96.476 405.233 104.565L404.881 107.347H407.682C408.069 107.347 408.594 107.334 409.119 107.298V107.303C417.457 107.303 425.589 107.047 433.55 106.537V106.532C442.086 106.022 450.427 105.307 458.44 104.285L461.024 103.952L460.556 101.392C459.215 94.0568 456.538 87.4914 451.829 82.7467C447.062 77.9427 440.453 75.2493 431.786 75.249ZM431.786 80.1864C439.352 80.1866 444.625 82.4965 448.324 86.2231C451.592 89.5162 453.817 94.1022 455.156 99.6947C448.088 100.53 440.758 101.161 433.247 101.609H433.232C425.839 102.083 418.293 102.324 410.561 102.351C411.668 96.0021 413.695 90.7356 416.742 86.9559C420.146 82.7334 424.957 80.1864 431.786 80.1864Z" fill="#2C2C2C"/>
<path d="M379.685 75.249C371.966 75.249 365.985 78.0172 361.647 82.8334C357.382 87.5687 354.867 94.0999 353.575 101.406L353.151 103.783L355.518 104.256C356.039 104.36 356.567 104.409 357.095 104.42C365.163 105.436 373.478 106.153 382.119 106.619C390.071 107.086 398.194 107.347 406.531 107.347H409.347L408.981 104.555C407.911 96.4435 405.42 89.1023 400.678 83.764C395.859 78.3388 388.953 75.2495 379.685 75.249ZM379.685 80.1864C387.748 80.1869 393.232 82.8184 396.985 87.0427C400.332 90.8109 402.484 96.0524 403.643 102.385C396.415 102.334 389.343 102.103 382.404 101.696L382.394 101.691C374.3 101.255 366.516 100.584 358.966 99.6658C360.253 94.0498 362.343 89.4366 365.316 86.1363C368.663 82.4211 373.281 80.1864 379.685 80.1864Z" fill="#2C2C2C"/>
<path d="M354.664 115.66C354.664 116.378 354.664 117.096 354.706 117.814C355.045 128.415 358.004 136.694 368.448 136.694C378.892 136.694 383.712 127.275 383.712 115.66C383.712 111.394 383.247 107.466 382.063 104.171C373.437 103.707 365.15 102.989 357.116 101.975H357.074C355.637 105.101 354.918 109.029 354.706 113.379C354.664 114.139 354.664 114.899 354.664 115.66Z" fill="#2C2C2C"/>
<path d="M359.604 115.659C359.604 114.876 359.604 114.253 359.638 113.653V113.619C359.753 111.237 360.038 109.135 360.467 107.332C366.25 107.987 372.158 108.5 378.22 108.88C378.591 110.853 378.775 113.119 378.775 115.659C378.775 120.886 377.676 125.086 375.877 127.814C374.229 130.313 371.919 131.758 368.447 131.758V136.696L369.411 136.667C379.188 136.103 383.712 126.911 383.712 115.659C383.712 111.927 383.355 108.454 382.473 105.437L382.063 104.174C373.437 103.709 365.149 102.989 357.116 101.975H357.072C355.635 105.1 354.916 109.028 354.705 113.378C354.663 114.138 354.666 114.899 354.666 115.659C354.666 116.377 354.663 117.096 354.705 117.814C355.043 128.415 358.004 136.695 368.447 136.696V131.758C364.817 131.758 363.121 130.473 361.995 128.644C360.599 126.373 359.804 122.718 359.642 117.655L359.638 117.588V117.525C359.605 116.976 359.604 116.401 359.604 115.659Z" fill="#2C2C2C"/>
</g>
<g filter="url(#filter2_g_40001778_16615)">
<path d="M529.439 613.482C532.675 669.391 479.258 717.956 410.192 721.953C341.127 725.95 282.464 683.871 279.228 627.963C278.237 610.839 282.553 594.387 290.976 579.753C303.172 558.537 302.671 533.26 291.048 511.856C285.662 501.937 282.399 491.064 281.729 479.501C280.922 465.549 283.997 452.154 290.126 439.905C302.074 416.158 303.104 388.442 289.671 365.528C283.828 355.587 280.298 344.484 279.618 332.727C276.831 284.575 322.784 242.707 382.257 239.265C441.73 235.823 492.257 272.107 495.043 320.259C495.727 332.065 493.501 343.501 488.843 354.05C478.144 378.361 482.364 405.773 496.975 428.032C504.474 439.443 509.023 452.396 509.827 466.3C510.496 477.863 508.509 489.04 504.303 499.514C495.227 522.116 497.646 547.282 512.208 566.949C522.266 580.563 528.448 596.358 529.439 613.482Z" fill="#93D1E0"/>
<path d="M494.996 321.328C492.348 275.572 443.621 240.377 385.225 243.756C326.83 247.136 282.542 287.713 285.19 333.471C285.799 343.979 288.819 353.94 293.836 362.965L294.865 364.757L294.865 364.762C308.806 388.314 307.646 416.679 295.353 440.843C289.409 452.588 286.443 465.398 287.215 478.721C287.854 489.764 290.993 500.153 296.196 509.643C308.208 531.551 308.749 557.524 296.047 579.377C287.855 593.451 283.672 609.238 284.622 625.644C287.715 679.074 344.569 720 412.559 716.065C480.55 712.13 532.303 664.919 529.212 611.488C528.322 596.11 523.017 581.834 514.31 569.326L512.526 566.848C497.387 546.606 494.928 520.745 504.333 497.598C508.406 487.571 510.331 476.889 509.692 465.845C508.924 452.564 504.539 440.186 497.288 429.261C482.285 406.629 477.861 378.58 488.993 353.575L488.998 353.569C493.498 343.493 495.647 332.585 494.996 321.328ZM500.616 321.003C501.273 332.356 499.276 343.374 495.047 353.612L494.173 355.646C483.88 378.767 487.857 404.97 502.044 426.374L502.05 426.373C509.783 438.026 514.488 451.282 515.312 465.52C515.997 477.359 513.932 488.805 509.581 499.513C500.808 521.109 503.154 545.053 517.113 563.719L517.119 563.724C527.45 577.568 533.819 593.677 534.831 611.163C538.142 668.384 483.009 717.36 412.869 721.419C342.73 725.478 282.314 683.19 279.002 625.969C277.99 608.484 282.457 591.698 291.129 576.797L292.192 574.9C302.806 555.149 302.06 531.953 291.203 512.151C285.647 502.017 282.28 490.885 281.595 479.046C280.767 464.754 283.962 451.046 290.291 438.54L290.291 438.534C301.918 415.686 302.852 389.2 289.958 367.417L289.958 367.412C283.919 357.236 280.269 345.855 279.57 333.796C276.703 284.254 324.364 241.908 384.915 238.403C445.465 234.899 497.748 271.459 500.616 321.003Z" fill="#2C2C2C"/>
<path d="M384.085 332.559C385.121 350.464 381.953 365.264 364.856 366.253C348.813 367.182 340.585 353.095 339.546 335.137C338.507 317.179 343.102 302.349 361.097 301.308C376.77 300.401 383.045 314.601 384.085 332.559Z" fill="#FBFBFB"/>
<path d="M381.273 332.723C380.765 323.943 378.985 316.468 375.71 311.381C372.564 306.496 368.014 303.727 361.258 304.118C353.174 304.586 348.436 308.044 345.661 313.209C342.759 318.61 341.847 326.186 342.356 334.975C342.857 343.627 345.083 351.038 348.837 356.098C352.497 361.03 357.672 363.852 364.692 363.446C368.56 363.222 371.457 362.227 373.65 360.752C375.838 359.279 377.495 357.21 378.716 354.567C381.21 349.164 381.785 341.575 381.273 332.723ZM386.893 332.397C387.417 341.447 386.929 350.211 383.825 356.931C382.247 360.348 379.969 363.282 376.789 365.422C373.611 367.559 369.698 368.795 365.017 369.066C355.996 369.587 349.037 365.822 344.312 359.454C339.683 353.214 337.275 344.604 336.736 335.3C336.205 326.131 337.071 317.307 340.705 310.544C344.466 303.546 351.025 299.071 360.933 298.498C369.85 297.981 376.276 301.861 380.446 308.337C384.485 314.613 386.362 323.219 386.893 332.397Z" fill="#2C2C2C"/>
<path d="M428.624 329.981C428.661 330.617 428.695 331.2 428.732 331.835C429.111 340.211 428.435 347.745 425.746 353.428C419.766 354.412 414.797 358.207 412.077 363.361C411.239 363.516 410.345 363.621 409.448 363.673C393.406 364.601 385.178 350.514 384.138 332.556C383.099 314.598 387.747 299.766 405.689 298.727C420.782 297.854 427.154 310.985 428.564 328.018C428.601 328.654 428.64 329.342 428.677 329.978L428.624 329.981Z" fill="#FBFBFB"/>
<path d="M386.948 332.394C387.449 341.046 389.675 348.457 393.429 353.517C397.089 358.45 402.264 361.271 409.284 360.865C409.633 360.845 409.98 360.804 410.319 360.766C413.281 355.958 418.038 352.345 423.734 350.97C425.687 346.046 426.264 339.543 425.921 331.961L425.653 327.335L425.664 327.334C424.917 319.43 423.071 312.796 419.94 308.254C416.818 303.726 412.372 301.159 405.851 301.537C397.794 302.003 393.058 305.463 390.275 310.632C387.367 316.035 386.44 323.609 386.948 332.394ZM431.648 332.627L431.571 332.631C431.868 340.802 431.171 348.545 428.29 354.633L427.657 355.963L426.201 356.207C421.136 357.041 416.895 360.259 414.565 364.673L413.93 365.882L412.59 366.131C411.627 366.308 410.614 366.427 409.609 366.485C400.588 367.007 393.629 363.241 388.904 356.874C384.275 350.633 381.867 342.024 381.328 332.719C380.797 323.546 381.678 314.724 385.319 307.962C389.086 300.967 395.641 296.489 405.525 295.917C414.096 295.421 420.384 298.986 424.573 305.062C428.633 310.952 430.646 319.062 431.368 327.786L431.648 332.627Z" fill="#2C2C2C"/>
<path d="M364.591 334.36C365.167 344.319 363.417 352.499 353.918 353.049C344.999 353.565 340.47 345.748 339.894 335.789C339.317 325.83 341.859 317.604 351.833 317.027C360.54 316.523 364.014 324.401 364.591 334.36Z" fill="#2C2C2C"/>
<path d="M409.027 329.981C409.603 339.94 407.853 348.12 398.354 348.67C389.436 349.186 384.906 341.369 384.33 331.41C383.754 321.451 386.296 313.225 396.269 312.648C404.976 312.144 408.45 320.022 409.027 329.981Z" fill="#2C2C2C"/>
<path d="M386.996 361.836C386.996 361.836 378.357 362.602 380.183 370.363C382.009 378.123 394.041 376.523 395.437 373.2C396.833 369.877 394.976 362.49 386.996 361.836Z" fill="#2C2C2C"/>
<path d="M386.997 361.836C394.975 362.491 396.83 369.874 395.435 373.198C394.083 376.417 382.75 378.021 380.383 371.063L380.183 370.364C378.357 362.603 386.997 361.836 386.997 361.836ZM387.024 367.545C386.577 367.655 386.133 367.816 385.807 368.012C385.676 368.091 385.6 368.151 385.564 368.186C385.549 368.304 385.548 368.577 385.664 369.072C385.76 369.479 385.901 369.632 386.146 369.787C386.515 370.02 387.214 370.271 388.225 370.317C388.918 370.348 389.58 370.267 390.126 370.146C390.056 369.844 389.961 369.526 389.798 369.229C389.559 368.794 389.229 368.416 388.787 368.126C388.435 367.895 387.906 367.656 387.111 367.523C387.083 367.53 387.054 367.538 387.024 367.545Z" fill="#2C2C2C"/>
<path d="M414.415 370.841C414.94 369.378 416.554 368.615 418.017 369.14C419.48 369.666 420.238 371.28 419.712 372.742L419.712 372.748L419.707 372.759C419.705 372.767 419.702 372.777 419.698 372.787C419.69 372.808 419.676 372.834 419.664 372.866C419.638 372.933 419.604 373.024 419.559 373.137C419.467 373.362 419.334 373.678 419.155 374.063C418.798 374.832 418.261 375.894 417.509 377.116C416.009 379.551 413.626 382.678 410.119 385.39C403.151 390.78 392.222 394.141 376.182 388.346L374.617 387.759L374.106 387.496C373.008 386.785 372.524 385.379 373.018 384.112C373.513 382.846 374.821 382.138 376.111 382.358L376.659 382.514L379.449 383.52C393.035 388.044 401.532 384.923 406.679 380.942C409.512 378.75 411.464 376.187 412.712 374.161C413.333 373.152 413.774 372.291 414.051 371.693C414.189 371.395 414.287 371.163 414.348 371.015C414.378 370.942 414.398 370.888 414.41 370.858L414.415 370.841Z" fill="#2C2C2C"/>
<path d="M427.631 350.34C435.75 349.87 443.093 353.904 447.224 360.246C448.071 361.549 447.699 363.29 446.397 364.138C445.095 364.986 443.354 364.619 442.506 363.317C439.432 358.597 433.977 355.612 427.956 355.96C427.404 355.991 426.809 356.07 426.278 356.183C424.758 356.508 423.263 355.54 422.937 354.02C422.612 352.5 423.581 351.004 425.101 350.679C425.93 350.501 426.81 350.387 427.631 350.34Z" fill="#2C2C2C"/>
<path d="M409.929 361.486C410.801 360.51 412.268 360.246 413.443 360.93C414.785 361.714 415.237 363.439 414.453 364.782L414.263 365.117L413.927 365.577C413.054 366.553 411.587 366.813 410.412 366.128C409.07 365.344 408.613 363.619 409.396 362.277L409.592 361.946L409.929 361.486Z" fill="#2C2C2C"/>
</g>
<g filter="url(#filter3_g_40001778_16615)">
<path d="M304.188 345.628C306.238 356.966 307.519 368.192 308.058 379.218C309.864 415.189 295.627 450.003 269.115 474.157C234.906 505.389 187.152 529.744 131.784 541.174C128.982 541.765 126.172 542.314 123.315 542.831L120.86 543.275C68.7916 552.268 18.6544 548.494 -23.2444 534.657C-59.0406 522.854 -86.9134 494.648 -99.2013 458.858C-103.409 446.614 -106.78 433.716 -109.195 420.353C-115.293 386.622 -114.578 353.792 -108.225 324.334C-94.941 262.636 -57.034 215.765 -5.52199 206.454C12.3865 203.217 30.3319 204.782 47.6116 210.481C60.1132 214.578 73.5949 212.141 83.831 203.934C97.9889 192.593 114.243 184.804 132.112 181.575C186.722 171.703 241.797 206.7 275.496 265.759C288.811 289.07 298.812 316.116 304.148 345.635L304.188 345.628Z" fill="#FBD7D5"/>
<path d="M131.709 179.335C187.62 169.228 243.503 205.094 277.475 264.63L279.956 269.087C291.837 290.988 300.838 315.949 305.963 342.996L306.024 342.985L306.429 345.224C308.495 356.657 309.788 367.981 310.331 379.107C312.17 415.749 297.664 451.219 270.646 475.835L270.651 475.838C236.111 507.372 187.974 531.893 132.25 543.398C129.427 543.992 126.599 544.55 123.722 545.07L121.247 545.518C70.481 554.286 21.4858 551.004 -19.9682 538.096L-23.9573 536.816C-60.4499 524.783 -88.8389 496.038 -101.35 459.599L-102.903 454.934C-106.431 443.983 -109.302 432.549 -111.433 420.759C-117.582 386.747 -116.868 353.615 -110.45 323.855L-109.802 320.946C-95.8456 260.133 -57.8383 213.598 -5.92538 204.214C12.3818 200.905 30.7109 202.509 48.3242 208.319L48.3198 208.319C60.0934 212.177 72.7736 209.882 82.408 202.157C96.8366 190.6 113.438 182.637 131.709 179.335ZM-106.955 419.949C-104.859 431.543 -102.037 442.78 -98.571 453.536L-97.0476 458.116L-95.8731 461.391C-83.2671 494.972 -56.5306 521.286 -22.5293 532.498C18.9844 546.207 68.7407 549.968 120.472 541.033L122.912 540.591C125.747 540.079 128.534 539.532 131.314 538.946L131.323 538.945C186.331 527.589 233.705 503.406 267.582 472.477L267.581 472.473C293.585 448.781 307.56 414.629 305.788 379.332L305.787 379.327C305.289 369.129 304.14 358.756 302.337 348.276L302.315 348.28L301.911 346.041C296.619 316.77 286.704 289.97 273.52 266.89L273.519 266.885C240.093 208.305 185.827 174.177 132.518 183.813C115.053 186.97 99.1409 194.584 85.2539 205.708C74.4161 214.397 60.1317 216.98 46.9022 212.645L46.9014 212.641C29.9559 207.051 12.3931 205.528 -5.11581 208.693C-55.4023 217.783 -92.8319 263.651 -106 324.812C-112.288 353.968 -113.001 386.5 -106.955 419.949Z" fill="#2C2C2C"/>
<path d="M96.7754 360.163C100.406 380.247 98.8815 397.333 79.7255 400.796C61.7768 404.041 50.5843 389.253 46.9537 369.169C43.3231 349.084 46.4573 331.707 66.5792 328.07C84.0852 324.905 93.1448 340.078 96.7754 360.163Z" fill="#FBFBFB"/>
<path d="M94.5344 360.566C92.7483 350.686 89.6725 342.321 85.1304 336.851C80.7097 331.529 74.8721 328.882 66.9834 330.308C57.6523 331.995 52.519 336.752 49.979 343.278C47.361 350.006 47.4053 358.873 49.1929 368.762C50.9613 378.545 54.5367 386.793 59.6244 392.165C64.6237 397.442 71.1463 400.032 79.3199 398.554C83.7858 397.747 87.0753 396.176 89.4921 394.087C91.9061 392.001 93.5718 389.292 94.6269 386.014C96.7689 379.357 96.3359 370.532 94.5344 360.566ZM99.013 359.756C100.842 369.874 101.463 379.634 98.9618 387.407C97.695 391.343 95.6142 394.814 92.4681 397.533C89.3252 400.248 85.2407 402.109 80.1295 403.033C70.356 404.8 62.3111 401.62 56.3198 395.296C50.4164 389.063 46.5764 379.873 44.7143 369.572C42.8717 359.378 42.666 349.514 45.737 341.624C48.8869 333.531 55.3841 327.78 66.1739 325.83C75.7912 324.091 83.2399 327.448 88.6332 333.942C93.9043 340.289 97.1686 349.553 99.013 359.756Z" fill="#2C2C2C"/>
<path d="M97.143 362.186C99.1559 373.322 98.3333 382.796 87.709 384.716C77.7688 386.513 71.5487 378.312 69.5358 367.177C67.5228 356.041 69.271 346.4 80.4185 344.385C90.1172 342.631 95.13 351.05 97.143 362.186Z" fill="#2C2C2C"/>
<path d="M146.557 351.164C150.187 371.249 148.663 388.335 129.507 391.797C111.558 395.042 100.366 380.255 96.735 360.17C93.1044 340.085 96.2387 322.708 116.361 319.071C133.867 315.906 142.926 331.079 146.557 351.164Z" fill="#FBFBFB"/>
<path d="M144.316 351.568C142.529 341.688 139.454 333.323 134.912 327.853C130.491 322.531 124.653 319.884 116.765 321.31C107.433 322.997 102.3 327.754 99.7601 334.28C97.1421 341.008 97.1864 349.875 98.974 359.764C100.742 369.548 104.318 377.796 109.406 383.167C114.405 388.444 120.927 391.034 129.101 389.557C133.567 388.749 136.856 387.178 139.273 385.089C141.687 383.003 143.353 380.295 144.408 377.016C146.55 370.36 146.117 361.534 144.316 351.568ZM148.794 350.759C150.623 360.877 151.244 370.636 148.743 378.409C147.476 382.346 145.395 385.816 142.249 388.535C139.106 391.251 135.022 393.111 129.911 394.035C120.137 395.802 112.092 392.623 106.101 386.298C100.198 380.066 96.3576 370.876 94.4954 360.574C92.6528 350.38 92.4471 340.516 95.5181 332.626C98.668 324.533 105.165 318.782 115.955 316.832C125.572 315.093 133.021 318.45 138.414 324.944C143.685 331.291 146.95 340.555 148.794 350.759Z" fill="#2C2C2C"/>
<path d="M106.907 397.136C106.907 397.136 86.7742 401.863 91.4067 412.776C96.0391 423.689 123.986 416.212 127.132 410.625C130.278 405.039 125.507 394.736 106.9 397.096L106.907 397.136Z" fill="#2C2C2C"/>
<path d="M106.613 394.841C116.294 393.613 122.937 395.608 126.742 399.233C130.558 402.87 131.242 407.969 129.116 411.743C128.462 412.905 127.329 413.876 126.148 414.665C124.92 415.485 123.414 416.258 121.757 416.953C118.439 418.346 114.323 419.508 110.169 420.137C106.036 420.762 101.701 420.881 98.0038 420.05C94.3168 419.222 90.8724 417.343 89.3119 413.668C87.8474 410.218 88.3386 407.095 89.9446 404.525C91.4694 402.085 93.9265 400.24 96.2921 398.888C98.6911 397.517 101.211 396.531 103.103 395.891C103.532 395.746 103.94 395.637 104.302 395.525L104.232 395.14L106.613 394.841ZM107.428 399.354L107.389 399.362C107.358 399.369 107.31 399.38 107.246 399.396C107.115 399.43 106.915 399.486 106.661 399.556C106.153 399.698 105.426 399.911 104.565 400.202C102.828 400.789 100.604 401.665 98.5508 402.838C96.4623 404.032 94.7509 405.419 93.8037 406.935C92.9383 408.319 92.651 409.884 93.5025 411.89C94.2588 413.669 96.0466 414.947 98.9989 415.611C101.943 416.273 105.662 416.218 109.487 415.639C113.291 415.064 117.043 413.995 119.995 412.755C121.472 412.135 122.701 411.49 123.621 410.876C124.585 410.231 125.016 409.747 125.149 409.511C126.169 407.699 126.038 404.849 123.602 402.528C121.197 400.237 116.281 398.294 107.64 399.303L107.428 399.354Z" fill="#2C2C2C"/>
<path d="M47.2035 411.974C48.2997 411.36 49.6867 411.75 50.3014 412.846L50.3089 412.862C50.3179 412.878 50.3336 412.904 50.3545 412.94C50.3969 413.013 50.464 413.126 50.555 413.274C50.7373 413.572 51.0191 414.014 51.3948 414.572C52.1473 415.689 53.2833 417.262 54.7971 419.052C57.8332 422.642 62.346 427.054 68.286 430.434C74.2064 433.803 81.5426 436.148 90.3031 435.65C99.0699 435.152 109.437 431.799 121.391 423.486L122.687 425.356L123.986 427.222C111.483 435.916 100.324 439.642 90.5604 440.197C80.7911 440.752 72.5916 438.123 66.0339 434.391C59.496 430.671 54.5879 425.854 51.3224 421.992C49.686 420.057 48.4487 418.349 47.6181 417.116C47.2024 416.499 46.8895 415.997 46.675 415.647C46.5678 415.471 46.4815 415.333 46.4246 415.236C46.3967 415.188 46.3744 415.149 46.3587 415.121C46.3512 415.108 46.3439 415.097 46.3393 415.089L46.3377 415.08L46.3325 415.076C46.3317 415.075 46.3316 415.072 48.3166 413.959L46.3317 415.072C45.7173 413.976 46.1075 412.589 47.2035 411.974ZM121.391 423.486C122.423 422.769 123.839 423.025 124.557 424.056C125.273 425.088 125.018 426.504 123.986 427.222L121.391 423.486Z" fill="#2C2C2C"/>
<path d="M146.556 351.163C148.569 362.299 147.746 371.773 137.122 373.693C127.182 375.49 120.962 367.289 118.949 356.154C116.936 345.018 118.684 335.377 129.831 333.362C139.53 331.609 144.543 340.028 146.556 351.163Z" fill="#2C2C2C"/>
<path d="M11.6889 409.038C13.0891 408.785 14.0178 407.438 13.7631 406.029C13.5084 404.62 12.1668 403.683 10.7666 403.936C9.36632 404.189 8.43766 405.536 8.69235 406.945C8.94703 408.354 10.2886 409.291 11.6889 409.038Z" fill="#2C2C2C"/>
<path d="M27.5044 406.18C28.9046 405.927 29.8333 404.579 29.5786 403.17C29.3239 401.761 27.9824 400.824 26.5821 401.078C25.1819 401.331 24.2532 402.678 24.5079 404.087C24.7626 405.496 26.1042 406.433 27.5044 406.18Z" fill="#2C2C2C"/>
<path d="M21.0424 415.502C22.4426 415.249 23.3713 413.901 23.1166 412.492C22.8619 411.083 21.5203 410.146 20.1201 410.399C18.7198 410.653 17.7912 412 18.0459 413.409C18.3005 414.818 19.6421 415.755 21.0424 415.502Z" fill="#2C2C2C"/>
<path d="M161.234 382.005C162.634 381.752 163.563 380.405 163.308 378.996C163.053 377.587 161.712 376.65 160.311 376.903C158.911 377.156 157.983 378.503 158.237 379.912C158.492 381.321 159.834 382.258 161.234 382.005Z" fill="#2C2C2C"/>
<path d="M177.01 379.154C178.411 378.901 179.339 377.553 179.085 376.144C178.83 374.735 177.488 373.798 176.088 374.051C174.688 374.305 173.759 375.652 174.014 377.061C174.269 378.47 175.61 379.407 177.01 379.154Z" fill="#2C2C2C"/>
<path d="M170.55 388.476C171.95 388.223 172.879 386.875 172.624 385.467C172.369 384.058 171.028 383.121 169.627 383.374C168.227 383.627 167.299 384.974 167.553 386.383C167.808 387.792 169.149 388.729 170.55 388.476Z" fill="#2C2C2C"/>
</g>
</g>
<defs>
<filter id="filter0_g_40001778_16615" x="-142.948" y="-56.7152" width="473.398" height="314.288" filterUnits="userSpaceOnUse" color-interpolation-filters="sRGB">
<feFlood flood-opacity="0" result="BackgroundImageFix"/>
<feBlend mode="normal" in="SourceGraphic" in2="BackgroundImageFix" result="shape"/>
<feTurbulence type="fractalNoise" baseFrequency="0.2083333283662796 0.2083333283662796" numOctaves="3" seed="7043" />
<feDisplacementMap in="shape" scale="1.7999999523162842" xChannelSelector="R" yChannelSelector="G" result="displacedImage" width="100%" height="100%" />
<feMerge result="effect1_texture_40001778_16615">
<feMergeNode in="displacedImage"/>
</feMerge>
</filter>
<filter id="filter1_g_40001778_16615" x="188.1" y="-78.9" width="422.647" height="435.419" filterUnits="userSpaceOnUse" color-interpolation-filters="sRGB">
<feFlood flood-opacity="0" result="BackgroundImageFix"/>
<feBlend mode="normal" in="SourceGraphic" in2="BackgroundImageFix" result="shape"/>
<feTurbulence type="fractalNoise" baseFrequency="0.2083333283662796 0.2083333283662796" numOctaves="3" seed="7043" />
<feDisplacementMap in="shape" scale="1.7999999523162842" xChannelSelector="R" yChannelSelector="G" result="displacedImage" width="100%" height="100%" />
<feMerge result="effect1_texture_40001778_16615">
<feMergeNode in="displacedImage"/>
</feMerge>
</filter>
<filter id="filter2_g_40001778_16615" x="277.961" y="237.271" width="257.913" height="485.845" filterUnits="userSpaceOnUse" color-interpolation-filters="sRGB">
<feFlood flood-opacity="0" result="BackgroundImageFix"/>
<feBlend mode="normal" in="SourceGraphic" in2="BackgroundImageFix" result="shape"/>
<feTurbulence type="fractalNoise" baseFrequency="0.2083333283662796 0.2083333283662796" numOctaves="3" seed="7043" />
<feDisplacementMap in="shape" scale="1.7999999523162842" xChannelSelector="R" yChannelSelector="G" result="displacedImage" width="100%" height="100%" />
<feMerge result="effect1_texture_40001778_16615">
<feMergeNode in="displacedImage"/>
</feMerge>
</filter>
<filter id="filter3_g_40001778_16615" x="-116.576" y="176.737" width="427.963" height="374.589" filterUnits="userSpaceOnUse" color-interpolation-filters="sRGB">
<feFlood flood-opacity="0" result="BackgroundImageFix"/>
<feBlend mode="normal" in="SourceGraphic" in2="BackgroundImageFix" result="shape"/>
<feTurbulence type="fractalNoise" baseFrequency="0.2083333283662796 0.2083333283662796" numOctaves="3" seed="7043" />
<feDisplacementMap in="shape" scale="1.7999999523162842" xChannelSelector="R" yChannelSelector="G" result="displacedImage" width="100%" height="100%" />
<feMerge result="effect1_texture_40001778_16615">
<feMergeNode in="displacedImage"/>
</feMerge>
</filter>
<clipPath id="clip0_40001778_16615">
<rect width="480" height="480" fill="white"/>
</clipPath>
</defs>
</svg>