<svg width="26" height="26" viewBox="0 0 26 26" fill="none" xmlns="http://www.w3.org/2000/svg">
<g filter="url(#filter0_g_40001505_14037)">
<path d="M13 5C13.2963 5.00004 13.5332 5.08072 13.7461 5.23828L13.752 5.24219L20.458 10.1279L20.4668 10.1348C20.6151 10.2405 20.7291 10.3709 20.8154 10.5381C20.9011 10.7042 20.9418 10.8724 20.9414 11.0547V20.8281C20.9414 21.1481 20.8362 21.4034 20.5869 21.6455C20.3369 21.8884 20.0618 22.0004 19.707 22H16.3525C16.3065 22 16.2866 21.9929 16.2822 21.9912C16.2795 21.9901 16.271 21.9873 16.2549 21.9717C16.2454 21.9625 16.2415 21.956 16.2402 21.9541L16.2393 21.9531C16.239 21.9524 16.2379 21.9506 16.2373 21.9473L16.2354 21.9121V16.4854C16.2353 15.9162 16.024 15.3964 15.6084 14.9941C15.1965 14.5955 14.6781 14.4018 14.1201 14.4004H11.8818C11.3219 14.4005 10.8013 14.5948 10.3887 14.9971C9.97649 15.3989 9.76603 15.9161 9.76465 16.4834V21.9141C9.76465 21.9326 9.76271 21.9439 9.76172 21.9492C9.76097 21.9532 9.76076 21.9551 9.76074 21.9551C9.75964 21.9567 9.7552 21.9618 9.74609 21.9707C9.72932 21.987 9.72038 21.9902 9.71777 21.9912C9.71371 21.9928 9.69456 22.0001 9.64941 22H6.29395C5.93708 22 5.66116 21.8874 5.41211 21.6455C5.19513 21.4347 5.08734 21.213 5.06348 20.9453L5.05859 20.8271V11.0576C5.05859 10.8745 5.09946 10.7049 5.18555 10.5381C5.27222 10.3702 5.38632 10.2394 5.53418 10.1338L5.54199 10.1279L12.2471 5.24219L12.2539 5.23828C12.4668 5.08076 12.7037 5 13 5Z" stroke="#2C2C2C" stroke-width="2"/>
</g>
<defs>
<filter id="filter0_g_40001505_14037" x="-0.4" y="-0.4" width="26.8" height="26.8" filterUnits="userSpaceOnUse" color-interpolation-filters="sRGB">
<feFlood flood-opacity="0" result="BackgroundImageFix"/>
<feBlend mode="normal" in="SourceGraphic" in2="BackgroundImageFix" result="shape"/>
<feTurbulence type="fractalNoise" baseFrequency="0.66666668653488159 0.66666668653488159" numOctaves="3" seed="7043" />
<feDisplacementMap in="shape" scale="0.80000001192092896" xChannelSelector="R" yChannelSelector="G" result="displacedImage" width="100%" height="100%" />
<feMerge result="effect1_texture_40001505_14037">
<feMergeNode in="displacedImage"/>
</feMerge>
</filter>
</defs>
</svg>
