<svg width="72" height="23" viewBox="0 0 72 23" fill="none" xmlns="http://www.w3.org/2000/svg">
<path d="M68.0124 22.6233V6.99723H71.4498V22.6233H68.0124ZM69.7311 3.95359C69.0895 3.95359 68.5509 3.76533 68.1155 3.38879C67.6801 3.01226 67.4624 2.53114 67.4624 1.94542C67.4624 1.38062 67.6801 0.920412 68.1155 0.564799C68.5509 0.188266 69.0895 0 69.7311 0C70.3728 0 70.9113 0.188266 71.3467 0.564799C71.7821 0.920412 71.9998 1.38062 71.9998 1.94542C71.9998 2.53114 71.7821 3.01226 71.3467 3.38879C70.9113 3.76533 70.3728 3.95359 69.7311 3.95359Z" fill="black"/>
<path d="M55.3377 23.0002C53.6878 23.0002 52.2211 22.6446 50.9378 21.9334C49.6774 21.2222 48.692 20.2495 47.9816 19.0153C47.2712 17.7602 46.916 16.3482 46.916 14.7793C46.916 13.2104 47.2712 11.8193 47.9816 10.606C48.692 9.37184 49.6889 8.39913 50.9722 7.6879C52.2555 6.97667 53.7222 6.62106 55.3721 6.62106C56.7242 6.62106 57.9158 6.87208 58.9471 7.37413C60.0012 7.87617 60.8147 8.56648 61.3877 9.44505V0.0317383H64.8251V22.6237H61.7314L61.3877 20.1762C61.0439 20.6574 60.5856 21.1176 60.0127 21.5569C59.4627 21.9752 58.7981 22.3204 58.019 22.5923C57.2627 22.8643 56.369 23.0002 55.3377 23.0002ZM55.8877 20.2704C56.9648 20.2704 57.9158 20.0403 58.7408 19.5801C59.5658 19.1199 60.2075 18.4818 60.6658 17.666C61.1241 16.8502 61.3533 15.8984 61.3533 14.8106C61.3533 13.7229 61.1241 12.7711 60.6658 11.9553C60.2075 11.1395 59.5658 10.5014 58.7408 10.0412C57.9158 9.58103 56.9648 9.35092 55.8877 9.35092C54.8336 9.35092 53.894 9.58103 53.069 10.0412C52.2441 10.5014 51.6024 11.1395 51.1441 11.9553C50.6857 12.7711 50.4566 13.7229 50.4566 14.8106C50.4566 15.8984 50.6857 16.8502 51.1441 17.666C51.6024 18.4818 52.2441 19.1199 53.069 19.5801C53.894 20.0403 54.8336 20.2704 55.8877 20.2704Z" fill="black"/>
<path d="M36.6833 22.9998C35.0791 22.9998 33.6239 22.6651 32.3177 21.9957C31.0344 21.3054 30.0146 20.3431 29.2584 19.1089C28.5021 17.8747 28.124 16.4523 28.124 14.8416C28.124 13.189 28.5021 11.7456 29.2584 10.5114C30.0375 9.27725 31.0802 8.32546 32.3865 7.65607C33.6927 6.96576 35.1479 6.62061 36.752 6.62061C38.3791 6.62061 39.8342 6.96576 41.1176 7.65607C42.4238 8.32546 43.455 9.27725 44.2113 10.5114C44.9675 11.7247 45.3456 13.1681 45.3456 14.8416C45.3456 16.4732 44.956 17.9061 44.1769 19.1403C43.4207 20.3536 42.3894 21.3054 41.0832 21.9957C39.7999 22.6651 38.3332 22.9998 36.6833 22.9998ZM36.7176 20.3013C37.6343 20.3013 38.4707 20.1026 39.227 19.7051C40.0061 19.2867 40.6363 18.6697 41.1176 17.8538C41.5988 17.038 41.8394 16.0235 41.8394 14.8102C41.8394 13.5969 41.5988 12.5824 41.1176 11.7666C40.6592 10.9507 40.0405 10.3441 39.2613 9.94665C38.5051 9.52828 37.6687 9.31909 36.752 9.31909C35.8812 9.31909 35.0447 9.52828 34.2427 9.94665C33.4635 10.3441 32.8333 10.9507 32.3521 11.7666C31.8938 12.5824 31.6646 13.5969 31.6646 14.8102C31.6646 16.0235 31.8938 17.038 32.3521 17.8538C32.8333 18.6697 33.4521 19.2867 34.2083 19.7051C34.9875 20.1026 35.8239 20.3013 36.7176 20.3013Z" fill="black"/>
<path d="M0 22.6234V1.22949H4.38367L13.2996 15.6551L22.1784 1.22949H26.5621V22.6234H22.8471V6.57797L14.7113 19.5671H11.8508L3.71497 6.60853V22.6234H0Z" fill="black"/>
</svg>