<svg width="196" height="195" viewBox="0 0 196 195" fill="none" xmlns="http://www.w3.org/2000/svg">
<g clip-path="url(#clip0_40001696_14942)" filter="url(#filter0_g_40001696_14942)">
<rect width="194" height="193" transform="translate(1 1)" fill="#A7E1B6"/>
<path d="M188.059 195.916H7.95729C0.807296 195.916 -4.80617 188.676 -3.90474 180.47C2.63065 122.04 45.7765 76.916 97.9981 76.916C150.22 76.916 193.366 122.04 199.901 180.47C200.823 188.676 195.189 195.916 188.039 195.916H188.059Z" fill="#EEEDEB" stroke="#2C2C2C" stroke-miterlimit="10"/>
<path d="M123.345 132.794C123.345 142.995 121.071 151.263 111.318 151.263C102.181 151.263 97.9805 142.995 97.9805 132.794C97.9805 122.593 101.074 114.325 111.318 114.325C120.231 114.325 123.345 122.593 123.345 132.794Z" fill="#FBFBFB" stroke="#2C2C2C" stroke-miterlimit="10"/>
<path d="M98.0032 132.794C98.0032 142.995 95.729 151.263 85.9766 151.263C76.8388 151.263 72.6387 142.995 72.6387 132.794C72.6387 122.593 75.7324 114.325 85.9766 114.325C94.889 114.325 98.0032 122.593 98.0032 132.794Z" fill="#FBFBFB" stroke="#2C2C2C" stroke-miterlimit="10"/>
<path d="M98.0042 133.31C98.0042 138.966 96.7544 143.552 91.3455 143.552C86.2849 143.552 83.9492 138.966 83.9492 133.31C83.9492 127.654 85.6702 123.067 91.3455 123.067C96.2832 123.067 98.0042 127.654 98.0042 133.31Z" fill="#2C2C2C"/>
<path d="M123.348 133.31C123.348 138.966 122.098 143.552 116.689 143.552C111.629 143.552 109.293 138.966 109.293 133.31C109.293 127.654 111.014 123.067 116.689 123.067C121.627 123.067 123.348 127.654 123.348 133.31Z" fill="#2C2C2C"/>
<path d="M98.0674 150.982C98.4092 150.983 98.8896 151.144 99.2842 151.463C99.6704 151.775 99.9229 152.193 99.9229 152.684C99.9227 153.201 99.6396 153.805 99.2217 154.299C99.0176 154.54 98.797 154.735 98.5947 154.866C98.3819 155.004 98.2354 155.042 98.1689 155.042C97.8092 155.042 97.2777 154.967 96.8506 154.68C96.4568 154.415 96.0879 153.929 96.0879 152.95C96.088 152.05 96.561 151.574 97.0674 151.297C97.328 151.154 97.594 151.068 97.7979 151.019C97.8661 151.002 97.9265 150.991 97.9756 150.982H98.0674Z" fill="#A7E1B6" stroke="#2C2C2C"/>
<path d="M68.502 111.406C68.502 111.406 72.0055 101.452 82.516 104.66" stroke="#2C2C2C" stroke-miterlimit="10" stroke-linecap="round"/>
<path d="M104.825 162.268C104.825 162.268 95.3388 166.834 90.1758 157.085" stroke="#2C2C2C" stroke-miterlimit="10" stroke-linecap="round"/>
</g>
<defs>
<filter id="filter0_g_40001696_14942" x="0.6" y="0.6" width="194.8" height="193.8" filterUnits="userSpaceOnUse" color-interpolation-filters="sRGB">
<feFlood flood-opacity="0" result="BackgroundImageFix"/>
<feBlend mode="normal" in="SourceGraphic" in2="BackgroundImageFix" result="shape"/>
<feTurbulence type="fractalNoise" baseFrequency="0.66666668653488159 0.66666668653488159" numOctaves="3" seed="7043" />
<feDisplacementMap in="shape" scale="0.80000001192092896" xChannelSelector="R" yChannelSelector="G" result="displacedImage" width="100%" height="100%" />
<feMerge result="effect1_texture_40001696_14942">
<feMergeNode in="displacedImage"/>
</feMerge>
</filter>
<clipPath id="clip0_40001696_14942">
<rect width="194" height="193" fill="white" transform="translate(1 1)"/>
</clipPath>
</defs>
</svg>
