<svg width="196" height="195" viewBox="0 0 196 195" fill="none" xmlns="http://www.w3.org/2000/svg">
<g clip-path="url(#clip0_40001696_14924)" filter="url(#filter0_g_40001696_14924)">
<rect width="194" height="193" transform="translate(1 1)" fill="#FEE888"/>
<g filter="url(#filter1_g_40001696_14924)">
<path d="M118.613 62.2385C128.15 32.9101 68.396 32.9101 77.9325 62.2385C68.396 32.9101 20.0461 67.9843 45.0213 86.121C20.0628 67.9843 1.5898 124.759 32.467 124.759C1.5898 124.759 20.0628 181.534 45.038 163.398C20.0628 181.534 68.396 216.609 77.9492 187.28C68.4126 216.609 128.166 216.609 118.63 187.28C128.166 216.609 176.516 181.534 151.541 163.398C176.516 181.534 194.989 124.759 164.112 124.759C194.989 124.759 176.516 67.9843 151.541 86.121C176.516 67.9843 128.183 32.9101 118.63 62.2385H118.613Z" fill="#EEEDEB"/>
<path d="M118.613 62.2385C128.15 32.9101 68.396 32.9101 77.9325 62.2385C68.396 32.9101 20.0461 67.9843 45.0213 86.121C20.0628 67.9843 1.5898 124.759 32.467 124.759C1.5898 124.759 20.0628 181.534 45.038 163.398C20.0628 181.534 68.396 216.609 77.9492 187.28C68.4126 216.609 128.166 216.609 118.63 187.28C128.166 216.609 176.516 181.534 151.541 163.398C176.516 181.534 194.989 124.759 164.112 124.759C194.989 124.759 176.516 67.9843 151.541 86.121C176.516 67.9843 128.183 32.9101 118.63 62.2385H118.613Z" fill="#EEEDEB" stroke="#2C2C2C" stroke-miterlimit="10"/>
</g>
<g filter="url(#filter2_g_40001696_14924)">
<path d="M101.339 115.615V116.165C101.339 116.498 101.322 116.814 101.322 117.147C101.305 117.647 101.272 118.146 101.239 118.629C101.239 118.779 101.222 118.929 101.205 119.079C100.688 125.674 98.3542 130.587 91.5686 130.587C84.1327 130.587 80.7148 123.876 80.7148 115.615C80.7148 113.7 80.8482 111.851 81.1817 110.169C84.3161 110.569 87.5839 110.852 90.935 111.052C94.0527 111.251 97.2372 111.351 100.505 111.351C100.688 111.368 100.888 111.368 101.072 111.368C101.255 112.717 101.339 114.133 101.339 115.615Z" fill="#FBFBFB" stroke="#2C2C2C" stroke-miterlimit="10"/>
<path d="M91.3096 111.568C94.2217 111.748 97.1915 111.841 100.232 111.848C100.609 112.887 100.819 114.135 100.888 115.513L100.91 116.172V116.463C100.91 116.698 100.91 116.897 100.895 117.109L100.894 117.119V117.129C100.877 117.618 100.845 118.11 100.812 118.593L100.81 118.61V118.628C100.81 118.744 100.797 118.865 100.78 119.017C100.585 120.625 100.16 121.934 99.417 122.835C98.6935 123.712 97.6226 124.257 95.9912 124.257C94.1096 124.257 92.758 123.42 91.8555 122.052C90.9376 120.66 90.4727 118.694 90.4727 116.463C90.4727 114.573 90.715 112.879 91.3096 111.568Z" fill="#2C2C2C" stroke="#2C2C2C"/>
<path d="M121.961 115.615C121.961 115.898 121.961 116.181 121.944 116.464C121.827 124.325 119.843 130.587 112.174 130.587C104.505 130.587 101.32 123.876 101.32 115.615C101.32 114.133 101.404 112.717 101.587 111.368C104.855 111.368 108.039 111.268 111.157 111.085C114.558 110.902 117.826 110.619 120.994 110.219H121.01C121.177 110.219 121.344 110.202 121.511 110.169C121.777 111.585 121.911 113.117 121.944 114.716C121.961 115.015 121.961 115.315 121.961 115.615Z" fill="#FBFBFB" stroke="#2C2C2C" stroke-miterlimit="10"/>
<path d="M101.253 130.648C101.595 130.653 101.92 130.685 102.161 130.716C102.281 130.731 102.379 130.746 102.446 130.757C102.479 130.762 102.505 130.767 102.521 130.771C102.53 130.772 102.536 130.773 102.54 130.773C102.542 130.774 102.543 130.774 102.544 130.774H102.545L102.702 130.805C102.759 130.821 102.828 130.841 102.906 130.864C103.159 130.94 103.517 131.051 103.934 131.194C104.771 131.482 105.834 131.891 106.766 132.385C107.231 132.631 107.654 132.893 107.996 133.165C108.342 133.44 108.582 133.705 108.711 133.95C108.833 134.182 108.854 134.384 108.787 134.587C108.714 134.806 108.515 135.092 108.062 135.426C106.12 136.849 104.645 137.235 103.512 137.124C102.522 137.027 101.712 136.544 101.013 135.881L100.72 135.586C100.583 135.436 100.405 135.128 100.227 134.688C100.052 134.257 99.8945 133.744 99.7812 133.227C99.6675 132.707 99.6021 132.201 99.6035 131.783C99.605 131.339 99.6823 131.096 99.752 131.004C99.8255 130.908 99.987 130.805 100.28 130.734C100.564 130.666 100.907 130.644 101.253 130.648Z" fill="#FEE888" stroke="#2C2C2C"/>
<path d="M88.0195 145.297C95.6888 149.261 104.809 149.311 112.528 145.413L112.761 145.297" stroke="#2C2C2C" stroke-miterlimit="10" stroke-linecap="round"/>
<path d="M101.125 111.378C100.941 111.378 100.741 111.378 100.558 111.361C97.2899 111.361 94.1054 111.261 90.9877 111.061C87.6366 110.861 84.3688 110.578 81.2344 110.179C82.2514 104.616 85.2191 100.669 91.6213 100.669C97.5733 100.669 100.341 105.182 101.125 111.378Z" stroke="#2C2C2C" stroke-miterlimit="10"/>
<path d="M121.502 110.179C121.335 110.212 121.168 110.229 121.001 110.229H120.985C117.817 110.628 114.549 110.911 111.148 111.095C108.03 111.278 104.846 111.378 101.578 111.378C102.395 105.182 105.329 100.669 112.165 100.669C117.734 100.669 120.518 104.616 121.502 110.179Z" stroke="#2C2C2C" stroke-miterlimit="10"/>
<path d="M120.768 110.773C121.206 111.872 121.441 113.229 121.516 114.755L121.517 114.759C121.532 115.042 121.532 115.329 121.532 115.631C121.532 115.916 121.532 116.184 121.517 116.45H121.516V116.464C121.45 118.53 121.127 120.283 120.374 121.508C119.648 122.688 118.495 123.425 116.597 123.425C114.715 123.425 113.363 122.588 112.461 121.22C111.543 119.828 111.078 117.862 111.078 115.631C111.078 114.116 111.23 112.741 111.595 111.579C114.756 111.402 117.805 111.138 120.768 110.773Z" fill="#2C2C2C" stroke="#2C2C2C"/>
</g>
</g>
<defs>
<filter id="filter0_g_40001696_14924" x="0.6" y="0.6" width="194.8" height="193.8" filterUnits="userSpaceOnUse" color-interpolation-filters="sRGB">
<feFlood flood-opacity="0" result="BackgroundImageFix"/>
<feBlend mode="normal" in="SourceGraphic" in2="BackgroundImageFix" result="shape"/>
<feTurbulence type="fractalNoise" baseFrequency="0.66666668653488159 0.66666668653488159" numOctaves="3" seed="7043" />
<feDisplacementMap in="shape" scale="0.80000001192092896" xChannelSelector="R" yChannelSelector="G" result="displacedImage" width="100%" height="100%" />
<feMerge result="effect1_texture_40001696_14924">
<feMergeNode in="displacedImage"/>
</feMerge>
</filter>
<filter id="filter1_g_40001696_14924" x="15.3891" y="39.3422" width="165.8" height="170.834" filterUnits="userSpaceOnUse" color-interpolation-filters="sRGB">
<feFlood flood-opacity="0" result="BackgroundImageFix"/>
<feBlend mode="normal" in="SourceGraphic" in2="BackgroundImageFix" result="shape"/>
<feTurbulence type="fractalNoise" baseFrequency="0.66666668653488159 0.66666668653488159" numOctaves="3" seed="7043" />
<feDisplacementMap in="shape" scale="0.80000001192092896" xChannelSelector="R" yChannelSelector="G" result="displacedImage" width="100%" height="100%" />
<feMerge result="effect1_texture_40001696_14924">
<feMergeNode in="displacedImage"/>
</feMerge>
</filter>
<filter id="filter2_g_40001696_14924" x="79.8148" y="99.7689" width="43.0461" height="49.4348" filterUnits="userSpaceOnUse" color-interpolation-filters="sRGB">
<feFlood flood-opacity="0" result="BackgroundImageFix"/>
<feBlend mode="normal" in="SourceGraphic" in2="BackgroundImageFix" result="shape"/>
<feTurbulence type="fractalNoise" baseFrequency="0.66666668653488159 0.66666668653488159" numOctaves="3" seed="7043" />
<feDisplacementMap in="shape" scale="0.80000001192092896" xChannelSelector="R" yChannelSelector="G" result="displacedImage" width="100%" height="100%" />
<feMerge result="effect1_texture_40001696_14924">
<feMergeNode in="displacedImage"/>
</feMerge>
</filter>
<clipPath id="clip0_40001696_14924">
<rect width="194" height="193" fill="white" transform="translate(1 1)"/>
</clipPath>
</defs>
</svg>
