<svg width="196" height="195" viewBox="0 0 196 195" fill="none" xmlns="http://www.w3.org/2000/svg">
<g clip-path="url(#clip0_40001696_14960)" filter="url(#filter0_g_40001696_14960)">
<rect width="194" height="193" transform="translate(1 1)" fill="#93D1E0"/>
<path d="M164.289 242.423C164.289 273.118 134.725 298 98.2891 298C61.8532 298 32.2891 273.118 32.2891 242.423C32.2891 233.022 35.059 224.157 39.9331 216.416C46.9912 205.194 47.4973 191.346 42.0372 179.267C39.507 173.669 38.122 167.616 38.122 161.268C38.122 153.608 40.1462 146.376 43.7418 139.868C50.7467 127.253 52.1317 112.12 45.7661 99.1563C42.9961 93.5316 41.4779 87.3446 41.4779 80.8896C41.4779 54.4539 66.9138 33 98.2891 33C129.664 33 155.127 54.4539 155.127 80.8896C155.127 87.3713 153.609 93.5584 150.839 99.183C144.473 112.146 145.858 127.279 152.863 139.921C156.459 146.403 158.456 153.635 158.456 161.268C158.456 167.616 157.071 173.669 154.541 179.267C149.081 191.346 149.587 205.194 156.645 216.416C161.519 224.184 164.289 233.022 164.289 242.423Z" fill="#EEEDEB" stroke="#2C2C2C" stroke-miterlimit="10"/>
<path d="M96.4088 82.1614C96.4088 91.6073 94.293 99.2925 85.2729 99.2925C76.8097 99.2925 72.9121 91.6352 72.9121 82.1614C72.9121 72.6876 75.7796 65.0303 85.2729 65.0303C93.5413 65.0303 96.4088 72.6876 96.4088 82.1614Z" fill="#FBFBFB" stroke="#2C2C2C" stroke-miterlimit="10"/>
<path d="M119.902 82.1614C119.902 82.4968 119.902 82.8042 119.902 83.1395C119.847 87.5551 119.262 91.4955 117.675 94.4019C114.502 94.7373 111.773 96.5817 110.186 99.2087C109.741 99.2646 109.268 99.2925 108.794 99.2925C100.331 99.2925 96.4336 91.6352 96.4336 82.1614C96.4336 72.6876 99.3289 65.0303 108.794 65.0303C116.757 65.0303 119.708 72.1287 119.93 81.1274C119.93 81.4627 119.93 81.826 119.93 82.1614H119.902Z" fill="#FBFBFB" stroke="#2C2C2C" stroke-miterlimit="10"/>
<path d="M96.4039 83.1111C96.4039 88.3651 95.2347 92.6129 90.2235 92.6129C85.5186 92.6129 83.375 88.3651 83.375 83.1111C83.375 77.8572 84.9619 73.6094 90.2235 73.6094C94.8171 73.6094 96.4039 77.8572 96.4039 83.1111Z" fill="#2C2C2C"/>
<path d="M119.904 82.1609C119.904 87.4149 118.735 91.6627 113.724 91.6627C109.019 91.6627 106.875 87.4149 106.875 82.1609C106.875 76.907 108.462 72.6592 113.724 72.6592C118.317 72.6592 119.904 76.907 119.904 82.1609Z" fill="#2C2C2C"/>
<path d="M97.0176 98.1455C98.9087 98.4241 99.9874 99.4402 100.519 100.556C101.07 101.713 101.028 102.962 100.688 103.655C100.574 103.888 100.193 104.184 99.502 104.393C98.8427 104.592 98.0118 104.677 97.1797 104.591C95.4976 104.417 94.0018 103.584 93.6953 101.833C93.5307 100.892 93.6734 100.227 93.9365 99.7471C94.2028 99.2617 94.6197 98.9172 95.085 98.6729C95.5517 98.4278 96.0479 98.2938 96.4346 98.2217C96.6259 98.186 96.7864 98.166 96.8975 98.1553C96.9488 98.1503 96.9897 98.1473 97.0176 98.1455Z" fill="#93D1E0" stroke="#2C2C2C"/>
<path d="M112.551 103.793C112.551 103.793 106.872 117.123 90.3633 109.55" stroke="#2C2C2C" stroke-miterlimit="10" stroke-linecap="round"/>
<path d="M117.65 94.4002C118.012 94.3443 118.402 94.3164 118.764 94.3164C122.494 94.3164 125.752 96.3565 127.478 99.3747" stroke="#2C2C2C" stroke-miterlimit="10" stroke-linecap="round"/>
<path d="M110.16 99.21L110.047 99.3798" stroke="#2C2C2C" stroke-miterlimit="10" stroke-linecap="round"/>
</g>
<defs>
<filter id="filter0_g_40001696_14960" x="0.6" y="0.6" width="194.8" height="193.8" filterUnits="userSpaceOnUse" color-interpolation-filters="sRGB">
<feFlood flood-opacity="0" result="BackgroundImageFix"/>
<feBlend mode="normal" in="SourceGraphic" in2="BackgroundImageFix" result="shape"/>
<feTurbulence type="fractalNoise" baseFrequency="0.66666668653488159 0.66666668653488159" numOctaves="3" seed="7043" />
<feDisplacementMap in="shape" scale="0.80000001192092896" xChannelSelector="R" yChannelSelector="G" result="displacedImage" width="100%" height="100%" />
<feMerge result="effect1_texture_40001696_14960">
<feMergeNode in="displacedImage"/>
</feMerge>
</filter>
<clipPath id="clip0_40001696_14960">
<rect width="194" height="193" fill="white" transform="translate(1 1)"/>
</clipPath>
</defs>
</svg>
