<svg width="247" height="346" viewBox="0 0 247 346" fill="none" xmlns="http://www.w3.org/2000/svg">
<g clip-path="url(#clip0_40003030_16189)">
<path d="M240.4 261.333C249.392 261.333 257.878 260.799 264.31 259.828C269.299 259.071 278.59 257.67 278.59 250.849C278.59 247.185 275.905 245.152 273.053 243.973C272.97 242.065 272.463 240.184 271.533 238.512C269.625 235.071 266.177 232.92 262.062 232.6C261.701 232.573 261.306 232.559 260.841 232.559C258.884 232.559 256.775 232.85 254.534 233.426L254.277 231.018C255.824 229.658 257.004 228.063 257.739 226.314C263.63 225.745 270.354 220.264 271.617 212.312C271.887 210.584 271.832 208.933 271.478 207.406C272.498 206.518 273.393 205.436 274.121 204.173C276.952 199.274 276.952 192.155 274.121 187.25C273.393 185.987 272.498 184.897 271.478 184.016C271.832 182.49 271.894 180.838 271.623 179.11C270.361 171.152 263.644 165.67 257.746 165.094C257.642 164.845 257.524 164.588 257.392 164.345C254.894 159.446 248.788 156.026 242.53 156.026C239.844 156.026 237.451 156.692 235.494 157.878C233.537 156.692 231.143 156.026 228.458 156.026C222.2 156.026 216.094 159.446 213.596 164.338C213.471 164.588 213.353 164.838 213.242 165.087C207.344 165.656 200.62 171.145 199.364 179.104C199.094 180.817 199.149 182.469 199.503 183.988C196.54 186.549 194.729 190.712 194.729 195.694C194.729 200.676 196.547 204.846 199.503 207.406C199.149 208.933 199.094 210.577 199.364 212.298C200.468 219.264 205.762 224.337 211.021 225.87C207.372 227.272 204.52 230.526 203.555 234.717C202.695 238.457 203.569 242.134 205.776 244.923C203.569 246.263 202.202 248.143 202.202 250.849C202.202 257.67 211.493 259.071 216.482 259.828C222.907 260.799 231.4 261.333 240.393 261.333H240.4Z" fill="#FBFBFB" stroke="#9C9C9C" stroke-width="0.948718" stroke-miterlimit="10"/>
<g filter="url(#filter0_g_40003030_16189)">
<path d="M242.81 255.926C224.784 255.926 210.171 253.72 210.171 250.999C210.171 248.279 224.784 246.073 242.81 246.073C260.836 246.073 275.449 248.279 275.449 250.999C275.449 253.72 260.836 255.926 242.81 255.926Z" fill="#2C2C2C"/>
<path d="M242.796 200.611V246.885C242.796 249.417 244.85 251.471 247.383 251.471H263.293C271.627 251.471 272.355 238.912 264.043 238.281C263.786 238.26 263.522 238.253 263.252 238.253C259.761 238.253 255.737 239.537 252.178 241.188L247.827 200.618H242.796V200.611Z" fill="#9C9C9C" stroke="#2C2C2C" stroke-width="0.948718" stroke-miterlimit="10"/>
<path d="M245.356 205.045L235.4 248.321C234.296 250.604 231.555 251.554 229.273 250.451L214.958 243.519C207.458 239.884 212.273 228.268 220.03 231.314C220.273 231.412 220.516 231.516 220.752 231.634C223.888 233.153 226.317 235.297 228.801 238.336L240.826 202.852L245.356 205.045Z" fill="#9C9C9C" stroke="#2C2C2C" stroke-width="0.948718" stroke-miterlimit="10"/>
<path d="M231.819 242.416C231.334 241.701 230.286 240.057 228.031 237.42Z" fill="#9C9C9C"/>
<path d="M231.819 242.416C231.334 241.701 230.286 240.057 228.031 237.42" stroke="#2C2C2C" stroke-width="0.948718" stroke-miterlimit="10" stroke-linecap="round"/>
<path d="M229.329 250.153C229.329 250.153 218.477 234.284 214.813 236.768Z" fill="#9C9C9C"/>
<path d="M229.329 250.153C229.329 250.153 218.477 234.284 214.813 236.768" stroke="#2C2C2C" stroke-width="0.948718" stroke-miterlimit="10" stroke-linecap="round"/>
<path d="M221.807 173.682C214.251 163.288 237.904 155.6 237.904 168.45C237.904 155.6 261.558 163.288 254.002 173.682C261.558 163.288 276.171 183.403 263.952 187.379C276.171 183.41 276.171 208.278 263.952 204.309C276.171 208.278 261.558 228.4 254.002 218.006C261.558 228.4 237.904 236.088 237.904 223.238C237.904 236.088 214.251 228.4 221.807 218.006C214.251 228.4 199.638 208.285 211.857 204.309C199.638 208.278 199.638 183.41 211.857 187.379C199.638 183.41 214.251 163.288 221.807 173.682Z" fill="#EEEDEB"/>
<path d="M221.807 173.682C214.251 163.288 237.904 155.6 237.904 168.45C237.904 155.6 261.558 163.288 254.002 173.682C261.558 163.288 276.171 183.403 263.952 187.379C276.171 183.41 276.171 208.278 263.952 204.309C276.171 208.278 261.558 228.4 254.002 218.006C261.558 228.4 237.904 236.088 237.904 223.238C237.904 236.088 214.251 228.4 221.807 218.006C214.251 228.4 199.638 208.285 211.857 204.309C199.638 208.278 199.638 183.41 211.857 187.379C199.638 183.41 214.251 163.288 221.807 173.682Z" fill="#EEEDEB" stroke="#2C2C2C" stroke-width="0.948718" stroke-miterlimit="10"/>
<path d="M235.531 192.611L235.601 192.826C235.642 192.958 235.691 193.083 235.733 193.214C235.802 193.409 235.878 193.603 235.955 193.79C235.976 193.853 236.003 193.908 236.024 193.964C237.079 196.51 238.633 198.155 241.318 197.287C244.26 196.33 244.753 193.235 243.684 189.96C243.435 189.204 243.15 188.489 242.796 187.865C241.61 188.427 240.347 188.961 239.049 189.468C237.842 189.946 236.593 190.397 235.302 190.814C235.233 190.841 235.15 190.869 235.08 190.89C235.185 191.445 235.33 192.021 235.525 192.604L235.531 192.611Z" fill="#FBFBFB" stroke="#2C2C2C" stroke-width="0.948718" stroke-miterlimit="10"/>
<path d="M227.365 195.261C227.399 195.372 227.441 195.483 227.483 195.594C228.544 198.696 230.133 200.923 233.165 199.931C236.107 198.973 236.6 195.879 235.532 192.604C235.337 192.014 235.122 191.466 234.879 190.952C233.589 191.376 232.312 191.743 231.056 192.069C229.689 192.437 228.357 192.742 227.053 192.992C226.983 193.013 226.921 193.034 226.851 193.041C226.928 193.638 227.073 194.262 227.268 194.9C227.302 195.018 227.337 195.143 227.379 195.261H227.365Z" fill="#FBFBFB" stroke="#2C2C2C" stroke-width="0.948718" stroke-miterlimit="10"/>
<path d="M227.365 195.261C227.399 195.372 227.441 195.483 227.483 195.594C228.072 197.232 228.954 198.377 230.584 197.849C232.215 197.322 232.485 195.601 231.896 193.79C231.68 193.124 231.41 192.534 231.056 192.076C229.689 192.444 228.357 192.749 227.052 192.999C226.99 193.561 227.073 194.213 227.261 194.9C227.295 195.018 227.33 195.143 227.372 195.261H227.365Z" fill="#2C2C2C"/>
<path d="M236.919 198.578C236.919 198.578 233.408 200.868 235.372 201.513C237.335 202.165 238.133 201.409 238.55 200.521C238.758 200.077 238.668 198.592 238.272 198.321C237.877 198.051 236.919 198.578 236.919 198.578Z" fill="#FEE888" stroke="#2C2C2C" stroke-width="0.948718" stroke-miterlimit="10"/>
<path d="M235.094 190.89C235.164 190.869 235.247 190.841 235.316 190.813C236.607 190.39 237.856 189.946 239.063 189.467C240.361 188.954 241.624 188.427 242.81 187.865C241.693 185.79 240.007 184.61 237.474 185.429C235.115 186.192 234.602 188.336 235.094 190.897V190.89Z" fill="#EEEDEB" stroke="#2C2C2C" stroke-width="0.948718" stroke-miterlimit="10"/>
<path d="M226.838 193.048C226.907 193.041 226.976 193.027 227.039 193.006C228.343 192.756 229.676 192.444 231.043 192.083C232.298 191.757 233.575 191.383 234.866 190.966C233.742 188.614 232 187.205 229.294 188.087C227.088 188.801 226.498 190.723 226.824 193.055L226.838 193.048Z" fill="#EEEDEB" stroke="#2C2C2C" stroke-width="0.948718" stroke-miterlimit="10"/>
<path d="M239.07 190.189C237.745 190.557 236.295 191.681 236.246 193.36C236.246 193.443 236.329 193.499 236.406 193.471C236.954 193.277 237.988 192.777 240.277 193.887" stroke="#2C2C2C" stroke-width="0.948718" stroke-miterlimit="10" stroke-linecap="round"/>
<path d="M244.399 202.852C244.475 202.783 244.544 202.72 244.614 202.644Z" fill="#EEEDEB"/>
<path d="M244.399 202.852C244.475 202.783 244.544 202.72 244.614 202.644" stroke="#2C2C2C" stroke-width="0.948718" stroke-miterlimit="10" stroke-linecap="round"/>
<path d="M235.122 205.87C235.053 205.864 234.99 205.857 234.935 205.843L234.831 205.829" fill="#EEEDEB"/>
<path d="M235.122 205.87C235.053 205.864 234.99 205.857 234.935 205.843L234.831 205.829" stroke="#2C2C2C" stroke-width="0.948718" stroke-miterlimit="10" stroke-linecap="round"/>
<path d="M235.185 206.12C235.823 208.077 238.425 208.993 240.999 208.16C243.573 207.327 245.141 205.059 244.503 203.095C244.475 203.019 244.441 202.935 244.406 202.859C241.936 205.239 238.515 206.349 235.129 205.87C235.143 205.954 235.164 206.044 235.191 206.12H235.185Z" fill="#EEEDEB" stroke="#2C2C2C" stroke-width="0.948718" stroke-miterlimit="10" stroke-linecap="round"/>
</g>
</g>
<defs>
<filter id="filter0_g_40003030_16189" x="201.839" y="160.864" width="73.9899" height="95.4412" filterUnits="userSpaceOnUse" color-interpolation-filters="sRGB">
<feFlood flood-opacity="0" result="BackgroundImageFix"/>
<feBlend mode="normal" in="SourceGraphic" in2="BackgroundImageFix" result="shape"/>
<feTurbulence type="fractalNoise" baseFrequency="0.70270270109176636 0.70270270109176636" numOctaves="3" seed="7043" />
<feDisplacementMap in="shape" scale="0.75897437334060669" xChannelSelector="R" yChannelSelector="G" result="displacedImage" width="100%" height="100%" />
<feMerge result="effect1_texture_40003030_16189">
<feMergeNode in="displacedImage"/>
</feMerge>
</filter>
<clipPath id="clip0_40003030_16189">
<rect width="86.3333" height="131.872" fill="white" transform="matrix(-1 0 0 1 246.333 138)"/>
</clipPath>
</defs>
</svg>