<svg width="91" height="119" viewBox="0 0 91 119" fill="none" xmlns="http://www.w3.org/2000/svg">
<g clip-path="url(#clip0_40003029_16147)">
<path d="M88.5734 88.6577C91.7207 88.6577 94.6908 88.4707 96.942 88.1308C98.6881 87.866 101.94 87.3755 101.94 84.9882C101.94 83.706 101 82.9944 100.002 82.5816C99.9728 81.9137 99.7956 81.2556 99.4701 80.6703C98.8023 79.4658 97.5953 78.7129 96.1552 78.6012C96.0289 78.5915 95.8905 78.5867 95.7278 78.5867C95.0429 78.5867 94.3047 78.6887 93.5203 78.8902L93.4304 78.0475C93.972 77.5715 94.3848 77.013 94.6422 76.401C96.704 76.2018 99.0573 74.2833 99.4993 71.5002C99.594 70.8955 99.5746 70.3175 99.4507 69.7833C99.8077 69.4724 100.121 69.0936 100.376 68.6516C101.367 66.937 101.367 64.4454 100.376 62.7284C100.121 62.2864 99.8077 61.9051 99.4507 61.5967C99.5746 61.0624 99.5964 60.4844 99.5017 59.8797C99.0597 57.0942 96.7089 55.1757 94.6447 54.9741C94.6082 54.8867 94.5669 54.7968 94.5208 54.7118C93.6465 52.9973 91.5094 51.8 89.3189 51.8C88.3791 51.8 87.5412 52.0332 86.8564 52.4485C86.1715 52.0332 85.3337 51.8 84.3939 51.8C82.2033 51.8 80.0662 52.9973 79.192 54.7094C79.1483 54.7968 79.107 54.8843 79.0681 54.9717C77.0039 55.1708 74.6506 57.0918 74.2111 59.8773C74.1164 60.4772 74.1358 61.0551 74.2596 61.587C73.2227 62.4831 72.5888 63.9402 72.5888 65.6839C72.5888 67.4276 73.2251 68.8871 74.2596 69.7833C74.1358 70.3175 74.1164 70.8931 74.2111 71.4954C74.5972 73.9336 76.4502 75.7089 78.291 76.2456C77.0136 76.7361 76.0155 77.8751 75.6779 79.3419C75.3768 80.6509 75.6828 81.938 76.455 82.9143C75.6828 83.383 75.2043 84.0411 75.2043 84.9882C75.2043 87.3755 78.4561 87.866 80.2022 88.1308C82.451 88.4707 85.4236 88.6577 88.5709 88.6577H88.5734Z" fill="#FBFBFB" stroke="#9C9C9C" stroke-width="0.332051" stroke-miterlimit="10"/>
<g filter="url(#filter0_g_40003029_16147)">
<path d="M89.4161 86.7647C83.1069 86.7647 77.9923 85.9927 77.9923 85.0404C77.9923 84.0881 83.1069 83.3162 89.4161 83.3162C95.7252 83.3162 100.84 84.0881 100.84 85.0404C100.84 85.9927 95.7252 86.7647 89.4161 86.7647Z" fill="#2C2C2C"/>
<path d="M89.4122 67.4045V83.6004C89.4122 84.4868 90.131 85.2056 91.0174 85.2056H96.586C99.5027 85.2056 99.7577 80.81 96.8483 80.589C96.7585 80.5817 96.6662 80.5793 96.5715 80.5793C95.3499 80.5793 93.9414 81.0286 92.6956 81.6065L91.1729 67.407H89.4122V67.4045Z" fill="#9C9C9C" stroke="#2C2C2C" stroke-width="0.332051" stroke-miterlimit="10"/>
<path d="M90.3091 68.9559L86.8242 84.1026C86.438 84.9016 85.4787 85.2343 84.6798 84.8481L79.6697 82.422C77.0445 81.1495 78.7299 77.0842 81.445 78.1503C81.53 78.1843 81.615 78.2207 81.6975 78.262C82.7952 78.7938 83.6452 79.5442 84.5146 80.6079L88.7233 68.1885L90.3091 68.9559Z" fill="#9C9C9C" stroke="#2C2C2C" stroke-width="0.332051" stroke-miterlimit="10"/>
<path d="M85.5713 82.0359C85.4013 81.7858 85.0346 81.2102 84.2453 80.2874Z" fill="#9C9C9C"/>
<path d="M85.5713 82.0359C85.4013 81.7858 85.0346 81.2102 84.2453 80.2874" stroke="#2C2C2C" stroke-width="0.332051" stroke-miterlimit="10" stroke-linecap="round"/>
<path d="M84.6982 84.7438C84.6982 84.7438 80.9 79.1898 79.6178 80.0592Z" fill="#9C9C9C"/>
<path d="M84.6982 84.7438C84.6982 84.7438 80.9 79.1898 79.6178 80.0592" stroke="#2C2C2C" stroke-width="0.332051" stroke-miterlimit="10" stroke-linecap="round"/>
<path d="M82.0646 57.979C79.42 54.3411 87.6988 51.6503 87.6988 56.1479C87.6988 51.6503 95.9776 54.3411 93.333 57.979C95.9776 54.3411 101.092 61.3814 96.8155 62.7729C101.092 61.3838 101.092 70.0876 96.8155 68.6985C101.092 70.0876 95.9776 77.1303 93.333 73.4924C95.9776 77.1303 87.6988 79.8211 87.6988 75.3235C87.6988 79.8211 79.42 77.1303 82.0646 73.4924C79.42 77.1303 74.3055 70.09 78.5821 68.6985C74.3055 70.0876 74.3055 61.3838 78.5821 62.7729C74.3055 61.3838 79.42 54.3411 82.0646 57.979Z" fill="#EEEDEB"/>
<path d="M82.0646 57.979C79.42 54.3411 87.6988 51.6503 87.6988 56.1479C87.6988 51.6503 95.9776 54.3411 93.333 57.979C95.9776 54.3411 101.092 61.3814 96.8155 62.7729C101.092 61.3838 101.092 70.0876 96.8155 68.6985C101.092 70.0876 95.9776 77.1303 93.333 73.4924C95.9776 77.1303 87.6988 79.8211 87.6988 75.3235C87.6988 79.8211 79.42 77.1303 82.0646 73.4924C79.42 77.1303 74.3055 70.09 78.5821 68.6985C74.3055 70.0876 74.3055 61.3838 78.5821 62.7729C74.3055 61.3838 79.42 54.3411 82.0646 57.979Z" fill="#EEEDEB" stroke="#2C2C2C" stroke-width="0.332051" stroke-miterlimit="10"/>
<path d="M86.8678 64.6045L86.8921 64.6798C86.9066 64.7259 86.9236 64.7696 86.9382 64.8158C86.9625 64.8837 86.9892 64.9517 87.0159 65.0173C87.0232 65.0392 87.0329 65.0586 87.0402 65.078C87.4093 65.9693 87.9533 66.5449 88.8932 66.2413C89.9229 65.9062 90.0953 64.823 89.7213 63.6768C89.6339 63.4121 89.5343 63.1619 89.4104 62.9434C88.9952 63.1401 88.5532 63.3271 88.099 63.5043C87.6765 63.6719 87.2393 63.8298 86.7876 63.9755C86.7633 63.9852 86.7342 63.9949 86.7099 64.0022C86.7463 64.1965 86.7973 64.398 86.8653 64.602L86.8678 64.6045Z" fill="#FBFBFB" stroke="#2C2C2C" stroke-width="0.332051" stroke-miterlimit="10"/>
<path d="M84.0104 65.5318C84.0225 65.5707 84.0371 65.6095 84.0517 65.6484C84.4232 66.7339 84.9794 67.5135 86.0406 67.1662C87.0703 66.8311 87.2427 65.7479 86.8688 64.6017C86.8008 64.3952 86.7255 64.2034 86.6405 64.0237C86.1888 64.1718 85.7419 64.3005 85.3024 64.4147C84.8239 64.5434 84.3577 64.6502 83.9011 64.7377C83.8768 64.745 83.855 64.7522 83.8307 64.7547C83.8574 64.9635 83.9084 65.1821 83.9764 65.4055C83.9885 65.4468 84.0007 65.4905 84.0152 65.5318H84.0104Z" fill="#FBFBFB" stroke="#2C2C2C" stroke-width="0.332051" stroke-miterlimit="10"/>
<path d="M84.0105 65.5319C84.0226 65.5708 84.0372 65.6096 84.0518 65.6485C84.2582 66.2216 84.5666 66.6223 85.1373 66.4378C85.708 66.2532 85.8027 65.6509 85.5963 65.0171C85.521 64.7839 85.4263 64.5775 85.3025 64.4172C84.8241 64.5459 84.3578 64.6528 83.9012 64.7402C83.8794 64.9369 83.9085 65.1652 83.9741 65.4056C83.9862 65.4469 83.9984 65.4906 84.0129 65.5319H84.0105Z" fill="#2C2C2C"/>
<path d="M87.3542 66.6926C87.3542 66.6926 86.1253 67.494 86.8126 67.7198C87.4999 67.9481 87.7792 67.6834 87.9249 67.3726C87.9977 67.2171 87.9662 66.6974 87.8277 66.6027C87.6893 66.508 87.3542 66.6926 87.3542 66.6926Z" fill="#FEE888" stroke="#2C2C2C" stroke-width="0.332051" stroke-miterlimit="10"/>
<path d="M86.7155 64.002C86.7398 63.9947 86.7689 63.985 86.7932 63.9753C87.2449 63.8271 87.6821 63.6717 88.1046 63.5041C88.5587 63.3244 89.0007 63.1398 89.416 62.9431C89.025 62.217 88.4349 61.8042 87.5485 62.0907C86.7228 62.3579 86.5431 63.1083 86.7155 64.0044V64.002Z" fill="#EEEDEB" stroke="#2C2C2C" stroke-width="0.332051" stroke-miterlimit="10"/>
<path d="M83.8255 64.7571C83.8497 64.7546 83.874 64.7498 83.8959 64.7425C84.3524 64.6551 84.8187 64.5458 85.2971 64.4195C85.7367 64.3054 86.1835 64.1742 86.6353 64.0285C86.2418 63.2052 85.6323 62.7123 84.6852 63.0207C83.9129 63.2708 83.7065 63.9435 83.8206 64.7595L83.8255 64.7571Z" fill="#EEEDEB" stroke="#2C2C2C" stroke-width="0.332051" stroke-miterlimit="10"/>
<path d="M88.1077 63.7566C87.6439 63.8853 87.1363 64.2787 87.1193 64.8664C87.1193 64.8956 87.1484 64.915 87.1752 64.9053C87.367 64.8373 87.7289 64.6624 88.5303 65.051" stroke="#2C2C2C" stroke-width="0.332051" stroke-miterlimit="10" stroke-linecap="round"/>
<path d="M89.9721 68.1886C89.9988 68.1643 90.0231 68.1424 90.0474 68.1157Z" fill="#EEEDEB"/>
<path d="M89.9721 68.1886C89.9988 68.1643 90.0231 68.1424 90.0474 68.1157" stroke="#2C2C2C" stroke-width="0.332051" stroke-miterlimit="10" stroke-linecap="round"/>
<path d="M86.7246 69.2448C86.7003 69.2424 86.6785 69.2399 86.659 69.2351L86.6226 69.2302" fill="#EEEDEB"/>
<path d="M86.7246 69.2448C86.7003 69.2424 86.6785 69.2399 86.659 69.2351L86.6226 69.2302" stroke="#2C2C2C" stroke-width="0.332051" stroke-miterlimit="10" stroke-linecap="round"/>
<path d="M86.7468 69.3321C86.9702 70.0169 87.8809 70.3375 88.7819 70.0461C89.6829 69.7546 90.2317 68.9605 90.0083 68.2732C89.9986 68.2465 89.9864 68.2174 89.9743 68.1907C89.1097 69.0237 87.9125 69.4122 86.7273 69.2447C86.7322 69.2738 86.7395 69.3054 86.7492 69.3321H86.7468Z" fill="#EEEDEB" stroke="#2C2C2C" stroke-width="0.332051" stroke-miterlimit="10" stroke-linecap="round"/>
</g>
</g>
<defs>
<filter id="filter0_g_40003029_16147" x="75.0757" y="53.4927" width="25.897" height="33.4048" filterUnits="userSpaceOnUse" color-interpolation-filters="sRGB">
<feFlood flood-opacity="0" result="BackgroundImageFix"/>
<feBlend mode="normal" in="SourceGraphic" in2="BackgroundImageFix" result="shape"/>
<feTurbulence type="fractalNoise" baseFrequency="2.0077221393585205 2.0077221393585205" numOctaves="3" seed="7043" />
<feDisplacementMap in="shape" scale="0.26564103364944458" xChannelSelector="R" yChannelSelector="G" result="displacedImage" width="100%" height="100%" />
<feMerge result="effect1_texture_40003029_16147">
<feMergeNode in="displacedImage"/>
</feMerge>
</filter>
<clipPath id="clip0_40003029_16147">
<rect width="30.2167" height="46.1551" fill="white" transform="matrix(-1 0 0 1 90.6504 45.4907)"/>
</clipPath>
</defs>
</svg>