<svg width="130" height="166" viewBox="0 0 130 166" fill="none" xmlns="http://www.w3.org/2000/svg">
<g filter="url(#filter0_g_40001696_15906)">
<path d="M65.7103 165.062C97.867 165.062 123.935 161.088 123.935 156.186C123.935 151.284 97.867 147.31 65.7103 147.31C33.5535 147.31 7.48535 151.284 7.48535 156.186C7.48535 161.088 33.5535 165.062 65.7103 165.062Z" fill="#2C2C2C"/>
<path d="M61.8729 65.4097V148.785C61.8729 153.348 58.2091 157.049 53.6912 157.049H25.309C10.4434 157.049 9.14371 134.42 23.9722 133.283C24.4302 133.245 24.9006 133.233 25.3833 133.233C31.6093 133.233 38.7884 135.545 45.1382 138.521L52.899 65.4222H61.8729V65.4097Z" fill="#CBCBC5" stroke="#2C2C2C" stroke-miterlimit="10"/>
<path d="M51.5002 142.059C50.1634 141.284 47.2051 139.433 41.5361 136.933L51.5002 142.059Z" fill="#CBCBC5"/>
<path d="M51.5002 142.059C50.1634 141.284 47.2051 139.433 41.5361 136.933" stroke="#2C2C2C" stroke-miterlimit="10" stroke-linecap="round"/>
<path d="M65.7096 70.3229L74.5102 151.485C75.6737 155.898 80.1421 158.524 84.5114 157.349L111.941 149.998C126.311 146.147 121.818 123.944 107.2 126.669C106.742 126.757 106.284 126.857 105.826 126.982C99.8103 128.594 94.8345 131.557 89.4502 136.083L74.3741 67.9976L65.6973 70.3229H65.7096Z" fill="#CBCBC5" stroke="#2C2C2C" stroke-miterlimit="10"/>
<path d="M82.7915 142.259C83.8807 141.159 86.282 138.608 91.1217 134.72L82.7915 142.259Z" fill="#CBCBC5"/>
<path d="M82.7915 142.259C83.8807 141.159 86.282 138.608 91.1217 134.72" stroke="#2C2C2C" stroke-miterlimit="10" stroke-linecap="round"/>
<path d="M51.5019 142.059L41.6987 137.008C47.2687 139.471 50.1775 141.296 51.5019 142.059Z" fill="#FBFBFB" stroke="#2C2C2C" stroke-miterlimit="10"/>
<path d="M51.5019 142.059L41.6987 137.008C47.2687 139.471 50.1775 141.296 51.5019 142.059Z" fill="#FBFBFB" stroke="#2C2C2C" stroke-miterlimit="10" stroke-linecap="round"/>
<path d="M90.9984 134.833L82.792 142.259C83.7451 141.296 85.7131 139.221 89.4636 136.083C89.934 135.696 90.4538 135.271 90.9984 134.833Z" fill="#FBFBFB" stroke="#2C2C2C" stroke-miterlimit="10"/>
<path d="M90.9984 134.833L82.792 142.259C83.7451 141.296 85.7131 139.221 89.4636 136.083C89.934 135.696 90.4538 135.271 90.9984 134.833Z" fill="#FBFBFB" stroke="#2C2C2C" stroke-miterlimit="10" stroke-linecap="round"/>
<path d="M84.5249 156.799C84.5249 156.799 108.921 132.457 114.491 138.108" stroke="#2C2C2C" stroke-miterlimit="10" stroke-linecap="round"/>
<path d="M128.144 59.3464C128.144 62.847 127.921 66.2725 127.488 69.598C126.089 80.4496 119.975 90.0886 110.778 95.877C98.908 103.366 83.3739 108.066 66.2678 108.491C65.4014 108.516 64.535 108.529 63.6561 108.529H62.9011C46.9091 108.404 32.1795 104.566 20.4454 98.1649C10.4195 92.7015 3.63646 82.7625 1.90358 71.3983C1.30944 67.5102 1 63.472 1 59.3464C1 48.9323 2.98044 39.1558 6.45858 30.692C13.7367 12.9643 27.5503 1 43.3938 1C48.9019 1 54.1624 2.43772 59.0021 5.07562C62.505 6.97591 66.6516 6.97591 70.1421 5.07562C74.9694 2.45022 80.2299 1 85.7257 1C102.522 1 117.041 14.4396 123.899 33.9175C126.609 41.6062 128.132 50.2325 128.132 59.3464H128.144Z" fill="#EEEDEB" stroke="#2C2C2C" stroke-miterlimit="10"/>
<path d="M65.5868 52.4826C65.5868 58.6835 64.2129 63.7093 58.3211 63.7093C52.8006 63.7093 50.2632 58.6835 50.2632 52.4826C50.2632 46.2816 52.1322 41.2559 58.3211 41.2559C63.7054 41.2559 65.5868 46.2816 65.5868 52.4826Z" fill="#FBFBFB" stroke="#2C2C2C" stroke-miterlimit="10"/>
<path d="M65.5873 53.1078C65.5873 56.5458 64.8323 59.3337 61.5646 59.3337C58.5073 59.3337 57.0962 56.5458 57.0962 53.1078C57.0962 49.6698 58.1359 46.8818 61.5646 46.8818C64.5476 46.8818 65.5873 49.6698 65.5873 53.1078Z" fill="#2C2C2C"/>
<path d="M80.8984 52.4826C80.8984 58.6835 79.5244 63.7093 73.6326 63.7093C68.1121 63.7093 65.5747 58.6835 65.5747 52.4826C65.5747 46.2816 67.4437 41.2559 73.6326 41.2559C79.0169 41.2559 80.8984 46.2816 80.8984 52.4826Z" fill="#FBFBFB" stroke="#2C2C2C" stroke-miterlimit="10"/>
<path d="M66.6139 64.0843C66.6139 64.0843 60.3632 64.4093 61.1553 67.9224C61.9475 71.4354 70.6738 70.7103 71.9116 69.2101C73.1494 67.7098 72.2829 64.3718 66.6139 64.0718V64.0843Z" fill="#FBD7D5" stroke="#2C2C2C"/>
<path d="M48.2578 65.9473C48.2578 65.9473 53.3946 80.8996 69.7951 73.3734" stroke="#2C2C2C" stroke-miterlimit="10" stroke-linecap="round"/>
<path d="M80.8979 52.4823C80.8979 55.9203 80.1428 58.7083 76.8751 58.7083C73.8178 58.7083 72.4067 55.9203 72.4067 52.4823C72.4067 49.0443 73.4465 46.2563 76.8751 46.2563C79.8581 46.2563 80.8979 49.0443 80.8979 52.4823Z" fill="#2C2C2C"/>
<path d="M37.6133 62.4966C38.044 62.4966 38.3931 62.144 38.3931 61.709C38.3931 61.274 38.044 60.9214 37.6133 60.9214C37.1826 60.9214 36.8335 61.274 36.8335 61.709C36.8335 62.144 37.1826 62.4966 37.6133 62.4966Z" fill="#2C2C2C"/>
<path d="M42.4776 62.4966C42.9082 62.4966 43.2574 62.144 43.2574 61.709C43.2574 61.274 42.9082 60.9214 42.4776 60.9214C42.0469 60.9214 41.6978 61.274 41.6978 61.709C41.6978 62.144 42.0469 62.4966 42.4776 62.4966Z" fill="#2C2C2C"/>
<path d="M40.0513 64.9346C40.482 64.9346 40.8311 64.582 40.8311 64.147C40.8311 63.712 40.482 63.3594 40.0513 63.3594C39.6206 63.3594 39.2715 63.712 39.2715 64.147C39.2715 64.582 39.6206 64.9346 40.0513 64.9346Z" fill="#2C2C2C"/>
<path d="M83.6089 62.4966C84.0396 62.4966 84.3887 62.144 84.3887 61.709C84.3887 61.274 84.0396 60.9214 83.6089 60.9214C83.1782 60.9214 82.8291 61.274 82.8291 61.709C82.8291 62.144 83.1782 62.4966 83.6089 62.4966Z" fill="#2C2C2C"/>
<path d="M88.461 62.4966C88.8916 62.4966 89.2408 62.144 89.2408 61.709C89.2408 61.274 88.8916 60.9214 88.461 60.9214C88.0303 60.9214 87.6812 61.274 87.6812 61.709C87.6812 62.144 88.0303 62.4966 88.461 62.4966Z" fill="#2C2C2C"/>
<path d="M86.0352 64.9346C86.4658 64.9346 86.815 64.582 86.815 64.147C86.815 63.712 86.4658 63.3594 86.0352 63.3594C85.6045 63.3594 85.2554 63.712 85.2554 64.147C85.2554 64.582 85.6045 64.9346 86.0352 64.9346Z" fill="#2C2C2C"/>
</g>
<defs>
<filter id="filter0_g_40001696_15906" x="0.1" y="0.1" width="128.944" height="165.363" filterUnits="userSpaceOnUse" color-interpolation-filters="sRGB">
<feFlood flood-opacity="0" result="BackgroundImageFix"/>
<feBlend mode="normal" in="SourceGraphic" in2="BackgroundImageFix" result="shape"/>
<feTurbulence type="fractalNoise" baseFrequency="0.66666668653488159 0.66666668653488159" numOctaves="3" seed="7043" />
<feDisplacementMap in="shape" scale="0.80000001192092896" xChannelSelector="R" yChannelSelector="G" result="displacedImage" width="100%" height="100%" />
<feMerge result="effect1_texture_40001696_15906">
<feMergeNode in="displacedImage"/>
</feMerge>
</filter>
</defs>
</svg>
