<svg width="151" height="162" viewBox="0 0 151 162" fill="none" xmlns="http://www.w3.org/2000/svg">
<g filter="url(#filter0_g_40000162_3204)">
<g filter="url(#filter1_d_40000162_3204)">
<path d="M60.7724 149.675C49.1358 149.675 38.1373 148.979 29.8074 147.713C22.8884 146.664 11.3058 144.901 11.3058 136.022C11.3058 132.424 13.3186 130.073 15.6998 128.518C15.583 125.733 16.1401 122.939 17.3801 120.462C19.7883 115.661 24.3711 112.659 29.9333 112.234C30.3915 112.198 30.9127 112.18 31.4968 112.18C34.0308 112.18 36.7624 112.56 39.6648 113.31L40.3837 106.529C34.6957 105.118 29.3761 103.075 24.4969 100.435C15.3583 95.4891 8.9425 86.2758 7.34303 75.8147C6.84882 72.614 6.6062 69.3138 6.6062 65.9955C6.6062 57.7768 8.16972 49.6574 11.1171 42.4965C17.7216 26.493 30.5353 16.5563 44.58 16.5563C49.7019 16.5563 54.6621 17.8402 59.3257 20.3718C59.5234 20.4803 59.73 20.5346 59.9457 20.5346C60.1614 20.5346 60.377 20.4803 60.5837 20.3628C65.2563 17.8311 70.2075 16.5563 75.3204 16.5563C80.4333 16.5563 85.5731 17.9035 90.2547 20.4803C92.8336 18.6991 95.9067 17.6865 99.0967 17.6865C99.2854 17.6865 99.4651 17.6865 99.6448 17.6955C102.556 14.3321 106.815 12.3158 111.56 12.3158C116.304 12.3158 120.177 14.1874 123.089 17.3067C123.448 17.2796 123.817 17.2706 124.176 17.2706C129.684 17.2706 134.887 20.2814 137.771 25.1367C139.344 27.7859 140.081 30.7606 139.982 33.7262C143.334 36.6557 145.337 40.9414 145.337 45.7244C145.337 50.2542 143.486 54.3952 140.386 57.3156C140.413 57.6863 140.422 58.048 140.422 58.4187C140.422 67.0534 133.18 74.3409 124.607 74.3409C124.419 74.3409 124.23 74.3409 124.041 74.3319C121.13 77.6953 116.871 79.7116 112.135 79.7116C111.955 79.7116 111.785 79.7116 111.605 79.7116C109.296 87.4873 104.255 94.1781 97.2816 98.5542C92.6719 101.448 87.4152 103.807 81.8171 105.516L82.7785 109.82C84.4948 109.024 86.2381 108.4 88.0532 107.921C88.5204 107.804 89.0596 107.668 89.6616 107.56C90.668 107.379 91.6745 107.288 92.6629 107.288C100.373 107.288 106.717 113.093 107.75 121.095C108.127 123.988 107.768 126.755 106.806 129.214C108.828 130.814 110.221 133.003 110.221 136.031C110.221 144.91 98.6474 146.673 91.7284 147.722C83.3986 148.988 72.4 149.684 60.7634 149.684L60.7724 149.675Z" fill="#FBFBFB" stroke="#9C9C9C" stroke-miterlimit="10"/>
<path d="M120.474 66.0227C118.254 74.4856 106.384 74.6845 103.886 66.3029C96.365 70.7062 87.8375 62.406 91.9619 54.6936C83.5513 52.4603 83.3536 40.5164 91.6834 38.0029C87.3073 30.4351 95.5562 21.8546 103.221 26.0047C105.441 17.5418 117.311 17.3429 119.809 25.7244C127.33 21.3212 135.857 29.6213 131.733 37.3338C140.144 39.5671 140.341 51.511 132.011 54.0245C136.388 61.5923 128.139 70.1727 120.474 66.0227Z" fill="#FBD7D5"/>
<path d="M60.7722 142.442C84.1168 142.442 103.041 139.568 103.041 136.022C103.041 132.477 84.1168 129.603 60.7722 129.603C37.4277 129.603 18.5032 132.477 18.5032 136.022C18.5032 139.568 37.4277 142.442 60.7722 142.442Z" fill="#2C2C2C"/>
<path d="M57.9866 70.3716V130.67C57.9866 133.97 55.3268 136.646 52.047 136.646H31.4426C20.6507 136.646 19.7072 120.281 30.4722 119.458C30.8046 119.431 31.1461 119.422 31.4965 119.422C36.0164 119.422 41.2281 121.095 45.8378 123.247L51.4719 70.3806H57.9866V70.3716Z" fill="#CBCBC5" stroke="#2C2C2C" stroke-miterlimit="10"/>
<path d="M50.4564 125.805C49.486 125.245 47.3384 123.907 43.2229 122.098L50.4564 125.805Z" fill="#CBCBC5"/>
<path d="M50.4564 125.805C49.486 125.245 47.3384 123.907 43.2229 122.098" stroke="#2C2C2C" stroke-miterlimit="10" stroke-linecap="round"/>
<path d="M60.7717 73.9248L67.1606 132.623C68.0052 135.814 71.2491 137.713 74.4211 136.863L94.3335 131.547C104.766 128.762 101.504 112.704 90.892 114.675C90.5595 114.738 90.227 114.811 89.8946 114.901C85.5275 116.068 81.9152 118.21 78.0064 121.483L67.0617 72.2431L60.7627 73.9248H60.7717Z" fill="#CBCBC5" stroke="#2C2C2C" stroke-miterlimit="10"/>
<path d="M73.1726 125.95C73.9634 125.154 75.7066 123.31 79.22 120.498L73.1726 125.95Z" fill="#CBCBC5"/>
<path d="M73.1726 125.95C73.9634 125.154 75.7066 123.31 79.22 120.498" stroke="#2C2C2C" stroke-miterlimit="10" stroke-linecap="round"/>
<path d="M50.4573 125.805L43.3406 122.153C47.3842 123.934 49.4958 125.254 50.4573 125.805Z" fill="#FBFBFB" stroke="#2C2C2C" stroke-miterlimit="10"/>
<path d="M50.4573 125.805L43.3406 122.153C47.3842 123.934 49.4958 125.254 50.4573 125.805Z" fill="#FBFBFB" stroke="#2C2C2C" stroke-miterlimit="10" stroke-linecap="round"/>
<path d="M79.1302 120.579L73.1726 125.95C73.8645 125.254 75.2932 123.753 78.0159 121.484C78.3574 121.203 78.7348 120.896 79.1302 120.579Z" fill="#FBFBFB" stroke="#2C2C2C" stroke-miterlimit="10"/>
<path d="M79.1302 120.579L73.1726 125.95C73.8645 125.254 75.2932 123.753 78.0159 121.484C78.3574 121.203 78.7348 120.896 79.1302 120.579Z" fill="#FBFBFB" stroke="#2C2C2C" stroke-miterlimit="10" stroke-linecap="round"/>
<path d="M74.4309 136.465C74.4309 136.465 92.1419 118.861 96.1855 122.948" stroke="#2C2C2C" stroke-miterlimit="10" stroke-linecap="round"/>
<path d="M106.097 65.9865C106.097 68.5182 105.935 70.9955 105.62 73.4006C104.605 81.2487 100.166 88.2197 93.4897 92.406C84.8723 97.8218 73.5952 101.221 61.1769 101.529C60.5479 101.547 59.9189 101.556 59.2809 101.556H58.7327C47.1231 101.466 36.4301 98.6898 27.9116 94.0606C20.6331 90.1094 15.7089 82.9214 14.4509 74.7026C14.0196 71.8907 13.7949 68.9702 13.7949 65.9865C13.7949 58.4549 15.2326 51.3844 17.7576 45.2633C23.0413 32.4423 33.0694 23.7896 44.5712 23.7896C48.5698 23.7896 52.3888 24.8293 55.9022 26.7371C58.4452 28.1114 61.4554 28.1114 63.9894 26.7371C67.4939 24.8384 71.3128 23.7896 75.3025 23.7896C87.4962 23.7896 98.0365 33.5092 103.015 47.596C104.982 53.1565 106.088 59.3952 106.088 65.9865H106.097Z" fill="#EEEDEB" stroke="#2C2C2C" stroke-miterlimit="10"/>
<path d="M60.6743 60.5344V60.8229C60.6743 61.0033 60.6654 61.1836 60.6654 61.364V61.4451C60.6474 61.6886 60.6384 61.9321 60.6204 62.1665C60.6204 62.2477 60.6115 62.3198 60.6025 62.392C60.324 65.9718 59.0754 68.632 55.4104 68.632C51.404 68.632 49.5625 65.007 49.5625 60.5344V60.5073C50.9459 60.4532 52.7065 60.309 54.557 60.0024C56.4793 59.6868 58.4915 59.1818 60.2881 58.3973H60.2971C60.3869 58.4424 60.4767 58.4784 60.5665 58.5145C60.6384 59.1638 60.6743 59.8401 60.6743 60.5344Z" fill="#FBFBFB" stroke="#2C2C2C" stroke-miterlimit="10"/>
<path d="M71.7951 60.5344C71.7951 60.6877 71.7951 60.841 71.7862 60.9943C71.7233 65.2505 70.6543 68.632 66.5222 68.632C62.39 68.632 60.6743 65.007 60.6743 60.5344C60.6743 59.8671 60.7013 59.2269 60.7731 58.6047C62.3182 59.2179 64.007 59.6507 65.6419 59.9392C67.9954 60.3631 70.2411 60.4983 71.7951 60.5344Z" fill="#FBFBFB" stroke="#2C2C2C" stroke-miterlimit="10"/>
<path d="M60.5668 58.5145C60.477 58.4784 60.3871 58.4424 60.2973 58.3973H60.2883C58.4917 59.1818 56.4796 59.6868 54.5572 60.0024C52.7068 60.309 50.9461 60.4532 49.5627 60.5073C49.5717 56.0438 50.9281 52.4368 55.4106 52.4368C58.7073 52.4368 60.1895 55.0158 60.5668 58.5145Z" stroke="#2C2C2C" stroke-miterlimit="10"/>
<path d="M60.6742 60.8229V60.9853C60.6742 61.1115 60.6742 61.2377 60.6652 61.364V61.4451C60.6473 61.6886 60.6383 61.9321 60.6203 62.1665C60.6203 62.2477 60.6114 62.3198 60.6024 62.392C60.3868 64.1864 59.6592 65.4759 57.7548 65.4759C55.536 65.4759 54.512 63.465 54.512 60.9853C54.512 60.6516 54.5299 60.318 54.5569 60.0024C56.4792 59.6868 58.4914 59.1818 60.288 58.3973H60.2969C60.5485 59.0826 60.6652 59.9212 60.6742 60.8229Z" fill="#2C2C2C"/>
<path d="M71.795 60.5344C71.795 60.6877 71.795 60.841 71.786 60.9943C71.7142 63.2577 71.0854 65.025 68.8666 65.025C66.6478 65.025 65.6238 63.0142 65.6238 60.5344C65.6238 60.336 65.6328 60.1377 65.6417 59.9393C67.9953 60.3631 70.241 60.4983 71.795 60.5344Z" fill="#2C2C2C"/>
<path d="M71.795 60.5344C70.2409 60.4983 67.9952 60.3631 65.6417 59.9393C64.0068 59.6507 62.318 59.2179 60.7729 58.6047C61.1502 55.0609 62.7043 52.4368 66.522 52.4368C70.3397 52.4368 71.6872 55.8003 71.786 60.0475C71.795 60.2098 71.795 60.3721 71.795 60.5344Z" stroke="#2C2C2C" stroke-miterlimit="10"/>
<path d="M61.4291 68.9025C61.4291 68.9025 56.8927 69.137 57.4676 71.6708C58.0425 74.2047 64.3754 73.6817 65.2737 72.5996C66.172 71.5175 65.5432 69.1099 61.4291 68.8935V68.9025Z" fill="#FBD7D5" stroke="#2C2C2C" stroke-miterlimit="10"/>
<path d="M40.3733 67.7573C40.6858 67.7573 40.9392 67.5029 40.9392 67.1892C40.9392 66.8754 40.6858 66.6211 40.3733 66.6211C40.0607 66.6211 39.8074 66.8754 39.8074 67.1892C39.8074 67.5029 40.0607 67.7573 40.3733 67.7573Z" fill="#2C2C2C"/>
<path d="M43.9033 67.7573C44.2159 67.7573 44.4692 67.5029 44.4692 67.1892C44.4692 66.8754 44.2159 66.6211 43.9033 66.6211C43.5908 66.6211 43.3374 66.8754 43.3374 67.1892C43.3374 67.5029 43.5908 67.7573 43.9033 67.7573Z" fill="#2C2C2C"/>
<path d="M42.1431 69.5157C42.4556 69.5157 42.709 69.2614 42.709 68.9476C42.709 68.6339 42.4556 68.3795 42.1431 68.3795C41.8305 68.3795 41.5771 68.6339 41.5771 68.9476C41.5771 69.2614 41.8305 69.5157 42.1431 69.5157Z" fill="#2C2C2C"/>
<path d="M73.7539 67.7573C74.0665 67.7573 74.3198 67.5029 74.3198 67.1892C74.3198 66.8754 74.0665 66.6211 73.7539 66.6211C73.4414 66.6211 73.188 66.8754 73.188 67.1892C73.188 67.5029 73.4414 67.7573 73.7539 67.7573Z" fill="#2C2C2C"/>
<path d="M77.2839 67.7573C77.5965 67.7573 77.8499 67.5029 77.8499 67.1892C77.8499 66.8754 77.5965 66.6211 77.2839 66.6211C76.9714 66.6211 76.718 66.8754 76.718 67.1892C76.718 67.5029 76.9714 67.7573 77.2839 67.7573Z" fill="#2C2C2C"/>
<path d="M75.5237 69.5157C75.8362 69.5157 76.0896 69.2614 76.0896 68.9476C76.0896 68.6339 75.8362 68.3795 75.5237 68.3795C75.2111 68.3795 74.9578 68.6339 74.9578 68.9476C74.9578 69.2614 75.2111 69.5157 75.5237 69.5157Z" fill="#2C2C2C"/>
<path d="M58.088 78.4421C58.6354 78.8305 59.3244 78.9916 59.9661 78.7831C60.3059 78.6789 60.5701 78.4989 60.4569 78.1958C60.1926 77.4852 59.0412 76.7747 58.4467 77.0305C57.8521 77.2863 57.1726 77.6652 57.7389 78.1674C57.8521 78.2716 57.9748 78.3663 58.0975 78.4516L58.088 78.4421Z" fill="#2C2C2C"/>
</g>
<path d="M60.8152 36C64.1089 36 67.3932 36.0947 70.6868 36.2937L72.9802 36.4263C74.5185 36.521 75.7737 37.6768 76.0096 39.2021L76.8307 44.6968C77.1138 46.601 75.7076 48.3442 73.7823 48.4484L69.6393 48.6663C66.6948 48.8179 63.7597 48.9031 60.8152 48.9031C57.8707 48.9031 54.9262 48.8273 51.9912 48.6663L47.8481 48.4484C45.9323 48.3442 44.5167 46.6105 44.7998 44.6968L45.6208 39.2021C45.8473 37.6768 47.112 36.521 48.6503 36.4263L50.9436 36.2937C54.2278 36.0947 57.5215 36 60.8152 36ZM60.8152 35.0526C57.5215 35.0526 54.1807 35.1473 50.887 35.3463L48.5937 35.4789C46.6212 35.5926 44.9791 37.0989 44.6865 39.06L43.8655 44.5547C43.6862 45.7295 44.0165 46.9231 44.762 47.8516C45.5076 48.7705 46.6118 49.3295 47.7915 49.3958L51.9345 49.6137C54.879 49.7747 57.8613 49.8505 60.8152 49.8505C63.7692 49.8505 66.7514 49.7747 69.6959 49.6137L73.839 49.3958C75.0187 49.3295 76.1228 48.7705 76.8684 47.8516C77.614 46.9326 77.9443 45.7295 77.765 44.5547L76.9439 39.06C76.6513 37.0989 75.0092 35.5926 73.0368 35.4789L70.7435 35.3463C67.4498 35.1473 64.1183 35.0526 60.8152 35.0526Z" fill="#2C2C2C"/>
<path d="M72.9898 36.4263C74.5186 36.5116 75.7833 37.6768 76.0098 39.1926L76.8308 44.6874C77.1234 46.5916 75.6983 48.3347 73.7825 48.4295L69.6395 48.6474C63.7599 48.96 57.8709 48.96 51.9819 48.6474L47.8483 48.4295C46.0835 48.3442 44.7622 46.8853 44.7622 45.18C44.7622 45.3505 44.8377 45.4832 44.9132 45.5589C44.9981 45.6632 45.1586 45.7768 45.4134 45.7958L49.9623 46.0137C53.1238 46.1653 56.3326 46.241 59.5036 46.241C62.6746 46.241 65.8833 46.1653 69.0449 46.0137L73.5938 45.7958C73.8486 45.7768 73.9996 45.6632 74.094 45.5589C74.1789 45.4642 74.2733 45.2937 74.2355 45.0758L73.3295 36.9379C73.2729 36.6442 73.0181 36.4168 72.6878 36.3979H72.9898V36.4263Z" fill="#2C2C2C"/>
<path d="M35.8625 50.0779V64.3358" stroke="#2C2C2C" stroke-miterlimit="10" stroke-linecap="round"/>
<path d="M38.8259 49.2632V57.2116" stroke="#2C2C2C" stroke-miterlimit="10" stroke-linecap="round"/>
<path d="M41.7893 50.7126V53.7158" stroke="#2C2C2C" stroke-miterlimit="10" stroke-linecap="round"/>
</g>
<defs>
<filter id="filter0_g_40000162_3204" x="-0.4" y="-0.4" width="151.8" height="162.8" filterUnits="userSpaceOnUse" color-interpolation-filters="sRGB">
<feFlood flood-opacity="0" result="BackgroundImageFix"/>
<feBlend mode="normal" in="SourceGraphic" in2="BackgroundImageFix" result="shape"/>
<feTurbulence type="fractalNoise" baseFrequency="0.66666668653488159 0.66666668653488159" numOctaves="3" seed="7043" />
<feDisplacementMap in="shape" scale="0.80000001192092896" xChannelSelector="R" yChannelSelector="G" result="displacedImage" width="100%" height="100%" />
<feMerge result="effect1_texture_40000162_3204">
<feMergeNode in="displacedImage"/>
</feMerge>
</filter>
<filter id="filter1_d_40000162_3204" x="3.1062" y="10.8158" width="143.731" height="142.368" filterUnits="userSpaceOnUse" color-interpolation-filters="sRGB">
<feFlood flood-opacity="0" result="BackgroundImageFix"/>
<feColorMatrix in="SourceAlpha" type="matrix" values="0 0 0 0 0 0 0 0 0 0 0 0 0 0 0 0 0 0 127 0" result="hardAlpha"/>
<feOffset dx="-1" dy="1"/>
<feGaussianBlur stdDeviation="1"/>
<feComposite in2="hardAlpha" operator="out"/>
<feColorMatrix type="matrix" values="0 0 0 0 0 0 0 0 0 0 0 0 0 0 0 0 0 0 0.25 0"/>
<feBlend mode="normal" in2="BackgroundImageFix" result="effect1_dropShadow_40000162_3204"/>
<feBlend mode="normal" in="SourceGraphic" in2="effect1_dropShadow_40000162_3204" result="shape"/>
</filter>
</defs>
</svg>
