<svg width="151" height="162" viewBox="0 0 151 162" fill="none" xmlns="http://www.w3.org/2000/svg">
<g filter="url(#filter0_g_40000159_4871)">
<g filter="url(#filter1_d_40000159_4871)">
<path d="M60.7724 149.675C49.1358 149.675 38.1373 148.979 29.8074 147.713C22.8884 146.664 11.3058 144.901 11.3058 136.022C11.3058 132.424 13.3186 130.073 15.6998 128.518C15.583 125.733 16.1401 122.939 17.3801 120.462C19.7883 115.661 24.3711 112.659 29.9333 112.234C30.3915 112.198 30.9127 112.18 31.4968 112.18C34.0308 112.18 36.7624 112.56 39.6648 113.31L40.3837 106.529C34.6957 105.118 29.3761 103.075 24.4969 100.435C15.3583 95.4891 8.9425 86.2758 7.34303 75.8147C6.84882 72.614 6.6062 69.3138 6.6062 65.9955C6.6062 57.7768 8.16972 49.6574 11.1171 42.4965C17.7216 26.493 30.5353 16.5563 44.58 16.5563C49.7019 16.5563 54.6621 17.8402 59.3257 20.3718C59.5234 20.4803 59.73 20.5346 59.9457 20.5346C60.1614 20.5346 60.377 20.4803 60.5837 20.3628C65.2563 17.8311 70.2075 16.5563 75.3204 16.5563C80.4333 16.5563 85.5731 17.9035 90.2547 20.4803C92.8336 18.6991 95.9067 17.6865 99.0967 17.6865C99.2854 17.6865 99.4651 17.6865 99.6448 17.6955C102.556 14.3321 106.815 12.3158 111.56 12.3158C116.304 12.3158 120.177 14.1874 123.089 17.3067C123.448 17.2796 123.817 17.2706 124.176 17.2706C129.684 17.2706 134.887 20.2814 137.771 25.1367C139.344 27.7859 140.081 30.7606 139.982 33.7262C143.334 36.6557 145.337 40.9414 145.337 45.7244C145.337 50.2542 143.486 54.3952 140.386 57.3156C140.413 57.6863 140.422 58.048 140.422 58.4187C140.422 67.0534 133.18 74.3409 124.607 74.3409C124.419 74.3409 124.23 74.3409 124.041 74.3319C121.13 77.6953 116.871 79.7116 112.135 79.7116C111.955 79.7116 111.785 79.7116 111.605 79.7116C109.296 87.4873 104.255 94.1781 97.2816 98.5542C92.6719 101.448 87.4152 103.807 81.8171 105.516L82.7785 109.82C84.4948 109.024 86.2381 108.4 88.0532 107.921C88.5204 107.804 89.0596 107.668 89.6616 107.56C90.668 107.379 91.6745 107.288 92.6629 107.288C100.373 107.288 106.717 113.093 107.75 121.095C108.127 123.988 107.768 126.755 106.806 129.214C108.828 130.814 110.221 133.003 110.221 136.031C110.221 144.91 98.6474 146.673 91.7284 147.722C83.3986 148.988 72.4 149.684 60.7634 149.684L60.7724 149.675Z" fill="#FBFBFB" stroke="#9C9C9C" stroke-miterlimit="10"/>
<path d="M120.474 66.0227C118.254 74.4856 106.384 74.6845 103.886 66.3029C96.365 70.7062 87.8375 62.406 91.9619 54.6936C83.5513 52.4603 83.3536 40.5164 91.6834 38.0029C87.3073 30.4351 95.5562 21.8546 103.221 26.0047C105.441 17.5418 117.311 17.3429 119.809 25.7244C127.33 21.3212 135.857 29.6213 131.733 37.3338C140.144 39.5671 140.341 51.511 132.011 54.0245C136.388 61.5923 128.139 70.1727 120.474 66.0227Z" fill="#FBD7D5"/>
<path d="M60.7722 142.442C84.1168 142.442 103.041 139.568 103.041 136.022C103.041 132.477 84.1168 129.603 60.7722 129.603C37.4277 129.603 18.5032 132.477 18.5032 136.022C18.5032 139.568 37.4277 142.442 60.7722 142.442Z" fill="#2C2C2C"/>
<path d="M57.9866 70.3716V130.67C57.9866 133.97 55.3268 136.646 52.047 136.646H31.4426C20.6507 136.646 19.7072 120.281 30.4722 119.458C30.8046 119.431 31.1461 119.422 31.4965 119.422C36.0164 119.422 41.2281 121.095 45.8378 123.247L51.4719 70.3806H57.9866V70.3716Z" fill="#CBCBC5" stroke="#2C2C2C" stroke-miterlimit="10"/>
<path d="M50.4564 125.805C49.486 125.245 47.3384 123.907 43.2229 122.098L50.4564 125.805Z" fill="#CBCBC5"/>
<path d="M50.4564 125.805C49.486 125.245 47.3384 123.907 43.2229 122.098" stroke="#2C2C2C" stroke-miterlimit="10" stroke-linecap="round"/>
<path d="M60.7717 73.9248L67.1606 132.623C68.0052 135.814 71.2491 137.713 74.4211 136.863L94.3335 131.547C104.766 128.762 101.504 112.704 90.892 114.675C90.5595 114.738 90.227 114.811 89.8946 114.901C85.5275 116.068 81.9152 118.21 78.0064 121.483L67.0617 72.2431L60.7627 73.9248H60.7717Z" fill="#CBCBC5" stroke="#2C2C2C" stroke-miterlimit="10"/>
<path d="M73.1726 125.95C73.9634 125.154 75.7066 123.31 79.22 120.498L73.1726 125.95Z" fill="#CBCBC5"/>
<path d="M73.1726 125.95C73.9634 125.154 75.7066 123.31 79.22 120.498" stroke="#2C2C2C" stroke-miterlimit="10" stroke-linecap="round"/>
<path d="M50.4573 125.805L43.3406 122.153C47.3842 123.934 49.4958 125.254 50.4573 125.805Z" fill="#FBFBFB" stroke="#2C2C2C" stroke-miterlimit="10"/>
<path d="M50.4573 125.805L43.3406 122.153C47.3842 123.934 49.4958 125.254 50.4573 125.805Z" fill="#FBFBFB" stroke="#2C2C2C" stroke-miterlimit="10" stroke-linecap="round"/>
<path d="M79.1302 120.579L73.1726 125.95C73.8645 125.254 75.2932 123.753 78.0159 121.484C78.3574 121.203 78.7348 120.896 79.1302 120.579Z" fill="#FBFBFB" stroke="#2C2C2C" stroke-miterlimit="10"/>
<path d="M79.1302 120.579L73.1726 125.95C73.8645 125.254 75.2932 123.753 78.0159 121.484C78.3574 121.203 78.7348 120.896 79.1302 120.579Z" fill="#FBFBFB" stroke="#2C2C2C" stroke-miterlimit="10" stroke-linecap="round"/>
<path d="M74.4309 136.465C74.4309 136.465 92.1419 118.861 96.1855 122.948" stroke="#2C2C2C" stroke-miterlimit="10" stroke-linecap="round"/>
<path d="M106.097 65.9865C106.097 68.5182 105.935 70.9955 105.62 73.4006C104.605 81.2487 100.166 88.2197 93.4897 92.406C84.8723 97.8218 73.5952 101.221 61.1769 101.529C60.5479 101.547 59.9189 101.556 59.2809 101.556H58.7327C47.1231 101.466 36.4301 98.6898 27.9116 94.0606C20.6331 90.1094 15.7089 82.9214 14.4509 74.7026C14.0196 71.8907 13.7949 68.9702 13.7949 65.9865C13.7949 58.4549 15.2326 51.3844 17.7576 45.2633C23.0413 32.4423 33.0694 23.7896 44.5712 23.7896C48.5698 23.7896 52.3888 24.8293 55.9022 26.7371C58.4452 28.1114 61.4554 28.1114 63.9894 26.7371C67.4939 24.8384 71.3128 23.7896 75.3025 23.7896C87.4962 23.7896 98.0365 33.5092 103.015 47.596C104.982 53.1565 106.088 59.3952 106.088 65.9865H106.097Z" fill="#EEEDEB" stroke="#2C2C2C" stroke-miterlimit="10"/>
<path d="M61.4443 63.3799V63.6686C61.4443 63.849 61.4353 64.0293 61.4353 64.2097V64.2909C61.4174 64.5344 61.4084 64.778 61.3904 65.0125C61.3904 65.0936 61.3814 65.1658 61.3724 65.238C61.0939 68.8187 59.845 71.4794 56.1791 71.4794C52.1718 71.4794 50.3298 67.8536 50.3298 63.3799C50.3298 61.2964 50.6263 59.3933 51.3991 57.9592C52.6659 58.9694 54.1844 59.9525 55.9455 60.7102C57.5358 61.3866 59.3149 61.8917 61.2826 62.0541C61.3185 62.0541 61.3635 62.0631 61.3994 62.0631C61.4264 62.487 61.4443 62.929 61.4443 63.3799Z" fill="#FBFBFB" stroke="#2C2C2C" stroke-miterlimit="10"/>
<path d="M72.1725 59.6999C72.0197 59.7901 71.8849 59.8623 71.7412 59.9254H71.7322C69.9082 60.8003 68.1831 61.3776 66.5388 61.7203C64.7508 62.0991 63.0616 62.1983 61.4893 62.0721C61.7498 58.2207 63.2593 55.2804 67.2936 55.2804C70.043 55.2804 71.5345 57.0753 72.1725 59.6999Z" stroke="#2C2C2C" stroke-miterlimit="10"/>
<path d="M72.5681 63.3799C72.5681 63.5332 72.5681 63.6866 72.5591 63.8399C72.4962 68.0971 71.427 71.4794 67.2938 71.4794C63.1607 71.4794 61.4446 67.8536 61.4446 63.3799C61.4446 62.9379 61.4626 62.496 61.4895 62.0721C63.0619 62.1983 64.7511 62.0991 66.5391 61.7203C68.1834 61.3776 69.9085 60.8003 71.7324 59.9254H71.7414C71.8852 59.8623 72.02 59.7901 72.1727 59.7C72.4153 60.665 72.5321 61.7474 72.5591 62.8928C72.5681 63.0552 72.5681 63.2176 72.5681 63.3799Z" fill="#FBFBFB" stroke="#2C2C2C" stroke-miterlimit="10"/>
<path d="M61.3993 62.063C61.3993 62.063 61.3184 62.054 61.2825 62.054C59.3147 61.8917 57.5357 61.3866 55.9454 60.7101C54.1843 59.9525 52.6658 58.9694 51.3989 57.9592C52.2795 56.3176 53.78 55.2804 56.179 55.2804C59.6921 55.2804 61.1477 58.2117 61.3993 62.063Z" stroke="#2C2C2C" stroke-miterlimit="10" stroke-linecap="round"/>
<path d="M61.4445 63.6685V63.8309C61.4445 63.9572 61.4445 64.0834 61.4355 64.2097V64.2909C61.4175 64.5344 61.4086 64.7779 61.3906 65.0124C61.3906 65.0936 61.3816 65.1658 61.3726 65.2379C61.157 67.0328 60.4292 68.3226 58.5244 68.3226C56.3051 68.3226 55.2808 66.3112 55.2808 63.8309C55.2808 62.6133 55.4605 61.5129 55.9457 60.7101C57.536 61.3866 59.315 61.8917 61.2828 62.054C61.3906 62.5501 61.4355 63.0913 61.4445 63.6685Z" fill="#2C2C2C"/>
<path d="M72.5677 63.3799C72.5677 63.5333 72.5677 63.6866 72.5588 63.8399C72.4869 66.1038 71.8579 67.8716 69.6386 67.8716C67.4193 67.8716 66.395 65.8603 66.395 63.3799C66.395 62.7937 66.4399 62.2345 66.5388 61.7204C68.183 61.3776 69.9082 60.8004 71.7321 59.9255H71.7411C72.2623 60.647 72.5048 61.7023 72.5588 62.8929C72.5677 63.0552 72.5677 63.2176 72.5677 63.3799Z" fill="#2C2C2C"/>
<path d="M62.1993 71.741C62.1993 71.741 57.6619 71.9755 58.2369 74.51C58.8119 77.0445 65.1464 76.5213 66.0449 75.439C66.9434 74.3567 66.3145 71.9485 62.1993 71.732V71.741Z" fill="#FBD7D5" stroke="#2C2C2C" stroke-miterlimit="10"/>
<path d="M66.009 84.5216C66.009 84.5216 62.2802 73.7343 50.375 79.164" stroke="#2C2C2C" stroke-miterlimit="10" stroke-linecap="round"/>
<path d="M61.3992 62.063C61.3992 62.063 61.4621 62.0821 61.489 62.0726" stroke="#2C2C2C" stroke-miterlimit="10" stroke-linecap="round"/>
<path d="M77.7972 56.1193C75.8385 57.6345 73.9606 58.8161 72.1726 59.7" stroke="#2C2C2C" stroke-miterlimit="10" stroke-linecap="round"/>
<path d="M51.3994 57.9592C48.3894 55.5781 46.79 53.0526 46.79 53.0526" stroke="#2C2C2C" stroke-miterlimit="10" stroke-linecap="round"/>
<path d="M41.1474 70.6046C41.46 70.6046 41.7134 70.3502 41.7134 70.0364C41.7134 69.7225 41.46 69.4681 41.1474 69.4681C40.8347 69.4681 40.5813 69.7225 40.5813 70.0364C40.5813 70.3502 40.8347 70.6046 41.1474 70.6046Z" fill="#2C2C2C"/>
<path d="M44.6693 70.6046C44.982 70.6046 45.2354 70.3502 45.2354 70.0364C45.2354 69.7225 44.982 69.4681 44.6693 69.4681C44.3567 69.4681 44.1033 69.7225 44.1033 70.0364C44.1033 70.3502 44.3567 70.6046 44.6693 70.6046Z" fill="#2C2C2C"/>
<path d="M42.9083 72.3634C43.221 72.3634 43.4744 72.109 43.4744 71.7952C43.4744 71.4813 43.221 71.2269 42.9083 71.2269C42.5957 71.2269 42.3423 71.4813 42.3423 71.7952C42.3423 72.109 42.5957 72.3634 42.9083 72.3634Z" fill="#2C2C2C"/>
<path d="M74.5267 70.6046C74.8394 70.6046 75.0928 70.3502 75.0928 70.0364C75.0928 69.7225 74.8394 69.4681 74.5267 69.4681C74.2141 69.4681 73.9607 69.7225 73.9607 70.0364C73.9607 70.3502 74.2141 70.6046 74.5267 70.6046Z" fill="#2C2C2C"/>
<path d="M78.0582 70.6046C78.3709 70.6046 78.6243 70.3502 78.6243 70.0364C78.6243 69.7225 78.3709 69.4681 78.0582 69.4681C77.7456 69.4681 77.4922 69.7225 77.4922 70.0364C77.4922 70.3502 77.7456 70.6046 78.0582 70.6046Z" fill="#2C2C2C"/>
<path d="M76.2973 72.3634C76.6099 72.3634 76.8633 72.109 76.8633 71.7952C76.8633 71.4813 76.6099 71.2269 76.2973 71.2269C75.9846 71.2269 75.7312 71.4813 75.7312 71.7952C75.7312 72.109 75.9846 72.3634 76.2973 72.3634Z" fill="#2C2C2C"/>
</g>
</g>
<defs>
<filter id="filter0_g_40000159_4871" x="-0.4" y="-0.4" width="151.8" height="162.8" filterUnits="userSpaceOnUse" color-interpolation-filters="sRGB">
<feFlood flood-opacity="0" result="BackgroundImageFix"/>
<feBlend mode="normal" in="SourceGraphic" in2="BackgroundImageFix" result="shape"/>
<feTurbulence type="fractalNoise" baseFrequency="0.66666668653488159 0.66666668653488159" numOctaves="3" seed="7043" />
<feDisplacementMap in="shape" scale="0.80000001192092896" xChannelSelector="R" yChannelSelector="G" result="displacedImage" width="100%" height="100%" />
<feMerge result="effect1_texture_40000159_4871">
<feMergeNode in="displacedImage"/>
</feMerge>
</filter>
<filter id="filter1_d_40000159_4871" x="3.1062" y="10.8158" width="143.731" height="142.368" filterUnits="userSpaceOnUse" color-interpolation-filters="sRGB">
<feFlood flood-opacity="0" result="BackgroundImageFix"/>
<feColorMatrix in="SourceAlpha" type="matrix" values="0 0 0 0 0 0 0 0 0 0 0 0 0 0 0 0 0 0 127 0" result="hardAlpha"/>
<feOffset dx="-1" dy="1"/>
<feGaussianBlur stdDeviation="1"/>
<feComposite in2="hardAlpha" operator="out"/>
<feColorMatrix type="matrix" values="0 0 0 0 0 0 0 0 0 0 0 0 0 0 0 0 0 0 0.25 0"/>
<feBlend mode="normal" in2="BackgroundImageFix" result="effect1_dropShadow_40000159_4871"/>
<feBlend mode="normal" in="SourceGraphic" in2="effect1_dropShadow_40000159_4871" result="shape"/>
</filter>
</defs>
</svg>
