<svg width="151" height="162" viewBox="0 0 151 162" fill="none" xmlns="http://www.w3.org/2000/svg">
<g filter="url(#filter0_g_40000246_3858)">
<g filter="url(#filter1_d_40000246_3858)">
<path d="M60.7724 149.675C49.1358 149.675 38.1373 148.979 29.8074 147.713C22.8884 146.664 11.3058 144.901 11.3058 136.022C11.3058 132.424 13.3186 130.073 15.6998 128.518C15.583 125.733 16.1401 122.939 17.3801 120.462C19.7883 115.661 24.3711 112.659 29.9333 112.234C30.3915 112.198 30.9127 112.18 31.4968 112.18C34.0308 112.18 36.7624 112.56 39.6648 113.31L40.3837 106.529C34.6957 105.118 29.3761 103.075 24.4969 100.435C15.3583 95.4891 8.9425 86.2758 7.34303 75.8147C6.84882 72.614 6.6062 69.3138 6.6062 65.9955C6.6062 57.7768 8.16972 49.6574 11.1171 42.4965C17.7216 26.493 30.5353 16.5563 44.58 16.5563C49.7019 16.5563 54.6621 17.8402 59.3257 20.3718C59.5234 20.4803 59.73 20.5346 59.9457 20.5346C60.1614 20.5346 60.377 20.4803 60.5837 20.3628C65.2563 17.8311 70.2075 16.5563 75.3204 16.5563C80.4333 16.5563 85.5731 17.9035 90.2547 20.4803C92.8336 18.6991 95.9067 17.6865 99.0967 17.6865C99.2854 17.6865 99.4651 17.6865 99.6448 17.6955C102.556 14.3321 106.815 12.3158 111.56 12.3158C116.304 12.3158 120.177 14.1874 123.089 17.3067C123.448 17.2796 123.817 17.2706 124.176 17.2706C129.684 17.2706 134.887 20.2814 137.771 25.1367C139.344 27.7859 140.081 30.7606 139.982 33.7262C143.334 36.6557 145.337 40.9414 145.337 45.7244C145.337 50.2542 143.486 54.3952 140.386 57.3156C140.413 57.6863 140.422 58.048 140.422 58.4187C140.422 67.0534 133.18 74.3409 124.607 74.3409C124.419 74.3409 124.23 74.3409 124.041 74.3319C121.13 77.6953 116.871 79.7116 112.135 79.7116C111.955 79.7116 111.785 79.7116 111.605 79.7116C109.296 87.4873 104.255 94.1781 97.2816 98.5542C92.6719 101.448 87.4152 103.807 81.8171 105.516L82.7785 109.82C84.4948 109.024 86.2381 108.4 88.0532 107.921C88.5204 107.804 89.0596 107.668 89.6616 107.56C90.668 107.379 91.6745 107.288 92.6629 107.288C100.373 107.288 106.717 113.093 107.75 121.095C108.127 123.988 107.768 126.755 106.806 129.214C108.828 130.814 110.221 133.003 110.221 136.031C110.221 144.91 98.6474 146.673 91.7284 147.722C83.3986 148.988 72.4 149.684 60.7634 149.684L60.7724 149.675Z" fill="#FBFBFB" stroke="#9C9C9C" stroke-miterlimit="10"/>
<path d="M120.474 66.0227C118.254 74.4856 106.384 74.6845 103.886 66.3029C96.365 70.7062 87.8375 62.406 91.9619 54.6936C83.5513 52.4603 83.3536 40.5164 91.6834 38.0029C87.3073 30.4351 95.5562 21.8546 103.221 26.0047C105.441 17.5418 117.311 17.3429 119.809 25.7244C127.33 21.3212 135.857 29.6213 131.733 37.3338C140.144 39.5671 140.341 51.511 132.011 54.0245C136.388 61.5923 128.139 70.1727 120.474 66.0227Z" fill="#FBD7D5"/>
<path d="M60.7722 142.442C84.1168 142.442 103.041 139.568 103.041 136.022C103.041 132.477 84.1168 129.603 60.7722 129.603C37.4277 129.603 18.5032 132.477 18.5032 136.022C18.5032 139.568 37.4277 142.442 60.7722 142.442Z" fill="#2C2C2C"/>
<path d="M57.9866 70.3716V130.67C57.9866 133.97 55.3268 136.646 52.047 136.646H31.4426C20.6507 136.646 19.7072 120.281 30.4722 119.458C30.8046 119.431 31.1461 119.422 31.4965 119.422C36.0164 119.422 41.2281 121.095 45.8378 123.247L51.4719 70.3806H57.9866V70.3716Z" fill="#CBCBC5" stroke="#2C2C2C" stroke-miterlimit="10"/>
<path d="M50.4564 125.805C49.486 125.245 47.3384 123.907 43.2229 122.098L50.4564 125.805Z" fill="#CBCBC5"/>
<path d="M50.4564 125.805C49.486 125.245 47.3384 123.907 43.2229 122.098" stroke="#2C2C2C" stroke-miterlimit="10" stroke-linecap="round"/>
<path d="M60.7717 73.9248L67.1606 132.623C68.0052 135.814 71.2491 137.713 74.4211 136.863L94.3335 131.547C104.766 128.762 101.504 112.704 90.892 114.675C90.5595 114.738 90.227 114.811 89.8946 114.901C85.5275 116.068 81.9152 118.21 78.0064 121.483L67.0617 72.2431L60.7627 73.9248H60.7717Z" fill="#CBCBC5" stroke="#2C2C2C" stroke-miterlimit="10"/>
<path d="M73.1726 125.95C73.9634 125.154 75.7066 123.31 79.22 120.498L73.1726 125.95Z" fill="#CBCBC5"/>
<path d="M73.1726 125.95C73.9634 125.154 75.7066 123.31 79.22 120.498" stroke="#2C2C2C" stroke-miterlimit="10" stroke-linecap="round"/>
<path d="M50.4573 125.805L43.3406 122.153C47.3842 123.934 49.4958 125.254 50.4573 125.805Z" fill="#FBFBFB" stroke="#2C2C2C" stroke-miterlimit="10"/>
<path d="M50.4573 125.805L43.3406 122.153C47.3842 123.934 49.4958 125.254 50.4573 125.805Z" fill="#FBFBFB" stroke="#2C2C2C" stroke-miterlimit="10" stroke-linecap="round"/>
<path d="M79.1302 120.579L73.1726 125.95C73.8645 125.254 75.2932 123.753 78.0159 121.484C78.3574 121.203 78.7348 120.896 79.1302 120.579Z" fill="#FBFBFB" stroke="#2C2C2C" stroke-miterlimit="10"/>
<path d="M79.1302 120.579L73.1726 125.95C73.8645 125.254 75.2932 123.753 78.0159 121.484C78.3574 121.203 78.7348 120.896 79.1302 120.579Z" fill="#FBFBFB" stroke="#2C2C2C" stroke-miterlimit="10" stroke-linecap="round"/>
<path d="M74.4309 136.465C74.4309 136.465 92.1419 118.861 96.1855 122.948" stroke="#2C2C2C" stroke-miterlimit="10" stroke-linecap="round"/>
<path d="M106.097 65.9865C106.097 68.5182 105.935 70.9955 105.62 73.4006C104.605 81.2487 100.166 88.2197 93.4897 92.406C84.8723 97.8218 73.5952 101.221 61.1769 101.529C60.5479 101.547 59.9189 101.556 59.2809 101.556H58.7327C47.1231 101.466 36.4301 98.6898 27.9116 94.0606C20.6331 90.1094 15.7089 82.9214 14.4509 74.7026C14.0196 71.8907 13.7949 68.9702 13.7949 65.9865C13.7949 58.4549 15.2326 51.3844 17.7576 45.2633C23.0413 32.4423 33.0694 23.7896 44.5712 23.7896C48.5698 23.7896 52.3888 24.8293 55.9022 26.7371C58.4452 28.1114 61.4554 28.1114 63.9894 26.7371C67.4939 24.8384 71.3128 23.7896 75.3025 23.7896C87.4962 23.7896 98.0365 33.5092 103.015 47.596C104.982 53.1565 106.088 59.3952 106.088 65.9865H106.097Z" fill="#EEEDEB" stroke="#2C2C2C" stroke-miterlimit="10"/>
<path d="M49.075 80.5263C50.7454 80.5263 50.7454 82.421 52.4064 82.421C54.0674 82.421 54.0674 80.5263 55.7378 80.5263C57.4083 80.5263 57.4083 82.421 59.0693 82.421C60.7303 82.421 60.7397 80.5263 62.4007 80.5263C64.0617 80.5263 64.0711 82.421 65.7321 82.421C67.3931 82.421 67.4026 80.5263 69.073 80.5263C70.7435 80.5263 70.7435 82.421 72.4139 82.421" stroke="#2C2C2C" stroke-miterlimit="10" stroke-linecap="round"/>
<path d="M60.2093 63.9038C60.2093 68.4387 59.1983 72.1141 54.8629 72.1141C50.8007 72.1141 48.9336 68.4387 48.9336 63.9038C48.9336 59.369 50.318 55.6935 54.8629 55.6935C58.8249 55.6935 60.2093 59.369 60.2093 63.9038Z" fill="#FBFBFB" stroke="#2C2C2C" stroke-miterlimit="10"/>
<path d="M71.4761 63.9038C71.4761 68.4387 70.4651 72.1142 66.1297 72.1142C62.0676 72.1142 60.2004 68.4387 60.2004 63.9038C60.2004 61.033 60.756 58.5004 62.3226 57.0284C63.5795 57.6044 66.74 58.8387 70.6382 58.8204C71.2302 60.2193 71.4761 61.9838 71.4761 63.9038Z" fill="#FBFBFB" stroke="#2C2C2C" stroke-miterlimit="10"/>
<path d="M54.8267 60.0793C55.7313 60.0793 56.3116 60.4811 56.6948 61.1593C57.0985 61.874 57.2866 62.9112 57.2866 64.132C57.2866 65.3724 57.1458 66.4062 56.7671 67.1164C56.5831 67.4613 56.3479 67.7213 56.0493 67.8976C55.75 68.0744 55.3558 68.1857 54.8267 68.1857C53.8802 68.1857 53.2112 67.7689 52.7573 67.0773C52.2881 66.3623 52.0386 65.3308 52.0386 64.132C52.0386 62.9093 52.2279 61.882 52.6626 61.175C53.0726 60.5082 53.7278 60.0793 54.8267 60.0793Z" fill="#2C2C2C" stroke="#2C2C2C"/>
<path d="M66.093 60.0793C66.9977 60.0793 67.5779 60.4811 67.9612 61.1593C68.3649 61.874 68.5529 62.9112 68.553 64.132C68.553 65.3724 68.4121 66.4062 68.0334 67.1164C67.8495 67.4613 67.6143 67.7213 67.3157 67.8976C67.0163 68.0744 66.6221 68.1857 66.093 68.1857C65.1465 68.1857 64.4776 67.7689 64.0237 67.0773C63.5544 66.3623 63.3049 65.3308 63.3049 64.132C63.305 62.9093 63.4942 61.882 63.929 61.175C64.3389 60.5082 64.9941 60.0793 66.093 60.0793Z" fill="#2C2C2C" stroke="#2C2C2C"/>
<path d="M70.6378 58.8204C66.7396 58.8387 63.5792 57.6044 62.3223 57.0284C63.224 56.1872 64.4626 55.6935 66.1294 55.6935C68.4155 55.6935 69.8363 56.9095 70.6378 58.8204Z" stroke="#2C2C2C" stroke-miterlimit="10"/>
<path d="M60.9651 72.3884C60.9651 72.3884 56.3656 72.6261 56.9485 75.1953C57.5314 77.7644 63.9526 77.2341 64.8634 76.137C65.7742 75.0399 65.1366 72.5987 60.9651 72.3793V72.3884Z" fill="#FBD7D5" stroke="#2C2C2C" stroke-miterlimit="10"/>
<path d="M72.6688 58.6924C71.9766 58.7838 71.2935 58.8204 70.6377 58.8204" stroke="#2C2C2C" stroke-miterlimit="10" stroke-linecap="round"/>
<path d="M40.2038 71.2188C40.5164 71.2188 40.7698 70.9644 40.7698 70.6506C40.7698 70.3368 40.5164 70.0824 40.2038 70.0824C39.8911 70.0824 39.6377 70.3368 39.6377 70.6506C39.6377 70.9644 39.8911 71.2188 40.2038 71.2188Z" fill="#2C2C2C"/>
<path d="M43.7257 71.2188C44.0383 71.2188 44.2918 70.9644 44.2918 70.6506C44.2918 70.3368 44.0383 70.0824 43.7257 70.0824C43.4131 70.0824 43.1597 70.3368 43.1597 70.6506C43.1597 70.9644 43.4131 71.2188 43.7257 71.2188Z" fill="#2C2C2C"/>
<path d="M41.9647 72.9776C42.2774 72.9776 42.5308 72.7232 42.5308 72.4094C42.5308 72.0956 42.2774 71.8412 41.9647 71.8412C41.6521 71.8412 41.3987 72.0956 41.3987 72.4094C41.3987 72.7232 41.6521 72.9776 41.9647 72.9776Z" fill="#2C2C2C"/>
<path d="M73.5829 71.2188C73.8955 71.2188 74.149 70.9644 74.149 70.6506C74.149 70.3368 73.8955 70.0824 73.5829 70.0824C73.2703 70.0824 73.0168 70.3368 73.0168 70.6506C73.0168 70.9644 73.2703 71.2188 73.5829 71.2188Z" fill="#2C2C2C"/>
<path d="M77.1141 71.2188C77.4268 71.2188 77.6802 70.9644 77.6802 70.6506C77.6802 70.3368 77.4268 70.0824 77.1141 70.0824C76.8015 70.0824 76.5481 70.3368 76.5481 70.6506C76.5481 70.9644 76.8015 71.2188 77.1141 71.2188Z" fill="#2C2C2C"/>
<path d="M75.3532 72.9776C75.6658 72.9776 75.9192 72.7232 75.9192 72.4094C75.9192 72.0956 75.6658 71.8412 75.3532 71.8412C75.0405 71.8412 74.7871 72.0956 74.7871 72.4094C74.7871 72.7232 75.0405 72.9776 75.3532 72.9776Z" fill="#2C2C2C"/>
</g>
</g>
<defs>
<filter id="filter0_g_40000246_3858" x="-0.4" y="-0.4" width="151.8" height="162.8" filterUnits="userSpaceOnUse" color-interpolation-filters="sRGB">
<feFlood flood-opacity="0" result="BackgroundImageFix"/>
<feBlend mode="normal" in="SourceGraphic" in2="BackgroundImageFix" result="shape"/>
<feTurbulence type="fractalNoise" baseFrequency="0.66666668653488159 0.66666668653488159" numOctaves="3" seed="7043" />
<feDisplacementMap in="shape" scale="0.80000001192092896" xChannelSelector="R" yChannelSelector="G" result="displacedImage" width="100%" height="100%" />
<feMerge result="effect1_texture_40000246_3858">
<feMergeNode in="displacedImage"/>
</feMerge>
</filter>
<filter id="filter1_d_40000246_3858" x="3.1062" y="10.8158" width="143.731" height="142.368" filterUnits="userSpaceOnUse" color-interpolation-filters="sRGB">
<feFlood flood-opacity="0" result="BackgroundImageFix"/>
<feColorMatrix in="SourceAlpha" type="matrix" values="0 0 0 0 0 0 0 0 0 0 0 0 0 0 0 0 0 0 127 0" result="hardAlpha"/>
<feOffset dx="-1" dy="1"/>
<feGaussianBlur stdDeviation="1"/>
<feComposite in2="hardAlpha" operator="out"/>
<feColorMatrix type="matrix" values="0 0 0 0 0 0 0 0 0 0 0 0 0 0 0 0 0 0 0.25 0"/>
<feBlend mode="normal" in2="BackgroundImageFix" result="effect1_dropShadow_40000246_3858"/>
<feBlend mode="normal" in="SourceGraphic" in2="effect1_dropShadow_40000246_3858" result="shape"/>
</filter>
</defs>
</svg>
