<svg width="151" height="162" viewBox="0 0 151 162" fill="none" xmlns="http://www.w3.org/2000/svg">
<g filter="url(#filter0_g_40000159_4555)">
<g filter="url(#filter1_d_40000159_4555)">
<path d="M60.7724 149.675C49.1358 149.675 38.1373 148.979 29.8074 147.713C22.8884 146.664 11.3058 144.901 11.3058 136.022C11.3058 132.424 13.3186 130.073 15.6998 128.518C15.583 125.733 16.1401 122.939 17.3801 120.462C19.7883 115.661 24.3711 112.659 29.9333 112.234C30.3915 112.198 30.9127 112.18 31.4968 112.18C34.0308 112.18 36.7624 112.56 39.6648 113.31L40.3837 106.529C34.6957 105.118 29.3761 103.075 24.4969 100.435C15.3583 95.4891 8.9425 86.2758 7.34303 75.8147C6.84882 72.614 6.6062 69.3138 6.6062 65.9955C6.6062 57.7768 8.16972 49.6574 11.1171 42.4965C17.7216 26.493 30.5353 16.5563 44.58 16.5563C49.7019 16.5563 54.6621 17.8402 59.3257 20.3718C59.5234 20.4803 59.73 20.5346 59.9457 20.5346C60.1614 20.5346 60.377 20.4803 60.5837 20.3628C65.2563 17.8311 70.2075 16.5563 75.3204 16.5563C80.4333 16.5563 85.5731 17.9035 90.2547 20.4803C92.8336 18.6991 95.9067 17.6865 99.0967 17.6865C99.2854 17.6865 99.4651 17.6865 99.6448 17.6955C102.556 14.3321 106.815 12.3158 111.56 12.3158C116.304 12.3158 120.177 14.1874 123.089 17.3067C123.448 17.2796 123.817 17.2706 124.176 17.2706C129.684 17.2706 134.887 20.2814 137.771 25.1367C139.344 27.7859 140.081 30.7606 139.982 33.7262C143.334 36.6557 145.337 40.9414 145.337 45.7244C145.337 50.2542 143.486 54.3952 140.386 57.3156C140.413 57.6863 140.422 58.048 140.422 58.4187C140.422 67.0534 133.18 74.3409 124.607 74.3409C124.419 74.3409 124.23 74.3409 124.041 74.3319C121.13 77.6953 116.871 79.7116 112.135 79.7116C111.955 79.7116 111.785 79.7116 111.605 79.7116C109.296 87.4873 104.255 94.1781 97.2816 98.5542C92.6719 101.448 87.4152 103.807 81.8171 105.516L82.7785 109.82C84.4948 109.024 86.2381 108.4 88.0532 107.921C88.5204 107.804 89.0596 107.668 89.6616 107.56C90.668 107.379 91.6745 107.288 92.6629 107.288C100.373 107.288 106.717 113.093 107.75 121.095C108.127 123.988 107.768 126.755 106.806 129.214C108.828 130.814 110.221 133.003 110.221 136.031C110.221 144.91 98.6474 146.673 91.7284 147.722C83.3986 148.988 72.4 149.684 60.7634 149.684L60.7724 149.675Z" fill="#FBFBFB" stroke="#9C9C9C" stroke-miterlimit="10"/>
<path d="M120.474 66.0227C118.254 74.4856 106.384 74.6845 103.886 66.3029C96.365 70.7062 87.8375 62.406 91.9619 54.6936C83.5513 52.4603 83.3536 40.5164 91.6834 38.0029C87.3073 30.4351 95.5562 21.8546 103.221 26.0047C105.441 17.5418 117.311 17.3429 119.809 25.7244C127.33 21.3212 135.857 29.6213 131.733 37.3338C140.144 39.5671 140.341 51.511 132.011 54.0245C136.388 61.5923 128.139 70.1727 120.474 66.0227Z" fill="#FBD7D5"/>
<path d="M60.7722 142.442C84.1168 142.442 103.041 139.568 103.041 136.022C103.041 132.477 84.1168 129.603 60.7722 129.603C37.4277 129.603 18.5032 132.477 18.5032 136.022C18.5032 139.568 37.4277 142.442 60.7722 142.442Z" fill="#2C2C2C"/>
<path d="M57.9866 70.3716V130.67C57.9866 133.97 55.3268 136.646 52.047 136.646H31.4426C20.6507 136.646 19.7072 120.281 30.4722 119.458C30.8046 119.431 31.1461 119.422 31.4965 119.422C36.0164 119.422 41.2281 121.095 45.8378 123.247L51.4719 70.3806H57.9866V70.3716Z" fill="#CBCBC5" stroke="#2C2C2C" stroke-miterlimit="10"/>
<path d="M50.4564 125.805C49.486 125.245 47.3384 123.907 43.2229 122.098L50.4564 125.805Z" fill="#CBCBC5"/>
<path d="M50.4564 125.805C49.486 125.245 47.3384 123.907 43.2229 122.098" stroke="#2C2C2C" stroke-miterlimit="10" stroke-linecap="round"/>
<path d="M60.7717 73.9248L67.1606 132.623C68.0052 135.814 71.2491 137.713 74.4211 136.863L94.3335 131.547C104.766 128.762 101.504 112.704 90.892 114.675C90.5595 114.738 90.227 114.811 89.8946 114.901C85.5275 116.067 81.9152 118.21 78.0064 121.483L67.0617 72.243L60.7627 73.9248H60.7717Z" fill="#CBCBC5" stroke="#2C2C2C" stroke-miterlimit="10"/>
<path d="M73.1726 125.95C73.9634 125.154 75.7066 123.31 79.22 120.498L73.1726 125.95Z" fill="#CBCBC5"/>
<path d="M73.1726 125.95C73.9634 125.154 75.7066 123.31 79.22 120.498" stroke="#2C2C2C" stroke-miterlimit="10" stroke-linecap="round"/>
<path d="M50.4573 125.805L43.3406 122.153C47.3842 123.934 49.4958 125.254 50.4573 125.805Z" fill="#FBFBFB" stroke="#2C2C2C" stroke-miterlimit="10"/>
<path d="M50.4573 125.805L43.3406 122.153C47.3842 123.934 49.4958 125.254 50.4573 125.805Z" fill="#FBFBFB" stroke="#2C2C2C" stroke-miterlimit="10" stroke-linecap="round"/>
<path d="M79.1302 120.579L73.1726 125.95C73.8645 125.254 75.2932 123.753 78.0159 121.484C78.3574 121.203 78.7348 120.896 79.1302 120.579Z" fill="#FBFBFB" stroke="#2C2C2C" stroke-miterlimit="10"/>
<path d="M79.1302 120.579L73.1726 125.95C73.8645 125.254 75.2932 123.753 78.0159 121.484C78.3574 121.203 78.7348 120.896 79.1302 120.579Z" fill="#FBFBFB" stroke="#2C2C2C" stroke-miterlimit="10" stroke-linecap="round"/>
<path d="M74.4309 136.465C74.4309 136.465 92.1419 118.861 96.1855 122.948" stroke="#2C2C2C" stroke-miterlimit="10" stroke-linecap="round"/>
<path d="M106.097 65.9865C106.097 68.5182 105.935 70.9955 105.62 73.4006C104.605 81.2487 100.166 88.2197 93.4897 92.406C84.8723 97.8218 73.5952 101.221 61.1769 101.529C60.5479 101.547 59.9189 101.556 59.2809 101.556H58.7327C47.1231 101.466 36.4301 98.6898 27.9116 94.0606C20.6331 90.1094 15.7089 82.9214 14.4509 74.7026C14.0196 71.8907 13.7949 68.9702 13.7949 65.9865C13.7949 58.4549 15.2326 51.3844 17.7576 45.2633C23.0413 32.4423 33.0694 23.7896 44.5712 23.7896C48.5698 23.7896 52.3888 24.8293 55.9022 26.7371C58.4452 28.1114 61.4554 28.1114 63.9894 26.7371C67.4939 24.8384 71.3128 23.7896 75.3025 23.7896C87.4962 23.7896 98.0365 33.5092 103.015 47.596C104.982 53.1565 106.088 59.3952 106.088 65.9865H106.097Z" fill="#EEEDEB" stroke="#2C2C2C" stroke-miterlimit="10"/>
<path d="M60.5097 61.0005C60.5097 65.4741 59.5123 69.1 55.2355 69.1C51.2282 69.1 49.3862 65.4741 49.3862 61.0005C49.3862 56.5268 50.752 52.901 55.2355 52.901C59.144 52.901 60.5097 56.5268 60.5097 61.0005Z" fill="#FBFBFB" stroke="#2C2C2C" stroke-miterlimit="10"/>
<path d="M71.6242 61.0005C71.6242 65.4741 70.6268 69.1 66.35 69.1C62.3427 69.1 60.5007 65.4741 60.5007 61.0005C60.5007 56.5268 61.8665 52.901 66.35 52.901C70.2585 52.901 71.6242 56.5268 71.6242 61.0005Z" fill="#FBFBFB" stroke="#2C2C2C" stroke-miterlimit="10"/>
<path d="M61.2554 69.3706C61.2554 69.3706 56.718 69.6051 57.2931 72.1396C57.8681 74.674 64.2025 74.1509 65.101 73.0686C65.9995 71.9862 65.3706 69.578 61.2554 69.3616V69.3706Z" fill="#FBD7D5" stroke="#2C2C2C" stroke-miterlimit="10"/>
<path d="M47.9216 70.7145C47.9216 70.7145 51.6504 81.5018 63.5556 76.072" stroke="#2C2C2C" stroke-miterlimit="10" stroke-linecap="round"/>
<path d="M40.2035 68.2251C40.5161 68.2251 40.7696 67.9707 40.7696 67.6569C40.7696 67.343 40.5161 67.0886 40.2035 67.0886C39.8909 67.0886 39.6375 67.343 39.6375 67.6569C39.6375 67.9707 39.8909 68.2251 40.2035 68.2251Z" fill="#2C2C2C"/>
<path d="M43.7255 68.2251C44.0381 68.2251 44.2915 67.9707 44.2915 67.6569C44.2915 67.343 44.0381 67.0886 43.7255 67.0886C43.4129 67.0886 43.1594 67.343 43.1594 67.6569C43.1594 67.9707 43.4129 68.2251 43.7255 68.2251Z" fill="#2C2C2C"/>
<path d="M41.9645 69.9839C42.2771 69.9839 42.5305 69.7295 42.5305 69.4156C42.5305 69.1018 42.2771 68.8474 41.9645 68.8474C41.6519 68.8474 41.3984 69.1018 41.3984 69.4156C41.3984 69.7295 41.6519 69.9839 41.9645 69.9839Z" fill="#2C2C2C"/>
<path d="M73.5827 68.2251C73.8953 68.2251 74.1487 67.9707 74.1487 67.6569C74.1487 67.343 73.8953 67.0886 73.5827 67.0886C73.27 67.0886 73.0166 67.343 73.0166 67.6569C73.0166 67.9707 73.27 68.2251 73.5827 68.2251Z" fill="#2C2C2C"/>
<path d="M77.1139 68.2251C77.4265 68.2251 77.68 67.9707 77.68 67.6569C77.68 67.343 77.4265 67.0886 77.1139 67.0886C76.8013 67.0886 76.5479 67.343 76.5479 67.6569C76.5479 67.9707 76.8013 68.2251 77.1139 68.2251Z" fill="#2C2C2C"/>
<path d="M75.3529 69.9839C75.6655 69.9839 75.919 69.7295 75.919 69.4156C75.919 69.1018 75.6655 68.8474 75.3529 68.8474C75.0403 68.8474 74.7869 69.1018 74.7869 69.4156C74.7869 69.7295 75.0403 69.9839 75.3529 69.9839Z" fill="#2C2C2C"/>
<path d="M60.5902 59.7919V59.8189C60.5902 60.6758 57.9845 64.96 57.095 66.4032C56.9603 66.6286 56.6368 66.6286 56.493 66.4032C55.5855 64.9691 52.917 60.7029 52.917 59.7919C52.917 58.43 53.7796 57.3206 54.8488 57.3206C55.7832 57.3206 56.5649 58.1774 56.7446 59.2958C56.9243 58.1774 57.715 57.3206 58.6315 57.3206C59.7007 57.3206 60.5722 58.439 60.5722 59.7919H60.5902Z" fill="#2C2C2C"/>
<path d="M71.6241 59.7919V59.8189C71.6241 60.6758 69.0185 64.96 68.129 66.4032C67.9942 66.6286 67.6707 66.6286 67.527 66.4032C66.6195 64.9691 63.9509 60.7029 63.9509 59.7919C63.9509 58.43 64.8135 57.3206 65.8827 57.3206C66.8171 57.3206 67.5988 58.1774 67.7785 59.2958C67.9582 58.1774 68.7489 57.3206 69.6654 57.3206C70.7346 57.3206 71.6062 58.439 71.6062 59.7919H71.6241Z" fill="#2C2C2C"/>
</g>
</g>
<defs>
<filter id="filter0_g_40000159_4555" x="-0.4" y="-0.4" width="151.8" height="162.8" filterUnits="userSpaceOnUse" color-interpolation-filters="sRGB">
<feFlood flood-opacity="0" result="BackgroundImageFix"/>
<feBlend mode="normal" in="SourceGraphic" in2="BackgroundImageFix" result="shape"/>
<feTurbulence type="fractalNoise" baseFrequency="0.66666668653488159 0.66666668653488159" numOctaves="3" seed="7043" />
<feDisplacementMap in="shape" scale="0.80000001192092896" xChannelSelector="R" yChannelSelector="G" result="displacedImage" width="100%" height="100%" />
<feMerge result="effect1_texture_40000159_4555">
<feMergeNode in="displacedImage"/>
</feMerge>
</filter>
<filter id="filter1_d_40000159_4555" x="3.1062" y="10.8158" width="143.731" height="142.368" filterUnits="userSpaceOnUse" color-interpolation-filters="sRGB">
<feFlood flood-opacity="0" result="BackgroundImageFix"/>
<feColorMatrix in="SourceAlpha" type="matrix" values="0 0 0 0 0 0 0 0 0 0 0 0 0 0 0 0 0 0 127 0" result="hardAlpha"/>
<feOffset dx="-1" dy="1"/>
<feGaussianBlur stdDeviation="1"/>
<feComposite in2="hardAlpha" operator="out"/>
<feColorMatrix type="matrix" values="0 0 0 0 0 0 0 0 0 0 0 0 0 0 0 0 0 0 0.25 0"/>
<feBlend mode="normal" in2="BackgroundImageFix" result="effect1_dropShadow_40000159_4555"/>
<feBlend mode="normal" in="SourceGraphic" in2="effect1_dropShadow_40000159_4555" result="shape"/>
</filter>
</defs>
</svg>
