<svg width="170" height="197" viewBox="0 0 170 197" fill="none" xmlns="http://www.w3.org/2000/svg">
<g filter="url(#filter0_g_40001696_17516)">
<path d="M85.5593 188.609C118.045 188.609 144.379 184.638 144.379 179.74C144.379 174.842 118.045 170.872 85.5593 170.872C53.0739 170.872 26.7393 174.842 26.7393 179.74C26.7393 184.638 53.0739 188.609 85.5593 188.609Z" fill="#2C2C2C"/>
<path d="M81.6879 89.0195V172.321C81.6879 176.88 77.9866 180.577 73.4225 180.577H44.7502C29.7326 180.577 28.4197 157.969 43.3998 156.832C43.8624 156.795 44.3376 156.782 44.8253 156.782C51.1149 156.782 58.3674 159.093 64.7821 162.066L72.6223 89.032H81.6879V89.0195Z" fill="#CBCBC5" stroke="#2C2C2C" stroke-miterlimit="10"/>
<path d="M71.1367 165.636C69.7863 164.861 66.7978 163.013 61.0708 160.515L71.1367 165.636Z" fill="#CBCBC5"/>
<path d="M71.1367 165.636C69.7863 164.861 66.7978 163.013 61.0708 160.515" stroke="#2C2C2C" stroke-miterlimit="10" stroke-linecap="round"/>
<path d="M85.5355 93.9625L94.426 175.053C95.6014 179.462 100.115 182.085 104.529 180.911L132.239 173.566C146.756 169.719 142.217 147.536 127.45 150.259C126.987 150.346 126.524 150.446 126.062 150.571C119.985 152.182 114.958 155.143 109.519 159.664L94.2884 91.6392L85.5229 93.9625H85.5355Z" fill="#CBCBC5" stroke="#2C2C2C" stroke-miterlimit="10"/>
<path d="M102.835 165.818C103.935 164.719 106.361 162.171 111.25 158.286L102.835 165.818Z" fill="#CBCBC5"/>
<path d="M102.835 165.818C103.935 164.719 106.361 162.171 111.25 158.286" stroke="#2C2C2C" stroke-miterlimit="10" stroke-linecap="round"/>
<path d="M104.498 180.332C104.498 180.332 129.143 156.013 134.77 161.658" stroke="#2C2C2C" stroke-miterlimit="10" stroke-linecap="round"/>
<path d="M100.743 24.4973C107.895 2.50091 63.0802 2.50091 70.2326 24.4973C63.0802 2.50091 26.8178 28.8066 45.5492 42.4091C26.8303 28.8066 12.9756 71.3878 36.1335 71.3878C12.9756 71.3878 26.8303 113.969 45.5617 100.367C26.8303 113.969 63.0802 140.275 70.2451 118.278C63.0927 140.275 107.908 140.275 100.756 118.278C107.908 140.275 144.17 113.969 125.439 100.367C144.17 113.969 158.025 71.3878 134.867 71.3878C158.025 71.3878 144.17 28.8066 125.439 42.4091C144.17 28.8066 107.92 2.50091 100.756 24.4973H100.743Z" fill="#EEEDEB"/>
<path d="M100.743 24.4973C107.895 2.50091 63.0802 2.50091 70.2326 24.4973C63.0802 2.50091 26.8178 28.8066 45.5492 42.4091C26.8303 28.8066 12.9756 71.3878 36.1335 71.3878C12.9756 71.3878 26.8303 113.969 45.5617 100.367C26.8303 113.969 63.0802 140.275 70.2451 118.278C63.0927 140.275 107.908 140.275 100.756 118.278C107.908 140.275 144.17 113.969 125.439 100.367C144.17 113.969 158.025 71.3878 134.867 71.3878C158.025 71.3878 144.17 28.8066 125.439 42.4091C144.17 28.8066 107.92 2.50091 100.756 24.4973H100.743Z" fill="#EEEDEB" stroke="#2C2C2C" stroke-miterlimit="10"/>
<path d="M71.1685 165.634L61.2651 160.588C66.8921 163.061 69.8306 164.872 71.1685 165.634Z" fill="white" stroke="#2C2C2C" stroke-miterlimit="10"/>
<path d="M71.1685 165.634L61.2651 160.588C66.8921 163.061 69.8306 164.872 71.1685 165.634Z" fill="white" stroke="#2C2C2C" stroke-miterlimit="10" stroke-linecap="round"/>
<path d="M111.064 158.384L102.736 165.841C103.774 164.805 105.962 162.506 110.264 159.021C110.526 158.809 110.789 158.597 111.064 158.384Z" fill="white" stroke="#2C2C2C" stroke-miterlimit="10"/>
<path d="M111.064 158.384L102.736 165.841C103.774 164.805 105.962 162.506 110.264 159.021C110.526 158.809 110.789 158.597 111.064 158.384Z" fill="white" stroke="#2C2C2C" stroke-miterlimit="10" stroke-linecap="round"/>
<path d="M87.7857 64.5308V64.943C87.7857 65.1928 87.7731 65.4301 87.7731 65.6799C87.7606 66.0547 87.7356 66.4294 87.7106 66.7916C87.7106 66.904 87.6981 67.0165 87.6856 67.1289C87.298 72.0752 85.5474 75.76 80.4582 75.76C74.8812 75.76 72.3179 70.7262 72.3179 64.5308C72.3179 63.0943 72.4179 61.7079 72.668 60.4463C75.0188 60.7461 77.4696 60.9584 79.983 61.1083C82.3213 61.2582 84.7096 61.3331 87.1604 61.3331C87.298 61.3456 87.448 61.3456 87.5856 61.3456C87.7231 62.3574 87.7857 63.4191 87.7857 64.5308Z" fill="#FBFBFB" stroke="#2C2C2C" stroke-miterlimit="10"/>
<path d="M80.3457 61.6245C82.4754 61.7542 84.6461 61.8222 86.8672 61.8286C87.1265 62.5763 87.2745 63.4698 87.3242 64.4595L87.3408 64.9507V65.1665C87.3408 65.3436 87.3401 65.4887 87.3291 65.6431V65.6528L87.3281 65.6616C87.316 66.0263 87.2916 66.393 87.2666 66.7554L87.2656 66.7729V66.7905C87.2656 66.8693 87.2568 66.9526 87.2441 67.0669C87.099 68.2627 86.7856 69.2177 86.25 69.8667C85.7343 70.4915 84.968 70.8872 83.7764 70.8872C82.4096 70.8871 81.4343 70.2826 80.7793 69.2896C80.1089 68.273 79.7627 66.8252 79.7627 65.1665C79.7627 63.794 79.935 62.5731 80.3457 61.6245Z" fill="#2C2C2C" stroke="#2C2C2C"/>
<path d="M103.252 64.5308C103.252 64.7431 103.252 64.9555 103.239 65.1678C103.152 71.0635 101.664 75.76 95.9118 75.76C90.1598 75.76 87.7715 70.7262 87.7715 64.5308C87.7715 63.4191 87.834 62.3574 87.9716 61.3456C90.4224 61.3456 92.8107 61.2707 95.149 61.1333C97.6999 60.9959 100.151 60.7835 102.527 60.4838H102.539C102.664 60.4838 102.789 60.4713 102.914 60.4463C103.114 61.508 103.214 62.6572 103.239 63.8563C103.252 64.0811 103.252 64.306 103.252 64.5308Z" fill="#FBFBFB" stroke="#2C2C2C" stroke-miterlimit="10"/>
<path d="M87.7192 75.9307C87.9696 75.9342 88.2084 75.9576 88.3862 75.9805C88.4745 75.9918 88.5462 76.0036 88.5952 76.0117C88.6197 76.0158 88.6388 76.0183 88.6509 76.0205C88.6568 76.0216 88.661 76.023 88.6636 76.0234C88.6649 76.0237 88.6661 76.0234 88.6665 76.0234L88.7808 76.0449C88.8215 76.0567 88.8702 76.0714 88.9253 76.0879C89.1136 76.1443 89.3802 76.2274 89.6909 76.334C90.3162 76.5485 91.1058 76.853 91.7964 77.2188C92.1415 77.4016 92.4519 77.5944 92.7007 77.792C92.9531 77.9925 93.1178 78.1786 93.2036 78.3408C93.2823 78.4898 93.2902 78.6067 93.2524 78.7207C93.209 78.8519 93.0821 79.0475 92.7544 79.2891C91.3122 80.3455 90.2359 80.6181 89.4272 80.5391C88.6219 80.4603 87.9771 80.0224 87.4155 79.4277C87.3284 79.3334 87.2003 79.1185 87.0669 78.7891C86.9389 78.4731 86.8224 78.0946 86.7388 77.7129C86.6548 77.3295 86.6079 76.9598 86.6089 76.6582C86.61 76.3291 86.6688 76.1824 86.6948 76.1484C86.7247 76.1094 86.8127 76.0423 87.021 75.9922C87.2197 75.9444 87.4651 75.9271 87.7192 75.9307Z" fill="#FEE888" stroke="#2C2C2C"/>
<path d="M77.7954 86.7915C83.5474 89.7643 90.3872 89.8018 96.1767 86.8789L96.3517 86.7915" stroke="#2C2C2C" stroke-miterlimit="10" stroke-linecap="round"/>
<path d="M87.6261 61.3524C87.4885 61.3524 87.3385 61.3524 87.2009 61.3399C84.7501 61.3399 82.3618 61.265 80.0235 61.1151C77.5101 60.9652 75.0593 60.7528 72.7085 60.4531C73.4713 56.2811 75.697 53.3208 80.4987 53.3208C84.9627 53.3208 87.0384 56.7058 87.6261 61.3524Z" stroke="#2C2C2C" stroke-miterlimit="10"/>
<path d="M102.91 60.4531C102.785 60.478 102.66 60.4905 102.535 60.4905H102.523C100.147 60.7903 97.6961 61.0027 95.1452 61.1401C92.8069 61.2775 90.4186 61.3524 87.9678 61.3524C88.5805 56.7058 90.7812 53.3208 95.908 53.3208C100.084 53.3208 102.173 56.2811 102.91 60.4531Z" stroke="#2C2C2C" stroke-miterlimit="10"/>
<path d="M102.278 61.0347C102.577 61.825 102.741 62.7959 102.794 63.8911L102.795 63.895C102.807 64.1036 102.807 64.3145 102.807 64.5415C102.807 64.7561 102.807 64.9538 102.795 65.1489L102.794 65.1626C102.745 66.7061 102.505 67.9942 101.958 68.8843C101.438 69.7298 100.613 70.2622 99.23 70.2622C97.8631 70.2621 96.8879 69.6577 96.2329 68.6646C95.5625 67.648 95.2163 66.2003 95.2163 64.5415C95.2163 63.4483 95.3235 62.4601 95.5737 61.6226C97.882 61.4917 100.111 61.2992 102.278 61.0347Z" fill="#2C2C2C" stroke="#2C2C2C"/>
</g>
<defs>
<filter id="filter0_g_40001696_17516" x="-0.4" y="-0.4" width="170.8" height="197.8" filterUnits="userSpaceOnUse" color-interpolation-filters="sRGB">
<feFlood flood-opacity="0" result="BackgroundImageFix"/>
<feBlend mode="normal" in="SourceGraphic" in2="BackgroundImageFix" result="shape"/>
<feTurbulence type="fractalNoise" baseFrequency="0.66666668653488159 0.66666668653488159" numOctaves="3" seed="7043" />
<feDisplacementMap in="shape" scale="0.80000001192092896" xChannelSelector="R" yChannelSelector="G" result="displacedImage" width="100%" height="100%" />
<feMerge result="effect1_texture_40001696_17516">
<feMergeNode in="displacedImage"/>
</feMerge>
</filter>
</defs>
</svg>
