<svg width="122" height="192" viewBox="0 0 122 192" fill="none" xmlns="http://www.w3.org/2000/svg">
<g filter="url(#filter0_g_40001696_17513)">
<path d="M60.9997 192.187C93.929 192.187 120.623 188.142 120.623 183.153C120.623 178.164 93.929 174.119 60.9997 174.119C28.0704 174.119 1.37598 178.164 1.37598 183.153C1.37598 188.142 28.0704 192.187 60.9997 192.187Z" fill="#2C2C2C"/>
<path d="M57.0706 90.7524V175.607C57.0706 180.251 53.3187 184.017 48.6923 184.017H19.6283C4.40549 184.017 3.07461 160.987 18.2594 159.829C18.7284 159.791 19.21 159.779 19.7044 159.779C26.0799 159.779 33.4315 162.132 39.9338 165.161L47.8811 90.7652H57.0706V90.7524Z" fill="#CBCBC5" stroke="#2C2C2C" stroke-miterlimit="10"/>
<path d="M46.4613 168.775C45.0924 167.986 42.063 166.103 36.2578 163.559L46.4613 168.775Z" fill="#CBCBC5"/>
<path d="M46.4613 168.775C45.0924 167.986 42.063 166.103 36.2578 163.559" stroke="#2C2C2C" stroke-miterlimit="10" stroke-linecap="round"/>
<path d="M61.0005 95.7655L70.0125 178.368C71.2039 182.859 75.7797 185.531 80.254 184.335L108.342 176.854C123.058 172.935 118.457 150.338 103.487 153.111C103.018 153.2 102.549 153.302 102.08 153.429C95.9204 155.071 90.825 158.086 85.3113 162.692L69.873 93.3989L60.9878 95.7655H61.0005Z" fill="#CBCBC5" stroke="#2C2C2C" stroke-miterlimit="10"/>
<path d="M78.4922 168.979C79.6076 167.859 82.0666 165.263 87.0225 161.306L78.4922 168.979Z" fill="#FBFBFB"/>
<path d="M78.4922 168.979C79.6076 167.859 82.0666 165.263 87.0225 161.306" stroke="#2C2C2C" stroke-miterlimit="10" stroke-linecap="round"/>
<path d="M80.2671 183.764C80.2671 183.764 105.25 158.99 110.954 164.742" stroke="#2C2C2C" stroke-miterlimit="10" stroke-linecap="round"/>
<path d="M90.6469 100.487C90.6469 115.068 76.5776 126.888 59.238 126.888C41.8985 126.888 27.8291 115.068 27.8291 100.487C27.8291 96.0207 29.1473 91.8091 31.4669 88.132C34.8258 82.8007 35.0666 76.2226 32.4682 70.4842C31.2641 67.8249 30.6049 64.9494 30.6049 61.9338C30.6049 58.2949 31.5683 54.8595 33.2794 51.7676C36.613 45.7747 37.2721 38.5858 34.2427 32.4276C32.9245 29.7556 32.202 26.8164 32.202 23.75C32.202 11.1917 44.3067 1 59.238 1C74.1693 1 86.2867 11.1917 86.2867 23.75C86.2867 26.8291 85.5642 29.7683 84.246 32.4403C81.2167 38.5986 81.8758 45.7874 85.2093 51.793C86.9205 54.8722 87.8711 58.3076 87.8711 61.9338C87.8711 64.9494 87.212 67.8249 86.0079 70.4842C83.4095 76.2226 83.6503 82.8007 87.0092 88.132C89.3287 91.8218 90.6469 96.0207 90.6469 100.487Z" fill="#EEEDEB" stroke="#2C2C2C" stroke-miterlimit="10"/>
<path d="M58.345 24.3708C58.345 28.8661 57.3381 32.5234 53.0455 32.5234C49.0179 32.5234 47.1631 28.8794 47.1631 24.3708C47.1631 19.8623 48.5277 16.2183 53.0455 16.2183C56.9804 16.2183 58.345 19.8623 58.345 24.3708Z" fill="#FBFBFB" stroke="#2C2C2C" stroke-miterlimit="10"/>
<path d="M69.5275 24.3708C69.5275 24.5304 69.5275 24.6767 69.5275 24.8363C69.501 26.9376 69.2228 28.8129 68.4676 30.196C66.9573 30.3556 65.6589 31.2334 64.9037 32.4835C64.6918 32.5101 64.4665 32.5234 64.2413 32.5234C60.2137 32.5234 58.3589 28.8794 58.3589 24.3708C58.3589 19.8623 59.7368 16.2183 64.2413 16.2183C68.0304 16.2183 69.4348 19.5963 69.5408 23.8788C69.5408 24.0384 69.5408 24.2112 69.5408 24.3708H69.5275Z" fill="#FBFBFB" stroke="#2C2C2C" stroke-miterlimit="10"/>
<path d="M58.3444 24.8226C58.3444 27.3229 57.788 29.3444 55.4032 29.3444C53.1642 29.3444 52.144 27.3229 52.144 24.8226C52.144 22.3223 52.8992 20.3008 55.4032 20.3008C57.5892 20.3008 58.3444 22.3223 58.3444 24.8226Z" fill="#2C2C2C"/>
<path d="M69.5266 24.3705C69.5266 26.8708 68.9701 28.8923 66.5853 28.8923C64.3463 28.8923 63.3262 26.8708 63.3262 24.3705C63.3262 21.8702 64.0813 19.8486 66.5853 19.8486C68.7714 19.8486 69.5266 21.8702 69.5266 24.3705Z" fill="#2C2C2C"/>
<path d="M58.6235 32.2402C59.4191 32.3647 59.8529 32.787 60.0669 33.2363C60.301 33.728 60.2695 34.2382 60.1489 34.4844C60.1512 34.4797 60.1358 34.5103 60.061 34.5596C59.9889 34.607 59.8826 34.6572 59.7437 34.6992C59.4652 34.7834 59.105 34.8208 58.7417 34.7832C57.9971 34.7061 57.4307 34.3538 57.314 33.6865C57.2443 33.2877 57.3088 33.0331 57.4009 32.8652C57.4962 32.6916 57.6496 32.5596 57.8394 32.46C58.0307 32.3595 58.2394 32.3019 58.4077 32.2705C58.49 32.2552 58.5585 32.2467 58.605 32.2422C58.6116 32.2416 58.6179 32.2407 58.6235 32.2402Z" fill="#93D1E0" stroke="#2C2C2C"/>
<path d="M66.0289 34.6646C66.0289 34.6646 63.3262 41.0084 55.4697 37.4042" stroke="#2C2C2C" stroke-miterlimit="10" stroke-linecap="round"/>
<path d="M68.4536 30.1961C68.6258 30.1695 68.8113 30.1562 68.9836 30.1562C70.7589 30.1562 72.309 31.1271 73.1304 32.5635" stroke="#2C2C2C" stroke-miterlimit="10" stroke-linecap="round"/>
<path d="M64.8901 32.4834L64.8364 32.5642" stroke="#2C2C2C" stroke-miterlimit="10" stroke-linecap="round"/>
</g>
<defs>
<filter id="filter0_g_40001696_17513" x="0.975977" y="0.1" width="120.048" height="192.487" filterUnits="userSpaceOnUse" color-interpolation-filters="sRGB">
<feFlood flood-opacity="0" result="BackgroundImageFix"/>
<feBlend mode="normal" in="SourceGraphic" in2="BackgroundImageFix" result="shape"/>
<feTurbulence type="fractalNoise" baseFrequency="0.66666668653488159 0.66666668653488159" numOctaves="3" seed="7043" />
<feDisplacementMap in="shape" scale="0.80000001192092896" xChannelSelector="R" yChannelSelector="G" result="displacedImage" width="100%" height="100%" />
<feMerge result="effect1_texture_40001696_17513">
<feMergeNode in="displacedImage"/>
</feMerge>
</filter>
</defs>
</svg>
