<svg width="90" height="117" viewBox="0 0 90 117" fill="none" xmlns="http://www.w3.org/2000/svg">
<g filter="url(#filter0_f_40000879_11380)">
<ellipse cx="44.7363" cy="98.3462" rx="13.7363" ry="3.84615" fill="#9C9C9C"/>
</g>
<path d="M45.5027 14C67.7928 14.0003 86.6302 32.9711 89.4226 58.0098C89.8068 61.4368 88.7487 64.8471 86.5144 67.3672C84.4661 69.6764 81.5767 70.9998 78.5838 71H74.1062C74.611 71.8829 74.9011 72.9044 74.9012 73.9941V82.6689C74.9012 86.0068 72.195 88.7126 68.8572 88.7129H51.0164L47.1766 94.8213H47.1892L46.657 95.6641C45.7206 97.148 43.4634 97.1977 42.448 95.8027L42.3543 95.6631L37.9851 88.7129H21.4939C18.1561 88.7127 15.45 86.0068 15.45 82.6689V73.9941C15.4501 72.9044 15.7402 71.8829 16.2449 71H12.4139C9.60694 71 6.89241 69.8293 4.87675 67.7871L4.48319 67.3672C2.24763 64.8536 1.19897 61.4433 1.57499 58.0107V58.0098C4.37501 32.971 23.2124 14 45.5027 14Z" fill="#A7E1B6"/>
<path d="M45.5027 14L45.5027 13.5H45.5027V14ZM89.4226 58.0098L88.9257 58.0652L88.9258 58.0655L89.4226 58.0098ZM86.5144 67.3672L86.8885 67.699L86.8886 67.6989L86.5144 67.3672ZM78.5838 71V71.5H78.5838L78.5838 71ZM74.1062 71V70.5H73.2444L73.6722 71.2482L74.1062 71ZM74.9012 73.9941H75.4012V73.9941L74.9012 73.9941ZM68.8572 88.7129V89.2129H68.8573L68.8572 88.7129ZM51.0164 88.7129V88.2129H50.7401L50.5931 88.4468L51.0164 88.7129ZM47.1766 94.8213L46.7532 94.5552L46.2717 95.3213H47.1766V94.8213ZM47.1892 94.8213L47.612 95.0883L48.0964 94.3213H47.1892V94.8213ZM46.657 95.6641L46.2343 95.3971L46.2342 95.3972L46.657 95.6641ZM42.448 95.8027L42.0329 96.0814L42.0382 96.0893L42.0438 96.097L42.448 95.8027ZM42.3543 95.6631L41.931 95.9292L41.935 95.9355L41.9392 95.9418L42.3543 95.6631ZM37.9851 88.7129L38.4085 88.4468L38.2614 88.2129H37.9851V88.7129ZM21.4939 88.7129L21.4939 89.2129H21.4939V88.7129ZM15.45 73.9941L14.95 73.9941V73.9941H15.45ZM16.2449 71L16.679 71.2482L17.1067 70.5H16.2449V71ZM12.4139 71L12.4139 71.5H12.4139V71ZM4.87675 67.7871L4.5118 68.1291L4.52089 68.1383L4.87675 67.7871ZM4.48319 67.3672L4.10945 67.6996L4.11837 67.7091L4.48319 67.3672ZM1.57499 58.0107L2.07202 58.0652L2.07499 58.038V58.0107H1.57499ZM1.57499 58.0098L1.07809 57.9542L1.07499 57.9819V58.0098H1.57499ZM45.5027 14L45.5027 14.5C67.4885 14.5003 86.1556 33.2271 88.9257 58.0652L89.4226 58.0098L89.9196 57.9543C87.1047 32.7151 68.0971 13.5003 45.5027 13.5L45.5027 14ZM89.4226 58.0098L88.9258 58.0655C89.2946 61.3559 88.2779 64.6244 86.1403 67.0355L86.5144 67.3672L86.8886 67.6989C89.2195 65.0698 90.3189 61.5176 89.9195 57.9541L89.4226 58.0098ZM86.5144 67.3672L86.1404 67.0354C84.1835 69.2414 81.4287 70.4998 78.5837 70.5L78.5838 71L78.5838 71.5C81.7247 71.4998 84.7486 70.1113 86.8885 67.699L86.5144 67.3672ZM78.5838 71V70.5H74.1062V71V71.5H78.5838V71ZM74.1062 71L73.6722 71.2482C74.1352 72.058 74.4011 72.9943 74.4012 73.9942L74.9012 73.9941L75.4012 73.9941C75.4011 72.8145 75.0868 71.7078 74.5403 70.7518L74.1062 71ZM74.9012 73.9941H74.4012V82.6689H74.9012H75.4012V73.9941H74.9012ZM74.9012 82.6689H74.4012C74.4012 85.7306 71.9189 88.2127 68.8572 88.2129L68.8572 88.7129L68.8573 89.2129C72.4711 89.2126 75.4012 86.283 75.4012 82.6689H74.9012ZM68.8572 88.7129V88.2129H51.0164V88.7129V89.2129H68.8572V88.7129ZM51.0164 88.7129L50.5931 88.4468L46.7532 94.5552L47.1766 94.8213L47.5999 95.0874L51.4397 88.979L51.0164 88.7129ZM47.1766 94.8213V95.3213H47.1892V94.8213V94.3213H47.1766V94.8213ZM47.1892 94.8213L46.7665 94.5543L46.2343 95.3971L46.657 95.6641L47.0798 95.931L47.612 95.0883L47.1892 94.8213ZM46.657 95.6641L46.2342 95.3972C45.4888 96.5784 43.6625 96.6216 42.8523 95.5085L42.448 95.8027L42.0438 96.097C43.2643 97.7737 45.9523 97.7177 47.0799 95.9309L46.657 95.6641ZM42.448 95.8027L42.8632 95.524L42.7694 95.3844L42.3543 95.6631L41.9392 95.9418L42.0329 96.0814L42.448 95.8027ZM42.3543 95.6631L42.7776 95.397L38.4085 88.4468L37.9851 88.7129L37.5618 88.979L41.931 95.9292L42.3543 95.6631ZM37.9851 88.7129V88.2129H21.4939V88.7129V89.2129H37.9851V88.7129ZM21.4939 88.7129L21.494 88.2129C18.4322 88.2127 15.95 85.7306 15.95 82.6689H15.45H14.95C14.95 86.283 17.88 89.2127 21.4939 89.2129L21.4939 88.7129ZM15.45 82.6689H15.95V73.9941H15.45H14.95V82.6689H15.45ZM15.45 73.9941L15.95 73.9942C15.95 72.9943 16.216 72.058 16.679 71.2482L16.2449 71L15.8108 70.7518C15.2643 71.7078 14.9501 72.8145 14.95 73.9941L15.45 73.9941ZM16.2449 71V70.5H12.4139V71V71.5H16.2449V71ZM12.4139 71L12.4139 70.5C9.74648 70.5 7.15847 69.387 5.2326 67.4359L4.87675 67.7871L4.52089 68.1383C6.62635 70.2715 9.46739 71.5 12.4139 71.5L12.4139 71ZM4.87675 67.7871L5.24157 67.4452L4.84801 67.0253L4.48319 67.3672L4.11837 67.7091L4.51193 68.129L4.87675 67.7871ZM4.48319 67.3672L4.8568 67.0349C2.71923 64.6315 1.71072 61.3633 2.07202 58.0652L1.57499 58.0107L1.07796 57.9563C0.687213 61.5233 1.77603 65.0757 4.10958 67.6995L4.48319 67.3672ZM1.57499 58.0107H2.07499V58.0098H1.57499H1.07499V58.0107H1.57499ZM1.57499 58.0098L2.07189 58.0653C4.8495 33.227 23.5167 14.5 45.5027 14.5V14V13.5C22.9081 13.5 3.90052 32.715 1.07809 57.9542L1.57499 58.0098Z" fill="#5C5C5C"/>
<g filter="url(#filter1_g_40000879_11380)">
<path d="M78.6105 64.5H12.3956C9.76721 64.5 7.70364 61.8232 8.03502 58.789C10.445 37.1844 26.3059 20.5 45.5031 20.5C64.7003 20.5 80.5611 37.1844 82.9636 58.789C83.3025 61.8232 81.2314 64.5 78.603 64.5H78.6105Z" fill="#EEEDEB"/>
<path d="M78.6105 64.5H12.3956C9.76721 64.5 7.70364 61.8232 8.03502 58.789C10.445 37.1844 26.3059 20.5 45.5031 20.5C64.7003 20.5 80.5611 37.1844 82.9636 58.789C83.3025 61.8232 81.2314 64.5 78.603 64.5H78.6105Z" stroke="#2C2C2C" stroke-miterlimit="10"/>
</g>
<g filter="url(#filter2_g_40000879_11380)">
<path d="M44.962 39.6967V39.9443C44.962 40.099 44.9543 40.2537 44.9543 40.4084V40.478C44.9389 40.6869 44.9312 40.8957 44.9158 41.0969C44.9158 41.1665 44.908 41.2284 44.9003 41.2902C44.6615 44.3612 43.5826 46.6432 40.4386 46.6432C37.0094 46.6432 35.4297 43.5335 35.4297 39.6967C35.4297 37.8557 35.6994 36.1693 36.4161 34.9316C37.6798 35.535 39.2364 36.1229 41.0705 36.5638C42.0491 36.8036 43.1048 36.997 44.253 37.1285C44.4149 37.1517 44.5844 37.1672 44.7539 37.1827C44.9003 37.964 44.962 38.8071 44.962 39.6967Z" fill="#FBFBFB" stroke="#2C2C2C" stroke-miterlimit="10"/>
<path d="M54.4942 39.6969C54.4942 39.8284 54.4942 39.9599 54.4865 40.0914C54.4326 43.7425 53.5233 46.6434 49.9785 46.6434C46.4338 46.6434 44.9619 43.5337 44.9619 39.6969C44.9619 38.8227 45.0236 37.9873 45.1623 37.2215C46.5416 37.3375 48.0366 37.3685 49.6472 37.2679C50.9572 37.1983 52.352 37.0436 53.8161 36.7806C53.9471 36.7651 54.0704 36.7419 54.2014 36.7109C54.3786 37.5 54.4711 38.3663 54.4865 39.2791C54.4942 39.4184 54.4942 39.5576 54.4942 39.6969Z" fill="#FBFBFB" stroke="#2C2C2C" stroke-miterlimit="10"/>
<path d="M44.9621 39.9449V40.0841C44.9621 40.1924 44.9621 40.3007 44.9544 40.409V40.4786C44.939 40.6875 44.9313 40.8963 44.9158 41.0975C44.9158 41.1671 44.9081 41.229 44.9004 41.2909C44.7155 42.8302 44.0913 43.9364 42.4576 43.9364C40.5543 43.9364 39.6758 42.2114 39.6758 40.0841C39.6758 38.5138 40.0303 37.1678 41.0706 36.5645C42.0492 36.8043 43.1049 36.9976 44.2531 37.1291C44.7386 37.8021 44.9467 38.8155 44.9621 39.9449Z" fill="#2C2C2C"/>
<path d="M54.4943 39.6966C54.4943 39.8281 54.4943 39.9596 54.4866 40.0911C54.4327 42.0327 53.8932 43.5489 51.9899 43.5489C50.0865 43.5489 49.208 41.8238 49.208 39.6966C49.208 38.776 49.3313 37.9329 49.6472 37.2676C50.9573 37.198 52.352 37.0433 53.8162 36.7803C54.24 37.3991 54.4404 38.281 54.4866 39.2788C54.4943 39.4181 54.4943 39.5573 54.4943 39.6966Z" fill="#2C2C2C"/>
<path d="M54.2012 36.7106C54.0702 36.7415 53.9469 36.7647 53.8159 36.7802C52.3518 37.0432 50.957 37.1979 49.647 37.2675C48.0364 37.3681 46.5415 37.3372 45.1621 37.2211C45.6322 34.6065 47.0038 32.75 49.9783 32.75C52.398 32.75 53.6772 34.3667 54.2012 36.7106Z" stroke="#2C2C2C" stroke-miterlimit="10"/>
<path d="M44.7529 37.1825C44.5834 37.167 44.4138 37.1515 44.252 37.1283C43.1038 36.9968 42.0481 36.8034 41.0695 36.5636C39.2354 36.1227 37.6788 35.5348 36.415 34.9314C37.1702 33.5854 38.4417 32.75 40.4376 32.75C43.0191 32.75 44.306 34.5911 44.7529 37.1825Z" stroke="#2C2C2C" stroke-miterlimit="10" stroke-linecap="round"/>
<path d="M45.1623 37.2213C45.0236 37.2213 44.8849 37.1981 44.7539 37.1826" stroke="#2C2C2C" stroke-miterlimit="10" stroke-linecap="round"/>
<path d="M58.0002 35.8438C56.6825 36.2073 55.4187 36.4935 54.2012 36.7101" stroke="#2C2C2C" stroke-miterlimit="10" stroke-linecap="round"/>
<path d="M36.4155 34.9318C33.4487 33.5162 32 32 32 32" stroke="#2C2C2C" stroke-miterlimit="10" stroke-linecap="round"/>
<path d="M45.3428 46.3623C45.3907 46.3624 45.5039 46.3924 45.6045 46.4736C45.6965 46.5479 45.7284 46.6228 45.7285 46.6895C45.7285 46.7833 45.6693 46.9416 45.5391 47.0957C45.4788 47.167 45.4176 47.2188 45.3711 47.249C45.3608 47.2557 45.352 47.2594 45.3457 47.2627C45.2489 47.2579 45.1373 47.2346 45.0586 47.1816C45.0206 47.156 44.9886 47.1228 44.9639 47.0742C44.9384 47.0241 44.9102 46.9367 44.9102 46.79C44.9103 46.5958 44.9966 46.5079 45.1162 46.4424C45.1836 46.4055 45.2566 46.3815 45.3154 46.3672C45.3237 46.3652 45.3316 46.3639 45.3389 46.3623H45.3428ZM45.3906 46.3525H45.3887L45.3877 46.3516C45.39 46.3512 45.3918 46.3517 45.3926 46.3516L45.3906 46.3525Z" fill="#A7E1B6" stroke="#2C2C2C"/>
<path d="M43 51.1046C43 51.1046 45.433 47.6897 52 51.7651" stroke="#2C2C2C" stroke-miterlimit="10" stroke-linecap="round"/>
</g>
<defs>
<filter id="filter0_f_40000879_11380" x="22.0989" y="85.5989" width="45.2749" height="25.4946" filterUnits="userSpaceOnUse" color-interpolation-filters="sRGB">
<feFlood flood-opacity="0" result="BackgroundImageFix"/>
<feBlend mode="normal" in="SourceGraphic" in2="BackgroundImageFix" result="shape"/>
<feGaussianBlur stdDeviation="4.45055" result="effect1_foregroundBlur_40000879_11380"/>
</filter>
<filter id="filter1_g_40000879_11380" x="7.10098" y="19.6" width="76.798" height="45.8" filterUnits="userSpaceOnUse" color-interpolation-filters="sRGB">
<feFlood flood-opacity="0" result="BackgroundImageFix"/>
<feBlend mode="normal" in="SourceGraphic" in2="BackgroundImageFix" result="shape"/>
<feTurbulence type="fractalNoise" baseFrequency="0.66666668653488159 0.66666668653488159" numOctaves="3" seed="7043" />
<feDisplacementMap in="shape" scale="0.80000001192092896" xChannelSelector="R" yChannelSelector="G" result="displacedImage" width="100%" height="100%" />
<feMerge result="effect1_texture_40000879_11380">
<feMergeNode in="displacedImage"/>
</feMerge>
</filter>
<filter id="filter2_g_40000879_11380" x="31.1" y="31.1" width="27.8" height="21.5651" filterUnits="userSpaceOnUse" color-interpolation-filters="sRGB">
<feFlood flood-opacity="0" result="BackgroundImageFix"/>
<feBlend mode="normal" in="SourceGraphic" in2="BackgroundImageFix" result="shape"/>
<feTurbulence type="fractalNoise" baseFrequency="0.66666668653488159 0.66666668653488159" numOctaves="3" seed="7043" />
<feDisplacementMap in="shape" scale="0.80000001192092896" xChannelSelector="R" yChannelSelector="G" result="displacedImage" width="100%" height="100%" />
<feMerge result="effect1_texture_40000879_11380">
<feMergeNode in="displacedImage"/>
</feMerge>
</filter>
</defs>
</svg>
