<svg width="90" height="117" viewBox="0 0 90 117" fill="none" xmlns="http://www.w3.org/2000/svg">
<g filter="url(#filter0_f_40000879_11460)">
<ellipse cx="44.7363" cy="98.3462" rx="13.7363" ry="3.84615" fill="#9C9C9C"/>
</g>
<path d="M45.5027 14C67.7928 14.0003 86.6302 32.9711 89.4226 58.0098C89.8068 61.4368 88.7487 64.8471 86.5144 67.3672C84.4661 69.6764 81.5767 70.9998 78.5838 71H74.1062C74.611 71.8829 74.9011 72.9044 74.9012 73.9941V82.6689C74.9012 86.0068 72.195 88.7126 68.8572 88.7129H51.0164L47.1766 94.8213H47.1892L46.657 95.6641C45.7206 97.148 43.4634 97.1977 42.448 95.8027L42.3543 95.6631L37.9851 88.7129H21.4939C18.1561 88.7127 15.45 86.0068 15.45 82.6689V73.9941C15.4501 72.9044 15.7402 71.8829 16.2449 71H12.4139C9.60694 71 6.89241 69.8293 4.87675 67.7871L4.48319 67.3672C2.24763 64.8536 1.19897 61.4433 1.57499 58.0107V58.0098C4.37501 32.971 23.2124 14 45.5027 14Z" fill="#A7E1B6"/>
<path d="M45.5027 14L45.5027 13.5H45.5027V14ZM89.4226 58.0098L88.9257 58.0652L88.9258 58.0655L89.4226 58.0098ZM86.5144 67.3672L86.8885 67.699L86.8886 67.6989L86.5144 67.3672ZM78.5838 71V71.5H78.5838L78.5838 71ZM74.1062 71V70.5H73.2444L73.6722 71.2482L74.1062 71ZM74.9012 73.9941H75.4012V73.9941L74.9012 73.9941ZM68.8572 88.7129V89.2129H68.8573L68.8572 88.7129ZM51.0164 88.7129V88.2129H50.7401L50.5931 88.4468L51.0164 88.7129ZM47.1766 94.8213L46.7532 94.5552L46.2717 95.3213H47.1766V94.8213ZM47.1892 94.8213L47.612 95.0883L48.0964 94.3213H47.1892V94.8213ZM46.657 95.6641L46.2343 95.3971L46.2342 95.3972L46.657 95.6641ZM42.448 95.8027L42.0329 96.0814L42.0382 96.0893L42.0438 96.097L42.448 95.8027ZM42.3543 95.6631L41.931 95.9292L41.935 95.9355L41.9392 95.9418L42.3543 95.6631ZM37.9851 88.7129L38.4085 88.4468L38.2614 88.2129H37.9851V88.7129ZM21.4939 88.7129L21.4939 89.2129H21.4939V88.7129ZM15.45 73.9941L14.95 73.9941V73.9941H15.45ZM16.2449 71L16.679 71.2482L17.1067 70.5H16.2449V71ZM12.4139 71L12.4139 71.5H12.4139V71ZM4.87675 67.7871L4.5118 68.1291L4.52089 68.1383L4.87675 67.7871ZM4.48319 67.3672L4.10945 67.6996L4.11837 67.7091L4.48319 67.3672ZM1.57499 58.0107L2.07202 58.0652L2.07499 58.038V58.0107H1.57499ZM1.57499 58.0098L1.07809 57.9542L1.07499 57.9819V58.0098H1.57499ZM45.5027 14L45.5027 14.5C67.4885 14.5003 86.1556 33.2271 88.9257 58.0652L89.4226 58.0098L89.9196 57.9543C87.1047 32.7151 68.0971 13.5003 45.5027 13.5L45.5027 14ZM89.4226 58.0098L88.9258 58.0655C89.2946 61.3559 88.2779 64.6244 86.1403 67.0355L86.5144 67.3672L86.8886 67.6989C89.2195 65.0698 90.3189 61.5176 89.9195 57.9541L89.4226 58.0098ZM86.5144 67.3672L86.1404 67.0354C84.1835 69.2414 81.4287 70.4998 78.5837 70.5L78.5838 71L78.5838 71.5C81.7247 71.4998 84.7486 70.1113 86.8885 67.699L86.5144 67.3672ZM78.5838 71V70.5H74.1062V71V71.5H78.5838V71ZM74.1062 71L73.6722 71.2482C74.1352 72.058 74.4011 72.9943 74.4012 73.9942L74.9012 73.9941L75.4012 73.9941C75.4011 72.8145 75.0868 71.7078 74.5403 70.7518L74.1062 71ZM74.9012 73.9941H74.4012V82.6689H74.9012H75.4012V73.9941H74.9012ZM74.9012 82.6689H74.4012C74.4012 85.7306 71.9189 88.2127 68.8572 88.2129L68.8572 88.7129L68.8573 89.2129C72.4711 89.2126 75.4012 86.283 75.4012 82.6689H74.9012ZM68.8572 88.7129V88.2129H51.0164V88.7129V89.2129H68.8572V88.7129ZM51.0164 88.7129L50.5931 88.4468L46.7532 94.5552L47.1766 94.8213L47.5999 95.0874L51.4397 88.979L51.0164 88.7129ZM47.1766 94.8213V95.3213H47.1892V94.8213V94.3213H47.1766V94.8213ZM47.1892 94.8213L46.7665 94.5543L46.2343 95.3971L46.657 95.6641L47.0798 95.931L47.612 95.0883L47.1892 94.8213ZM46.657 95.6641L46.2342 95.3972C45.4888 96.5784 43.6625 96.6216 42.8523 95.5085L42.448 95.8027L42.0438 96.097C43.2643 97.7737 45.9523 97.7177 47.0799 95.9309L46.657 95.6641ZM42.448 95.8027L42.8632 95.524L42.7694 95.3844L42.3543 95.6631L41.9392 95.9418L42.0329 96.0814L42.448 95.8027ZM42.3543 95.6631L42.7776 95.397L38.4085 88.4468L37.9851 88.7129L37.5618 88.979L41.931 95.9292L42.3543 95.6631ZM37.9851 88.7129V88.2129H21.4939V88.7129V89.2129H37.9851V88.7129ZM21.4939 88.7129L21.494 88.2129C18.4322 88.2127 15.95 85.7306 15.95 82.6689H15.45H14.95C14.95 86.283 17.88 89.2127 21.4939 89.2129L21.4939 88.7129ZM15.45 82.6689H15.95V73.9941H15.45H14.95V82.6689H15.45ZM15.45 73.9941L15.95 73.9942C15.95 72.9943 16.216 72.058 16.679 71.2482L16.2449 71L15.8108 70.7518C15.2643 71.7078 14.9501 72.8145 14.95 73.9941L15.45 73.9941ZM16.2449 71V70.5H12.4139V71V71.5H16.2449V71ZM12.4139 71L12.4139 70.5C9.74648 70.5 7.15847 69.387 5.2326 67.4359L4.87675 67.7871L4.52089 68.1383C6.62635 70.2715 9.46739 71.5 12.4139 71.5L12.4139 71ZM4.87675 67.7871L5.24157 67.4452L4.84801 67.0253L4.48319 67.3672L4.11837 67.7091L4.51193 68.129L4.87675 67.7871ZM4.48319 67.3672L4.8568 67.0349C2.71923 64.6315 1.71072 61.3633 2.07202 58.0652L1.57499 58.0107L1.07796 57.9563C0.687213 61.5233 1.77603 65.0757 4.10958 67.6995L4.48319 67.3672ZM1.57499 58.0107H2.07499V58.0098H1.57499H1.07499V58.0107H1.57499ZM1.57499 58.0098L2.07189 58.0653C4.8495 33.227 23.5167 14.5 45.5027 14.5V14V13.5C22.9081 13.5 3.90052 32.715 1.07809 57.9542L1.57499 58.0098Z" fill="#5C5C5C"/>
<g filter="url(#filter1_g_40000879_11460)">
<path d="M78.6105 64.5H12.3956C9.76721 64.5 7.70364 61.8232 8.03502 58.789C10.445 37.1844 26.3059 20.5 45.5031 20.5C64.7003 20.5 80.5611 37.1844 82.9636 58.789C83.3025 61.8232 81.2314 64.5 78.603 64.5H78.6105Z" fill="#EEEDEB"/>
<path d="M78.6105 64.5H12.3956C9.76721 64.5 7.70364 61.8232 8.03502 58.789C10.445 37.1844 26.3059 20.5 45.5031 20.5C64.7003 20.5 80.5611 37.1844 82.9636 58.789C83.3025 61.8232 81.2314 64.5 78.603 64.5H78.6105Z" stroke="#2C2C2C" stroke-miterlimit="10"/>
</g>
<g filter="url(#filter2_g_40000879_11460)">
<path d="M44.3231 41.9629C44.3231 45.9003 43.4453 49.0914 39.6812 49.0914C36.1543 49.0914 34.5332 45.9003 34.5332 41.9629C34.5332 38.0256 35.7273 34.8345 39.6812 34.8345C43.1211 34.8345 44.3231 38.0256 44.3231 41.9629Z" stroke="#2C2C2C" stroke-miterlimit="10"/>
<path d="M54.1131 41.9629C54.1131 45.9003 53.2354 49.0914 49.4712 49.0914C45.9443 49.0914 44.3232 45.9003 44.3232 41.9629C44.3232 38.0256 45.5173 34.8345 49.4712 34.8345C52.9112 34.8345 54.1131 38.0256 54.1131 41.9629Z" stroke="#2C2C2C" stroke-miterlimit="10"/>
<path d="M44.3475 48.782C44.3475 48.782 43.3906 48.8693 43.3906 49.7425C43.3906 50.6157 44.0707 50.7427 44.387 50.7427C44.7033 50.7427 45.2569 50.1632 45.2569 49.6393C45.2569 49.1154 44.7112 48.7899 44.3475 48.7899V48.782Z" fill="#2C2C2C"/>
<path d="M32.7383 44.5032C32.7383 44.5032 40.0056 46.8847 44.4182 43.3601" stroke="#2C2C2C" stroke-miterlimit="10" stroke-linecap="round"/>
<path d="M56.1066 44.5032C56.1066 44.5032 48.8393 46.8847 44.4268 43.3601" stroke="#2C2C2C" stroke-miterlimit="10" stroke-linecap="round"/>
<path d="M44.7378 37.7075C42.334 37.7075 39.8954 37.6463 37.4916 37.5151L34.1037 37.3315C33.2328 37.2878 32.4141 36.8682 31.8654 36.195C31.3167 35.513 31.0729 34.63 31.2035 33.7645L31.8828 29.2707C32.1006 27.8282 33.3112 26.7179 34.7656 26.6304L36.6468 26.5168C39.3293 26.3594 42.0553 26.272 44.7465 26.272C47.4377 26.272 50.1637 26.3507 52.8462 26.5168L54.7274 26.6304C56.1819 26.7179 57.3925 27.8282 57.6102 29.2707L58.2808 33.7645C58.4114 34.63 58.1676 35.513 57.6189 36.195C57.0702 36.8769 56.2515 37.2878 55.3806 37.3315L51.9927 37.5151C49.5889 37.6463 47.1503 37.7075 44.7465 37.7075H44.7378Z" fill="#EEEDEB"/>
<path d="M44.7383 26.7177C47.4295 26.7177 50.1206 26.7964 52.8118 26.9538L54.693 27.0674C55.9472 27.1461 56.9836 28.0903 57.1665 29.3405L57.8371 33.8343C58.0723 35.3993 56.9139 36.8156 55.3462 36.903L51.9583 37.0866C49.5545 37.2177 47.1421 37.2789 44.7383 37.2789C42.3345 37.2789 39.922 37.2177 37.5182 37.0866L34.1303 36.903C32.5626 36.8156 31.4043 35.3993 31.6394 33.8343L32.3101 29.3405C32.5017 28.0903 33.5294 27.1461 34.7835 27.0674L36.6647 26.9538C39.3559 26.7964 42.0471 26.7177 44.7383 26.7177ZM44.7383 25.8435C42.0384 25.8435 39.3037 25.9221 36.6125 26.0883L34.7313 26.2019C33.0765 26.2981 31.6917 27.5658 31.4478 29.2181L30.7772 33.7032C30.6292 34.6911 30.9079 35.6965 31.5349 36.4746C32.162 37.244 33.0939 37.7248 34.0868 37.7773L37.4747 37.9609C39.8872 38.092 42.3258 38.1532 44.7383 38.1532C47.1508 38.1532 49.5981 38.092 52.0019 37.9609L55.3898 37.7773C56.3827 37.7248 57.3146 37.2527 57.9416 36.4746C58.5687 35.6965 58.8474 34.6911 58.6993 33.7032L58.0287 29.2094C57.7849 27.5658 56.4001 26.2981 54.7453 26.1932L52.8641 26.0795C50.1729 25.9221 47.4382 25.8347 44.7383 25.8347V25.8435Z" fill="#2C2C2C"/>
<path d="M55.4737 26.8292C56.7634 26.9045 57.8293 27.9306 58.0174 29.2674L58.707 34.1061C58.9489 35.7912 57.7576 37.3256 56.1454 37.4103L52.6612 37.608C47.7171 37.8904 42.764 37.8904 37.811 37.608L34.3357 37.4103C32.8579 37.335 31.7383 36.0453 31.7383 34.5485C31.7383 34.6992 31.801 34.8121 31.8637 34.878C31.9353 34.9722 32.0697 35.0757 32.2846 35.0851L36.1092 35.2828C38.7693 35.4146 41.4653 35.4805 44.1344 35.4805C46.8035 35.4805 49.4995 35.4146 52.1597 35.2828L55.9842 35.0851C56.1991 35.0663 56.3245 34.9722 56.4052 34.878C56.4768 34.7933 56.5574 34.6427 56.5216 34.4544L55.7603 27.2905C55.7155 27.0363 55.4916 26.8292 55.2229 26.8198H55.4737V26.8292Z" fill="#2C2C2C"/>
<path d="M39.7383 54.178C39.7383 54.178 43.8058 51.4117 49.0059 53.818" stroke="#2C2C2C" stroke-miterlimit="10" stroke-linecap="round"/>
</g>
<g filter="url(#filter3_g_40000879_11460)">
<path d="M59 39.6631V51.3062" stroke="#2C2C2C" stroke-miterlimit="10" stroke-linecap="round"/>
<path d="M61.416 39V45.4895" stroke="#2C2C2C" stroke-miterlimit="10" stroke-linecap="round"/>
<path d="M63.8418 40.1843V42.638" stroke="#2C2C2C" stroke-miterlimit="10" stroke-linecap="round"/>
</g>
<defs>
<filter id="filter0_f_40000879_11460" x="22.0989" y="85.5989" width="45.2749" height="25.4946" filterUnits="userSpaceOnUse" color-interpolation-filters="sRGB">
<feFlood flood-opacity="0" result="BackgroundImageFix"/>
<feBlend mode="normal" in="SourceGraphic" in2="BackgroundImageFix" result="shape"/>
<feGaussianBlur stdDeviation="4.45055" result="effect1_foregroundBlur_40000879_11460"/>
</filter>
<filter id="filter1_g_40000879_11460" x="7.10098" y="19.6" width="76.798" height="45.8" filterUnits="userSpaceOnUse" color-interpolation-filters="sRGB">
<feFlood flood-opacity="0" result="BackgroundImageFix"/>
<feBlend mode="normal" in="SourceGraphic" in2="BackgroundImageFix" result="shape"/>
<feTurbulence type="fractalNoise" baseFrequency="0.66666668653488159 0.66666668653488159" numOctaves="3" seed="7043" />
<feDisplacementMap in="shape" scale="0.80000001192092896" xChannelSelector="R" yChannelSelector="G" result="displacedImage" width="100%" height="100%" />
<feMerge result="effect1_texture_40000879_11460">
<feMergeNode in="displacedImage"/>
</feMerge>
</filter>
<filter id="filter2_g_40000879_11460" x="30.3383" y="25.4347" width="28.8" height="29.6433" filterUnits="userSpaceOnUse" color-interpolation-filters="sRGB">
<feFlood flood-opacity="0" result="BackgroundImageFix"/>
<feBlend mode="normal" in="SourceGraphic" in2="BackgroundImageFix" result="shape"/>
<feTurbulence type="fractalNoise" baseFrequency="0.66666668653488159 0.66666668653488159" numOctaves="3" seed="7043" />
<feDisplacementMap in="shape" scale="0.80000001192092896" xChannelSelector="R" yChannelSelector="G" result="displacedImage" width="100%" height="100%" />
<feMerge result="effect1_texture_40000879_11460">
<feMergeNode in="displacedImage"/>
</feMerge>
</filter>
<filter id="filter3_g_40000879_11460" x="58.1" y="38.1" width="6.6418" height="14.1062" filterUnits="userSpaceOnUse" color-interpolation-filters="sRGB">
<feFlood flood-opacity="0" result="BackgroundImageFix"/>
<feBlend mode="normal" in="SourceGraphic" in2="BackgroundImageFix" result="shape"/>
<feTurbulence type="fractalNoise" baseFrequency="0.66666668653488159 0.66666668653488159" numOctaves="3" seed="7043" />
<feDisplacementMap in="shape" scale="0.80000001192092896" xChannelSelector="R" yChannelSelector="G" result="displacedImage" width="100%" height="100%" />
<feMerge result="effect1_texture_40000879_11460">
<feMergeNode in="displacedImage"/>
</feMerge>
</filter>
</defs>
</svg>
