<svg width="90" height="117" viewBox="0 0 90 117" fill="none" xmlns="http://www.w3.org/2000/svg">
<g filter="url(#filter0_f_40000879_11364)">
<ellipse cx="44.7363" cy="98.3462" rx="13.7363" ry="3.84615" fill="#9C9C9C"/>
</g>
<path d="M45.5027 14C67.7928 14.0003 86.6302 32.9711 89.4226 58.0098C89.8068 61.4368 88.7487 64.8471 86.5144 67.3672C84.4661 69.6764 81.5767 70.9998 78.5838 71H74.1062C74.611 71.8829 74.9011 72.9044 74.9012 73.9941V82.6689C74.9012 86.0068 72.195 88.7126 68.8572 88.7129H51.0164L47.1766 94.8213H47.1892L46.657 95.6641C45.7206 97.148 43.4634 97.1977 42.448 95.8027L42.3543 95.6631L37.9851 88.7129H21.4939C18.1561 88.7127 15.45 86.0068 15.45 82.6689V73.9941C15.4501 72.9044 15.7402 71.8829 16.2449 71H12.4139C9.60694 71 6.89241 69.8293 4.87675 67.7871L4.48319 67.3672C2.24763 64.8536 1.19897 61.4433 1.57499 58.0107V58.0098C4.37501 32.971 23.2124 14 45.5027 14Z" fill="#A7E1B6"/>
<path d="M45.5027 14L45.5027 13.5H45.5027V14ZM89.4226 58.0098L88.9257 58.0652L88.9258 58.0655L89.4226 58.0098ZM86.5144 67.3672L86.8885 67.699L86.8886 67.6989L86.5144 67.3672ZM78.5838 71V71.5H78.5838L78.5838 71ZM74.1062 71V70.5H73.2444L73.6722 71.2482L74.1062 71ZM74.9012 73.9941H75.4012V73.9941L74.9012 73.9941ZM68.8572 88.7129V89.2129H68.8573L68.8572 88.7129ZM51.0164 88.7129V88.2129H50.7401L50.5931 88.4468L51.0164 88.7129ZM47.1766 94.8213L46.7532 94.5552L46.2717 95.3213H47.1766V94.8213ZM47.1892 94.8213L47.612 95.0883L48.0964 94.3213H47.1892V94.8213ZM46.657 95.6641L46.2343 95.3971L46.2342 95.3972L46.657 95.6641ZM42.448 95.8027L42.0329 96.0814L42.0382 96.0893L42.0438 96.097L42.448 95.8027ZM42.3543 95.6631L41.931 95.9292L41.935 95.9355L41.9392 95.9418L42.3543 95.6631ZM37.9851 88.7129L38.4085 88.4468L38.2614 88.2129H37.9851V88.7129ZM21.4939 88.7129L21.4939 89.2129H21.4939V88.7129ZM15.45 73.9941L14.95 73.9941V73.9941H15.45ZM16.2449 71L16.679 71.2482L17.1067 70.5H16.2449V71ZM12.4139 71L12.4139 71.5H12.4139V71ZM4.87675 67.7871L4.5118 68.1291L4.52089 68.1383L4.87675 67.7871ZM4.48319 67.3672L4.10945 67.6996L4.11837 67.7091L4.48319 67.3672ZM1.57499 58.0107L2.07202 58.0652L2.07499 58.038V58.0107H1.57499ZM1.57499 58.0098L1.07809 57.9542L1.07499 57.9819V58.0098H1.57499ZM45.5027 14L45.5027 14.5C67.4885 14.5003 86.1556 33.2271 88.9257 58.0652L89.4226 58.0098L89.9196 57.9543C87.1047 32.7151 68.0971 13.5003 45.5027 13.5L45.5027 14ZM89.4226 58.0098L88.9258 58.0655C89.2946 61.3559 88.2779 64.6244 86.1403 67.0355L86.5144 67.3672L86.8886 67.6989C89.2195 65.0698 90.3189 61.5176 89.9195 57.9541L89.4226 58.0098ZM86.5144 67.3672L86.1404 67.0354C84.1835 69.2414 81.4287 70.4998 78.5837 70.5L78.5838 71L78.5838 71.5C81.7247 71.4998 84.7486 70.1113 86.8885 67.699L86.5144 67.3672ZM78.5838 71V70.5H74.1062V71V71.5H78.5838V71ZM74.1062 71L73.6722 71.2482C74.1352 72.058 74.4011 72.9943 74.4012 73.9942L74.9012 73.9941L75.4012 73.9941C75.4011 72.8145 75.0868 71.7078 74.5403 70.7518L74.1062 71ZM74.9012 73.9941H74.4012V82.6689H74.9012H75.4012V73.9941H74.9012ZM74.9012 82.6689H74.4012C74.4012 85.7306 71.9189 88.2127 68.8572 88.2129L68.8572 88.7129L68.8573 89.2129C72.4711 89.2126 75.4012 86.283 75.4012 82.6689H74.9012ZM68.8572 88.7129V88.2129H51.0164V88.7129V89.2129H68.8572V88.7129ZM51.0164 88.7129L50.5931 88.4468L46.7532 94.5552L47.1766 94.8213L47.5999 95.0874L51.4397 88.979L51.0164 88.7129ZM47.1766 94.8213V95.3213H47.1892V94.8213V94.3213H47.1766V94.8213ZM47.1892 94.8213L46.7665 94.5543L46.2343 95.3971L46.657 95.6641L47.0798 95.931L47.612 95.0883L47.1892 94.8213ZM46.657 95.6641L46.2342 95.3972C45.4888 96.5784 43.6625 96.6216 42.8523 95.5085L42.448 95.8027L42.0438 96.097C43.2643 97.7737 45.9523 97.7177 47.0799 95.9309L46.657 95.6641ZM42.448 95.8027L42.8632 95.524L42.7694 95.3844L42.3543 95.6631L41.9392 95.9418L42.0329 96.0814L42.448 95.8027ZM42.3543 95.6631L42.7776 95.397L38.4085 88.4468L37.9851 88.7129L37.5618 88.979L41.931 95.9292L42.3543 95.6631ZM37.9851 88.7129V88.2129H21.4939V88.7129V89.2129H37.9851V88.7129ZM21.4939 88.7129L21.494 88.2129C18.4322 88.2127 15.95 85.7306 15.95 82.6689H15.45H14.95C14.95 86.283 17.88 89.2127 21.4939 89.2129L21.4939 88.7129ZM15.45 82.6689H15.95V73.9941H15.45H14.95V82.6689H15.45ZM15.45 73.9941L15.95 73.9942C15.95 72.9943 16.216 72.058 16.679 71.2482L16.2449 71L15.8108 70.7518C15.2643 71.7078 14.9501 72.8145 14.95 73.9941L15.45 73.9941ZM16.2449 71V70.5H12.4139V71V71.5H16.2449V71ZM12.4139 71L12.4139 70.5C9.74648 70.5 7.15847 69.387 5.2326 67.4359L4.87675 67.7871L4.52089 68.1383C6.62635 70.2715 9.46739 71.5 12.4139 71.5L12.4139 71ZM4.87675 67.7871L5.24157 67.4452L4.84801 67.0253L4.48319 67.3672L4.11837 67.7091L4.51193 68.129L4.87675 67.7871ZM4.48319 67.3672L4.8568 67.0349C2.71923 64.6315 1.71072 61.3633 2.07202 58.0652L1.57499 58.0107L1.07796 57.9563C0.687213 61.5233 1.77603 65.0757 4.10958 67.6995L4.48319 67.3672ZM1.57499 58.0107H2.07499V58.0098H1.57499H1.07499V58.0107H1.57499ZM1.57499 58.0098L2.07189 58.0653C4.8495 33.227 23.5167 14.5 45.5027 14.5V14V13.5C22.9081 13.5 3.90052 32.715 1.07809 57.9542L1.57499 58.0098Z" fill="#5C5C5C"/>
<g filter="url(#filter1_g_40000879_11364)">
<path d="M78.6105 64.5H12.3956C9.76721 64.5 7.70364 61.8232 8.03502 58.789C10.445 37.1844 26.3059 20.5 45.5031 20.5C64.7003 20.5 80.5611 37.1844 82.9636 58.789C83.3025 61.8232 81.2314 64.5 78.603 64.5H78.6105Z" fill="#EEEDEB"/>
<path d="M78.6105 64.5H12.3956C9.76721 64.5 7.70364 61.8232 8.03502 58.789C10.445 37.1844 26.3059 20.5 45.5031 20.5C64.7003 20.5 80.5611 37.1844 82.9636 58.789C83.3025 61.8232 81.2314 64.5 78.603 64.5H78.6105Z" stroke="#2C2C2C" stroke-miterlimit="10"/>
</g>
<g filter="url(#filter2_g_40000879_11364)">
<path d="M55.0121 43.288C55.0121 47.0359 54.1765 50.0734 50.5936 50.0734C47.2364 50.0734 45.6934 47.0359 45.6934 43.288C45.6934 39.5402 46.83 36.5027 50.5936 36.5027C53.8679 36.5027 55.0121 39.5402 55.0121 43.288Z" fill="#FBFBFB" stroke="#2C2C2C" stroke-miterlimit="10"/>
<path d="M45.7015 43.288C45.7015 47.0359 44.866 50.0734 41.283 50.0734C37.9259 50.0734 36.3828 47.0359 36.3828 43.288C36.3828 39.5402 37.5194 36.5027 41.283 36.5027C44.5574 36.5027 45.7015 39.5402 45.7015 43.288Z" fill="#FBFBFB" stroke="#2C2C2C" stroke-miterlimit="10"/>
<path d="M45.7246 50.2865C45.7686 50.2866 45.8762 50.3151 45.9727 50.3929C46.0607 50.4641 46.0898 50.5343 46.0898 50.5951C46.0897 50.6831 46.0334 50.8345 45.9072 50.9838C45.849 51.0526 45.7904 51.1024 45.7461 51.1312C45.7377 51.1367 45.7301 51.1399 45.7246 51.1429C45.6322 51.1379 45.5278 51.1152 45.4541 51.0658C45.4183 51.0417 45.3876 51.0109 45.3643 50.9652C45.3403 50.9182 45.3135 50.8346 45.3135 50.6927C45.3135 50.5081 45.3944 50.4253 45.5088 50.3627C45.5734 50.3273 45.6434 50.3042 45.7002 50.2904C45.707 50.2887 45.7136 50.2878 45.7197 50.2865H45.7246ZM45.7725 50.2767H45.7705L45.7695 50.2758C45.7719 50.2754 45.7736 50.2759 45.7744 50.2758L45.7725 50.2767Z" fill="#A7E1B6" stroke="#2C2C2C"/>
<path d="M34.8623 35.4295C34.8623 35.4295 36.1495 31.7723 40.0109 32.9511" stroke="#2C2C2C" stroke-miterlimit="10" stroke-linecap="round"/>
</g>
<g filter="url(#filter3_g_40000879_11364)">
<path d="M45.2871 43.854V43.8774C45.2871 44.6183 42.9101 48.3229 42.0986 49.5708C41.9756 49.7658 41.6806 49.7658 41.5494 49.5708C40.7215 48.3307 38.2871 44.6417 38.2871 43.854C38.2871 42.6763 39.074 41.717 40.0494 41.717C40.9019 41.717 41.615 42.458 41.7789 43.4251C41.9428 42.458 42.6642 41.717 43.5002 41.717C44.4756 41.717 45.2707 42.6841 45.2707 43.854H45.2871Z" fill="#2C2C2C"/>
</g>
<g filter="url(#filter4_g_40000879_11364)">
<path d="M55.2871 43.854V43.8774C55.2871 44.6183 52.9101 48.3229 52.0986 49.5708C51.9756 49.7658 51.6806 49.7658 51.5494 49.5708C50.7215 48.3307 48.2871 44.6417 48.2871 43.854C48.2871 42.6763 49.074 41.717 50.0494 41.717C50.9019 41.717 51.615 42.458 51.7789 43.4251C51.9428 42.458 52.6642 41.717 53.5002 41.717C54.4756 41.717 55.2707 42.6841 55.2707 43.854H55.2871Z" fill="#2C2C2C"/>
</g>
<g filter="url(#filter5_g_40000879_11364)">
<path d="M30.3166 47.9995L24 52.4122" stroke="#2C2C2C" stroke-miterlimit="10" stroke-linecap="round"/>
<path d="M33.9944 47.9995L27.6777 52.4122" stroke="#2C2C2C" stroke-miterlimit="10" stroke-linecap="round"/>
<path d="M38.3743 47.9995L32.0654 52.4122" stroke="#2C2C2C" stroke-miterlimit="10" stroke-linecap="round"/>
</g>
<defs>
<filter id="filter0_f_40000879_11364" x="22.0989" y="85.5989" width="45.2749" height="25.4945" filterUnits="userSpaceOnUse" color-interpolation-filters="sRGB">
<feFlood flood-opacity="0" result="BackgroundImageFix"/>
<feBlend mode="normal" in="SourceGraphic" in2="BackgroundImageFix" result="shape"/>
<feGaussianBlur stdDeviation="4.45055" result="effect1_foregroundBlur_40000879_11364"/>
</filter>
<filter id="filter1_g_40000879_11364" x="7.10098" y="19.6" width="76.798" height="45.8" filterUnits="userSpaceOnUse" color-interpolation-filters="sRGB">
<feFlood flood-opacity="0" result="BackgroundImageFix"/>
<feBlend mode="normal" in="SourceGraphic" in2="BackgroundImageFix" result="shape"/>
<feTurbulence type="fractalNoise" baseFrequency="0.66666668653488159 0.66666668653488159" numOctaves="3" seed="7043" />
<feDisplacementMap in="shape" scale="0.80000001192092896" xChannelSelector="R" yChannelSelector="G" result="displacedImage" width="100%" height="100%" />
<feMerge result="effect1_texture_40000879_11364">
<feMergeNode in="displacedImage"/>
</feMerge>
</filter>
<filter id="filter2_g_40000879_11364" x="33.9623" y="31.8169" width="21.9494" height="20.2281" filterUnits="userSpaceOnUse" color-interpolation-filters="sRGB">
<feFlood flood-opacity="0" result="BackgroundImageFix"/>
<feBlend mode="normal" in="SourceGraphic" in2="BackgroundImageFix" result="shape"/>
<feTurbulence type="fractalNoise" baseFrequency="0.66666668653488159 0.66666668653488159" numOctaves="3" seed="7043" />
<feDisplacementMap in="shape" scale="0.80000001192092896" xChannelSelector="R" yChannelSelector="G" result="displacedImage" width="100%" height="100%" />
<feMerge result="effect1_texture_40000879_11364">
<feMergeNode in="displacedImage"/>
</feMerge>
</filter>
<filter id="filter3_g_40000879_11364" x="37.8871" y="41.317" width="7.8" height="8.8" filterUnits="userSpaceOnUse" color-interpolation-filters="sRGB">
<feFlood flood-opacity="0" result="BackgroundImageFix"/>
<feBlend mode="normal" in="SourceGraphic" in2="BackgroundImageFix" result="shape"/>
<feTurbulence type="fractalNoise" baseFrequency="0.66666668653488159 0.66666668653488159" numOctaves="3" seed="7043" />
<feDisplacementMap in="shape" scale="0.80000001192092896" xChannelSelector="R" yChannelSelector="G" result="displacedImage" width="100%" height="100%" />
<feMerge result="effect1_texture_40000879_11364">
<feMergeNode in="displacedImage"/>
</feMerge>
</filter>
<filter id="filter4_g_40000879_11364" x="47.8871" y="41.317" width="7.8" height="8.8" filterUnits="userSpaceOnUse" color-interpolation-filters="sRGB">
<feFlood flood-opacity="0" result="BackgroundImageFix"/>
<feBlend mode="normal" in="SourceGraphic" in2="BackgroundImageFix" result="shape"/>
<feTurbulence type="fractalNoise" baseFrequency="0.66666668653488159 0.66666668653488159" numOctaves="3" seed="7043" />
<feDisplacementMap in="shape" scale="0.80000001192092896" xChannelSelector="R" yChannelSelector="G" result="displacedImage" width="100%" height="100%" />
<feMerge result="effect1_texture_40000879_11364">
<feMergeNode in="displacedImage"/>
</feMerge>
</filter>
<filter id="filter5_g_40000879_11364" x="23.1" y="47.0995" width="16.174" height="6.21272" filterUnits="userSpaceOnUse" color-interpolation-filters="sRGB">
<feFlood flood-opacity="0" result="BackgroundImageFix"/>
<feBlend mode="normal" in="SourceGraphic" in2="BackgroundImageFix" result="shape"/>
<feTurbulence type="fractalNoise" baseFrequency="0.66666668653488159 0.66666668653488159" numOctaves="3" seed="7043" />
<feDisplacementMap in="shape" scale="0.80000001192092896" xChannelSelector="R" yChannelSelector="G" result="displacedImage" width="100%" height="100%" />
<feMerge result="effect1_texture_40000879_11364">
<feMergeNode in="displacedImage"/>
</feMerge>
</filter>
</defs>
</svg>
