<svg width="90" height="117" viewBox="0 0 90 117" fill="none" xmlns="http://www.w3.org/2000/svg">
<g filter="url(#filter0_f_40000879_11444)">
<ellipse cx="44.7363" cy="98.3462" rx="13.7363" ry="3.84615" fill="#9C9C9C"/>
</g>
<path d="M45.5027 14C67.7928 14.0003 86.6302 32.9711 89.4226 58.0098C89.8068 61.4368 88.7487 64.8471 86.5144 67.3672C84.4661 69.6764 81.5767 70.9998 78.5838 71H74.1062C74.611 71.8829 74.9011 72.9044 74.9012 73.9941V82.6689C74.9012 86.0068 72.195 88.7126 68.8572 88.7129H51.0164L47.1766 94.8213H47.1892L46.657 95.6641C45.7206 97.148 43.4634 97.1977 42.448 95.8027L42.3543 95.6631L37.9851 88.7129H21.4939C18.1561 88.7127 15.45 86.0068 15.45 82.6689V73.9941C15.4501 72.9044 15.7402 71.8829 16.2449 71H12.4139C9.60694 71 6.89241 69.8293 4.87675 67.7871L4.48319 67.3672C2.24763 64.8536 1.19897 61.4433 1.57499 58.0107V58.0098C4.37501 32.971 23.2124 14 45.5027 14Z" fill="#A7E1B6"/>
<path d="M45.5027 14L45.5027 13.5H45.5027V14ZM89.4226 58.0098L88.9257 58.0652L88.9258 58.0655L89.4226 58.0098ZM86.5144 67.3672L86.8885 67.699L86.8886 67.6989L86.5144 67.3672ZM78.5838 71V71.5H78.5838L78.5838 71ZM74.1062 71V70.5H73.2444L73.6722 71.2482L74.1062 71ZM74.9012 73.9941H75.4012V73.9941L74.9012 73.9941ZM68.8572 88.7129V89.2129H68.8573L68.8572 88.7129ZM51.0164 88.7129V88.2129H50.7401L50.5931 88.4468L51.0164 88.7129ZM47.1766 94.8213L46.7532 94.5552L46.2717 95.3213H47.1766V94.8213ZM47.1892 94.8213L47.612 95.0883L48.0964 94.3213H47.1892V94.8213ZM46.657 95.6641L46.2343 95.3971L46.2342 95.3972L46.657 95.6641ZM42.448 95.8027L42.0329 96.0814L42.0382 96.0893L42.0438 96.097L42.448 95.8027ZM42.3543 95.6631L41.931 95.9292L41.935 95.9355L41.9392 95.9418L42.3543 95.6631ZM37.9851 88.7129L38.4085 88.4468L38.2614 88.2129H37.9851V88.7129ZM21.4939 88.7129L21.4939 89.2129H21.4939V88.7129ZM15.45 73.9941L14.95 73.9941V73.9941H15.45ZM16.2449 71L16.679 71.2482L17.1067 70.5H16.2449V71ZM12.4139 71L12.4139 71.5H12.4139V71ZM4.87675 67.7871L4.5118 68.1291L4.52089 68.1383L4.87675 67.7871ZM4.48319 67.3672L4.10945 67.6996L4.11837 67.7091L4.48319 67.3672ZM1.57499 58.0107L2.07202 58.0652L2.07499 58.038V58.0107H1.57499ZM1.57499 58.0098L1.07809 57.9542L1.07499 57.9819V58.0098H1.57499ZM45.5027 14L45.5027 14.5C67.4885 14.5003 86.1556 33.2271 88.9257 58.0652L89.4226 58.0098L89.9196 57.9543C87.1047 32.7151 68.0971 13.5003 45.5027 13.5L45.5027 14ZM89.4226 58.0098L88.9258 58.0655C89.2946 61.3559 88.2779 64.6244 86.1403 67.0355L86.5144 67.3672L86.8886 67.6989C89.2195 65.0698 90.3189 61.5176 89.9195 57.9541L89.4226 58.0098ZM86.5144 67.3672L86.1404 67.0354C84.1835 69.2414 81.4287 70.4998 78.5837 70.5L78.5838 71L78.5838 71.5C81.7247 71.4998 84.7486 70.1113 86.8885 67.699L86.5144 67.3672ZM78.5838 71V70.5H74.1062V71V71.5H78.5838V71ZM74.1062 71L73.6722 71.2482C74.1352 72.058 74.4011 72.9943 74.4012 73.9942L74.9012 73.9941L75.4012 73.9941C75.4011 72.8145 75.0868 71.7078 74.5403 70.7518L74.1062 71ZM74.9012 73.9941H74.4012V82.6689H74.9012H75.4012V73.9941H74.9012ZM74.9012 82.6689H74.4012C74.4012 85.7306 71.9189 88.2127 68.8572 88.2129L68.8572 88.7129L68.8573 89.2129C72.4711 89.2126 75.4012 86.283 75.4012 82.6689H74.9012ZM68.8572 88.7129V88.2129H51.0164V88.7129V89.2129H68.8572V88.7129ZM51.0164 88.7129L50.5931 88.4468L46.7532 94.5552L47.1766 94.8213L47.5999 95.0874L51.4397 88.979L51.0164 88.7129ZM47.1766 94.8213V95.3213H47.1892V94.8213V94.3213H47.1766V94.8213ZM47.1892 94.8213L46.7665 94.5543L46.2343 95.3971L46.657 95.6641L47.0798 95.931L47.612 95.0883L47.1892 94.8213ZM46.657 95.6641L46.2342 95.3972C45.4888 96.5784 43.6625 96.6216 42.8523 95.5085L42.448 95.8027L42.0438 96.097C43.2643 97.7737 45.9523 97.7177 47.0799 95.9309L46.657 95.6641ZM42.448 95.8027L42.8632 95.524L42.7694 95.3844L42.3543 95.6631L41.9392 95.9418L42.0329 96.0814L42.448 95.8027ZM42.3543 95.6631L42.7776 95.397L38.4085 88.4468L37.9851 88.7129L37.5618 88.979L41.931 95.9292L42.3543 95.6631ZM37.9851 88.7129V88.2129H21.4939V88.7129V89.2129H37.9851V88.7129ZM21.4939 88.7129L21.494 88.2129C18.4322 88.2127 15.95 85.7306 15.95 82.6689H15.45H14.95C14.95 86.283 17.88 89.2127 21.4939 89.2129L21.4939 88.7129ZM15.45 82.6689H15.95V73.9941H15.45H14.95V82.6689H15.45ZM15.45 73.9941L15.95 73.9942C15.95 72.9943 16.216 72.058 16.679 71.2482L16.2449 71L15.8108 70.7518C15.2643 71.7078 14.9501 72.8145 14.95 73.9941L15.45 73.9941ZM16.2449 71V70.5H12.4139V71V71.5H16.2449V71ZM12.4139 71L12.4139 70.5C9.74648 70.5 7.15847 69.387 5.2326 67.4359L4.87675 67.7871L4.52089 68.1383C6.62635 70.2715 9.46739 71.5 12.4139 71.5L12.4139 71ZM4.87675 67.7871L5.24157 67.4452L4.84801 67.0253L4.48319 67.3672L4.11837 67.7091L4.51193 68.129L4.87675 67.7871ZM4.48319 67.3672L4.8568 67.0349C2.71923 64.6315 1.71072 61.3633 2.07202 58.0652L1.57499 58.0107L1.07796 57.9563C0.687213 61.5233 1.77603 65.0757 4.10958 67.6995L4.48319 67.3672ZM1.57499 58.0107H2.07499V58.0098H1.57499H1.07499V58.0107H1.57499ZM1.57499 58.0098L2.07189 58.0653C4.8495 33.227 23.5167 14.5 45.5027 14.5V14V13.5C22.9081 13.5 3.90052 32.715 1.07809 57.9542L1.57499 58.0098Z" fill="#5C5C5C"/>
<g filter="url(#filter1_g_40000879_11444)">
<path d="M78.6105 64.5H12.3956C9.76721 64.5 7.70364 61.8232 8.03502 58.789C10.445 37.1844 26.3059 20.5 45.5031 20.5C64.7003 20.5 80.5611 37.1844 82.9636 58.789C83.3025 61.8232 81.2314 64.5 78.603 64.5H78.6105Z" fill="#EEEDEB"/>
<path d="M78.6105 64.5H12.3956C9.76721 64.5 7.70364 61.8232 8.03502 58.789C10.445 37.1844 26.3059 20.5 45.5031 20.5C64.7003 20.5 80.5611 37.1844 82.9636 58.789C83.3025 61.8232 81.2314 64.5 78.603 64.5H78.6105Z" stroke="#2C2C2C" stroke-miterlimit="10"/>
</g>
<g filter="url(#filter2_g_40000879_11444)">
<path d="M54.8138 39.4992C54.8138 43.247 53.9783 46.2846 50.3953 46.2846C47.0382 46.2846 45.4951 43.247 45.4951 39.4992C45.4951 35.7514 46.6317 32.7139 50.3953 32.7139C53.6697 32.7139 54.8138 35.7514 54.8138 39.4992Z" fill="#FBFBFB" stroke="#2C2C2C" stroke-miterlimit="10"/>
<path d="M45.5033 39.4992C45.5033 43.247 44.6678 46.2846 41.0848 46.2846C37.7277 46.2846 36.1846 43.247 36.1846 39.4992C36.1846 35.7514 37.3212 32.7139 41.0848 32.7139C44.3591 32.7139 45.5033 35.7514 45.5033 39.4992Z" fill="#FBFBFB" stroke="#2C2C2C" stroke-miterlimit="10"/>
<path d="M43.3014 39.6882C43.3014 41.7661 42.8422 43.4512 40.855 43.4512C38.9958 43.4512 38.1377 41.7661 38.1377 39.6882C38.1377 37.6103 38.77 35.9253 40.855 35.9253C42.6691 35.9253 43.3014 37.6103 43.3014 39.6882Z" fill="#2C2C2C"/>
<path d="M52.6129 39.6882C52.6129 41.7661 52.1537 43.4512 50.1666 43.4512C48.3073 43.4512 47.4492 41.7661 47.4492 39.6882C47.4492 37.6103 48.0815 35.9253 50.1666 35.9253C51.9806 35.9253 52.6129 37.6103 52.6129 39.6882Z" fill="#2C2C2C"/>
<path d="M45.5264 46.4978C45.5703 46.4979 45.678 46.5264 45.7744 46.6042C45.8624 46.6754 45.8916 46.7456 45.8916 46.8064C45.8915 46.8944 45.8351 47.0459 45.709 47.1951C45.6507 47.2639 45.5922 47.3137 45.5479 47.3425C45.5394 47.348 45.5319 47.3512 45.5264 47.3542C45.4339 47.3492 45.3295 47.3265 45.2559 47.2771C45.2201 47.253 45.1893 47.2222 45.166 47.1765C45.1421 47.1295 45.1152 47.0459 45.1152 46.9041C45.1153 46.7194 45.1962 46.6366 45.3105 46.574C45.3752 46.5386 45.4452 46.5155 45.502 46.5017C45.5088 46.5 45.5154 46.4991 45.5215 46.4978H45.5264ZM45.5742 46.488H45.5723L45.5713 46.4871C45.5737 46.4867 45.5754 46.4872 45.5762 46.4871L45.5742 46.488Z" fill="#A7E1B6" stroke="#2C2C2C"/>
<path d="M34.6641 31.6407C34.6641 31.6407 35.9512 27.9835 39.8127 29.1623" stroke="#2C2C2C" stroke-miterlimit="10" stroke-linecap="round"/>
<path d="M50.9985 49.9282H40.2397C39.9218 49.9282 39.6641 50.187 39.6641 50.5061C39.6641 50.8253 39.9218 51.084 40.2397 51.084H50.9985C51.3164 51.084 51.5742 50.8253 51.5742 50.5061C51.5742 50.187 51.3164 49.9282 50.9985 49.9282Z" fill="white" stroke="#2C2C2C" stroke-miterlimit="10" stroke-linecap="round"/>
</g>
<defs>
<filter id="filter0_f_40000879_11444" x="22.0989" y="85.5989" width="45.2749" height="25.4946" filterUnits="userSpaceOnUse" color-interpolation-filters="sRGB">
<feFlood flood-opacity="0" result="BackgroundImageFix"/>
<feBlend mode="normal" in="SourceGraphic" in2="BackgroundImageFix" result="shape"/>
<feGaussianBlur stdDeviation="4.45055" result="effect1_foregroundBlur_40000879_11444"/>
</filter>
<filter id="filter1_g_40000879_11444" x="7.10098" y="19.6" width="76.798" height="45.8" filterUnits="userSpaceOnUse" color-interpolation-filters="sRGB">
<feFlood flood-opacity="0" result="BackgroundImageFix"/>
<feBlend mode="normal" in="SourceGraphic" in2="BackgroundImageFix" result="shape"/>
<feTurbulence type="fractalNoise" baseFrequency="0.66666668653488159 0.66666668653488159" numOctaves="3" seed="7043" />
<feDisplacementMap in="shape" scale="0.80000001192092896" xChannelSelector="R" yChannelSelector="G" result="displacedImage" width="100%" height="100%" />
<feMerge result="effect1_texture_40000879_11444">
<feMergeNode in="displacedImage"/>
</feMerge>
</filter>
<filter id="filter2_g_40000879_11444" x="33.7641" y="28.028" width="21.9494" height="23.956" filterUnits="userSpaceOnUse" color-interpolation-filters="sRGB">
<feFlood flood-opacity="0" result="BackgroundImageFix"/>
<feBlend mode="normal" in="SourceGraphic" in2="BackgroundImageFix" result="shape"/>
<feTurbulence type="fractalNoise" baseFrequency="0.66666668653488159 0.66666668653488159" numOctaves="3" seed="7043" />
<feDisplacementMap in="shape" scale="0.80000001192092896" xChannelSelector="R" yChannelSelector="G" result="displacedImage" width="100%" height="100%" />
<feMerge result="effect1_texture_40000879_11444">
<feMergeNode in="displacedImage"/>
</feMerge>
</filter>
</defs>
</svg>
