<svg width="34" height="27" viewBox="0 0 34 27" fill="none" xmlns="http://www.w3.org/2000/svg">
<path d="M17.2148 1C25.8273 1.00021 32.9697 6.89468 32.9697 14.3311C32.9697 16.1468 32.5425 17.8792 31.7666 19.4521C30.6798 21.6615 30.4744 24.1295 31 26.5H3.43359C3.96157 24.1294 3.75688 21.6584 2.66895 19.4463L2.52734 19.1494C1.84104 17.6563 1.46586 16.027 1.46582 14.3311C1.46582 6.89482 8.60183 1 17.2148 1Z" fill="#93D1E0"/>
<path d="M17.2148 1L17.2149 0.5H17.2148V1ZM32.9697 14.3311L33.4697 14.3311V14.3311H32.9697ZM31.7666 19.4521L31.3182 19.231L31.3179 19.2314L31.7666 19.4521ZM31 26.5V27H31.623L31.4881 26.3918L31 26.5ZM3.43359 26.5L2.94555 26.3913L2.80999 27H3.43359V26.5ZM2.66895 19.4463L2.21762 19.6616L2.22027 19.667L2.66895 19.4463ZM2.52734 19.1494L2.07299 19.3583L2.07605 19.3647L2.52734 19.1494ZM1.46582 14.3311H0.96582V14.3311L1.46582 14.3311ZM17.2148 1L17.2148 1.5C25.6366 1.50021 32.4697 7.24914 32.4697 14.3311H32.9697H33.4697C33.4697 6.54022 26.018 0.500219 17.2149 0.5L17.2148 1ZM32.9697 14.3311L32.4697 14.331C32.4697 16.0671 32.0615 17.7241 31.3182 19.231L31.7666 19.4521L32.215 19.6733C33.0235 18.0343 33.4697 16.2265 33.4697 14.3311L32.9697 14.3311ZM31.7666 19.4521L31.3179 19.2314C30.1756 21.5537 29.9645 24.1393 30.5119 26.6082L31 26.5L31.4881 26.3918C30.9844 24.1197 31.184 21.7693 32.2153 19.6728L31.7666 19.4521ZM31 26.5V26H3.43359V26.5V27H31V26.5ZM3.43359 26.5L3.92164 26.6087C4.47159 24.1394 4.26111 21.5507 3.11762 19.2256L2.66895 19.4463L2.22027 19.667C3.25265 21.7661 3.45155 24.1193 2.94555 26.3913L3.43359 26.5ZM2.66895 19.4463L3.12024 19.231L2.97864 18.9342L2.52734 19.1494L2.07605 19.3647L2.21765 19.6615L2.66895 19.4463ZM2.52734 19.1494L2.98165 18.9406C2.32436 17.5106 1.96586 15.9524 1.96582 14.331L1.46582 14.3311L0.96582 14.3311C0.965859 16.1017 1.35773 17.802 2.07304 19.3582L2.52734 19.1494ZM1.46582 14.3311H1.96582C1.96582 7.24904 8.79282 1.5 17.2148 1.5V1V0.5C8.41085 0.5 0.96582 6.5406 0.96582 14.3311H1.46582Z" fill="#2C2C2C"/>
<path d="M17.2098 14.598C17.2098 17.1333 16.6419 19.196 14.221 19.196C11.9494 19.196 10.9033 17.1408 10.9033 14.598C10.9033 12.0552 11.673 10 14.221 10C16.4402 10 17.2098 12.0552 17.2098 14.598Z" fill="#FBFBFB" stroke="#2C2C2C" stroke-miterlimit="10"/>
<path d="M23.5168 14.598C23.5168 14.688 23.5168 14.7705 23.5168 14.8605C23.5018 16.0456 23.3449 17.1033 22.919 17.8833C22.0672 17.9733 21.3349 18.4684 20.909 19.1735C20.7895 19.1885 20.6624 19.196 20.5354 19.196C18.2639 19.196 17.2178 17.1408 17.2178 14.598C17.2178 12.0552 17.9949 10 20.5354 10C22.6724 10 23.4645 11.9052 23.5243 14.3205C23.5243 14.4105 23.5243 14.508 23.5243 14.598H23.5168Z" fill="#FBFBFB" stroke="#2C2C2C" stroke-miterlimit="10"/>
<path d="M17.2099 14.852C17.2099 16.2622 16.896 17.4023 15.551 17.4023C14.2882 17.4023 13.7129 16.2622 13.7129 14.852C13.7129 13.4419 14.1388 12.3018 15.551 12.3018C16.7839 12.3018 17.2099 13.4419 17.2099 14.852Z" fill="#2C2C2C"/>
<path d="M23.5165 14.5971C23.5165 16.0073 23.2027 17.1474 21.8577 17.1474C20.5949 17.1474 20.0195 16.0073 20.0195 14.5971C20.0195 13.187 20.4454 12.0469 21.8577 12.0469C23.0906 12.0469 23.5165 13.187 23.5165 14.5971Z" fill="#2C2C2C"/>
<path d="M17.3594 19.2568C17.7176 19.3202 17.896 19.5059 17.9844 19.6914C18.0789 19.8899 18.0672 20.0794 18.041 20.1709C18.0228 20.1809 17.9902 20.1973 17.9355 20.2139C17.8077 20.2525 17.6339 20.2723 17.4561 20.2539C17.0827 20.2153 16.8855 20.0526 16.8438 19.8145C16.8115 19.63 16.8438 19.5377 16.8682 19.4932C16.8958 19.4429 16.9456 19.3959 17.0264 19.3535C17.1086 19.3103 17.2033 19.2829 17.2852 19.2676C17.3142 19.2622 17.3397 19.2591 17.3594 19.2568Z" fill="#EEEDEB" stroke="#2C2C2C"/>
<path d="M22.9102 17.8829C23.0073 17.8679 23.1119 17.8604 23.209 17.8604C24.2103 17.8604 25.0845 18.4079 25.5478 19.218" stroke="#2C2C2C" stroke-miterlimit="10" stroke-linecap="round"/>
<path d="M20.9018 19.1729L20.8711 19.2191" stroke="#2C2C2C" stroke-miterlimit="10" stroke-linecap="round"/>
</svg>
