<svg width="90" height="117" viewBox="0 0 90 117" fill="none" xmlns="http://www.w3.org/2000/svg">
<g clip-path="url(#clip0_40000879_11177)">
<g filter="url(#filter0_f_40000879_11177)">
<ellipse cx="44.7363" cy="106.846" rx="13.7363" ry="3.84615" fill="#9C9C9C"/>
</g>
<path d="M44.7451 2C49.7752 2.00003 54.2873 3.86135 57.0469 7.02246C57.9739 6.8108 58.9448 6.70118 59.9521 6.70117C66.8658 6.70117 74.232 12.053 76.3711 18.6309C76.6923 19.609 76.8894 20.5872 76.9697 21.5508C82.1094 23.7921 86.4902 29.6479 86.4902 37.4961C86.4902 40.2775 85.8327 42.796 84.5625 44.8984C85.8255 47.001 86.4902 49.5202 86.4902 52.3018C86.4901 60.1497 82.1093 66.0048 76.9697 68.2461C76.8894 69.2097 76.6923 70.1878 76.3711 71.166C75.3076 74.4363 72.9515 77.4025 70.002 79.5596C72.7924 80.0947 74.9012 82.5478 74.9014 85.4941V94.1689C74.9014 97.5068 72.1953 100.213 68.8574 100.213H51.0166L47.1768 106.321H47.1895L46.6572 107.164C45.7207 108.648 43.4635 108.698 42.4482 107.303L42.3545 107.163L37.9854 100.213H21.4941C18.1563 100.213 15.4502 97.5068 15.4502 94.1689V85.4941C15.4504 82.7778 17.2425 80.4793 19.709 79.7178C16.6565 77.5487 14.209 74.5174 13.1191 71.166C12.7979 70.1878 12.5998 69.2097 12.5195 68.2461C7.38013 66.0047 3.00016 60.1496 3 52.3018C3 49.5202 3.65742 47.001 4.92773 44.8984C3.66479 42.796 3.00007 40.2775 3 37.4961C3 29.6481 7.38001 23.7922 12.5195 21.5508C12.5999 20.5872 12.7979 19.6091 13.1191 18.6309C15.2583 12.053 22.6244 6.70117 29.5381 6.70117C30.5454 6.70119 31.5163 6.81079 32.4434 7.02246C35.203 3.86139 39.7151 2 44.7451 2Z" fill="#FEE888"/>
<path d="M44.7451 2L44.7451 1.5H44.7451V2ZM57.0469 7.02246L56.6702 7.35128L56.8668 7.57645L57.1582 7.50992L57.0469 7.02246ZM59.9521 6.70117V6.20117H59.9521L59.9521 6.70117ZM76.3711 18.6309L75.8956 18.7855L75.896 18.7868L76.3711 18.6309ZM76.9697 21.5508L76.4715 21.5923L76.4963 21.8898L76.7699 22.0091L76.9697 21.5508ZM86.4902 37.4961L86.9902 37.4961V37.4961H86.4902ZM84.5625 44.8984L84.1345 44.6399L83.9788 44.8977L84.1339 45.1559L84.5625 44.8984ZM86.4902 52.3018L86.9902 52.3018V52.3018H86.4902ZM76.9697 68.2461L76.7699 67.7878L76.4962 67.9071L76.4715 68.2046L76.9697 68.2461ZM76.3711 71.166L75.896 71.01L75.8956 71.0114L76.3711 71.166ZM70.002 79.5596L69.7068 79.156L68.7794 79.8342L69.9078 80.0506L70.002 79.5596ZM74.9014 85.4941H75.4014V85.4941L74.9014 85.4941ZM68.8574 100.213V100.713H68.8574L68.8574 100.213ZM51.0166 100.213V99.7129H50.7403L50.5933 99.9468L51.0166 100.213ZM47.1768 106.321L46.7534 106.055L46.2719 106.821H47.1768V106.321ZM47.1895 106.321L47.6122 106.588L48.0966 105.821H47.1895V106.321ZM46.6572 107.164L46.2345 106.897L46.2344 106.897L46.6572 107.164ZM42.4482 107.303L42.0331 107.581L42.0384 107.589L42.044 107.597L42.4482 107.303ZM42.3545 107.163L41.9312 107.429L41.9352 107.436L41.9394 107.442L42.3545 107.163ZM37.9854 100.213L38.4087 99.9468L38.2616 99.7129H37.9854V100.213ZM21.4941 100.213L21.4941 100.713H21.4941V100.213ZM15.4502 85.4941L14.9502 85.4941V85.4941H15.4502ZM19.709 79.7178L19.8565 80.1955L20.8241 79.8968L19.9986 79.3102L19.709 79.7178ZM13.1191 71.166L13.5946 71.0114L13.5942 71.01L13.1191 71.166ZM12.5195 68.2461L13.0178 68.2046L12.993 67.9071L12.7194 67.7878L12.5195 68.2461ZM3 52.3018H2.5V52.3018L3 52.3018ZM4.92773 44.8984L5.35569 45.157L5.51145 44.8992L5.35635 44.641L4.92773 44.8984ZM3 37.4961H2.5V37.4961L3 37.4961ZM12.5195 21.5508L12.7194 22.0091L12.993 21.8898L13.0178 21.5923L12.5195 21.5508ZM13.1191 18.6309L13.5942 18.7868L13.5946 18.7855L13.1191 18.6309ZM29.5381 6.70117L29.5381 6.20117H29.5381V6.70117ZM32.4434 7.02246L32.3321 7.50992L32.6234 7.57645L32.82 7.35129L32.4434 7.02246ZM44.7451 2L44.7451 2.5C49.6597 2.50003 54.0231 4.319 56.6702 7.35128L57.0469 7.02246L57.4235 6.69364C54.5515 3.4037 49.8906 1.50003 44.7451 1.5L44.7451 2ZM57.0469 7.02246L57.1582 7.50992C58.0477 7.30682 58.9812 7.20118 59.9522 7.20117L59.9521 6.70117L59.9521 6.20117C58.9084 6.20118 57.9001 6.31478 56.9356 6.535L57.0469 7.02246ZM59.9521 6.70117V7.20117C63.2845 7.20117 66.7538 8.49359 69.6582 10.6038C72.5626 12.7141 74.8645 15.6149 75.8956 18.7855L76.3711 18.6309L76.8466 18.4762C75.7386 15.069 73.2879 12.005 70.246 9.79482C67.2041 7.58468 63.5335 6.20117 59.9521 6.20117V6.70117ZM76.3711 18.6309L75.896 18.7868C76.2053 19.7286 76.3944 20.6684 76.4715 21.5923L76.9697 21.5508L77.468 21.5092C77.3844 20.506 77.1793 19.4894 76.8461 18.4749L76.3711 18.6309ZM76.9697 21.5508L76.7699 22.0091C81.7184 24.1671 85.9902 29.837 85.9902 37.4961H86.4902H86.9902C86.9902 29.4588 82.5003 23.4171 77.1696 21.0925L76.9697 21.5508ZM86.4902 37.4961L85.9902 37.4961C85.9902 40.1983 85.3518 42.6251 84.1345 44.6399L84.5625 44.8984L84.9905 45.157C86.3137 42.9668 86.9902 40.3566 86.9902 37.4961L86.4902 37.4961ZM84.5625 44.8984L84.1339 45.1559C85.345 47.1721 85.9902 49.6003 85.9902 52.3018H86.4902H86.9902C86.9902 49.4401 86.306 46.8299 84.9911 44.641L84.5625 44.8984ZM86.4902 52.3018L85.9902 52.3017C85.9901 59.9606 81.7184 65.6298 76.7699 67.7878L76.9697 68.2461L77.1696 68.7044C82.5002 66.3798 86.9901 60.3388 86.9902 52.3018L86.4902 52.3018ZM76.9697 68.2461L76.4715 68.2046C76.3944 69.1285 76.2053 70.0682 75.896 71.01L76.3711 71.166L76.8461 71.322C77.1793 70.3074 77.3844 69.2909 77.468 68.2876L76.9697 68.2461ZM76.3711 71.166L75.8956 71.0114C74.8704 74.1639 72.5882 77.0488 69.7068 79.156L70.002 79.5596L70.2971 79.9632C73.3149 77.7562 75.7448 74.7087 76.8466 71.3206L76.3711 71.166ZM70.002 79.5596L69.9078 80.0506C72.4672 80.5415 74.4012 82.7923 74.4014 85.4942L74.9014 85.4941L75.4014 85.4941C75.4012 82.3033 73.1175 79.6479 70.0961 79.0685L70.002 79.5596ZM74.9014 85.4941H74.4014V94.1689H74.9014H75.4014V85.4941H74.9014ZM74.9014 94.1689H74.4014C74.4014 97.2307 71.9192 99.7128 68.8574 99.7129L68.8574 100.213L68.8574 100.713C72.4714 100.713 75.4014 97.783 75.4014 94.1689H74.9014ZM68.8574 100.213V99.7129H51.0166V100.213V100.713H68.8574V100.213ZM51.0166 100.213L50.5933 99.9468L46.7534 106.055L47.1768 106.321L47.6001 106.587L51.4399 100.479L51.0166 100.213ZM47.1768 106.321V106.821H47.1895V106.321V105.821H47.1768V106.321ZM47.1895 106.321L46.7667 106.054L46.2345 106.897L46.6572 107.164L47.08 107.431L47.6122 106.588L47.1895 106.321ZM46.6572 107.164L46.2344 106.897C45.489 108.078 43.6626 108.122 42.8525 107.009L42.4482 107.303L42.044 107.597C43.2645 109.274 45.9525 109.218 47.0801 107.431L46.6572 107.164ZM42.4482 107.303L42.8634 107.024L42.7696 106.884L42.3545 107.163L41.9394 107.442L42.0331 107.581L42.4482 107.303ZM42.3545 107.163L42.7778 106.897L38.4087 99.9468L37.9854 100.213L37.562 100.479L41.9312 107.429L42.3545 107.163ZM37.9854 100.213V99.7129H21.4941V100.213V100.713H37.9854V100.213ZM21.4941 100.213L21.4942 99.7129C18.4324 99.7127 15.9502 97.2306 15.9502 94.1689H15.4502H14.9502C14.9502 97.783 17.8802 100.713 21.4941 100.713L21.4941 100.213ZM15.4502 94.1689H15.9502V85.4941H15.4502H14.9502V94.1689H15.4502ZM15.4502 85.4941L15.9502 85.4942C15.9503 83.0032 17.5937 80.8942 19.8565 80.1955L19.709 79.7178L19.5615 79.24C16.8914 80.0645 14.9504 82.5524 14.9502 85.4941L15.4502 85.4941ZM19.709 79.7178L19.9986 79.3102C17.0164 77.191 14.6453 74.2422 13.5946 71.0114L13.1191 71.166L12.6437 71.3206C13.7727 74.7925 16.2967 77.9063 19.4194 80.1254L19.709 79.7178ZM13.1191 71.166L13.5942 71.01C13.2848 70.0678 13.0948 69.1282 13.0178 68.2046L12.5195 68.2461L12.0213 68.2876C12.1049 69.2913 12.311 70.3077 12.6441 71.322L13.1191 71.166ZM12.5195 68.2461L12.7194 67.7878C7.77109 65.6298 3.50015 59.9605 3.5 52.3017L3 52.3018L2.5 52.3018C2.50016 60.3386 6.98916 66.3797 12.3197 68.7044L12.5195 68.2461ZM3 52.3018H3.5C3.5 49.5993 4.13837 47.1719 5.35569 45.157L4.92773 44.8984L4.49978 44.6399C3.17648 46.8302 2.5 49.4411 2.5 52.3018H3ZM4.92773 44.8984L5.35635 44.641C4.14527 42.6248 3.50007 40.1973 3.5 37.4961L3 37.4961L2.5 37.4961C2.50007 40.3576 3.18431 42.9671 4.49912 45.1559L4.92773 44.8984ZM3 37.4961H3.5C3.5 29.8371 7.77099 24.1671 12.7194 22.0091L12.5195 21.5508L12.3197 21.0925C6.98903 23.4172 2.5 29.459 2.5 37.4961H3ZM12.5195 21.5508L13.0178 21.5923C13.0948 20.6687 13.2848 19.729 13.5942 18.7868L13.1191 18.6309L12.6441 18.4749C12.3111 19.4891 12.1049 20.5056 12.0213 21.5092L12.5195 21.5508ZM13.1191 18.6309L13.5946 18.7855C14.6257 15.6149 16.9277 12.7141 19.8321 10.6038C22.7365 8.4936 26.2057 7.20117 29.5381 7.20117V6.70117V6.20117C25.9568 6.20117 22.2862 7.58469 19.2443 9.79483C16.2024 12.005 13.7517 15.069 12.6437 18.4762L13.1191 18.6309ZM29.5381 6.70117L29.5381 7.20117C30.509 7.20119 31.4425 7.30681 32.3321 7.50992L32.4434 7.02246L32.5547 6.53501C31.5901 6.31477 30.5818 6.2012 29.5381 6.20117L29.5381 6.70117ZM32.4434 7.02246L32.82 7.35129C35.4672 4.31904 39.8305 2.5 44.7451 2.5V2V1.5C39.5996 1.5 34.9388 3.40375 32.0667 6.69363L32.4434 7.02246Z" fill="#5C5C5C"/>
<path d="M53.6513 17.4909C57.8273 4.63453 31.6618 4.63453 35.8378 17.4909C31.6618 4.63453 10.49 20.0097 21.4263 27.96C10.49 20.0097 2.40088 44.8975 15.9216 44.8975C2.40088 44.8975 10.49 69.7854 21.4263 61.835C10.49 69.7854 31.6545 85.1605 35.8378 72.3041C31.6618 85.1605 57.8273 85.1605 53.6513 72.3041C57.8273 85.1605 78.9991 69.7854 68.0628 61.835C78.9991 69.7854 87.0882 44.8975 73.5674 44.8975C87.0882 44.8975 78.9991 20.0097 68.0628 27.96C78.9991 20.0097 57.8346 4.63453 53.6513 17.4909Z" fill="white"/>
<g filter="url(#filter1_g_40000879_11177)">
<path d="M53.6513 17.4909C57.8273 4.63453 31.6618 4.63453 35.8378 17.4909C31.6618 4.63453 10.49 20.0097 21.4263 27.96C10.49 20.0097 2.40088 44.8975 15.9216 44.8975C2.40088 44.8975 10.49 69.7854 21.4263 61.835C10.49 69.7854 31.6545 85.1605 35.8378 72.3041C31.6618 85.1605 57.8273 85.1605 53.6513 72.3041C57.8273 85.1605 78.9991 69.7854 68.0628 61.835C78.9991 69.7854 87.0882 44.8975 73.5674 44.8975C87.0882 44.8975 78.9991 20.0097 68.0628 27.96C78.9991 20.0097 57.8346 4.63453 53.6513 17.4909Z" fill="#EEEDEB"/>
<path d="M53.6513 17.4909C57.8273 4.63453 31.6618 4.63453 35.8378 17.4909C31.6618 4.63453 10.49 20.0097 21.4263 27.96C10.49 20.0097 2.40088 44.8975 15.9216 44.8975C2.40088 44.8975 10.49 69.7854 21.4263 61.835C10.49 69.7854 31.6545 85.1605 35.8378 72.3041C31.6618 85.1605 57.8273 85.1605 53.6513 72.3041C57.8273 85.1605 78.9991 69.7854 68.0628 61.835C78.9991 69.7854 87.0882 44.8975 73.5674 44.8975C87.0882 44.8975 78.9991 20.0097 68.0628 27.96C78.9991 20.0097 57.8346 4.63453 53.6513 17.4909Z" stroke="#2C2C2C" stroke-miterlimit="10"/>
</g>
<g filter="url(#filter2_g_40000879_11177)">
<path d="M44.496 40.7306V41.0147C44.496 41.1868 44.4875 41.3504 44.4875 41.5226C44.4789 41.7809 44.4617 42.0391 44.4446 42.2888C44.4446 42.3662 44.436 42.4437 44.4274 42.5212C44.1616 45.9303 42.961 48.4698 39.4706 48.4698C35.6457 48.4698 33.8877 45.0005 33.8877 40.7306C33.8877 39.7406 33.9563 38.785 34.1278 37.9155C35.7401 38.1221 37.4209 38.2685 39.1447 38.3718C40.7484 38.4751 42.3864 38.5267 44.0672 38.5267C44.1616 38.5354 44.2645 38.5354 44.3588 38.5354C44.4532 39.2327 44.496 39.9644 44.496 40.7306Z" fill="#FBFBFB" stroke="#2C2C2C" stroke-miterlimit="10"/>
<path d="M55.113 40.7306C55.113 40.8769 55.113 41.0233 55.1044 41.1696C55.0444 45.233 54.0239 48.4698 50.079 48.4698C46.1341 48.4698 44.4961 45.0005 44.4961 40.7306C44.4961 39.9644 44.539 39.2327 44.6333 38.5354C46.3142 38.5354 47.9522 38.4837 49.5559 38.389C51.3053 38.2943 52.9862 38.148 54.6156 37.9414H54.6242C54.7099 37.9414 54.7957 37.9327 54.8815 37.9155C55.0187 38.6473 55.0873 39.4393 55.1044 40.2657C55.113 40.4207 55.113 40.5756 55.113 40.7306Z" fill="#FBFBFB" stroke="#2C2C2C" stroke-miterlimit="10"/>
<path d="M44.933 47.4217C44.933 47.4217 48.5229 48.3885 47.0451 49.4784C45.5672 50.5621 44.6867 50.1496 44.0894 49.5153C43.7938 49.1951 43.4613 47.9205 43.7199 47.5818C43.9785 47.2431 44.933 47.4278 44.933 47.4278V47.4217Z" fill="#FEE888" stroke="#2C2C2C" stroke-miterlimit="10"/>
<path d="M44.3589 38.5354C44.2646 38.5354 44.1617 38.5354 44.0674 38.5268C42.3865 38.5268 40.7485 38.4752 39.1448 38.3719C37.4211 38.2685 35.7402 38.1222 34.1279 37.9156C34.6511 35.0403 36.1776 33 39.4707 33C42.5323 33 43.9559 35.333 44.3589 38.5354Z" stroke="#2C2C2C" stroke-miterlimit="10"/>
<path d="M54.881 37.9156C54.7952 37.9328 54.7094 37.9414 54.6237 37.9414H54.6151C52.9857 38.148 51.3048 38.2944 49.5554 38.3891C47.9517 38.4838 46.3137 38.5354 44.6328 38.5354C45.053 35.333 46.5624 33 50.0785 33C52.9428 33 54.375 35.0403 54.881 37.9156Z" stroke="#2C2C2C" stroke-miterlimit="10"/>
<path d="M44.3414 41.7636V41.7894C44.3414 42.6072 41.8544 46.6964 41.0054 48.0738C40.8767 48.289 40.568 48.289 40.4308 48.0738C39.5646 46.705 37.0176 42.6331 37.0176 41.7636C37.0176 40.4637 37.8409 39.4048 38.8614 39.4048C39.7533 39.4048 40.4994 40.2226 40.6709 41.2901C40.8424 40.2226 41.5971 39.4048 42.4718 39.4048C43.4924 39.4048 44.3242 40.4723 44.3242 41.7636H44.3414Z" fill="#2C2C2C"/>
<path d="M54.8726 41.7636V41.7894C54.8726 42.6072 52.3856 46.6964 51.5366 48.0738C51.408 48.289 51.0992 48.289 50.962 48.0738C50.0959 46.705 47.5488 42.6331 47.5488 41.7636C47.5488 40.4637 48.3721 39.4048 49.3926 39.4048C50.2845 39.4048 51.0306 40.2226 51.2021 41.2901C51.3737 40.2226 52.1283 39.4048 53.0031 39.4048C54.0236 39.4048 54.8555 40.4723 54.8555 41.7636H54.8726Z" fill="#2C2C2C"/>
</g>
<g filter="url(#filter3_g_40000879_11177)">
<path d="M26.6349 47.6025L19 52.9362" stroke="#2C2C2C" stroke-miterlimit="10" stroke-linecap="round"/>
<path d="M31.0803 47.6025L23.4453 52.9362" stroke="#2C2C2C" stroke-miterlimit="10" stroke-linecap="round"/>
<path d="M36.3745 47.6025L28.749 52.9362" stroke="#2C2C2C" stroke-miterlimit="10" stroke-linecap="round"/>
</g>
</g>
<defs>
<filter id="filter0_f_40000879_11177" x="22.0989" y="94.0989" width="45.2749" height="25.4945" filterUnits="userSpaceOnUse" color-interpolation-filters="sRGB">
<feFlood flood-opacity="0" result="BackgroundImageFix"/>
<feBlend mode="normal" in="SourceGraphic" in2="BackgroundImageFix" result="shape"/>
<feGaussianBlur stdDeviation="4.45055" result="effect1_foregroundBlur_40000879_11177"/>
</filter>
<filter id="filter1_g_40000879_11177" x="7.93789" y="6.94863" width="73.6135" height="75.8978" filterUnits="userSpaceOnUse" color-interpolation-filters="sRGB">
<feFlood flood-opacity="0" result="BackgroundImageFix"/>
<feBlend mode="normal" in="SourceGraphic" in2="BackgroundImageFix" result="shape"/>
<feTurbulence type="fractalNoise" baseFrequency="0.66666668653488159 0.66666668653488159" numOctaves="3" seed="7043" />
<feDisplacementMap in="shape" scale="0.80000001192092896" xChannelSelector="R" yChannelSelector="G" result="displacedImage" width="100%" height="100%" />
<feMerge result="effect1_texture_40000879_11177">
<feMergeNode in="displacedImage"/>
</feMerge>
</filter>
<filter id="filter2_g_40000879_11177" x="32.9877" y="32.1" width="23.0256" height="18.9487" filterUnits="userSpaceOnUse" color-interpolation-filters="sRGB">
<feFlood flood-opacity="0" result="BackgroundImageFix"/>
<feBlend mode="normal" in="SourceGraphic" in2="BackgroundImageFix" result="shape"/>
<feTurbulence type="fractalNoise" baseFrequency="0.66666668653488159 0.66666668653488159" numOctaves="3" seed="7043" />
<feDisplacementMap in="shape" scale="0.80000001192092896" xChannelSelector="R" yChannelSelector="G" result="displacedImage" width="100%" height="100%" />
<feMerge result="effect1_texture_40000879_11177">
<feMergeNode in="displacedImage"/>
</feMerge>
</filter>
<filter id="filter3_g_40000879_11177" x="18.1" y="46.7025" width="19.175" height="7.13374" filterUnits="userSpaceOnUse" color-interpolation-filters="sRGB">
<feFlood flood-opacity="0" result="BackgroundImageFix"/>
<feBlend mode="normal" in="SourceGraphic" in2="BackgroundImageFix" result="shape"/>
<feTurbulence type="fractalNoise" baseFrequency="0.66666668653488159 0.66666668653488159" numOctaves="3" seed="7043" />
<feDisplacementMap in="shape" scale="0.80000001192092896" xChannelSelector="R" yChannelSelector="G" result="displacedImage" width="100%" height="100%" />
<feMerge result="effect1_texture_40000879_11177">
<feMergeNode in="displacedImage"/>
</feMerge>
</filter>
<clipPath id="clip0_40000879_11177">
<rect width="90" height="117" fill="white"/>
</clipPath>
</defs>
</svg>
