<svg width="90" height="117" viewBox="0 0 90 117" fill="none" xmlns="http://www.w3.org/2000/svg">
<g clip-path="url(#clip0_40000879_11272)">
<g filter="url(#filter0_f_40000879_11272)">
<ellipse cx="44.7363" cy="106.846" rx="13.7363" ry="3.84615" fill="#9C9C9C"/>
</g>
<path d="M44.7451 2C49.7752 2.00003 54.2873 3.86135 57.0469 7.02246C57.9739 6.8108 58.9448 6.70118 59.9521 6.70117C66.8658 6.70117 74.232 12.053 76.3711 18.6309C76.6923 19.609 76.8894 20.5872 76.9697 21.5508C82.1094 23.7921 86.4902 29.6479 86.4902 37.4961C86.4902 40.2775 85.8327 42.796 84.5625 44.8984C85.8255 47.001 86.4902 49.5202 86.4902 52.3018C86.4901 60.1497 82.1093 66.0048 76.9697 68.2461C76.8894 69.2097 76.6923 70.1878 76.3711 71.166C75.3076 74.4363 72.9515 77.4025 70.002 79.5596C72.7924 80.0947 74.9012 82.5478 74.9014 85.4941V94.1689C74.9014 97.5068 72.1953 100.213 68.8574 100.213H51.0166L47.1768 106.321H47.1895L46.6572 107.164C45.7207 108.648 43.4635 108.698 42.4482 107.303L42.3545 107.163L37.9854 100.213H21.4941C18.1563 100.213 15.4502 97.5068 15.4502 94.1689V85.4941C15.4504 82.7778 17.2425 80.4793 19.709 79.7178C16.6565 77.5487 14.209 74.5174 13.1191 71.166C12.7979 70.1878 12.5998 69.2097 12.5195 68.2461C7.38013 66.0047 3.00016 60.1496 3 52.3018C3 49.5202 3.65742 47.001 4.92773 44.8984C3.66479 42.796 3.00007 40.2775 3 37.4961C3 29.6481 7.38001 23.7922 12.5195 21.5508C12.5999 20.5872 12.7979 19.6091 13.1191 18.6309C15.2583 12.053 22.6244 6.70117 29.5381 6.70117C30.5454 6.70119 31.5163 6.81079 32.4434 7.02246C35.203 3.86139 39.7151 2 44.7451 2Z" fill="#FEE888"/>
<path d="M44.7451 2L44.7451 1.5H44.7451V2ZM57.0469 7.02246L56.6702 7.35128L56.8668 7.57645L57.1582 7.50992L57.0469 7.02246ZM59.9521 6.70117V6.20117H59.9521L59.9521 6.70117ZM76.3711 18.6309L75.8956 18.7855L75.896 18.7868L76.3711 18.6309ZM76.9697 21.5508L76.4715 21.5923L76.4963 21.8898L76.7699 22.0091L76.9697 21.5508ZM86.4902 37.4961L86.9902 37.4961V37.4961H86.4902ZM84.5625 44.8984L84.1345 44.6399L83.9788 44.8977L84.1339 45.1559L84.5625 44.8984ZM86.4902 52.3018L86.9902 52.3018V52.3018H86.4902ZM76.9697 68.2461L76.7699 67.7878L76.4962 67.9071L76.4715 68.2046L76.9697 68.2461ZM76.3711 71.166L75.896 71.01L75.8956 71.0114L76.3711 71.166ZM70.002 79.5596L69.7068 79.156L68.7794 79.8342L69.9078 80.0506L70.002 79.5596ZM74.9014 85.4941H75.4014V85.4941L74.9014 85.4941ZM68.8574 100.213V100.713H68.8574L68.8574 100.213ZM51.0166 100.213V99.7129H50.7403L50.5933 99.9468L51.0166 100.213ZM47.1768 106.321L46.7534 106.055L46.2719 106.821H47.1768V106.321ZM47.1895 106.321L47.6122 106.588L48.0966 105.821H47.1895V106.321ZM46.6572 107.164L46.2345 106.897L46.2344 106.897L46.6572 107.164ZM42.4482 107.303L42.0331 107.581L42.0384 107.589L42.044 107.597L42.4482 107.303ZM42.3545 107.163L41.9312 107.429L41.9352 107.436L41.9394 107.442L42.3545 107.163ZM37.9854 100.213L38.4087 99.9468L38.2616 99.7129H37.9854V100.213ZM21.4941 100.213L21.4941 100.713H21.4941V100.213ZM15.4502 85.4941L14.9502 85.4941V85.4941H15.4502ZM19.709 79.7178L19.8565 80.1955L20.8241 79.8968L19.9986 79.3102L19.709 79.7178ZM13.1191 71.166L13.5946 71.0114L13.5942 71.01L13.1191 71.166ZM12.5195 68.2461L13.0178 68.2046L12.993 67.9071L12.7194 67.7878L12.5195 68.2461ZM3 52.3018H2.5V52.3018L3 52.3018ZM4.92773 44.8984L5.35569 45.157L5.51145 44.8992L5.35635 44.641L4.92773 44.8984ZM3 37.4961H2.5V37.4961L3 37.4961ZM12.5195 21.5508L12.7194 22.0091L12.993 21.8898L13.0178 21.5923L12.5195 21.5508ZM13.1191 18.6309L13.5942 18.7868L13.5946 18.7855L13.1191 18.6309ZM29.5381 6.70117L29.5381 6.20117H29.5381V6.70117ZM32.4434 7.02246L32.3321 7.50992L32.6234 7.57645L32.82 7.35129L32.4434 7.02246ZM44.7451 2L44.7451 2.5C49.6597 2.50003 54.0231 4.319 56.6702 7.35128L57.0469 7.02246L57.4235 6.69364C54.5515 3.4037 49.8906 1.50003 44.7451 1.5L44.7451 2ZM57.0469 7.02246L57.1582 7.50992C58.0477 7.30682 58.9812 7.20118 59.9522 7.20117L59.9521 6.70117L59.9521 6.20117C58.9084 6.20118 57.9001 6.31478 56.9356 6.535L57.0469 7.02246ZM59.9521 6.70117V7.20117C63.2845 7.20117 66.7538 8.49359 69.6582 10.6038C72.5626 12.7141 74.8645 15.6149 75.8956 18.7855L76.3711 18.6309L76.8466 18.4762C75.7386 15.069 73.2879 12.005 70.246 9.79482C67.2041 7.58468 63.5335 6.20117 59.9521 6.20117V6.70117ZM76.3711 18.6309L75.896 18.7868C76.2053 19.7286 76.3944 20.6684 76.4715 21.5923L76.9697 21.5508L77.468 21.5092C77.3844 20.506 77.1793 19.4894 76.8461 18.4749L76.3711 18.6309ZM76.9697 21.5508L76.7699 22.0091C81.7184 24.1671 85.9902 29.837 85.9902 37.4961H86.4902H86.9902C86.9902 29.4588 82.5003 23.4171 77.1696 21.0925L76.9697 21.5508ZM86.4902 37.4961L85.9902 37.4961C85.9902 40.1983 85.3518 42.6251 84.1345 44.6399L84.5625 44.8984L84.9905 45.157C86.3137 42.9668 86.9902 40.3566 86.9902 37.4961L86.4902 37.4961ZM84.5625 44.8984L84.1339 45.1559C85.345 47.1721 85.9902 49.6003 85.9902 52.3018H86.4902H86.9902C86.9902 49.4401 86.306 46.8299 84.9911 44.641L84.5625 44.8984ZM86.4902 52.3018L85.9902 52.3017C85.9901 59.9606 81.7184 65.6298 76.7699 67.7878L76.9697 68.2461L77.1696 68.7044C82.5002 66.3798 86.9901 60.3388 86.9902 52.3018L86.4902 52.3018ZM76.9697 68.2461L76.4715 68.2046C76.3944 69.1285 76.2053 70.0682 75.896 71.01L76.3711 71.166L76.8461 71.322C77.1793 70.3074 77.3844 69.2909 77.468 68.2876L76.9697 68.2461ZM76.3711 71.166L75.8956 71.0114C74.8704 74.1639 72.5882 77.0488 69.7068 79.156L70.002 79.5596L70.2971 79.9632C73.3149 77.7562 75.7448 74.7087 76.8466 71.3206L76.3711 71.166ZM70.002 79.5596L69.9078 80.0506C72.4672 80.5415 74.4012 82.7923 74.4014 85.4942L74.9014 85.4941L75.4014 85.4941C75.4012 82.3033 73.1175 79.6479 70.0961 79.0685L70.002 79.5596ZM74.9014 85.4941H74.4014V94.1689H74.9014H75.4014V85.4941H74.9014ZM74.9014 94.1689H74.4014C74.4014 97.2307 71.9192 99.7128 68.8574 99.7129L68.8574 100.213L68.8574 100.713C72.4714 100.713 75.4014 97.783 75.4014 94.1689H74.9014ZM68.8574 100.213V99.7129H51.0166V100.213V100.713H68.8574V100.213ZM51.0166 100.213L50.5933 99.9468L46.7534 106.055L47.1768 106.321L47.6001 106.587L51.4399 100.479L51.0166 100.213ZM47.1768 106.321V106.821H47.1895V106.321V105.821H47.1768V106.321ZM47.1895 106.321L46.7667 106.054L46.2345 106.897L46.6572 107.164L47.08 107.431L47.6122 106.588L47.1895 106.321ZM46.6572 107.164L46.2344 106.897C45.489 108.078 43.6626 108.122 42.8525 107.009L42.4482 107.303L42.044 107.597C43.2645 109.274 45.9525 109.218 47.0801 107.431L46.6572 107.164ZM42.4482 107.303L42.8634 107.024L42.7696 106.884L42.3545 107.163L41.9394 107.442L42.0331 107.581L42.4482 107.303ZM42.3545 107.163L42.7778 106.897L38.4087 99.9468L37.9854 100.213L37.562 100.479L41.9312 107.429L42.3545 107.163ZM37.9854 100.213V99.7129H21.4941V100.213V100.713H37.9854V100.213ZM21.4941 100.213L21.4942 99.7129C18.4324 99.7127 15.9502 97.2306 15.9502 94.1689H15.4502H14.9502C14.9502 97.783 17.8802 100.713 21.4941 100.713L21.4941 100.213ZM15.4502 94.1689H15.9502V85.4941H15.4502H14.9502V94.1689H15.4502ZM15.4502 85.4941L15.9502 85.4942C15.9503 83.0032 17.5937 80.8942 19.8565 80.1955L19.709 79.7178L19.5615 79.24C16.8914 80.0645 14.9504 82.5524 14.9502 85.4941L15.4502 85.4941ZM19.709 79.7178L19.9986 79.3102C17.0164 77.191 14.6453 74.2422 13.5946 71.0114L13.1191 71.166L12.6437 71.3206C13.7727 74.7925 16.2967 77.9063 19.4194 80.1254L19.709 79.7178ZM13.1191 71.166L13.5942 71.01C13.2848 70.0678 13.0948 69.1282 13.0178 68.2046L12.5195 68.2461L12.0213 68.2876C12.1049 69.2913 12.311 70.3077 12.6441 71.322L13.1191 71.166ZM12.5195 68.2461L12.7194 67.7878C7.77109 65.6298 3.50015 59.9605 3.5 52.3017L3 52.3018L2.5 52.3018C2.50016 60.3386 6.98916 66.3797 12.3197 68.7044L12.5195 68.2461ZM3 52.3018H3.5C3.5 49.5993 4.13837 47.1719 5.35569 45.157L4.92773 44.8984L4.49978 44.6399C3.17648 46.8302 2.5 49.4411 2.5 52.3018H3ZM4.92773 44.8984L5.35635 44.641C4.14527 42.6248 3.50007 40.1973 3.5 37.4961L3 37.4961L2.5 37.4961C2.50007 40.3576 3.18431 42.9671 4.49912 45.1559L4.92773 44.8984ZM3 37.4961H3.5C3.5 29.8371 7.77099 24.1671 12.7194 22.0091L12.5195 21.5508L12.3197 21.0925C6.98903 23.4172 2.5 29.459 2.5 37.4961H3ZM12.5195 21.5508L13.0178 21.5923C13.0948 20.6687 13.2848 19.729 13.5942 18.7868L13.1191 18.6309L12.6441 18.4749C12.3111 19.4891 12.1049 20.5056 12.0213 21.5092L12.5195 21.5508ZM13.1191 18.6309L13.5946 18.7855C14.6257 15.6149 16.9277 12.7141 19.8321 10.6038C22.7365 8.4936 26.2057 7.20117 29.5381 7.20117V6.70117V6.20117C25.9568 6.20117 22.2862 7.58469 19.2443 9.79483C16.2024 12.005 13.7517 15.069 12.6437 18.4762L13.1191 18.6309ZM29.5381 6.70117L29.5381 7.20117C30.509 7.20119 31.4425 7.30681 32.3321 7.50992L32.4434 7.02246L32.5547 6.53501C31.5901 6.31477 30.5818 6.2012 29.5381 6.20117L29.5381 6.70117ZM32.4434 7.02246L32.82 7.35129C35.4672 4.31904 39.8305 2.5 44.7451 2.5V2V1.5C39.5996 1.5 34.9388 3.40375 32.0667 6.69363L32.4434 7.02246Z" fill="#5C5C5C"/>
<path d="M53.6513 17.4909C57.8273 4.63453 31.6618 4.63453 35.8378 17.4909C31.6618 4.63453 10.49 20.0097 21.4263 27.96C10.49 20.0097 2.40088 44.8975 15.9216 44.8975C2.40088 44.8975 10.49 69.7854 21.4263 61.835C10.49 69.7854 31.6545 85.1605 35.8378 72.3041C31.6618 85.1605 57.8273 85.1605 53.6513 72.3041C57.8273 85.1605 78.9991 69.7854 68.0628 61.835C78.9991 69.7854 87.0882 44.8975 73.5674 44.8975C87.0882 44.8975 78.9991 20.0097 68.0628 27.96C78.9991 20.0097 57.8346 4.63453 53.6513 17.4909Z" fill="white"/>
<g filter="url(#filter1_g_40000879_11272)">
<path d="M53.6513 17.4909C57.8273 4.63453 31.6618 4.63453 35.8378 17.4909C31.6618 4.63453 10.49 20.0097 21.4263 27.96C10.49 20.0097 2.40088 44.8975 15.9216 44.8975C2.40088 44.8975 10.49 69.7854 21.4263 61.835C10.49 69.7854 31.6545 85.1605 35.8378 72.3041C31.6618 85.1605 57.8273 85.1605 53.6513 72.3041C57.8273 85.1605 78.9991 69.7854 68.0628 61.835C78.9991 69.7854 87.0882 44.8975 73.5674 44.8975C87.0882 44.8975 78.9991 20.0097 68.0628 27.96C78.9991 20.0097 57.8346 4.63453 53.6513 17.4909Z" fill="#EEEDEB"/>
<path d="M53.6513 17.4909C57.8273 4.63453 31.6618 4.63453 35.8378 17.4909C31.6618 4.63453 10.49 20.0097 21.4263 27.96C10.49 20.0097 2.40088 44.8975 15.9216 44.8975C2.40088 44.8975 10.49 69.7854 21.4263 61.835C10.49 69.7854 31.6545 85.1605 35.8378 72.3041C31.6618 85.1605 57.8273 85.1605 53.6513 72.3041C57.8273 85.1605 78.9991 69.7854 68.0628 61.835C78.9991 69.7854 87.0882 44.8975 73.5674 44.8975C87.0882 44.8975 78.9991 20.0097 68.0628 27.96C78.9991 20.0097 57.8346 4.63453 53.6513 17.4909Z" stroke="#2C2C2C" stroke-miterlimit="10"/>
</g>
<g filter="url(#filter2_g_40000879_11272)">
<path d="M45.6602 48.9104C45.804 48.9125 45.9427 48.9263 46.0469 48.9397C46.0983 48.9463 46.1399 48.9527 46.168 48.9573C46.182 48.9596 46.1927 48.961 46.1992 48.9622L46.2061 48.9641L46.2705 48.9758C46.2924 48.9822 46.3175 48.9899 46.3457 48.9983C46.4591 49.0322 46.6201 49.0824 46.8076 49.1467C47.1864 49.2767 47.6599 49.4597 48.0703 49.677C48.2753 49.7856 48.4546 49.8978 48.5947 50.009C48.7387 50.1234 48.8174 50.2179 48.8525 50.2844C48.8803 50.337 48.8739 50.3541 48.8701 50.3655C48.8607 50.394 48.8159 50.484 48.6338 50.6184C47.7724 51.2494 47.1592 51.3901 46.7275 51.3479C46.3516 51.311 46.0325 51.1278 45.7393 50.8499L45.6152 50.7249C45.5846 50.6895 45.519 50.5849 45.4424 50.3958C45.3684 50.2132 45.3001 49.992 45.251 49.7678C45.2015 49.5418 45.1752 49.3298 45.1758 49.1633C45.1761 49.0571 45.1863 48.9984 45.1924 48.9729C45.2068 48.9659 45.2339 48.9538 45.2803 48.9426C45.38 48.9187 45.5127 48.9083 45.6602 48.9104Z" fill="#FEE888" stroke="#2C2C2C"/>
<path d="M45.4063 41.7245V41.9788C45.4063 42.133 45.3987 42.2794 45.3987 42.4335C45.391 42.6647 45.3756 42.8959 45.3603 43.1194C45.3603 43.1887 45.3526 43.2581 45.3449 43.3274C45.1069 46.3791 44.0322 48.6524 40.9077 48.6524C37.4839 48.6524 35.9102 45.5468 35.9102 41.7245C35.9102 40.8383 35.9716 39.9829 36.1251 39.2046C37.5683 39.3895 39.073 39.5205 40.616 39.613C42.0516 39.7055 43.5179 39.7517 45.0225 39.7517C45.1069 39.7594 45.1991 39.7594 45.2835 39.7594C45.368 40.3836 45.4063 41.0387 45.4063 41.7245Z" fill="#FBFBFB" stroke="#2C2C2C" stroke-miterlimit="10"/>
<path d="M54.9101 41.7245C54.9101 41.8555 54.9101 41.9865 54.9024 42.1175C54.8487 45.7549 53.9352 48.6524 50.4038 48.6524C46.8725 48.6524 45.4062 45.5468 45.4062 41.7245C45.4062 41.0387 45.4446 40.3836 45.5291 39.7594C47.0337 39.7594 48.5 39.7132 49.9356 39.6284C51.5016 39.5437 53.0063 39.4127 54.4649 39.2277H54.4725C54.5493 39.2277 54.6261 39.22 54.7028 39.2046C54.8257 39.8596 54.8871 40.5686 54.9024 41.3084C54.9101 41.4471 54.9101 41.5858 54.9101 41.7245Z" fill="#FBFBFB" stroke="#2C2C2C" stroke-miterlimit="10"/>
<path d="M43.4186 42.117C43.4186 44.2362 42.9503 45.9547 40.9237 45.9547C39.0275 45.9547 38.1523 44.2362 38.1523 42.117C38.1523 39.9978 38.7972 38.2793 40.9237 38.2793C42.7738 38.2793 43.4186 39.9978 43.4186 42.117Z" fill="#2C2C2C"/>
<path d="M52.9147 42.117C52.9147 44.2362 52.4464 45.9547 50.4198 45.9547C48.5236 45.9547 47.6484 44.2362 47.6484 42.117C47.6484 39.9978 48.2933 38.2793 50.4198 38.2793C52.2699 38.2793 52.9147 39.9978 52.9147 42.117Z" fill="#2C2C2C"/>
<path d="M45.2834 39.7593C45.199 39.7593 45.1068 39.7593 45.0224 39.7516C43.5177 39.7516 42.0515 39.7054 40.6159 39.6129C39.0729 39.5204 37.5682 39.3894 36.125 39.2045C36.5933 36.6306 37.9598 34.8042 40.9076 34.8042C43.6483 34.8042 44.9226 36.8926 45.2834 39.7593Z" fill="#EEEDEB" stroke="#2C2C2C" stroke-miterlimit="10"/>
<path d="M54.7031 39.2045C54.6263 39.2199 54.5495 39.2276 54.4728 39.2276H54.4651C53.0065 39.4125 51.5018 39.5435 49.9358 39.6283C48.5002 39.7131 47.0339 39.7593 45.5293 39.7593C45.9055 36.8926 47.2566 34.8042 50.4041 34.8042C52.9681 34.8042 54.2501 36.6306 54.7031 39.2045Z" fill="#EEEDEB" stroke="#2C2C2C" stroke-miterlimit="10"/>
</g>
<g filter="url(#filter3_g_40000879_11272)">
<path d="M34.0889 33.2433C34.0889 33.2433 37.2316 26.318 41.167 30.6286" stroke="#2C2C2C" stroke-miterlimit="10" stroke-linecap="round"/>
</g>
<g filter="url(#filter4_g_40000879_11272)">
<path d="M49.3169 58.4553C49.3169 59.9995 48.3731 60.729 47.2029 60.729C46.0326 60.729 45.0889 59.9901 45.0889 58.4553C45.0889 56.9206 45.6079 55.2153 46.7782 55.2153C47.9484 55.2153 49.3169 56.9206 49.3169 58.4553Z" fill="#2C2C2C"/>
</g>
</g>
<defs>
<filter id="filter0_f_40000879_11272" x="22.0989" y="94.0989" width="45.2749" height="25.4946" filterUnits="userSpaceOnUse" color-interpolation-filters="sRGB">
<feFlood flood-opacity="0" result="BackgroundImageFix"/>
<feBlend mode="normal" in="SourceGraphic" in2="BackgroundImageFix" result="shape"/>
<feGaussianBlur stdDeviation="4.45055" result="effect1_foregroundBlur_40000879_11272"/>
</filter>
<filter id="filter1_g_40000879_11272" x="7.93789" y="6.94863" width="73.6135" height="75.8977" filterUnits="userSpaceOnUse" color-interpolation-filters="sRGB">
<feFlood flood-opacity="0" result="BackgroundImageFix"/>
<feBlend mode="normal" in="SourceGraphic" in2="BackgroundImageFix" result="shape"/>
<feTurbulence type="fractalNoise" baseFrequency="0.66666668653488159 0.66666668653488159" numOctaves="3" seed="7043" />
<feDisplacementMap in="shape" scale="0.80000001192092896" xChannelSelector="R" yChannelSelector="G" result="displacedImage" width="100%" height="100%" />
<feMerge result="effect1_texture_40000879_11272">
<feMergeNode in="displacedImage"/>
</feMerge>
</filter>
<filter id="filter2_g_40000879_11272" x="35.0102" y="33.9042" width="20.8" height="18.3508" filterUnits="userSpaceOnUse" color-interpolation-filters="sRGB">
<feFlood flood-opacity="0" result="BackgroundImageFix"/>
<feBlend mode="normal" in="SourceGraphic" in2="BackgroundImageFix" result="shape"/>
<feTurbulence type="fractalNoise" baseFrequency="0.66666668653488159 0.66666668653488159" numOctaves="3" seed="7043" />
<feDisplacementMap in="shape" scale="0.80000001192092896" xChannelSelector="R" yChannelSelector="G" result="displacedImage" width="100%" height="100%" />
<feMerge result="effect1_texture_40000879_11272">
<feMergeNode in="displacedImage"/>
</feMerge>
</filter>
<filter id="filter3_g_40000879_11272" x="33.1889" y="28.3153" width="8.87813" height="5.82808" filterUnits="userSpaceOnUse" color-interpolation-filters="sRGB">
<feFlood flood-opacity="0" result="BackgroundImageFix"/>
<feBlend mode="normal" in="SourceGraphic" in2="BackgroundImageFix" result="shape"/>
<feTurbulence type="fractalNoise" baseFrequency="0.66666668653488159 0.66666668653488159" numOctaves="3" seed="7043" />
<feDisplacementMap in="shape" scale="0.80000001192092896" xChannelSelector="R" yChannelSelector="G" result="displacedImage" width="100%" height="100%" />
<feMerge result="effect1_texture_40000879_11272">
<feMergeNode in="displacedImage"/>
</feMerge>
</filter>
<filter id="filter4_g_40000879_11272" x="44.6889" y="54.8153" width="5.02754" height="6.31367" filterUnits="userSpaceOnUse" color-interpolation-filters="sRGB">
<feFlood flood-opacity="0" result="BackgroundImageFix"/>
<feBlend mode="normal" in="SourceGraphic" in2="BackgroundImageFix" result="shape"/>
<feTurbulence type="fractalNoise" baseFrequency="0.66666668653488159 0.66666668653488159" numOctaves="3" seed="7043" />
<feDisplacementMap in="shape" scale="0.80000001192092896" xChannelSelector="R" yChannelSelector="G" result="displacedImage" width="100%" height="100%" />
<feMerge result="effect1_texture_40000879_11272">
<feMergeNode in="displacedImage"/>
</feMerge>
</filter>
<clipPath id="clip0_40000879_11272">
<rect width="90" height="117" fill="white"/>
</clipPath>
</defs>
</svg>
