<svg width="151" height="162" viewBox="0 0 151 162" fill="none" xmlns="http://www.w3.org/2000/svg">
<g filter="url(#filter0_g_40001167_14770)">
<g filter="url(#filter1_d_40001167_14770)">
<path d="M66.899 149.676C55.809 149.676 45.327 149.017 37.3884 147.819C31.2311 146.887 19.7643 145.159 19.7643 136.758C19.7643 133.354 21.6826 131.129 23.9434 129.658C23.832 127.023 24.3544 124.38 25.5448 122.036C27.8399 117.494 32.2074 114.653 37.5083 114.26C37.9708 114.226 38.4674 114.209 38.9984 114.209C41.4134 114.209 44.0167 114.568 46.7828 115.278L47.6478 107.262C39.9661 106.595 32.1645 100.607 29.801 93.3442C29.4327 92.2235 29.2101 91.1029 29.1073 89.9994C25.8873 88.6392 23.0613 86.0472 20.9803 82.4543C17.9231 77.159 16.4501 69.0237 20.064 62.7789C20.1068 62.7019 20.1496 62.6335 20.1925 62.565C18.7109 60.1013 17.9316 57.15 17.9316 53.8907C17.9316 44.6946 23.0699 37.8425 29.0987 35.2162C29.1929 34.087 29.4242 32.9493 29.801 31.803C32.3101 24.0954 40.9424 17.8249 49.0608 17.8249C50.2426 17.8249 51.3815 17.9532 52.4691 18.2013C55.7062 14.4972 60.9986 12.3158 66.899 12.3158C72.7994 12.3158 78.0918 14.4972 81.3289 18.2013C82.4165 17.9532 83.5555 17.8249 84.7372 17.8249C87.8887 17.8249 91.1515 18.7488 94.1402 20.4084C98.3878 17.2518 103.56 15.5152 109.015 15.5152C122.803 15.5152 134.013 26.713 134.013 40.4858C134.013 52.3082 125.749 62.2314 114.693 64.8063C115.455 66.7311 115.866 68.8954 115.866 71.2393C115.866 80.4354 110.728 87.2961 104.699 89.9224C104.605 91.0516 104.374 92.1893 103.997 93.3356C101.702 100.393 94.2772 106.236 86.8097 107.185L87.8801 111.976C89.5158 111.232 91.1772 110.641 92.8985 110.179C93.3181 110.068 93.7805 109.957 94.3286 109.854C95.3391 109.666 96.324 109.572 97.2917 109.572C104.639 109.572 110.685 115.064 111.679 122.635C112.038 125.372 111.696 127.99 110.78 130.317C112.706 131.831 114.034 133.901 114.034 136.767C114.034 145.167 102.567 146.895 96.4096 147.828C88.471 149.026 77.989 149.684 66.899 149.684V149.676Z" fill="#FBFBFB"/>
<path d="M66.899 149.676C55.809 149.676 45.327 149.017 37.3884 147.819C31.2311 146.887 19.7643 145.159 19.7643 136.758C19.7643 133.354 21.6826 131.129 23.9434 129.658C23.832 127.023 24.3544 124.38 25.5448 122.036C27.8399 117.494 32.2074 114.653 37.5083 114.26C37.9708 114.226 38.4674 114.209 38.9984 114.209C41.4134 114.209 44.0167 114.568 46.7828 115.278L47.6478 107.262C39.9661 106.595 32.1645 100.607 29.801 93.3442C29.4327 92.2235 29.2101 91.1029 29.1073 89.9994C25.8873 88.6392 23.0613 86.0472 20.9803 82.4543C17.9231 77.159 16.4501 69.0237 20.064 62.7789C20.1068 62.7019 20.1496 62.6335 20.1925 62.565C18.7109 60.1013 17.9316 57.15 17.9316 53.8907C17.9316 44.6946 23.0699 37.8425 29.0987 35.2162C29.1929 34.087 29.4242 32.9493 29.801 31.803C32.3101 24.0954 40.9424 17.8249 49.0608 17.8249C50.2426 17.8249 51.3815 17.9532 52.4691 18.2013C55.7062 14.4972 60.9986 12.3158 66.899 12.3158C72.7994 12.3158 78.0918 14.4972 81.3289 18.2013C82.4165 17.9532 83.5555 17.8249 84.7372 17.8249C87.8887 17.8249 91.1515 18.7488 94.1402 20.4084C98.3878 17.2518 103.56 15.5152 109.015 15.5152C122.803 15.5152 134.013 26.713 134.013 40.4858C134.013 52.3082 125.749 62.2314 114.693 64.8063C115.455 66.7311 115.866 68.8954 115.866 71.2393C115.866 80.4354 110.728 87.2961 104.699 89.9224C104.605 91.0516 104.374 92.1893 103.997 93.3356C101.702 100.393 94.2772 106.236 86.8097 107.185L87.8801 111.976C89.5158 111.232 91.1772 110.641 92.8985 110.179C93.3181 110.068 93.7805 109.957 94.3286 109.854C95.3391 109.666 96.324 109.572 97.2917 109.572C104.639 109.572 110.685 115.064 111.679 122.635C112.038 125.372 111.696 127.99 110.78 130.317C112.706 131.831 114.034 133.901 114.034 136.767C114.034 145.167 102.567 146.895 96.4096 147.828C88.471 149.026 77.989 149.684 66.899 149.684V149.676Z" stroke="#9C9C9C" stroke-miterlimit="10"/>
</g>
<path d="M109.025 58.5974C119.047 58.5974 127.172 50.4817 127.172 40.4704C127.172 30.4591 119.047 22.3434 109.025 22.3434C99.0034 22.3434 90.8789 30.4591 90.8789 40.4704C90.8789 50.4817 99.0034 58.5974 109.025 58.5974Z" fill="#2C2C2C"/>
<path d="M109.025 58.5974C119.047 58.5974 127.172 50.4817 127.172 40.4704C127.172 30.4591 119.047 22.3434 109.025 22.3434C99.0034 22.3434 90.8789 30.4591 90.8789 40.4704C90.8789 50.4817 99.0034 58.5974 109.025 58.5974Z" fill="#FEE888"/>
<path d="M66.9234 142.833C89.1715 142.833 107.207 140.114 107.207 136.759C107.207 133.405 89.1715 130.685 66.9234 130.685C44.6753 130.685 26.6396 133.405 26.6396 136.759C26.6396 140.114 44.6753 142.833 66.9234 142.833Z" fill="#2C2C2C"/>
<path d="M64.2719 74.6279V131.678C64.2719 134.8 61.7371 137.333 58.6113 137.333H38.9747C28.6897 137.333 27.7905 121.849 38.0498 121.07C38.3667 121.045 38.6921 121.036 39.0261 121.036C43.3336 121.036 48.3006 122.619 52.6938 124.655L58.0633 74.6365H64.2719V74.6279Z" fill="#CBCBC5" stroke="#2C2C2C" stroke-miterlimit="10"/>
<path d="M57.0452 127.1C56.1203 126.569 54.0736 125.303 50.1514 123.592L57.0452 127.1Z" fill="#CBCBC5"/>
<path d="M57.0452 127.1C56.1203 126.569 54.0736 125.303 50.1514 123.592" stroke="#2C2C2C" stroke-miterlimit="10" stroke-linecap="round"/>
<path d="M66.907 78.0133L72.9958 133.549C73.8008 136.569 76.8923 138.365 79.9153 137.561L98.8925 132.531C108.835 129.896 105.726 114.704 95.6126 116.568C95.2957 116.628 94.9789 116.697 94.662 116.782C90.5001 117.886 87.0574 119.913 83.3322 123.01L72.9016 76.4221L66.8984 78.0133H66.907Z" fill="#CBCBC5" stroke="#2C2C2C" stroke-miterlimit="10"/>
<path d="M78.7549 127.225C79.5085 126.472 81.1698 124.727 84.5183 122.066L78.7549 127.225Z" fill="#CBCBC5"/>
<path d="M78.7549 127.225C79.5085 126.472 81.1698 124.727 84.5183 122.066" stroke="#2C2C2C" stroke-miterlimit="10" stroke-linecap="round"/>
<path d="M79.8936 137.165C79.8936 137.165 96.7727 120.509 100.626 124.376" stroke="#2C2C2C" stroke-miterlimit="10" stroke-linecap="round"/>
<path d="M77.3232 30.439C82.2216 15.3745 51.5292 15.3745 56.4277 30.439C51.5292 15.3745 26.6944 33.3903 39.5229 42.7062C26.703 33.3903 17.2144 62.5527 33.0744 62.5527C17.2144 62.5527 26.703 91.715 39.5315 82.3991C26.703 91.715 51.5292 109.731 56.4363 94.6663C51.5378 109.731 82.2302 109.731 77.3317 94.6663C82.2302 109.731 107.065 91.715 94.2365 82.3991C107.065 91.715 116.554 62.5527 100.694 62.5527C116.554 62.5527 107.065 33.3903 94.2365 42.7062C107.065 33.3903 82.2387 15.3745 77.3317 30.439H77.3232Z" fill="#EEEDEB"/>
<path d="M77.3232 30.439C82.2216 15.3745 51.5292 15.3745 56.4277 30.439C51.5292 15.3745 26.6944 33.3903 39.5229 42.7062C26.703 33.3903 17.2144 62.5527 33.0744 62.5527C17.2144 62.5527 26.703 91.715 39.5315 82.3991C26.703 91.715 51.5292 109.731 56.4363 94.6663C51.5378 109.731 82.2302 109.731 77.3317 94.6663C82.2302 109.731 107.065 91.715 94.2365 82.3991C107.065 91.715 116.554 62.5527 100.694 62.5527C116.554 62.5527 107.065 33.3903 94.2365 42.7062C107.065 33.3903 82.2387 15.3745 77.3317 30.439H77.3232Z" fill="#EEEDEB" stroke="#2C2C2C" stroke-miterlimit="10"/>
<path d="M57.0686 127.099L50.2861 123.643C54.1398 125.336 56.1523 126.577 57.0686 127.099Z" fill="white" stroke="#2C2C2C" stroke-miterlimit="10"/>
<path d="M57.0686 127.099L50.2861 123.643C54.1398 125.336 56.1523 126.577 57.0686 127.099Z" fill="white" stroke="#2C2C2C" stroke-miterlimit="10" stroke-linecap="round"/>
<path d="M84.3909 122.133L78.6875 127.24C79.3983 126.53 80.8969 124.956 83.8429 122.57C84.0227 122.424 84.2025 122.279 84.3909 122.133Z" fill="white" stroke="#2C2C2C" stroke-miterlimit="10"/>
<path d="M84.3909 122.133L78.6875 127.24C79.3983 126.53 80.8969 124.956 83.8429 122.57C84.0227 122.424 84.2025 122.279 84.3909 122.133Z" fill="white" stroke="#2C2C2C" stroke-miterlimit="10" stroke-linecap="round"/>
<path d="M68.4488 57.8563V58.1386C68.4488 58.3097 68.4402 58.4722 68.4402 58.6433C68.4317 58.8999 68.4145 59.1566 68.3974 59.4047C68.3974 59.4816 68.3888 59.5586 68.3803 59.6356C68.1148 63.0232 66.9159 65.5468 63.4305 65.5468C59.611 65.5468 57.8555 62.0993 57.8555 57.8563C57.8555 56.8725 57.924 55.923 58.0953 55.059C59.7052 55.2643 61.3837 55.4097 63.105 55.5123C64.7064 55.615 66.3421 55.6663 68.0206 55.6663C68.1148 55.6749 68.2176 55.6749 68.3118 55.6749C68.406 56.3678 68.4488 57.0949 68.4488 57.8563Z" fill="#FBFBFB" stroke="#2C2C2C" stroke-miterlimit="10"/>
<path d="M63.457 56.0293C64.8459 56.1117 66.26 56.1569 67.7051 56.1631C67.8548 56.6353 67.9434 57.1942 67.9746 57.8154L67.9863 58.1475V58.292C67.9863 58.414 67.9856 58.5082 67.9785 58.6074V58.6162L67.9775 58.626C67.9693 58.8725 67.9527 59.1209 67.9355 59.3691L67.9346 59.3867V59.4043C67.9346 59.448 67.9297 59.4963 67.9209 59.5752C67.8231 60.3809 67.6143 60.9994 67.2754 61.4102C66.9563 61.7968 66.4789 62.0517 65.7031 62.0518C64.8228 62.0518 64.2024 61.6676 63.7812 61.0293C63.3448 60.3675 63.1113 59.4095 63.1113 58.292C63.1113 57.4104 63.2175 56.6362 63.457 56.0293Z" fill="#2C2C2C" stroke="#2C2C2C"/>
<path d="M79.0413 57.8563C79.0413 58.0017 79.0413 58.1471 79.0328 58.2926C78.9728 62.3303 77.9537 65.5468 74.0144 65.5468C70.0751 65.5468 68.4395 62.0993 68.4395 57.8563C68.4395 57.0949 68.4823 56.3678 68.5765 55.6749C70.255 55.6749 71.8906 55.6236 73.492 55.5295C75.239 55.4354 76.9175 55.2899 78.5446 55.0846H78.5532C78.6388 55.0846 78.7245 55.0761 78.8101 55.059C78.9471 55.7861 79.0156 56.5731 79.0328 57.3943C79.0413 57.5483 79.0413 57.7023 79.0413 57.8563Z" fill="#FBFBFB" stroke="#2C2C2C" stroke-miterlimit="10"/>
<path d="M68.4014 65.8214C68.5651 65.8237 68.7229 65.8395 68.8408 65.8546C68.899 65.8621 68.9466 65.8689 68.9785 65.8741C68.9943 65.8767 69.0062 65.8796 69.0137 65.881C69.0174 65.8816 69.02 65.8817 69.0215 65.882H69.0225L69.0938 65.8956C69.1197 65.9032 69.1504 65.9118 69.1846 65.922C69.312 65.9601 69.4926 66.0168 69.7031 66.089C70.1278 66.2347 70.6596 66.4407 71.1221 66.6857C71.3532 66.8081 71.5574 66.9343 71.7178 67.0616C71.8817 67.1918 71.9759 67.3035 72.0205 67.3878C72.058 67.4588 72.054 67.495 72.0439 67.5255C72.028 67.5733 71.9675 67.6825 71.7578 67.837C70.789 68.5465 70.0905 68.7122 69.5889 68.6632C69.0904 68.6145 68.6818 68.344 68.3115 67.9523C68.2717 67.9092 68.1929 67.7833 68.1035 67.5626C68.0195 67.3552 67.9423 67.1043 67.8867 66.8507C67.8308 66.5953 67.8001 66.3539 67.8008 66.1622C67.8015 65.9442 67.842 65.8889 67.8271 65.9083C67.8156 65.9234 67.8344 65.8902 67.9619 65.8595C68.0801 65.8311 68.2339 65.819 68.4014 65.8214Z" fill="#FEE888" stroke="#2C2C2C"/>
<path d="M61.6064 73.1021C65.5458 75.138 70.2301 75.1637 74.1951 73.1619L74.315 73.1021" stroke="#2C2C2C" stroke-miterlimit="10" stroke-linecap="round"/>
<path d="M68.3396 55.6799C68.2454 55.6799 68.1426 55.6799 68.0484 55.6713C66.3699 55.6713 64.7342 55.62 63.1328 55.5173C61.4115 55.4147 59.733 55.2693 58.123 55.064C58.6454 52.2067 60.1698 50.1793 63.4582 50.1793C66.5155 50.1793 67.9371 52.4976 68.3396 55.6799Z" stroke="#2C2C2C" stroke-miterlimit="10"/>
<path d="M78.8069 55.064C78.7213 55.0811 78.6356 55.0896 78.55 55.0896H78.5414C76.9143 55.2949 75.2358 55.4404 73.4888 55.5345C71.8874 55.6285 70.2517 55.6799 68.5732 55.6799C68.9929 52.4976 70.5001 50.1793 74.0112 50.1793C76.8715 50.1793 78.3016 52.2067 78.8069 55.064Z" stroke="#2C2C2C" stroke-miterlimit="10"/>
<path d="M78.2656 55.6316C78.4373 56.1312 78.5368 56.7379 78.5703 57.4265V57.4304C78.578 57.5681 78.5781 57.7079 78.5781 57.864C78.5781 58.0119 78.5788 58.1429 78.5713 58.2712H78.5703V58.2849C78.5368 59.3341 78.3732 60.182 78.0205 60.7556C77.6951 61.2847 77.1835 61.6247 76.2871 61.6248C75.4068 61.6248 74.7863 61.2398 74.3652 60.6013C73.9288 59.9395 73.6953 58.9815 73.6953 57.864C73.6953 57.1696 73.7599 56.5459 73.9043 56.0144C75.403 55.9274 76.8531 55.8011 78.2656 55.6316Z" fill="#2C2C2C" stroke="#2C2C2C"/>
</g>
<defs>
<filter id="filter0_g_40001167_14770" x="-0.4" y="-0.4" width="151.8" height="162.8" filterUnits="userSpaceOnUse" color-interpolation-filters="sRGB">
<feFlood flood-opacity="0" result="BackgroundImageFix"/>
<feBlend mode="normal" in="SourceGraphic" in2="BackgroundImageFix" result="shape"/>
<feTurbulence type="fractalNoise" baseFrequency="0.66666668653488159 0.66666668653488159" numOctaves="3" seed="7043" />
<feDisplacementMap in="shape" scale="0.80000001192092896" xChannelSelector="R" yChannelSelector="G" result="displacedImage" width="100%" height="100%" />
<feMerge result="effect1_texture_40001167_14770">
<feMergeNode in="displacedImage"/>
</feMerge>
</filter>
<filter id="filter1_d_40001167_14770" x="14.4316" y="10.8158" width="121.081" height="142.368" filterUnits="userSpaceOnUse" color-interpolation-filters="sRGB">
<feFlood flood-opacity="0" result="BackgroundImageFix"/>
<feColorMatrix in="SourceAlpha" type="matrix" values="0 0 0 0 0 0 0 0 0 0 0 0 0 0 0 0 0 0 127 0" result="hardAlpha"/>
<feOffset dx="-1" dy="1"/>
<feGaussianBlur stdDeviation="1"/>
<feComposite in2="hardAlpha" operator="out"/>
<feColorMatrix type="matrix" values="0 0 0 0 0 0 0 0 0 0 0 0 0 0 0 0 0 0 0.25 0"/>
<feBlend mode="normal" in2="BackgroundImageFix" result="effect1_dropShadow_40001167_14770"/>
<feBlend mode="normal" in="SourceGraphic" in2="effect1_dropShadow_40001167_14770" result="shape"/>
</filter>
</defs>
</svg>