<svg width="151" height="162" viewBox="0 0 151 162" fill="none" xmlns="http://www.w3.org/2000/svg">
<g clip-path="url(#clip0_40001167_14831)" filter="url(#filter0_g_40001167_14831)">
<g filter="url(#filter1_d_40001167_14831)">
<path d="M61.7131 159.404C50.0707 159.404 39.084 158.71 30.7564 157.447C24.2973 156.464 12.2686 154.643 12.2686 145.778C12.2686 142.189 14.2808 139.835 16.6614 138.284C16.5446 135.507 17.1016 132.711 18.3503 130.249C20.7579 125.47 25.3214 122.485 30.8821 122.061C30.945 122.061 30.9989 122.061 31.0618 122.052C31.5559 122.025 32.0051 122.007 32.4542 122.007C34.9965 122.007 37.7275 122.386 40.6201 123.134L42.2731 107.624C35.2301 102.772 31.0259 95.3054 31.0259 87.2074C31.0259 82.7976 32.3015 78.433 34.7091 74.6004C35.7511 72.9502 35.841 70.8851 34.9516 68.9282C33.649 66.0696 32.9843 63.0215 32.9843 59.8833C32.9843 56.186 33.9545 52.4797 35.7871 49.1701C37.1076 46.7894 37.3053 44.1743 36.3081 42.1633C34.8528 39.2235 34.1162 36.0762 34.1162 32.8208C34.1251 19.9433 45.9473 9.47363 60.4734 9.47363C69.349 9.47363 77.4431 13.3964 82.2671 19.6548C82.878 19.6007 83.4889 19.5826 84.0998 19.5826C97.7365 19.5826 108.831 32.397 108.831 48.1511C108.831 62.6518 99.4344 74.6636 87.2978 76.4852C89.0137 79.8308 89.912 83.501 89.912 87.1984C89.912 94.4757 86.5432 101.23 80.6951 106.064L83.7225 119.645C85.4383 118.86 87.1811 118.229 88.9867 117.751C89.4449 117.625 89.9479 117.507 90.5139 117.408C91.556 117.21 92.5891 117.12 93.6042 117.12C101.312 117.12 107.654 122.909 108.696 130.89C109.074 133.775 108.714 136.526 107.762 138.979C109.783 140.575 111.176 142.757 111.176 145.778C111.176 154.643 99.1469 156.464 92.6879 157.447C84.3603 158.71 73.3646 159.404 61.7221 159.404H61.7131Z" fill="#FBFBFB"/>
<path d="M61.7131 159.404C50.0707 159.404 39.084 158.71 30.7564 157.447C24.2973 156.464 12.2686 154.643 12.2686 145.778C12.2686 142.189 14.2808 139.835 16.6614 138.284C16.5446 135.507 17.1016 132.711 18.3503 130.249C20.7579 125.47 25.3214 122.485 30.8821 122.061C30.945 122.061 30.9989 122.061 31.0618 122.052C31.5559 122.025 32.0051 122.007 32.4542 122.007C34.9965 122.007 37.7275 122.386 40.6201 123.134L42.2731 107.624C35.2301 102.772 31.0259 95.3054 31.0259 87.2074C31.0259 82.7976 32.3015 78.433 34.7091 74.6004C35.7511 72.9502 35.841 70.8851 34.9516 68.9282C33.649 66.0696 32.9843 63.0215 32.9843 59.8833C32.9843 56.186 33.9545 52.4797 35.7871 49.1701C37.1076 46.7894 37.3053 44.1743 36.3081 42.1633C34.8528 39.2235 34.1162 36.0762 34.1162 32.8208C34.1251 19.9433 45.9473 9.47363 60.4734 9.47363C69.349 9.47363 77.4431 13.3964 82.2671 19.6548C82.878 19.6007 83.4889 19.5826 84.0998 19.5826C97.7365 19.5826 108.831 32.397 108.831 48.1511C108.831 62.6518 99.4344 74.6636 87.2978 76.4852C89.0137 79.8308 89.912 83.501 89.912 87.1984C89.912 94.4757 86.5432 101.23 80.6951 106.064L83.7225 119.645C85.4383 118.86 87.1811 118.229 88.9867 117.751C89.4449 117.625 89.9479 117.507 90.5139 117.408C91.556 117.21 92.5891 117.12 93.6042 117.12C101.312 117.12 107.654 122.909 108.696 130.89C109.074 133.775 108.714 136.526 107.762 138.979C109.783 140.575 111.176 142.757 111.176 145.778C111.176 154.643 99.1469 156.464 92.6879 157.447C84.3603 158.71 73.3646 159.404 61.7221 159.404H61.7131Z" stroke="#9C9C9C" stroke-miterlimit="10"/>
</g>
<path d="M84.1002 69.5053C93.7898 69.5053 101.645 59.9447 101.645 48.1511C101.645 36.3575 93.7898 26.7969 84.1002 26.7969C74.4106 26.7969 66.5557 36.3575 66.5557 48.1511C66.5557 59.9447 74.4106 69.5053 84.1002 69.5053Z" fill="#93D1E0"/>
<path d="M61.713 152.19C85.0513 152.19 103.971 149.324 103.971 145.787C103.971 142.251 85.0513 139.385 61.713 139.385C38.3746 139.385 19.4551 142.251 19.4551 145.787C19.4551 149.324 38.3746 152.19 61.713 152.19Z" fill="#2C2C2C"/>
<path d="M58.9282 80.2998V140.44C58.9282 143.731 56.2691 146.401 52.9902 146.401H32.3913C21.6022 146.401 20.659 130.078 31.4211 129.258C31.7535 129.231 32.0948 129.222 32.4452 129.222C36.9638 129.222 42.1742 130.89 46.7827 133.036L52.4153 80.3088H58.9282V80.2998Z" fill="#CBCBC5" stroke="#2C2C2C" stroke-miterlimit="10"/>
<path d="M51.4094 135.597C50.4392 135.038 48.2921 133.703 44.1777 131.9L51.4094 135.597Z" fill="#CBCBC5"/>
<path d="M51.4094 135.597C50.4392 135.038 48.2921 133.703 44.1777 131.9" stroke="#2C2C2C" stroke-miterlimit="10" stroke-linecap="round"/>
<path d="M61.7131 83.8529L68.1003 142.397C68.9447 145.58 72.1877 147.474 75.3589 146.626L95.2661 141.324C105.696 138.546 102.435 122.53 91.8254 124.496C91.493 124.559 91.1606 124.632 90.8283 124.722C86.4623 125.885 82.851 128.022 78.9432 131.287L68.0015 82.1755L61.7041 83.8529H61.7131Z" fill="#CBCBC5" stroke="#2C2C2C" stroke-miterlimit="10"/>
<path d="M74.1104 135.741C74.9009 134.948 76.6437 133.108 80.1562 130.304L74.1104 135.741Z" fill="#FBFBFB"/>
<path d="M74.1104 135.741C74.9009 134.948 76.6437 133.108 80.1562 130.304" stroke="#2C2C2C" stroke-miterlimit="10" stroke-linecap="round"/>
<path d="M75.3682 146.22C75.3682 146.22 93.0744 128.663 97.117 132.739" stroke="#2C2C2C" stroke-miterlimit="10" stroke-linecap="round"/>
<path d="M82.7258 87.1984C82.7258 97.5329 72.7542 105.91 60.4649 105.91C48.1757 105.91 38.2041 97.5329 38.2041 87.1984C38.2041 84.0332 39.1384 81.0483 40.7823 78.4421C43.1629 74.6637 43.3336 70.0014 41.492 65.9344C40.6386 64.0497 40.1715 62.0116 40.1715 59.8744C40.1715 57.2953 40.8542 54.8605 42.067 52.6692C44.4296 48.4218 44.8967 43.3267 42.7497 38.962C41.8154 37.0683 41.3034 34.9852 41.3034 32.8119C41.3034 23.9113 49.8825 16.688 60.4649 16.688C71.0474 16.688 79.6355 23.9113 79.6355 32.8119C79.6355 34.9942 79.1234 37.0773 78.1892 38.9711C76.0421 43.3357 76.5093 48.4308 78.8719 52.6872C80.0847 54.8695 80.7584 57.3043 80.7584 59.8744C80.7584 62.0116 80.2913 64.0497 79.4379 65.9344C77.5963 70.0014 77.767 74.6637 80.1476 78.4421C81.7915 81.0573 82.7258 84.0332 82.7258 87.1984Z" fill="#EEEDEB" stroke="#2C2C2C" stroke-miterlimit="10"/>
<path d="M44.3754 131.981C44.3754 131.981 44.3035 131.945 44.2586 131.936L44.1777 131.891C44.2496 131.918 44.3125 131.954 44.3754 131.981Z" fill="#FBFBFB" stroke="#2C2C2C" stroke-miterlimit="10" stroke-linecap="round"/>
<path d="M59.8313 33.2517C59.8313 36.4377 59.1177 39.0298 56.0754 39.0298C53.2208 39.0298 51.9062 36.4471 51.9062 33.2517C51.9062 30.0563 52.8734 27.4736 56.0754 27.4736C58.8642 27.4736 59.8313 30.0563 59.8313 33.2517Z" fill="#FBFBFB" stroke="#2C2C2C" stroke-miterlimit="10"/>
<path d="M67.7565 33.2517C67.7565 33.3648 67.7565 33.4685 67.7565 33.5816C67.7377 35.0709 67.5405 36.4 67.0053 37.3803C65.9349 37.4934 65.0147 38.1155 64.4794 39.0015C64.3292 39.0204 64.1696 39.0298 64.0099 39.0298C61.1554 39.0298 59.8408 36.4471 59.8408 33.2517C59.8408 30.0563 60.8174 27.4736 64.0099 27.4736C66.6955 27.4736 67.6908 29.8678 67.7659 32.903C67.7659 33.0161 67.7659 33.1386 67.7659 33.2517H67.7565Z" fill="#FBFBFB" stroke="#2C2C2C" stroke-miterlimit="10"/>
<path d="M59.831 33.5721C59.831 35.3442 59.4366 36.7769 57.7464 36.7769C56.1595 36.7769 55.4365 35.3442 55.4365 33.5721C55.4365 31.8 55.9717 30.3673 57.7464 30.3673C59.2958 30.3673 59.831 31.8 59.831 33.5721Z" fill="#2C2C2C"/>
<path d="M67.7558 33.2517C67.7558 35.0238 67.3614 36.4565 65.6712 36.4565C64.0843 36.4565 63.3613 35.0238 63.3613 33.2517C63.3613 31.4796 63.8966 30.0469 65.6712 30.0469C67.2206 30.0469 67.7558 31.4796 67.7558 33.2517Z" fill="#2C2C2C"/>
<path d="M60.0225 38.9777C60.527 39.0613 60.7898 39.3256 60.9199 39.5988C61.0641 39.9017 61.0418 40.2023 60.9844 40.339C60.972 40.3479 60.9196 40.3906 60.7803 40.4327C60.6024 40.4865 60.3663 40.5122 60.127 40.4874C59.6306 40.436 59.3109 40.2105 59.2441 39.8302C59.1994 39.5746 59.2432 39.4284 59.29 39.3429C59.3401 39.2516 59.424 39.1758 59.541 39.1144C59.6594 39.0522 59.7918 39.0149 59.9023 38.9943C59.9516 38.9851 59.9933 38.9807 60.0225 38.9777Z" fill="#93D1E0" stroke="#2C2C2C"/>
<path d="M65.2777 40.5474C65.2777 40.5474 63.3622 45.0435 57.7939 42.4891" stroke="#2C2C2C" stroke-miterlimit="10" stroke-linecap="round"/>
<path d="M66.9951 37.3802C67.1172 37.3614 67.2486 37.3519 67.3707 37.3519C68.629 37.3519 69.7276 38.04 70.3098 39.058" stroke="#2C2C2C" stroke-miterlimit="10" stroke-linecap="round"/>
<path d="M64.4697 39.0015L64.4316 39.0587" stroke="#2C2C2C" stroke-miterlimit="10" stroke-linecap="round"/>
</g>
<defs>
<filter id="filter0_g_40001167_14831" x="-0.4" y="-0.4" width="151.8" height="162.8" filterUnits="userSpaceOnUse" color-interpolation-filters="sRGB">
<feFlood flood-opacity="0" result="BackgroundImageFix"/>
<feBlend mode="normal" in="SourceGraphic" in2="BackgroundImageFix" result="shape"/>
<feTurbulence type="fractalNoise" baseFrequency="0.66666668653488159 0.66666668653488159" numOctaves="3" seed="7043" />
<feDisplacementMap in="shape" scale="0.80000001192092896" xChannelSelector="R" yChannelSelector="G" result="displacedImage" width="100%" height="100%" />
<feMerge result="effect1_texture_40001167_14831">
<feMergeNode in="displacedImage"/>
</feMerge>
</filter>
<filter id="filter1_d_40001167_14831" x="8.76855" y="7.97363" width="103.907" height="154.931" filterUnits="userSpaceOnUse" color-interpolation-filters="sRGB">
<feFlood flood-opacity="0" result="BackgroundImageFix"/>
<feColorMatrix in="SourceAlpha" type="matrix" values="0 0 0 0 0 0 0 0 0 0 0 0 0 0 0 0 0 0 127 0" result="hardAlpha"/>
<feOffset dx="-1" dy="1"/>
<feGaussianBlur stdDeviation="1"/>
<feComposite in2="hardAlpha" operator="out"/>
<feColorMatrix type="matrix" values="0 0 0 0 0 0 0 0 0 0 0 0 0 0 0 0 0 0 0.25 0"/>
<feBlend mode="normal" in2="BackgroundImageFix" result="effect1_dropShadow_40001167_14831"/>
<feBlend mode="normal" in="SourceGraphic" in2="effect1_dropShadow_40001167_14831" result="shape"/>
</filter>
<clipPath id="clip0_40001167_14831">
<rect width="151" height="162" fill="white"/>
</clipPath>
</defs>
</svg>