<svg width="151" height="162" viewBox="0 0 151 162" fill="none" xmlns="http://www.w3.org/2000/svg">
<g filter="url(#filter0_g_40001167_14805)">
<g filter="url(#filter1_d_40001167_14805)">
<path d="M71.2956 143.062C59.074 143.062 47.5225 142.333 38.774 141.006C31.5071 139.907 19.3516 138.06 19.3516 128.747C19.3516 124.977 21.4656 122.504 23.9571 120.875C23.8344 117.966 24.4195 115.029 25.7219 112.434C26.9393 110.018 28.6758 108.038 30.8087 106.579H30.0443C26.4769 106.579 23.0322 105.006 20.5785 102.259C17.8982 99.2558 16.6242 95.1727 17.0772 91.0516C20.5596 60.0158 43.9646 36.6158 71.5315 36.6158C73.9003 36.6158 76.2503 36.7863 78.5813 37.1274C80.6293 31.0169 85.8954 26.3842 92.3318 25.3137C95.6255 21.3442 100.533 18.9474 105.865 18.9474C111.197 18.9474 116.105 21.3348 119.399 25.3042C124.901 26.2232 129.667 29.7284 132.234 34.9295C134.423 39.3727 134.64 44.3842 132.979 48.8653C133.706 50.8074 134.074 52.8537 134.074 54.9569C134.074 63.1421 128.553 70.0484 121.078 72.0853C123.598 78.0442 125.24 84.4011 125.976 91.0516C126.439 95.1537 125.165 99.2463 122.494 102.249C121.182 103.718 119.587 104.855 117.841 105.603C119.295 107.754 120.286 110.302 120.654 113.106C121.05 116.138 120.673 119.027 119.663 121.604C121.786 123.281 123.258 125.574 123.258 128.747C123.258 138.06 111.094 139.907 103.827 141.006C95.0781 142.333 83.5266 143.062 71.305 143.062H71.2956Z" fill="#FBFBFB" stroke="#9C9C9C" stroke-miterlimit="10"/>
<path d="M115.142 32.741C124.004 31.5947 129.845 41.7505 124.428 48.8842C129.845 56.0178 124.004 66.1736 115.142 65.0273C111.697 73.3073 100.014 73.3073 96.5689 65.0273C87.7071 66.1736 81.8652 56.0178 87.2824 48.8842C81.8652 41.7505 87.7071 31.5947 96.5689 32.741C100.014 24.461 111.697 24.461 115.142 32.741Z" fill="#A7E1B6"/>
<path d="M71.2954 135.474C95.8135 135.474 115.689 132.462 115.689 128.747C115.689 125.033 95.8135 122.021 71.2954 122.021C46.7772 122.021 26.9014 125.033 26.9014 128.747C26.9014 132.462 46.7772 135.474 71.2954 135.474Z" fill="#2C2C2C"/>
<path d="M68.3695 59.959V123.139C68.3695 126.597 65.576 129.401 62.1313 129.401H40.4912C29.1567 129.401 28.1658 112.254 39.4719 111.392C39.8211 111.363 40.1797 111.354 40.5478 111.354C45.2948 111.354 50.7686 113.106 55.61 115.361L61.5273 59.9685H68.3695V59.959Z" fill="#CBCBC5" stroke="#2C2C2C" stroke-miterlimit="10"/>
<path d="M60.4605 118.042C59.4412 117.455 57.1857 116.053 52.8633 114.158L60.4605 118.042Z" fill="#CBCBC5"/>
<path d="M60.4605 118.042C59.4412 117.455 57.1857 116.053 52.8633 114.158" stroke="#2C2C2C" stroke-miterlimit="10" stroke-linecap="round"/>
<path d="M71.2956 63.6821L78.0056 125.185C78.8928 128.53 82.2997 130.519 85.6311 129.628L106.545 124.058C117.502 121.14 114.076 104.315 102.93 106.38C102.581 106.446 102.232 106.522 101.883 106.617C97.2959 107.839 93.502 110.084 89.3967 113.514L77.9018 61.92L71.2861 63.6821H71.2956Z" fill="#CBCBC5" stroke="#2C2C2C" stroke-miterlimit="10"/>
<path d="M84.3193 118.203C85.1498 117.37 86.9807 115.437 90.6708 112.491L84.3193 118.203Z" fill="#CBCBC5"/>
<path d="M84.3193 118.203C85.1498 117.37 86.9807 115.437 90.6708 112.491" stroke="#2C2C2C" stroke-miterlimit="10" stroke-linecap="round"/>
<path d="M85.6406 129.212C85.6406 129.212 104.242 110.766 108.489 115.048" stroke="#2C2C2C" stroke-miterlimit="10" stroke-linecap="round"/>
<path d="M113.009 99.0094H30.0443C26.7506 99.0094 24.1648 95.6747 24.58 91.8947C27.5906 64.98 47.466 44.1947 71.5221 44.1947C95.5783 44.1947 115.454 64.98 118.464 91.8947C118.889 95.6747 116.294 99.0094 113 99.0094H113.009Z" fill="#EEEDEB" stroke="#2C2C2C" stroke-miterlimit="10"/>
<path d="M90.6711 112.49L90.5673 112.585C90.4351 112.68 90.303 112.784 90.1709 112.898C90.3313 112.765 90.5012 112.633 90.6711 112.49Z" fill="white" stroke="#2C2C2C" stroke-miterlimit="10" stroke-linecap="round"/>
<path d="M83.1953 69.9347C83.1953 74.6337 82.1478 78.4421 77.6555 78.4421C73.4464 78.4421 71.5117 74.6337 71.5117 69.9347C71.5117 65.2358 72.9368 61.4274 77.6555 61.4274C81.7608 61.4274 83.1953 65.2358 83.1953 69.9347Z" fill="#FBFBFB" stroke="#2C2C2C" stroke-miterlimit="10"/>
<path d="M71.5215 69.9347C71.5215 74.6337 70.474 78.4421 65.9817 78.4421C61.7726 78.4421 59.8379 74.6337 59.8379 69.9347C59.8379 65.2358 61.263 61.4274 65.9817 61.4274C70.087 61.4274 71.5215 65.2358 71.5215 69.9347Z" fill="#FBFBFB" stroke="#2C2C2C" stroke-miterlimit="10"/>
<path d="M71.522 70.1716C71.522 72.7769 70.9463 74.8895 68.4548 74.8895C66.1237 74.8895 65.0479 72.7769 65.0479 70.1716C65.0479 67.5664 65.8406 65.4537 68.4548 65.4537C70.7292 65.4537 71.522 67.5664 71.522 70.1716Z" fill="#2C2C2C"/>
<path d="M83.1958 70.1716C83.1958 72.7769 82.6201 74.8895 80.1286 74.8895C77.7976 74.8895 76.7217 72.7769 76.7217 70.1716C76.7217 67.5664 77.5144 65.4537 80.1286 65.4537C82.4031 65.4537 83.1958 67.5664 83.1958 70.1716Z" fill="#2C2C2C"/>
<path d="M71.5498 78.5824C71.6375 78.5824 71.8008 78.63 71.9414 78.7435C72.0735 78.8502 72.1357 78.9719 72.1357 79.0961C72.1356 79.2473 72.0452 79.4653 71.876 79.6654C71.7962 79.7597 71.7141 79.8315 71.6465 79.8754C71.6116 79.898 71.5892 79.9075 71.5791 79.9115C71.4428 79.9089 71.2692 79.8778 71.1406 79.7914C71.0397 79.7235 70.9082 79.5872 70.9082 79.2191C70.9082 78.9287 71.0475 78.788 71.2197 78.6937C71.3132 78.6426 71.4118 78.6103 71.4902 78.5912C71.5062 78.5873 71.5211 78.5851 71.5342 78.5824H71.5498Z" fill="#A7E1B6" stroke="#2C2C2C"/>
<path d="M57.9316 60.0821C57.9316 60.0821 59.5455 55.4968 64.3869 56.9747" stroke="#2C2C2C" stroke-miterlimit="10" stroke-linecap="round"/>
<path d="M74.6648 83.5105C74.6648 83.5105 70.2952 85.6137 67.917 81.1232" stroke="#2C2C2C" stroke-miterlimit="10" stroke-linecap="round"/>
</g>
</g>
<defs>
<filter id="filter0_g_40001167_14805" x="-0.4" y="-0.4" width="151.8" height="162.8" filterUnits="userSpaceOnUse" color-interpolation-filters="sRGB">
<feFlood flood-opacity="0" result="BackgroundImageFix"/>
<feBlend mode="normal" in="SourceGraphic" in2="BackgroundImageFix" result="shape"/>
<feTurbulence type="fractalNoise" baseFrequency="0.66666668653488159 0.66666668653488159" numOctaves="3" seed="7043" />
<feDisplacementMap in="shape" scale="0.80000001192092896" xChannelSelector="R" yChannelSelector="G" result="displacedImage" width="100%" height="100%" />
<feMerge result="effect1_texture_40001167_14805">
<feMergeNode in="displacedImage"/>
</feMerge>
</filter>
<filter id="filter1_d_40001167_14805" x="13.4873" y="17.4474" width="122.087" height="129.115" filterUnits="userSpaceOnUse" color-interpolation-filters="sRGB">
<feFlood flood-opacity="0" result="BackgroundImageFix"/>
<feColorMatrix in="SourceAlpha" type="matrix" values="0 0 0 0 0 0 0 0 0 0 0 0 0 0 0 0 0 0 127 0" result="hardAlpha"/>
<feOffset dx="-1" dy="1"/>
<feGaussianBlur stdDeviation="1"/>
<feComposite in2="hardAlpha" operator="out"/>
<feColorMatrix type="matrix" values="0 0 0 0 0 0 0 0 0 0 0 0 0 0 0 0 0 0 0.25 0"/>
<feBlend mode="normal" in2="BackgroundImageFix" result="effect1_dropShadow_40001167_14805"/>
<feBlend mode="normal" in="SourceGraphic" in2="effect1_dropShadow_40001167_14805" result="shape"/>
</filter>
</defs>
</svg>