<svg width="247" height="346" viewBox="0 0 247 346" fill="none" xmlns="http://www.w3.org/2000/svg">
<g clip-path="url(#clip0_40003028_16607)">
<path d="M6.66199 273.857C-0.884885 272.512 -7.9382 270.793 -13.1954 269.016C-17.5625 267.542 -24.8666 265.071 -23.849 259.361C-23.4366 257.047 -21.8676 255.767 -20.145 255.043C-19.9016 253.239 -19.2259 251.505 -18.1319 250.057C-16.0198 247.248 -12.7037 245.848 -9.04867 246.223C-8.70548 246.254 -8.3654 246.303 -8.0274 246.363C-6.38398 246.656 -4.65589 247.216 -2.85955 248.034L-1.61615 243.757C-5.13761 242.193 -8.35445 240.27 -11.2153 238.003C-16.5694 233.767 -19.6707 227.114 -19.5187 220.189C-19.4724 218.074 -19.2505 215.918 -18.8702 213.784C-17.9282 208.499 -15.9837 203.459 -13.2515 199.195C-7.14086 189.673 2.30827 184.765 11.417 186.389C14.7446 186.982 17.8143 188.381 20.5488 190.548C20.6597 190.633 20.7924 190.699 20.9322 190.724C21.0721 190.749 21.2123 190.738 21.353 190.691C24.6794 189.604 28.0376 189.351 31.3535 189.942C40.9576 191.654 48.4471 200.439 50.4406 212.329C51.1949 216.801 51.1495 221.441 50.3163 226.116C49.994 227.924 49.5563 229.705 49.0092 231.425C47.016 237.716 42.3565 242.741 36.2242 245.199C32.903 246.526 29.2233 247.436 25.39 247.892L25.5192 250.777C26.7225 250.469 27.9314 250.265 29.1577 250.166C29.4938 250.136 29.8336 250.118 30.1645 250.117C30.8808 250.113 31.5565 250.167 32.2092 250.284C37.2094 251.175 40.6633 255.648 40.4164 260.912C40.3296 262.816 39.7794 264.554 38.874 266.024C40.0018 267.287 40.6543 268.855 40.3082 270.796C39.2906 276.506 31.5825 276.301 26.9749 276.176C21.4276 276.027 14.2147 275.203 6.66782 273.858L6.66199 273.857Z" fill="#FBFBFB" stroke="#9C9C9C" stroke-width="0.948718" stroke-miterlimit="10"/>
<g filter="url(#filter0_g_40003028_16607)">
<path d="M8.8797 261.418C16.4339 262.764 23.1808 264.443 27.9799 266.064C30.3829 266.876 32.2775 267.667 33.5376 268.386C34.1703 268.747 34.6177 269.075 34.8887 269.36C35.1705 269.656 35.1843 269.822 35.1736 269.882C35.1626 269.942 35.092 270.092 34.7261 270.272C34.3732 270.446 33.8402 270.599 33.1217 270.719C31.6909 270.959 29.6396 271.046 27.1041 270.978C22.0403 270.842 15.129 270.085 7.57481 268.739C0.0206559 267.393 -6.72626 265.714 -11.5254 264.093C-13.9283 263.281 -15.823 262.49 -17.0831 261.771C-17.7158 261.41 -18.1632 261.082 -18.4342 260.797C-18.7153 260.501 -18.7298 260.337 -18.7193 260.276C-18.7085 260.216 -18.6385 260.066 -18.2716 259.885C-17.9187 259.711 -17.3856 259.558 -16.6672 259.438C-15.2364 259.199 -13.1851 259.111 -10.6496 259.179C-5.58574 259.315 1.32555 260.072 8.8797 261.418Z" fill="#2C2C2C" stroke="#2C2C2C" stroke-width="0.948718"/>
<path d="M13.9459 222.536L7.03523 261.309C6.657 263.431 4.62528 264.844 2.49817 264.465L-10.8648 262.083C-17.8638 260.836 -16.6002 250.204 -9.52427 250.919C-9.30553 250.94 -9.08304 250.974 -8.85576 251.014C-5.92443 251.537 -2.73606 253.215 0.00692411 255.131L9.71976 221.789L13.9448 222.542L13.9459 222.536Z" fill="#CBCBC5" stroke="#2C2C2C" stroke-width="0.948718" stroke-miterlimit="10"/>
<path d="M2.70785 257.316C2.14271 256.844 0.903247 255.735 -1.55859 254.096Z" fill="#CBCBC5"/>
<path d="M2.70785 257.316C2.14271 256.844 0.903247 255.735 -1.55859 254.096" stroke="#2C2C2C" stroke-width="0.948718" stroke-miterlimit="10" stroke-linecap="round"/>
<path d="M15.3439 225.149L12.7601 263.631C12.9421 265.781 14.8283 267.377 16.9829 267.197L30.5064 266.08C37.5915 265.495 37.3164 254.793 30.208 254.834C29.9851 254.836 29.7612 254.844 29.5352 254.864C26.5693 255.109 23.981 256.069 21.0708 257.722L19.616 224.795L15.338 225.148L15.3439 225.149Z" fill="#CBCBC5" stroke="#2C2C2C" stroke-width="0.948718" stroke-miterlimit="10"/>
<path d="M17.4235 260.035C18.0275 259.615 19.3695 258.63 21.9704 257.229Z" fill="#CBCBC5"/>
<path d="M17.4235 260.035C18.0275 259.615 19.3695 258.63 21.9704 257.229" stroke="#2C2C2C" stroke-width="0.948718" stroke-miterlimit="10" stroke-linecap="round"/>
</g>
<g filter="url(#filter1_g_40003028_16607)">
<path d="M45.6481 225.284C45.358 226.912 44.9692 228.486 44.4895 229.996C42.9316 234.925 39.2537 238.894 34.444 240.814C28.2345 243.301 20.5311 244.183 12.442 242.945C12.032 242.884 11.623 242.817 11.2092 242.744L10.8538 242.68C3.33472 241.28 -3.28212 238.259 -8.27623 234.298C-12.5438 230.916 -14.9136 225.725 -14.7876 220.294C-14.745 218.436 -14.556 216.533 -14.214 214.614C-13.3509 209.771 -11.6081 205.391 -9.26897 201.747C-4.3729 194.114 3.12249 189.709 10.582 191.039C13.1753 191.501 15.5329 192.611 17.5929 194.244C19.0846 195.421 21.0369 195.769 22.8378 195.178C25.3282 194.363 27.9252 194.13 30.5127 194.591C38.4209 196 44.1428 203.469 45.7569 213.102C46.3959 216.905 46.3977 221.044 45.6423 225.283L45.6481 225.284Z" fill="#EEEDEB"/>
<path d="M45.6481 225.284C45.358 226.912 44.9692 228.486 44.4895 229.996C42.9316 234.925 39.2537 238.894 34.444 240.814C28.2345 243.301 20.5311 244.183 12.442 242.945C12.032 242.884 11.623 242.817 11.2092 242.744L10.8538 242.68C3.33472 241.28 -3.28212 238.259 -8.27623 234.298C-12.5438 230.916 -14.9136 225.725 -14.7876 220.294C-14.745 218.436 -14.556 216.533 -14.214 214.614C-13.3509 209.771 -11.6081 205.391 -9.26897 201.747C-4.3729 194.114 3.12249 189.709 10.582 191.039C13.1753 191.501 15.5329 192.611 17.5929 194.244C19.0846 195.421 21.0369 195.769 22.8378 195.178C25.3282 194.363 27.9252 194.13 30.5127 194.591C38.4209 196 44.1428 203.469 45.7569 213.102C46.3959 216.905 46.3977 221.044 45.6423 225.283L45.6481 225.284Z" stroke="#2C2C2C" stroke-width="0.948718" stroke-miterlimit="10"/>
</g>
<g filter="url(#filter2_g_40003028_16607)">
<path d="M16.7641 216.842C16.2502 219.726 15.1867 221.948 12.4127 221.453C9.81358 220.99 9.03547 218.44 9.54944 215.556C10.0634 212.673 11.36 210.492 14.2738 211.012C16.8089 211.464 17.2781 213.959 16.7641 216.842Z" fill="#FBFBFB" stroke="#2C2C2C" stroke-width="0.948718" stroke-miterlimit="10"/>
<path d="M23.979 218.128C23.465 221.012 22.4016 223.234 19.6276 222.739C17.0284 222.276 16.2503 219.726 16.7643 216.842C17.2783 213.959 18.5748 211.778 21.4887 212.298C24.0237 212.75 24.493 215.245 23.979 218.128Z" fill="#FBFBFB" stroke="#2C2C2C" stroke-width="0.948718" stroke-miterlimit="10"/>
<path d="M15.2508 214.367C15.7743 214.461 16.0586 214.743 16.2099 215.169C16.3745 215.634 16.3821 216.284 16.2458 217.049C16.1061 217.833 15.9031 218.443 15.6048 218.82C15.4625 219 15.3043 219.119 15.1229 219.186C14.9406 219.254 14.7031 219.28 14.3852 219.223C13.8309 219.125 13.4902 218.818 13.2972 218.371C13.0939 217.899 13.0491 217.248 13.1818 216.503C13.3185 215.736 13.5493 215.139 13.8796 214.77C14.18 214.434 14.5942 214.25 15.2508 214.367Z" fill="#2C2C2C" stroke="#2C2C2C" stroke-width="0.948718"/>
<path d="M22.5174 215.363C23.0409 215.456 23.3252 215.738 23.4765 216.165C23.6411 216.629 23.6487 217.279 23.5124 218.045C23.3727 218.828 23.1697 219.438 22.8714 219.815C22.7291 219.995 22.5709 220.115 22.3895 220.182C22.2072 220.249 21.9697 220.275 21.6518 220.219C21.0975 220.12 20.7568 219.813 20.5638 219.366C20.3605 218.895 20.3157 218.243 20.4484 217.499C20.5851 216.732 20.8159 216.134 21.1462 215.765C21.4466 215.43 21.8608 215.246 22.5174 215.363Z" fill="#2C2C2C" stroke="#2C2C2C" stroke-width="0.948718"/>
<path d="M16.2936 222.319C16.2936 222.319 13.3236 221.946 13.4054 223.646C13.4872 225.346 17.6558 225.741 18.363 225.147C19.0701 224.553 18.9388 222.928 16.2946 222.313L16.2936 222.319Z" fill="#FBD7D5" stroke="#2C2C2C" stroke-width="0.948718" stroke-miterlimit="10"/>
<path d="M7.48926 221.65C7.48926 221.65 8.66842 229.034 17.0139 226.91" stroke="#2C2C2C" stroke-width="0.948718" stroke-miterlimit="10" stroke-linecap="round"/>
<path d="M2.92833 218.803C2.91822 218.86 2.8644 218.896 2.81035 218.886C2.76966 218.879 2.73786 218.847 2.72902 218.808L2.72835 218.768C2.73845 218.711 2.79224 218.675 2.84633 218.684L2.88342 218.699C2.91641 218.72 2.9359 218.761 2.92833 218.803Z" fill="#2C2C2C" stroke="#2C2C2C" stroke-width="0.948718"/>
<path d="M5.21885 219.211C5.20875 219.268 5.15492 219.304 5.10087 219.295C5.06019 219.287 5.02838 219.256 5.01954 219.217L5.01888 219.176C5.02898 219.119 5.08276 219.083 5.13686 219.093L5.17394 219.107C5.20694 219.129 5.22643 219.169 5.21885 219.211Z" fill="#2C2C2C" stroke="#2C2C2C" stroke-width="0.948718"/>
<path d="M3.87461 220.142C3.86451 220.198 3.81068 220.234 3.75663 220.225C3.71595 220.217 3.68415 220.186 3.67531 220.147L3.67464 220.106C3.68474 220.049 3.73852 220.013 3.79262 220.023L3.82971 220.037C3.8627 220.059 3.88219 220.099 3.87461 220.142Z" fill="#2C2C2C" stroke="#2C2C2C" stroke-width="0.948718"/>
<path d="M24.5841 222.663C24.574 222.72 24.5202 222.756 24.4661 222.746C24.4254 222.739 24.3936 222.707 24.3848 222.668L24.3841 222.627C24.3942 222.571 24.448 222.535 24.5021 222.544L24.5392 222.559C24.5722 222.58 24.5917 222.62 24.5841 222.663Z" fill="#2C2C2C" stroke="#2C2C2C" stroke-width="0.948718"/>
<path d="M26.8741 223.071C26.864 223.128 26.8102 223.164 26.7561 223.154C26.7155 223.147 26.6837 223.116 26.6748 223.076L26.6742 223.036C26.6843 222.979 26.738 222.943 26.7921 222.952L26.8292 222.967C26.8622 222.988 26.8817 223.029 26.8741 223.071Z" fill="#2C2C2C" stroke="#2C2C2C" stroke-width="0.948718"/>
<path d="M25.5304 224.001C25.5203 224.058 25.4664 224.094 25.4124 224.085C25.3717 224.077 25.3399 224.046 25.3311 224.007L25.3304 223.966C25.3405 223.909 25.3943 223.873 25.4484 223.883L25.4855 223.897C25.5185 223.919 25.538 223.959 25.5304 224.001Z" fill="#2C2C2C" stroke="#2C2C2C" stroke-width="0.948718"/>
</g>
<path d="M17.0351 266.936C17.0351 266.936 30.539 257.664 32.6931 260.759" stroke="#2C2C2C" stroke-width="0.948718" stroke-miterlimit="10" stroke-linecap="round"/>
</g>
<g clip-path="url(#clip1_40003028_16607)">
<path d="M245.926 118.65C253.17 116.784 259.906 114.591 264.89 112.475C269.031 110.718 275.956 107.775 274.545 102.295C273.973 100.073 272.351 98.9438 270.622 98.3657C270.252 96.6281 269.467 94.9916 268.295 93.6628C266.033 91.0856 262.703 89.9675 259.174 90.6025C258.843 90.6581 258.516 90.7305 258.191 90.814C256.614 91.2203 254.973 91.8926 253.286 92.821L251.761 88.7509C255.072 86.9699 258.06 84.8615 260.676 82.4442C265.574 77.9281 268.101 71.2256 267.442 64.4984C267.241 62.4437 266.866 60.3623 266.338 58.3143C265.032 53.2416 262.768 48.4809 259.795 44.5336C253.147 35.7189 243.591 31.6401 234.848 33.8916C231.654 34.7141 228.77 36.3017 226.269 38.6119C226.168 38.7036 226.043 38.7772 225.909 38.8118C225.775 38.8463 225.638 38.846 225.497 38.8107C222.18 37.9987 218.894 38 215.711 38.8196C206.493 41.1936 199.853 50.294 198.79 62.0107C198.386 66.4171 198.773 70.9293 199.928 75.416C200.375 77.1516 200.932 78.8527 201.592 80.486C203.995 86.4604 208.899 91.0052 215.048 92.9447C218.377 93.9915 222.025 94.6054 225.788 94.7668L225.875 97.5828C224.682 97.3725 223.49 97.2627 222.29 97.2565C221.96 97.252 221.629 97.2601 221.307 97.2836C220.609 97.3322 219.956 97.435 219.329 97.5964C214.53 98.8323 211.499 103.439 212.127 108.544C212.352 110.39 213.016 112.04 214.005 113.404C213.001 114.715 212.482 116.289 212.962 118.153C214.373 123.633 221.858 122.866 226.332 122.404C231.719 121.85 238.676 120.517 245.92 118.651L245.926 118.65Z" fill="#FBFBFB" stroke="#9C9C9C" stroke-width="0.948718" stroke-miterlimit="10"/>
<g filter="url(#filter3_g_40003028_16607)">
<path d="M242.854 106.721C235.603 108.588 229.163 110.718 224.613 112.649C222.335 113.616 220.55 114.526 219.378 115.317C218.789 115.715 218.38 116.067 218.139 116.363C217.887 116.672 217.888 116.829 217.901 116.882C217.915 116.934 217.991 117.072 218.359 117.22C218.714 117.363 219.242 117.473 219.95 117.537C221.358 117.664 223.361 117.598 225.823 117.345C230.739 116.838 237.407 115.594 244.658 113.726C251.908 111.859 258.349 109.728 262.898 107.797C265.176 106.83 266.961 105.92 268.133 105.129C268.722 104.731 269.131 104.38 269.373 104.083C269.624 103.776 269.623 103.618 269.61 103.566C269.596 103.513 269.521 103.375 269.152 103.227C268.798 103.084 268.269 102.973 267.562 102.909C266.153 102.782 264.151 102.848 261.689 103.102C256.773 103.608 250.104 104.853 242.854 106.721Z" fill="#2C2C2C" stroke="#2C2C2C" stroke-width="0.948718"/>
<path d="M235.053 69.2507L244.637 106.467C245.162 108.504 247.243 109.73 249.285 109.204L262.111 105.901C268.83 104.171 266.816 93.9187 259.984 95.1366C259.772 95.1732 259.558 95.2224 259.34 95.2785C256.526 96.0031 253.548 97.871 251.02 99.9382L239.11 68.2119L235.055 69.2563L235.053 69.2507Z" fill="#CBCBC5" stroke="#2C2C2C" stroke-width="0.948718" stroke-miterlimit="10"/>
<path d="M233.885 71.8961L239.238 109.149C239.219 111.255 237.501 112.946 235.392 112.93L222.151 112.841C215.214 112.795 214.692 102.361 221.612 101.876C221.829 101.862 222.047 101.853 222.268 101.856C225.172 101.876 227.762 102.619 230.715 104.013L229.702 71.8665L233.891 71.8946L233.885 71.8961Z" fill="#CBCBC5" stroke="#2C2C2C" stroke-width="0.948718" stroke-miterlimit="10"/>
<path d="M234.434 105.994C233.816 105.63 232.437 104.771 229.803 103.599Z" fill="#CBCBC5"/>
<path d="M234.434 105.994C233.816 105.63 232.437 104.771 229.803 103.599" stroke="#2C2C2C" stroke-width="0.948718" stroke-miterlimit="10" stroke-linecap="round"/>
</g>
<g filter="url(#filter4_g_40003028_16607)">
<path d="M204.409 74.2622C204.811 75.8248 205.306 77.3279 205.884 78.7619C207.763 83.443 211.635 87.034 216.456 88.5475C222.681 90.5088 230.242 90.7993 238.022 88.9982C238.416 88.9085 238.809 88.8133 239.206 88.711L239.548 88.6231C246.76 86.7062 252.976 83.2788 257.543 79.0559C261.446 75.4504 263.369 70.2245 262.846 64.9501C262.668 63.1454 262.343 61.3069 261.869 59.4653C260.672 54.8167 258.653 50.6832 256.108 47.3099C250.781 40.2438 243.163 36.5108 236.003 38.3547C233.514 38.9957 231.302 40.2497 229.418 41.9904C228.053 43.2463 226.179 43.7289 224.383 43.2869C221.9 42.6767 219.356 42.6416 216.872 43.2812C209.281 45.236 204.265 52.9248 203.404 62.4173C203.063 66.1648 203.367 70.1926 204.414 74.2608L204.409 74.2622Z" fill="#EEEDEB"/>
<path d="M204.409 74.2622C204.811 75.8248 205.306 77.3279 205.884 78.7619C207.763 83.443 211.635 87.034 216.456 88.5475C222.681 90.5088 230.242 90.7993 238.022 88.9982C238.416 88.9085 238.809 88.8133 239.206 88.711L239.548 88.6231C246.76 86.7062 252.976 83.2788 257.543 79.0559C261.446 75.4504 263.369 70.2245 262.846 64.9501C262.668 63.1454 262.343 61.3069 261.869 59.4653C260.672 54.8167 258.653 50.6832 256.108 47.3099C250.781 40.2438 243.163 36.5108 236.003 38.3547C233.514 38.9957 231.302 40.2497 229.418 41.9904C228.053 43.2463 226.179 43.7289 224.383 43.2869C221.9 42.6767 219.356 42.6416 216.872 43.2812C209.281 45.236 204.265 52.9248 203.404 62.4173C203.063 66.1648 203.367 70.1926 204.414 74.2608L204.409 74.2622Z" stroke="#2C2C2C" stroke-width="0.948718" stroke-miterlimit="10"/>
</g>
<g filter="url(#filter5_g_40003028_16607)">
<path d="M231.89 63.9182C232.603 66.6861 233.802 68.7696 236.464 68.0839C238.959 67.4414 239.528 64.9027 238.815 62.1348C238.103 59.3669 236.68 57.341 233.883 58.0612C231.45 58.6879 231.177 61.1502 231.89 63.9182Z" fill="#FBFBFB" stroke="#2C2C2C" stroke-width="0.948718" stroke-miterlimit="10"/>
<path d="M224.965 65.7015C225.678 68.4695 226.877 70.5529 229.539 69.8673C232.034 69.2248 232.603 66.6861 231.891 63.9182C231.178 61.1502 229.755 59.1243 226.958 59.8446C224.525 60.4712 224.253 62.9336 224.965 65.7015Z" fill="#FBFBFB" stroke="#2C2C2C" stroke-width="0.948718" stroke-miterlimit="10"/>
<path d="M233.183 61.4095C232.684 61.5379 232.432 61.83 232.317 62.2527C232.192 62.7139 232.232 63.3454 232.421 64.0793C232.615 64.831 232.856 65.4066 233.172 65.7495C233.322 65.9127 233.483 66.0157 233.662 66.067C233.842 66.1185 234.074 66.1274 234.378 66.0492C234.906 65.9131 235.212 65.5923 235.365 65.1464C235.527 64.6754 235.523 64.0409 235.34 63.3278C235.15 62.5922 234.883 62.0286 234.536 61.6963C234.222 61.3951 233.809 61.2483 233.183 61.4095Z" fill="#2C2C2C" stroke="#2C2C2C" stroke-width="0.948718"/>
<path d="M226.186 62.9138C225.688 63.0421 225.435 63.3343 225.32 63.757C225.195 64.2182 225.236 64.8497 225.425 65.5836C225.618 66.3352 225.859 66.9109 226.175 67.2538C226.326 67.417 226.487 67.52 226.666 67.5713C226.846 67.6228 227.077 67.6316 227.381 67.5534C227.909 67.4174 228.215 67.0966 228.369 66.6507C228.531 66.1797 228.527 65.5452 228.343 64.832C228.154 64.0965 227.886 63.5329 227.54 63.2005C227.226 62.8993 226.813 62.7525 226.186 62.9138Z" fill="#2C2C2C" stroke="#2C2C2C" stroke-width="0.948718"/>
<path d="M232.753 69.2124C232.753 69.2124 235.615 68.63 235.661 70.2903C235.707 71.9507 231.68 72.6425 230.948 72.1169C230.216 71.5913 230.224 70.0005 232.751 69.2068L232.753 69.2124Z" fill="#FBD7D5" stroke="#2C2C2C" stroke-width="0.948718" stroke-miterlimit="10"/>
<path d="M241.27 67.9117C241.27 67.9117 240.667 75.1838 232.39 73.733" stroke="#2C2C2C" stroke-width="0.948718" stroke-miterlimit="10" stroke-linecap="round"/>
<path d="M245.486 64.8089C245.502 64.8692 245.563 64.9039 245.621 64.8892C245.664 64.8781 245.696 64.8415 245.703 64.7986L245.7 64.7539C245.685 64.6933 245.624 64.6587 245.566 64.6736L245.527 64.6926C245.493 64.7186 245.475 64.7635 245.486 64.8089Z" fill="#2C2C2C" stroke="#2C2C2C" stroke-width="0.948718"/>
<path d="M243.288 65.3751C243.303 65.4354 243.364 65.4701 243.422 65.4554C243.466 65.4443 243.497 65.4077 243.504 65.3648L243.501 65.3201C243.486 65.2595 243.425 65.2249 243.367 65.2398L243.328 65.2588C243.294 65.2848 243.276 65.3297 243.288 65.3751Z" fill="#2C2C2C" stroke="#2C2C2C" stroke-width="0.948718"/>
<path d="M244.664 66.1811C244.68 66.2414 244.741 66.2761 244.799 66.2614C244.842 66.2502 244.874 66.2136 244.88 66.1708L244.878 66.126C244.862 66.0655 244.801 66.0308 244.743 66.0457L244.705 66.0647C244.671 66.0907 244.652 66.1356 244.664 66.1811Z" fill="#2C2C2C" stroke="#2C2C2C" stroke-width="0.948718"/>
<path d="M224.699 70.1619C224.715 70.2222 224.776 70.2569 224.834 70.2422C224.877 70.231 224.909 70.1945 224.916 70.1516L224.913 70.1069C224.897 70.0463 224.836 70.0116 224.778 70.0266L224.74 70.0456C224.706 70.0715 224.688 70.1165 224.699 70.1619Z" fill="#2C2C2C" stroke="#2C2C2C" stroke-width="0.948718"/>
<path d="M222.501 70.7281C222.517 70.7884 222.578 70.8231 222.636 70.8084C222.679 70.7972 222.711 70.7606 222.717 70.7178L222.715 70.673C222.699 70.6125 222.638 70.5778 222.58 70.5927L222.542 70.6117C222.508 70.6377 222.489 70.6826 222.501 70.7281Z" fill="#2C2C2C" stroke="#2C2C2C" stroke-width="0.948718"/>
<path d="M223.877 71.534C223.893 71.5943 223.954 71.629 224.012 71.6143C224.055 71.6031 224.087 71.5665 224.093 71.5237L224.091 71.4789C224.075 71.4184 224.014 71.3837 223.956 71.3986L223.918 71.4176C223.884 71.4436 223.865 71.4885 223.877 71.534Z" fill="#2C2C2C" stroke="#2C2C2C" stroke-width="0.948718"/>
</g>
<path d="M235.322 112.681C235.322 112.681 221.499 104.655 219.631 107.825" stroke="#2C2C2C" stroke-width="0.948718" stroke-miterlimit="10" stroke-linecap="round"/>
</g>
<defs>
<filter id="filter0_g_40003028_16607" x="-19.5758" y="220.868" width="56.1115" height="50.9866" filterUnits="userSpaceOnUse" color-interpolation-filters="sRGB">
<feFlood flood-opacity="0" result="BackgroundImageFix"/>
<feBlend mode="normal" in="SourceGraphic" in2="BackgroundImageFix" result="shape"/>
<feTurbulence type="fractalNoise" baseFrequency="0.70270270109176636 0.70270270109176636" numOctaves="3" seed="7043" />
<feDisplacementMap in="shape" scale="0.75897437334060669" xChannelSelector="R" yChannelSelector="G" result="displacedImage" width="100%" height="100%" />
<feMerge result="effect1_texture_40003028_16607">
<feMergeNode in="displacedImage"/>
</feMerge>
</filter>
<filter id="filter1_g_40003028_16607" x="-15.6461" y="189.949" width="62.7233" height="54.4059" filterUnits="userSpaceOnUse" color-interpolation-filters="sRGB">
<feFlood flood-opacity="0" result="BackgroundImageFix"/>
<feBlend mode="normal" in="SourceGraphic" in2="BackgroundImageFix" result="shape"/>
<feTurbulence type="fractalNoise" baseFrequency="0.70270270109176636 0.70270270109176636" numOctaves="3" seed="7043" />
<feDisplacementMap in="shape" scale="0.75897437334060669" xChannelSelector="R" yChannelSelector="G" result="displacedImage" width="100%" height="100%" />
<feMerge result="effect1_texture_40003028_16607">
<feMergeNode in="displacedImage"/>
</feMerge>
</filter>
<filter id="filter2_g_40003028_16607" x="2.07559" y="210.081" width="25.4509" height="18.0667" filterUnits="userSpaceOnUse" color-interpolation-filters="sRGB">
<feFlood flood-opacity="0" result="BackgroundImageFix"/>
<feBlend mode="normal" in="SourceGraphic" in2="BackgroundImageFix" result="shape"/>
<feTurbulence type="fractalNoise" baseFrequency="0.70270270109176636 0.70270270109176636" numOctaves="3" seed="7043" />
<feDisplacementMap in="shape" scale="0.75897437334060669" xChannelSelector="R" yChannelSelector="G" result="displacedImage" width="100%" height="100%" />
<feMerge result="effect1_texture_40003028_16607">
<feMergeNode in="displacedImage"/>
</feMerge>
</filter>
<filter id="filter3_g_40003028_16607" x="215.824" y="67.2668" width="54.6452" height="51.1867" filterUnits="userSpaceOnUse" color-interpolation-filters="sRGB">
<feFlood flood-opacity="0" result="BackgroundImageFix"/>
<feBlend mode="normal" in="SourceGraphic" in2="BackgroundImageFix" result="shape"/>
<feTurbulence type="fractalNoise" baseFrequency="0.70270270109176636 0.70270270109176636" numOctaves="3" seed="7043" />
<feDisplacementMap in="shape" scale="0.75897437334060669" xChannelSelector="R" yChannelSelector="G" result="displacedImage" width="100%" height="100%" />
<feMerge result="effect1_texture_40003028_16607">
<feMergeNode in="displacedImage"/>
</feMerge>
</filter>
<filter id="filter4_g_40003028_16607" x="202.417" y="37.032" width="61.3674" height="54.0192" filterUnits="userSpaceOnUse" color-interpolation-filters="sRGB">
<feFlood flood-opacity="0" result="BackgroundImageFix"/>
<feBlend mode="normal" in="SourceGraphic" in2="BackgroundImageFix" result="shape"/>
<feTurbulence type="fractalNoise" baseFrequency="0.70270270109176636 0.70270270109176636" numOctaves="3" seed="7043" />
<feDisplacementMap in="shape" scale="0.75897437334060669" xChannelSelector="R" yChannelSelector="G" result="displacedImage" width="100%" height="100%" />
<feMerge result="effect1_texture_40003028_16607">
<feMergeNode in="displacedImage"/>
</feMerge>
</filter>
<filter id="filter5_g_40003028_16607" x="221.865" y="57.061" width="24.4724" height="17.7172" filterUnits="userSpaceOnUse" color-interpolation-filters="sRGB">
<feFlood flood-opacity="0" result="BackgroundImageFix"/>
<feBlend mode="normal" in="SourceGraphic" in2="BackgroundImageFix" result="shape"/>
<feTurbulence type="fractalNoise" baseFrequency="0.70270270109176636 0.70270270109176636" numOctaves="3" seed="7043" />
<feDisplacementMap in="shape" scale="0.75897437334060669" xChannelSelector="R" yChannelSelector="G" result="displacedImage" width="100%" height="100%" />
<feMerge result="effect1_texture_40003028_16607">
<feMergeNode in="displacedImage"/>
</feMerge>
</filter>
<clipPath id="clip0_40003028_16607">
<rect width="80.641" height="99.6154" fill="white" transform="translate(0 182)"/>
</clipPath>
<clipPath id="clip1_40003028_16607">
<rect width="80.641" height="99.6154" fill="white" transform="matrix(-1 0 0 1 246.641 25)"/>
</clipPath>
</defs>
</svg>