<svg width="248" height="346" viewBox="0 0 248 346" fill="none" xmlns="http://www.w3.org/2000/svg">
<g clip-path="url(#clip0_40003003_16705)">
<path d="M249.982 316.151C247.638 325.031 235.106 325.24 232.468 316.445C224.528 321.066 215.524 312.356 219.879 304.264C210.999 301.92 210.79 289.388 219.585 286.75C214.965 278.81 223.674 269.806 231.766 274.161C234.11 265.281 246.642 265.072 249.28 273.867C257.22 269.247 266.224 277.956 261.869 286.048C270.749 288.392 270.958 300.924 262.163 303.562C266.784 311.502 258.074 320.506 249.982 316.151Z" fill="#FBD7D5"/>
</g>
<g clip-path="url(#clip1_40003003_16705)">
<path d="M-1.97844 99.5003C-0.277112 105.998 8.82188 106.151 10.7367 99.7155C16.5019 103.096 23.0386 96.7235 19.877 90.8022C26.3242 89.0875 26.4757 79.9174 20.0906 77.9875C23.445 72.1772 17.1219 65.5894 11.2464 68.7757C9.54512 62.2781 0.446127 62.1254 -1.46872 68.5605C-7.23394 65.1798 -13.7706 71.5524 -10.609 77.4738C-17.0562 79.1885 -17.2077 88.3586 -10.8226 90.2885C-14.177 96.0988 -7.85386 102.687 -1.97844 99.5003Z" fill="#FBD7D5"/>
</g>
<defs>
<clipPath id="clip0_40003003_16705">
<rect width="69.2564" height="77.7949" fill="white" transform="translate(178 256)"/>
</clipPath>
<clipPath id="clip1_40003003_16705">
<rect width="50.2821" height="56.9231" fill="white" transform="matrix(-1 0 0 1 50.2822 55.4872)"/>
</clipPath>
</defs>
</svg>