<svg width="247" height="346" viewBox="0 0 247 346" fill="none" xmlns="http://www.w3.org/2000/svg">
<g clip-path="url(#clip0_40001407_16775)">
<g filter="url(#filter0_g_40001407_16775)">
<path d="M9.71857 230.271C20.8213 230.271 29.8219 221.27 29.8219 210.168C29.8219 199.065 20.8213 190.064 9.71857 190.064C-1.3842 190.064 -10.3848 199.065 -10.3848 210.168C-10.3848 221.27 -1.3842 230.271 9.71857 230.271Z" fill="#93D1E0"/>
</g>
</g>
<g clip-path="url(#clip1_40001407_16775)">
<g filter="url(#filter1_g_40001407_16775)">
<path d="M230.962 336.311C230.962 325.28 222.019 316.337 210.987 316.337C199.956 316.337 191.013 325.28 191.013 336.311C191.013 347.343 199.956 356.286 210.987 356.286C222.019 356.286 230.962 347.343 230.962 336.311Z" fill="#93D1E0"/>
</g>
</g>
<g clip-path="url(#clip2_40001407_16775)">
<path d="M236.747 223.762L236.7 223.837C236.636 223.918 236.574 224.003 236.513 224.095C236.588 223.987 236.667 223.872 236.747 223.762Z" fill="white" stroke="#2C2C2C" stroke-width="0.948718" stroke-miterlimit="10" stroke-linecap="round"/>
<path d="M270.714 224.844C272.284 230.494 264.938 233.817 260.994 235.604C255.908 237.905 249.021 240.323 241.605 242.413C234.188 244.502 227.055 246.034 221.522 246.725C217.23 247.258 209.238 248.256 207.669 242.606C207.033 240.316 207.895 238.461 209.132 237.045C208.565 235.294 208.425 233.41 208.783 231.61C209.47 228.122 211.862 225.395 215.332 224.126C215.667 224 215.996 223.895 216.317 223.805C217.938 223.348 219.746 223.099 221.723 223.057L221.239 220.16C215.372 218.246 210.976 213.913 209.418 208.304C208.579 205.283 208.624 202.063 209.553 198.985C210.002 197.488 209.625 195.863 208.523 194.542C207.092 192.836 206.07 190.89 205.48 188.767C204.769 186.207 204.73 183.576 205.361 180.935C205.862 178.871 205.447 176.841 204.257 175.514C202.707 173.779 201.614 171.779 201.002 169.576C198.567 160.808 204.657 151.406 214.582 148.609C224.507 145.813 234.568 150.665 237.004 159.433C237.617 161.642 237.713 163.923 237.28 166.21C236.948 167.972 237.644 169.923 239.134 171.439C241 173.332 242.358 175.667 243.057 178.181C243.65 180.315 243.774 182.52 243.422 184.722C243.162 186.408 243.682 187.993 244.846 189.048C247.219 191.19 248.916 193.919 249.755 196.939C251.051 201.605 250.184 206.645 247.454 210.956L248.591 213.093C249.546 212.284 250.545 211.568 251.612 210.939C251.903 210.764 252.204 210.605 252.507 210.451C253.154 210.132 253.796 209.889 254.438 209.709C259.352 208.324 264.427 210.877 266.5 215.783C267.251 217.557 267.511 219.382 267.333 221.119C268.906 221.78 270.179 222.917 270.714 224.844Z" fill="#FBFBFB" stroke="#9C9C9C" stroke-width="0.948718" stroke-miterlimit="10"/>
<g filter="url(#filter2_g_40001407_16775)">
<path d="M238.193 230.122C245.62 228.023 252.46 226.58 257.511 225.941C260.039 225.621 262.099 225.505 263.553 225.603C264.282 225.652 264.83 225.753 265.199 225.892C265.584 226.037 265.669 226.18 265.686 226.24C265.702 226.3 265.703 226.467 265.449 226.792C265.204 227.105 264.788 227.478 264.19 227.903C262.997 228.748 261.177 229.728 258.851 230.78C254.205 232.88 247.616 235.231 240.19 237.329C232.763 239.427 225.923 240.87 220.872 241.51C218.343 241.83 216.283 241.945 214.83 241.848C214.1 241.799 213.552 241.697 213.183 241.558C212.799 241.413 212.714 241.27 212.697 241.21C212.681 241.15 212.68 240.983 212.934 240.658C213.178 240.346 213.594 239.972 214.192 239.548C215.385 238.703 217.206 237.722 219.532 236.67C224.178 234.57 230.767 232.22 238.193 230.122Z" fill="#2C2C2C" stroke="#2C2C2C" stroke-width="0.948718"/>
<path d="M225.889 192.444L236.475 230.763C237.055 232.86 235.823 235.043 233.726 235.637L220.547 239.369C213.645 241.325 210.168 231.096 216.909 228.623C217.117 228.545 217.334 228.477 217.558 228.414C220.449 227.595 224.076 227.714 227.402 228.246L221.724 193.63L225.891 192.45L225.889 192.444Z" fill="#CBCBC5" stroke="#2C2C2C" stroke-width="0.948718" stroke-miterlimit="10"/>
<path d="M230.81 229.068C230.093 228.888 228.488 228.428 225.544 228.025L230.81 229.068Z" fill="#CBCBC5"/>
<path d="M230.81 229.068C230.093 228.888 228.488 228.428 225.544 228.025" stroke="#2C2C2C" stroke-width="0.948718" stroke-miterlimit="10" stroke-linecap="round"/>
<path d="M228.214 194.272L242.6 230.409C243.7 232.284 246.107 232.903 247.986 231.788L259.785 224.803C265.967 221.144 261.063 211.532 254.624 214.707C254.422 214.808 254.222 214.914 254.026 215.031C251.438 216.564 249.504 218.579 247.58 221.367L231.941 192.064L228.208 194.274L228.214 194.272Z" fill="#CBCBC5" stroke="#2C2C2C" stroke-width="0.948718" stroke-miterlimit="10"/>
<path d="M245.306 225.089C245.672 224.441 246.462 222.955 248.213 220.534L245.306 225.089Z" fill="#CBCBC5"/>
<path d="M245.306 225.089C245.672 224.441 246.462 222.955 248.213 220.534" stroke="#2C2C2C" stroke-width="0.948718" stroke-miterlimit="10" stroke-linecap="round"/>
<path d="M247.961 231.549C247.961 231.549 256.165 217.174 259.463 219.04" stroke="#2C2C2C" stroke-width="0.948718" stroke-miterlimit="10" stroke-linecap="round"/>
</g>
<g filter="url(#filter3_g_40001407_16775)">
<path d="M245.173 198.23C247.183 205.468 241.833 213.309 233.231 215.733C224.629 218.156 216.016 214.249 214.005 207.011C213.389 204.79 213.462 202.518 214.11 200.362C215.042 197.246 214.254 193.945 212.175 191.46C211.213 190.31 210.489 188.969 210.073 187.473C209.572 185.667 209.572 183.824 209.999 182.048C210.828 178.607 210.162 174.942 207.808 172.311C206.786 171.166 206.02 169.812 205.597 168.287C203.865 162.051 208.466 155.295 215.872 153.209C223.277 151.123 230.703 154.49 232.435 160.726C232.86 162.257 232.903 163.814 232.621 165.333C231.963 168.812 233.29 172.297 235.767 174.813C237.039 176.104 237.984 177.681 238.482 179.476C238.898 180.972 238.969 182.496 238.739 183.982C238.242 187.193 239.264 190.428 241.671 192.604C243.331 194.109 244.569 196.012 245.186 198.233L245.173 198.23Z" fill="#EEEDEB"/>
<path d="M245.173 198.23C247.183 205.468 241.833 213.309 233.231 215.733C224.629 218.156 216.016 214.249 214.005 207.011C213.389 204.79 213.462 202.518 214.11 200.362C215.042 197.246 214.254 193.945 212.175 191.46C211.213 190.31 210.489 188.969 210.073 187.473C209.572 185.667 209.572 183.824 209.999 182.048C210.828 178.607 210.162 174.942 207.808 172.311C206.786 171.166 206.02 169.812 205.597 168.287C203.865 162.051 208.466 155.295 215.872 153.209C223.277 151.123 230.703 154.49 232.435 160.726C232.86 162.257 232.903 163.814 232.621 165.333C231.963 168.812 233.29 172.297 235.767 174.813C237.039 176.104 237.984 177.681 238.482 179.476C238.898 180.972 238.969 182.496 238.739 183.982C238.242 187.193 239.264 190.428 241.671 192.604C243.331 194.109 244.569 196.012 245.186 198.233L245.173 198.23Z" stroke="#2C2C2C" stroke-width="0.948718" stroke-miterlimit="10"/>
</g>
<g filter="url(#filter4_g_40001407_16775)">
<path d="M218.784 164.196C219.375 166.334 219.376 168.198 217.326 168.778C215.408 169.321 214.052 167.841 213.461 165.703C212.87 163.566 213.041 161.653 215.189 161.045C217.061 160.515 218.193 162.059 218.784 164.196Z" fill="#FBFBFB" stroke="#2C2C2C" stroke-width="0.948718" stroke-miterlimit="10"/>
<path d="M224.093 162.701C224.114 162.775 224.133 162.844 224.154 162.919C224.417 163.916 224.532 164.85 224.352 165.607C223.655 165.885 223.15 166.48 222.958 167.172C222.858 167.213 222.756 167.248 222.647 167.279C220.729 167.822 219.367 166.343 218.776 164.206C218.185 162.069 218.362 160.154 220.51 159.546C222.313 159.036 223.427 160.448 224.034 162.463C224.054 162.538 224.077 162.619 224.097 162.693L224.093 162.701Z" fill="#FBFBFB" stroke="#2C2C2C" stroke-width="0.948718" stroke-miterlimit="10"/>
<path d="M216.975 163.128C217.321 163.031 217.564 163.115 217.778 163.328C218.021 163.57 218.231 163.988 218.385 164.547C218.545 165.123 218.598 165.581 218.524 165.907C218.49 166.059 218.43 166.173 218.346 166.261C218.26 166.35 218.126 166.437 217.907 166.499C217.537 166.604 217.247 166.519 216.998 166.302C216.729 166.067 216.496 165.662 216.347 165.124C216.193 164.564 216.161 164.104 216.256 163.774C216.339 163.488 216.529 163.255 216.975 163.128Z" fill="#2C2C2C" stroke="#2C2C2C" stroke-width="0.948718"/>
<path d="M222.223 161.414C222.568 161.316 222.811 161.401 223.026 161.614C223.269 161.855 223.479 162.274 223.633 162.833C223.792 163.409 223.846 163.867 223.772 164.193C223.737 164.345 223.678 164.459 223.593 164.547C223.508 164.636 223.373 164.723 223.154 164.785C222.785 164.89 222.494 164.804 222.246 164.588C221.977 164.353 221.744 163.948 221.595 163.41C221.44 162.85 221.408 162.39 221.504 162.06C221.587 161.774 221.776 161.541 222.223 161.414Z" fill="#2C2C2C" stroke="#2C2C2C" stroke-width="0.948718"/>
<path d="M219.996 168.129C220.298 168.1 220.479 168.209 220.589 168.334C220.7 168.461 220.734 168.6 220.74 168.677C220.727 168.688 220.708 168.707 220.676 168.727C220.581 168.788 220.444 168.845 220.294 168.871C219.977 168.926 219.796 168.836 219.717 168.668C219.65 168.527 219.658 168.45 219.666 168.416C219.676 168.376 219.701 168.33 219.756 168.278C219.812 168.226 219.882 168.183 219.946 168.152C219.965 168.142 219.982 168.135 219.996 168.129Z" fill="#93D1E0" stroke="#2C2C2C" stroke-width="0.948718"/>
<path d="M223.786 168.064C223.786 168.064 223.335 171.434 219.125 170.78" stroke="#2C2C2C" stroke-width="0.948718" stroke-miterlimit="10" stroke-linecap="round"/>
<path d="M224.345 165.62C224.422 165.585 224.507 165.555 224.593 165.531C225.435 165.293 226.302 165.543 226.88 166.116" stroke="#2C2C2C" stroke-width="0.948718" stroke-miterlimit="10" stroke-linecap="round"/>
<path d="M222.959 167.18L222.946 167.23" stroke="#2C2C2C" stroke-width="0.948718" stroke-miterlimit="10" stroke-linecap="round"/>
</g>
</g>
<g clip-path="url(#clip3_40001407_16775)">
<path d="M7.22771 100.762L7.27473 100.837C7.33893 100.918 7.40153 101.003 7.46254 101.095C7.38755 100.987 7.30843 100.872 7.22771 100.762Z" fill="white" stroke="#2C2C2C" stroke-width="0.948718" stroke-miterlimit="10" stroke-linecap="round"/>
<path d="M-26.7393 101.844C-28.3085 107.494 -20.9625 110.817 -17.0188 112.604C-11.9334 114.905 -5.04628 117.323 2.37049 119.413C9.78726 121.502 16.9204 123.034 22.4533 123.725C26.7454 124.258 34.7369 125.256 36.3061 119.606C36.9421 117.316 36.0804 115.461 34.8432 114.045C35.4099 112.294 35.5502 110.41 35.1919 108.61C34.5055 105.122 32.1136 102.395 28.6435 101.126C28.3079 101 27.9789 100.895 27.6582 100.805C26.0373 100.348 24.2291 100.099 22.2523 100.057L22.7359 97.1597C28.6031 95.2456 32.999 90.9132 34.557 85.3037C35.396 82.2831 35.3516 79.0634 34.4219 75.985C33.9732 74.4876 34.3503 72.863 35.4521 71.5419C36.8831 69.8359 37.9051 67.8905 38.4948 65.7675C39.2059 63.2072 39.2452 60.5755 38.6138 57.9348C38.1127 55.8705 38.5281 53.8411 39.7181 52.5138C41.2682 50.7793 42.3609 48.7794 42.9729 46.5758C45.4082 37.8076 39.3184 28.4057 29.3931 25.6094C19.4678 22.8131 9.40677 27.6648 6.97149 36.433C6.35787 38.6423 6.2617 40.923 6.69482 43.2101C7.0267 44.9723 6.33062 46.9227 4.84125 48.4386C2.97524 50.3323 1.6167 52.6667 0.918391 55.181C0.32555 57.3155 0.201135 59.5199 0.552877 61.722C0.813221 63.4083 0.292938 64.9925 -0.870947 66.048C-3.24426 68.1896 -4.94095 70.9189 -5.77988 73.9394C-7.07582 78.6054 -6.20915 83.645 -3.47906 87.9564L-4.61585 90.0928C-5.57073 89.284 -6.56995 88.5682 -7.63644 87.939C-7.92746 87.764 -8.22901 87.6046 -8.53216 87.4509C-9.17855 87.1323 -9.8212 86.8892 -10.4626 86.7085C-15.3766 85.3241 -20.4517 87.877 -22.5245 92.7832C-23.2764 94.5565 -23.5363 96.3816 -23.3581 98.1192C-24.9312 98.7802 -26.204 99.9167 -26.7393 101.844Z" fill="#FBFBFB" stroke="#9C9C9C" stroke-width="0.948718" stroke-miterlimit="10"/>
<g filter="url(#filter5_g_40001407_16775)">
<path d="M5.7812 107.122C-1.64547 105.023 -8.4852 103.58 -13.5359 102.941C-16.0648 102.621 -18.1244 102.505 -19.5779 102.603C-20.3077 102.652 -20.8552 102.753 -21.2247 102.892C-21.6089 103.037 -21.6945 103.18 -21.7111 103.24C-21.7278 103.3 -21.7279 103.467 -21.4739 103.792C-21.2296 104.105 -20.8137 104.478 -20.215 104.903C-19.0225 105.748 -17.2025 106.728 -14.8762 107.78C-10.2302 109.88 -3.64163 112.231 3.78503 114.329C11.2117 116.427 18.0514 117.87 23.1021 118.51C25.6312 118.83 27.6915 118.945 29.1451 118.848C29.8747 118.799 30.4224 118.697 30.7919 118.558C31.1759 118.413 31.2607 118.27 31.2774 118.21C31.294 118.15 31.2949 117.983 31.0411 117.658C30.7968 117.346 30.3807 116.972 29.7821 116.548C28.5897 115.703 26.7689 114.722 24.4425 113.67C19.7964 111.57 13.2079 109.22 5.7812 107.122Z" fill="#2C2C2C" stroke="#2C2C2C" stroke-width="0.948718"/>
<path d="M18.0851 69.4442L7.49937 107.763C6.92 109.86 8.15133 112.043 10.2491 112.637L23.4274 116.369C30.3298 118.325 33.8063 108.096 27.0656 105.623C26.8577 105.545 26.6409 105.477 26.4167 105.414C23.5259 104.595 19.8989 104.714 16.5728 105.246L22.2503 70.6302L18.0836 69.45L18.0851 69.4442Z" fill="#CBCBC5" stroke="#2C2C2C" stroke-width="0.948718" stroke-miterlimit="10"/>
<path d="M13.1646 106.068C13.8821 105.888 15.487 105.428 18.4302 105.025L13.1646 106.068Z" fill="#CBCBC5"/>
<path d="M13.1646 106.068C13.8821 105.888 15.487 105.428 18.4302 105.025" stroke="#2C2C2C" stroke-width="0.948718" stroke-miterlimit="10" stroke-linecap="round"/>
<path d="M15.7607 71.2723L1.37509 107.409C0.274922 109.284 -2.13239 109.903 -4.0114 108.788L-15.8104 101.803C-21.9922 98.144 -17.0887 88.5324 -10.6492 91.7071C-10.4477 91.8076 -10.2478 91.9137 -10.0511 92.0314C-7.4635 93.5636 -5.52986 95.5794 -3.60495 98.367L12.0339 69.0644L15.7664 71.2739L15.7607 71.2723Z" fill="#CBCBC5" stroke="#2C2C2C" stroke-width="0.948718" stroke-miterlimit="10"/>
</g>
<g filter="url(#filter6_g_40001407_16775)">
<path d="M-1.19801 75.2302C-3.20824 82.468 2.14175 90.3092 10.7441 92.7327C19.3464 95.1563 27.9594 91.249 29.9696 84.0112C30.5864 81.7904 30.5136 79.518 29.8648 77.3624C28.9333 74.2463 29.7206 70.9445 31.8002 68.4596C32.7618 67.3099 33.4862 65.9693 33.9016 64.4734C34.4034 62.6668 34.4026 60.8241 33.9759 59.0476C33.1469 55.6067 33.8128 51.9419 36.1675 49.3112C37.1896 48.1661 37.9547 46.8121 38.3781 45.2875C40.1103 39.0508 35.5087 32.2952 28.1033 30.2089C20.698 28.1225 13.2725 31.4897 11.5403 37.7264C11.1152 39.2568 11.0718 40.814 11.354 42.3328C12.0117 45.8122 10.6856 49.2972 8.20841 51.8128C6.93572 53.1044 5.99149 54.6808 5.49293 56.4759C5.07746 57.9718 5.00602 59.4964 5.23572 60.9817C5.73336 64.1927 4.71118 67.4284 2.30376 69.6038C0.64444 71.109 -0.59425 73.012 -1.21106 75.2328L-1.19801 75.2302Z" fill="#EEEDEB"/>
<path d="M-1.19801 75.2302C-3.20824 82.468 2.14175 90.3092 10.7441 92.7327C19.3464 95.1563 27.9594 91.249 29.9696 84.0112C30.5864 81.7904 30.5136 79.518 29.8648 77.3624C28.9333 74.2463 29.7206 70.9445 31.8002 68.4596C32.7618 67.3099 33.4862 65.9693 33.9016 64.4734C34.4034 62.6668 34.4026 60.8241 33.9759 59.0476C33.1469 55.6067 33.8128 51.9419 36.1675 49.3112C37.1896 48.1661 37.9547 46.8121 38.3781 45.2875C40.1103 39.0508 35.5087 32.2952 28.1033 30.2089C20.698 28.1225 13.2725 31.4897 11.5403 37.7264C11.1152 39.2568 11.0718 40.814 11.354 42.3328C12.0117 45.8122 10.6856 49.2972 8.20841 51.8128C6.93572 53.1044 5.99149 54.6808 5.49293 56.4759C5.07746 57.9718 5.00602 59.4964 5.23572 60.9817C5.73336 64.1927 4.71118 67.4284 2.30376 69.6038C0.64444 71.109 -0.59425 73.012 -1.21106 75.2328L-1.19801 75.2302Z" stroke="#2C2C2C" stroke-width="0.948718" stroke-miterlimit="10"/>
</g>
<g filter="url(#filter7_g_40001407_16775)">
<path d="M25.1906 41.1964C24.5999 43.3335 24.5986 45.1977 26.6485 45.7781C28.5664 46.3211 29.9228 44.8406 30.5135 42.7034C31.1041 40.5663 30.9332 38.6533 28.7857 38.0453C26.9138 37.5153 25.7812 39.0592 25.1906 41.1964Z" fill="#FBFBFB" stroke="#2C2C2C" stroke-width="0.948718" stroke-miterlimit="10"/>
<path d="M19.8819 39.7007C19.8612 39.7754 19.8422 39.8443 19.8215 39.919C19.5583 40.9161 19.4427 41.8497 19.6235 42.6071C20.3206 42.885 20.8248 43.48 21.0173 44.1725C21.1175 44.2133 21.2192 44.2483 21.3283 44.2792C23.2462 44.8221 24.6084 43.3433 25.199 41.2061C25.7897 39.069 25.613 37.1544 23.4655 36.5464C21.6625 36.0359 20.5477 37.4485 19.9412 39.4635C19.9206 39.5382 19.8984 39.6186 19.8777 39.6933L19.8819 39.7007Z" fill="#FBFBFB" stroke="#2C2C2C" stroke-width="0.948718" stroke-miterlimit="10"/>
<path d="M26.9994 40.1286C26.6541 40.0308 26.411 40.1155 26.1965 40.3286C25.9536 40.5698 25.7436 40.9885 25.5892 41.5471C25.4301 42.1229 25.3766 42.5811 25.4503 42.9074C25.4848 43.0597 25.5445 43.1734 25.6291 43.2614C25.7145 43.3502 25.8488 43.4373 26.0679 43.4993C26.4372 43.6039 26.7279 43.5187 26.9765 43.3019C27.2452 43.0676 27.4785 42.6622 27.6273 42.1241C27.7821 41.564 27.814 41.1045 27.7185 40.7747C27.6355 40.488 27.446 40.2551 26.9994 40.1286Z" fill="#2C2C2C" stroke="#2C2C2C" stroke-width="0.948718"/>
<path d="M21.7519 38.4144C21.4065 38.3166 21.1634 38.4012 20.9489 38.6143C20.7061 38.8556 20.496 39.2742 20.3416 39.8328C20.1825 40.4087 20.1291 40.8669 20.2028 41.1931C20.2372 41.3455 20.2969 41.4592 20.3815 41.5472C20.467 41.636 20.6012 41.7231 20.8203 41.7851C21.1896 41.8897 21.4803 41.8045 21.729 41.5877C21.9976 41.3534 22.2309 40.948 22.3797 40.4099C22.5345 39.8498 22.5664 39.3903 22.471 39.0605C22.388 38.7738 22.1985 38.5408 21.7519 38.4144Z" fill="#2C2C2C" stroke="#2C2C2C" stroke-width="0.948718"/>
<path d="M23.978 45.1291C23.6758 45.1002 23.4947 45.2088 23.3853 45.334C23.2741 45.4611 23.2396 45.6002 23.2346 45.677C23.2475 45.6885 23.2661 45.7072 23.2977 45.7273C23.3926 45.7879 23.5305 45.8448 23.6804 45.8711C23.9975 45.9265 24.1784 45.8358 24.2575 45.6678C24.3239 45.5268 24.3159 45.4503 24.3079 45.4162C24.2984 45.3762 24.2731 45.3297 24.2184 45.2783C24.1626 45.2257 24.092 45.1827 24.0285 45.1515C24.0096 45.1422 23.9921 45.135 23.978 45.1291Z" fill="#93D1E0" stroke="#2C2C2C" stroke-width="0.948718"/>
<path d="M20.1886 45.0646C20.1886 45.0646 20.6395 48.434 24.8494 47.7797" stroke="#2C2C2C" stroke-width="0.948718" stroke-miterlimit="10" stroke-linecap="round"/>
<path d="M19.6295 42.6195C19.5524 42.5854 19.4681 42.5553 19.3821 42.531C18.5395 42.2929 17.673 42.5432 17.0941 43.1162" stroke="#2C2C2C" stroke-width="0.948718" stroke-miterlimit="10" stroke-linecap="round"/>
<path d="M21.0155 44.1802L21.0281 44.2302" stroke="#2C2C2C" stroke-width="0.948718" stroke-miterlimit="10" stroke-linecap="round"/>
</g>
</g>
<g clip-path="url(#clip4_40001407_16775)">
<path d="M7.22771 100.762L7.27473 100.837C7.33893 100.918 7.40153 101.003 7.46254 101.095C7.38755 100.987 7.30843 100.872 7.22771 100.762Z" fill="white" stroke="#2C2C2C" stroke-width="0.948718" stroke-miterlimit="10" stroke-linecap="round"/>
<path d="M-26.7393 101.844C-28.3085 107.494 -20.9625 110.817 -17.0188 112.604C-11.9334 114.905 -5.04628 117.323 2.37049 119.413C9.78726 121.502 16.9204 123.034 22.4533 123.725C26.7454 124.258 34.7369 125.256 36.3061 119.606C36.9421 117.316 36.0804 115.461 34.8432 114.045C35.4099 112.294 35.5502 110.41 35.1919 108.61C34.5055 105.122 32.1136 102.395 28.6435 101.126C28.3079 101 27.9789 100.895 27.6582 100.805C26.0373 100.348 24.2291 100.099 22.2523 100.057L22.7359 97.1597C28.6031 95.2456 32.999 90.9132 34.557 85.3037C35.396 82.2831 35.3516 79.0634 34.4219 75.985C33.9732 74.4876 34.3503 72.863 35.4521 71.5419C36.8831 69.8359 37.9051 67.8905 38.4948 65.7675C39.2059 63.2072 39.2452 60.5755 38.6138 57.9348C38.1127 55.8705 38.5281 53.8411 39.7181 52.5138C41.2682 50.7793 42.3609 48.7794 42.9729 46.5758C45.4082 37.8076 39.3184 28.4057 29.3931 25.6094C19.4678 22.8131 9.40677 27.6648 6.97149 36.433C6.35787 38.6423 6.2617 40.923 6.69482 43.2101C7.0267 44.9723 6.33062 46.9227 4.84125 48.4386C2.97524 50.3323 1.6167 52.6667 0.918391 55.181C0.32555 57.3155 0.201135 59.5199 0.552877 61.722C0.813221 63.4083 0.292938 64.9925 -0.870947 66.048C-3.24426 68.1896 -4.94095 70.9189 -5.77988 73.9394C-7.07582 78.6054 -6.20915 83.645 -3.47906 87.9564L-4.61585 90.0928C-5.57073 89.284 -6.56995 88.5682 -7.63644 87.939C-7.92746 87.764 -8.22901 87.6046 -8.53216 87.4509C-9.17855 87.1323 -9.8212 86.8892 -10.4626 86.7085C-15.3766 85.3241 -20.4517 87.877 -22.5245 92.7832C-23.2764 94.5565 -23.5363 96.3816 -23.3581 98.1192C-24.9312 98.7802 -26.204 99.9167 -26.7393 101.844Z" fill="#FBFBFB" stroke="#9C9C9C" stroke-width="0.948718" stroke-miterlimit="10"/>
<g filter="url(#filter8_g_40001407_16775)">
<path d="M5.7812 107.122C-1.64547 105.023 -8.4852 103.58 -13.5359 102.941C-16.0648 102.621 -18.1244 102.505 -19.5779 102.603C-20.3077 102.652 -20.8552 102.753 -21.2247 102.892C-21.6089 103.037 -21.6945 103.18 -21.7111 103.24C-21.7278 103.3 -21.7279 103.467 -21.4739 103.792C-21.2296 104.105 -20.8137 104.478 -20.215 104.903C-19.0225 105.748 -17.2025 106.728 -14.8762 107.78C-10.2302 109.88 -3.64163 112.231 3.78503 114.329C11.2117 116.427 18.0514 117.87 23.1021 118.51C25.6312 118.83 27.6915 118.945 29.1451 118.848C29.8747 118.799 30.4224 118.697 30.7919 118.558C31.1759 118.413 31.2607 118.27 31.2774 118.21C31.294 118.15 31.2949 117.983 31.0411 117.658C30.7968 117.346 30.3807 116.972 29.7821 116.548C28.5897 115.703 26.7689 114.722 24.4425 113.67C19.7964 111.57 13.2079 109.22 5.7812 107.122Z" fill="#2C2C2C" stroke="#2C2C2C" stroke-width="0.948718"/>
<path d="M18.0851 69.4442L7.49937 107.763C6.92 109.86 8.15133 112.043 10.2491 112.637L23.4274 116.369C30.3298 118.325 33.8063 108.096 27.0656 105.623C26.8577 105.545 26.6409 105.477 26.4167 105.414C23.5259 104.595 19.8989 104.714 16.5728 105.246L22.2503 70.6302L18.0836 69.45L18.0851 69.4442Z" fill="#CBCBC5" stroke="#2C2C2C" stroke-width="0.948718" stroke-miterlimit="10"/>
<path d="M13.1646 106.068C13.8821 105.888 15.487 105.428 18.4302 105.025L13.1646 106.068Z" fill="#CBCBC5"/>
<path d="M13.1646 106.068C13.8821 105.888 15.487 105.428 18.4302 105.025" stroke="#2C2C2C" stroke-width="0.948718" stroke-miterlimit="10" stroke-linecap="round"/>
<path d="M15.7607 71.2723L1.37509 107.409C0.274922 109.284 -2.13239 109.903 -4.0114 108.788L-15.8104 101.803C-21.9922 98.144 -17.0887 88.5324 -10.6492 91.7071C-10.4477 91.8076 -10.2478 91.9137 -10.0511 92.0314C-7.4635 93.5636 -5.52986 95.5794 -3.60495 98.367L12.0339 69.0644L15.7664 71.2739L15.7607 71.2723Z" fill="#CBCBC5" stroke="#2C2C2C" stroke-width="0.948718" stroke-miterlimit="10"/>
</g>
<g filter="url(#filter9_g_40001407_16775)">
<path d="M-1.19801 75.2302C-3.20824 82.468 2.14175 90.3092 10.7441 92.7327C19.3464 95.1563 27.9594 91.249 29.9696 84.0112C30.5864 81.7904 30.5136 79.518 29.8648 77.3624C28.9333 74.2463 29.7206 70.9445 31.8002 68.4596C32.7618 67.3099 33.4862 65.9693 33.9016 64.4734C34.4034 62.6668 34.4026 60.8241 33.9759 59.0476C33.1469 55.6067 33.8128 51.9419 36.1675 49.3112C37.1896 48.1661 37.9547 46.8121 38.3781 45.2875C40.1103 39.0508 35.5087 32.2952 28.1033 30.2089C20.698 28.1225 13.2725 31.4897 11.5403 37.7264C11.1152 39.2568 11.0718 40.814 11.354 42.3328C12.0117 45.8122 10.6856 49.2972 8.20841 51.8128C6.93572 53.1044 5.99149 54.6808 5.49293 56.4759C5.07746 57.9718 5.00602 59.4964 5.23572 60.9817C5.73336 64.1927 4.71118 67.4284 2.30376 69.6038C0.64444 71.109 -0.59425 73.012 -1.21106 75.2328L-1.19801 75.2302Z" fill="#EEEDEB"/>
<path d="M-1.19801 75.2302C-3.20824 82.468 2.14175 90.3092 10.7441 92.7327C19.3464 95.1563 27.9594 91.249 29.9696 84.0112C30.5864 81.7904 30.5136 79.518 29.8648 77.3624C28.9333 74.2463 29.7206 70.9445 31.8002 68.4596C32.7618 67.3099 33.4862 65.9693 33.9016 64.4734C34.4034 62.6668 34.4026 60.8241 33.9759 59.0476C33.1469 55.6067 33.8128 51.9419 36.1675 49.3112C37.1896 48.1661 37.9547 46.8121 38.3781 45.2875C40.1103 39.0508 35.5087 32.2952 28.1033 30.2089C20.698 28.1225 13.2725 31.4897 11.5403 37.7264C11.1152 39.2568 11.0718 40.814 11.354 42.3328C12.0117 45.8122 10.6856 49.2972 8.20841 51.8128C6.93572 53.1044 5.99149 54.6808 5.49293 56.4759C5.07746 57.9718 5.00602 59.4964 5.23572 60.9817C5.73336 64.1927 4.71118 67.4284 2.30376 69.6038C0.64444 71.109 -0.59425 73.012 -1.21106 75.2328L-1.19801 75.2302Z" stroke="#2C2C2C" stroke-width="0.948718" stroke-miterlimit="10"/>
</g>
<g filter="url(#filter10_g_40001407_16775)">
<path d="M25.1906 41.1964C24.5999 43.3335 24.5986 45.1977 26.6485 45.7781C28.5664 46.3211 29.9228 44.8406 30.5135 42.7034C31.1041 40.5663 30.9332 38.6533 28.7857 38.0453C26.9138 37.5153 25.7812 39.0592 25.1906 41.1964Z" fill="#FBFBFB" stroke="#2C2C2C" stroke-width="0.948718" stroke-miterlimit="10"/>
<path d="M19.8819 39.7007C19.8612 39.7754 19.8422 39.8443 19.8215 39.919C19.5583 40.9161 19.4427 41.8497 19.6235 42.6071C20.3206 42.885 20.8248 43.48 21.0173 44.1725C21.1175 44.2133 21.2192 44.2483 21.3283 44.2792C23.2462 44.8221 24.6084 43.3433 25.199 41.2061C25.7897 39.069 25.613 37.1544 23.4655 36.5464C21.6625 36.0359 20.5477 37.4485 19.9412 39.4635C19.9206 39.5382 19.8984 39.6186 19.8777 39.6933L19.8819 39.7007Z" fill="#FBFBFB" stroke="#2C2C2C" stroke-width="0.948718" stroke-miterlimit="10"/>
<path d="M26.9994 40.1286C26.6541 40.0308 26.411 40.1155 26.1965 40.3286C25.9536 40.5698 25.7436 40.9885 25.5892 41.5471C25.4301 42.1229 25.3766 42.5811 25.4503 42.9074C25.4848 43.0597 25.5445 43.1734 25.6291 43.2614C25.7145 43.3502 25.8488 43.4373 26.0679 43.4993C26.4372 43.6039 26.7279 43.5187 26.9765 43.3019C27.2452 43.0676 27.4785 42.6622 27.6273 42.1241C27.7821 41.564 27.814 41.1045 27.7185 40.7747C27.6355 40.488 27.446 40.2551 26.9994 40.1286Z" fill="#2C2C2C" stroke="#2C2C2C" stroke-width="0.948718"/>
<path d="M21.7519 38.4144C21.4065 38.3166 21.1634 38.4012 20.9489 38.6143C20.7061 38.8556 20.496 39.2742 20.3416 39.8328C20.1825 40.4087 20.1291 40.8669 20.2028 41.1931C20.2372 41.3455 20.2969 41.4592 20.3815 41.5472C20.467 41.636 20.6012 41.7231 20.8203 41.7851C21.1896 41.8897 21.4803 41.8045 21.729 41.5877C21.9976 41.3534 22.2309 40.948 22.3797 40.4099C22.5345 39.8498 22.5664 39.3903 22.471 39.0605C22.388 38.7738 22.1985 38.5408 21.7519 38.4144Z" fill="#2C2C2C" stroke="#2C2C2C" stroke-width="0.948718"/>
<path d="M23.978 45.1291C23.6758 45.1002 23.4947 45.2088 23.3853 45.334C23.2741 45.4611 23.2396 45.6002 23.2346 45.677C23.2475 45.6885 23.2661 45.7072 23.2977 45.7273C23.3926 45.7879 23.5305 45.8448 23.6804 45.8711C23.9975 45.9265 24.1784 45.8358 24.2575 45.6678C24.3239 45.5268 24.3159 45.4503 24.3079 45.4162C24.2984 45.3762 24.2731 45.3297 24.2184 45.2783C24.1626 45.2257 24.092 45.1827 24.0285 45.1515C24.0096 45.1422 23.9921 45.135 23.978 45.1291Z" fill="#93D1E0" stroke="#2C2C2C" stroke-width="0.948718"/>
<path d="M20.1886 45.0646C20.1886 45.0646 20.6395 48.434 24.8494 47.7797" stroke="#2C2C2C" stroke-width="0.948718" stroke-miterlimit="10" stroke-linecap="round"/>
<path d="M19.6295 42.6195C19.5524 42.5854 19.4681 42.5553 19.3821 42.531C18.5395 42.2929 17.673 42.5432 17.0941 43.1162" stroke="#2C2C2C" stroke-width="0.948718" stroke-miterlimit="10" stroke-linecap="round"/>
<path d="M21.0155 44.1802L21.0281 44.2302" stroke="#2C2C2C" stroke-width="0.948718" stroke-miterlimit="10" stroke-linecap="round"/>
</g>
</g>
<g clip-path="url(#clip5_40001407_16775)">
<g filter="url(#filter11_g_40001407_16775)">
<path d="M9.71857 230.271C20.8213 230.271 29.8219 221.27 29.8219 210.168C29.8219 199.065 20.8213 190.064 9.71857 190.064C-1.3842 190.064 -10.3848 199.065 -10.3848 210.168C-10.3848 221.27 -1.3842 230.271 9.71857 230.271Z" fill="#93D1E0"/>
</g>
</g>
<defs>
<filter id="filter0_g_40001407_16775" x="-10.7643" y="189.685" width="40.9655" height="40.9656" filterUnits="userSpaceOnUse" color-interpolation-filters="sRGB">
<feFlood flood-opacity="0" result="BackgroundImageFix"/>
<feBlend mode="normal" in="SourceGraphic" in2="BackgroundImageFix" result="shape"/>
<feTurbulence type="fractalNoise" baseFrequency="0.70270270109176636 0.70270270109176636" numOctaves="3" seed="7043" />
<feDisplacementMap in="shape" scale="0.75897437334060669" xChannelSelector="R" yChannelSelector="G" result="displacedImage" width="100%" height="100%" />
<feMerge result="effect1_texture_40001407_16775">
<feMergeNode in="displacedImage"/>
</feMerge>
</filter>
<filter id="filter1_g_40001407_16775" x="190.633" y="315.957" width="40.7082" height="40.7083" filterUnits="userSpaceOnUse" color-interpolation-filters="sRGB">
<feFlood flood-opacity="0" result="BackgroundImageFix"/>
<feBlend mode="normal" in="SourceGraphic" in2="BackgroundImageFix" result="shape"/>
<feTurbulence type="fractalNoise" baseFrequency="0.70270270109176636 0.70270270109176636" numOctaves="3" seed="7043" />
<feDisplacementMap in="shape" scale="0.75897437334060669" xChannelSelector="R" yChannelSelector="G" result="displacedImage" width="100%" height="100%" />
<feMerge result="effect1_texture_40001407_16775">
<feMergeNode in="displacedImage"/>
</feMerge>
</filter>
<filter id="filter2_g_40001407_16775" x="211.837" y="191.024" width="54.7082" height="51.7114" filterUnits="userSpaceOnUse" color-interpolation-filters="sRGB">
<feFlood flood-opacity="0" result="BackgroundImageFix"/>
<feBlend mode="normal" in="SourceGraphic" in2="BackgroundImageFix" result="shape"/>
<feTurbulence type="fractalNoise" baseFrequency="0.70270270109176636 0.70270270109176636" numOctaves="3" seed="7043" />
<feDisplacementMap in="shape" scale="0.75897437334060669" xChannelSelector="R" yChannelSelector="G" result="displacedImage" width="100%" height="100%" />
<feMerge result="effect1_texture_40001407_16775">
<feMergeNode in="displacedImage"/>
</feMerge>
</filter>
<filter id="filter3_g_40001407_16775" x="204.377" y="151.738" width="42.0744" height="65.5651" filterUnits="userSpaceOnUse" color-interpolation-filters="sRGB">
<feFlood flood-opacity="0" result="BackgroundImageFix"/>
<feBlend mode="normal" in="SourceGraphic" in2="BackgroundImageFix" result="shape"/>
<feTurbulence type="fractalNoise" baseFrequency="0.70270270109176636 0.70270270109176636" numOctaves="3" seed="7043" />
<feDisplacementMap in="shape" scale="0.75897437334060669" xChannelSelector="R" yChannelSelector="G" result="displacedImage" width="100%" height="100%" />
<feMerge result="effect1_texture_40001407_16775">
<feMergeNode in="displacedImage"/>
</feMerge>
</filter>
<filter id="filter4_g_40001407_16775" x="212.314" y="158.587" width="15.4191" height="13.1315" filterUnits="userSpaceOnUse" color-interpolation-filters="sRGB">
<feFlood flood-opacity="0" result="BackgroundImageFix"/>
<feBlend mode="normal" in="SourceGraphic" in2="BackgroundImageFix" result="shape"/>
<feTurbulence type="fractalNoise" baseFrequency="0.70270270109176636 0.70270270109176636" numOctaves="3" seed="7043" />
<feDisplacementMap in="shape" scale="0.75897437334060669" xChannelSelector="R" yChannelSelector="G" result="displacedImage" width="100%" height="100%" />
<feMerge result="effect1_texture_40001407_16775">
<feMergeNode in="displacedImage"/>
</feMerge>
</filter>
<filter id="filter5_g_40001407_16775" x="-22.5709" y="68.0244" width="54.7082" height="51.7114" filterUnits="userSpaceOnUse" color-interpolation-filters="sRGB">
<feFlood flood-opacity="0" result="BackgroundImageFix"/>
<feBlend mode="normal" in="SourceGraphic" in2="BackgroundImageFix" result="shape"/>
<feTurbulence type="fractalNoise" baseFrequency="0.70270270109176636 0.70270270109176636" numOctaves="3" seed="7043" />
<feDisplacementMap in="shape" scale="0.75897437334060669" xChannelSelector="R" yChannelSelector="G" result="displacedImage" width="100%" height="100%" />
<feMerge result="effect1_texture_40001407_16775">
<feMergeNode in="displacedImage"/>
</feMerge>
</filter>
<filter id="filter6_g_40001407_16775" x="-2.47617" y="28.7384" width="42.0744" height="65.5651" filterUnits="userSpaceOnUse" color-interpolation-filters="sRGB">
<feFlood flood-opacity="0" result="BackgroundImageFix"/>
<feBlend mode="normal" in="SourceGraphic" in2="BackgroundImageFix" result="shape"/>
<feTurbulence type="fractalNoise" baseFrequency="0.70270270109176636 0.70270270109176636" numOctaves="3" seed="7043" />
<feDisplacementMap in="shape" scale="0.75897437334060669" xChannelSelector="R" yChannelSelector="G" result="displacedImage" width="100%" height="100%" />
<feMerge result="effect1_texture_40001407_16775">
<feMergeNode in="displacedImage"/>
</feMerge>
</filter>
<filter id="filter7_g_40001407_16775" x="16.2411" y="35.5868" width="15.4191" height="13.1315" filterUnits="userSpaceOnUse" color-interpolation-filters="sRGB">
<feFlood flood-opacity="0" result="BackgroundImageFix"/>
<feBlend mode="normal" in="SourceGraphic" in2="BackgroundImageFix" result="shape"/>
<feTurbulence type="fractalNoise" baseFrequency="0.70270270109176636 0.70270270109176636" numOctaves="3" seed="7043" />
<feDisplacementMap in="shape" scale="0.75897437334060669" xChannelSelector="R" yChannelSelector="G" result="displacedImage" width="100%" height="100%" />
<feMerge result="effect1_texture_40001407_16775">
<feMergeNode in="displacedImage"/>
</feMerge>
</filter>
<filter id="filter8_g_40001407_16775" x="-22.5709" y="68.0244" width="54.7082" height="51.7114" filterUnits="userSpaceOnUse" color-interpolation-filters="sRGB">
<feFlood flood-opacity="0" result="BackgroundImageFix"/>
<feBlend mode="normal" in="SourceGraphic" in2="BackgroundImageFix" result="shape"/>
<feTurbulence type="fractalNoise" baseFrequency="0.70270270109176636 0.70270270109176636" numOctaves="3" seed="7043" />
<feDisplacementMap in="shape" scale="0.75897437334060669" xChannelSelector="R" yChannelSelector="G" result="displacedImage" width="100%" height="100%" />
<feMerge result="effect1_texture_40001407_16775">
<feMergeNode in="displacedImage"/>
</feMerge>
</filter>
<filter id="filter9_g_40001407_16775" x="-2.47617" y="28.7384" width="42.0744" height="65.5651" filterUnits="userSpaceOnUse" color-interpolation-filters="sRGB">
<feFlood flood-opacity="0" result="BackgroundImageFix"/>
<feBlend mode="normal" in="SourceGraphic" in2="BackgroundImageFix" result="shape"/>
<feTurbulence type="fractalNoise" baseFrequency="0.70270270109176636 0.70270270109176636" numOctaves="3" seed="7043" />
<feDisplacementMap in="shape" scale="0.75897437334060669" xChannelSelector="R" yChannelSelector="G" result="displacedImage" width="100%" height="100%" />
<feMerge result="effect1_texture_40001407_16775">
<feMergeNode in="displacedImage"/>
</feMerge>
</filter>
<filter id="filter10_g_40001407_16775" x="16.2411" y="35.5868" width="15.4191" height="13.1315" filterUnits="userSpaceOnUse" color-interpolation-filters="sRGB">
<feFlood flood-opacity="0" result="BackgroundImageFix"/>
<feBlend mode="normal" in="SourceGraphic" in2="BackgroundImageFix" result="shape"/>
<feTurbulence type="fractalNoise" baseFrequency="0.70270270109176636 0.70270270109176636" numOctaves="3" seed="7043" />
<feDisplacementMap in="shape" scale="0.75897437334060669" xChannelSelector="R" yChannelSelector="G" result="displacedImage" width="100%" height="100%" />
<feMerge result="effect1_texture_40001407_16775">
<feMergeNode in="displacedImage"/>
</feMerge>
</filter>
<filter id="filter11_g_40001407_16775" x="-10.7643" y="189.685" width="40.9655" height="40.9656" filterUnits="userSpaceOnUse" color-interpolation-filters="sRGB">
<feFlood flood-opacity="0" result="BackgroundImageFix"/>
<feBlend mode="normal" in="SourceGraphic" in2="BackgroundImageFix" result="shape"/>
<feTurbulence type="fractalNoise" baseFrequency="0.70270270109176636 0.70270270109176636" numOctaves="3" seed="7043" />
<feDisplacementMap in="shape" scale="0.75897437334060669" xChannelSelector="R" yChannelSelector="G" result="displacedImage" width="100%" height="100%" />
<feMerge result="effect1_texture_40001407_16775">
<feMergeNode in="displacedImage"/>
</feMerge>
</filter>
<clipPath id="clip0_40001407_16775">
<rect width="56.3349" height="56.3349" fill="white" transform="translate(1 182)"/>
</clipPath>
<clipPath id="clip1_40001407_16775">
<rect width="55.9744" height="55.9744" fill="white" transform="translate(183 344.974) rotate(-90)"/>
</clipPath>
<clipPath id="clip2_40001407_16775">
<rect width="75.8974" height="112.897" fill="white" transform="translate(170 134)"/>
</clipPath>
<clipPath id="clip3_40001407_16775">
<rect width="75.8974" height="112.897" fill="white" transform="matrix(-1 0 0 1 76.8975 11)"/>
</clipPath>
<clipPath id="clip4_40001407_16775">
<rect width="75.8974" height="112.897" fill="white" transform="matrix(-1 0 0 1 76.8975 11)"/>
</clipPath>
<clipPath id="clip5_40001407_16775">
<rect width="56.3349" height="56.3349" fill="white" transform="translate(1 182)"/>
</clipPath>
</defs>
</svg>