<svg width="151" height="162" viewBox="0 0 151 162" fill="none" xmlns="http://www.w3.org/2000/svg">
<g filter="url(#filter0_g_40000162_4073)">
<g filter="url(#filter1_d_40000162_4073)">
<path d="M66.8985 149.676C55.8085 149.676 45.3265 149.017 37.3879 147.819C31.2306 146.887 19.7638 145.159 19.7638 136.758C19.7638 133.354 21.6821 131.129 23.9429 129.658C23.8316 127.023 24.3539 124.38 25.5443 122.036C27.8394 117.494 32.2069 114.653 37.5078 114.26C37.9703 114.226 38.467 114.209 38.9979 114.209C41.4129 114.209 44.0163 114.568 46.7823 115.278L47.6473 107.262C39.9656 106.595 32.1641 100.607 29.8005 93.3442C29.4322 92.2235 29.2096 91.1029 29.1068 89.9994C25.8869 88.6392 23.0608 86.0472 20.9798 82.4543C17.9226 77.159 16.4496 69.0237 20.0635 62.7789C20.1063 62.7019 20.1492 62.6335 20.192 62.565C18.7105 60.1013 17.9312 57.15 17.9312 53.8907C17.9312 44.6946 23.0694 37.8425 29.0982 35.2162C29.1924 34.087 29.4237 32.9493 29.8005 31.803C32.3096 24.0954 40.9419 17.8249 49.0603 17.8249C50.2421 17.8249 51.3811 17.9532 52.4686 18.2013C55.7057 14.4972 60.9981 12.3158 66.8985 12.3158C72.7989 12.3158 78.0913 14.4972 81.3284 18.2013C82.416 17.9532 83.555 17.8249 84.7368 17.8249C87.8882 17.8249 91.151 18.7488 94.1397 20.4084C98.3873 17.2518 103.56 15.5152 109.015 15.5152C122.803 15.5152 134.012 26.713 134.012 40.4858C134.012 52.3082 125.748 62.2314 114.693 64.8063C115.455 66.7311 115.866 68.8954 115.866 71.2393C115.866 80.4354 110.728 87.2961 104.699 89.9224C104.605 91.0516 104.373 92.1893 103.997 93.3356C101.701 100.393 94.2767 106.236 86.8092 107.185L87.8796 111.976C89.5153 111.232 91.1767 110.641 92.898 110.179C93.3176 110.068 93.78 109.957 94.3281 109.854C95.3386 109.666 96.3235 109.572 97.2912 109.572C104.639 109.572 110.685 115.064 111.678 122.635C112.038 125.372 111.695 127.99 110.779 130.317C112.706 131.831 114.033 133.901 114.033 136.767C114.033 145.167 102.566 146.895 96.4091 147.828C88.4705 149.026 77.9885 149.684 66.8985 149.684V149.676Z" fill="#FBFBFB"/>
<path d="M66.8985 149.676C55.8085 149.676 45.3265 149.017 37.3879 147.819C31.2306 146.887 19.7638 145.159 19.7638 136.758C19.7638 133.354 21.6821 131.129 23.9429 129.658C23.8316 127.023 24.3539 124.38 25.5443 122.036C27.8394 117.494 32.2069 114.653 37.5078 114.26C37.9703 114.226 38.467 114.209 38.9979 114.209C41.4129 114.209 44.0163 114.568 46.7823 115.278L47.6473 107.262C39.9656 106.595 32.1641 100.607 29.8005 93.3442C29.4322 92.2235 29.2096 91.1029 29.1068 89.9994C25.8869 88.6392 23.0608 86.0472 20.9798 82.4543C17.9226 77.159 16.4496 69.0237 20.0635 62.7789C20.1063 62.7019 20.1492 62.6335 20.192 62.565C18.7105 60.1013 17.9312 57.15 17.9312 53.8907C17.9312 44.6946 23.0694 37.8425 29.0982 35.2162C29.1924 34.087 29.4237 32.9493 29.8005 31.803C32.3096 24.0954 40.9419 17.8249 49.0603 17.8249C50.2421 17.8249 51.3811 17.9532 52.4686 18.2013C55.7057 14.4972 60.9981 12.3158 66.8985 12.3158C72.7989 12.3158 78.0913 14.4972 81.3284 18.2013C82.416 17.9532 83.555 17.8249 84.7368 17.8249C87.8882 17.8249 91.151 18.7488 94.1397 20.4084C98.3873 17.2518 103.56 15.5152 109.015 15.5152C122.803 15.5152 134.012 26.713 134.012 40.4858C134.012 52.3082 125.748 62.2314 114.693 64.8063C115.455 66.7311 115.866 68.8954 115.866 71.2393C115.866 80.4354 110.728 87.2961 104.699 89.9224C104.605 91.0516 104.373 92.1893 103.997 93.3356C101.701 100.393 94.2767 106.236 86.8092 107.185L87.8796 111.976C89.5153 111.232 91.1767 110.641 92.898 110.179C93.3176 110.068 93.78 109.957 94.3281 109.854C95.3386 109.666 96.3235 109.572 97.2912 109.572C104.639 109.572 110.685 115.064 111.678 122.635C112.038 125.372 111.695 127.99 110.779 130.317C112.706 131.831 114.033 133.901 114.033 136.767C114.033 145.167 102.566 146.895 96.4091 147.828C88.4705 149.026 77.9885 149.684 66.8985 149.684V149.676Z" stroke="#9C9C9C" stroke-miterlimit="10"/>
</g>
<path d="M109.025 58.5975C119.047 58.5975 127.172 50.4817 127.172 40.4705C127.172 30.4592 119.047 22.3434 109.025 22.3434C99.0034 22.3434 90.8789 30.4592 90.8789 40.4705C90.8789 50.4817 99.0034 58.5975 109.025 58.5975Z" fill="#2C2C2C"/>
<path d="M109.025 58.5975C119.047 58.5975 127.172 50.4817 127.172 40.4705C127.172 30.4592 119.047 22.3434 109.025 22.3434C99.0034 22.3434 90.8789 30.4592 90.8789 40.4705C90.8789 50.4817 99.0034 58.5975 109.025 58.5975Z" fill="#FEE888"/>
<path d="M66.9232 142.833C89.1713 142.833 107.207 140.113 107.207 136.759C107.207 133.405 89.1713 130.685 66.9232 130.685C44.6751 130.685 26.6394 133.405 26.6394 136.759C26.6394 140.113 44.6751 142.833 66.9232 142.833Z" fill="#2C2C2C"/>
<path d="M64.2717 74.6279V131.678C64.2717 134.8 61.7368 137.333 58.6111 137.333H38.9745C28.6894 137.333 27.7902 121.849 38.0496 121.07C38.3664 121.045 38.6919 121.036 39.0259 121.036C43.3334 121.036 48.3004 122.619 52.6936 124.655L58.063 74.6365H64.2717V74.6279Z" fill="#CBCBC5" stroke="#2C2C2C" stroke-miterlimit="10"/>
<path d="M57.0454 127.1C56.1205 126.569 54.0738 125.303 50.1516 123.592L57.0454 127.1Z" fill="#CBCBC5"/>
<path d="M57.0454 127.1C56.1205 126.569 54.0738 125.303 50.1516 123.592" stroke="#2C2C2C" stroke-miterlimit="10" stroke-linecap="round"/>
<path d="M66.9065 78.0133L72.9953 133.549C73.8003 136.569 76.8918 138.365 79.9148 137.561L98.892 132.531C108.834 129.896 105.726 114.704 95.6121 116.569C95.2952 116.628 94.9784 116.697 94.6615 116.782C90.4996 117.886 87.057 119.913 83.3317 123.01L72.9011 76.4222L66.8979 78.0133H66.9065Z" fill="#CBCBC5" stroke="#2C2C2C" stroke-miterlimit="10"/>
<path d="M78.7544 127.225C79.508 126.472 81.1694 124.727 84.5178 122.066L78.7544 127.225Z" fill="#CBCBC5"/>
<path d="M78.7544 127.225C79.508 126.472 81.1694 124.727 84.5178 122.066" stroke="#2C2C2C" stroke-miterlimit="10" stroke-linecap="round"/>
<path d="M79.8933 137.165C79.8933 137.165 96.7724 120.509 100.626 124.376" stroke="#2C2C2C" stroke-miterlimit="10" stroke-linecap="round"/>
<path d="M77.3224 30.439C82.2209 15.3745 51.5285 15.3745 56.427 30.439C51.5285 15.3745 26.6937 33.3903 39.5222 42.7062C26.7023 33.3903 17.2137 62.5527 33.0737 62.5527C17.2137 62.5527 26.7023 91.715 39.5307 82.3991C26.7023 91.715 51.5285 109.731 56.4355 94.6663C51.5371 109.731 82.2295 109.731 77.331 94.6663C82.2295 109.731 107.064 91.715 94.2358 82.3991C107.064 91.715 116.553 62.5527 100.693 62.5527C116.553 62.5527 107.064 33.3903 94.2358 42.7062C107.064 33.3903 82.238 15.3745 77.331 30.439H77.3224Z" fill="#EEEDEB"/>
<path d="M77.3224 30.439C82.2209 15.3745 51.5285 15.3745 56.427 30.439C51.5285 15.3745 26.6937 33.3903 39.5222 42.7062C26.7023 33.3903 17.2137 62.5527 33.0737 62.5527C17.2137 62.5527 26.7023 91.715 39.5307 82.3991C26.7023 91.715 51.5285 109.731 56.4355 94.6663C51.5371 109.731 82.2295 109.731 77.331 94.6663C82.2295 109.731 107.064 91.715 94.2358 82.3991C107.064 91.715 116.553 62.5527 100.693 62.5527C116.553 62.5527 107.064 33.3903 94.2358 42.7062C107.064 33.3903 82.238 15.3745 77.331 30.439H77.3224Z" fill="#EEEDEB" stroke="#2C2C2C" stroke-miterlimit="10"/>
<path d="M57.0679 127.099L50.2854 123.643C54.1391 125.336 56.1515 126.577 57.0679 127.099Z" fill="white" stroke="#2C2C2C" stroke-miterlimit="10"/>
<path d="M57.0679 127.099L50.2854 123.643C54.1391 125.336 56.1515 126.577 57.0679 127.099Z" fill="white" stroke="#2C2C2C" stroke-miterlimit="10" stroke-linecap="round"/>
<path d="M84.3907 122.133L78.6873 127.24C79.398 126.53 80.8967 124.956 83.8426 122.57C84.0225 122.424 84.2023 122.279 84.3907 122.133Z" fill="white" stroke="#2C2C2C" stroke-miterlimit="10"/>
<path d="M84.3907 122.133L78.6873 127.24C79.398 126.53 80.8967 124.956 83.8426 122.57C84.0225 122.424 84.2023 122.279 84.3907 122.133Z" fill="white" stroke="#2C2C2C" stroke-miterlimit="10" stroke-linecap="round"/>
<path d="M68.4004 65.8214C68.5642 65.8237 68.7219 65.8394 68.8398 65.8546C68.898 65.862 68.9457 65.8688 68.9775 65.8741C68.9933 65.8767 69.0052 65.8796 69.0127 65.8809C69.0164 65.8816 69.0191 65.8816 69.0205 65.8819H69.0215L69.0928 65.8956C69.1187 65.9031 69.1494 65.9117 69.1836 65.9219C69.311 65.9601 69.4916 66.0167 69.7021 66.0889C70.1268 66.2346 70.6586 66.4406 71.1211 66.6856C71.3523 66.808 71.5564 66.9342 71.7168 67.0616C71.8807 67.1918 71.9749 67.3034 72.0195 67.3878C72.0571 67.4588 72.0531 67.495 72.043 67.5255C72.027 67.5733 71.9665 67.6825 71.7568 67.837C70.788 68.5464 70.0895 68.7121 69.5879 68.6631C69.0894 68.6144 68.6809 68.3439 68.3105 67.9522C68.2707 67.9091 68.1919 67.7832 68.1025 67.5626C68.0185 67.3551 67.9413 67.1042 67.8857 66.8506C67.8298 66.5952 67.7992 66.3538 67.7998 66.1622C67.8006 65.9442 67.8411 65.8888 67.8262 65.9083C67.8146 65.9233 67.8335 65.8902 67.9609 65.8594C68.0792 65.831 68.2329 65.819 68.4004 65.8214Z" fill="#FEE888" stroke="#2C2C2C"/>
<path d="M68.3181 58.2697C68.3181 62.5518 67.3654 66.0154 63.2799 66.0154C59.4604 66.0154 57.7009 62.5518 57.7009 58.2697C57.7009 57.4684 57.7438 56.693 57.8468 55.9693C59.1686 56.3656 60.7479 56.5379 62.4559 56.1416C63.6146 55.8745 64.842 55.3403 66.0779 54.4184C66.5071 54.1082 66.9362 53.7377 67.374 53.3156L67.4341 53.2552C67.4856 53.3586 67.5285 53.462 67.5628 53.574C67.786 54.1082 67.9576 54.7027 68.0778 55.3403C68.198 56.021 68.2752 56.7361 68.3009 57.4857V57.5029C68.3095 57.7528 68.3181 58.0112 68.3181 58.2697Z" fill="#FBFBFB" stroke="#2C2C2C" stroke-miterlimit="10"/>
<path d="M78.9353 58.2697C78.9353 62.5519 77.9912 66.0155 73.9057 66.0155C70.0776 66.0155 68.3181 62.5519 68.3181 58.2697C68.3181 57.2875 68.3868 56.357 68.5499 55.4954C69.8631 55.8917 71.4252 56.0727 73.116 55.6936C74.6095 55.3662 76.2059 54.5907 77.8109 53.1347C77.8538 53.1002 77.8882 53.0571 77.9311 53.0226C78.0255 53.2036 78.1113 53.3931 78.1886 53.5913C78.6349 54.7027 78.8666 56.0382 78.9181 57.4943V57.5202C78.9267 57.77 78.9353 58.0199 78.9353 58.2697Z" fill="#FBFBFB" stroke="#2C2C2C" stroke-miterlimit="10"/>
<path d="M67.4339 53.2553L67.3738 53.3156C66.9361 53.7378 66.5069 54.1083 66.0778 54.4184C64.8418 55.3403 63.6145 55.8745 62.4558 56.1416C60.7477 56.538 59.1685 56.3656 57.8467 55.9693C58.293 52.8159 59.8036 50.5327 63.2797 50.5327C65.3482 50.5327 66.67 51.5924 67.4339 53.2553Z" stroke="#2C2C2C" stroke-miterlimit="10"/>
<path d="M68.3179 56.8137C68.3179 57.0463 68.3093 57.2703 68.3007 57.4857V57.503C68.1977 59.5449 67.5712 61.1044 65.5284 61.1044C63.4856 61.1044 62.4299 59.1831 62.4299 56.8137C62.4299 56.581 62.4385 56.357 62.4557 56.1416C63.6144 55.8745 64.8418 55.3404 66.0777 54.4185C66.5069 54.1083 66.936 53.7378 67.3737 53.3156C67.4424 53.3932 67.5111 53.4793 67.5626 53.5741C67.8973 54.0566 68.1033 54.6769 68.2149 55.392C68.2835 55.8401 68.3179 56.314 68.3179 56.8137Z" fill="#2C2C2C"/>
<path d="M78.9353 56.8137C78.9353 57.0463 78.9267 57.2703 78.9181 57.4944V57.5202C78.8066 59.5536 78.18 61.1044 76.1458 61.1044C74.1117 61.1044 73.0474 59.1831 73.0474 56.8137C73.0474 56.426 73.0645 56.0469 73.116 55.6936C74.6095 55.3662 76.2059 54.5908 77.8109 53.1347C77.9568 53.2639 78.0856 53.419 78.1886 53.5913C78.7207 54.3754 78.9353 55.5299 78.9353 56.8137Z" fill="#2C2C2C"/>
<path d="M77.9313 53.0227C77.9313 53.0227 77.854 53.1002 77.8111 53.1347C76.2061 54.5908 74.6097 55.3662 73.1162 55.6936C71.4254 56.0727 69.8632 55.8918 68.55 55.4954C69.065 52.5919 70.5928 50.5327 73.9058 50.5327C75.8714 50.5327 77.1588 51.489 77.9313 53.0227Z" stroke="#2C2C2C" stroke-miterlimit="10" stroke-linecap="round"/>
<path d="M68.5497 55.4955C68.3866 55.4438 68.2321 55.3921 68.0776 55.349" stroke="#2C2C2C" stroke-miterlimit="10" stroke-linecap="round"/>
<path d="M66.6242 74.4122C67.1715 74.8007 67.8605 74.9617 68.5022 74.7533C68.842 74.6491 69.1062 74.4691 68.993 74.1659C68.7287 73.4554 67.5774 72.7449 66.9828 73.0007C66.3882 73.2565 65.7087 73.6354 66.275 74.1375C66.3882 74.2417 66.5109 74.3365 66.6336 74.4217L66.6242 74.4122Z" fill="#2C2C2C"/>
<path d="M68.4759 35.0527C71.6752 35.0527 74.8839 35.1474 78.0832 35.3369L80.3199 35.4695C81.8111 35.5548 83.0474 36.6821 83.2644 38.1695L84.0666 43.5127C84.3497 45.3695 82.9719 47.0653 81.1032 47.16L77.0734 47.3779C74.2139 47.5295 71.3449 47.6053 68.4759 47.6053C65.6069 47.6053 62.7473 47.5295 59.8783 47.3779L55.8485 47.16C53.9799 47.0653 52.602 45.3695 52.8851 43.5127L53.6873 38.1695C53.9138 36.6821 55.1407 35.5548 56.6318 35.4695L58.8685 35.3369C62.0678 35.1474 65.2766 35.0527 68.4759 35.0527ZM68.4759 34.1053C65.2671 34.1053 62.0112 34.2 58.8119 34.3895L56.5752 34.5221C54.6499 34.6358 53.0361 36.1137 52.753 38.0274L51.9508 43.3705C51.7809 44.5169 52.1018 45.6916 52.8285 46.5916C53.5646 47.4916 54.6405 48.0411 55.8013 48.1074L59.8311 48.3253C62.7001 48.4769 65.6069 48.5527 68.4759 48.5527C71.3449 48.5527 74.2516 48.4769 77.1206 48.3253L81.1504 48.1074C82.3018 48.0505 83.3871 47.4916 84.1232 46.5916C84.8594 45.6916 85.1708 44.5169 85.0009 43.3705L84.1987 38.0274C83.9062 36.1137 82.3018 34.6358 80.3766 34.5221L78.1399 34.3895C74.9406 34.2 71.6846 34.1053 68.4759 34.1053Z" fill="#2C2C2C"/>
<path d="M80.3201 35.4695C81.8113 35.5548 83.0381 36.6821 83.2646 38.1695L84.0668 43.5221C84.3499 45.379 82.9626 47.0748 81.094 47.1695L77.0548 47.3874C71.3356 47.7 65.5976 47.7 59.8691 47.3874L55.8393 47.1695C54.1216 47.0842 52.8381 45.6632 52.8381 44.0053C52.8381 44.1663 52.9136 44.299 52.9797 44.3748C53.0646 44.479 53.2156 44.5927 53.4704 44.6021L57.8966 44.82C60.9733 44.9621 64.0971 45.0379 67.1831 45.0379C70.2692 45.0379 73.393 44.9621 76.4696 44.82L80.8958 44.6021C81.1412 44.5832 81.2922 44.4695 81.3866 44.3748C81.4715 44.28 81.5659 44.119 81.5187 43.9011L80.641 35.9811C80.5938 35.6969 80.3296 35.479 80.0181 35.46H80.3107L80.3201 35.4695Z" fill="#2C2C2C"/>
<path d="M47.1875 51.0157V65.0463" stroke="#2C2C2C" stroke-miterlimit="10" stroke-linecap="round"/>
<path d="M50.1038 50.2105V58.0358" stroke="#2C2C2C" stroke-miterlimit="10" stroke-linecap="round"/>
<path d="M53.0198 51.6505V54.5968" stroke="#2C2C2C" stroke-miterlimit="10" stroke-linecap="round"/>
</g>
<defs>
<filter id="filter0_g_40000162_4073" x="-0.4" y="-0.4" width="151.8" height="162.8" filterUnits="userSpaceOnUse" color-interpolation-filters="sRGB">
<feFlood flood-opacity="0" result="BackgroundImageFix"/>
<feBlend mode="normal" in="SourceGraphic" in2="BackgroundImageFix" result="shape"/>
<feTurbulence type="fractalNoise" baseFrequency="0.66666668653488159 0.66666668653488159" numOctaves="3" seed="7043" />
<feDisplacementMap in="shape" scale="0.80000001192092896" xChannelSelector="R" yChannelSelector="G" result="displacedImage" width="100%" height="100%" />
<feMerge result="effect1_texture_40000162_4073">
<feMergeNode in="displacedImage"/>
</feMerge>
</filter>
<filter id="filter1_d_40000162_4073" x="14.4312" y="10.8158" width="121.081" height="142.368" filterUnits="userSpaceOnUse" color-interpolation-filters="sRGB">
<feFlood flood-opacity="0" result="BackgroundImageFix"/>
<feColorMatrix in="SourceAlpha" type="matrix" values="0 0 0 0 0 0 0 0 0 0 0 0 0 0 0 0 0 0 127 0" result="hardAlpha"/>
<feOffset dx="-1" dy="1"/>
<feGaussianBlur stdDeviation="1"/>
<feComposite in2="hardAlpha" operator="out"/>
<feColorMatrix type="matrix" values="0 0 0 0 0 0 0 0 0 0 0 0 0 0 0 0 0 0 0.25 0"/>
<feBlend mode="normal" in2="BackgroundImageFix" result="effect1_dropShadow_40000162_4073"/>
<feBlend mode="normal" in="SourceGraphic" in2="effect1_dropShadow_40000162_4073" result="shape"/>
</filter>
</defs>
</svg>
