<svg width="151" height="162" viewBox="0 0 151 162" fill="none" xmlns="http://www.w3.org/2000/svg">
<g filter="url(#filter0_g_40000162_3694)">
<g filter="url(#filter1_d_40000162_3694)">
<path d="M66.8985 149.676C55.8085 149.676 45.3265 149.017 37.3879 147.819C31.2306 146.887 19.7638 145.159 19.7638 136.758C19.7638 133.354 21.6821 131.129 23.9429 129.658C23.8316 127.023 24.3539 124.38 25.5443 122.036C27.8394 117.494 32.2069 114.653 37.5078 114.26C37.9703 114.226 38.467 114.209 38.9979 114.209C41.4129 114.209 44.0163 114.568 46.7823 115.278L47.6473 107.262C39.9656 106.595 32.1641 100.607 29.8005 93.3442C29.4322 92.2235 29.2096 91.1029 29.1068 89.9994C25.8869 88.6392 23.0608 86.0472 20.9798 82.4543C17.9226 77.159 16.4496 69.0237 20.0635 62.7789C20.1063 62.7019 20.1492 62.6335 20.192 62.565C18.7105 60.1013 17.9312 57.15 17.9312 53.8907C17.9312 44.6946 23.0694 37.8425 29.0982 35.2162C29.1924 34.087 29.4237 32.9493 29.8005 31.803C32.3096 24.0954 40.9419 17.8249 49.0603 17.8249C50.2421 17.8249 51.3811 17.9532 52.4686 18.2013C55.7057 14.4972 60.9981 12.3158 66.8985 12.3158C72.7989 12.3158 78.0913 14.4972 81.3284 18.2013C82.416 17.9532 83.555 17.8249 84.7368 17.8249C87.8882 17.8249 91.151 18.7488 94.1397 20.4084C98.3873 17.2518 103.56 15.5152 109.015 15.5152C122.803 15.5152 134.012 26.713 134.012 40.4858C134.012 52.3082 125.748 62.2314 114.693 64.8063C115.455 66.7311 115.866 68.8954 115.866 71.2393C115.866 80.4354 110.728 87.2961 104.699 89.9224C104.605 91.0516 104.373 92.1893 103.997 93.3356C101.701 100.393 94.2767 106.236 86.8092 107.185L87.8796 111.976C89.5153 111.232 91.1767 110.641 92.898 110.179C93.3176 110.068 93.78 109.957 94.3281 109.854C95.3386 109.666 96.3235 109.572 97.2912 109.572C104.639 109.572 110.685 115.064 111.678 122.635C112.038 125.372 111.695 127.99 110.779 130.317C112.706 131.831 114.033 133.901 114.033 136.767C114.033 145.167 102.566 146.895 96.4091 147.828C88.4705 149.026 77.9885 149.684 66.8985 149.684V149.676Z" fill="#FBFBFB"/>
<path d="M66.8985 149.676C55.8085 149.676 45.3265 149.017 37.3879 147.819C31.2306 146.887 19.7638 145.159 19.7638 136.758C19.7638 133.354 21.6821 131.129 23.9429 129.658C23.8316 127.023 24.3539 124.38 25.5443 122.036C27.8394 117.494 32.2069 114.653 37.5078 114.26C37.9703 114.226 38.467 114.209 38.9979 114.209C41.4129 114.209 44.0163 114.568 46.7823 115.278L47.6473 107.262C39.9656 106.595 32.1641 100.607 29.8005 93.3442C29.4322 92.2235 29.2096 91.1029 29.1068 89.9994C25.8869 88.6392 23.0608 86.0472 20.9798 82.4543C17.9226 77.159 16.4496 69.0237 20.0635 62.7789C20.1063 62.7019 20.1492 62.6335 20.192 62.565C18.7105 60.1013 17.9312 57.15 17.9312 53.8907C17.9312 44.6946 23.0694 37.8425 29.0982 35.2162C29.1924 34.087 29.4237 32.9493 29.8005 31.803C32.3096 24.0954 40.9419 17.8249 49.0603 17.8249C50.2421 17.8249 51.3811 17.9532 52.4686 18.2013C55.7057 14.4972 60.9981 12.3158 66.8985 12.3158C72.7989 12.3158 78.0913 14.4972 81.3284 18.2013C82.416 17.9532 83.555 17.8249 84.7368 17.8249C87.8882 17.8249 91.151 18.7488 94.1397 20.4084C98.3873 17.2518 103.56 15.5152 109.015 15.5152C122.803 15.5152 134.012 26.713 134.012 40.4858C134.012 52.3082 125.748 62.2314 114.693 64.8063C115.455 66.7311 115.866 68.8954 115.866 71.2393C115.866 80.4354 110.728 87.2961 104.699 89.9224C104.605 91.0516 104.373 92.1893 103.997 93.3356C101.701 100.393 94.2767 106.236 86.8092 107.185L87.8796 111.976C89.5153 111.232 91.1767 110.641 92.898 110.179C93.3176 110.068 93.78 109.957 94.3281 109.854C95.3386 109.666 96.3235 109.572 97.2912 109.572C104.639 109.572 110.685 115.064 111.678 122.635C112.038 125.372 111.695 127.99 110.779 130.317C112.706 131.831 114.033 133.901 114.033 136.767C114.033 145.167 102.566 146.895 96.4091 147.828C88.4705 149.026 77.9885 149.684 66.8985 149.684V149.676Z" stroke="#9C9C9C" stroke-miterlimit="10"/>
</g>
<path d="M109.025 58.5974C119.047 58.5974 127.172 50.4817 127.172 40.4704C127.172 30.4591 119.047 22.3434 109.025 22.3434C99.0034 22.3434 90.8789 30.4591 90.8789 40.4704C90.8789 50.4817 99.0034 58.5974 109.025 58.5974Z" fill="#2C2C2C"/>
<path d="M109.025 58.5974C119.047 58.5974 127.172 50.4817 127.172 40.4704C127.172 30.4591 119.047 22.3434 109.025 22.3434C99.0034 22.3434 90.8789 30.4591 90.8789 40.4704C90.8789 50.4817 99.0034 58.5974 109.025 58.5974Z" fill="#FEE888"/>
<path d="M66.9232 142.833C89.1713 142.833 107.207 140.114 107.207 136.759C107.207 133.405 89.1713 130.685 66.9232 130.685C44.6751 130.685 26.6394 133.405 26.6394 136.759C26.6394 140.114 44.6751 142.833 66.9232 142.833Z" fill="#2C2C2C"/>
<path d="M64.2717 74.6279V131.678C64.2717 134.8 61.7368 137.333 58.6111 137.333H38.9745C28.6894 137.333 27.7902 121.849 38.0496 121.07C38.3664 121.045 38.6919 121.036 39.0259 121.036C43.3334 121.036 48.3004 122.619 52.6936 124.655L58.063 74.6365H64.2717V74.6279Z" fill="#CBCBC5" stroke="#2C2C2C" stroke-miterlimit="10"/>
<path d="M57.0454 127.1C56.1205 126.569 54.0738 125.303 50.1516 123.592L57.0454 127.1Z" fill="#CBCBC5"/>
<path d="M57.0454 127.1C56.1205 126.569 54.0738 125.303 50.1516 123.592" stroke="#2C2C2C" stroke-miterlimit="10" stroke-linecap="round"/>
<path d="M66.9065 78.0133L72.9953 133.549C73.8003 136.569 76.8918 138.365 79.9148 137.561L98.892 132.531C108.834 129.896 105.726 114.704 95.6121 116.568C95.2952 116.628 94.9784 116.697 94.6615 116.782C90.4996 117.886 87.057 119.913 83.3317 123.01L72.9011 76.4221L66.8979 78.0133H66.9065Z" fill="#CBCBC5" stroke="#2C2C2C" stroke-miterlimit="10"/>
<path d="M78.7544 127.225C79.508 126.472 81.1694 124.727 84.5178 122.066L78.7544 127.225Z" fill="#CBCBC5"/>
<path d="M78.7544 127.225C79.508 126.472 81.1694 124.727 84.5178 122.066" stroke="#2C2C2C" stroke-miterlimit="10" stroke-linecap="round"/>
<path d="M79.8933 137.165C79.8933 137.165 96.7724 120.509 100.626 124.376" stroke="#2C2C2C" stroke-miterlimit="10" stroke-linecap="round"/>
<path d="M77.3224 30.439C82.2209 15.3745 51.5285 15.3745 56.427 30.439C51.5285 15.3745 26.6937 33.3903 39.5222 42.7062C26.7023 33.3903 17.2137 62.5527 33.0737 62.5527C17.2137 62.5527 26.7023 91.715 39.5307 82.3991C26.7023 91.715 51.5285 109.731 56.4355 94.6663C51.5371 109.731 82.2295 109.731 77.331 94.6663C82.2295 109.731 107.064 91.715 94.2358 82.3991C107.064 91.715 116.553 62.5527 100.693 62.5527C116.553 62.5527 107.064 33.3903 94.2358 42.7062C107.064 33.3903 82.238 15.3745 77.331 30.439H77.3224Z" fill="#EEEDEB"/>
<path d="M77.3224 30.439C82.2209 15.3745 51.5285 15.3745 56.427 30.439C51.5285 15.3745 26.6937 33.3903 39.5222 42.7062C26.7023 33.3903 17.2137 62.5527 33.0737 62.5527C17.2137 62.5527 26.7023 91.715 39.5307 82.3991C26.7023 91.715 51.5285 109.731 56.4355 94.6663C51.5371 109.731 82.2295 109.731 77.331 94.6663C82.2295 109.731 107.064 91.715 94.2358 82.3991C107.064 91.715 116.553 62.5527 100.693 62.5527C116.553 62.5527 107.064 33.3903 94.2358 42.7062C107.064 33.3903 82.238 15.3745 77.331 30.439H77.3224Z" fill="#EEEDEB" stroke="#2C2C2C" stroke-miterlimit="10"/>
<path d="M57.0679 127.099L50.2854 123.643C54.1391 125.336 56.1515 126.577 57.0679 127.099Z" fill="white" stroke="#2C2C2C" stroke-miterlimit="10"/>
<path d="M57.0679 127.099L50.2854 123.643C54.1391 125.336 56.1515 126.577 57.0679 127.099Z" fill="white" stroke="#2C2C2C" stroke-miterlimit="10" stroke-linecap="round"/>
<path d="M84.3907 122.133L78.6873 127.24C79.398 126.53 80.8967 124.956 83.8426 122.57C84.0225 122.424 84.2023 122.279 84.3907 122.133Z" fill="white" stroke="#2C2C2C" stroke-miterlimit="10"/>
<path d="M84.3907 122.133L78.6873 127.24C79.398 126.53 80.8967 124.956 83.8426 122.57C84.0225 122.424 84.2023 122.279 84.3907 122.133Z" fill="white" stroke="#2C2C2C" stroke-miterlimit="10" stroke-linecap="round"/>
<path d="M61.9211 71.9927C61.8139 71.943 61.7068 71.8934 61.5996 71.8354" stroke="#2C2C2C" stroke-miterlimit="10" stroke-linecap="round"/>
<path d="M73.5103 71.9927C73.5844 71.9596 73.6504 71.9265 73.7163 71.8934L73.8317 71.8354" stroke="#2C2C2C" stroke-miterlimit="10" stroke-linecap="round"/>
<path d="M73.5349 72.2988C73.5349 74.7563 70.9302 76.7504 67.7156 76.7504C64.5009 76.7504 61.8962 74.7563 61.8962 72.2988C61.8962 72.1995 61.9045 72.092 61.921 71.9927C65.5807 73.7799 69.8587 73.7799 73.5102 71.9927C73.5267 72.092 73.5349 72.1995 73.5349 72.2988Z" stroke="#2C2C2C" stroke-miterlimit="10" stroke-linecap="round"/>
<path d="M78.3817 58.0546C78.3817 58.1952 78.3817 58.3359 78.3735 58.4766C78.3158 62.382 77.3349 65.4932 73.5432 65.4932C69.7516 65.4932 68.1772 62.1586 68.1772 58.0546C68.1772 57.3182 68.2185 56.6148 68.3091 55.9446C69.9247 55.9446 71.4991 55.895 73.0404 55.804C74.7219 55.7129 76.3375 55.5723 77.9036 55.3737H77.9119C77.9943 55.3737 78.0767 55.3654 78.1591 55.3489C78.291 56.0522 78.357 56.8134 78.3735 57.6078C78.3817 57.7567 78.3817 57.9056 78.3817 58.0546Z" fill="#FBFBFB" stroke="#2C2C2C" stroke-miterlimit="10"/>
<path d="M68.1769 58.0546V58.3276C68.1769 58.4931 68.1687 58.6503 68.1687 58.8158C68.1604 59.064 68.144 59.3123 68.1275 59.5522C68.1275 59.6267 68.1192 59.7012 68.111 59.7756C67.8555 63.0522 66.7015 65.4932 63.3467 65.4932C59.6705 65.4932 57.9807 62.1586 57.9807 58.0546C57.9807 57.103 58.0467 56.1846 58.2115 55.3489C59.7611 55.5475 61.3767 55.6881 63.0335 55.7874C64.5749 55.8867 66.1492 55.9364 67.7648 55.9364C67.8555 55.9446 67.9544 55.9446 68.045 55.9446C68.1357 56.6148 68.1769 57.3182 68.1769 58.0546Z" fill="#FBFBFB" stroke="#2C2C2C" stroke-miterlimit="10"/>
<path d="M78.3817 58.0545C78.3817 58.1952 78.3817 58.3359 78.3735 58.4765C78.3075 60.5534 77.7306 62.1751 75.6946 62.1751C73.6587 62.1751 72.719 60.33 72.719 58.0545C72.719 57.2188 72.8097 56.4493 73.0405 55.8039C74.722 55.7129 76.3375 55.5722 77.9036 55.3737H77.9119C78.1921 55.986 78.3323 56.7555 78.3735 57.6077C78.3817 57.7567 78.3817 57.9056 78.3817 58.0545Z" fill="#2C2C2C"/>
<path d="M68.3124 65.4137C68.3124 65.4137 71.9023 66.4052 70.4245 67.5231C68.9466 68.6347 68.0661 68.2115 67.4688 67.561C67.1732 67.2326 66.8407 65.9252 67.0993 65.5779C67.3579 65.2305 68.3124 65.42 68.3124 65.42V65.4137Z" fill="#FEE888" stroke="#2C2C2C" stroke-miterlimit="10"/>
<path d="M68.0452 55.9445C67.9545 55.9445 67.8556 55.9445 67.765 55.9362C66.1494 55.9362 64.575 55.8866 63.0336 55.7873C61.3769 55.688 59.7613 55.5474 58.2117 55.3488C58.7145 52.5852 60.1817 50.6241 63.3469 50.6241C66.2895 50.6241 67.6578 52.8665 68.0452 55.9445Z" stroke="#2C2C2C" stroke-miterlimit="10"/>
<path d="M78.1591 55.3488C78.0767 55.3653 77.9942 55.3736 77.9118 55.3736H77.9036C76.3375 55.5722 74.7219 55.7128 73.0404 55.8039C71.499 55.8949 69.9246 55.9445 68.3091 55.9445C68.713 52.8665 70.1637 50.6241 73.5432 50.6241C76.2963 50.6241 77.6728 52.5852 78.1591 55.3488Z" stroke="#2C2C2C" stroke-miterlimit="10"/>
<path d="M63.2892 56.6148C64.9213 56.5486 66.9737 57.285 67.6414 59.1715C67.6744 59.2626 67.6002 59.3536 67.5013 59.3536C66.8171 59.337 65.4653 59.155 63.281 61.2484" stroke="#2C2C2C" stroke-miterlimit="10" stroke-linecap="round"/>
</g>
<defs>
<filter id="filter0_g_40000162_3694" x="-0.4" y="-0.4" width="151.8" height="162.8" filterUnits="userSpaceOnUse" color-interpolation-filters="sRGB">
<feFlood flood-opacity="0" result="BackgroundImageFix"/>
<feBlend mode="normal" in="SourceGraphic" in2="BackgroundImageFix" result="shape"/>
<feTurbulence type="fractalNoise" baseFrequency="0.66666668653488159 0.66666668653488159" numOctaves="3" seed="7043" />
<feDisplacementMap in="shape" scale="0.80000001192092896" xChannelSelector="R" yChannelSelector="G" result="displacedImage" width="100%" height="100%" />
<feMerge result="effect1_texture_40000162_3694">
<feMergeNode in="displacedImage"/>
</feMerge>
</filter>
<filter id="filter1_d_40000162_3694" x="14.4312" y="10.8158" width="121.081" height="142.368" filterUnits="userSpaceOnUse" color-interpolation-filters="sRGB">
<feFlood flood-opacity="0" result="BackgroundImageFix"/>
<feColorMatrix in="SourceAlpha" type="matrix" values="0 0 0 0 0 0 0 0 0 0 0 0 0 0 0 0 0 0 127 0" result="hardAlpha"/>
<feOffset dx="-1" dy="1"/>
<feGaussianBlur stdDeviation="1"/>
<feComposite in2="hardAlpha" operator="out"/>
<feColorMatrix type="matrix" values="0 0 0 0 0 0 0 0 0 0 0 0 0 0 0 0 0 0 0.25 0"/>
<feBlend mode="normal" in2="BackgroundImageFix" result="effect1_dropShadow_40000162_3694"/>
<feBlend mode="normal" in="SourceGraphic" in2="effect1_dropShadow_40000162_3694" result="shape"/>
</filter>
</defs>
</svg>
