<svg width="151" height="162" viewBox="0 0 151 162" fill="none" xmlns="http://www.w3.org/2000/svg">
<g filter="url(#filter0_g_40000162_3795)">
<g filter="url(#filter1_d_40000162_3795)">
<path d="M66.8985 149.676C55.8085 149.676 45.3265 149.017 37.3879 147.819C31.2306 146.887 19.7638 145.159 19.7638 136.758C19.7638 133.354 21.6821 131.129 23.9429 129.658C23.8316 127.023 24.3539 124.38 25.5443 122.036C27.8394 117.494 32.2069 114.653 37.5078 114.26C37.9703 114.226 38.467 114.209 38.9979 114.209C41.4129 114.209 44.0163 114.568 46.7823 115.278L47.6473 107.262C39.9656 106.595 32.1641 100.607 29.8005 93.3442C29.4322 92.2235 29.2096 91.1029 29.1068 89.9994C25.8869 88.6392 23.0608 86.0472 20.9798 82.4543C17.9226 77.159 16.4496 69.0237 20.0635 62.7789C20.1063 62.7019 20.1492 62.6335 20.192 62.565C18.7105 60.1013 17.9312 57.15 17.9312 53.8907C17.9312 44.6946 23.0694 37.8425 29.0982 35.2162C29.1924 34.087 29.4237 32.9493 29.8005 31.803C32.3096 24.0954 40.9419 17.8249 49.0603 17.8249C50.2421 17.8249 51.3811 17.9532 52.4686 18.2013C55.7057 14.4972 60.9981 12.3158 66.8985 12.3158C72.7989 12.3158 78.0913 14.4972 81.3284 18.2013C82.416 17.9532 83.555 17.8249 84.7368 17.8249C87.8882 17.8249 91.151 18.7488 94.1397 20.4084C98.3873 17.2518 103.56 15.5152 109.015 15.5152C122.803 15.5152 134.012 26.713 134.012 40.4858C134.012 52.3082 125.748 62.2314 114.693 64.8063C115.455 66.7311 115.866 68.8954 115.866 71.2393C115.866 80.4354 110.728 87.2961 104.699 89.9224C104.605 91.0516 104.373 92.1893 103.997 93.3356C101.701 100.393 94.2767 106.236 86.8092 107.185L87.8796 111.976C89.5153 111.232 91.1767 110.641 92.898 110.179C93.3176 110.068 93.78 109.957 94.3281 109.854C95.3386 109.666 96.3235 109.572 97.2912 109.572C104.639 109.572 110.685 115.064 111.678 122.635C112.038 125.372 111.695 127.99 110.779 130.317C112.706 131.831 114.033 133.901 114.033 136.767C114.033 145.167 102.566 146.895 96.4091 147.828C88.4705 149.026 77.9885 149.684 66.8985 149.684V149.676Z" fill="#FBFBFB"/>
<path d="M66.8985 149.676C55.8085 149.676 45.3265 149.017 37.3879 147.819C31.2306 146.887 19.7638 145.159 19.7638 136.758C19.7638 133.354 21.6821 131.129 23.9429 129.658C23.8316 127.023 24.3539 124.38 25.5443 122.036C27.8394 117.494 32.2069 114.653 37.5078 114.26C37.9703 114.226 38.467 114.209 38.9979 114.209C41.4129 114.209 44.0163 114.568 46.7823 115.278L47.6473 107.262C39.9656 106.595 32.1641 100.607 29.8005 93.3442C29.4322 92.2235 29.2096 91.1029 29.1068 89.9994C25.8869 88.6392 23.0608 86.0472 20.9798 82.4543C17.9226 77.159 16.4496 69.0237 20.0635 62.7789C20.1063 62.7019 20.1492 62.6335 20.192 62.565C18.7105 60.1013 17.9312 57.15 17.9312 53.8907C17.9312 44.6946 23.0694 37.8425 29.0982 35.2162C29.1924 34.087 29.4237 32.9493 29.8005 31.803C32.3096 24.0954 40.9419 17.8249 49.0603 17.8249C50.2421 17.8249 51.3811 17.9532 52.4686 18.2013C55.7057 14.4972 60.9981 12.3158 66.8985 12.3158C72.7989 12.3158 78.0913 14.4972 81.3284 18.2013C82.416 17.9532 83.555 17.8249 84.7368 17.8249C87.8882 17.8249 91.151 18.7488 94.1397 20.4084C98.3873 17.2518 103.56 15.5152 109.015 15.5152C122.803 15.5152 134.012 26.713 134.012 40.4858C134.012 52.3082 125.748 62.2314 114.693 64.8063C115.455 66.7311 115.866 68.8954 115.866 71.2393C115.866 80.4354 110.728 87.2961 104.699 89.9224C104.605 91.0516 104.373 92.1893 103.997 93.3356C101.701 100.393 94.2767 106.236 86.8092 107.185L87.8796 111.976C89.5153 111.232 91.1767 110.641 92.898 110.179C93.3176 110.068 93.78 109.957 94.3281 109.854C95.3386 109.666 96.3235 109.572 97.2912 109.572C104.639 109.572 110.685 115.064 111.678 122.635C112.038 125.372 111.695 127.99 110.779 130.317C112.706 131.831 114.033 133.901 114.033 136.767C114.033 145.167 102.566 146.895 96.4091 147.828C88.4705 149.026 77.9885 149.684 66.8985 149.684V149.676Z" stroke="#9C9C9C" stroke-miterlimit="10"/>
</g>
<path d="M109.025 58.5974C119.047 58.5974 127.172 50.4817 127.172 40.4704C127.172 30.4591 119.047 22.3434 109.025 22.3434C99.0034 22.3434 90.8789 30.4591 90.8789 40.4704C90.8789 50.4817 99.0034 58.5974 109.025 58.5974Z" fill="#2C2C2C"/>
<path d="M109.025 58.5974C119.047 58.5974 127.172 50.4817 127.172 40.4704C127.172 30.4591 119.047 22.3434 109.025 22.3434C99.0034 22.3434 90.8789 30.4591 90.8789 40.4704C90.8789 50.4817 99.0034 58.5974 109.025 58.5974Z" fill="#FEE888"/>
<path d="M66.9232 142.833C89.1713 142.833 107.207 140.114 107.207 136.759C107.207 133.405 89.1713 130.685 66.9232 130.685C44.6751 130.685 26.6394 133.405 26.6394 136.759C26.6394 140.114 44.6751 142.833 66.9232 142.833Z" fill="#2C2C2C"/>
<path d="M64.2717 74.6279V131.678C64.2717 134.8 61.7368 137.333 58.6111 137.333H38.9745C28.6894 137.333 27.7902 121.849 38.0496 121.07C38.3664 121.045 38.6919 121.036 39.0259 121.036C43.3334 121.036 48.3004 122.619 52.6936 124.655L58.063 74.6365H64.2717V74.6279Z" fill="#CBCBC5" stroke="#2C2C2C" stroke-miterlimit="10"/>
<path d="M57.0454 127.1C56.1205 126.569 54.0738 125.303 50.1516 123.592L57.0454 127.1Z" fill="#CBCBC5"/>
<path d="M57.0454 127.1C56.1205 126.569 54.0738 125.303 50.1516 123.592" stroke="#2C2C2C" stroke-miterlimit="10" stroke-linecap="round"/>
<path d="M66.9065 78.0133L72.9953 133.549C73.8003 136.569 76.8918 138.365 79.9148 137.561L98.892 132.531C108.834 129.896 105.726 114.704 95.6121 116.568C95.2952 116.628 94.9784 116.697 94.6615 116.782C90.4996 117.886 87.057 119.913 83.3317 123.01L72.9011 76.4221L66.8979 78.0133H66.9065Z" fill="#CBCBC5" stroke="#2C2C2C" stroke-miterlimit="10"/>
<path d="M78.7544 127.225C79.508 126.472 81.1694 124.727 84.5178 122.066L78.7544 127.225Z" fill="#CBCBC5"/>
<path d="M78.7544 127.225C79.508 126.472 81.1694 124.727 84.5178 122.066" stroke="#2C2C2C" stroke-miterlimit="10" stroke-linecap="round"/>
<path d="M79.8933 137.165C79.8933 137.165 96.7724 120.509 100.626 124.376" stroke="#2C2C2C" stroke-miterlimit="10" stroke-linecap="round"/>
<path d="M77.3224 30.439C82.2209 15.3745 51.5285 15.3745 56.427 30.439C51.5285 15.3745 26.6937 33.3903 39.5222 42.7062C26.7023 33.3903 17.2137 62.5527 33.0737 62.5527C17.2137 62.5527 26.7023 91.715 39.5307 82.3991C26.7023 91.715 51.5285 109.731 56.4355 94.6663C51.5371 109.731 82.2295 109.731 77.331 94.6663C82.2295 109.731 107.064 91.715 94.2358 82.3991C107.064 91.715 116.553 62.5527 100.693 62.5527C116.553 62.5527 107.064 33.3903 94.2358 42.7062C107.064 33.3903 82.238 15.3745 77.331 30.439H77.3224Z" fill="#EEEDEB"/>
<path d="M77.3224 30.439C82.2209 15.3745 51.5285 15.3745 56.427 30.439C51.5285 15.3745 26.6937 33.3903 39.5222 42.7062C26.7023 33.3903 17.2137 62.5527 33.0737 62.5527C17.2137 62.5527 26.7023 91.715 39.5307 82.3991C26.7023 91.715 51.5285 109.731 56.4355 94.6663C51.5371 109.731 82.2295 109.731 77.331 94.6663C82.2295 109.731 107.064 91.715 94.2358 82.3991C107.064 91.715 116.553 62.5527 100.693 62.5527C116.553 62.5527 107.064 33.3903 94.2358 42.7062C107.064 33.3903 82.238 15.3745 77.331 30.439H77.3224Z" fill="#EEEDEB" stroke="#2C2C2C" stroke-miterlimit="10"/>
<path d="M57.0679 127.099L50.2854 123.643C54.1391 125.336 56.1515 126.577 57.0679 127.099Z" fill="white" stroke="#2C2C2C" stroke-miterlimit="10"/>
<path d="M57.0679 127.099L50.2854 123.643C54.1391 125.336 56.1515 126.577 57.0679 127.099Z" fill="white" stroke="#2C2C2C" stroke-miterlimit="10" stroke-linecap="round"/>
<path d="M84.3907 122.133L78.6873 127.24C79.398 126.53 80.8967 124.956 83.8426 122.57C84.0225 122.424 84.2023 122.279 84.3907 122.133Z" fill="white" stroke="#2C2C2C" stroke-miterlimit="10"/>
<path d="M84.3907 122.133L78.6873 127.24C79.398 126.53 80.8967 124.956 83.8426 122.57C84.0225 122.424 84.2023 122.279 84.3907 122.133Z" fill="white" stroke="#2C2C2C" stroke-miterlimit="10" stroke-linecap="round"/>
<path d="M68.8188 57.4674V57.7515C68.8188 57.9237 68.8102 58.0872 68.8102 58.2594C68.8016 58.5177 68.7845 58.7759 68.7673 59.0256C68.7673 59.1031 68.7588 59.1805 68.7502 59.258C68.4843 62.6671 67.2837 65.2067 63.7933 65.2067C59.9685 65.2067 58.2104 61.7373 58.2104 57.4674C58.2104 56.4774 58.2791 55.5218 58.4506 54.6523C60.0628 54.859 61.7437 55.0053 63.4675 55.1086C65.0711 55.2119 66.7091 55.2636 68.39 55.2636C68.4843 55.2722 68.5872 55.2722 68.6816 55.2722C68.7759 55.9695 68.8188 56.7012 68.8188 57.4674Z" fill="#FBFBFB" stroke="#2C2C2C" stroke-miterlimit="10"/>
<path d="M79.4353 57.4674C79.4353 57.6138 79.4353 57.7601 79.4267 57.9064C79.3667 61.9698 78.3461 65.2067 74.4012 65.2067C70.4564 65.2067 68.8184 61.7373 68.8184 57.4674C68.8184 56.7012 68.8612 55.9695 68.9556 55.2722C70.6364 55.2722 72.2744 55.2205 73.8781 55.1258C75.6276 55.0311 77.3085 54.8848 78.9379 54.6782H78.9465C79.0322 54.6782 79.118 54.6696 79.2037 54.6523C79.3409 55.3841 79.4095 56.1761 79.4267 57.0025C79.4353 57.1575 79.4353 57.3124 79.4353 57.4674Z" fill="#FBFBFB" stroke="#2C2C2C" stroke-miterlimit="10"/>
<path d="M69.2557 64.1585C69.2557 64.1585 72.8457 65.1253 71.3678 66.2152C69.89 67.299 69.0094 66.8864 68.4121 66.2521C68.1166 65.9319 67.784 64.6573 68.0427 64.3186C68.3013 63.9799 69.2557 64.1647 69.2557 64.1647V64.1585Z" fill="#FEE888" stroke="#2C2C2C" stroke-miterlimit="10"/>
<path d="M68.6814 55.2722C68.5871 55.2722 68.4842 55.2722 68.3899 55.2636C66.709 55.2636 65.071 55.212 63.4673 55.1087C61.7436 55.0054 60.0627 54.859 58.4504 54.6524C58.9736 51.7771 60.5001 49.7368 63.7932 49.7368C66.8548 49.7368 68.2784 52.0698 68.6814 55.2722Z" stroke="#2C2C2C" stroke-miterlimit="10"/>
<path d="M79.204 54.6524C79.1182 54.6696 79.0324 54.6782 78.9467 54.6782H78.9381C77.3087 54.8848 75.6278 55.0312 73.8784 55.1259C72.2747 55.2206 70.6367 55.2722 68.9558 55.2722C69.376 52.0698 70.8854 49.7368 74.4015 49.7368C77.2658 49.7368 78.698 51.7771 79.204 54.6524Z" stroke="#2C2C2C" stroke-miterlimit="10"/>
<path d="M68.6644 58.5004V58.5262C68.6644 59.3441 66.1774 63.4332 65.3284 64.8106C65.1997 65.0258 64.891 65.0258 64.7538 64.8106C63.8876 63.4418 61.3406 59.3699 61.3406 58.5004C61.3406 57.2005 62.1639 56.1416 63.1844 56.1416C64.0763 56.1416 64.8224 56.9594 64.9939 58.0269C65.1654 56.9594 65.9201 56.1416 66.7948 56.1416C67.8154 56.1416 68.6472 57.2091 68.6472 58.5004H68.6644Z" fill="#2C2C2C"/>
<path d="M79.1954 58.5004V58.5262C79.1954 59.3441 76.7084 63.4332 75.8594 64.8106C75.7307 65.0258 75.422 65.0258 75.2848 64.8106C74.4186 63.4418 71.8716 59.3699 71.8716 58.5004C71.8716 57.2005 72.6949 56.1416 73.7154 56.1416C74.6073 56.1416 75.3534 56.9594 75.5249 58.0269C75.6964 56.9594 76.4511 56.1416 77.3258 56.1416C78.3464 56.1416 79.1782 57.2091 79.1782 58.5004H79.1954Z" fill="#2C2C2C"/>
<path d="M51.9911 67.2632L44.3562 72.5969" stroke="#2C2C2C" stroke-miterlimit="10" stroke-linecap="round"/>
<path d="M56.4362 67.2632L48.8013 72.5969" stroke="#2C2C2C" stroke-miterlimit="10" stroke-linecap="round"/>
<path d="M61.7307 67.2632L54.1052 72.5969" stroke="#2C2C2C" stroke-miterlimit="10" stroke-linecap="round"/>
</g>
<defs>
<filter id="filter0_g_40000162_3795" x="-0.4" y="-0.4" width="151.8" height="162.8" filterUnits="userSpaceOnUse" color-interpolation-filters="sRGB">
<feFlood flood-opacity="0" result="BackgroundImageFix"/>
<feBlend mode="normal" in="SourceGraphic" in2="BackgroundImageFix" result="shape"/>
<feTurbulence type="fractalNoise" baseFrequency="0.66666668653488159 0.66666668653488159" numOctaves="3" seed="7043" />
<feDisplacementMap in="shape" scale="0.80000001192092896" xChannelSelector="R" yChannelSelector="G" result="displacedImage" width="100%" height="100%" />
<feMerge result="effect1_texture_40000162_3795">
<feMergeNode in="displacedImage"/>
</feMerge>
</filter>
<filter id="filter1_d_40000162_3795" x="14.4312" y="10.8158" width="121.081" height="142.368" filterUnits="userSpaceOnUse" color-interpolation-filters="sRGB">
<feFlood flood-opacity="0" result="BackgroundImageFix"/>
<feColorMatrix in="SourceAlpha" type="matrix" values="0 0 0 0 0 0 0 0 0 0 0 0 0 0 0 0 0 0 127 0" result="hardAlpha"/>
<feOffset dx="-1" dy="1"/>
<feGaussianBlur stdDeviation="1"/>
<feComposite in2="hardAlpha" operator="out"/>
<feColorMatrix type="matrix" values="0 0 0 0 0 0 0 0 0 0 0 0 0 0 0 0 0 0 0.25 0"/>
<feBlend mode="normal" in2="BackgroundImageFix" result="effect1_dropShadow_40000162_3795"/>
<feBlend mode="normal" in="SourceGraphic" in2="effect1_dropShadow_40000162_3795" result="shape"/>
</filter>
</defs>
</svg>
