<svg width="151" height="162" viewBox="0 0 151 162" fill="none" xmlns="http://www.w3.org/2000/svg">
<g filter="url(#filter0_g_40000162_4005)">
<g filter="url(#filter1_d_40000162_4005)">
<path d="M66.8985 149.676C55.8085 149.676 45.3265 149.017 37.3879 147.819C31.2306 146.887 19.7638 145.159 19.7638 136.758C19.7638 133.354 21.6821 131.129 23.9429 129.658C23.8316 127.023 24.3539 124.38 25.5443 122.036C27.8394 117.494 32.2069 114.653 37.5078 114.26C37.9703 114.226 38.467 114.209 38.9979 114.209C41.4129 114.209 44.0163 114.568 46.7823 115.278L47.6473 107.262C39.9656 106.595 32.1641 100.607 29.8005 93.3442C29.4322 92.2235 29.2096 91.1029 29.1068 89.9994C25.8869 88.6392 23.0608 86.0472 20.9798 82.4543C17.9226 77.159 16.4496 69.0237 20.0635 62.7789C20.1063 62.7019 20.1492 62.6335 20.192 62.565C18.7105 60.1013 17.9312 57.15 17.9312 53.8907C17.9312 44.6946 23.0694 37.8425 29.0982 35.2162C29.1924 34.087 29.4237 32.9493 29.8005 31.803C32.3096 24.0954 40.9419 17.8249 49.0603 17.8249C50.2421 17.8249 51.3811 17.9532 52.4686 18.2013C55.7057 14.4972 60.9981 12.3158 66.8985 12.3158C72.7989 12.3158 78.0913 14.4972 81.3284 18.2013C82.416 17.9532 83.555 17.8249 84.7368 17.8249C87.8882 17.8249 91.151 18.7488 94.1397 20.4084C98.3873 17.2518 103.56 15.5152 109.015 15.5152C122.803 15.5152 134.012 26.713 134.012 40.4858C134.012 52.3082 125.748 62.2314 114.693 64.8063C115.455 66.7311 115.866 68.8954 115.866 71.2393C115.866 80.4354 110.728 87.2961 104.699 89.9224C104.605 91.0516 104.373 92.1893 103.997 93.3356C101.701 100.393 94.2767 106.236 86.8092 107.185L87.8796 111.976C89.5153 111.232 91.1767 110.641 92.898 110.179C93.3176 110.068 93.78 109.957 94.3281 109.854C95.3386 109.666 96.3235 109.572 97.2912 109.572C104.639 109.572 110.685 115.064 111.678 122.635C112.038 125.372 111.695 127.99 110.779 130.317C112.706 131.831 114.033 133.901 114.033 136.767C114.033 145.167 102.566 146.895 96.4091 147.828C88.4705 149.026 77.9885 149.684 66.8985 149.684V149.676Z" fill="#FBFBFB"/>
<path d="M66.8985 149.676C55.8085 149.676 45.3265 149.017 37.3879 147.819C31.2306 146.887 19.7638 145.159 19.7638 136.758C19.7638 133.354 21.6821 131.129 23.9429 129.658C23.8316 127.023 24.3539 124.38 25.5443 122.036C27.8394 117.494 32.2069 114.653 37.5078 114.26C37.9703 114.226 38.467 114.209 38.9979 114.209C41.4129 114.209 44.0163 114.568 46.7823 115.278L47.6473 107.262C39.9656 106.595 32.1641 100.607 29.8005 93.3442C29.4322 92.2235 29.2096 91.1029 29.1068 89.9994C25.8869 88.6392 23.0608 86.0472 20.9798 82.4543C17.9226 77.159 16.4496 69.0237 20.0635 62.7789C20.1063 62.7019 20.1492 62.6335 20.192 62.565C18.7105 60.1013 17.9312 57.15 17.9312 53.8907C17.9312 44.6946 23.0694 37.8425 29.0982 35.2162C29.1924 34.087 29.4237 32.9493 29.8005 31.803C32.3096 24.0954 40.9419 17.8249 49.0603 17.8249C50.2421 17.8249 51.3811 17.9532 52.4686 18.2013C55.7057 14.4972 60.9981 12.3158 66.8985 12.3158C72.7989 12.3158 78.0913 14.4972 81.3284 18.2013C82.416 17.9532 83.555 17.8249 84.7368 17.8249C87.8882 17.8249 91.151 18.7488 94.1397 20.4084C98.3873 17.2518 103.56 15.5152 109.015 15.5152C122.803 15.5152 134.012 26.713 134.012 40.4858C134.012 52.3082 125.748 62.2314 114.693 64.8063C115.455 66.7311 115.866 68.8954 115.866 71.2393C115.866 80.4354 110.728 87.2961 104.699 89.9224C104.605 91.0516 104.373 92.1893 103.997 93.3356C101.701 100.393 94.2767 106.236 86.8092 107.185L87.8796 111.976C89.5153 111.232 91.1767 110.641 92.898 110.179C93.3176 110.068 93.78 109.957 94.3281 109.854C95.3386 109.666 96.3235 109.572 97.2912 109.572C104.639 109.572 110.685 115.064 111.678 122.635C112.038 125.372 111.695 127.99 110.779 130.317C112.706 131.831 114.033 133.901 114.033 136.767C114.033 145.167 102.566 146.895 96.4091 147.828C88.4705 149.026 77.9885 149.684 66.8985 149.684V149.676Z" stroke="#9C9C9C" stroke-miterlimit="10"/>
</g>
<path d="M109.025 58.5975C119.047 58.5975 127.172 50.4817 127.172 40.4705C127.172 30.4592 119.047 22.3434 109.025 22.3434C99.0034 22.3434 90.8789 30.4592 90.8789 40.4705C90.8789 50.4817 99.0034 58.5975 109.025 58.5975Z" fill="#2C2C2C"/>
<path d="M109.025 58.5975C119.047 58.5975 127.172 50.4817 127.172 40.4705C127.172 30.4592 119.047 22.3434 109.025 22.3434C99.0034 22.3434 90.8789 30.4592 90.8789 40.4705C90.8789 50.4817 99.0034 58.5975 109.025 58.5975Z" fill="#FEE888"/>
<path d="M66.9232 142.833C89.1713 142.833 107.207 140.113 107.207 136.759C107.207 133.405 89.1713 130.685 66.9232 130.685C44.6751 130.685 26.6394 133.405 26.6394 136.759C26.6394 140.113 44.6751 142.833 66.9232 142.833Z" fill="#2C2C2C"/>
<path d="M64.2717 74.6279V131.678C64.2717 134.8 61.7368 137.333 58.6111 137.333H38.9745C28.6894 137.333 27.7902 121.849 38.0496 121.07C38.3664 121.045 38.6919 121.036 39.0259 121.036C43.3334 121.036 48.3004 122.619 52.6936 124.655L58.063 74.6365H64.2717V74.6279Z" fill="#CBCBC5" stroke="#2C2C2C" stroke-miterlimit="10"/>
<path d="M57.0454 127.1C56.1205 126.569 54.0738 125.303 50.1516 123.592L57.0454 127.1Z" fill="#CBCBC5"/>
<path d="M57.0454 127.1C56.1205 126.569 54.0738 125.303 50.1516 123.592" stroke="#2C2C2C" stroke-miterlimit="10" stroke-linecap="round"/>
<path d="M66.9065 78.0133L72.9953 133.549C73.8003 136.569 76.8918 138.365 79.9148 137.561L98.892 132.531C108.834 129.896 105.726 114.704 95.6121 116.569C95.2952 116.628 94.9784 116.697 94.6615 116.782C90.4996 117.886 87.057 119.913 83.3317 123.01L72.9011 76.4222L66.8979 78.0133H66.9065Z" fill="#CBCBC5" stroke="#2C2C2C" stroke-miterlimit="10"/>
<path d="M78.7544 127.225C79.508 126.472 81.1694 124.727 84.5178 122.066L78.7544 127.225Z" fill="#CBCBC5"/>
<path d="M78.7544 127.225C79.508 126.472 81.1694 124.727 84.5178 122.066" stroke="#2C2C2C" stroke-miterlimit="10" stroke-linecap="round"/>
<path d="M79.8933 137.165C79.8933 137.165 96.7724 120.509 100.626 124.376" stroke="#2C2C2C" stroke-miterlimit="10" stroke-linecap="round"/>
<path d="M77.3224 30.439C82.2209 15.3745 51.5285 15.3745 56.427 30.439C51.5285 15.3745 26.6937 33.3903 39.5222 42.7062C26.7023 33.3903 17.2137 62.5527 33.0737 62.5527C17.2137 62.5527 26.7023 91.715 39.5307 82.3991C26.7023 91.715 51.5285 109.731 56.4355 94.6663C51.5371 109.731 82.2295 109.731 77.331 94.6663C82.2295 109.731 107.064 91.715 94.2358 82.3991C107.064 91.715 116.553 62.5527 100.693 62.5527C116.553 62.5527 107.064 33.3903 94.2358 42.7062C107.064 33.3903 82.238 15.3745 77.331 30.439H77.3224Z" fill="#EEEDEB"/>
<path d="M77.3224 30.439C82.2209 15.3745 51.5285 15.3745 56.427 30.439C51.5285 15.3745 26.6937 33.3903 39.5222 42.7062C26.7023 33.3903 17.2137 62.5527 33.0737 62.5527C17.2137 62.5527 26.7023 91.715 39.5307 82.3991C26.7023 91.715 51.5285 109.731 56.4355 94.6663C51.5371 109.731 82.2295 109.731 77.331 94.6663C82.2295 109.731 107.064 91.715 94.2358 82.3991C107.064 91.715 116.553 62.5527 100.693 62.5527C116.553 62.5527 107.064 33.3903 94.2358 42.7062C107.064 33.3903 82.238 15.3745 77.331 30.439H77.3224Z" fill="#EEEDEB" stroke="#2C2C2C" stroke-miterlimit="10"/>
<path d="M57.0679 127.099L50.2854 123.643C54.1391 125.336 56.1515 126.577 57.0679 127.099Z" fill="white" stroke="#2C2C2C" stroke-miterlimit="10"/>
<path d="M57.0679 127.099L50.2854 123.643C54.1391 125.336 56.1515 126.577 57.0679 127.099Z" fill="white" stroke="#2C2C2C" stroke-miterlimit="10" stroke-linecap="round"/>
<path d="M84.3907 122.133L78.6873 127.24C79.398 126.53 80.8967 124.956 83.8426 122.57C84.0225 122.424 84.2023 122.279 84.3907 122.133Z" fill="white" stroke="#2C2C2C" stroke-miterlimit="10"/>
<path d="M84.3907 122.133L78.6873 127.24C79.398 126.53 80.8967 124.956 83.8426 122.57C84.0225 122.424 84.2023 122.279 84.3907 122.133Z" fill="white" stroke="#2C2C2C" stroke-miterlimit="10" stroke-linecap="round"/>
<path d="M68.4481 57.8563V58.1386C68.4481 58.3097 68.4395 58.4722 68.4395 58.6433C68.4309 58.8999 68.4138 59.1566 68.3967 59.4047C68.3967 59.4816 68.3881 59.5586 68.3795 59.6356C68.1141 63.0232 66.9152 65.5468 63.4297 65.5468C59.6103 65.5468 57.8547 62.0993 57.8547 57.8563C57.8547 56.8725 57.9232 55.923 58.0945 55.059C59.7045 55.2643 61.383 55.4097 63.1043 55.5123C64.7057 55.615 66.3414 55.6663 68.0199 55.6663C68.1141 55.6749 68.2168 55.6749 68.311 55.6749C68.4052 56.3678 68.4481 57.0949 68.4481 57.8563Z" fill="#FBFBFB" stroke="#2C2C2C" stroke-miterlimit="10"/>
<path d="M68.4853 58.138V58.2919C68.4853 58.4117 68.4853 58.5229 68.4767 58.6427C68.4682 58.8993 68.4511 59.1559 68.4339 59.404C68.4339 59.481 68.4254 59.558 68.4168 59.635C68.2113 61.3288 67.509 62.5521 65.7021 62.5521C63.5869 62.5521 62.6106 60.6444 62.6106 58.2919C62.6106 57.2312 62.7562 56.256 63.1415 55.5117C64.743 55.6144 66.3786 55.6657 68.0571 55.6657C68.3397 56.3501 68.4682 57.2055 68.4853 58.138Z" fill="#2C2C2C"/>
<path d="M79.0404 57.8563C79.0404 58.0017 79.0404 58.1471 79.0318 58.2926C78.9719 62.3303 77.9528 65.5468 74.0135 65.5468C70.0741 65.5468 68.4385 62.0993 68.4385 57.8563C68.4385 57.0949 68.4813 56.3678 68.5755 55.6749C70.254 55.6749 71.8897 55.6236 73.4911 55.5295C75.2381 55.4354 76.9166 55.2899 78.5437 55.0846H78.5522C78.6379 55.0846 78.7235 55.0761 78.8091 55.059C78.9462 55.7861 79.0147 56.5731 79.0318 57.3943C79.0404 57.5483 79.0404 57.7023 79.0404 57.8563Z" fill="#FBFBFB" stroke="#2C2C2C" stroke-miterlimit="10"/>
<path d="M68.4001 65.8214C68.5639 65.8237 68.7216 65.8394 68.8396 65.8546C68.8978 65.862 68.9454 65.8688 68.9773 65.8741C68.993 65.8767 69.005 65.8796 69.0125 65.8809C69.0161 65.8816 69.0188 65.8816 69.0203 65.8819H69.0212L69.0925 65.8956C69.1185 65.9031 69.1492 65.9117 69.1833 65.9219C69.3107 65.9601 69.4914 66.0167 69.7019 66.0889C70.1266 66.2346 70.6583 66.4406 71.1208 66.6856C71.352 66.808 71.5562 66.9342 71.7166 67.0616C71.8804 67.1918 71.9746 67.3034 72.0193 67.3878C72.0568 67.4588 72.0528 67.495 72.0427 67.5255C72.0268 67.5733 71.9663 67.6825 71.7566 67.837C70.7878 68.5464 70.0893 68.7121 69.5876 68.6631C69.0892 68.6144 68.6806 68.3439 68.3103 67.9522C68.2705 67.9091 68.1917 67.7832 68.1023 67.5626C68.0183 67.3551 67.941 67.1042 67.8855 66.8506C67.8295 66.5952 67.7989 66.3538 67.7996 66.1622C67.8003 65.9442 67.8408 65.8888 67.8259 65.9083C67.8144 65.9233 67.8332 65.8902 67.9607 65.8594C68.0789 65.831 68.2327 65.819 68.4001 65.8214Z" fill="#FEE888" stroke="#2C2C2C"/>
<path d="M68.3391 55.6799C68.2449 55.6799 68.1421 55.6799 68.0479 55.6713C66.3694 55.6713 64.7338 55.62 63.1323 55.5173C61.411 55.4147 59.7325 55.2693 58.1226 55.064C58.6449 52.2067 60.1693 50.1793 63.4578 50.1793C66.515 50.1793 67.9366 52.4976 68.3391 55.6799Z" stroke="#2C2C2C" stroke-miterlimit="10"/>
<path d="M78.8059 55.064C78.7203 55.0811 78.6346 55.0896 78.549 55.0896H78.5404C76.9133 55.2949 75.2348 55.4404 73.4878 55.5345C71.8864 55.6285 70.2508 55.6799 68.5723 55.6799C68.9919 52.4976 70.4991 50.1793 74.0102 50.1793C76.8705 50.1793 78.3007 52.2067 78.8059 55.064Z" stroke="#2C2C2C" stroke-miterlimit="10"/>
<path d="M79.0776 57.8642C79.0776 58.0096 79.0776 58.155 79.069 58.3005C79.0005 60.4477 78.4011 62.1243 76.2858 62.1243C74.1706 62.1243 73.1943 60.2167 73.1943 57.8642C73.1943 57.0002 73.2885 56.2046 73.5283 55.5374C75.2753 55.4433 76.9538 55.2978 78.5809 55.0925H78.5895C78.8807 55.7256 79.0262 56.5211 79.069 57.4022C79.0776 57.5562 79.0776 57.7102 79.0776 57.8642Z" fill="#2C2C2C"/>
<path d="M60.3999 45.5168L66.234 50.779" stroke="#2C2C2C" stroke-miterlimit="10" stroke-linecap="round"/>
<path d="M76.1524 45.4737L70.8159 50.822" stroke="#2C2C2C" stroke-miterlimit="10" stroke-linecap="round"/>
<path d="M72.6688 76.7368C70.1982 73.5879 66.3772 71.8273 62.4027 72.0134H62.2876" stroke="#2C2C2C" stroke-miterlimit="10" stroke-linecap="round"/>
</g>
<defs>
<filter id="filter0_g_40000162_4005" x="-0.4" y="-0.4" width="151.8" height="162.8" filterUnits="userSpaceOnUse" color-interpolation-filters="sRGB">
<feFlood flood-opacity="0" result="BackgroundImageFix"/>
<feBlend mode="normal" in="SourceGraphic" in2="BackgroundImageFix" result="shape"/>
<feTurbulence type="fractalNoise" baseFrequency="0.66666668653488159 0.66666668653488159" numOctaves="3" seed="7043" />
<feDisplacementMap in="shape" scale="0.80000001192092896" xChannelSelector="R" yChannelSelector="G" result="displacedImage" width="100%" height="100%" />
<feMerge result="effect1_texture_40000162_4005">
<feMergeNode in="displacedImage"/>
</feMerge>
</filter>
<filter id="filter1_d_40000162_4005" x="14.4312" y="10.8158" width="121.081" height="142.368" filterUnits="userSpaceOnUse" color-interpolation-filters="sRGB">
<feFlood flood-opacity="0" result="BackgroundImageFix"/>
<feColorMatrix in="SourceAlpha" type="matrix" values="0 0 0 0 0 0 0 0 0 0 0 0 0 0 0 0 0 0 127 0" result="hardAlpha"/>
<feOffset dx="-1" dy="1"/>
<feGaussianBlur stdDeviation="1"/>
<feComposite in2="hardAlpha" operator="out"/>
<feColorMatrix type="matrix" values="0 0 0 0 0 0 0 0 0 0 0 0 0 0 0 0 0 0 0.25 0"/>
<feBlend mode="normal" in2="BackgroundImageFix" result="effect1_dropShadow_40000162_4005"/>
<feBlend mode="normal" in="SourceGraphic" in2="effect1_dropShadow_40000162_4005" result="shape"/>
</filter>
</defs>
</svg>
