<svg width="151" height="162" viewBox="0 0 151 162" fill="none" xmlns="http://www.w3.org/2000/svg">
<g filter="url(#filter0_g_40000162_4158)">
<g filter="url(#filter1_d_40000162_4158)">
<path d="M66.8985 149.676C55.8085 149.676 45.3265 149.017 37.3879 147.819C31.2306 146.887 19.7638 145.159 19.7638 136.758C19.7638 133.354 21.6821 131.129 23.9429 129.658C23.8316 127.023 24.3539 124.38 25.5443 122.036C27.8394 117.494 32.2069 114.653 37.5078 114.26C37.9703 114.226 38.467 114.209 38.9979 114.209C41.4129 114.209 44.0163 114.568 46.7823 115.278L47.6473 107.262C39.9656 106.595 32.1641 100.607 29.8005 93.3442C29.4322 92.2235 29.2096 91.1029 29.1068 89.9994C25.8869 88.6392 23.0608 86.0472 20.9798 82.4543C17.9226 77.159 16.4496 69.0237 20.0635 62.7789C20.1063 62.7019 20.1492 62.6335 20.192 62.565C18.7105 60.1013 17.9312 57.15 17.9312 53.8907C17.9312 44.6946 23.0694 37.8425 29.0982 35.2162C29.1924 34.087 29.4237 32.9493 29.8005 31.803C32.3096 24.0954 40.9419 17.8249 49.0603 17.8249C50.2421 17.8249 51.3811 17.9532 52.4686 18.2013C55.7057 14.4972 60.9981 12.3158 66.8985 12.3158C72.7989 12.3158 78.0913 14.4972 81.3284 18.2013C82.416 17.9532 83.555 17.8249 84.7368 17.8249C87.8882 17.8249 91.151 18.7488 94.1397 20.4084C98.3873 17.2518 103.56 15.5152 109.015 15.5152C122.803 15.5152 134.012 26.713 134.012 40.4858C134.012 52.3082 125.748 62.2314 114.693 64.8063C115.455 66.7311 115.866 68.8954 115.866 71.2393C115.866 80.4354 110.728 87.2961 104.699 89.9224C104.605 91.0516 104.373 92.1893 103.997 93.3356C101.701 100.393 94.2767 106.236 86.8092 107.185L87.8796 111.976C89.5153 111.232 91.1767 110.641 92.898 110.179C93.3176 110.068 93.78 109.957 94.3281 109.854C95.3386 109.666 96.3235 109.572 97.2912 109.572C104.639 109.572 110.685 115.064 111.678 122.635C112.038 125.372 111.695 127.99 110.779 130.317C112.706 131.831 114.033 133.901 114.033 136.767C114.033 145.167 102.566 146.895 96.4091 147.828C88.4705 149.026 77.9885 149.684 66.8985 149.684V149.676Z" fill="#FBFBFB"/>
<path d="M66.8985 149.676C55.8085 149.676 45.3265 149.017 37.3879 147.819C31.2306 146.887 19.7638 145.159 19.7638 136.758C19.7638 133.354 21.6821 131.129 23.9429 129.658C23.8316 127.023 24.3539 124.38 25.5443 122.036C27.8394 117.494 32.2069 114.653 37.5078 114.26C37.9703 114.226 38.467 114.209 38.9979 114.209C41.4129 114.209 44.0163 114.568 46.7823 115.278L47.6473 107.262C39.9656 106.595 32.1641 100.607 29.8005 93.3442C29.4322 92.2235 29.2096 91.1029 29.1068 89.9994C25.8869 88.6392 23.0608 86.0472 20.9798 82.4543C17.9226 77.159 16.4496 69.0237 20.0635 62.7789C20.1063 62.7019 20.1492 62.6335 20.192 62.565C18.7105 60.1013 17.9312 57.15 17.9312 53.8907C17.9312 44.6946 23.0694 37.8425 29.0982 35.2162C29.1924 34.087 29.4237 32.9493 29.8005 31.803C32.3096 24.0954 40.9419 17.8249 49.0603 17.8249C50.2421 17.8249 51.3811 17.9532 52.4686 18.2013C55.7057 14.4972 60.9981 12.3158 66.8985 12.3158C72.7989 12.3158 78.0913 14.4972 81.3284 18.2013C82.416 17.9532 83.555 17.8249 84.7368 17.8249C87.8882 17.8249 91.151 18.7488 94.1397 20.4084C98.3873 17.2518 103.56 15.5152 109.015 15.5152C122.803 15.5152 134.012 26.713 134.012 40.4858C134.012 52.3082 125.748 62.2314 114.693 64.8063C115.455 66.7311 115.866 68.8954 115.866 71.2393C115.866 80.4354 110.728 87.2961 104.699 89.9224C104.605 91.0516 104.373 92.1893 103.997 93.3356C101.701 100.393 94.2767 106.236 86.8092 107.185L87.8796 111.976C89.5153 111.232 91.1767 110.641 92.898 110.179C93.3176 110.068 93.78 109.957 94.3281 109.854C95.3386 109.666 96.3235 109.572 97.2912 109.572C104.639 109.572 110.685 115.064 111.678 122.635C112.038 125.372 111.695 127.99 110.779 130.317C112.706 131.831 114.033 133.901 114.033 136.767C114.033 145.167 102.566 146.895 96.4091 147.828C88.4705 149.026 77.9885 149.684 66.8985 149.684V149.676Z" stroke="#9C9C9C" stroke-miterlimit="10"/>
</g>
<path d="M109.025 58.5975C119.047 58.5975 127.172 50.4817 127.172 40.4705C127.172 30.4592 119.047 22.3434 109.025 22.3434C99.0034 22.3434 90.8789 30.4592 90.8789 40.4705C90.8789 50.4817 99.0034 58.5975 109.025 58.5975Z" fill="#2C2C2C"/>
<path d="M109.025 58.5975C119.047 58.5975 127.172 50.4817 127.172 40.4705C127.172 30.4592 119.047 22.3434 109.025 22.3434C99.0034 22.3434 90.8789 30.4592 90.8789 40.4705C90.8789 50.4817 99.0034 58.5975 109.025 58.5975Z" fill="#FEE888"/>
<path d="M66.9232 142.833C89.1713 142.833 107.207 140.113 107.207 136.759C107.207 133.405 89.1713 130.685 66.9232 130.685C44.6751 130.685 26.6394 133.405 26.6394 136.759C26.6394 140.113 44.6751 142.833 66.9232 142.833Z" fill="#2C2C2C"/>
<path d="M64.2717 74.6279V131.678C64.2717 134.8 61.7368 137.333 58.6111 137.333H38.9745C28.6894 137.333 27.7902 121.849 38.0496 121.07C38.3664 121.045 38.6919 121.036 39.0259 121.036C43.3334 121.036 48.3004 122.619 52.6936 124.655L58.063 74.6365H64.2717V74.6279Z" fill="#CBCBC5" stroke="#2C2C2C" stroke-miterlimit="10"/>
<path d="M57.0454 127.1C56.1205 126.569 54.0738 125.303 50.1516 123.592L57.0454 127.1Z" fill="#CBCBC5"/>
<path d="M57.0454 127.1C56.1205 126.569 54.0738 125.303 50.1516 123.592" stroke="#2C2C2C" stroke-miterlimit="10" stroke-linecap="round"/>
<path d="M66.9065 78.0133L72.9953 133.549C73.8003 136.569 76.8918 138.365 79.9148 137.561L98.892 132.531C108.834 129.896 105.726 114.704 95.6121 116.569C95.2952 116.628 94.9784 116.697 94.6615 116.782C90.4996 117.886 87.057 119.913 83.3317 123.01L72.9011 76.4222L66.8979 78.0133H66.9065Z" fill="#CBCBC5" stroke="#2C2C2C" stroke-miterlimit="10"/>
<path d="M78.7544 127.225C79.508 126.472 81.1694 124.727 84.5178 122.066L78.7544 127.225Z" fill="#CBCBC5"/>
<path d="M78.7544 127.225C79.508 126.472 81.1694 124.727 84.5178 122.066" stroke="#2C2C2C" stroke-miterlimit="10" stroke-linecap="round"/>
<path d="M79.8933 137.165C79.8933 137.165 96.7724 120.509 100.626 124.376" stroke="#2C2C2C" stroke-miterlimit="10" stroke-linecap="round"/>
<path d="M77.3224 30.439C82.2209 15.3745 51.5285 15.3745 56.427 30.439C51.5285 15.3745 26.6937 33.3903 39.5222 42.7062C26.7023 33.3903 17.2137 62.5527 33.0737 62.5527C17.2137 62.5527 26.7023 91.715 39.5307 82.3991C26.7023 91.715 51.5285 109.731 56.4355 94.6663C51.5371 109.731 82.2295 109.731 77.331 94.6663C82.2295 109.731 107.064 91.715 94.2358 82.3991C107.064 91.715 116.553 62.5527 100.693 62.5527C116.553 62.5527 107.064 33.3903 94.2358 42.7062C107.064 33.3903 82.238 15.3745 77.331 30.439H77.3224Z" fill="#EEEDEB"/>
<path d="M77.3224 30.439C82.2209 15.3745 51.5285 15.3745 56.427 30.439C51.5285 15.3745 26.6937 33.3903 39.5222 42.7062C26.7023 33.3903 17.2137 62.5527 33.0737 62.5527C17.2137 62.5527 26.7023 91.715 39.5307 82.3991C26.7023 91.715 51.5285 109.731 56.4355 94.6663C51.5371 109.731 82.2295 109.731 77.331 94.6663C82.2295 109.731 107.064 91.715 94.2358 82.3991C107.064 91.715 116.553 62.5527 100.693 62.5527C116.553 62.5527 107.064 33.3903 94.2358 42.7062C107.064 33.3903 82.238 15.3745 77.331 30.439H77.3224Z" fill="#EEEDEB" stroke="#2C2C2C" stroke-miterlimit="10"/>
<path d="M57.0679 127.099L50.2854 123.643C54.1391 125.336 56.1515 126.577 57.0679 127.099Z" fill="white" stroke="#2C2C2C" stroke-miterlimit="10"/>
<path d="M57.0679 127.099L50.2854 123.643C54.1391 125.336 56.1515 126.577 57.0679 127.099Z" fill="white" stroke="#2C2C2C" stroke-miterlimit="10" stroke-linecap="round"/>
<path d="M84.3907 122.133L78.6873 127.24C79.398 126.53 80.8967 124.956 83.8426 122.57C84.0225 122.424 84.2023 122.279 84.3907 122.133Z" fill="white" stroke="#2C2C2C" stroke-miterlimit="10"/>
<path d="M84.3907 122.133L78.6873 127.24C79.398 126.53 80.8967 124.956 83.8426 122.57C84.0225 122.424 84.2023 122.279 84.3907 122.133Z" fill="white" stroke="#2C2C2C" stroke-miterlimit="10" stroke-linecap="round"/>
<path d="M68.4001 65.8214C68.5639 65.8237 68.7216 65.8394 68.8396 65.8546C68.8978 65.862 68.9454 65.8688 68.9773 65.8741C68.993 65.8767 69.005 65.8796 69.0125 65.8809C69.0161 65.8816 69.0188 65.8816 69.0203 65.8819H69.0212L69.0925 65.8956C69.1185 65.9031 69.1492 65.9117 69.1833 65.9219C69.3107 65.9601 69.4914 66.0167 69.7019 66.0889C70.1266 66.2346 70.6583 66.4406 71.1208 66.6856C71.352 66.808 71.5562 66.9342 71.7166 67.0616C71.8804 67.1918 71.9746 67.3034 72.0193 67.3878C72.0568 67.4588 72.0528 67.495 72.0427 67.5255C72.0268 67.5733 71.9663 67.6825 71.7566 67.837C70.7878 68.5464 70.0893 68.7121 69.5876 68.6631C69.0892 68.6144 68.6806 68.3439 68.3103 67.9522C68.2705 67.9091 68.1917 67.7832 68.1023 67.5626C68.0183 67.3551 67.941 67.1042 67.8855 66.8506C67.8295 66.5952 67.7989 66.3538 67.7996 66.1622C67.8003 65.9442 67.8408 65.8888 67.8259 65.9083C67.8144 65.9233 67.8332 65.8902 67.9607 65.8594C68.0789 65.831 68.2327 65.819 68.4001 65.8214Z" fill="#FEE888" stroke="#2C2C2C"/>
<path d="M68.1155 57.8498V58.134C68.1155 58.3062 68.107 58.4699 68.107 58.6421C68.0984 58.9005 68.0812 59.1588 68.0641 59.4086C68.0641 59.4861 68.0555 59.5636 68.0469 59.6411C67.7809 63.0517 66.5798 65.5923 63.0879 65.5923C59.2615 65.5923 57.5027 62.1215 57.5027 57.8498C57.5027 56.8593 57.5713 55.9034 57.7429 55.0335C59.3559 55.2402 61.0374 55.3866 62.7619 55.49C64.3663 55.5933 66.005 55.645 67.6866 55.645C67.7809 55.6536 67.8839 55.6536 67.9783 55.6536C68.0726 56.3512 68.1155 57.0833 68.1155 57.8498Z" fill="#FBFBFB" stroke="#2C2C2C" stroke-miterlimit="10"/>
<path d="M78.7371 57.8498C78.7371 57.9962 78.7371 58.1426 78.7286 58.289C78.6685 62.354 77.6476 65.5923 73.701 65.5923C69.7544 65.5923 68.1157 62.1215 68.1157 57.8498C68.1157 57.0833 68.1586 56.3512 68.253 55.6536C69.9346 55.6536 71.5733 55.6019 73.1776 55.5072C74.9278 55.4125 76.6094 55.266 78.2395 55.0593H78.2481C78.3339 55.0593 78.4197 55.0507 78.5055 55.0335C78.6428 55.7656 78.7114 56.5579 78.7286 57.3847C78.7371 57.5397 78.7371 57.6947 78.7371 57.8498Z" fill="#FBFBFB" stroke="#2C2C2C" stroke-miterlimit="10"/>
<path d="M65.8934 58.289C65.8934 60.6574 65.37 62.578 63.105 62.578C60.9859 62.578 60.0078 60.6574 60.0078 58.289C60.0078 55.9206 60.7285 54 63.105 54C65.1727 54 65.8934 55.9206 65.8934 58.289Z" fill="#2C2C2C"/>
<path d="M76.5064 58.289C76.5064 60.6574 75.983 62.578 73.7181 62.578C71.5989 62.578 70.6208 60.6574 70.6208 58.289C70.6208 55.9206 71.3415 54 73.7181 54C75.7857 54 76.5064 55.9206 76.5064 58.289Z" fill="#2C2C2C"/>
<path d="M67.978 55.6536C67.8836 55.6536 67.7807 55.6536 67.6863 55.645C66.0047 55.645 64.3661 55.5933 62.7617 55.49C61.0372 55.3866 59.3556 55.2402 57.7427 55.0335C58.266 52.157 59.7932 50.1158 63.0877 50.1158C66.1506 50.1158 67.5748 52.4498 67.978 55.6536Z" fill="#EEEDEB" stroke="#2C2C2C" stroke-miterlimit="10"/>
<path d="M78.5052 55.0335C78.4194 55.0507 78.3336 55.0594 78.2478 55.0594H78.2392C76.6091 55.2661 74.9275 55.4125 73.1773 55.5072C71.573 55.6019 69.9343 55.6536 68.2527 55.6536C68.6731 52.4498 70.1831 50.1158 73.7007 50.1158C76.5662 50.1158 77.999 52.157 78.5052 55.0335Z" fill="#EEEDEB" stroke="#2C2C2C" stroke-miterlimit="10"/>
<path d="M55.6812 48.5543C55.6812 48.5543 58.8238 41.629 62.7593 45.9395" stroke="#2C2C2C" stroke-miterlimit="10" stroke-linecap="round"/>
<path d="M70.2905 75.24C70.2905 76.7842 69.3467 77.5137 68.1765 77.5137C67.0062 77.5137 66.0625 76.7747 66.0625 75.24C66.0625 73.7053 66.5816 72 67.7518 72C68.9221 72 70.2905 73.7053 70.2905 75.24Z" fill="#2C2C2C"/>
</g>
<defs>
<filter id="filter0_g_40000162_4158" x="-0.4" y="-0.4" width="151.8" height="162.8" filterUnits="userSpaceOnUse" color-interpolation-filters="sRGB">
<feFlood flood-opacity="0" result="BackgroundImageFix"/>
<feBlend mode="normal" in="SourceGraphic" in2="BackgroundImageFix" result="shape"/>
<feTurbulence type="fractalNoise" baseFrequency="0.66666668653488159 0.66666668653488159" numOctaves="3" seed="7043" />
<feDisplacementMap in="shape" scale="0.80000001192092896" xChannelSelector="R" yChannelSelector="G" result="displacedImage" width="100%" height="100%" />
<feMerge result="effect1_texture_40000162_4158">
<feMergeNode in="displacedImage"/>
</feMerge>
</filter>
<filter id="filter1_d_40000162_4158" x="14.4312" y="10.8158" width="121.081" height="142.368" filterUnits="userSpaceOnUse" color-interpolation-filters="sRGB">
<feFlood flood-opacity="0" result="BackgroundImageFix"/>
<feColorMatrix in="SourceAlpha" type="matrix" values="0 0 0 0 0 0 0 0 0 0 0 0 0 0 0 0 0 0 127 0" result="hardAlpha"/>
<feOffset dx="-1" dy="1"/>
<feGaussianBlur stdDeviation="1"/>
<feComposite in2="hardAlpha" operator="out"/>
<feColorMatrix type="matrix" values="0 0 0 0 0 0 0 0 0 0 0 0 0 0 0 0 0 0 0.25 0"/>
<feBlend mode="normal" in2="BackgroundImageFix" result="effect1_dropShadow_40000162_4158"/>
<feBlend mode="normal" in="SourceGraphic" in2="effect1_dropShadow_40000162_4158" result="shape"/>
</filter>
</defs>
</svg>
