<svg width="360" height="800" viewBox="0 0 360 800" fill="none" xmlns="http://www.w3.org/2000/svg">
<g clip-path="url(#clip0_40001505_18834)">
<g filter="url(#filter0_d_40001505_18834)">
<path d="M341.812 761C336.771 761 332.163 758.918 328.914 755.447C328.511 755.478 328.099 755.488 327.696 755.488C321.529 755.488 315.694 752.128 312.464 746.726C310.703 743.769 309.878 740.47 309.999 737.16C306.327 733.961 304.083 729.304 304.003 724.124C303.912 718.943 306.005 714.226 309.556 710.906C309.315 707.506 310.08 704.076 311.85 700.998C315.05 695.445 320.935 691.985 327.213 691.985C327.425 691.985 327.626 691.985 327.837 691.995C331.097 688.253 335.866 686 341.178 686C346.49 686 350.827 688.082 354.086 691.553C354.489 691.522 354.901 691.512 355.304 691.512C361.471 691.512 367.306 694.872 370.536 700.274C372.297 703.231 373.122 706.53 373.001 709.84C376.673 713.039 378.917 717.696 378.997 722.876C379.088 728.057 376.995 732.774 373.444 736.094C373.685 739.494 372.92 742.914 371.15 746.002C367.95 751.555 362.065 755.015 355.787 755.015C355.575 755.015 355.374 755.015 355.163 755.005C351.903 758.747 347.134 761 341.822 761H341.812Z" fill="#FBFBFB"/>
<path d="M341.812 761C336.771 761 332.163 758.918 328.914 755.447C328.511 755.478 328.099 755.488 327.696 755.488C321.529 755.488 315.694 752.128 312.464 746.726C310.703 743.769 309.878 740.47 309.999 737.16C306.327 733.961 304.083 729.304 304.003 724.124C303.912 718.943 306.005 714.226 309.556 710.906C309.315 707.506 310.08 704.076 311.85 700.998C315.05 695.445 320.935 691.985 327.213 691.985C327.425 691.985 327.626 691.985 327.837 691.995C331.097 688.253 335.866 686 341.178 686C346.49 686 350.827 688.082 354.086 691.553C354.489 691.522 354.901 691.512 355.304 691.512C361.471 691.512 367.306 694.872 370.536 700.274C372.297 703.231 373.122 706.53 373.001 709.84C376.673 713.039 378.917 717.696 378.997 722.876C379.088 728.057 376.995 732.774 373.444 736.094C373.685 739.494 372.92 742.914 371.15 746.002C367.95 751.555 362.065 755.015 355.787 755.015C355.575 755.015 355.374 755.015 355.163 755.005C351.903 758.747 347.134 761 341.822 761H341.812Z" stroke="#9C9C9C" stroke-miterlimit="10"/>
</g>
<g filter="url(#filter1_g_40001505_18834)">
<path d="M351.149 745.761C348.664 755.176 335.373 755.397 332.576 746.073C324.155 750.971 314.607 741.737 319.225 733.157C309.808 730.672 309.587 717.384 318.913 714.588C314.014 706.168 323.25 696.622 331.832 701.24C334.317 691.824 347.607 691.603 350.404 700.928C358.825 696.029 368.373 705.263 363.755 713.843C373.172 716.328 373.393 729.616 364.067 732.412C368.967 740.832 359.731 750.378 351.149 745.761Z" fill="#FBF9F3"/>
<path d="M332.315 701.367C334.672 692.44 347.273 692.23 349.925 701.071L350.107 701.679L350.655 701.359C358.64 696.714 367.693 705.471 363.314 713.606L363.014 714.165L363.628 714.327C372.557 716.683 372.766 729.282 363.923 731.934L363.315 732.115L363.635 732.664C368.28 740.647 359.524 749.699 351.386 745.32L350.827 745.02L350.665 745.633C348.309 754.56 335.707 754.77 333.055 745.929L332.873 745.321L332.325 745.641C324.34 750.286 315.287 741.529 319.666 733.394L319.966 732.835L319.353 732.673C310.424 730.317 310.214 717.718 319.057 715.066L319.665 714.885L319.346 714.336C314.7 706.353 323.456 697.301 331.595 701.68L332.153 701.98L332.315 701.367Z" stroke="#CBCBC5"/>
</g>
<g filter="url(#filter2_d_40001505_18834)">
<path d="M15.8119 203C10.7714 203 6.16343 200.918 2.91375 197.447C2.51131 197.478 2.09881 197.488 1.69637 197.488C-4.471 197.488 -10.3063 194.128 -13.5359 188.726C-15.2966 185.769 -16.1216 182.47 -16.0008 179.16C-19.6731 175.961 -21.9167 171.304 -21.9972 166.124C-22.0877 160.943 -19.995 156.226 -16.4435 152.906C-16.685 149.506 -15.9204 146.076 -14.1496 142.998C-10.9502 137.445 -5.06459 133.985 1.21344 133.985C1.42472 133.985 1.62594 133.985 1.83722 133.995C5.09697 130.253 9.86586 128 15.178 128C20.4902 128 24.8265 130.082 28.0863 133.553C28.4887 133.522 28.9012 133.512 29.3036 133.512C35.471 133.512 41.3063 136.872 44.5359 142.274C46.2966 145.231 47.1216 148.53 47.0008 151.84C50.6731 155.039 52.9167 159.696 52.9972 164.876C53.0877 170.057 50.995 174.774 47.4435 178.094C47.685 181.494 46.9204 184.914 45.1496 188.002C41.9502 193.555 36.0646 197.015 29.7866 197.015C29.5753 197.015 29.3741 197.015 29.1628 197.005C25.903 200.747 21.1341 203 15.8219 203H15.8119Z" fill="#FBFBFB"/>
<path d="M15.8119 203C10.7714 203 6.16343 200.918 2.91375 197.447C2.51131 197.478 2.09881 197.488 1.69637 197.488C-4.471 197.488 -10.3063 194.128 -13.5359 188.726C-15.2966 185.769 -16.1216 182.47 -16.0008 179.16C-19.6731 175.961 -21.9167 171.304 -21.9972 166.124C-22.0877 160.943 -19.995 156.226 -16.4435 152.906C-16.685 149.506 -15.9204 146.076 -14.1496 142.998C-10.9502 137.445 -5.06459 133.985 1.21344 133.985C1.42472 133.985 1.62594 133.985 1.83722 133.995C5.09697 130.253 9.86586 128 15.178 128C20.4902 128 24.8265 130.082 28.0863 133.553C28.4887 133.522 28.9012 133.512 29.3036 133.512C35.471 133.512 41.3063 136.872 44.5359 142.274C46.2966 145.231 47.1216 148.53 47.0008 151.84C50.6731 155.039 52.9167 159.696 52.9972 164.876C53.0877 170.057 50.995 174.774 47.4435 178.094C47.685 181.494 46.9204 184.914 45.1496 188.002C41.9502 193.555 36.0646 197.015 29.7866 197.015C29.5753 197.015 29.3741 197.015 29.1628 197.005C25.903 200.747 21.1341 203 15.8219 203H15.8119Z" stroke="#9C9C9C" stroke-miterlimit="10"/>
</g>
<g filter="url(#filter3_g_40001505_18834)">
<path d="M25.1487 187.761C22.6636 197.176 9.37309 197.397 6.57615 188.073C-1.84487 192.971 -11.3927 183.737 -6.77474 175.157C-16.1918 172.672 -16.4131 159.384 -7.08663 156.588C-11.9863 148.168 -2.75036 138.622 5.83164 143.24C8.31669 133.824 21.6072 133.603 24.4042 142.928C32.8252 138.029 42.373 147.263 37.755 155.843C47.1721 158.328 47.3934 171.616 38.0669 174.412C42.9666 182.832 33.7307 192.378 25.1487 187.761Z" fill="#FBF9F3"/>
<path d="M6.31543 143.367C8.6717 134.44 21.2728 134.23 23.9248 143.071L24.1074 143.679L24.6553 143.359C32.6403 138.714 41.6933 147.471 37.3145 155.606L37.0137 156.165L37.6279 156.327C46.5566 158.683 46.7655 171.282 37.9229 173.934L37.3154 174.115L37.6348 174.664C42.2801 182.647 33.524 191.699 25.3857 187.32L24.8271 187.02L24.665 187.633C22.3088 196.56 9.70658 196.77 7.05469 187.929L6.87305 187.321L6.3252 187.641C-1.65981 192.286 -10.7128 183.529 -6.33398 175.394L-6.03418 174.835L-6.64746 174.673C-15.5761 172.317 -15.7859 159.718 -6.94336 157.066L-6.33496 156.885L-6.6543 156.336C-11.2995 148.353 -2.54351 139.301 5.59473 143.68L6.15332 143.98L6.31543 143.367Z" stroke="#CBCBC5"/>
</g>
<g filter="url(#filter4_d_40001505_18834)">
<path d="M46.4789 704.728C38.7447 708.388 30.1624 708.539 22.6561 705.574C22.0605 705.913 21.4349 706.228 20.8174 706.52C11.3543 710.998 -0.0390906 710.08 -8.9169 704.137C-13.7659 700.878 -17.4276 696.415 -19.6454 691.249C-27.6029 689.007 -34.4273 683.49 -38.3125 675.6C-42.2131 667.717 -42.4278 658.959 -39.3888 651.286C-42.2282 646.245 -43.5457 640.427 -43.0638 634.418C-42.1866 623.575 -35.6684 613.991 -26.0354 609.433C-25.7112 609.279 -25.4025 609.133 -25.071 608.995C-22.7865 600.887 -17.1053 593.966 -8.95428 590.109C-0.803307 586.252 7.36222 586.298 14.8839 589.256C15.4795 588.917 16.1051 588.602 16.7226 588.31C26.1858 583.831 37.5791 584.749 46.457 590.692C51.306 593.952 54.9676 598.415 57.1855 603.581C65.1429 605.822 71.9674 611.339 75.8526 619.23C79.7532 627.113 79.9679 635.871 76.9289 643.543C79.7682 648.585 81.0784 654.388 80.6039 660.412C79.7267 671.255 73.2085 680.838 63.5755 685.397C63.2513 685.55 62.9426 685.697 62.6111 685.835C60.3265 693.943 54.6453 700.863 46.4943 704.721L46.4789 704.728Z" fill="#FBFBFB"/>
<path d="M46.4789 704.728C38.7447 708.388 30.1624 708.539 22.6561 705.574C22.0605 705.913 21.4349 706.228 20.8174 706.52C11.3543 710.998 -0.0390906 710.08 -8.9169 704.137C-13.7659 700.878 -17.4276 696.415 -19.6454 691.249C-27.6029 689.007 -34.4273 683.49 -38.3125 675.6C-42.2131 667.717 -42.4278 658.959 -39.3888 651.286C-42.2282 646.245 -43.5457 640.427 -43.0638 634.418C-42.1866 623.575 -35.6684 613.991 -26.0354 609.433C-25.7112 609.279 -25.4025 609.133 -25.071 608.995C-22.7865 600.887 -17.1053 593.966 -8.95428 590.109C-0.803307 586.252 7.36222 586.298 14.8839 589.256C15.4795 588.917 16.1051 588.602 16.7226 588.31C26.1858 583.831 37.5791 584.749 46.457 590.692C51.306 593.952 54.9676 598.415 57.1855 603.581C65.1429 605.822 71.9674 611.339 75.8526 619.23C79.7532 627.113 79.9679 635.871 76.9289 643.543C79.7682 648.585 81.0784 654.388 80.6039 660.412C79.7267 671.255 73.2085 680.838 63.5755 685.397C63.2513 685.55 62.9426 685.697 62.6111 685.835C60.3265 693.943 54.6453 700.863 46.4943 704.721L46.4789 704.728Z" stroke="#9C9C9C" stroke-miterlimit="10"/>
</g>
<g filter="url(#filter5_g_40001505_18834)">
<path d="M49.739 674.565C52.7627 690.816 32.5305 700.807 21.4679 688.53C12.1039 702.161 -9.25156 694.926 -8.39631 678.407C-24.6499 681.432 -34.6385 661.204 -22.3586 650.141C-35.9903 640.78 -28.7504 619.426 -12.2296 620.279C-15.2534 604.028 4.97881 594.038 16.0415 606.314C25.4055 592.683 46.7609 599.919 45.9057 616.438C62.1593 613.412 72.1478 633.64 59.8679 644.703C73.4996 654.064 66.2598 675.418 49.739 674.565Z" fill="#FBF9F3"/>
<path d="M-11.7381 620.188C-14.6695 604.433 4.94525 594.747 15.67 606.649L16.094 607.12L16.4539 606.598C25.5323 593.382 46.2355 600.397 45.4064 616.412L45.3734 617.045L45.9967 616.929C61.7542 613.995 71.438 633.606 59.5332 644.332L59.0623 644.757L59.5853 645.115C72.8002 654.19 65.7824 674.893 49.7648 674.066L49.1312 674.033L49.2471 674.657C52.1783 690.412 32.5646 700.097 21.8398 688.195L21.4149 687.725L21.0559 688.247C11.9776 701.462 -8.72639 694.447 -7.89742 678.433L-7.86449 677.799L-8.48818 677.915C-24.2455 680.848 -33.9281 661.238 -22.0234 650.513L-21.5525 650.088L-22.0754 649.729C-35.2905 640.654 -28.2732 619.952 -12.2559 620.778L-11.6223 620.811L-11.7381 620.188Z" stroke="#CBCBC5"/>
</g>
</g>
<defs>
<filter id="filter0_d_40001505_18834" x="300.5" y="684.5" width="80" height="80" filterUnits="userSpaceOnUse" color-interpolation-filters="sRGB">
<feFlood flood-opacity="0" result="BackgroundImageFix"/>
<feColorMatrix in="SourceAlpha" type="matrix" values="0 0 0 0 0 0 0 0 0 0 0 0 0 0 0 0 0 0 127 0" result="hardAlpha"/>
<feOffset dx="-1" dy="1"/>
<feGaussianBlur stdDeviation="1"/>
<feComposite in2="hardAlpha" operator="out"/>
<feColorMatrix type="matrix" values="0 0 0 0 0 0 0 0 0 0 0 0 0 0 0 0 0 0 0.25 0"/>
<feBlend mode="normal" in2="BackgroundImageFix" result="effect1_dropShadow_40001505_18834"/>
<feBlend mode="normal" in="SourceGraphic" in2="effect1_dropShadow_40001505_18834" result="shape"/>
</filter>
<filter id="filter1_g_40001505_18834" x="311.639" y="693.655" width="59.7023" height="59.6906" filterUnits="userSpaceOnUse" color-interpolation-filters="sRGB">
<feFlood flood-opacity="0" result="BackgroundImageFix"/>
<feBlend mode="normal" in="SourceGraphic" in2="BackgroundImageFix" result="shape"/>
<feTurbulence type="fractalNoise" baseFrequency="0.66666668653488159 0.66666668653488159" numOctaves="3" seed="7043" />
<feDisplacementMap in="shape" scale="0.80000001192092896" xChannelSelector="R" yChannelSelector="G" result="displacedImage" width="100%" height="100%" />
<feMerge result="effect1_texture_40001505_18834">
<feMergeNode in="displacedImage"/>
</feMerge>
</filter>
<filter id="filter2_d_40001505_18834" x="-25.5" y="126.5" width="80" height="80" filterUnits="userSpaceOnUse" color-interpolation-filters="sRGB">
<feFlood flood-opacity="0" result="BackgroundImageFix"/>
<feColorMatrix in="SourceAlpha" type="matrix" values="0 0 0 0 0 0 0 0 0 0 0 0 0 0 0 0 0 0 127 0" result="hardAlpha"/>
<feOffset dx="-1" dy="1"/>
<feGaussianBlur stdDeviation="1"/>
<feComposite in2="hardAlpha" operator="out"/>
<feColorMatrix type="matrix" values="0 0 0 0 0 0 0 0 0 0 0 0 0 0 0 0 0 0 0.25 0"/>
<feBlend mode="normal" in2="BackgroundImageFix" result="effect1_dropShadow_40001505_18834"/>
<feBlend mode="normal" in="SourceGraphic" in2="effect1_dropShadow_40001505_18834" result="shape"/>
</filter>
<filter id="filter3_g_40001505_18834" x="-14.3609" y="135.655" width="59.7023" height="59.6906" filterUnits="userSpaceOnUse" color-interpolation-filters="sRGB">
<feFlood flood-opacity="0" result="BackgroundImageFix"/>
<feBlend mode="normal" in="SourceGraphic" in2="BackgroundImageFix" result="shape"/>
<feTurbulence type="fractalNoise" baseFrequency="0.66666668653488159 0.66666668653488159" numOctaves="3" seed="7043" />
<feDisplacementMap in="shape" scale="0.80000001192092896" xChannelSelector="R" yChannelSelector="G" result="displacedImage" width="100%" height="100%" />
<feMerge result="effect1_texture_40001505_18834">
<feMergeNode in="displacedImage"/>
</feMerge>
</filter>
<filter id="filter4_d_40001505_18834" x="-46.6611" y="583.995" width="128.86" height="128.84" filterUnits="userSpaceOnUse" color-interpolation-filters="sRGB">
<feFlood flood-opacity="0" result="BackgroundImageFix"/>
<feColorMatrix in="SourceAlpha" type="matrix" values="0 0 0 0 0 0 0 0 0 0 0 0 0 0 0 0 0 0 127 0" result="hardAlpha"/>
<feOffset dx="-1" dy="1"/>
<feGaussianBlur stdDeviation="1"/>
<feComposite in2="hardAlpha" operator="out"/>
<feColorMatrix type="matrix" values="0 0 0 0 0 0 0 0 0 0 0 0 0 0 0 0 0 0 0.25 0"/>
<feBlend mode="normal" in2="BackgroundImageFix" result="effect1_dropShadow_40001505_18834"/>
<feBlend mode="normal" in="SourceGraphic" in2="effect1_dropShadow_40001505_18834" result="shape"/>
</filter>
<filter id="filter5_g_40001505_18834" x="-29.9073" y="598.764" width="97.3239" height="97.3156" filterUnits="userSpaceOnUse" color-interpolation-filters="sRGB">
<feFlood flood-opacity="0" result="BackgroundImageFix"/>
<feBlend mode="normal" in="SourceGraphic" in2="BackgroundImageFix" result="shape"/>
<feTurbulence type="fractalNoise" baseFrequency="0.66666668653488159 0.66666668653488159" numOctaves="3" seed="7043" />
<feDisplacementMap in="shape" scale="0.80000001192092896" xChannelSelector="R" yChannelSelector="G" result="displacedImage" width="100%" height="100%" />
<feMerge result="effect1_texture_40001505_18834">
<feMergeNode in="displacedImage"/>
</feMerge>
</filter>
<clipPath id="clip0_40001505_18834">
<rect width="360" height="800" fill="white"/>
</clipPath>
</defs>
</svg>