<svg width="360" height="800" viewBox="0 0 360 800" fill="none" xmlns="http://www.w3.org/2000/svg">
<g clip-path="url(#clip0_40001569_14733)">
<g filter="url(#filter0_d_40001569_14733)">
<path d="M357.463 693.843C372.298 695.866 379.263 710.734 374.46 723.575C378.727 736.902 374.46 750.708 357.463 753.306C349.363 765.419 328.896 764.365 323.468 753.306C306.471 751.958 300.425 734.57 306.471 723.575C299.313 709.89 308.535 695.866 323.468 693.843C334.254 683.122 346.578 683.653 357.463 693.843Z" fill="#FBFBFB"/>
<path d="M340.423 686.501C346.054 686.566 351.742 689.172 357.121 694.208L357.237 694.317L357.396 694.339C371.865 696.312 378.7 710.813 373.991 723.399L373.931 723.562L373.983 723.727C376.09 730.305 376.072 736.949 373.486 742.244C370.911 747.517 365.748 751.534 357.387 752.812L357.17 752.845L357.047 753.027C353.113 758.91 346.154 761.624 339.474 761.495C332.781 761.366 326.521 758.39 323.917 753.085L323.792 752.83L323.508 752.808L322.736 752.734C314.846 751.861 309.497 747.397 306.778 741.838C303.963 736.082 303.971 729.159 306.909 723.815L307.039 723.58L306.914 723.343C303.415 716.654 303.927 709.912 307.114 704.593C310.307 699.264 316.207 695.332 323.535 694.339L323.702 694.316L323.821 694.198C329.142 688.909 334.797 686.437 340.423 686.501Z" stroke="#9C9C9C"/>
</g>
<path d="M352.524 702.552C364.431 701.024 372.28 714.564 365.002 724.076C372.28 733.587 364.431 747.128 352.524 745.599C347.896 756.639 332.198 756.639 327.569 745.599C315.662 747.128 307.813 733.587 315.092 724.076C307.813 714.564 315.662 701.024 327.569 702.552C332.198 691.513 347.896 691.513 352.524 702.552Z" fill="#A7E1B6"/>
<g filter="url(#filter1_d_40001569_14733)">
<path d="M31.4627 135.843C46.2977 137.866 53.2633 152.734 48.4598 165.575C52.7274 178.902 48.4598 192.708 31.4627 195.306C23.3635 207.419 2.89612 206.365 -2.53152 195.306C-19.5286 193.958 -25.5748 176.57 -19.5286 165.575C-26.6869 151.89 -17.4649 137.866 -2.53152 135.843C8.25432 125.122 20.5782 125.653 31.4627 135.843Z" fill="#FBFBFB"/>
<path d="M14.4229 128.501C20.0543 128.566 25.7424 131.172 31.1211 136.208L31.2373 136.317L31.3955 136.339C45.8651 138.312 52.6997 152.813 47.9912 165.399L47.9307 165.562L47.9834 165.727C50.0899 172.305 50.0723 178.949 47.4863 184.244C44.9108 189.517 39.7484 193.534 31.3867 194.812L31.1699 194.845L31.0469 195.027C27.1135 200.91 20.1536 203.624 13.4736 203.495C6.78114 203.366 0.520786 200.39 -2.08301 195.085L-2.20801 194.83L-2.49219 194.808L-3.26367 194.734C-11.1545 193.861 -16.5031 189.397 -19.2217 183.838C-22.0367 178.082 -22.0289 171.159 -19.0908 165.815L-18.9609 165.58L-19.0859 165.343C-22.5847 158.654 -22.0732 151.912 -18.8857 146.593C-15.6927 141.264 -9.79318 137.332 -2.46484 136.339L-2.29785 136.316L-2.17871 136.198C3.14236 130.909 8.79674 128.437 14.4229 128.501Z" stroke="#9C9C9C"/>
</g>
<path d="M26.5242 144.552C38.4311 143.024 46.2803 156.564 39.0018 166.076C46.2803 175.587 38.4311 189.128 26.5242 187.599C21.8959 198.639 6.19753 198.639 1.56918 187.599C-10.3377 189.128 -18.1869 175.587 -10.9084 166.076C-18.1869 156.564 -10.3377 143.024 1.56918 144.552C6.19753 133.513 21.8959 133.513 26.5242 144.552Z" fill="#A7E1B6"/>
<g filter="url(#filter2_d_40001569_14733)">
<path d="M22.4868 590.087C46.9277 582.352 68.5977 600.261 70.5682 623.652C86.9346 641.153 90.4416 665.646 66.0382 682.115C62.3756 706.794 29.9269 720.153 13.4266 707.013C-13.8663 717.376 -35.959 694.893 -34.6548 673.448C-55.7559 657.512 -51.7552 629.053 -30.1248 614.985C-21.2846 590.492 -1.82272 582.287 22.4868 590.087Z" fill="#FBFBFB"/>
<path d="M-9.41121 590.881C-0.545887 586.809 10.2625 586.69 22.3343 590.564L22.4857 590.612L22.6379 590.564C46.7271 582.94 68.1222 600.573 70.0702 623.693L70.0844 623.867L70.2027 623.994C78.3247 632.679 83.2177 643.058 83.092 653.264C82.9664 663.445 77.8452 673.544 65.7582 681.701L65.5764 681.823L65.5433 682.041C63.7427 694.174 54.8575 703.561 44.3415 708.29C33.8141 713.025 21.7928 713.036 13.7381 706.621L13.5148 706.444L13.2492 706.545L12.619 706.779C-0.603605 711.567 -12.521 708.56 -21.0259 701.768C-29.6814 694.855 -34.7966 684.025 -34.1553 673.479L-34.1395 673.211L-34.3531 673.049C-44.7653 665.186 -48.9654 654.256 -47.9162 643.565C-46.8659 632.863 -40.5506 622.362 -29.8523 615.404L-29.7118 615.313L-29.6547 615.155C-25.269 603.004 -18.2717 594.95 -9.41121 590.881Z" stroke="#9C9C9C"/>
</g>
<path d="M21.222 607.183C38.5304 596.097 60.5957 611.304 56.2973 631.355C74.5283 640.745 72.2979 667.45 52.7506 673.805C53.6732 694.281 29.3775 705.779 14.1287 692.083C-3.17978 703.169 -25.2451 687.962 -20.9466 667.91C-39.1776 658.521 -36.9472 631.816 -17.4 625.46C-18.3225 604.985 5.9732 593.487 21.222 607.183Z" fill="#A7E1B6"/>
</g>
<defs>
<filter id="filter0_d_40001569_14733" x="301" y="685" width="76" height="80" filterUnits="userSpaceOnUse" color-interpolation-filters="sRGB">
<feFlood flood-opacity="0" result="BackgroundImageFix"/>
<feColorMatrix in="SourceAlpha" type="matrix" values="0 0 0 0 0 0 0 0 0 0 0 0 0 0 0 0 0 0 127 0" result="hardAlpha"/>
<feOffset dx="-1" dy="1"/>
<feGaussianBlur stdDeviation="1"/>
<feComposite in2="hardAlpha" operator="out"/>
<feColorMatrix type="matrix" values="0 0 0 0 0 0 0 0 0 0 0 0 0 0 0 0 0 0 0.25 0"/>
<feBlend mode="normal" in2="BackgroundImageFix" result="effect1_dropShadow_40001569_14733"/>
<feBlend mode="normal" in="SourceGraphic" in2="effect1_dropShadow_40001569_14733" result="shape"/>
</filter>
<filter id="filter1_d_40001569_14733" x="-25" y="127" width="76" height="80" filterUnits="userSpaceOnUse" color-interpolation-filters="sRGB">
<feFlood flood-opacity="0" result="BackgroundImageFix"/>
<feColorMatrix in="SourceAlpha" type="matrix" values="0 0 0 0 0 0 0 0 0 0 0 0 0 0 0 0 0 0 127 0" result="hardAlpha"/>
<feOffset dx="-1" dy="1"/>
<feGaussianBlur stdDeviation="1"/>
<feComposite in2="hardAlpha" operator="out"/>
<feColorMatrix type="matrix" values="0 0 0 0 0 0 0 0 0 0 0 0 0 0 0 0 0 0 0.25 0"/>
<feBlend mode="normal" in2="BackgroundImageFix" result="effect1_dropShadow_40001569_14733"/>
<feBlend mode="normal" in="SourceGraphic" in2="effect1_dropShadow_40001569_14733" result="shape"/>
</filter>
<filter id="filter2_d_40001569_14733" x="-51.5732" y="586.24" width="136.168" height="128.92" filterUnits="userSpaceOnUse" color-interpolation-filters="sRGB">
<feFlood flood-opacity="0" result="BackgroundImageFix"/>
<feColorMatrix in="SourceAlpha" type="matrix" values="0 0 0 0 0 0 0 0 0 0 0 0 0 0 0 0 0 0 127 0" result="hardAlpha"/>
<feOffset dx="-1" dy="1"/>
<feGaussianBlur stdDeviation="1"/>
<feComposite in2="hardAlpha" operator="out"/>
<feColorMatrix type="matrix" values="0 0 0 0 0 0 0 0 0 0 0 0 0 0 0 0 0 0 0.25 0"/>
<feBlend mode="normal" in2="BackgroundImageFix" result="effect1_dropShadow_40001569_14733"/>
<feBlend mode="normal" in="SourceGraphic" in2="effect1_dropShadow_40001569_14733" result="shape"/>
</filter>
<clipPath id="clip0_40001569_14733">
<rect width="360" height="800" fill="white"/>
</clipPath>
</defs>
</svg>