<svg width="360" height="800" viewBox="0 0 360 800" fill="none" xmlns="http://www.w3.org/2000/svg">
<g clip-path="url(#clip0_40001569_14559)">
<g filter="url(#filter0_d_40001569_14559)">
<path d="M341.812 761C336.771 761 332.163 758.918 328.914 755.447C328.511 755.478 328.099 755.488 327.696 755.488C321.529 755.488 315.694 752.128 312.464 746.726C310.703 743.769 309.878 740.47 309.999 737.16C306.327 733.961 304.083 729.304 304.003 724.124C303.912 718.943 306.005 714.226 309.556 710.906C309.315 707.506 310.08 704.076 311.85 700.998C315.05 695.445 320.935 691.985 327.213 691.985C327.425 691.985 327.626 691.985 327.837 691.995C331.097 688.253 335.866 686 341.178 686C346.49 686 350.827 688.082 354.086 691.553C354.489 691.522 354.901 691.512 355.304 691.512C361.471 691.512 367.306 694.872 370.536 700.274C372.297 703.231 373.122 706.53 373.001 709.84C376.673 713.039 378.917 717.696 378.997 722.876C379.088 728.057 376.995 732.774 373.444 736.094C373.685 739.494 372.92 742.914 371.15 746.002C367.95 751.555 362.065 755.015 355.787 755.015C355.575 755.015 355.374 755.015 355.163 755.005C351.903 758.747 347.134 761 341.822 761H341.812Z" fill="#FBFBFB"/>
<path d="M341.812 761C336.771 761 332.163 758.918 328.914 755.447C328.511 755.478 328.099 755.488 327.696 755.488C321.529 755.488 315.694 752.128 312.464 746.726C310.703 743.769 309.878 740.47 309.999 737.16C306.327 733.961 304.083 729.304 304.003 724.124C303.912 718.943 306.005 714.226 309.556 710.906C309.315 707.506 310.08 704.076 311.85 700.998C315.05 695.445 320.935 691.985 327.213 691.985C327.425 691.985 327.626 691.985 327.837 691.995C331.097 688.253 335.866 686 341.178 686C346.49 686 350.827 688.082 354.086 691.553C354.489 691.522 354.901 691.512 355.304 691.512C361.471 691.512 367.306 694.872 370.536 700.274C372.297 703.231 373.122 706.53 373.001 709.84C376.673 713.039 378.917 717.696 378.997 722.876C379.088 728.057 376.995 732.774 373.444 736.094C373.685 739.494 372.92 742.914 371.15 746.002C367.95 751.555 362.065 755.015 355.787 755.015C355.575 755.015 355.374 755.015 355.163 755.005C351.903 758.747 347.134 761 341.822 761H341.812Z" stroke="#9C9C9C" stroke-miterlimit="10"/>
</g>
<g filter="url(#filter1_g_40001569_14559)">
<path d="M351.149 745.761C348.664 755.176 335.373 755.397 332.576 746.073C324.155 750.971 314.607 741.737 319.225 733.157C309.808 730.672 309.587 717.384 318.913 714.588C314.014 706.168 323.25 696.622 331.832 701.24C334.317 691.824 347.607 691.603 350.404 700.928C358.825 696.029 368.373 705.263 363.755 713.843C373.172 716.328 373.393 729.616 364.067 732.412C368.967 740.832 359.731 750.378 351.149 745.761Z" fill="#FBD7D5"/>
</g>
<g filter="url(#filter2_d_40001569_14559)">
<path d="M15.8119 203C10.7714 203 6.16343 200.918 2.91375 197.447C2.51131 197.478 2.09881 197.488 1.69637 197.488C-4.471 197.488 -10.3063 194.128 -13.5359 188.726C-15.2966 185.769 -16.1216 182.47 -16.0008 179.16C-19.6731 175.961 -21.9167 171.304 -21.9972 166.124C-22.0877 160.943 -19.995 156.226 -16.4435 152.906C-16.685 149.506 -15.9204 146.076 -14.1496 142.998C-10.9502 137.445 -5.06459 133.985 1.21344 133.985C1.42472 133.985 1.62594 133.985 1.83722 133.995C5.09697 130.253 9.86586 128 15.178 128C20.4902 128 24.8265 130.082 28.0863 133.553C28.4887 133.522 28.9012 133.512 29.3036 133.512C35.471 133.512 41.3063 136.872 44.5359 142.274C46.2966 145.231 47.1216 148.53 47.0008 151.84C50.6731 155.039 52.9167 159.696 52.9972 164.876C53.0877 170.057 50.995 174.774 47.4435 178.094C47.685 181.494 46.9204 184.914 45.1496 188.002C41.9502 193.555 36.0646 197.015 29.7866 197.015C29.5753 197.015 29.3741 197.015 29.1628 197.005C25.903 200.747 21.1341 203 15.8219 203H15.8119Z" fill="#FBFBFB"/>
<path d="M15.8119 203C10.7714 203 6.16343 200.918 2.91375 197.447C2.51131 197.478 2.09881 197.488 1.69637 197.488C-4.471 197.488 -10.3063 194.128 -13.5359 188.726C-15.2966 185.769 -16.1216 182.47 -16.0008 179.16C-19.6731 175.961 -21.9167 171.304 -21.9972 166.124C-22.0877 160.943 -19.995 156.226 -16.4435 152.906C-16.685 149.506 -15.9204 146.076 -14.1496 142.998C-10.9502 137.445 -5.06459 133.985 1.21344 133.985C1.42472 133.985 1.62594 133.985 1.83722 133.995C5.09697 130.253 9.86586 128 15.178 128C20.4902 128 24.8265 130.082 28.0863 133.553C28.4887 133.522 28.9012 133.512 29.3036 133.512C35.471 133.512 41.3063 136.872 44.5359 142.274C46.2966 145.231 47.1216 148.53 47.0008 151.84C50.6731 155.039 52.9167 159.696 52.9972 164.876C53.0877 170.057 50.995 174.774 47.4435 178.094C47.685 181.494 46.9204 184.914 45.1496 188.002C41.9502 193.555 36.0646 197.015 29.7866 197.015C29.5753 197.015 29.3741 197.015 29.1628 197.005C25.903 200.747 21.1341 203 15.8219 203H15.8119Z" stroke="#9C9C9C" stroke-miterlimit="10"/>
</g>
<g filter="url(#filter3_g_40001569_14559)">
<path d="M25.1487 187.761C22.6636 197.176 9.37309 197.397 6.57615 188.073C-1.84487 192.971 -11.3927 183.737 -6.77474 175.157C-16.1918 172.672 -16.4131 159.384 -7.08663 156.588C-11.9863 148.168 -2.75036 138.622 5.83164 143.24C8.31669 133.824 21.6072 133.603 24.4042 142.928C32.8252 138.029 42.373 147.263 37.755 155.843C47.1721 158.328 47.3934 171.616 38.0669 174.412C42.9666 182.832 33.7307 192.378 25.1487 187.761Z" fill="#FBD7D5"/>
</g>
<g filter="url(#filter4_d_40001569_14559)">
<path d="M42.2259 701.415C34.7842 704.937 26.5264 705.082 19.3039 702.229C18.7308 702.555 18.1289 702.858 17.5347 703.139C8.42937 707.448 -2.53318 706.565 -11.0753 700.846C-15.741 697.71 -19.2642 693.416 -21.3982 688.445C-29.0547 686.289 -35.6211 680.98 -39.3594 673.388C-43.1125 665.803 -43.3191 657.376 -40.395 649.994C-43.127 645.143 -44.3947 639.545 -43.931 633.763C-43.0871 623.33 -36.8153 614.109 -27.5465 609.723C-27.2346 609.575 -26.9375 609.435 -26.6186 609.302C-24.4204 601.5 -18.954 594.841 -11.1113 591.13C-3.26849 587.418 4.58828 587.463 11.8256 590.309C12.3986 589.983 13.0006 589.68 13.5948 589.399C22.7001 585.09 33.6627 585.973 42.2048 591.691C46.8705 594.827 50.3937 599.122 52.5277 604.092C60.1842 606.249 66.7506 611.557 70.4889 619.149C74.242 626.734 74.4486 635.161 71.5245 642.544C74.2565 647.395 75.5172 652.978 75.0605 658.774C74.2165 669.208 67.9448 678.428 58.676 682.815C58.3641 682.962 58.067 683.103 57.7481 683.236C55.5499 691.038 50.0835 697.696 42.2408 701.408L42.2259 701.415Z" fill="#FBFBFB"/>
<path d="M42.2259 701.415C34.7842 704.937 26.5264 705.082 19.3039 702.229C18.7308 702.555 18.1289 702.858 17.5347 703.139C8.42937 707.448 -2.53318 706.565 -11.0753 700.846C-15.741 697.71 -19.2642 693.416 -21.3982 688.445C-29.0547 686.289 -35.6211 680.98 -39.3594 673.388C-43.1125 665.803 -43.3191 657.376 -40.395 649.994C-43.127 645.143 -44.3947 639.545 -43.931 633.763C-43.0871 623.33 -36.8153 614.109 -27.5465 609.723C-27.2346 609.575 -26.9375 609.435 -26.6186 609.302C-24.4204 601.5 -18.954 594.841 -11.1113 591.13C-3.26849 587.418 4.58828 587.463 11.8256 590.309C12.3986 589.983 13.0006 589.68 13.5948 589.399C22.7001 585.09 33.6627 585.973 42.2048 591.691C46.8705 594.827 50.3937 599.122 52.5277 604.092C60.1842 606.249 66.7506 611.557 70.4889 619.149C74.242 626.734 74.4486 635.161 71.5245 642.544C74.2565 647.395 75.5172 652.978 75.0605 658.774C74.2165 669.208 67.9448 678.428 58.676 682.815C58.3641 682.962 58.067 683.103 57.7481 683.236C55.5499 691.038 50.0835 697.696 42.2408 701.408L42.2259 701.415Z" stroke="#9C9C9C" stroke-miterlimit="10"/>
</g>
<g filter="url(#filter5_g_40001569_14559)">
<path d="M45.3627 672.392C48.2722 688.029 28.805 697.641 18.1606 685.829C9.15071 698.945 -11.3973 691.983 -10.5744 676.088C-26.2134 679 -35.8243 659.536 -24.0087 648.891C-37.1249 639.885 -30.1589 619.338 -14.2627 620.159C-17.1721 604.522 2.29504 594.909 12.9394 606.722C21.9493 593.606 42.4973 600.568 41.6744 616.462C57.3134 613.551 66.9243 633.014 55.1087 643.659C68.225 652.666 61.2589 673.212 45.3627 672.392Z" fill="#FBD7D5"/>
</g>
</g>
<defs>
<filter id="filter0_d_40001569_14559" x="300.5" y="684.5" width="80" height="80" filterUnits="userSpaceOnUse" color-interpolation-filters="sRGB">
<feFlood flood-opacity="0" result="BackgroundImageFix"/>
<feColorMatrix in="SourceAlpha" type="matrix" values="0 0 0 0 0 0 0 0 0 0 0 0 0 0 0 0 0 0 127 0" result="hardAlpha"/>
<feOffset dx="-1" dy="1"/>
<feGaussianBlur stdDeviation="1"/>
<feComposite in2="hardAlpha" operator="out"/>
<feColorMatrix type="matrix" values="0 0 0 0 0 0 0 0 0 0 0 0 0 0 0 0 0 0 0.25 0"/>
<feBlend mode="normal" in2="BackgroundImageFix" result="effect1_dropShadow_40001569_14559"/>
<feBlend mode="normal" in="SourceGraphic" in2="effect1_dropShadow_40001569_14559" result="shape"/>
</filter>
<filter id="filter1_g_40001569_14559" x="311.639" y="693.655" width="59.7023" height="59.6906" filterUnits="userSpaceOnUse" color-interpolation-filters="sRGB">
<feFlood flood-opacity="0" result="BackgroundImageFix"/>
<feBlend mode="normal" in="SourceGraphic" in2="BackgroundImageFix" result="shape"/>
<feTurbulence type="fractalNoise" baseFrequency="0.66666668653488159 0.66666668653488159" numOctaves="3" seed="7043" />
<feDisplacementMap in="shape" scale="0.80000001192092896" xChannelSelector="R" yChannelSelector="G" result="displacedImage" width="100%" height="100%" />
<feMerge result="effect1_texture_40001569_14559">
<feMergeNode in="displacedImage"/>
</feMerge>
</filter>
<filter id="filter2_d_40001569_14559" x="-25.5" y="126.5" width="80" height="80" filterUnits="userSpaceOnUse" color-interpolation-filters="sRGB">
<feFlood flood-opacity="0" result="BackgroundImageFix"/>
<feColorMatrix in="SourceAlpha" type="matrix" values="0 0 0 0 0 0 0 0 0 0 0 0 0 0 0 0 0 0 127 0" result="hardAlpha"/>
<feOffset dx="-1" dy="1"/>
<feGaussianBlur stdDeviation="1"/>
<feComposite in2="hardAlpha" operator="out"/>
<feColorMatrix type="matrix" values="0 0 0 0 0 0 0 0 0 0 0 0 0 0 0 0 0 0 0.25 0"/>
<feBlend mode="normal" in2="BackgroundImageFix" result="effect1_dropShadow_40001569_14559"/>
<feBlend mode="normal" in="SourceGraphic" in2="effect1_dropShadow_40001569_14559" result="shape"/>
</filter>
<filter id="filter3_g_40001569_14559" x="-14.3609" y="135.655" width="59.7023" height="59.6906" filterUnits="userSpaceOnUse" color-interpolation-filters="sRGB">
<feFlood flood-opacity="0" result="BackgroundImageFix"/>
<feBlend mode="normal" in="SourceGraphic" in2="BackgroundImageFix" result="shape"/>
<feTurbulence type="fractalNoise" baseFrequency="0.66666668653488159 0.66666668653488159" numOctaves="3" seed="7043" />
<feDisplacementMap in="shape" scale="0.80000001192092896" xChannelSelector="R" yChannelSelector="G" result="displacedImage" width="100%" height="100%" />
<feMerge result="effect1_texture_40001569_14559">
<feMergeNode in="displacedImage"/>
</feMerge>
</filter>
<filter id="filter4_d_40001569_14559" x="-47.5244" y="585.19" width="124.177" height="124.157" filterUnits="userSpaceOnUse" color-interpolation-filters="sRGB">
<feFlood flood-opacity="0" result="BackgroundImageFix"/>
<feColorMatrix in="SourceAlpha" type="matrix" values="0 0 0 0 0 0 0 0 0 0 0 0 0 0 0 0 0 0 127 0" result="hardAlpha"/>
<feOffset dx="-1" dy="1"/>
<feGaussianBlur stdDeviation="1"/>
<feComposite in2="hardAlpha" operator="out"/>
<feColorMatrix type="matrix" values="0 0 0 0 0 0 0 0 0 0 0 0 0 0 0 0 0 0 0.25 0"/>
<feBlend mode="normal" in2="BackgroundImageFix" result="effect1_dropShadow_40001569_14559"/>
<feBlend mode="normal" in="SourceGraphic" in2="effect1_dropShadow_40001569_14559" result="shape"/>
</filter>
<filter id="filter5_g_40001569_14559" x="-31.2867" y="599.443" width="93.674" height="93.6652" filterUnits="userSpaceOnUse" color-interpolation-filters="sRGB">
<feFlood flood-opacity="0" result="BackgroundImageFix"/>
<feBlend mode="normal" in="SourceGraphic" in2="BackgroundImageFix" result="shape"/>
<feTurbulence type="fractalNoise" baseFrequency="0.66666668653488159 0.66666668653488159" numOctaves="3" seed="7043" />
<feDisplacementMap in="shape" scale="0.80000001192092896" xChannelSelector="R" yChannelSelector="G" result="displacedImage" width="100%" height="100%" />
<feMerge result="effect1_texture_40001569_14559">
<feMergeNode in="displacedImage"/>
</feMerge>
</filter>
<clipPath id="clip0_40001569_14559">
<rect width="360" height="800" fill="white"/>
</clipPath>
</defs>
</svg>