<svg width="360" height="800" viewBox="0 0 360 800" fill="none" xmlns="http://www.w3.org/2000/svg">
<g clip-path="url(#clip0_40001505_18737)">
<g filter="url(#filter0_d_40001505_18737)">
<path d="M341.812 761C336.771 761 332.163 758.918 328.914 755.447C328.511 755.478 328.099 755.488 327.696 755.488C321.529 755.488 315.694 752.128 312.464 746.726C310.703 743.769 309.878 740.47 309.999 737.16C306.327 733.961 304.083 729.304 304.003 724.124C303.912 718.943 306.005 714.226 309.556 710.906C309.315 707.506 310.08 704.076 311.85 700.998C315.05 695.445 320.935 691.985 327.213 691.985C327.425 691.985 327.626 691.985 327.837 691.995C331.097 688.253 335.866 686 341.178 686C346.49 686 350.827 688.082 354.086 691.553C354.489 691.522 354.901 691.512 355.304 691.512C361.471 691.512 367.306 694.872 370.536 700.274C372.297 703.231 373.122 706.53 373.001 709.84C376.673 713.039 378.917 717.696 378.997 722.876C379.088 728.057 376.995 732.774 373.444 736.094C373.685 739.494 372.92 742.914 371.15 746.002C367.95 751.555 362.065 755.015 355.787 755.015C355.575 755.015 355.374 755.015 355.163 755.005C351.903 758.747 347.134 761 341.822 761H341.812Z" fill="#FBFBFB"/>
<path d="M341.812 761C336.771 761 332.163 758.918 328.914 755.447C328.511 755.478 328.099 755.488 327.696 755.488C321.529 755.488 315.694 752.128 312.464 746.726C310.703 743.769 309.878 740.47 309.999 737.16C306.327 733.961 304.083 729.304 304.003 724.124C303.912 718.943 306.005 714.226 309.556 710.906C309.315 707.506 310.08 704.076 311.85 700.998C315.05 695.445 320.935 691.985 327.213 691.985C327.425 691.985 327.626 691.985 327.837 691.995C331.097 688.253 335.866 686 341.178 686C346.49 686 350.827 688.082 354.086 691.553C354.489 691.522 354.901 691.512 355.304 691.512C361.471 691.512 367.306 694.872 370.536 700.274C372.297 703.231 373.122 706.53 373.001 709.84C376.673 713.039 378.917 717.696 378.997 722.876C379.088 728.057 376.995 732.774 373.444 736.094C373.685 739.494 372.92 742.914 371.15 746.002C367.95 751.555 362.065 755.015 355.787 755.015C355.575 755.015 355.374 755.015 355.163 755.005C351.903 758.747 347.134 761 341.822 761H341.812Z" stroke="#9C9C9C" stroke-miterlimit="10"/>
</g>
<g filter="url(#filter1_g_40001505_18737)">
<path d="M351.149 745.761C348.664 755.176 335.373 755.397 332.576 746.073C324.155 750.971 314.607 741.737 319.225 733.157C309.808 730.672 309.587 717.384 318.913 714.588C314.014 706.168 323.25 696.622 331.832 701.24C334.317 691.824 347.607 691.603 350.404 700.928C358.825 696.029 368.373 705.263 363.755 713.843C373.172 716.328 373.393 729.616 364.067 732.412C368.967 740.832 359.731 750.378 351.149 745.761Z" fill="#CBCBC5"/>
<path d="M332.315 701.367C334.672 692.44 347.273 692.23 349.925 701.071L350.107 701.679L350.655 701.359C358.64 696.714 367.693 705.471 363.314 713.606L363.014 714.165L363.628 714.327C372.557 716.683 372.766 729.282 363.923 731.934L363.315 732.115L363.635 732.664C368.28 740.647 359.524 749.699 351.386 745.32L350.827 745.02L350.665 745.633C348.309 754.56 335.707 754.77 333.055 745.929L332.873 745.321L332.325 745.641C324.34 750.286 315.287 741.529 319.666 733.394L319.966 732.835L319.353 732.673C310.424 730.317 310.214 717.718 319.057 715.066L319.665 714.885L319.346 714.336C314.7 706.353 323.456 697.301 331.595 701.68L332.153 701.98L332.315 701.367Z" stroke="#CBCBC5"/>
</g>
<g filter="url(#filter2_d_40001505_18737)">
<path d="M15.8119 203C10.7714 203 6.16343 200.918 2.91375 197.447C2.51131 197.478 2.09881 197.488 1.69637 197.488C-4.471 197.488 -10.3063 194.128 -13.5359 188.726C-15.2966 185.769 -16.1216 182.47 -16.0008 179.16C-19.6731 175.961 -21.9167 171.304 -21.9972 166.124C-22.0877 160.943 -19.995 156.226 -16.4435 152.906C-16.685 149.506 -15.9204 146.076 -14.1496 142.998C-10.9502 137.445 -5.06459 133.985 1.21344 133.985C1.42472 133.985 1.62594 133.985 1.83722 133.995C5.09697 130.253 9.86586 128 15.178 128C20.4902 128 24.8265 130.082 28.0863 133.553C28.4887 133.522 28.9012 133.512 29.3036 133.512C35.471 133.512 41.3063 136.872 44.5359 142.274C46.2966 145.231 47.1216 148.53 47.0008 151.84C50.6731 155.039 52.9167 159.696 52.9972 164.876C53.0877 170.057 50.995 174.774 47.4435 178.094C47.685 181.494 46.9204 184.914 45.1496 188.002C41.9502 193.555 36.0646 197.015 29.7866 197.015C29.5753 197.015 29.3741 197.015 29.1628 197.005C25.903 200.747 21.1341 203 15.8219 203H15.8119Z" fill="#FBFBFB"/>
<path d="M15.8119 203C10.7714 203 6.16343 200.918 2.91375 197.447C2.51131 197.478 2.09881 197.488 1.69637 197.488C-4.471 197.488 -10.3063 194.128 -13.5359 188.726C-15.2966 185.769 -16.1216 182.47 -16.0008 179.16C-19.6731 175.961 -21.9167 171.304 -21.9972 166.124C-22.0877 160.943 -19.995 156.226 -16.4435 152.906C-16.685 149.506 -15.9204 146.076 -14.1496 142.998C-10.9502 137.445 -5.06459 133.985 1.21344 133.985C1.42472 133.985 1.62594 133.985 1.83722 133.995C5.09697 130.253 9.86586 128 15.178 128C20.4902 128 24.8265 130.082 28.0863 133.553C28.4887 133.522 28.9012 133.512 29.3036 133.512C35.471 133.512 41.3063 136.872 44.5359 142.274C46.2966 145.231 47.1216 148.53 47.0008 151.84C50.6731 155.039 52.9167 159.696 52.9972 164.876C53.0877 170.057 50.995 174.774 47.4435 178.094C47.685 181.494 46.9204 184.914 45.1496 188.002C41.9502 193.555 36.0646 197.015 29.7866 197.015C29.5753 197.015 29.3741 197.015 29.1628 197.005C25.903 200.747 21.1341 203 15.8219 203H15.8119Z" stroke="#9C9C9C" stroke-miterlimit="10"/>
</g>
<g filter="url(#filter3_g_40001505_18737)">
<path d="M25.1487 187.761C22.6636 197.176 9.37309 197.397 6.57615 188.073C-1.84487 192.971 -11.3927 183.737 -6.77474 175.157C-16.1918 172.672 -16.4131 159.384 -7.08663 156.588C-11.9863 148.168 -2.75036 138.622 5.83164 143.24C8.31669 133.824 21.6072 133.603 24.4042 142.928C32.8252 138.029 42.373 147.263 37.755 155.843C47.1721 158.328 47.3934 171.616 38.0669 174.412C42.9666 182.832 33.7307 192.378 25.1487 187.761Z" fill="#CBCBC5"/>
<path d="M6.31543 143.367C8.6717 134.44 21.2728 134.23 23.9248 143.071L24.1074 143.679L24.6553 143.359C32.6403 138.714 41.6933 147.471 37.3145 155.606L37.0137 156.165L37.6279 156.327C46.5566 158.683 46.7655 171.282 37.9229 173.934L37.3154 174.115L37.6348 174.664C42.2801 182.647 33.524 191.699 25.3857 187.32L24.8271 187.02L24.665 187.633C22.3088 196.56 9.70658 196.77 7.05469 187.929L6.87305 187.321L6.3252 187.641C-1.65981 192.286 -10.7128 183.529 -6.33398 175.394L-6.03418 174.835L-6.64746 174.673C-15.5761 172.317 -15.7859 159.718 -6.94336 157.066L-6.33496 156.885L-6.6543 156.336C-11.2995 148.353 -2.54351 139.301 5.59473 143.68L6.15332 143.98L6.31543 143.367Z" stroke="#CBCBC5"/>
</g>
<g filter="url(#filter4_d_40001505_18737)">
<path d="M49.8763 707.375C41.9085 711.145 33.067 711.301 25.334 708.246C24.7204 708.595 24.0759 708.92 23.4397 709.221C13.6907 713.834 1.95324 712.889 -7.19272 706.766C-12.1882 703.408 -15.9605 698.81 -18.2453 693.488C-26.4431 691.179 -33.4736 685.496 -37.4762 677.367C-41.4947 669.246 -41.7158 660.223 -38.585 652.319C-41.5101 647.125 -42.8674 641.131 -42.371 634.941C-41.4674 623.77 -34.7522 613.897 -24.8283 609.201C-24.4943 609.043 -24.1763 608.892 -23.8347 608.75C-21.4812 600.397 -15.6284 593.267 -7.23123 589.294C1.16594 585.32 9.57811 585.367 17.327 588.414C17.9406 588.066 18.5851 587.741 19.2213 587.44C28.9702 582.826 40.7077 583.772 49.8537 589.895C54.8492 593.252 58.6214 597.851 60.9063 603.172C69.1041 605.482 76.1346 611.165 80.1372 619.294C84.1556 627.415 84.3768 636.438 81.246 644.342C84.1711 649.536 85.5209 655.514 85.032 661.72C84.1283 672.891 77.4132 682.763 67.4893 687.46C67.1553 687.618 66.8372 687.768 66.4957 687.91C64.1422 696.264 58.2894 703.393 49.8922 707.367L49.8763 707.375Z" fill="#FBFBFB"/>
<path d="M49.8763 707.375C41.9085 711.145 33.067 711.301 25.334 708.246C24.7204 708.595 24.0759 708.92 23.4397 709.221C13.6907 713.834 1.95324 712.889 -7.19272 706.766C-12.1882 703.408 -15.9605 698.81 -18.2453 693.488C-26.4431 691.179 -33.4736 685.496 -37.4762 677.367C-41.4947 669.246 -41.7158 660.223 -38.585 652.319C-41.5101 647.125 -42.8674 641.131 -42.371 634.941C-41.4674 623.77 -34.7522 613.897 -24.8283 609.201C-24.4943 609.043 -24.1763 608.892 -23.8347 608.75C-21.4812 600.397 -15.6284 593.267 -7.23123 589.294C1.16594 585.32 9.57811 585.367 17.327 588.414C17.9406 588.066 18.5851 587.741 19.2213 587.44C28.9702 582.826 40.7077 583.772 49.8537 589.895C54.8492 593.252 58.6214 597.851 60.9063 603.172C69.1041 605.482 76.1346 611.165 80.1372 619.294C84.1556 627.415 84.3768 636.438 81.246 644.342C84.1711 649.536 85.5209 655.514 85.032 661.72C84.1283 672.891 77.4132 682.763 67.4893 687.46C67.1553 687.618 66.8372 687.768 66.4957 687.91C64.1422 696.264 58.2894 703.393 49.8922 707.367L49.8763 707.375Z" stroke="#9C9C9C" stroke-miterlimit="10"/>
</g>
<g filter="url(#filter5_g_40001505_18737)">
<path d="M53.2349 676.301C56.35 693.043 35.5067 703.335 24.1099 690.688C14.4631 704.731 -7.53741 697.276 -6.65633 680.259C-23.4009 683.376 -33.6911 662.537 -21.0403 651.139C-35.0837 641.496 -27.6252 619.497 -10.6054 620.375C-13.7205 603.633 7.12279 593.341 18.5196 605.989C28.1664 591.945 50.1669 599.4 49.2858 616.418C66.0304 613.3 76.3206 634.14 63.6698 645.537C77.7132 655.181 70.2547 677.179 53.2349 676.301Z" fill="#CBCBC5"/>
<path d="M-10.1142 620.284C-13.1369 604.038 7.08902 594.051 18.1479 606.323L18.5728 606.794L18.9318 606.272C28.293 592.645 49.6412 599.878 48.7863 616.392L48.7542 617.025L49.3775 616.909C65.6257 613.884 75.6107 634.106 63.3354 645.165L62.8645 645.59L63.3866 645.949C77.0135 655.307 69.7767 676.654 53.2601 675.801L52.6278 675.769L52.7436 676.393C55.7661 692.638 35.5404 702.625 24.4815 690.353L24.0566 689.882L23.6976 690.404C14.3364 704.032 -7.01182 696.798 -6.15683 680.284L-6.1239 679.651L-6.74759 679.766C-22.9959 682.791 -32.9811 662.57 -20.706 651.511L-20.2342 651.086L-20.7572 650.727C-34.3841 641.37 -27.1477 620.022 -10.6311 620.874L-9.99749 620.907L-10.1142 620.284Z" stroke="#CBCBC5"/>
</g>
</g>
<defs>
<filter id="filter0_d_40001505_18737" x="300.5" y="684.5" width="80" height="80" filterUnits="userSpaceOnUse" color-interpolation-filters="sRGB">
<feFlood flood-opacity="0" result="BackgroundImageFix"/>
<feColorMatrix in="SourceAlpha" type="matrix" values="0 0 0 0 0 0 0 0 0 0 0 0 0 0 0 0 0 0 127 0" result="hardAlpha"/>
<feOffset dx="-1" dy="1"/>
<feGaussianBlur stdDeviation="1"/>
<feComposite in2="hardAlpha" operator="out"/>
<feColorMatrix type="matrix" values="0 0 0 0 0 0 0 0 0 0 0 0 0 0 0 0 0 0 0.25 0"/>
<feBlend mode="normal" in2="BackgroundImageFix" result="effect1_dropShadow_40001505_18737"/>
<feBlend mode="normal" in="SourceGraphic" in2="effect1_dropShadow_40001505_18737" result="shape"/>
</filter>
<filter id="filter1_g_40001505_18737" x="311.639" y="693.655" width="59.7023" height="59.6906" filterUnits="userSpaceOnUse" color-interpolation-filters="sRGB">
<feFlood flood-opacity="0" result="BackgroundImageFix"/>
<feBlend mode="normal" in="SourceGraphic" in2="BackgroundImageFix" result="shape"/>
<feTurbulence type="fractalNoise" baseFrequency="0.66666668653488159 0.66666668653488159" numOctaves="3" seed="7043" />
<feDisplacementMap in="shape" scale="0.80000001192092896" xChannelSelector="R" yChannelSelector="G" result="displacedImage" width="100%" height="100%" />
<feMerge result="effect1_texture_40001505_18737">
<feMergeNode in="displacedImage"/>
</feMerge>
</filter>
<filter id="filter2_d_40001505_18737" x="-25.5" y="126.5" width="80" height="80" filterUnits="userSpaceOnUse" color-interpolation-filters="sRGB">
<feFlood flood-opacity="0" result="BackgroundImageFix"/>
<feColorMatrix in="SourceAlpha" type="matrix" values="0 0 0 0 0 0 0 0 0 0 0 0 0 0 0 0 0 0 127 0" result="hardAlpha"/>
<feOffset dx="-1" dy="1"/>
<feGaussianBlur stdDeviation="1"/>
<feComposite in2="hardAlpha" operator="out"/>
<feColorMatrix type="matrix" values="0 0 0 0 0 0 0 0 0 0 0 0 0 0 0 0 0 0 0.25 0"/>
<feBlend mode="normal" in2="BackgroundImageFix" result="effect1_dropShadow_40001505_18737"/>
<feBlend mode="normal" in="SourceGraphic" in2="effect1_dropShadow_40001505_18737" result="shape"/>
</filter>
<filter id="filter3_g_40001505_18737" x="-14.3609" y="135.655" width="59.7023" height="59.6906" filterUnits="userSpaceOnUse" color-interpolation-filters="sRGB">
<feFlood flood-opacity="0" result="BackgroundImageFix"/>
<feBlend mode="normal" in="SourceGraphic" in2="BackgroundImageFix" result="shape"/>
<feTurbulence type="fractalNoise" baseFrequency="0.66666668653488159 0.66666668653488159" numOctaves="3" seed="7043" />
<feDisplacementMap in="shape" scale="0.80000001192092896" xChannelSelector="R" yChannelSelector="G" result="displacedImage" width="100%" height="100%" />
<feMerge result="effect1_texture_40001505_18737">
<feMergeNode in="displacedImage"/>
</feMerge>
</filter>
<filter id="filter4_d_40001505_18737" x="-45.9712" y="583.04" width="132.601" height="132.58" filterUnits="userSpaceOnUse" color-interpolation-filters="sRGB">
<feFlood flood-opacity="0" result="BackgroundImageFix"/>
<feColorMatrix in="SourceAlpha" type="matrix" values="0 0 0 0 0 0 0 0 0 0 0 0 0 0 0 0 0 0 127 0" result="hardAlpha"/>
<feOffset dx="-1" dy="1"/>
<feGaussianBlur stdDeviation="1"/>
<feComposite in2="hardAlpha" operator="out"/>
<feColorMatrix type="matrix" values="0 0 0 0 0 0 0 0 0 0 0 0 0 0 0 0 0 0 0.25 0"/>
<feBlend mode="normal" in2="BackgroundImageFix" result="effect1_dropShadow_40001505_18737"/>
<feBlend mode="normal" in="SourceGraphic" in2="effect1_dropShadow_40001505_18737" result="shape"/>
</filter>
<filter id="filter5_g_40001505_18737" x="-28.8048" y="598.223" width="100.239" height="100.231" filterUnits="userSpaceOnUse" color-interpolation-filters="sRGB">
<feFlood flood-opacity="0" result="BackgroundImageFix"/>
<feBlend mode="normal" in="SourceGraphic" in2="BackgroundImageFix" result="shape"/>
<feTurbulence type="fractalNoise" baseFrequency="0.66666668653488159 0.66666668653488159" numOctaves="3" seed="7043" />
<feDisplacementMap in="shape" scale="0.80000001192092896" xChannelSelector="R" yChannelSelector="G" result="displacedImage" width="100%" height="100%" />
<feMerge result="effect1_texture_40001505_18737">
<feMergeNode in="displacedImage"/>
</feMerge>
</filter>
<clipPath id="clip0_40001505_18737">
<rect width="360" height="800" fill="white"/>
</clipPath>
</defs>
</svg>