<svg width="360" height="800" viewBox="0 0 360 800" fill="none" xmlns="http://www.w3.org/2000/svg">
<g clip-path="url(#clip0_40001505_17881)">
<g filter="url(#filter0_d_40001505_17881)">
<path d="M352.698 696.004C354.953 691.75 361.047 691.75 363.302 696.004L372.775 713.88C373.664 715.557 375.293 716.714 377.169 717.001L397.373 720.096C402.283 720.848 404.205 726.898 400.63 730.346L386.457 744.011C385.039 745.379 384.382 747.356 384.701 749.3L387.861 768.597C388.649 773.406 383.677 777.099 379.301 774.955L360.64 765.813C358.974 764.997 357.026 764.997 355.36 765.813L336.699 774.955C332.323 777.099 327.351 773.406 328.139 768.597L331.299 749.3C331.618 747.356 330.961 745.379 329.543 744.011L315.37 730.346C311.795 726.898 313.717 720.848 318.627 720.096L338.831 717.001C340.707 716.714 342.336 715.557 343.225 713.88L352.698 696.004Z" fill="white"/>
<path d="M353.141 696.237C355.207 692.339 360.793 692.339 362.859 696.237L372.334 714.114C373.297 715.93 375.061 717.185 377.093 717.496L397.298 720.59C401.798 721.279 403.561 726.826 400.283 729.986L386.11 743.651C384.574 745.133 383.862 747.274 384.207 749.381L387.368 768.678C388.09 773.086 383.532 776.471 379.521 774.506L360.859 765.364C359.055 764.481 356.945 764.481 355.141 765.364L336.479 774.506C332.468 776.471 327.91 773.086 328.632 768.678L331.793 749.381C332.138 747.274 331.426 745.133 329.89 743.651L315.717 729.986C312.439 726.826 314.202 721.279 318.702 720.59L338.907 717.496C340.939 717.185 342.703 715.93 343.666 714.114L353.141 696.237Z" stroke="#9C9C9C"/>
</g>
<g filter="url(#filter1_g_40001505_17881)">
<path d="M354.731 705.64C355.757 703.179 359.243 703.179 360.269 705.64L367.258 722.4C367.697 723.452 368.694 724.164 369.831 724.239L388.331 725.446C391.06 725.625 392.147 729.063 390.016 730.777L375.961 742.086C375.04 742.826 374.64 744.038 374.939 745.181L379.438 762.404C380.119 765.01 377.288 767.123 374.983 765.73L359.052 756.098C358.098 755.521 356.902 755.521 355.948 756.098L340.017 765.73C337.712 767.123 334.881 765.01 335.562 762.404L340.061 745.181C340.36 744.038 339.96 742.826 339.039 742.086L324.984 730.777C322.853 729.063 323.94 725.625 326.669 725.446L345.169 724.239C346.306 724.164 347.303 723.452 347.742 722.4L354.731 705.64Z" fill="#FEE888"/>
</g>
<g filter="url(#filter2_d_40001505_17881)">
<path d="M26.6985 138.004C28.9529 133.75 35.0471 133.75 37.3015 138.004L46.7754 155.88C47.6639 157.557 49.2931 158.714 51.1686 159.001L71.3735 162.096C76.2831 162.848 78.2053 168.898 74.6298 172.346L60.4572 186.011C59.0387 187.379 58.3822 189.356 58.7007 191.3L61.8613 210.597C62.6491 215.406 57.6774 219.099 53.3007 216.955L34.6396 207.813C32.9744 206.997 31.0256 206.997 29.3604 207.813L10.6993 216.955C6.32257 219.099 1.35089 215.406 2.13867 210.597L5.2993 191.3C5.6178 189.356 4.96127 187.379 3.54283 186.011L-10.6298 172.346C-14.2053 168.898 -12.2831 162.848 -7.3735 162.096L12.8314 159.001C14.7069 158.714 16.3361 157.557 17.2246 155.88L26.6985 138.004Z" fill="white"/>
<path d="M27.1406 138.237C29.2073 134.339 34.7927 134.339 36.8594 138.237L46.334 156.114C47.2965 157.93 49.061 159.185 51.0928 159.496L71.2979 162.59C75.7983 163.279 77.5607 168.826 74.2832 171.986L60.1104 185.651C58.5738 187.133 57.8621 189.274 58.207 191.381L61.3682 210.678C62.09 215.086 57.5324 218.471 53.5205 216.506L34.8594 207.364C33.0555 206.481 30.9445 206.481 29.1406 207.364L10.4795 216.506C6.46756 218.471 1.90995 215.086 2.63184 210.678L5.79297 191.381C6.13791 189.274 5.42624 187.133 3.88965 185.651L-10.2832 171.986C-13.5607 168.826 -11.7983 163.279 -7.29785 162.59L12.9072 159.496C14.939 159.185 16.7035 157.93 17.666 156.114L27.1406 138.237Z" stroke="#9C9C9C"/>
</g>
<g filter="url(#filter3_g_40001505_17881)">
<path d="M28.7311 147.64C29.7572 145.179 33.2428 145.179 34.2689 147.64L41.258 164.4C41.6968 165.452 42.6939 166.164 43.8314 166.239L62.3305 167.446C65.0596 167.625 66.1465 171.063 64.0157 172.777L49.9606 184.086C49.0401 184.826 48.64 186.038 48.9386 187.181L53.438 204.404C54.1187 207.01 51.2878 209.123 48.9833 207.73L33.0521 198.098C32.0978 197.521 30.9022 197.521 29.9479 198.098L14.0166 207.73C11.7122 209.123 8.88132 207.01 9.56199 204.404L14.0614 187.181C14.36 186.038 13.9599 184.826 13.0394 184.086L-1.01566 172.777C-3.14651 171.063 -2.05963 167.625 0.669455 167.446L19.1686 166.239C20.3061 166.164 21.3032 165.452 21.742 164.4L28.7311 147.64Z" fill="#FEE888"/>
</g>
<g filter="url(#filter4_d_40001505_17881)">
<path d="M13.0178 590.74C13.2412 585.937 18.7402 583.335 22.5958 586.207L56.2029 611.243C57.7232 612.376 59.6894 612.723 61.5058 612.18L102.526 599.919C107.289 598.495 111.618 603.15 109.853 607.798L95.0859 646.672C94.3848 648.518 94.6366 650.59 95.7592 652.214L119.08 685.952C121.85 689.96 118.942 695.424 114.07 695.363L71.0533 694.831C69.204 694.808 67.4474 695.639 66.2925 697.084L39.43 730.686C36.3879 734.492 30.3185 733.277 28.9758 728.593L17.6728 689.168C17.1286 687.27 15.6856 685.762 13.8138 685.134L-25.6105 671.905C-30.3242 670.323 -31.1793 664.024 -27.0577 661.243L8.4325 637.297C10.0041 636.237 10.982 634.496 11.0701 632.602L13.0178 590.74Z" fill="white"/>
<path d="M13.5173 590.762C13.7225 586.36 18.7625 583.975 22.2967 586.608L55.9045 611.645C57.5515 612.871 59.682 613.248 61.6496 612.66L102.669 600.398C107.035 599.092 111.004 603.36 109.385 607.62L94.6184 646.494C93.8589 648.494 94.1317 650.739 95.3478 652.498L118.669 686.237C121.208 689.911 118.542 694.919 114.076 694.863L71.0593 694.331C69.056 694.307 67.1536 695.207 65.9026 696.772L39.0393 730.374C36.2508 733.862 30.6879 732.748 29.4569 728.456L18.1533 689.03C17.5638 686.974 16.0003 685.34 13.9726 684.659L-25.4516 671.431C-29.7722 669.981 -30.5561 664.207 -26.7783 661.658L8.71191 637.712C10.4143 636.563 11.4741 634.677 11.5696 632.626L13.5173 590.762Z" stroke="#9C9C9C"/>
</g>
<g filter="url(#filter5_g_40001505_17881)">
<path d="M22.1716 606.071C22.0494 603.411 25.1955 601.922 27.1751 603.704L53.3483 627.253C54.195 628.015 55.4002 628.232 56.4593 627.812L90.1322 614.48C92.6772 613.472 95.1316 616.12 93.9345 618.581L78.4532 650.414C77.9355 651.479 78.0921 652.748 78.8531 653.655L101.204 680.285C102.934 682.347 101.283 685.469 98.6048 685.198L62.6793 681.576C61.5725 681.464 60.4948 681.974 59.8793 682.901L39.9022 712.979C38.4128 715.222 34.9521 714.519 34.4548 711.873L28.0329 677.705C27.8143 676.542 26.9319 675.616 25.7805 675.341L-8.65159 667.13C-11.3141 666.495 -11.8052 662.918 -9.41241 661.589L22.2475 644.003C23.2433 643.45 23.8399 642.38 23.7876 641.242L22.1716 606.071Z" fill="#FEE888"/>
</g>
</g>
<defs>
<filter id="filter0_d_40001505_17881" x="310.528" y="691.813" width="92.9434" height="86.7646" filterUnits="userSpaceOnUse" color-interpolation-filters="sRGB">
<feFlood flood-opacity="0" result="BackgroundImageFix"/>
<feColorMatrix in="SourceAlpha" type="matrix" values="0 0 0 0 0 0 0 0 0 0 0 0 0 0 0 0 0 0 127 0" result="hardAlpha"/>
<feOffset dx="-1" dy="1"/>
<feGaussianBlur stdDeviation="1"/>
<feComposite in2="hardAlpha" operator="out"/>
<feColorMatrix type="matrix" values="0 0 0 0 0 0 0 0 0 0 0 0 0 0 0 0 0 0 0.25 0"/>
<feBlend mode="normal" in2="BackgroundImageFix" result="effect1_dropShadow_40001505_17881"/>
<feBlend mode="normal" in="SourceGraphic" in2="effect1_dropShadow_40001505_17881" result="shape"/>
</filter>
<filter id="filter1_g_40001505_17881" x="323.46" y="703.394" width="68.0793" height="63.1779" filterUnits="userSpaceOnUse" color-interpolation-filters="sRGB">
<feFlood flood-opacity="0" result="BackgroundImageFix"/>
<feBlend mode="normal" in="SourceGraphic" in2="BackgroundImageFix" result="shape"/>
<feTurbulence type="fractalNoise" baseFrequency="0.66666668653488159 0.66666668653488159" numOctaves="3" seed="7043" />
<feDisplacementMap in="shape" scale="0.80000001192092896" xChannelSelector="R" yChannelSelector="G" result="displacedImage" width="100%" height="100%" />
<feMerge result="effect1_texture_40001505_17881">
<feMergeNode in="displacedImage"/>
</feMerge>
</filter>
<filter id="filter2_d_40001505_17881" x="-15.4717" y="133.813" width="92.9434" height="86.7646" filterUnits="userSpaceOnUse" color-interpolation-filters="sRGB">
<feFlood flood-opacity="0" result="BackgroundImageFix"/>
<feColorMatrix in="SourceAlpha" type="matrix" values="0 0 0 0 0 0 0 0 0 0 0 0 0 0 0 0 0 0 127 0" result="hardAlpha"/>
<feOffset dx="-1" dy="1"/>
<feGaussianBlur stdDeviation="1"/>
<feComposite in2="hardAlpha" operator="out"/>
<feColorMatrix type="matrix" values="0 0 0 0 0 0 0 0 0 0 0 0 0 0 0 0 0 0 0.25 0"/>
<feBlend mode="normal" in2="BackgroundImageFix" result="effect1_dropShadow_40001505_17881"/>
<feBlend mode="normal" in="SourceGraphic" in2="effect1_dropShadow_40001505_17881" result="shape"/>
</filter>
<filter id="filter3_g_40001505_17881" x="-2.53965" y="145.394" width="68.0793" height="63.1779" filterUnits="userSpaceOnUse" color-interpolation-filters="sRGB">
<feFlood flood-opacity="0" result="BackgroundImageFix"/>
<feBlend mode="normal" in="SourceGraphic" in2="BackgroundImageFix" result="shape"/>
<feTurbulence type="fractalNoise" baseFrequency="0.66666668653488159 0.66666668653488159" numOctaves="3" seed="7043" />
<feDisplacementMap in="shape" scale="0.80000001192092896" xChannelSelector="R" yChannelSelector="G" result="displacedImage" width="100%" height="100%" />
<feMerge result="effect1_texture_40001505_17881">
<feMergeNode in="displacedImage"/>
</feMerge>
</filter>
<filter id="filter4_d_40001505_17881" x="-32.7031" y="584.01" width="153.858" height="151.933" filterUnits="userSpaceOnUse" color-interpolation-filters="sRGB">
<feFlood flood-opacity="0" result="BackgroundImageFix"/>
<feColorMatrix in="SourceAlpha" type="matrix" values="0 0 0 0 0 0 0 0 0 0 0 0 0 0 0 0 0 0 127 0" result="hardAlpha"/>
<feOffset dx="-1" dy="1"/>
<feGaussianBlur stdDeviation="1"/>
<feComposite in2="hardAlpha" operator="out"/>
<feColorMatrix type="matrix" values="0 0 0 0 0 0 0 0 0 0 0 0 0 0 0 0 0 0 0.25 0"/>
<feBlend mode="normal" in2="BackgroundImageFix" result="effect1_dropShadow_40001505_17881"/>
<feBlend mode="normal" in="SourceGraphic" in2="effect1_dropShadow_40001505_17881" result="shape"/>
</filter>
<filter id="filter5_g_40001505_17881" x="-11.3565" y="602.527" width="113.671" height="112.195" filterUnits="userSpaceOnUse" color-interpolation-filters="sRGB">
<feFlood flood-opacity="0" result="BackgroundImageFix"/>
<feBlend mode="normal" in="SourceGraphic" in2="BackgroundImageFix" result="shape"/>
<feTurbulence type="fractalNoise" baseFrequency="0.66666668653488159 0.66666668653488159" numOctaves="3" seed="7043" />
<feDisplacementMap in="shape" scale="0.80000001192092896" xChannelSelector="R" yChannelSelector="G" result="displacedImage" width="100%" height="100%" />
<feMerge result="effect1_texture_40001505_17881">
<feMergeNode in="displacedImage"/>
</feMerge>
</filter>
<clipPath id="clip0_40001505_17881">
<rect width="360" height="800" fill="white"/>
</clipPath>
</defs>
</svg>