<svg width="90" height="117" viewBox="0 0 90 117" fill="none" xmlns="http://www.w3.org/2000/svg">
<g clip-path="url(#clip0_40000879_11291)">
<g filter="url(#filter0_f_40000879_11291)">
<ellipse cx="44.7363" cy="106.846" rx="13.7363" ry="3.84615" fill="#9C9C9C"/>
</g>
<path d="M44.7451 2C49.7752 2.00003 54.2873 3.86135 57.0469 7.02246C57.9739 6.8108 58.9448 6.70118 59.9521 6.70117C66.8658 6.70117 74.232 12.053 76.3711 18.6309C76.6923 19.609 76.8894 20.5872 76.9697 21.5508C82.1094 23.7921 86.4902 29.6479 86.4902 37.4961C86.4902 40.2775 85.8327 42.796 84.5625 44.8984C85.8255 47.001 86.4902 49.5202 86.4902 52.3018C86.4901 60.1497 82.1093 66.0048 76.9697 68.2461C76.8894 69.2097 76.6923 70.1878 76.3711 71.166C75.3076 74.4363 72.9515 77.4025 70.002 79.5596C72.7924 80.0947 74.9012 82.5478 74.9014 85.4941V94.1689C74.9014 97.5068 72.1953 100.213 68.8574 100.213H51.0166L47.1768 106.321H47.1895L46.6572 107.164C45.7207 108.648 43.4635 108.698 42.4482 107.303L42.3545 107.163L37.9854 100.213H21.4941C18.1563 100.213 15.4502 97.5068 15.4502 94.1689V85.4941C15.4504 82.7778 17.2425 80.4793 19.709 79.7178C16.6565 77.5487 14.209 74.5174 13.1191 71.166C12.7979 70.1878 12.5998 69.2097 12.5195 68.2461C7.38013 66.0047 3.00016 60.1496 3 52.3018C3 49.5202 3.65742 47.001 4.92773 44.8984C3.66479 42.796 3.00007 40.2775 3 37.4961C3 29.6481 7.38001 23.7922 12.5195 21.5508C12.5999 20.5872 12.7979 19.6091 13.1191 18.6309C15.2583 12.053 22.6244 6.70117 29.5381 6.70117C30.5454 6.70119 31.5163 6.81079 32.4434 7.02246C35.203 3.86139 39.7151 2 44.7451 2Z" fill="#FEE888"/>
<path d="M44.7451 2L44.7451 1.5H44.7451V2ZM57.0469 7.02246L56.6702 7.35128L56.8668 7.57645L57.1582 7.50992L57.0469 7.02246ZM59.9521 6.70117V6.20117H59.9521L59.9521 6.70117ZM76.3711 18.6309L75.8956 18.7855L75.896 18.7868L76.3711 18.6309ZM76.9697 21.5508L76.4715 21.5923L76.4963 21.8898L76.7699 22.0091L76.9697 21.5508ZM86.4902 37.4961L86.9902 37.4961V37.4961H86.4902ZM84.5625 44.8984L84.1345 44.6399L83.9788 44.8977L84.1339 45.1559L84.5625 44.8984ZM86.4902 52.3018L86.9902 52.3018V52.3018H86.4902ZM76.9697 68.2461L76.7699 67.7878L76.4962 67.9071L76.4715 68.2046L76.9697 68.2461ZM76.3711 71.166L75.896 71.01L75.8956 71.0114L76.3711 71.166ZM70.002 79.5596L69.7068 79.156L68.7794 79.8342L69.9078 80.0506L70.002 79.5596ZM74.9014 85.4941H75.4014V85.4941L74.9014 85.4941ZM68.8574 100.213V100.713H68.8574L68.8574 100.213ZM51.0166 100.213V99.7129H50.7403L50.5933 99.9468L51.0166 100.213ZM47.1768 106.321L46.7534 106.055L46.2719 106.821H47.1768V106.321ZM47.1895 106.321L47.6122 106.588L48.0966 105.821H47.1895V106.321ZM46.6572 107.164L46.2345 106.897L46.2344 106.897L46.6572 107.164ZM42.4482 107.303L42.0331 107.581L42.0384 107.589L42.044 107.597L42.4482 107.303ZM42.3545 107.163L41.9312 107.429L41.9352 107.436L41.9394 107.442L42.3545 107.163ZM37.9854 100.213L38.4087 99.9468L38.2616 99.7129H37.9854V100.213ZM21.4941 100.213L21.4941 100.713H21.4941V100.213ZM15.4502 85.4941L14.9502 85.4941V85.4941H15.4502ZM19.709 79.7178L19.8565 80.1955L20.8241 79.8968L19.9986 79.3102L19.709 79.7178ZM13.1191 71.166L13.5946 71.0114L13.5942 71.01L13.1191 71.166ZM12.5195 68.2461L13.0178 68.2046L12.993 67.9071L12.7194 67.7878L12.5195 68.2461ZM3 52.3018H2.5V52.3018L3 52.3018ZM4.92773 44.8984L5.35569 45.157L5.51145 44.8992L5.35635 44.641L4.92773 44.8984ZM3 37.4961H2.5V37.4961L3 37.4961ZM12.5195 21.5508L12.7194 22.0091L12.993 21.8898L13.0178 21.5923L12.5195 21.5508ZM13.1191 18.6309L13.5942 18.7868L13.5946 18.7855L13.1191 18.6309ZM29.5381 6.70117L29.5381 6.20117H29.5381V6.70117ZM32.4434 7.02246L32.3321 7.50992L32.6234 7.57645L32.82 7.35129L32.4434 7.02246ZM44.7451 2L44.7451 2.5C49.6597 2.50003 54.0231 4.319 56.6702 7.35128L57.0469 7.02246L57.4235 6.69364C54.5515 3.4037 49.8906 1.50003 44.7451 1.5L44.7451 2ZM57.0469 7.02246L57.1582 7.50992C58.0477 7.30682 58.9812 7.20118 59.9522 7.20117L59.9521 6.70117L59.9521 6.20117C58.9084 6.20118 57.9001 6.31478 56.9356 6.535L57.0469 7.02246ZM59.9521 6.70117V7.20117C63.2845 7.20117 66.7538 8.49359 69.6582 10.6038C72.5626 12.7141 74.8645 15.6149 75.8956 18.7855L76.3711 18.6309L76.8466 18.4762C75.7386 15.069 73.2879 12.005 70.246 9.79482C67.2041 7.58468 63.5335 6.20117 59.9521 6.20117V6.70117ZM76.3711 18.6309L75.896 18.7868C76.2053 19.7286 76.3944 20.6684 76.4715 21.5923L76.9697 21.5508L77.468 21.5092C77.3844 20.506 77.1793 19.4894 76.8461 18.4749L76.3711 18.6309ZM76.9697 21.5508L76.7699 22.0091C81.7184 24.1671 85.9902 29.837 85.9902 37.4961H86.4902H86.9902C86.9902 29.4588 82.5003 23.4171 77.1696 21.0925L76.9697 21.5508ZM86.4902 37.4961L85.9902 37.4961C85.9902 40.1983 85.3518 42.6251 84.1345 44.6399L84.5625 44.8984L84.9905 45.157C86.3137 42.9668 86.9902 40.3566 86.9902 37.4961L86.4902 37.4961ZM84.5625 44.8984L84.1339 45.1559C85.345 47.1721 85.9902 49.6003 85.9902 52.3018H86.4902H86.9902C86.9902 49.4401 86.306 46.8299 84.9911 44.641L84.5625 44.8984ZM86.4902 52.3018L85.9902 52.3017C85.9901 59.9606 81.7184 65.6298 76.7699 67.7878L76.9697 68.2461L77.1696 68.7044C82.5002 66.3798 86.9901 60.3388 86.9902 52.3018L86.4902 52.3018ZM76.9697 68.2461L76.4715 68.2046C76.3944 69.1285 76.2053 70.0682 75.896 71.01L76.3711 71.166L76.8461 71.322C77.1793 70.3074 77.3844 69.2909 77.468 68.2876L76.9697 68.2461ZM76.3711 71.166L75.8956 71.0114C74.8704 74.1639 72.5882 77.0488 69.7068 79.156L70.002 79.5596L70.2971 79.9632C73.3149 77.7562 75.7448 74.7087 76.8466 71.3206L76.3711 71.166ZM70.002 79.5596L69.9078 80.0506C72.4672 80.5415 74.4012 82.7923 74.4014 85.4942L74.9014 85.4941L75.4014 85.4941C75.4012 82.3033 73.1175 79.6479 70.0961 79.0685L70.002 79.5596ZM74.9014 85.4941H74.4014V94.1689H74.9014H75.4014V85.4941H74.9014ZM74.9014 94.1689H74.4014C74.4014 97.2307 71.9192 99.7128 68.8574 99.7129L68.8574 100.213L68.8574 100.713C72.4714 100.713 75.4014 97.783 75.4014 94.1689H74.9014ZM68.8574 100.213V99.7129H51.0166V100.213V100.713H68.8574V100.213ZM51.0166 100.213L50.5933 99.9468L46.7534 106.055L47.1768 106.321L47.6001 106.587L51.4399 100.479L51.0166 100.213ZM47.1768 106.321V106.821H47.1895V106.321V105.821H47.1768V106.321ZM47.1895 106.321L46.7667 106.054L46.2345 106.897L46.6572 107.164L47.08 107.431L47.6122 106.588L47.1895 106.321ZM46.6572 107.164L46.2344 106.897C45.489 108.078 43.6626 108.122 42.8525 107.009L42.4482 107.303L42.044 107.597C43.2645 109.274 45.9525 109.218 47.0801 107.431L46.6572 107.164ZM42.4482 107.303L42.8634 107.024L42.7696 106.884L42.3545 107.163L41.9394 107.442L42.0331 107.581L42.4482 107.303ZM42.3545 107.163L42.7778 106.897L38.4087 99.9468L37.9854 100.213L37.562 100.479L41.9312 107.429L42.3545 107.163ZM37.9854 100.213V99.7129H21.4941V100.213V100.713H37.9854V100.213ZM21.4941 100.213L21.4942 99.7129C18.4324 99.7127 15.9502 97.2306 15.9502 94.1689H15.4502H14.9502C14.9502 97.783 17.8802 100.713 21.4941 100.713L21.4941 100.213ZM15.4502 94.1689H15.9502V85.4941H15.4502H14.9502V94.1689H15.4502ZM15.4502 85.4941L15.9502 85.4942C15.9503 83.0032 17.5937 80.8942 19.8565 80.1955L19.709 79.7178L19.5615 79.24C16.8914 80.0645 14.9504 82.5524 14.9502 85.4941L15.4502 85.4941ZM19.709 79.7178L19.9986 79.3102C17.0164 77.191 14.6453 74.2422 13.5946 71.0114L13.1191 71.166L12.6437 71.3206C13.7727 74.7925 16.2967 77.9063 19.4194 80.1254L19.709 79.7178ZM13.1191 71.166L13.5942 71.01C13.2848 70.0678 13.0948 69.1282 13.0178 68.2046L12.5195 68.2461L12.0213 68.2876C12.1049 69.2913 12.311 70.3077 12.6441 71.322L13.1191 71.166ZM12.5195 68.2461L12.7194 67.7878C7.77109 65.6298 3.50015 59.9605 3.5 52.3017L3 52.3018L2.5 52.3018C2.50016 60.3386 6.98916 66.3797 12.3197 68.7044L12.5195 68.2461ZM3 52.3018H3.5C3.5 49.5993 4.13837 47.1719 5.35569 45.157L4.92773 44.8984L4.49978 44.6399C3.17648 46.8302 2.5 49.4411 2.5 52.3018H3ZM4.92773 44.8984L5.35635 44.641C4.14527 42.6248 3.50007 40.1973 3.5 37.4961L3 37.4961L2.5 37.4961C2.50007 40.3576 3.18431 42.9671 4.49912 45.1559L4.92773 44.8984ZM3 37.4961H3.5C3.5 29.8371 7.77099 24.1671 12.7194 22.0091L12.5195 21.5508L12.3197 21.0925C6.98903 23.4172 2.5 29.459 2.5 37.4961H3ZM12.5195 21.5508L13.0178 21.5923C13.0948 20.6687 13.2848 19.729 13.5942 18.7868L13.1191 18.6309L12.6441 18.4749C12.3111 19.4891 12.1049 20.5056 12.0213 21.5092L12.5195 21.5508ZM13.1191 18.6309L13.5946 18.7855C14.6257 15.6149 16.9277 12.7141 19.8321 10.6038C22.7365 8.4936 26.2057 7.20117 29.5381 7.20117V6.70117V6.20117C25.9568 6.20117 22.2862 7.58469 19.2443 9.79483C16.2024 12.005 13.7517 15.069 12.6437 18.4762L13.1191 18.6309ZM29.5381 6.70117L29.5381 7.20117C30.509 7.20119 31.4425 7.30681 32.3321 7.50992L32.4434 7.02246L32.5547 6.53501C31.5901 6.31477 30.5818 6.2012 29.5381 6.20117L29.5381 6.70117ZM32.4434 7.02246L32.82 7.35129C35.4672 4.31904 39.8305 2.5 44.7451 2.5V2V1.5C39.5996 1.5 34.9388 3.40375 32.0667 6.69363L32.4434 7.02246Z" fill="#5C5C5C"/>
<path d="M53.6513 17.4909C57.8273 4.63453 31.6618 4.63453 35.8378 17.4909C31.6618 4.63453 10.49 20.0097 21.4263 27.96C10.49 20.0097 2.40088 44.8975 15.9216 44.8975C2.40088 44.8975 10.49 69.7854 21.4263 61.835C10.49 69.7854 31.6545 85.1605 35.8378 72.3041C31.6618 85.1605 57.8273 85.1605 53.6513 72.3041C57.8273 85.1605 78.9991 69.7854 68.0628 61.835C78.9991 69.7854 87.0882 44.8975 73.5674 44.8975C87.0882 44.8975 78.9991 20.0097 68.0628 27.96C78.9991 20.0097 57.8346 4.63453 53.6513 17.4909Z" fill="white"/>
<g filter="url(#filter1_g_40000879_11291)">
<path d="M53.6513 17.4909C57.8273 4.63453 31.6618 4.63453 35.8378 17.4909C31.6618 4.63453 10.49 20.0097 21.4263 27.96C10.49 20.0097 2.40088 44.8975 15.9216 44.8975C2.40088 44.8975 10.49 69.7854 21.4263 61.835C10.49 69.7854 31.6545 85.1605 35.8378 72.3041C31.6618 85.1605 57.8273 85.1605 53.6513 72.3041C57.8273 85.1605 78.9991 69.7854 68.0628 61.835C78.9991 69.7854 87.0882 44.8975 73.5674 44.8975C87.0882 44.8975 78.9991 20.0097 68.0628 27.96C78.9991 20.0097 57.8346 4.63453 53.6513 17.4909Z" fill="#EEEDEB"/>
<path d="M53.6513 17.4909C57.8273 4.63453 31.6618 4.63453 35.8378 17.4909C31.6618 4.63453 10.49 20.0097 21.4263 27.96C10.49 20.0097 2.40088 44.8975 15.9216 44.8975C2.40088 44.8975 10.49 69.7854 21.4263 61.835C10.49 69.7854 31.6545 85.1605 35.8378 72.3041C31.6618 85.1605 57.8273 85.1605 53.6513 72.3041C57.8273 85.1605 78.9991 69.7854 68.0628 61.835C78.9991 69.7854 87.0882 44.8975 73.5674 44.8975C87.0882 44.8975 78.9991 20.0097 68.0628 27.96C78.9991 20.0097 57.8346 4.63453 53.6513 17.4909Z" stroke="#2C2C2C" stroke-miterlimit="10"/>
</g>
<g filter="url(#filter2_g_40000879_11291)">
<path d="M45.5869 54.1841C45.7307 54.1861 45.8694 54.2 45.9736 54.2134C46.0251 54.22 46.0667 54.2263 46.0947 54.231C46.1087 54.2333 46.1194 54.2347 46.126 54.2358L46.1328 54.2378L46.1973 54.2495C46.2192 54.2559 46.2443 54.2635 46.2725 54.272C46.3858 54.3059 46.5469 54.3561 46.7344 54.4204C47.1132 54.5504 47.5867 54.7334 47.9971 54.9507C48.2021 55.0593 48.3814 55.1714 48.5215 55.2827C48.6654 55.397 48.7441 55.4916 48.7793 55.5581C48.8071 55.6107 48.8007 55.6278 48.7969 55.6392C48.7874 55.6677 48.7427 55.7577 48.5605 55.8921C47.6992 56.5231 47.086 56.6638 46.6543 56.6216C46.2783 56.5847 45.9592 56.4015 45.666 56.1235L45.542 55.9985C45.5114 55.9632 45.4458 55.8587 45.3691 55.6694C45.2952 55.4868 45.2268 55.2657 45.1777 55.0415C45.1282 54.8155 45.102 54.6034 45.1025 54.437C45.1029 54.3308 45.1131 54.2721 45.1191 54.2466C45.1336 54.2395 45.1607 54.2275 45.207 54.2163C45.3068 54.1924 45.4394 54.182 45.5869 54.1841Z" fill="#FEE888" stroke="#2C2C2C"/>
<path d="M45.5137 47.3743C45.5137 51.2058 44.6612 54.3049 41.0056 54.3049C37.588 54.3049 36.0137 51.2058 36.0137 47.3743C36.0137 46.6573 36.0521 45.9635 36.1442 45.3159C37.3269 45.6705 38.74 45.8247 40.2683 45.4701C41.3051 45.2311 42.4033 44.7531 43.5092 43.9282C43.8932 43.6507 44.2772 43.3192 44.6689 42.9414L44.7226 42.8875C44.7687 42.98 44.8071 43.0725 44.8378 43.1727C45.0375 43.6507 45.1911 44.1826 45.2986 44.7531C45.4062 45.3621 45.4753 46.002 45.4983 46.6727V46.6881C45.506 46.9117 45.5137 47.143 45.5137 47.3743Z" fill="#FBFBFB" stroke="#2C2C2C" stroke-miterlimit="10"/>
<path d="M55.0137 47.3744C55.0137 51.2059 54.1689 54.3051 50.5133 54.3051C47.088 54.3051 45.5137 51.2059 45.5137 47.3744C45.5137 46.4956 45.5751 45.6629 45.721 44.892C46.896 45.2466 48.2938 45.4085 49.8067 45.0693C51.143 44.7764 52.5715 44.0825 54.0076 42.7797C54.046 42.7488 54.0767 42.7103 54.1151 42.6794C54.1996 42.8413 54.2764 43.0109 54.3455 43.1883C54.7449 44.1828 54.9522 45.3777 54.9983 46.6806V46.7037C55.006 46.9273 55.0137 47.1508 55.0137 47.3744Z" fill="#FBFBFB" stroke="#2C2C2C" stroke-miterlimit="10"/>
<path d="M44.7229 42.8873L44.6692 42.9413C44.2775 43.319 43.8935 43.6505 43.5095 43.9281C42.4036 44.753 41.3054 45.2309 40.2686 45.4699C38.7403 45.8246 37.3272 45.6704 36.1445 45.3157C36.5439 42.4941 37.8955 40.4512 41.0059 40.4512C42.8567 40.4512 44.0394 41.3994 44.7229 42.8873Z" stroke="#2C2C2C" stroke-miterlimit="10"/>
<path d="M45.5135 46.0714C45.5135 46.2795 45.5058 46.48 45.4981 46.6727V46.6881C45.406 48.5152 44.8454 49.9106 43.0176 49.9106C41.1897 49.9106 40.2451 48.1914 40.2451 46.0714C40.2451 45.8632 40.2528 45.6628 40.2682 45.4701C41.3049 45.2311 42.4032 44.7531 43.5091 43.9282C43.8931 43.6507 44.277 43.3192 44.6687 42.9414C44.7302 43.0108 44.7916 43.0879 44.8377 43.1727C45.1372 43.6044 45.3215 44.1595 45.4213 44.7994C45.4828 45.2002 45.5135 45.6242 45.5135 46.0714Z" fill="#2C2C2C"/>
<path d="M55.0135 46.0709C55.0135 46.2791 55.0058 46.4795 54.9981 46.68V46.7031C54.8983 48.5225 54.3377 49.9102 52.5176 49.9102C50.6974 49.9102 49.7451 48.191 49.7451 46.0709C49.7451 45.724 49.7605 45.3848 49.8066 45.0687C51.1429 44.7758 52.5713 44.0819 54.0074 42.7791C54.138 42.8947 54.2532 43.0335 54.3454 43.1876C54.8215 43.8892 55.0135 44.9222 55.0135 46.0709Z" fill="#2C2C2C"/>
<path d="M54.1158 42.6792C54.1158 42.6792 54.0467 42.7485 54.0083 42.7794C52.5721 44.0823 51.1437 44.7761 49.8074 45.0691C48.2944 45.4083 46.8967 45.2464 45.7217 44.8917C46.1825 42.2937 47.5495 40.4512 50.5139 40.4512C52.2726 40.4512 53.4246 41.3069 54.1158 42.6792Z" stroke="#2C2C2C" stroke-miterlimit="10" stroke-linecap="round"/>
<path d="M45.7212 44.8918C45.5753 44.8455 45.4371 44.7993 45.2988 44.7607" stroke="#2C2C2C" stroke-miterlimit="10" stroke-linecap="round"/>
</g>
<g filter="url(#filter3_g_40000879_11291)">
<path d="M45.0617 62.4883C45.609 62.8767 46.298 63.0378 46.9397 62.8293C47.2795 62.7251 47.5437 62.5451 47.4305 62.242C47.1662 61.5315 46.0149 60.8209 45.4203 61.0767C44.8257 61.3325 44.1462 61.7115 44.7125 62.2136C44.8257 62.3178 44.9484 62.4125 45.0711 62.4978L45.0617 62.4883Z" fill="#2C2C2C"/>
</g>
<g filter="url(#filter4_g_40000879_11291)">
<path d="M45.4997 27.8759C48.3958 27.8759 51.3006 27.9611 54.1968 28.1316L56.2215 28.251C57.5714 28.3277 58.6905 29.3421 58.887 30.6805L59.6132 35.4884C59.8695 37.1592 58.6222 38.6851 56.9306 38.7703L53.2826 38.9664C50.694 39.1028 48.0968 39.171 45.4997 39.171C42.9025 39.171 40.3139 39.1028 37.7167 38.9664L34.0687 38.7703C32.3771 38.6851 31.1298 37.1592 31.3861 35.4884L32.1123 30.6805C32.3173 29.3421 33.428 28.3277 34.7778 28.251L36.8026 28.1316C39.6988 27.9611 42.6035 27.8759 45.4997 27.8759ZM45.4997 27.0234C42.5949 27.0234 39.6475 27.1087 36.7513 27.2792L34.7266 27.3985C32.9837 27.5008 31.5228 28.8307 31.2665 30.5526L30.5403 35.3605C30.3866 36.392 30.677 37.449 31.3349 38.2588C32.0012 39.0687 32.9752 39.5631 34.026 39.6228L37.674 39.8188C40.2712 39.9552 42.9025 40.0234 45.4997 40.0234C48.0968 40.0234 50.7282 39.9552 53.3253 39.8188L56.9733 39.6228C58.0156 39.5716 58.9981 39.0687 59.6645 38.2588C60.3309 37.449 60.6128 36.392 60.459 35.3605L59.7328 30.5526C59.468 28.8307 58.0156 27.5008 56.2728 27.3985L54.248 27.2792C51.3518 27.1087 48.4044 27.0234 45.4997 27.0234Z" fill="#2C2C2C"/>
</g>
<g filter="url(#filter5_g_40000879_11291)">
<path d="M57.7487 28.0328C59.2271 28.1169 60.4436 29.2293 60.6682 30.6969L61.4636 35.9783C61.7443 37.8104 60.3687 39.4836 58.516 39.5771L54.511 39.7921C48.8405 40.1006 43.1512 40.1006 37.4712 39.7921L33.4756 39.5771C31.7726 39.493 30.5 38.0908 30.5 36.455C30.5 36.6139 30.5749 36.7448 30.6404 36.8195C30.7246 36.9224 30.8743 37.0345 31.1269 37.0439L35.5156 37.2589C38.5661 37.3991 41.6634 37.4739 44.7232 37.4739C47.7831 37.4739 50.8804 37.3991 53.9309 37.2589L58.3195 37.0439C58.5628 37.0252 58.7125 36.913 58.8061 36.8195C58.8903 36.7261 58.9839 36.5672 58.9371 36.3522L58.0668 28.5376C58.02 28.2571 57.758 28.0421 57.4492 28.0234H57.7393L57.7487 28.0328Z" fill="#2C2C2C"/>
</g>
<g filter="url(#filter6_g_40000879_11291)">
<path d="M27.5 40.9341V54.9646" stroke="#2C2C2C" stroke-miterlimit="10" stroke-linecap="round"/>
<path d="M30.416 40.1289V47.9542" stroke="#2C2C2C" stroke-miterlimit="10" stroke-linecap="round"/>
<path d="M33.332 41.5688V44.5152" stroke="#2C2C2C" stroke-miterlimit="10" stroke-linecap="round"/>
</g>
</g>
<defs>
<filter id="filter0_f_40000879_11291" x="22.0989" y="94.0989" width="45.2749" height="25.4946" filterUnits="userSpaceOnUse" color-interpolation-filters="sRGB">
<feFlood flood-opacity="0" result="BackgroundImageFix"/>
<feBlend mode="normal" in="SourceGraphic" in2="BackgroundImageFix" result="shape"/>
<feGaussianBlur stdDeviation="4.45055" result="effect1_foregroundBlur_40000879_11291"/>
</filter>
<filter id="filter1_g_40000879_11291" x="7.93789" y="6.94863" width="73.6135" height="75.8977" filterUnits="userSpaceOnUse" color-interpolation-filters="sRGB">
<feFlood flood-opacity="0" result="BackgroundImageFix"/>
<feBlend mode="normal" in="SourceGraphic" in2="BackgroundImageFix" result="shape"/>
<feTurbulence type="fractalNoise" baseFrequency="0.66666668653488159 0.66666668653488159" numOctaves="3" seed="7043" />
<feDisplacementMap in="shape" scale="0.80000001192092896" xChannelSelector="R" yChannelSelector="G" result="displacedImage" width="100%" height="100%" />
<feMerge result="effect1_texture_40000879_11291">
<feMergeNode in="displacedImage"/>
</feMerge>
</filter>
<filter id="filter2_g_40000879_11291" x="35.1137" y="39.5512" width="20.8" height="17.9775" filterUnits="userSpaceOnUse" color-interpolation-filters="sRGB">
<feFlood flood-opacity="0" result="BackgroundImageFix"/>
<feBlend mode="normal" in="SourceGraphic" in2="BackgroundImageFix" result="shape"/>
<feTurbulence type="fractalNoise" baseFrequency="0.66666668653488159 0.66666668653488159" numOctaves="3" seed="7043" />
<feDisplacementMap in="shape" scale="0.80000001192092896" xChannelSelector="R" yChannelSelector="G" result="displacedImage" width="100%" height="100%" />
<feMerge result="effect1_texture_40000879_11291">
<feMergeNode in="displacedImage"/>
</feMerge>
</filter>
<filter id="filter3_g_40000879_11291" x="44.1" y="60.6234" width="3.75703" height="2.69746" filterUnits="userSpaceOnUse" color-interpolation-filters="sRGB">
<feFlood flood-opacity="0" result="BackgroundImageFix"/>
<feBlend mode="normal" in="SourceGraphic" in2="BackgroundImageFix" result="shape"/>
<feTurbulence type="fractalNoise" baseFrequency="0.66666668653488159 0.66666668653488159" numOctaves="3" seed="7043" />
<feDisplacementMap in="shape" scale="0.80000001192092896" xChannelSelector="R" yChannelSelector="G" result="displacedImage" width="100%" height="100%" />
<feMerge result="effect1_texture_40000879_11291">
<feMergeNode in="displacedImage"/>
</feMerge>
</filter>
<filter id="filter4_g_40000879_11291" x="30.1" y="26.6234" width="30.8" height="13.8" filterUnits="userSpaceOnUse" color-interpolation-filters="sRGB">
<feFlood flood-opacity="0" result="BackgroundImageFix"/>
<feBlend mode="normal" in="SourceGraphic" in2="BackgroundImageFix" result="shape"/>
<feTurbulence type="fractalNoise" baseFrequency="0.66666668653488159 0.66666668653488159" numOctaves="3" seed="7043" />
<feDisplacementMap in="shape" scale="0.80000001192092896" xChannelSelector="R" yChannelSelector="G" result="displacedImage" width="100%" height="100%" />
<feMerge result="effect1_texture_40000879_11291">
<feMergeNode in="displacedImage"/>
</feMerge>
</filter>
<filter id="filter5_g_40000879_11291" x="30.1" y="27.6234" width="31.8" height="12.8" filterUnits="userSpaceOnUse" color-interpolation-filters="sRGB">
<feFlood flood-opacity="0" result="BackgroundImageFix"/>
<feBlend mode="normal" in="SourceGraphic" in2="BackgroundImageFix" result="shape"/>
<feTurbulence type="fractalNoise" baseFrequency="0.66666668653488159 0.66666668653488159" numOctaves="3" seed="7043" />
<feDisplacementMap in="shape" scale="0.80000001192092896" xChannelSelector="R" yChannelSelector="G" result="displacedImage" width="100%" height="100%" />
<feMerge result="effect1_texture_40000879_11291">
<feMergeNode in="displacedImage"/>
</feMerge>
</filter>
<filter id="filter6_g_40000879_11291" x="26.6" y="39.2289" width="7.63203" height="16.6357" filterUnits="userSpaceOnUse" color-interpolation-filters="sRGB">
<feFlood flood-opacity="0" result="BackgroundImageFix"/>
<feBlend mode="normal" in="SourceGraphic" in2="BackgroundImageFix" result="shape"/>
<feTurbulence type="fractalNoise" baseFrequency="0.66666668653488159 0.66666668653488159" numOctaves="3" seed="7043" />
<feDisplacementMap in="shape" scale="0.80000001192092896" xChannelSelector="R" yChannelSelector="G" result="displacedImage" width="100%" height="100%" />
<feMerge result="effect1_texture_40000879_11291">
<feMergeNode in="displacedImage"/>
</feMerge>
</filter>
<clipPath id="clip0_40000879_11291">
<rect width="90" height="117" fill="white"/>
</clipPath>
</defs>
</svg>
