<svg width="90" height="117" viewBox="0 0 90 117" fill="none" xmlns="http://www.w3.org/2000/svg">
<g clip-path="url(#clip0_40000879_11531)">
<g filter="url(#filter0_f_40000879_11531)">
<ellipse cx="47.7363" cy="106.846" rx="13.7363" ry="3.84615" fill="#9C9C9C"/>
</g>
<path d="M46.4961 2C60.5192 2.00017 72.0615 11.9586 72.0615 24.3389C72.0615 27.4633 71.3414 30.4837 69.9238 33.3193L69.9248 33.3203C69.0745 35.0305 69.2142 37.3003 70.4072 39.417L70.4082 39.418C72.1833 42.5707 73.1289 46.1146 73.1289 49.6709C73.1289 52.6712 72.4889 55.5853 71.2207 58.3418C70.4449 60.0386 70.5302 61.7894 71.4092 63.1641H71.4102C73.7583 66.8285 75 71.0061 75 75.2393C75 86.9028 65.7057 96.6318 53.3047 99.2832L49.6768 105.057H49.6895L49.1572 105.899C48.2208 107.383 45.9636 107.433 44.9482 106.038L44.8545 105.898L40.8359 99.5068C27.8707 97.2214 18 87.2556 18 75.2393C18 71.0061 19.2417 66.8285 21.5898 63.1641C22.4699 61.7881 22.5618 60.039 21.7793 58.3447V58.3438C20.5106 55.5867 19.8711 52.6632 19.8711 49.6709C19.8711 46.1144 20.8169 42.5613 22.6006 39.3916C23.7115 37.4223 23.9113 35.3056 23.2256 33.6406L23.0762 33.3135C21.6581 30.4775 20.9385 27.4556 20.9385 24.3389C20.9385 11.9587 32.4726 2 46.4961 2Z" fill="#93D1E0"/>
<path d="M46.4961 2L46.4961 1.5H46.4961V2ZM72.0615 24.3389L72.5615 24.3389V24.3389H72.0615ZM69.9238 33.3193L69.4766 33.0958L69.3155 33.4181L69.5703 33.6729L69.9238 33.3193ZM69.9248 33.3203L70.3725 33.5429L70.5326 33.221L70.2784 32.9668L69.9248 33.3203ZM70.4072 39.417L69.9716 39.6625L70.0053 39.7221L70.0537 39.7705L70.4072 39.417ZM70.4082 39.418L70.8439 39.1727L70.8102 39.1129L70.7618 39.0644L70.4082 39.418ZM73.1289 49.6709H73.6289H73.1289ZM71.2207 58.3418L70.7665 58.1328L70.766 58.1339L71.2207 58.3418ZM71.4092 63.1641L70.9879 63.4334L71.1354 63.6641H71.4092V63.1641ZM71.4102 63.1641L71.8311 62.8943L71.6836 62.6641H71.4102V63.1641ZM75 75.2393H75.5V75.2393L75 75.2393ZM53.3047 99.2832L53.2001 98.7943L52.9937 98.8384L52.8813 99.0172L53.3047 99.2832ZM49.6768 105.057L49.2534 104.791L48.772 105.557H49.6768V105.057ZM49.6895 105.057L50.1122 105.324L50.5966 104.557H49.6895V105.057ZM49.1572 105.899L48.7345 105.632L48.7344 105.633L49.1572 105.899ZM44.9482 106.038L44.5331 106.317L44.5384 106.325L44.544 106.332L44.9482 106.038ZM44.8545 105.898L44.4312 106.165L44.4352 106.171L44.4394 106.177L44.8545 105.898ZM40.8359 99.5068L41.2592 99.2407L41.1412 99.0529L40.9227 99.0144L40.8359 99.5068ZM18 75.2393L17.5 75.2393V75.2393H18ZM21.5898 63.1641L22.0108 63.4338L22.0111 63.4335L21.5898 63.1641ZM21.7793 58.3447H21.2793V58.4546L21.3254 58.5544L21.7793 58.3447ZM21.7793 58.3438H22.2793V58.2342L22.2335 58.1347L21.7793 58.3438ZM19.8711 49.6709H19.3711H19.8711ZM22.6006 39.3916L22.1651 39.1459L22.1648 39.1464L22.6006 39.3916ZM23.2256 33.6406L23.6879 33.4502L23.6843 33.4415L23.6804 33.4329L23.2256 33.6406ZM23.0762 33.3135L23.531 33.1058L23.5273 33.0977L23.5234 33.0899L23.0762 33.3135ZM20.9385 24.3389H20.4385V24.3389L20.9385 24.3389ZM46.4961 2L46.4961 2.5C60.3105 2.50017 71.5615 12.2977 71.5615 24.3389H72.0615H72.5615C72.5615 11.6195 60.7279 1.50018 46.4961 1.5L46.4961 2ZM72.0615 24.3389L71.5615 24.3389C71.5615 27.3843 70.8601 30.3283 69.4766 33.0958L69.9238 33.3193L70.3711 33.5429C71.8227 30.6391 72.5615 27.5423 72.5615 24.3389L72.0615 24.3389ZM69.9238 33.3193L69.5703 33.6729L69.5713 33.6739L69.9248 33.3203L70.2784 32.9668L70.2774 32.9658L69.9238 33.3193ZM69.9248 33.3203L69.4771 33.0977C68.5376 34.9875 68.7159 37.4345 69.9716 39.6625L70.4072 39.417L70.8428 39.1715C69.7124 37.166 69.6115 35.0736 70.3725 33.5429L69.9248 33.3203ZM70.4072 39.417L70.0537 39.7705L70.0546 39.7715L70.4082 39.418L70.7618 39.0644L70.7608 39.0634L70.4072 39.417ZM70.4082 39.418L69.9725 39.6633C71.7066 42.7432 72.6289 46.2028 72.6289 49.6709H73.1289H73.6289C73.6289 46.0264 72.66 42.3983 70.8439 39.1727L70.4082 39.418ZM73.1289 49.6709H72.6289C72.6289 52.5984 72.0048 55.4413 70.7665 58.1328L71.2207 58.3418L71.6749 58.5508C72.9731 55.7293 73.6289 52.7439 73.6289 49.6709H73.1289ZM71.2207 58.3418L70.766 58.1339C69.9288 59.965 70.0061 61.898 70.9879 63.4334L71.4092 63.1641L71.8304 62.8947C71.0542 61.6808 70.9611 60.1121 71.6754 58.5497L71.2207 58.3418ZM71.4092 63.1641V63.6641H71.4102V63.1641V62.6641H71.4092V63.1641ZM71.4102 63.1641L70.9892 63.4338C73.2872 67.0201 74.5 71.1045 74.5 75.2393L75 75.2393L75.5 75.2393C75.5 70.9077 74.2293 66.6369 71.8311 62.8943L71.4102 63.1641ZM75 75.2393H74.5C74.5 86.6155 65.4248 96.1806 53.2001 98.7943L53.3047 99.2832L53.4092 99.7722C65.9866 97.0831 75.5 87.19 75.5 75.2393H75ZM53.3047 99.2832L52.8813 99.0172L49.2534 104.791L49.6768 105.057L50.1001 105.323L53.728 99.5492L53.3047 99.2832ZM49.6768 105.057V105.557H49.6895V105.057V104.557H49.6768V105.057ZM49.6895 105.057L49.2667 104.79L48.7345 105.632L49.1572 105.899L49.58 106.166L50.1122 105.324L49.6895 105.057ZM49.1572 105.899L48.7344 105.633C47.989 106.814 46.1627 106.857 45.3525 105.744L44.9482 106.038L44.544 106.332C45.7645 108.009 48.4525 107.953 49.5801 106.166L49.1572 105.899ZM44.9482 106.038L45.3634 105.759L45.2696 105.62L44.8545 105.898L44.4394 106.177L44.5331 106.317L44.9482 106.038ZM44.8545 105.898L45.2778 105.632L41.2592 99.2407L40.8359 99.5068L40.4126 99.773L44.4312 106.165L44.8545 105.898ZM40.8359 99.5068L40.9227 99.0144C28.1392 96.761 18.5 86.9591 18.5 75.2393H18H17.5C17.5 87.5521 27.6022 97.6817 40.7491 99.9992L40.8359 99.5068ZM18 75.2393L18.5 75.2393C18.5 71.1045 19.7128 67.0201 22.0108 63.4338L21.5898 63.1641L21.1689 62.8943C18.7707 66.6369 17.5 70.9077 17.5 75.2393L18 75.2393ZM21.5898 63.1641L22.0111 63.4335C22.9931 61.898 23.0789 59.9662 22.2332 58.1351L21.7793 58.3447L21.3254 58.5544C22.0446 60.1117 21.9466 61.6782 21.1686 62.8947L21.5898 63.1641ZM21.7793 58.3447H22.2793V58.3438H21.7793H21.2793V58.3447H21.7793ZM21.7793 58.3438L22.2335 58.1347C20.9948 55.4429 20.3711 52.5906 20.3711 49.6709H19.8711H19.3711C19.3711 52.7358 20.0264 55.7306 21.3251 58.5528L21.7793 58.3438ZM19.8711 49.6709H20.3711C20.3711 46.2027 21.2936 42.7337 23.0363 39.6368L22.6006 39.3916L22.1648 39.1464C20.3401 42.3889 19.3711 46.0262 19.3711 49.6709H19.8711ZM22.6006 39.3916L23.0361 39.6373C24.206 37.5634 24.4436 35.2851 23.6879 33.4502L23.2256 33.6406L22.7633 33.831C23.379 35.3261 23.2171 37.2812 22.1651 39.1459L22.6006 39.3916ZM23.2256 33.6406L23.6804 33.4329L23.531 33.1058L23.0762 33.3135L22.6214 33.5212L22.7708 33.8483L23.2256 33.6406ZM23.0762 33.3135L23.5234 33.0899C22.1394 30.3221 21.4385 27.3766 21.4385 24.3389L20.9385 24.3389L20.4385 24.3389C20.4385 27.5346 21.1768 30.6329 22.629 33.5371L23.0762 33.3135ZM20.9385 24.3389H21.4385C21.4385 12.2976 32.6815 2.5 46.4961 2.5V2V1.5C32.2636 1.5 20.4385 11.6198 20.4385 24.3389H20.9385Z" fill="#5C5C5C"/>
<g filter="url(#filter1_g_40000879_11531)">
<path d="M68 75.3833C68 85.1128 58.1453 93 46 93C33.8547 93 24 85.1128 24 75.3833C24 72.4033 24.9233 69.5931 26.548 67.1395C28.9007 63.5822 29.0694 59.1929 27.2494 55.3639C26.406 53.5895 25.9443 51.6707 25.9443 49.6586C25.9443 47.2305 26.6191 44.9381 27.8176 42.8751C30.1525 38.8763 30.6142 34.0795 28.4923 29.9703C27.569 28.1874 27.063 26.2262 27.063 24.1801C27.063 15.8005 35.5416 9 46 9C56.4584 9 64.9459 15.8005 64.9459 24.1801C64.9459 26.2347 64.4399 28.1959 63.5165 29.9788C61.3947 34.0879 61.8563 38.8848 64.1913 42.8921C65.3898 44.9466 66.0557 47.2389 66.0557 49.6586C66.0557 51.6707 65.594 53.5895 64.7506 55.3639C62.9306 59.1929 63.0993 63.5822 65.452 67.1395C67.0767 69.6016 68 72.4033 68 75.3833Z" fill="#EEEDEB"/>
<path d="M68 75.3833C68 85.1128 58.1453 93 46 93C33.8547 93 24 85.1128 24 75.3833C24 72.4033 24.9233 69.5931 26.548 67.1395C28.9007 63.5822 29.0694 59.1929 27.2494 55.3639C26.406 53.5895 25.9443 51.6707 25.9443 49.6586C25.9443 47.2305 26.6191 44.9381 27.8176 42.8751C30.1525 38.8763 30.6142 34.0795 28.4923 29.9703C27.569 28.1874 27.063 26.2262 27.063 24.1801C27.063 15.8005 35.5416 9 46 9C56.4584 9 64.9459 15.8005 64.9459 24.1801C64.9459 26.2347 64.4399 28.1959 63.5165 29.9788C61.3947 34.0879 61.8563 38.8848 64.1913 42.8921C65.3898 44.9466 66.0557 47.2389 66.0557 49.6586C66.0557 51.6707 65.594 53.5895 64.7506 55.3639C62.9306 59.1929 63.0993 63.5822 65.452 67.1395C67.0767 69.6016 68 72.4033 68 75.3833Z" stroke="#2C2C2C" stroke-miterlimit="10"/>
</g>
<g filter="url(#filter2_g_40000879_11531)">
<path d="M46.1017 22.7637C46.1017 25.6391 45.4576 27.9785 42.7119 27.9785C40.1356 27.97 38.9492 25.6391 38.9492 22.7637C38.9492 19.8884 39.8221 17.549 42.7119 17.549C45.2288 17.549 46.1017 19.8799 46.1017 22.7637Z" fill="#FBFBFB" stroke="#2C2C2C" stroke-miterlimit="10"/>
<path d="M53.2543 22.7637C53.2543 22.8658 53.2543 22.9594 53.2543 23.0615C53.2374 24.4056 53.0594 25.6051 52.5764 26.4898C51.6103 26.5919 50.7798 27.1533 50.2968 27.953C50.1612 27.97 50.0171 27.9785 49.873 27.9785C47.2968 27.9785 46.1104 25.6476 46.1104 22.7637C46.1104 19.8799 46.9747 17.549 49.8646 17.549C52.2883 17.549 53.1866 19.7097 53.2543 22.449C53.2543 22.5511 53.2543 22.6616 53.2543 22.7637Z" fill="#FBFBFB" stroke="#2C2C2C" stroke-miterlimit="10"/>
<path d="M53.2541 22.7636C53.2541 24.3629 52.8982 25.656 51.3728 25.656C49.9406 25.656 49.2881 24.3629 49.2881 22.7636C49.2881 21.1643 49.7711 19.8712 51.3728 19.8712C52.7711 19.8712 53.2541 21.1643 53.2541 22.7636Z" fill="#2C2C2C"/>
<path d="M46.2715 27.9796C46.7072 28.0534 46.9298 28.2812 47.04 28.5128C47.1615 28.7679 47.142 29.0164 47.0996 29.13C47.0817 29.142 47.0373 29.1703 46.9443 29.1984C46.7904 29.2449 46.584 29.2669 46.374 29.2452C45.9364 29.1999 45.675 29.0049 45.6201 28.6925C45.5813 28.4709 45.6191 28.3502 45.6553 28.2843C45.6946 28.2127 45.7618 28.1501 45.8613 28.0978C45.9626 28.0446 46.0779 28.0123 46.1748 27.9943C46.2136 27.987 46.2469 27.9823 46.2715 27.9796Z" fill="#93D1E0" stroke="#2C2C2C"/>
<path d="M51.0169 29.3478C51.0169 29.3478 49.2881 33.4056 44.2627 31.1002" stroke="#2C2C2C" stroke-miterlimit="10" stroke-linecap="round"/>
<path d="M52.5674 26.4905C52.6776 26.4735 52.7962 26.465 52.9064 26.465C54.0419 26.465 55.0335 27.086 55.5589 28.0047" stroke="#2C2C2C" stroke-miterlimit="10" stroke-linecap="round"/>
<path d="M50.2878 27.9523L50.2539 28.0033" stroke="#2C2C2C" stroke-miterlimit="10" stroke-linecap="round"/>
<path d="M41.3473 20.6542C42.8304 20.5947 44.6948 21.2668 45.3049 22.9767C45.3304 23.0617 45.271 23.1468 45.1778 23.1383C44.5507 23.1213 43.3219 22.9511 41.3389 24.8567" stroke="#2C2C2C" stroke-miterlimit="10" stroke-linecap="round"/>
<path d="M46.1016 31.8067C46.1016 31.8067 47.3558 34.095 49.1185 33.7718C50.8812 33.4485 50.6439 29.9777 50.6439 29.9777" stroke="#2C2C2C" stroke-miterlimit="10" stroke-linecap="round"/>
</g>
</g>
<defs>
<filter id="filter0_f_40000879_11531" x="25.0989" y="94.0989" width="45.2749" height="25.4945" filterUnits="userSpaceOnUse" color-interpolation-filters="sRGB">
<feFlood flood-opacity="0" result="BackgroundImageFix"/>
<feBlend mode="normal" in="SourceGraphic" in2="BackgroundImageFix" result="shape"/>
<feGaussianBlur stdDeviation="4.45055" result="effect1_foregroundBlur_40000879_11531"/>
</filter>
<filter id="filter1_g_40000879_11531" x="23.1" y="8.1" width="45.8" height="85.8" filterUnits="userSpaceOnUse" color-interpolation-filters="sRGB">
<feFlood flood-opacity="0" result="BackgroundImageFix"/>
<feBlend mode="normal" in="SourceGraphic" in2="BackgroundImageFix" result="shape"/>
<feTurbulence type="fractalNoise" baseFrequency="0.66666668653488159 0.66666668653488159" numOctaves="3" seed="7043" />
<feDisplacementMap in="shape" scale="0.80000001192092896" xChannelSelector="R" yChannelSelector="G" result="displacedImage" width="100%" height="100%" />
<feMerge result="effect1_texture_40000879_11531">
<feMergeNode in="displacedImage"/>
</feMerge>
</filter>
<filter id="filter2_g_40000879_11531" x="38.0492" y="16.649" width="18.4094" height="18.0545" filterUnits="userSpaceOnUse" color-interpolation-filters="sRGB">
<feFlood flood-opacity="0" result="BackgroundImageFix"/>
<feBlend mode="normal" in="SourceGraphic" in2="BackgroundImageFix" result="shape"/>
<feTurbulence type="fractalNoise" baseFrequency="0.66666668653488159 0.66666668653488159" numOctaves="3" seed="7043" />
<feDisplacementMap in="shape" scale="0.80000001192092896" xChannelSelector="R" yChannelSelector="G" result="displacedImage" width="100%" height="100%" />
<feMerge result="effect1_texture_40000879_11531">
<feMergeNode in="displacedImage"/>
</feMerge>
</filter>
<clipPath id="clip0_40000879_11531">
<rect width="90" height="117" fill="white"/>
</clipPath>
</defs>
</svg>
