<svg width="90" height="117" viewBox="0 0 90 117" fill="none" xmlns="http://www.w3.org/2000/svg">
<g clip-path="url(#clip0_40000879_11650)">
<g filter="url(#filter0_f_40000879_11650)">
<ellipse cx="47.7363" cy="106.846" rx="13.7363" ry="3.84615" fill="#9C9C9C"/>
</g>
<path d="M46.4961 2C60.5192 2.00017 72.0615 11.9586 72.0615 24.3389C72.0615 27.4633 71.3414 30.4837 69.9238 33.3193L69.9248 33.3203C69.0745 35.0305 69.2142 37.3003 70.4072 39.417L70.4082 39.418C72.1833 42.5707 73.1289 46.1146 73.1289 49.6709C73.1289 52.6712 72.4889 55.5853 71.2207 58.3418C70.4449 60.0386 70.5302 61.7894 71.4092 63.1641H71.4102C73.7583 66.8285 75 71.0061 75 75.2393C75 86.9028 65.7057 96.6318 53.3047 99.2832L49.6768 105.057H49.6895L49.1572 105.899C48.2208 107.383 45.9636 107.433 44.9482 106.038L44.8545 105.898L40.8359 99.5068C27.8707 97.2214 18 87.2556 18 75.2393C18 71.0061 19.2417 66.8285 21.5898 63.1641C22.4699 61.7881 22.5618 60.039 21.7793 58.3447V58.3438C20.5106 55.5867 19.8711 52.6632 19.8711 49.6709C19.8711 46.1144 20.8169 42.5613 22.6006 39.3916C23.7115 37.4223 23.9113 35.3056 23.2256 33.6406L23.0762 33.3135C21.6581 30.4775 20.9385 27.4556 20.9385 24.3389C20.9385 11.9587 32.4726 2 46.4961 2Z" fill="#93D1E0"/>
<path d="M46.4961 2L46.4961 1.5H46.4961V2ZM72.0615 24.3389L72.5615 24.3389V24.3389H72.0615ZM69.9238 33.3193L69.4766 33.0958L69.3155 33.4181L69.5703 33.6729L69.9238 33.3193ZM69.9248 33.3203L70.3725 33.5429L70.5326 33.221L70.2784 32.9668L69.9248 33.3203ZM70.4072 39.417L69.9716 39.6625L70.0053 39.7221L70.0537 39.7705L70.4072 39.417ZM70.4082 39.418L70.8439 39.1727L70.8102 39.1129L70.7618 39.0644L70.4082 39.418ZM73.1289 49.6709H73.6289H73.1289ZM71.2207 58.3418L70.7665 58.1328L70.766 58.1339L71.2207 58.3418ZM71.4092 63.1641L70.9879 63.4334L71.1354 63.6641H71.4092V63.1641ZM71.4102 63.1641L71.8311 62.8943L71.6836 62.6641H71.4102V63.1641ZM75 75.2393H75.5V75.2393L75 75.2393ZM53.3047 99.2832L53.2001 98.7943L52.9937 98.8384L52.8813 99.0172L53.3047 99.2832ZM49.6768 105.057L49.2534 104.791L48.772 105.557H49.6768V105.057ZM49.6895 105.057L50.1122 105.324L50.5966 104.557H49.6895V105.057ZM49.1572 105.899L48.7345 105.632L48.7344 105.633L49.1572 105.899ZM44.9482 106.038L44.5331 106.317L44.5384 106.325L44.544 106.332L44.9482 106.038ZM44.8545 105.898L44.4312 106.165L44.4352 106.171L44.4394 106.177L44.8545 105.898ZM40.8359 99.5068L41.2592 99.2407L41.1412 99.0529L40.9227 99.0144L40.8359 99.5068ZM18 75.2393L17.5 75.2393V75.2393H18ZM21.5898 63.1641L22.0108 63.4338L22.0111 63.4335L21.5898 63.1641ZM21.7793 58.3447H21.2793V58.4546L21.3254 58.5544L21.7793 58.3447ZM21.7793 58.3438H22.2793V58.2342L22.2335 58.1347L21.7793 58.3438ZM19.8711 49.6709H19.3711H19.8711ZM22.6006 39.3916L22.1651 39.1459L22.1648 39.1464L22.6006 39.3916ZM23.2256 33.6406L23.6879 33.4502L23.6843 33.4415L23.6804 33.4329L23.2256 33.6406ZM23.0762 33.3135L23.531 33.1058L23.5273 33.0977L23.5234 33.0899L23.0762 33.3135ZM20.9385 24.3389H20.4385V24.3389L20.9385 24.3389ZM46.4961 2L46.4961 2.5C60.3105 2.50017 71.5615 12.2977 71.5615 24.3389H72.0615H72.5615C72.5615 11.6195 60.7279 1.50018 46.4961 1.5L46.4961 2ZM72.0615 24.3389L71.5615 24.3389C71.5615 27.3843 70.8601 30.3283 69.4766 33.0958L69.9238 33.3193L70.3711 33.5429C71.8227 30.6391 72.5615 27.5423 72.5615 24.3389L72.0615 24.3389ZM69.9238 33.3193L69.5703 33.6729L69.5713 33.6739L69.9248 33.3203L70.2784 32.9668L70.2774 32.9658L69.9238 33.3193ZM69.9248 33.3203L69.4771 33.0977C68.5376 34.9875 68.7159 37.4345 69.9716 39.6625L70.4072 39.417L70.8428 39.1715C69.7124 37.166 69.6115 35.0736 70.3725 33.5429L69.9248 33.3203ZM70.4072 39.417L70.0537 39.7705L70.0546 39.7715L70.4082 39.418L70.7618 39.0644L70.7608 39.0634L70.4072 39.417ZM70.4082 39.418L69.9725 39.6633C71.7066 42.7432 72.6289 46.2028 72.6289 49.6709H73.1289H73.6289C73.6289 46.0264 72.66 42.3983 70.8439 39.1727L70.4082 39.418ZM73.1289 49.6709H72.6289C72.6289 52.5984 72.0048 55.4413 70.7665 58.1328L71.2207 58.3418L71.6749 58.5508C72.9731 55.7293 73.6289 52.7439 73.6289 49.6709H73.1289ZM71.2207 58.3418L70.766 58.1339C69.9288 59.965 70.0061 61.898 70.9879 63.4334L71.4092 63.1641L71.8304 62.8947C71.0542 61.6808 70.9611 60.1121 71.6754 58.5497L71.2207 58.3418ZM71.4092 63.1641V63.6641H71.4102V63.1641V62.6641H71.4092V63.1641ZM71.4102 63.1641L70.9892 63.4338C73.2872 67.0201 74.5 71.1045 74.5 75.2393L75 75.2393L75.5 75.2393C75.5 70.9077 74.2293 66.6369 71.8311 62.8943L71.4102 63.1641ZM75 75.2393H74.5C74.5 86.6155 65.4248 96.1806 53.2001 98.7943L53.3047 99.2832L53.4092 99.7722C65.9866 97.0831 75.5 87.19 75.5 75.2393H75ZM53.3047 99.2832L52.8813 99.0172L49.2534 104.791L49.6768 105.057L50.1001 105.323L53.728 99.5492L53.3047 99.2832ZM49.6768 105.057V105.557H49.6895V105.057V104.557H49.6768V105.057ZM49.6895 105.057L49.2667 104.79L48.7345 105.632L49.1572 105.899L49.58 106.166L50.1122 105.324L49.6895 105.057ZM49.1572 105.899L48.7344 105.633C47.989 106.814 46.1627 106.857 45.3525 105.744L44.9482 106.038L44.544 106.332C45.7645 108.009 48.4525 107.953 49.5801 106.166L49.1572 105.899ZM44.9482 106.038L45.3634 105.759L45.2696 105.62L44.8545 105.898L44.4394 106.177L44.5331 106.317L44.9482 106.038ZM44.8545 105.898L45.2778 105.632L41.2592 99.2407L40.8359 99.5068L40.4126 99.773L44.4312 106.165L44.8545 105.898ZM40.8359 99.5068L40.9227 99.0144C28.1392 96.761 18.5 86.9591 18.5 75.2393H18H17.5C17.5 87.5521 27.6022 97.6817 40.7491 99.9992L40.8359 99.5068ZM18 75.2393L18.5 75.2393C18.5 71.1045 19.7128 67.0201 22.0108 63.4338L21.5898 63.1641L21.1689 62.8943C18.7707 66.6369 17.5 70.9077 17.5 75.2393L18 75.2393ZM21.5898 63.1641L22.0111 63.4335C22.9931 61.898 23.0789 59.9662 22.2332 58.1351L21.7793 58.3447L21.3254 58.5544C22.0446 60.1117 21.9466 61.6782 21.1686 62.8947L21.5898 63.1641ZM21.7793 58.3447H22.2793V58.3438H21.7793H21.2793V58.3447H21.7793ZM21.7793 58.3438L22.2335 58.1347C20.9948 55.4429 20.3711 52.5906 20.3711 49.6709H19.8711H19.3711C19.3711 52.7358 20.0264 55.7306 21.3251 58.5528L21.7793 58.3438ZM19.8711 49.6709H20.3711C20.3711 46.2027 21.2936 42.7337 23.0363 39.6368L22.6006 39.3916L22.1648 39.1464C20.3401 42.3889 19.3711 46.0262 19.3711 49.6709H19.8711ZM22.6006 39.3916L23.0361 39.6373C24.206 37.5634 24.4436 35.2851 23.6879 33.4502L23.2256 33.6406L22.7633 33.831C23.379 35.3261 23.2171 37.2812 22.1651 39.1459L22.6006 39.3916ZM23.2256 33.6406L23.6804 33.4329L23.531 33.1058L23.0762 33.3135L22.6214 33.5212L22.7708 33.8483L23.2256 33.6406ZM23.0762 33.3135L23.5234 33.0899C22.1394 30.3221 21.4385 27.3766 21.4385 24.3389L20.9385 24.3389L20.4385 24.3389C20.4385 27.5346 21.1768 30.6329 22.629 33.5371L23.0762 33.3135ZM20.9385 24.3389H21.4385C21.4385 12.2976 32.6815 2.5 46.4961 2.5V2V1.5C32.2636 1.5 20.4385 11.6198 20.4385 24.3389H20.9385Z" fill="#5C5C5C"/>
<g filter="url(#filter1_g_40000879_11650)">
<path d="M68 75.3833C68 85.1128 58.1453 93 46 93C33.8547 93 24 85.1128 24 75.3833C24 72.4033 24.9233 69.5931 26.548 67.1395C28.9007 63.5822 29.0694 59.1929 27.2494 55.3639C26.406 53.5895 25.9443 51.6707 25.9443 49.6586C25.9443 47.2305 26.6191 44.9381 27.8176 42.8751C30.1525 38.8763 30.6142 34.0795 28.4923 29.9703C27.569 28.1874 27.063 26.2262 27.063 24.1801C27.063 15.8005 35.5416 9 46 9C56.4584 9 64.9459 15.8005 64.9459 24.1801C64.9459 26.2347 64.4399 28.1959 63.5165 29.9788C61.3947 34.0879 61.8563 38.8848 64.1913 42.8921C65.3898 44.9466 66.0557 47.2389 66.0557 49.6586C66.0557 51.6707 65.594 53.5895 64.7506 55.3639C62.9306 59.1929 63.0993 63.5822 65.452 67.1395C67.0767 69.6016 68 72.4033 68 75.3833Z" fill="#EEEDEB"/>
<path d="M68 75.3833C68 85.1128 58.1453 93 46 93C33.8547 93 24 85.1128 24 75.3833C24 72.4033 24.9233 69.5931 26.548 67.1395C28.9007 63.5822 29.0694 59.1929 27.2494 55.3639C26.406 53.5895 25.9443 51.6707 25.9443 49.6586C25.9443 47.2305 26.6191 44.9381 27.8176 42.8751C30.1525 38.8763 30.6142 34.0795 28.4923 29.9703C27.569 28.1874 27.063 26.2262 27.063 24.1801C27.063 15.8005 35.5416 9 46 9C56.4584 9 64.9459 15.8005 64.9459 24.1801C64.9459 26.2347 64.4399 28.1959 63.5165 29.9788C61.3947 34.0879 61.8563 38.8848 64.1913 42.8921C65.3898 44.9466 66.0557 47.2389 66.0557 49.6586C66.0557 51.6707 65.594 53.5895 64.7506 55.3639C62.9306 59.1929 63.0993 63.5822 65.452 67.1395C67.0767 69.6016 68 72.4033 68 75.3833Z" stroke="#2C2C2C" stroke-miterlimit="10"/>
</g>
<g filter="url(#filter2_g_40000879_11650)">
<path d="M46.102 24.215C46.102 27.0905 45.4579 29.43 42.712 29.43C40.1357 29.43 38.9492 27.099 38.9492 24.215C38.9492 21.331 39.8221 19 42.712 19C45.2291 19 46.102 21.331 46.102 24.215Z" fill="#FBFBFB" stroke="#2C2C2C" stroke-miterlimit="10"/>
<path d="M53.2546 24.215C53.2546 24.3171 53.2546 24.4107 53.2546 24.5127C53.2377 25.8569 53.0597 27.0564 52.5766 27.9412C51.6105 28.0433 50.78 28.6048 50.2969 29.4044C50.1613 29.4215 50.0172 29.43 49.8732 29.43C47.2968 29.43 46.1104 27.099 46.1104 24.215C46.1104 21.331 46.9917 19 49.8732 19C52.297 19 53.1953 21.1609 53.2631 23.9002C53.2631 24.0023 53.2631 24.1129 53.2631 24.215H53.2546Z" fill="#FBFBFB" stroke="#2C2C2C" stroke-miterlimit="10"/>
<path d="M43.767 26.4572C43.767 28.0566 43.4111 29.3497 41.8856 29.3497C40.4533 29.3497 39.8008 28.0566 39.8008 26.4572C39.8008 24.8578 40.2838 23.5647 41.8856 23.5647C43.2839 23.5647 43.767 24.8578 43.767 26.4572Z" fill="#2C2C2C"/>
<path d="M50.9203 26.1681C50.9203 27.7675 50.5644 29.0606 49.0389 29.0606C47.6067 29.0606 46.9541 27.7675 46.9541 26.1681C46.9541 24.5687 47.4372 23.2756 49.0389 23.2756C50.4373 23.2756 50.9203 24.5687 50.9203 26.1681Z" fill="#2C2C2C"/>
<path d="M46.2715 29.4309C46.7072 29.5047 46.9297 29.7325 47.04 29.9641C47.1618 30.2199 47.1423 30.469 47.0996 30.5823C47.0814 30.5944 47.0365 30.6218 46.9443 30.6497C46.7904 30.6962 46.584 30.7182 46.374 30.6965C45.9364 30.6512 45.675 30.4562 45.6201 30.1438C45.5813 29.9222 45.6191 29.8015 45.6553 29.7356C45.6946 29.6639 45.7618 29.6014 45.8613 29.5491C45.9626 29.4959 46.0779 29.4636 46.1748 29.4456C46.2136 29.4383 46.2469 29.4336 46.2715 29.4309Z" fill="#93D1E0" stroke="#2C2C2C"/>
<path d="M52.5674 27.9408C52.6776 27.9238 52.7962 27.9153 52.9064 27.9153C54.042 27.9153 55.0336 28.5363 55.559 29.4551" stroke="#2C2C2C" stroke-miterlimit="10" stroke-linecap="round"/>
<path d="M50.2882 29.4048L50.2539 29.4565" stroke="#2C2C2C" stroke-miterlimit="10" stroke-linecap="round"/>
<path d="M42.3555 33.7354C42.3555 33.7354 46.0948 32.3673 48.9142 36.7964" stroke="#2C2C2C" stroke-miterlimit="10" stroke-linecap="round"/>
</g>
<g filter="url(#filter3_g_40000879_11650)">
<path d="M46.3512 21.7778C44.574 21.7778 42.7711 21.7326 40.9939 21.6356L38.4891 21.4999C37.8452 21.4676 37.2399 21.1573 36.8343 20.6596C36.4286 20.1554 36.2483 19.5026 36.3449 18.8627L36.8471 15.5403C37.0081 14.4738 37.9031 13.6529 38.9785 13.5883L40.3693 13.5042C42.3525 13.3879 44.368 13.3232 46.3576 13.3232C48.3473 13.3232 50.3628 13.3814 52.346 13.5042L53.7368 13.5883C54.8122 13.6529 55.7072 14.4738 55.8682 15.5403L56.364 18.8627C56.4606 19.5026 56.2803 20.1554 55.8746 20.6596C55.4689 21.1638 54.8637 21.4676 54.2198 21.4999L51.715 21.6356C49.9378 21.7326 48.1348 21.7778 46.3576 21.7778H46.3512Z" fill="#EEEDEB"/>
<path d="M46.3506 13.6528C48.3403 13.6528 50.33 13.711 52.3197 13.8274L53.7105 13.9114C54.6377 13.9696 55.404 14.6677 55.5392 15.592L56.035 18.9143C56.2089 20.0714 55.3525 21.1185 54.1934 21.1831L51.6886 21.3189C49.9114 21.4158 48.1278 21.4611 46.3506 21.4611C44.5734 21.4611 42.7898 21.4158 41.0126 21.3189L38.5078 21.1831C37.3488 21.1185 36.4924 20.0714 36.6663 18.9143L37.1621 15.592C37.3037 14.6677 38.0635 13.9696 38.9908 13.9114L40.3816 13.8274C42.3713 13.711 44.361 13.6528 46.3506 13.6528ZM46.3506 13.0065C44.3545 13.0065 42.3326 13.0646 40.343 13.1874L38.9521 13.2715C37.7287 13.3426 36.7049 14.2798 36.5246 15.5015L36.0288 18.8174C35.9193 19.5478 36.1254 20.2911 36.589 20.8664C37.0526 21.4352 37.7416 21.7907 38.4756 21.8295L40.9804 21.9652C42.7641 22.0622 44.567 22.1074 46.3506 22.1074C48.1343 22.1074 49.9436 22.0622 51.7208 21.9652L54.2256 21.8295C54.9597 21.7907 55.6487 21.4417 56.1123 20.8664C56.5759 20.2911 56.7819 19.5478 56.6725 18.8174L56.1767 15.495C55.9964 14.2798 54.9725 13.3426 53.7491 13.265L52.3583 13.181C50.3686 13.0646 48.3467 13 46.3506 13V13.0065Z" fill="#2C2C2C"/>
</g>
<g filter="url(#filter4_g_40000879_11650)">
<path d="M54.2521 13.9538C55.2439 14.0056 56.0635 14.7126 56.2081 15.6336L56.7385 18.9675C56.9244 20.1285 56.0084 21.1857 54.7686 21.2441L52.0894 21.3803C48.2874 21.5749 44.4786 21.5749 40.6698 21.3803L37.9974 21.2441C36.8609 21.1922 36 20.3036 36 19.2723C36 19.3761 36.0482 19.4539 36.0964 19.4993C36.1515 19.5642 36.2548 19.6355 36.4201 19.642L39.3611 19.7782C41.4067 19.869 43.4799 19.9144 45.5324 19.9144C47.5849 19.9144 49.6581 19.869 51.7037 19.7782L54.6447 19.642C54.81 19.629 54.9064 19.5642 54.9684 19.4993C55.0235 19.4409 55.0855 19.3372 55.0579 19.2075L54.4725 14.2716C54.438 14.0964 54.2658 13.9538 54.0592 13.9473H54.2521V13.9538Z" fill="#2C2C2C"/>
</g>
<g filter="url(#filter5_g_40000879_11650)">
<path d="M57.7061 22.926V30.87" stroke="#2C2C2C" stroke-miterlimit="10" stroke-linecap="round"/>
<path d="M59.3545 22.4736V26.9013" stroke="#2C2C2C" stroke-miterlimit="10" stroke-linecap="round"/>
<path d="M61.0098 23.2815V24.9556" stroke="#2C2C2C" stroke-miterlimit="10" stroke-linecap="round"/>
</g>
</g>
<defs>
<filter id="filter0_f_40000879_11650" x="25.0989" y="94.0989" width="45.2749" height="25.4946" filterUnits="userSpaceOnUse" color-interpolation-filters="sRGB">
<feFlood flood-opacity="0" result="BackgroundImageFix"/>
<feBlend mode="normal" in="SourceGraphic" in2="BackgroundImageFix" result="shape"/>
<feGaussianBlur stdDeviation="4.45055" result="effect1_foregroundBlur_40000879_11650"/>
</filter>
<filter id="filter1_g_40000879_11650" x="23.1" y="8.1" width="45.8" height="85.8" filterUnits="userSpaceOnUse" color-interpolation-filters="sRGB">
<feFlood flood-opacity="0" result="BackgroundImageFix"/>
<feBlend mode="normal" in="SourceGraphic" in2="BackgroundImageFix" result="shape"/>
<feTurbulence type="fractalNoise" baseFrequency="0.66666668653488159 0.66666668653488159" numOctaves="3" seed="7043" />
<feDisplacementMap in="shape" scale="0.80000001192092896" xChannelSelector="R" yChannelSelector="G" result="displacedImage" width="100%" height="100%" />
<feMerge result="effect1_texture_40000879_11650">
<feMergeNode in="displacedImage"/>
</feMerge>
</filter>
<filter id="filter2_g_40000879_11650" x="38.0492" y="18.1" width="18.4094" height="19.5964" filterUnits="userSpaceOnUse" color-interpolation-filters="sRGB">
<feFlood flood-opacity="0" result="BackgroundImageFix"/>
<feBlend mode="normal" in="SourceGraphic" in2="BackgroundImageFix" result="shape"/>
<feTurbulence type="fractalNoise" baseFrequency="0.66666668653488159 0.66666668653488159" numOctaves="3" seed="7043" />
<feDisplacementMap in="shape" scale="0.80000001192092896" xChannelSelector="R" yChannelSelector="G" result="displacedImage" width="100%" height="100%" />
<feMerge result="effect1_texture_40000879_11650">
<feMergeNode in="displacedImage"/>
</feMerge>
</filter>
<filter id="filter3_g_40000879_11650" x="35.6" y="12.6" width="21.5012" height="9.90742" filterUnits="userSpaceOnUse" color-interpolation-filters="sRGB">
<feFlood flood-opacity="0" result="BackgroundImageFix"/>
<feBlend mode="normal" in="SourceGraphic" in2="BackgroundImageFix" result="shape"/>
<feTurbulence type="fractalNoise" baseFrequency="0.66666668653488159 0.66666668653488159" numOctaves="3" seed="7043" />
<feDisplacementMap in="shape" scale="0.80000001192092896" xChannelSelector="R" yChannelSelector="G" result="displacedImage" width="100%" height="100%" />
<feMerge result="effect1_texture_40000879_11650">
<feMergeNode in="displacedImage"/>
</feMerge>
</filter>
<filter id="filter4_g_40000879_11650" x="35.6" y="13.5473" width="21.5627" height="8.37886" filterUnits="userSpaceOnUse" color-interpolation-filters="sRGB">
<feFlood flood-opacity="0" result="BackgroundImageFix"/>
<feBlend mode="normal" in="SourceGraphic" in2="BackgroundImageFix" result="shape"/>
<feTurbulence type="fractalNoise" baseFrequency="0.66666668653488159 0.66666668653488159" numOctaves="3" seed="7043" />
<feDisplacementMap in="shape" scale="0.80000001192092896" xChannelSelector="R" yChannelSelector="G" result="displacedImage" width="100%" height="100%" />
<feMerge result="effect1_texture_40000879_11650">
<feMergeNode in="displacedImage"/>
</feMerge>
</filter>
<filter id="filter5_g_40000879_11650" x="56.8061" y="21.5736" width="5.10371" height="10.1962" filterUnits="userSpaceOnUse" color-interpolation-filters="sRGB">
<feFlood flood-opacity="0" result="BackgroundImageFix"/>
<feBlend mode="normal" in="SourceGraphic" in2="BackgroundImageFix" result="shape"/>
<feTurbulence type="fractalNoise" baseFrequency="0.66666668653488159 0.66666668653488159" numOctaves="3" seed="7043" />
<feDisplacementMap in="shape" scale="0.80000001192092896" xChannelSelector="R" yChannelSelector="G" result="displacedImage" width="100%" height="100%" />
<feMerge result="effect1_texture_40000879_11650">
<feMergeNode in="displacedImage"/>
</feMerge>
</filter>
<clipPath id="clip0_40000879_11650">
<rect width="90" height="117" fill="white"/>
</clipPath>
</defs>
</svg>
