<svg width="90" height="117" viewBox="0 0 90 117" fill="none" xmlns="http://www.w3.org/2000/svg">
<g clip-path="url(#clip0_40000879_11633)">
<g filter="url(#filter0_f_40000879_11633)">
<ellipse cx="47.7363" cy="106.846" rx="13.7363" ry="3.84615" fill="#9C9C9C"/>
</g>
<path d="M46.4961 2C60.5192 2.00017 72.0615 11.9586 72.0615 24.3389C72.0615 27.4633 71.3414 30.4837 69.9238 33.3193L69.9248 33.3203C69.0745 35.0305 69.2142 37.3003 70.4072 39.417L70.4082 39.418C72.1833 42.5707 73.1289 46.1146 73.1289 49.6709C73.1289 52.6712 72.4889 55.5853 71.2207 58.3418C70.4449 60.0386 70.5302 61.7894 71.4092 63.1641H71.4102C73.7583 66.8285 75 71.0061 75 75.2393C75 86.9028 65.7057 96.6318 53.3047 99.2832L49.6768 105.057H49.6895L49.1572 105.899C48.2208 107.383 45.9636 107.433 44.9482 106.038L44.8545 105.898L40.8359 99.5068C27.8707 97.2214 18 87.2556 18 75.2393C18 71.0061 19.2417 66.8285 21.5898 63.1641C22.4699 61.7881 22.5618 60.039 21.7793 58.3447V58.3438C20.5106 55.5867 19.8711 52.6632 19.8711 49.6709C19.8711 46.1144 20.8169 42.5613 22.6006 39.3916C23.7115 37.4223 23.9113 35.3056 23.2256 33.6406L23.0762 33.3135C21.6581 30.4775 20.9385 27.4556 20.9385 24.3389C20.9385 11.9587 32.4726 2 46.4961 2Z" fill="#93D1E0"/>
<path d="M46.4961 2L46.4961 1.5H46.4961V2ZM72.0615 24.3389L72.5615 24.3389V24.3389H72.0615ZM69.9238 33.3193L69.4766 33.0958L69.3155 33.4181L69.5703 33.6729L69.9238 33.3193ZM69.9248 33.3203L70.3725 33.5429L70.5326 33.221L70.2784 32.9668L69.9248 33.3203ZM70.4072 39.417L69.9716 39.6625L70.0053 39.7221L70.0537 39.7705L70.4072 39.417ZM70.4082 39.418L70.8439 39.1727L70.8102 39.1129L70.7618 39.0644L70.4082 39.418ZM73.1289 49.6709H73.6289H73.1289ZM71.2207 58.3418L70.7665 58.1328L70.766 58.1339L71.2207 58.3418ZM71.4092 63.1641L70.9879 63.4334L71.1354 63.6641H71.4092V63.1641ZM71.4102 63.1641L71.8311 62.8943L71.6836 62.6641H71.4102V63.1641ZM75 75.2393H75.5V75.2393L75 75.2393ZM53.3047 99.2832L53.2001 98.7943L52.9937 98.8384L52.8813 99.0172L53.3047 99.2832ZM49.6768 105.057L49.2534 104.791L48.772 105.557H49.6768V105.057ZM49.6895 105.057L50.1122 105.324L50.5966 104.557H49.6895V105.057ZM49.1572 105.899L48.7345 105.632L48.7344 105.633L49.1572 105.899ZM44.9482 106.038L44.5331 106.317L44.5384 106.325L44.544 106.332L44.9482 106.038ZM44.8545 105.898L44.4312 106.165L44.4352 106.171L44.4394 106.177L44.8545 105.898ZM40.8359 99.5068L41.2592 99.2407L41.1412 99.0529L40.9227 99.0144L40.8359 99.5068ZM18 75.2393L17.5 75.2393V75.2393H18ZM21.5898 63.1641L22.0108 63.4338L22.0111 63.4335L21.5898 63.1641ZM21.7793 58.3447H21.2793V58.4546L21.3254 58.5544L21.7793 58.3447ZM21.7793 58.3438H22.2793V58.2342L22.2335 58.1347L21.7793 58.3438ZM19.8711 49.6709H19.3711H19.8711ZM22.6006 39.3916L22.1651 39.1459L22.1648 39.1464L22.6006 39.3916ZM23.2256 33.6406L23.6879 33.4502L23.6843 33.4415L23.6804 33.4329L23.2256 33.6406ZM23.0762 33.3135L23.531 33.1058L23.5273 33.0977L23.5234 33.0899L23.0762 33.3135ZM20.9385 24.3389H20.4385V24.3389L20.9385 24.3389ZM46.4961 2L46.4961 2.5C60.3105 2.50017 71.5615 12.2977 71.5615 24.3389H72.0615H72.5615C72.5615 11.6195 60.7279 1.50018 46.4961 1.5L46.4961 2ZM72.0615 24.3389L71.5615 24.3389C71.5615 27.3843 70.8601 30.3283 69.4766 33.0958L69.9238 33.3193L70.3711 33.5429C71.8227 30.6391 72.5615 27.5423 72.5615 24.3389L72.0615 24.3389ZM69.9238 33.3193L69.5703 33.6729L69.5713 33.6739L69.9248 33.3203L70.2784 32.9668L70.2774 32.9658L69.9238 33.3193ZM69.9248 33.3203L69.4771 33.0977C68.5376 34.9875 68.7159 37.4345 69.9716 39.6625L70.4072 39.417L70.8428 39.1715C69.7124 37.166 69.6115 35.0736 70.3725 33.5429L69.9248 33.3203ZM70.4072 39.417L70.0537 39.7705L70.0546 39.7715L70.4082 39.418L70.7618 39.0644L70.7608 39.0634L70.4072 39.417ZM70.4082 39.418L69.9725 39.6633C71.7066 42.7432 72.6289 46.2028 72.6289 49.6709H73.1289H73.6289C73.6289 46.0264 72.66 42.3983 70.8439 39.1727L70.4082 39.418ZM73.1289 49.6709H72.6289C72.6289 52.5984 72.0048 55.4413 70.7665 58.1328L71.2207 58.3418L71.6749 58.5508C72.9731 55.7293 73.6289 52.7439 73.6289 49.6709H73.1289ZM71.2207 58.3418L70.766 58.1339C69.9288 59.965 70.0061 61.898 70.9879 63.4334L71.4092 63.1641L71.8304 62.8947C71.0542 61.6808 70.9611 60.1121 71.6754 58.5497L71.2207 58.3418ZM71.4092 63.1641V63.6641H71.4102V63.1641V62.6641H71.4092V63.1641ZM71.4102 63.1641L70.9892 63.4338C73.2872 67.0201 74.5 71.1045 74.5 75.2393L75 75.2393L75.5 75.2393C75.5 70.9077 74.2293 66.6369 71.8311 62.8943L71.4102 63.1641ZM75 75.2393H74.5C74.5 86.6155 65.4248 96.1806 53.2001 98.7943L53.3047 99.2832L53.4092 99.7722C65.9866 97.0831 75.5 87.19 75.5 75.2393H75ZM53.3047 99.2832L52.8813 99.0172L49.2534 104.791L49.6768 105.057L50.1001 105.323L53.728 99.5492L53.3047 99.2832ZM49.6768 105.057V105.557H49.6895V105.057V104.557H49.6768V105.057ZM49.6895 105.057L49.2667 104.79L48.7345 105.632L49.1572 105.899L49.58 106.166L50.1122 105.324L49.6895 105.057ZM49.1572 105.899L48.7344 105.633C47.989 106.814 46.1627 106.857 45.3525 105.744L44.9482 106.038L44.544 106.332C45.7645 108.009 48.4525 107.953 49.5801 106.166L49.1572 105.899ZM44.9482 106.038L45.3634 105.759L45.2696 105.62L44.8545 105.898L44.4394 106.177L44.5331 106.317L44.9482 106.038ZM44.8545 105.898L45.2778 105.632L41.2592 99.2407L40.8359 99.5068L40.4126 99.773L44.4312 106.165L44.8545 105.898ZM40.8359 99.5068L40.9227 99.0144C28.1392 96.761 18.5 86.9591 18.5 75.2393H18H17.5C17.5 87.5521 27.6022 97.6817 40.7491 99.9992L40.8359 99.5068ZM18 75.2393L18.5 75.2393C18.5 71.1045 19.7128 67.0201 22.0108 63.4338L21.5898 63.1641L21.1689 62.8943C18.7707 66.6369 17.5 70.9077 17.5 75.2393L18 75.2393ZM21.5898 63.1641L22.0111 63.4335C22.9931 61.898 23.0789 59.9662 22.2332 58.1351L21.7793 58.3447L21.3254 58.5544C22.0446 60.1117 21.9466 61.6782 21.1686 62.8947L21.5898 63.1641ZM21.7793 58.3447H22.2793V58.3438H21.7793H21.2793V58.3447H21.7793ZM21.7793 58.3438L22.2335 58.1347C20.9948 55.4429 20.3711 52.5906 20.3711 49.6709H19.8711H19.3711C19.3711 52.7358 20.0264 55.7306 21.3251 58.5528L21.7793 58.3438ZM19.8711 49.6709H20.3711C20.3711 46.2027 21.2936 42.7337 23.0363 39.6368L22.6006 39.3916L22.1648 39.1464C20.3401 42.3889 19.3711 46.0262 19.3711 49.6709H19.8711ZM22.6006 39.3916L23.0361 39.6373C24.206 37.5634 24.4436 35.2851 23.6879 33.4502L23.2256 33.6406L22.7633 33.831C23.379 35.3261 23.2171 37.2812 22.1651 39.1459L22.6006 39.3916ZM23.2256 33.6406L23.6804 33.4329L23.531 33.1058L23.0762 33.3135L22.6214 33.5212L22.7708 33.8483L23.2256 33.6406ZM23.0762 33.3135L23.5234 33.0899C22.1394 30.3221 21.4385 27.3766 21.4385 24.3389L20.9385 24.3389L20.4385 24.3389C20.4385 27.5346 21.1768 30.6329 22.629 33.5371L23.0762 33.3135ZM20.9385 24.3389H21.4385C21.4385 12.2976 32.6815 2.5 46.4961 2.5V2V1.5C32.2636 1.5 20.4385 11.6198 20.4385 24.3389H20.9385Z" fill="#5C5C5C"/>
<g filter="url(#filter1_g_40000879_11633)">
<path d="M68 75.3833C68 85.1128 58.1453 93 46 93C33.8547 93 24 85.1128 24 75.3833C24 72.4033 24.9233 69.5931 26.548 67.1395C28.9007 63.5822 29.0694 59.1929 27.2494 55.3639C26.406 53.5895 25.9443 51.6707 25.9443 49.6586C25.9443 47.2305 26.6191 44.9381 27.8176 42.8751C30.1525 38.8763 30.6142 34.0795 28.4923 29.9703C27.569 28.1874 27.063 26.2262 27.063 24.1801C27.063 15.8005 35.5416 9 46 9C56.4584 9 64.9459 15.8005 64.9459 24.1801C64.9459 26.2347 64.4399 28.1959 63.5165 29.9788C61.3947 34.0879 61.8563 38.8848 64.1913 42.8921C65.3898 44.9466 66.0557 47.2389 66.0557 49.6586C66.0557 51.6707 65.594 53.5895 64.7506 55.3639C62.9306 59.1929 63.0993 63.5822 65.452 67.1395C67.0767 69.6016 68 72.4033 68 75.3833Z" fill="#EEEDEB"/>
<path d="M68 75.3833C68 85.1128 58.1453 93 46 93C33.8547 93 24 85.1128 24 75.3833C24 72.4033 24.9233 69.5931 26.548 67.1395C28.9007 63.5822 29.0694 59.1929 27.2494 55.3639C26.406 53.5895 25.9443 51.6707 25.9443 49.6586C25.9443 47.2305 26.6191 44.9381 27.8176 42.8751C30.1525 38.8763 30.6142 34.0795 28.4923 29.9703C27.569 28.1874 27.063 26.2262 27.063 24.1801C27.063 15.8005 35.5416 9 46 9C56.4584 9 64.9459 15.8005 64.9459 24.1801C64.9459 26.2347 64.4399 28.1959 63.5165 29.9788C61.3947 34.0879 61.8563 38.8848 64.1913 42.8921C65.3898 44.9466 66.0557 47.2389 66.0557 49.6586C66.0557 51.6707 65.594 53.5895 64.7506 55.3639C62.9306 59.1929 63.0993 63.5822 65.452 67.1395C67.0767 69.6016 68 72.4033 68 75.3833Z" stroke="#2C2C2C" stroke-miterlimit="10"/>
</g>
<g filter="url(#filter2_g_40000879_11633)">
<path d="M45.7371 25.0056C45.7371 27.9922 45.0681 30.4222 42.216 30.4222C39.54 30.4222 38.3076 28.0011 38.3076 25.0056C38.3076 22.0102 39.2143 19.5891 42.216 19.5891C44.8304 19.5891 45.7371 22.0102 45.7371 25.0056Z" fill="#FBFBFB" stroke="#2C2C2C" stroke-miterlimit="10"/>
<path d="M53.1667 25.0056C53.1667 25.1117 53.1667 25.2089 53.1667 25.3149C53.1491 26.711 52.9643 27.9569 52.4625 28.8759C51.459 28.9819 50.5964 29.5651 50.0946 30.3957C49.9538 30.4133 49.8041 30.4222 49.6545 30.4222C46.9785 30.4222 45.7461 28.0011 45.7461 25.0056C45.7461 22.0102 46.6616 19.5891 49.6545 19.5891C52.172 19.5891 53.1051 21.8335 53.1755 24.6787C53.1755 24.7847 53.1755 24.8996 53.1755 25.0056H53.1667Z" fill="#FBFBFB" stroke="#2C2C2C" stroke-miterlimit="10"/>
<path d="M44.1968 25.306C44.1968 26.9672 43.8271 28.3103 42.2426 28.3103C40.755 28.3103 40.0771 26.9672 40.0771 25.306C40.0771 23.6448 40.5789 22.3018 42.2426 22.3018C43.695 22.3018 44.1968 23.6448 44.1968 25.306Z" fill="#2C2C2C"/>
<path d="M51.6255 25.006C51.6255 26.6672 51.2558 28.0103 49.6713 28.0103C48.1837 28.0103 47.5059 26.6672 47.5059 25.006C47.5059 23.3448 48.0076 22.0017 49.6713 22.0017C51.1237 22.0017 51.6255 23.3448 51.6255 25.006Z" fill="#2C2C2C"/>
<path d="M45.9131 30.4033C46.3742 30.4804 46.612 30.7211 46.7295 30.9678C46.8591 31.24 46.8397 31.508 46.792 31.6299C46.7764 31.6408 46.7279 31.6736 46.6172 31.707C46.4547 31.7561 46.238 31.7796 46.0176 31.7568C45.5586 31.7093 45.2767 31.503 45.2178 31.166C45.1768 30.9322 45.2168 30.8024 45.2568 30.7295C45.3 30.651 45.3729 30.5838 45.4785 30.5283C45.586 30.4719 45.7077 30.4379 45.8096 30.4189C45.8513 30.4112 45.8869 30.4061 45.9131 30.4033Z" fill="#93D1E0" stroke="#2C2C2C"/>
<path d="M52.4521 28.8751C52.5666 28.8575 52.6898 28.8486 52.8043 28.8486C53.9838 28.8486 55.0137 29.4937 55.5595 30.448" stroke="#2C2C2C" stroke-miterlimit="10" stroke-linecap="round"/>
<path d="M50.0855 30.3958L50.0498 30.4494" stroke="#2C2C2C" stroke-miterlimit="10" stroke-linecap="round"/>
<path d="M47.7006 33.808C47.7006 33.808 45.5596 34.9358 46.5151 35.8772C47.4706 36.8186 49.302 37.7688 49.7709 36.5255C50.2398 35.2822 49.7709 33.7991 47.7095 33.7991L47.7006 33.808Z" stroke="#2C2C2C" stroke-miterlimit="10" stroke-linecap="round"/>
<path d="M37.5473 17.8634C37.5473 17.8634 38.818 12.2519 44.0732 17.6898" stroke="#2C2C2C" stroke-miterlimit="10" stroke-linecap="round"/>
</g>
</g>
<defs>
<filter id="filter0_f_40000879_11633" x="25.0989" y="94.0989" width="45.2749" height="25.4946" filterUnits="userSpaceOnUse" color-interpolation-filters="sRGB">
<feFlood flood-opacity="0" result="BackgroundImageFix"/>
<feBlend mode="normal" in="SourceGraphic" in2="BackgroundImageFix" result="shape"/>
<feGaussianBlur stdDeviation="4.45055" result="effect1_foregroundBlur_40000879_11633"/>
</filter>
<filter id="filter1_g_40000879_11633" x="23.1" y="8.1" width="45.8" height="85.8" filterUnits="userSpaceOnUse" color-interpolation-filters="sRGB">
<feFlood flood-opacity="0" result="BackgroundImageFix"/>
<feBlend mode="normal" in="SourceGraphic" in2="BackgroundImageFix" result="shape"/>
<feTurbulence type="fractalNoise" baseFrequency="0.66666668653488159 0.66666668653488159" numOctaves="3" seed="7043" />
<feDisplacementMap in="shape" scale="0.80000001192092896" xChannelSelector="R" yChannelSelector="G" result="displacedImage" width="100%" height="100%" />
<feMerge result="effect1_texture_40000879_11633">
<feMergeNode in="displacedImage"/>
</feMerge>
</filter>
<filter id="filter2_g_40000879_11633" x="36.6479" y="14.4169" width="19.8117" height="23.6027" filterUnits="userSpaceOnUse" color-interpolation-filters="sRGB">
<feFlood flood-opacity="0" result="BackgroundImageFix"/>
<feBlend mode="normal" in="SourceGraphic" in2="BackgroundImageFix" result="shape"/>
<feTurbulence type="fractalNoise" baseFrequency="0.66666668653488159 0.66666668653488159" numOctaves="3" seed="7043" />
<feDisplacementMap in="shape" scale="0.80000001192092896" xChannelSelector="R" yChannelSelector="G" result="displacedImage" width="100%" height="100%" />
<feMerge result="effect1_texture_40000879_11633">
<feMergeNode in="displacedImage"/>
</feMerge>
</filter>
<clipPath id="clip0_40000879_11633">
<rect width="90" height="117" fill="white"/>
</clipPath>
</defs>
</svg>
