<svg width="247" height="346" viewBox="0 0 247 346" fill="none" xmlns="http://www.w3.org/2000/svg">
<rect x="0.5" y="0.5" width="246" height="345" rx="14.5" stroke="#9C9C9C"/>
<g clip-path="url(#clip0_40003007_16514)">
<path d="M58.6656 261.343L58.5806 261.419C58.4723 261.496 58.3641 261.579 58.2559 261.671C58.3873 261.564 58.5264 261.45 58.6656 261.343Z" fill="#2C2C2C" stroke="#2C2C2C" stroke-width="0.948718" stroke-miterlimit="10" stroke-linecap="round"/>
<path d="M6.26905 275.871C-1.54071 273.805 -8.78836 271.399 -14.1523 269.089C-18.6082 267.172 -26.0663 263.959 -24.5061 258.116C-23.4379 254.115 -19.4824 252.711 -10.6438 253.63C-10.37 252.073 -9.68424 250.568 -8.56464 249.299L-7.41994 247.839L-13.9883 246.101C-16.2662 245.499 -18.2067 243.923 -19.3116 241.779C-20.5138 239.444 -20.6432 236.666 -19.6591 234.165C-12.2434 215.284 6.6216 204.555 24.2237 209.21C41.8258 213.865 52.85 232.499 49.8679 252.559C49.4759 255.211 47.9783 257.558 45.7698 258.991C44.0613 260.098 42.0404 260.563 40.086 260.32C40.4736 261.695 40.5938 263.178 40.4006 264.699C40.2135 266.221 39.7421 267.624 39.0463 268.852C41.172 270.605 42.5886 272.838 41.8347 275.661C40.2745 281.504 32.2034 280.611 27.3793 280.073C21.5709 279.428 14.0788 277.936 6.26905 275.871Z" fill="#FBFBFB" stroke="#9C9C9C" stroke-width="0.948718" stroke-miterlimit="10"/>
<g filter="url(#filter0_g_40003007_16514)">
<path d="M7.53413 271.108C23.1895 275.248 36.3852 276.715 37.0076 274.385C37.63 272.054 25.4433 266.808 9.78796 262.667C-5.86741 258.527 -19.0631 257.06 -19.6855 259.391C-20.3079 261.722 -8.12124 266.968 7.53413 271.108Z" fill="#2C2C2C"/>
<path d="M17.212 225.43L11.1397 265.18C11.1423 267.429 12.979 269.251 15.2521 269.251L29.5185 269.266C36.9928 269.274 37.6405 258.133 30.1894 257.557C29.9557 257.54 29.7204 257.529 29.4819 257.53C26.353 257.527 23.5572 258.3 20.3636 259.764L21.7189 225.433L17.2059 225.428L17.212 225.43Z" fill="#CBCBC5" stroke="#2C2C2C" stroke-width="0.948718" stroke-miterlimit="10"/>
<path d="M16.3462 261.842C17.0163 261.458 18.5093 260.551 21.3588 259.32L16.3462 261.842Z" fill="#CBCBC5"/>
<path d="M16.3462 261.842C17.0163 261.458 18.5093 260.551 21.3588 259.32" stroke="#2C2C2C" stroke-width="0.948718" stroke-miterlimit="10" stroke-linecap="round"/>
<path d="M15.3442 268.978C15.3442 268.978 30.3157 260.523 32.3058 263.928L15.3442 268.978Z" fill="#CBCBC5"/>
<path d="M15.3442 268.978C15.3442 268.978 30.3157 260.523 32.3058 263.928" stroke="#2C2C2C" stroke-width="0.948718" stroke-miterlimit="10" stroke-linecap="round"/>
<path d="M19.7049 221.304L-4.71462 252.469C-6.24556 254.122 -6.13602 256.697 -4.45543 258.217L6.07202 267.769C11.5862 272.777 19.6749 265.011 14.5632 259.606C14.4025 259.437 14.2342 259.271 14.0582 259.11C11.7514 257.018 8.30986 255.435 4.95316 254.377L23.0391 224.323L19.7125 221.299L19.7049 221.304Z" fill="#CBCBC5" stroke="#2C2C2C" stroke-width="0.948718" stroke-miterlimit="10"/>
<path d="M1.39355 253.517C2.15475 253.686 3.87229 254.019 6.82503 255.017L1.39355 253.517Z" fill="#CBCBC5"/>
<path d="M1.39355 253.517C2.15475 253.686 3.87229 254.019 6.82503 255.017" stroke="#2C2C2C" stroke-width="0.948718" stroke-miterlimit="10" stroke-linecap="round"/>
<path d="M40.6412 255.14L-12.3338 241.13C-14.4369 240.573 -15.5294 238.044 -14.6309 235.743C-8.19491 219.371 7.97225 209.685 23.3387 213.749C38.7051 217.813 47.9076 234.209 45.3207 251.605C44.9586 254.048 42.7427 255.702 40.6396 255.146L40.6412 255.14Z" fill="#EEEDEB" stroke="#2C2C2C" stroke-width="0.948718" stroke-miterlimit="10"/>
<path d="M18.6372 230.104C17.8464 233.055 16.5378 235.271 13.6743 234.517C10.9913 233.81 10.399 231.093 11.1898 228.142C11.9806 225.19 13.5299 223.038 16.5378 223.831C19.1546 224.52 19.428 227.153 18.6372 230.104Z" fill="#FBFBFB" stroke="#2C2C2C" stroke-width="0.948718" stroke-miterlimit="10"/>
<path d="M26.0909 232.076C25.3001 235.027 23.9914 237.243 21.1279 236.488C18.4449 235.781 17.8527 233.064 18.6435 230.113C19.4343 227.162 20.9836 225.009 23.9914 225.802C26.6082 226.492 26.8817 229.124 26.0909 232.076Z" fill="#FBFBFB" stroke="#2C2C2C" stroke-width="0.948718" stroke-miterlimit="10"/>
<path d="M18.5984 230.261C18.1599 231.897 17.4374 233.127 15.8493 232.709C14.3634 232.317 14.0332 230.81 14.4716 229.174C14.9101 227.537 15.7709 226.344 17.4373 226.783C18.8871 227.165 19.0368 228.625 18.5984 230.261Z" fill="#2C2C2C"/>
<path d="M26.0525 232.232C25.614 233.869 24.8915 235.099 23.3034 234.68C21.8175 234.289 21.4873 232.781 21.9257 231.145C22.3642 229.509 23.225 228.315 24.8914 228.754C26.3412 229.136 26.4909 230.596 26.0525 232.232Z" fill="#2C2C2C"/>
<path d="M17.2352 235.716C17.2665 235.738 17.2968 235.767 17.3202 235.799C17.3677 235.863 17.3661 235.903 17.3606 235.924C17.3557 235.942 17.3405 235.976 17.3027 236.023C17.2658 236.068 17.216 236.113 17.16 236.152C17.1054 236.189 17.0554 236.212 17.0204 236.224C16.9569 236.202 16.8926 236.17 16.8558 236.129C16.8384 236.109 16.8269 236.088 16.8206 236.06C16.8141 236.03 16.8092 235.971 16.8366 235.868C16.856 235.796 16.8833 235.765 16.9018 235.749C16.9251 235.729 16.9611 235.711 17.0133 235.699C17.0661 235.686 17.1219 235.683 17.167 235.684C17.1697 235.684 17.1725 235.684 17.175 235.684C17.181 235.686 17.2036 235.694 17.2352 235.716ZM17.2205 235.688L17.2177 235.687L17.217 235.686C17.2191 235.686 17.2206 235.687 17.2217 235.687L17.2205 235.688Z" fill="#A7E1B6" stroke="#2C2C2C" stroke-width="0.948718"/>
<path d="M11.6152 221.642C11.6152 221.642 13.4161 219.033 16.2574 220.777" stroke="#2C2C2C" stroke-width="0.948718" stroke-miterlimit="10" stroke-linecap="round"/>
<path d="M18.3721 239.163C18.3721 239.163 15.2296 239.749 14.4668 236.527" stroke="#2C2C2C" stroke-width="0.948718" stroke-miterlimit="10" stroke-linecap="round"/>
</g>
</g>
<g clip-path="url(#clip1_40003007_16514)">
<path d="M250.521 94.7172C258.331 92.6517 265.579 90.2449 270.943 87.9353C275.399 86.0187 282.857 82.8053 281.297 76.9622C280.228 72.9617 276.273 71.5578 267.434 72.4761C267.161 70.9194 266.475 69.4143 265.355 68.1449L264.21 66.6848L270.779 64.9477C273.057 64.3452 274.997 62.7693 276.102 60.6252C277.304 58.2898 277.434 55.5128 276.45 53.0111C269.034 34.1305 250.169 23.4008 232.567 28.0561C214.965 32.7113 203.941 51.3458 206.923 71.4053C207.315 74.0572 208.812 76.404 211.021 77.8372C212.729 78.9445 214.75 79.4092 216.705 79.166C216.317 80.5413 216.197 82.0241 216.39 83.5449C216.577 85.0672 217.048 86.4699 217.744 87.6987C215.619 89.4509 214.202 91.6839 214.956 94.5073C216.516 100.35 224.587 99.4568 229.411 98.9192C235.22 98.274 242.712 96.7826 250.521 94.7172Z" fill="#FBFBFB" stroke="#9C9C9C" stroke-width="0.948718" stroke-miterlimit="10"/>
<g filter="url(#filter1_g_40003007_16514)">
<path d="M249.256 89.9542C233.601 94.0946 220.405 95.5615 219.783 93.2307C219.161 90.8999 231.347 85.6539 247.003 81.5135C262.658 77.3732 275.854 75.9062 276.476 78.2371C277.098 80.5679 264.912 85.8139 249.256 89.9542Z" fill="#2C2C2C"/>
<path d="M239.579 44.2758L245.651 84.0263C245.648 86.2754 243.812 88.0971 241.538 88.0975L227.272 88.1122C219.798 88.1203 219.15 76.9787 226.601 76.4035C226.835 76.3865 227.07 76.3754 227.309 76.3763C230.438 76.3733 233.233 77.146 236.427 78.6101L235.072 44.2789L239.585 44.2742L239.579 44.2758Z" fill="#CBCBC5" stroke="#2C2C2C" stroke-width="0.948718" stroke-miterlimit="10"/>
<path d="M240.445 80.6879C239.775 80.3037 238.282 79.3971 235.432 78.166L240.445 80.6879Z" fill="#CBCBC5"/>
<path d="M240.445 80.6879C239.775 80.3037 238.282 79.3971 235.432 78.166" stroke="#2C2C2C" stroke-width="0.948718" stroke-miterlimit="10" stroke-linecap="round"/>
<path d="M241.446 87.8246C241.446 87.8246 226.475 79.3691 224.485 82.7742L241.446 87.8246Z" fill="#CBCBC5"/>
<path d="M241.446 87.8246C241.446 87.8246 226.475 79.3691 224.485 82.7742" stroke="#2C2C2C" stroke-width="0.948718" stroke-miterlimit="10" stroke-linecap="round"/>
<path d="M237.085 40.1499L261.505 71.3153C263.036 72.9678 262.926 75.5435 261.245 77.063L250.718 86.6154C245.204 91.6233 237.115 83.8572 242.227 78.4526C242.388 78.2828 242.556 78.1175 242.732 77.9564C245.039 75.8642 248.48 74.2811 251.837 73.2234L233.751 43.169L237.078 40.1455L237.085 40.1499Z" fill="#CBCBC5" stroke="#2C2C2C" stroke-width="0.948718" stroke-miterlimit="10"/>
<path d="M216.149 73.9861L269.124 59.9758C271.227 59.4196 272.32 56.8906 271.421 54.589C264.985 38.2176 248.818 28.5309 233.452 32.5948C218.085 36.6588 208.883 53.055 211.47 70.4508C211.832 72.8942 214.048 74.5483 216.151 73.9921L216.149 73.9861Z" fill="#EEEDEB" stroke="#2C2C2C" stroke-width="0.948718" stroke-miterlimit="10"/>
<path d="M238.154 48.9505C238.945 51.9016 240.253 54.1175 243.117 53.3629C245.8 52.6558 246.392 49.939 245.601 46.9878C244.81 44.0366 243.261 41.8842 240.253 42.6768C237.636 43.3665 237.363 45.9993 238.154 48.9505Z" fill="#FBFBFB" stroke="#2C2C2C" stroke-width="0.948718" stroke-miterlimit="10"/>
<path d="M230.699 50.9218C231.49 53.8729 232.799 56.0888 235.662 55.3342C238.345 54.6271 238.937 51.9103 238.147 48.9591C237.356 46.008 235.806 43.8555 232.799 44.6482C230.182 45.3378 229.908 47.9706 230.699 50.9218Z" fill="#FBFBFB" stroke="#2C2C2C" stroke-width="0.948718" stroke-miterlimit="10"/>
<path d="M238.192 49.1072C238.63 50.7435 239.353 51.9736 240.941 51.5551C242.427 51.1635 242.757 49.6559 242.318 48.0197C241.88 46.3835 241.019 45.1898 239.353 45.629C237.903 46.011 237.753 47.471 238.192 49.1072Z" fill="#2C2C2C"/>
<path d="M230.738 51.0786C231.176 52.7148 231.899 53.9449 233.487 53.5264C234.973 53.1348 235.303 51.6272 234.865 49.991C234.426 48.3548 233.565 47.1611 231.899 47.6003C230.449 47.9823 230.3 49.4423 230.738 51.0786Z" fill="#2C2C2C"/>
<path d="M239.556 54.5621C239.524 54.5843 239.494 54.6137 239.471 54.6452C239.423 54.7092 239.425 54.7492 239.43 54.7699C239.435 54.7879 239.451 54.8226 239.488 54.8688C239.525 54.9142 239.575 54.9594 239.631 54.9978C239.686 55.0353 239.736 55.0583 239.771 55.0701C239.834 55.048 239.898 55.0166 239.935 54.9751C239.953 54.9555 239.964 54.9344 239.97 54.9062C239.977 54.8767 239.982 54.8168 239.954 54.7145C239.935 54.6418 239.908 54.6111 239.889 54.5954C239.866 54.5757 239.83 54.5576 239.778 54.545C239.725 54.5323 239.669 54.529 239.624 54.53C239.621 54.5301 239.619 54.53 239.616 54.5301C239.61 54.5318 239.587 54.5399 239.556 54.5621ZM239.571 54.534L239.573 54.5333L239.574 54.5321C239.572 54.5323 239.57 54.5332 239.569 54.5333L239.571 54.534Z" fill="#A7E1B6" stroke="#2C2C2C" stroke-width="0.948718"/>
<path d="M245.176 40.4881C245.176 40.4881 243.375 37.8789 240.534 39.6228" stroke="#2C2C2C" stroke-width="0.948718" stroke-miterlimit="10" stroke-linecap="round"/>
<path d="M238.418 58.0097C238.418 58.0097 241.561 58.5955 242.324 55.3728" stroke="#2C2C2C" stroke-width="0.948718" stroke-miterlimit="10" stroke-linecap="round"/>
</g>
</g>
<g clip-path="url(#clip2_40003007_16514)">
<path d="M86.6433 -8.90933C95.5517 -10.0573 101.424 0.112988 95.9786 7.25683C101.424 14.4007 95.5517 24.5709 86.6433 23.423C83.1804 31.7148 71.4353 31.7148 67.9725 23.423C59.064 24.5709 53.1915 14.4007 58.6371 7.25683C53.1915 0.112988 59.064 -10.0573 67.9725 -8.90933C71.4353 -17.2011 83.1804 -17.2011 86.6433 -8.90933Z" fill="#A7E1B6"/>
</g>
<defs>
<filter id="filter0_g_40003007_16514" x="-20.088" y="211.969" width="66.696" height="63.9028" filterUnits="userSpaceOnUse" color-interpolation-filters="sRGB">
<feFlood flood-opacity="0" result="BackgroundImageFix"/>
<feBlend mode="normal" in="SourceGraphic" in2="BackgroundImageFix" result="shape"/>
<feTurbulence type="fractalNoise" baseFrequency="0.70270270109176636 0.70270270109176636" numOctaves="3" seed="7043" />
<feDisplacementMap in="shape" scale="0.75897437334060669" xChannelSelector="R" yChannelSelector="G" result="displacedImage" width="100%" height="100%" />
<feMerge result="effect1_texture_40003007_16514">
<feMergeNode in="displacedImage"/>
</feMerge>
</filter>
<filter id="filter1_g_40003007_16514" x="210.183" y="30.8151" width="66.696" height="63.9029" filterUnits="userSpaceOnUse" color-interpolation-filters="sRGB">
<feFlood flood-opacity="0" result="BackgroundImageFix"/>
<feBlend mode="normal" in="SourceGraphic" in2="BackgroundImageFix" result="shape"/>
<feTurbulence type="fractalNoise" baseFrequency="0.70270270109176636 0.70270270109176636" numOctaves="3" seed="7043" />
<feDisplacementMap in="shape" scale="0.75897437334060669" xChannelSelector="R" yChannelSelector="G" result="displacedImage" width="100%" height="100%" />
<feMerge result="effect1_texture_40003007_16514">
<feMergeNode in="displacedImage"/>
</feMerge>
</filter>
<clipPath id="clip0_40003007_16514">
<rect width="90.1282" height="86.3333" fill="white" transform="translate(1 200)"/>
</clipPath>
<clipPath id="clip1_40003007_16514">
<rect width="90.1282" height="86.3333" fill="white" transform="matrix(-1 0 0 1 246.128 16)"/>
</clipPath>
<clipPath id="clip2_40003007_16514">
<rect width="57.8718" height="38.8974" fill="white" transform="translate(48 1)"/>
</clipPath>
</defs>
</svg>