<svg width="191" height="191" viewBox="0 0 191 191" fill="none" xmlns="http://www.w3.org/2000/svg">
<path d="M112.974 19.9115C121.173 -5.30383 69.7992 -5.30383 77.9984 19.9115C69.7992 -5.30383 28.2301 24.8515 49.7027 40.4446C28.2445 24.8515 12.3622 73.6641 38.9091 73.6641C12.3622 73.6641 28.2445 122.477 49.7171 106.884C28.2445 122.477 69.7992 152.632 78.0127 127.417C69.8135 152.632 121.187 152.632 112.988 127.417C121.187 152.632 162.756 122.477 141.284 106.884C162.756 122.477 178.639 73.6641 152.092 73.6641C178.639 73.6641 162.756 24.8515 141.284 40.4446C162.756 24.8515 121.202 -5.30383 112.988 19.9115H112.974Z" fill="#EEEDEB"/>
<path d="M112.974 19.9115C121.173 -5.30383 69.7992 -5.30383 77.9984 19.9115C69.7992 -5.30383 28.2301 24.8515 49.7027 40.4446C28.2445 24.8515 12.3622 73.6641 38.9091 73.6641C12.3622 73.6641 28.2445 122.477 49.7171 106.884C28.2445 122.477 69.7992 152.632 78.0127 127.417C69.8135 152.632 121.187 152.632 112.988 127.417C121.187 152.632 162.756 122.477 141.284 106.884C162.756 122.477 178.639 73.6641 152.092 73.6641C178.639 73.6641 162.756 24.8515 141.284 40.4446C162.756 24.8515 121.202 -5.30383 112.988 19.9115H112.974Z" fill="#EEEDEB" stroke="#2C2C2C" stroke-miterlimit="10"/>
<path d="M99.4751 78.4476C99.4751 78.4476 105.485 80.1069 103.011 81.9777C100.537 83.8379 99.0627 83.1297 98.0627 82.0411C97.5679 81.4915 97.0112 79.3037 97.4442 78.7224C97.8772 78.1411 99.4751 78.4581 99.4751 78.4581V78.4476Z" fill="#FEE888" stroke="#2C2C2C" stroke-miterlimit="10"/>
<path d="M98.4656 65.1548C98.4656 72.3178 96.8713 78.1115 90.0346 78.1115C83.6431 78.1115 80.6987 72.3178 80.6987 65.1548C80.6987 63.8145 80.7705 62.5174 80.9429 61.3067C84.6772 62.4165 89.6181 62.503 94.7169 58.7125C95.4637 58.1648 96.225 57.5163 96.9862 56.7668C97.4602 57.8045 97.8193 58.9719 98.0634 60.2546C98.3363 61.7823 98.4656 63.4253 98.4656 65.1548Z" fill="#FBFBFB" stroke="#2C2C2C" stroke-miterlimit="10"/>
<path d="M116.233 65.1548C116.233 72.3177 114.653 78.1115 107.817 78.1115C101.411 78.1115 98.4663 72.3177 98.4663 65.1548C98.4663 63.5118 98.5812 61.9553 98.8541 60.514C103.062 61.7679 108.779 61.7535 114.553 56.3777C115.745 58.6837 116.233 61.7679 116.233 65.1548Z" fill="#FBFBFB" stroke="#2C2C2C" stroke-miterlimit="10"/>
<path d="M96.9867 56.7669C96.2254 57.5164 95.4642 58.1649 94.7173 58.7126C89.6185 62.5031 84.6777 62.4166 80.9434 61.3068C81.6902 56.0319 84.2181 52.2126 90.035 52.2126C93.4965 52.2126 95.7084 53.9854 96.9867 56.7669Z" stroke="#2C2C2C" stroke-miterlimit="10"/>
<path d="M98.4657 69.1471C98.4657 73.1105 97.5896 76.3244 93.7978 76.3244C90.2502 76.3244 88.6128 73.1105 88.6128 69.1471C88.6128 65.1837 89.8193 61.9697 93.7978 61.9697C97.2592 61.9697 98.4657 65.1837 98.4657 69.1471Z" fill="#2C2C2C"/>
<path d="M116.232 69.1471C116.232 73.1105 115.356 76.3244 111.564 76.3244C108.017 76.3244 106.379 73.1105 106.379 69.1471C106.379 65.1837 107.586 61.9697 111.564 61.9697C115.026 61.9697 116.232 65.1837 116.232 69.1471Z" fill="#2C2C2C"/>
<path d="M114.553 56.3778C108.779 61.7536 103.062 61.768 98.854 60.5142C99.7158 55.6572 102.272 52.2126 107.816 52.2126C111.106 52.2126 113.26 53.8124 114.553 56.3778Z" stroke="#2C2C2C" stroke-miterlimit="10" stroke-linecap="round"/>
<path d="M98.8534 60.5141C98.5805 60.4276 98.322 60.3411 98.0635 60.269" stroke="#2C2C2C" stroke-miterlimit="10" stroke-linecap="round"/>
<path d="M123.727 95.5825C123.727 100.245 120.963 101.989 118.593 101.989C116.224 101.989 113.459 100.245 113.459 95.5825C113.459 90.9205 118.593 83.2139 118.593 83.2139C118.593 83.2139 123.727 90.9205 123.727 95.5825Z" fill="#93D1E0"/>
<path d="M95.7061 95.8359C95.7061 95.8359 100.224 90.8884 102.104 93.1402L103.984 95.3761" stroke="#2C2C2C" stroke-miterlimit="10" stroke-linecap="round"/>
<path d="M114.829 80.1063C118.081 79.5038 120.494 77.8074 120.22 76.3175C119.946 74.8276 117.088 74.1083 113.837 74.7109C110.585 75.3135 108.171 77.0098 108.445 78.4997C108.719 79.9896 111.577 80.7089 114.829 80.1063Z" fill="#93D1E0"/>
<path d="M10.44 169.48C10.68 169.48 10.8533 169.567 10.96 169.74C11.08 169.913 11.14 170.113 11.14 170.34C11.14 170.567 11.08 170.767 10.96 170.94C10.8533 171.1 10.68 171.18 10.44 171.18H7.2V172.08C7.2 172.733 7.3 173.28 7.5 173.72C7.7 174.16 8.04 174.573 8.52 174.96C8.98667 175.347 9.42667 175.693 9.84 176C10.2533 176.307 10.62 176.573 10.94 176.8C11.1667 176.96 11.2867 177.153 11.3 177.38C11.3133 177.607 11.2467 177.82 11.1 178.02C10.9667 178.18 10.7867 178.307 10.56 178.4C10.3467 178.48 10.1133 178.433 9.86 178.26C9.62 178.087 9.30667 177.86 8.92 177.58C8.53333 177.287 8.12667 176.967 7.7 176.62C7.19333 176.207 6.83333 175.88 6.62 175.64C6.42 175.387 6.29333 175.16 6.24 174.96H6.22C6.16667 175.187 6.02667 175.433 5.8 175.7C5.58667 175.967 5.22667 176.3 4.72 176.7C4.28 177.047 3.84667 177.38 3.42 177.7C3.00667 178.007 2.6 178.3 2.2 178.58C1.97333 178.74 1.74 178.78 1.5 178.7C1.27333 178.62 1.1 178.493 0.98 178.32C0.833333 178.133 0.766667 177.92 0.78 177.68C0.793333 177.44 0.913333 177.233 1.14 177.06C1.62 176.727 2.08 176.4 2.52 176.08C2.97333 175.747 3.43333 175.393 3.9 175.02C4.36667 174.633 4.7 174.22 4.9 173.78C5.1 173.34 5.2 172.793 5.2 172.14V171.18H1.82C1.56667 171.18 1.38 171.1 1.26 170.94C1.15333 170.767 1.1 170.567 1.1 170.34C1.1 170.113 1.15333 169.913 1.26 169.74C1.38 169.567 1.56667 169.48 1.82 169.48H10.44ZM13.92 168.44C14.1867 168.44 14.42 168.507 14.62 168.64C14.82 168.773 14.92 168.987 14.92 169.28V172.76H17.12C17.3867 172.76 17.5733 172.847 17.68 173.02C17.8 173.193 17.86 173.393 17.86 173.62C17.86 173.873 17.8 174.087 17.68 174.26C17.5733 174.42 17.3867 174.5 17.12 174.5H14.92V178.42C14.92 178.713 14.82 178.927 14.62 179.06C14.42 179.193 14.1867 179.26 13.92 179.26C13.6533 179.26 13.42 179.193 13.22 179.06C13.02 178.927 12.92 178.713 12.92 178.42V169.28C12.92 168.987 13.02 168.773 13.22 168.64C13.42 168.507 13.6533 168.44 13.92 168.44ZM13.38 180.12C13.9667 180.12 14.3667 180.227 14.58 180.44C14.8067 180.653 14.92 181.047 14.92 181.62V186.2C14.92 186.493 14.82 186.707 14.62 186.84C14.42 186.973 14.1867 187.04 13.92 187.04C13.6533 187.04 13.42 186.973 13.22 186.84C13.02 186.707 12.92 186.493 12.92 186.2V182.24C12.92 181.973 12.78 181.84 12.5 181.84H3.8C3.54667 181.84 3.36 181.753 3.24 181.58C3.13333 181.407 3.08 181.207 3.08 180.98C3.08 180.753 3.13333 180.553 3.24 180.38C3.36 180.207 3.54667 180.12 3.8 180.12H13.38ZM24.1531 169.04C24.4198 169.04 24.6531 169.107 24.8531 169.24C25.0665 169.373 25.1731 169.587 25.1731 169.88V171.84C25.1731 172.48 25.2731 173.027 25.4731 173.48C25.6731 173.933 26.0065 174.36 26.4731 174.76C26.9398 175.147 27.3798 175.5 27.7931 175.82C28.2065 176.14 28.5731 176.413 28.8931 176.64C29.1198 176.8 29.2331 177 29.2331 177.24C29.2465 177.467 29.1798 177.673 29.0331 177.86C28.8998 178.033 28.7198 178.16 28.4931 178.24C28.2665 178.32 28.0331 178.273 27.7931 178.1C27.5398 177.913 27.2198 177.673 26.8331 177.38C26.4598 177.073 26.0598 176.747 25.6331 176.4C25.1398 176.013 24.7865 175.693 24.5731 175.44C24.3731 175.173 24.2465 174.94 24.1931 174.74H24.1731C24.1198 174.967 23.9798 175.22 23.7531 175.5C23.5398 175.767 23.1931 176.1 22.7131 176.5C22.2865 176.847 21.8665 177.18 21.4531 177.5C21.0398 177.82 20.6265 178.127 20.2131 178.42C19.9865 178.58 19.7531 178.627 19.5131 178.56C19.2865 178.48 19.1065 178.353 18.9731 178.18C18.8398 177.993 18.7731 177.78 18.7731 177.54C18.7731 177.287 18.8931 177.073 19.1331 176.9C19.5998 176.567 20.0531 176.233 20.4931 175.9C20.9331 175.567 21.3865 175.207 21.8531 174.82C22.3198 174.42 22.6531 173.993 22.8531 173.54C23.0531 173.073 23.1531 172.52 23.1531 171.88V169.88C23.1531 169.587 23.2531 169.373 23.4531 169.24C23.6531 169.107 23.8865 169.04 24.1531 169.04ZM32.6931 168.44C32.9465 168.44 33.1731 168.507 33.3731 168.64C33.5731 168.773 33.6731 168.987 33.6731 169.28V178.58C33.6731 178.86 33.5731 179.067 33.3731 179.2C33.1731 179.333 32.9465 179.4 32.6931 179.4C32.4265 179.4 32.1931 179.333 31.9931 179.2C31.7931 179.067 31.6931 178.86 31.6931 178.58V173.84H28.6531C28.3998 173.84 28.2131 173.76 28.0931 173.6C27.9865 173.427 27.9331 173.227 27.9331 173C27.9331 172.76 27.9865 172.56 28.0931 172.4C28.2131 172.227 28.3998 172.14 28.6531 172.14H31.6931V169.28C31.6931 168.987 31.7931 168.773 31.9931 168.64C32.1931 168.507 32.4265 168.44 32.6931 168.44ZM27.9131 179.58C29.7798 179.58 31.2198 179.9 32.2331 180.54C33.2598 181.167 33.7731 182.107 33.7731 183.36C33.7731 184.613 33.2598 185.553 32.2331 186.18C31.2198 186.82 29.7798 187.14 27.9131 187.14C26.0465 187.14 24.5998 186.82 23.5731 186.18C22.5598 185.553 22.0531 184.613 22.0531 183.36C22.0531 182.107 22.5598 181.167 23.5731 180.54C24.5998 179.9 26.0465 179.58 27.9131 179.58ZM27.9131 181.2C26.5531 181.2 25.5665 181.4 24.9531 181.8C24.3398 182.187 24.0331 182.707 24.0331 183.36C24.0331 184.027 24.3398 184.553 24.9531 184.94C25.5665 185.327 26.5531 185.52 27.9131 185.52C29.2731 185.52 30.2598 185.327 30.8731 184.94C31.4865 184.553 31.7931 184.027 31.7931 183.36C31.7931 182.693 31.4865 182.167 30.8731 181.78C30.2598 181.393 29.2731 181.2 27.9131 181.2ZM41.6662 173.34C42.9996 173.34 44.0396 173.647 44.7862 174.26C45.5463 174.86 45.9263 175.667 45.9263 176.68C45.9263 177.693 45.5463 178.507 44.7862 179.12C44.0396 179.72 42.9996 180.02 41.6662 180.02C40.3329 180.02 39.2862 179.72 38.5262 179.12C37.7796 178.507 37.4062 177.693 37.4062 176.68C37.4062 175.667 37.7796 174.86 38.5262 174.26C39.2862 173.647 40.3329 173.34 41.6662 173.34ZM41.6662 168.4C41.9329 168.4 42.1662 168.467 42.3662 168.6C42.5662 168.733 42.6662 168.947 42.6662 169.24V170.5H46.2462C46.4863 170.5 46.6596 170.587 46.7663 170.76C46.8863 170.933 46.9463 171.133 46.9463 171.36C46.9463 171.587 46.8863 171.787 46.7663 171.96C46.6596 172.133 46.4863 172.22 46.2462 172.22H36.8862C36.6462 172.22 36.4662 172.133 36.3462 171.96C36.2396 171.787 36.1862 171.587 36.1862 171.36C36.1862 171.133 36.2396 170.933 36.3462 170.76C36.4662 170.587 36.6462 170.5 36.8862 170.5H40.6662V169.24C40.6662 168.947 40.7662 168.733 40.9662 168.6C41.1796 168.467 41.4129 168.4 41.6662 168.4ZM41.6662 174.92C40.8662 174.92 40.2529 175.087 39.8262 175.42C39.4129 175.74 39.2062 176.16 39.2062 176.68C39.2062 177.187 39.4129 177.607 39.8262 177.94C40.2529 178.273 40.8662 178.44 41.6662 178.44C42.4796 178.44 43.0929 178.273 43.5063 177.94C43.9196 177.607 44.1262 177.187 44.1262 176.68C44.1262 176.16 43.9196 175.74 43.5063 175.42C43.0929 175.087 42.4796 174.92 41.6662 174.92ZM49.4663 168.44C49.7329 168.44 49.9662 168.507 50.1662 168.64C50.3663 168.773 50.4663 168.987 50.4663 169.28V173.78H52.6863C52.9396 173.78 53.1196 173.867 53.2263 174.04C53.3463 174.2 53.4063 174.4 53.4063 174.64C53.4063 174.88 53.3463 175.087 53.2263 175.26C53.1196 175.42 52.9396 175.5 52.6863 175.5H50.4663V181.32C50.4663 181.613 50.3663 181.827 50.1662 181.96C49.9662 182.093 49.7329 182.16 49.4663 182.16C49.2129 182.16 48.9863 182.093 48.7863 181.96C48.5862 181.827 48.4862 181.613 48.4862 181.32V169.28C48.4862 168.987 48.5862 168.773 48.7863 168.64C48.9863 168.507 49.2129 168.44 49.4663 168.44ZM40.0062 181.04C40.2596 181.04 40.4862 181.107 40.6862 181.24C40.8996 181.373 41.0062 181.587 41.0062 181.88V184.5C41.0062 184.647 41.0329 184.747 41.0862 184.8C41.1529 184.867 41.2662 184.9 41.4262 184.9H50.2262C50.4796 184.9 50.6596 184.987 50.7663 185.16C50.8863 185.333 50.9463 185.54 50.9463 185.78C50.9463 186.007 50.8863 186.207 50.7663 186.38C50.6596 186.553 50.4796 186.64 50.2262 186.64H40.5262C39.9396 186.64 39.5329 186.533 39.3062 186.32C39.0929 186.107 38.9862 185.713 38.9862 185.14V181.88C38.9862 181.587 39.0862 181.373 39.2862 181.24C39.4996 181.107 39.7396 181.04 40.0062 181.04ZM66.4494 169.8C67.036 169.8 67.436 169.907 67.6494 170.12C67.876 170.333 67.9894 170.727 67.9894 171.3V173.56C67.9894 174.12 67.956 174.627 67.8894 175.08C67.8227 175.52 67.696 175.94 67.5094 176.34C67.3227 176.74 67.0627 177.133 66.7294 177.52C66.396 177.893 65.9627 178.293 65.4294 178.72C64.9094 179.133 64.276 179.587 63.5294 180.08C62.7827 180.573 61.896 181.133 60.8694 181.76C60.6427 181.893 60.416 181.92 60.1894 181.84C59.9627 181.747 59.7827 181.607 59.6494 181.42C59.516 181.233 59.4494 181.013 59.4494 180.76C59.4627 180.507 59.5827 180.307 59.8094 180.16C60.756 179.587 61.5627 179.087 62.2294 178.66C62.9094 178.22 63.476 177.827 63.9294 177.48C64.3827 177.12 64.7427 176.793 65.0094 176.5C65.2894 176.193 65.5027 175.893 65.6494 175.6C65.796 175.293 65.8894 174.973 65.9294 174.64C65.9694 174.293 65.9894 173.907 65.9894 173.48V171.94C65.9894 171.793 65.956 171.693 65.8894 171.64C65.836 171.573 65.7294 171.54 65.5694 171.54H60.3694C60.116 171.54 59.9294 171.453 59.8094 171.28C59.7027 171.107 59.6494 170.907 59.6494 170.68C59.6494 170.44 59.7027 170.233 59.8094 170.06C59.9294 169.887 60.116 169.8 60.3694 169.8H66.4494ZM72.6494 168.44C72.916 168.44 73.1494 168.507 73.3494 168.64C73.5627 168.773 73.6694 168.987 73.6694 169.28V184.88C73.6694 185.173 73.5627 185.387 73.3494 185.52C73.1494 185.653 72.916 185.72 72.6494 185.72C72.396 185.72 72.1627 185.653 71.9494 185.52C71.7494 185.387 71.6494 185.173 71.6494 184.88V169.28C71.6494 168.987 71.7494 168.773 71.9494 168.64C72.1627 168.507 72.396 168.44 72.6494 168.44ZM89.2225 168.98C89.8092 168.98 90.2092 169.087 90.4225 169.3C90.6492 169.513 90.7625 169.907 90.7625 170.48V172.1C90.7625 172.673 90.6492 173.067 90.4225 173.28C90.2092 173.493 89.8092 173.6 89.2225 173.6H80.9825C80.7825 173.6 80.6825 173.7 80.6825 173.9V174.82C80.6825 175.02 80.7825 175.12 80.9825 175.12H90.5625C90.7892 175.12 90.9492 175.2 91.0425 175.36C91.1492 175.52 91.2025 175.707 91.2025 175.92C91.2025 176.133 91.1492 176.32 91.0425 176.48C90.9492 176.64 90.7892 176.72 90.5625 176.72H80.2825C79.6958 176.72 79.2892 176.613 79.0625 176.4C78.8492 176.187 78.7425 175.793 78.7425 175.22V173.58C78.7425 173.007 78.8492 172.613 79.0625 172.4C79.2892 172.187 79.6958 172.08 80.2825 172.08H88.5025C88.7158 172.08 88.8225 171.973 88.8225 171.76V170.88C88.8225 170.68 88.7158 170.58 88.5025 170.58H79.3425C79.1158 170.58 78.9492 170.5 78.8425 170.34C78.7492 170.18 78.7025 169.993 78.7025 169.78C78.7025 169.567 78.7492 169.38 78.8425 169.22C78.9492 169.06 79.1158 168.98 79.3425 168.98H89.2225ZM85.7425 178.34H92.4825C92.7092 178.34 92.8758 178.42 92.9825 178.58C93.1025 178.74 93.1625 178.933 93.1625 179.16C93.1625 179.387 93.1025 179.58 92.9825 179.74C92.8758 179.9 92.7092 179.98 92.4825 179.98H77.0425C76.8158 179.98 76.6425 179.9 76.5225 179.74C76.4158 179.58 76.3625 179.387 76.3625 179.16C76.3625 178.933 76.4158 178.74 76.5225 178.58C76.6425 178.42 76.8158 178.34 77.0425 178.34H83.7825V175.92H85.7425V178.34ZM89.3625 181.3C89.9492 181.3 90.3492 181.407 90.5625 181.62C90.7892 181.833 90.9025 182.227 90.9025 182.8V186.28C90.9025 186.573 90.7958 186.787 90.5825 186.92C90.3825 187.053 90.1558 187.12 89.9025 187.12C89.6492 187.12 89.4158 187.053 89.2025 186.92C89.0025 186.787 88.9025 186.573 88.9025 186.28V183.36C88.9025 183.213 88.8692 183.107 88.8025 183.04C88.7492 182.973 88.6425 182.94 88.4825 182.94H79.0825C78.8425 182.94 78.6692 182.86 78.5625 182.7C78.4558 182.54 78.4025 182.347 78.4025 182.12C78.4025 181.893 78.4558 181.7 78.5625 181.54C78.6692 181.38 78.8425 181.3 79.0825 181.3H89.3625ZM99.5156 169.46C101.076 169.46 102.249 169.973 103.036 171C103.822 172.013 104.216 173.493 104.216 175.44C104.216 177.387 103.822 178.873 103.036 179.9C102.249 180.913 101.076 181.42 99.5156 181.42C97.9556 181.42 96.7823 180.913 95.9956 179.9C95.2223 178.873 94.8356 177.387 94.8356 175.44C94.8356 173.493 95.2223 172.013 95.9956 171C96.7823 169.973 97.9556 169.46 99.5156 169.46ZM99.5156 171.22C98.529 171.22 97.8223 171.58 97.3956 172.3C96.9823 173.02 96.7756 174.067 96.7756 175.44C96.7756 176.813 96.9823 177.86 97.3956 178.58C97.8223 179.3 98.529 179.66 99.5156 179.66C100.516 179.66 101.222 179.3 101.636 178.58C102.062 177.86 102.276 176.813 102.276 175.44C102.276 174.067 102.062 173.02 101.636 172.3C101.222 171.58 100.516 171.22 99.5156 171.22ZM108.196 168.44C108.462 168.44 108.696 168.507 108.896 168.64C109.109 168.773 109.216 168.987 109.216 169.28V184.88C109.216 185.173 109.109 185.387 108.896 185.52C108.696 185.653 108.462 185.72 108.196 185.72C107.942 185.72 107.709 185.653 107.496 185.52C107.296 185.387 107.196 185.173 107.196 184.88V169.28C107.196 168.987 107.296 168.773 107.496 168.64C107.709 168.507 107.942 168.44 108.196 168.44ZM121.659 169.14C122.432 169.14 123.105 169.253 123.679 169.48C124.252 169.693 124.725 169.993 125.099 170.38C125.485 170.767 125.772 171.227 125.959 171.76C126.159 172.28 126.259 172.847 126.259 173.46C126.259 174.087 126.159 174.667 125.959 175.2C125.772 175.72 125.485 176.173 125.099 176.56C124.725 176.947 124.252 177.253 123.679 177.48C123.105 177.693 122.432 177.8 121.659 177.8C120.885 177.8 120.212 177.693 119.639 177.48C119.065 177.253 118.585 176.947 118.199 176.56C117.825 176.173 117.539 175.72 117.339 175.2C117.152 174.667 117.059 174.087 117.059 173.46C117.059 172.847 117.152 172.28 117.339 171.76C117.539 171.227 117.825 170.767 118.199 170.38C118.585 169.993 119.065 169.693 119.639 169.48C120.212 169.253 120.885 169.14 121.659 169.14ZM121.659 170.8C121.179 170.8 120.765 170.873 120.419 171.02C120.085 171.153 119.812 171.347 119.599 171.6C119.385 171.84 119.225 172.12 119.119 172.44C119.025 172.76 118.979 173.1 118.979 173.46C118.979 173.82 119.025 174.16 119.119 174.48C119.225 174.8 119.385 175.087 119.599 175.34C119.812 175.58 120.085 175.773 120.419 175.92C120.765 176.053 121.179 176.12 121.659 176.12C122.139 176.12 122.545 176.053 122.879 175.92C123.225 175.773 123.505 175.58 123.719 175.34C123.932 175.087 124.085 174.8 124.179 174.48C124.285 174.16 124.339 173.82 124.339 173.46C124.339 173.1 124.285 172.76 124.179 172.44C124.085 172.12 123.932 171.84 123.719 171.6C123.505 171.347 123.225 171.153 122.879 171.02C122.545 170.873 122.139 170.8 121.659 170.8ZM130.699 168.44C130.952 168.44 131.179 168.507 131.379 168.64C131.579 168.773 131.679 168.987 131.679 169.28V177.5C131.679 177.793 131.579 178.007 131.379 178.14C131.179 178.273 130.952 178.34 130.699 178.34C130.432 178.34 130.199 178.273 129.999 178.14C129.799 178.007 129.699 177.793 129.699 177.5V174.32H124.979V172.62H129.699V169.28C129.699 168.987 129.799 168.773 129.999 168.64C130.199 168.507 130.432 168.44 130.699 168.44ZM129.399 179.2C129.652 179.2 129.879 179.267 130.079 179.4C130.279 179.533 130.379 179.747 130.379 180.04V181.22C130.379 181.5 130.392 181.753 130.419 181.98C130.459 182.193 130.512 182.4 130.579 182.6C130.645 182.787 130.739 182.967 130.859 183.14C130.979 183.313 131.132 183.5 131.319 183.7C131.585 183.993 131.845 184.28 132.099 184.56C132.365 184.84 132.632 185.107 132.899 185.36C133.072 185.52 133.145 185.707 133.119 185.92C133.092 186.147 132.999 186.333 132.839 186.48C132.665 186.653 132.465 186.74 132.239 186.74C132.012 186.753 131.812 186.673 131.639 186.5C131.412 186.287 131.179 186.06 130.939 185.82C130.712 185.58 130.505 185.367 130.319 185.18C129.999 184.807 129.779 184.52 129.659 184.32C129.539 184.133 129.459 183.947 129.419 183.76H129.399C129.372 183.96 129.292 184.16 129.159 184.36C129.039 184.56 128.819 184.847 128.499 185.22C128.312 185.407 128.099 185.62 127.859 185.86C127.632 186.1 127.405 186.327 127.179 186.54C127.005 186.713 126.805 186.793 126.579 186.78C126.352 186.767 126.152 186.68 125.979 186.52C125.819 186.36 125.725 186.167 125.699 185.94C125.672 185.713 125.739 185.52 125.899 185.36C126.432 184.84 126.965 184.287 127.499 183.7C127.672 183.5 127.819 183.313 127.939 183.14C128.059 182.967 128.152 182.787 128.219 182.6C128.299 182.4 128.352 182.193 128.379 181.98C128.405 181.753 128.419 181.5 128.419 181.22V180.04C128.419 179.747 128.519 179.533 128.719 179.4C128.919 179.267 129.145 179.2 129.399 179.2ZM120.539 184.88C120.539 185.147 120.672 185.28 120.939 185.28H123.119C123.385 185.28 123.519 185.147 123.519 184.88V183.22H120.539V184.88ZM119.639 179.2C119.865 179.2 120.072 179.26 120.259 179.38C120.445 179.5 120.539 179.693 120.539 179.96V181.7H123.519V179.96C123.519 179.693 123.612 179.5 123.799 179.38C123.985 179.26 124.192 179.2 124.419 179.2C124.645 179.2 124.852 179.26 125.039 179.38C125.225 179.5 125.319 179.693 125.319 179.96V185.3C125.319 185.607 125.292 185.853 125.239 186.04C125.199 186.24 125.119 186.393 124.999 186.5C124.892 186.607 124.739 186.68 124.539 186.72C124.339 186.773 124.085 186.8 123.779 186.8H120.279C119.972 186.8 119.719 186.773 119.519 186.72C119.319 186.68 119.159 186.607 119.039 186.5C118.932 186.393 118.852 186.24 118.799 186.04C118.759 185.853 118.739 185.607 118.739 185.3V179.96C118.739 179.693 118.832 179.5 119.019 179.38C119.205 179.26 119.412 179.2 119.639 179.2ZM142.652 168.7C142.919 168.7 143.152 168.767 143.352 168.9C143.565 169.033 143.672 169.253 143.672 169.56V170.22C143.672 170.78 143.825 171.24 144.132 171.6C144.452 171.96 144.965 172.293 145.672 172.6C146.325 172.893 146.932 173.16 147.492 173.4C148.052 173.627 148.632 173.853 149.232 174.08C149.432 174.16 149.552 174.313 149.592 174.54C149.645 174.767 149.632 174.98 149.552 175.18C149.472 175.393 149.332 175.56 149.132 175.68C148.932 175.787 148.719 175.793 148.492 175.7C147.959 175.5 147.405 175.287 146.832 175.06C146.272 174.82 145.719 174.58 145.172 174.34C144.279 173.953 143.652 173.613 143.292 173.32C142.945 173.013 142.739 172.74 142.672 172.5H142.652C142.612 172.633 142.545 172.773 142.452 172.92C142.359 173.053 142.212 173.2 142.012 173.36C141.825 173.507 141.579 173.667 141.272 173.84C140.965 174.013 140.592 174.193 140.152 174.38C139.592 174.62 139.039 174.853 138.492 175.08C137.945 175.307 137.399 175.527 136.852 175.74C136.585 175.847 136.352 175.84 136.152 175.72C135.965 175.6 135.832 175.433 135.752 175.22C135.659 175.02 135.632 174.8 135.672 174.56C135.712 174.32 135.845 174.16 136.072 174.08C136.672 173.853 137.252 173.627 137.812 173.4C138.372 173.16 138.979 172.893 139.632 172.6C140.339 172.293 140.845 171.96 141.152 171.6C141.472 171.24 141.632 170.78 141.632 170.22V169.56C141.632 169.253 141.732 169.033 141.932 168.9C142.145 168.767 142.385 168.7 142.652 168.7ZM150.352 177.06C150.592 177.06 150.765 177.14 150.872 177.3C150.992 177.46 151.052 177.66 151.052 177.9C151.052 178.127 150.992 178.327 150.872 178.5C150.765 178.66 150.592 178.74 150.352 178.74H134.952C134.712 178.74 134.532 178.66 134.412 178.5C134.305 178.327 134.252 178.127 134.252 177.9C134.252 177.66 134.305 177.46 134.412 177.3C134.532 177.14 134.712 177.06 134.952 177.06H150.352ZM137.492 179.96C137.745 179.96 137.972 180.027 138.172 180.16C138.372 180.293 138.472 180.5 138.472 180.78V182.04H146.832V180.78C146.832 180.5 146.932 180.293 147.132 180.16C147.332 180.027 147.552 179.96 147.792 179.96C148.045 179.96 148.272 180.027 148.472 180.16C148.685 180.293 148.792 180.5 148.792 180.78V185.36C148.792 185.933 148.679 186.327 148.452 186.54C148.239 186.753 147.839 186.86 147.252 186.86H138.052C137.465 186.86 137.065 186.753 136.852 186.54C136.639 186.327 136.532 185.933 136.532 185.36V180.78C136.532 180.5 136.632 180.293 136.832 180.16C137.032 180.027 137.252 179.96 137.492 179.96ZM138.472 184.94C138.472 185.14 138.579 185.24 138.792 185.24H146.512C146.725 185.24 146.832 185.14 146.832 184.94V183.62H138.472V184.94ZM154.225 169.6C154.492 169.6 154.725 169.667 154.925 169.8C155.125 169.933 155.225 170.153 155.225 170.46V178.94C155.225 179.22 155.365 179.36 155.645 179.36C157.032 179.36 158.298 179.327 159.445 179.26C160.592 179.18 161.705 179.067 162.785 178.92C163.012 178.893 163.192 178.953 163.325 179.1C163.472 179.247 163.558 179.433 163.585 179.66C163.612 179.9 163.578 180.12 163.485 180.32C163.405 180.507 163.252 180.613 163.025 180.64C162.558 180.707 162.052 180.767 161.505 180.82C160.972 180.873 160.372 180.92 159.705 180.96C159.038 181 158.298 181.033 157.485 181.06C156.672 181.073 155.758 181.08 154.745 181.08C154.158 181.08 153.758 180.973 153.545 180.76C153.332 180.547 153.225 180.153 153.225 179.58V170.46C153.225 170.153 153.325 169.933 153.525 169.8C153.725 169.667 153.958 169.6 154.225 169.6ZM166.085 168.44C166.352 168.44 166.585 168.507 166.785 168.64C166.998 168.773 167.105 168.987 167.105 169.28V184.88C167.105 185.173 166.998 185.387 166.785 185.52C166.585 185.653 166.352 185.72 166.085 185.72C165.832 185.72 165.598 185.653 165.385 185.52C165.185 185.387 165.085 185.173 165.085 184.88V169.28C165.085 168.987 165.185 168.773 165.385 168.64C165.598 168.507 165.832 168.44 166.085 168.44ZM178.558 169.78C178.798 169.78 178.971 169.867 179.078 170.04C179.198 170.213 179.258 170.42 179.258 170.66C179.258 170.887 179.198 171.087 179.078 171.26C178.971 171.42 178.798 171.5 178.558 171.5H172.958C172.678 171.5 172.538 171.64 172.538 171.92V179C172.538 179.28 172.678 179.42 172.958 179.42C174.278 179.42 175.505 179.387 176.638 179.32C177.771 179.24 178.878 179.127 179.958 178.98C180.185 178.953 180.365 179.013 180.498 179.16C180.645 179.307 180.731 179.493 180.758 179.72C180.785 179.96 180.751 180.18 180.658 180.38C180.578 180.567 180.425 180.673 180.198 180.7C179.731 180.767 179.225 180.827 178.678 180.88C178.145 180.933 177.551 180.98 176.898 181.02C176.245 181.06 175.518 181.093 174.718 181.12C173.931 181.133 173.051 181.14 172.078 181.14C171.491 181.14 171.085 181.033 170.858 180.82C170.645 180.607 170.538 180.213 170.538 179.64V171.28C170.538 170.707 170.645 170.313 170.858 170.1C171.085 169.887 171.491 169.78 172.078 169.78H178.558ZM183.018 168.44C183.285 168.44 183.518 168.507 183.718 168.64C183.918 168.773 184.018 168.987 184.018 169.28V174.48H186.218C186.485 174.48 186.671 174.567 186.778 174.74C186.898 174.9 186.958 175.1 186.958 175.34C186.958 175.58 186.898 175.787 186.778 175.96C186.671 176.133 186.485 176.22 186.218 176.22H184.018V184.88C184.018 185.173 183.918 185.387 183.718 185.52C183.518 185.653 183.285 185.72 183.018 185.72C182.751 185.72 182.518 185.653 182.318 185.52C182.118 185.387 182.018 185.173 182.018 184.88V169.28C182.018 168.987 182.118 168.773 182.318 168.64C182.518 168.507 182.751 168.44 183.018 168.44Z" fill="#9C9C9C"/>
</svg>
