<svg width="191" height="129" viewBox="0 0 191 129" fill="none" xmlns="http://www.w3.org/2000/svg">
<path d="M157.747 83.523H33.2646C28.3227 83.523 24.4428 78.5026 25.0658 72.8119C29.5829 32.292 59.4043 1 95.4987 1C131.593 1 161.414 32.292 165.932 72.8119C166.569 78.5026 162.675 83.523 157.733 83.523H157.747Z" fill="#EEEDEB" stroke="#2C2C2C" stroke-miterlimit="10"/>
<path d="M113.015 39.7514C113.015 46.8256 111.443 52.5591 104.703 52.5591C98.3872 52.5591 95.4844 46.8256 95.4844 39.7514C95.4844 32.6771 97.6226 26.9436 104.703 26.9436C110.862 26.9436 113.015 32.6771 113.015 39.7514Z" fill="#FBFBFB" stroke="#2C2C2C" stroke-miterlimit="10"/>
<path d="M95.4986 39.7514C95.4986 46.8256 93.9268 52.5591 87.1866 52.5591C80.8711 52.5591 77.9683 46.8256 77.9683 39.7514C77.9683 32.6771 80.1064 26.9436 87.1866 26.9436C93.3462 26.9436 95.4986 32.6771 95.4986 39.7514Z" fill="#FBFBFB" stroke="#2C2C2C" stroke-miterlimit="10"/>
<path d="M95.4986 44.2583C95.4986 48.1805 94.6348 51.361 90.8965 51.361C87.3989 51.361 85.7847 48.1805 85.7847 44.2583C85.7847 40.3361 86.9741 37.1555 90.8965 37.1555C94.3091 37.1555 95.4986 40.3361 95.4986 44.2583Z" fill="#2C2C2C"/>
<path d="M113.015 44.2583C113.015 48.1805 112.151 51.361 108.413 51.361C104.915 51.361 103.301 48.1805 103.301 44.2583C103.301 40.3361 104.49 37.1555 108.413 37.1555C111.825 37.1555 113.015 40.3361 113.015 44.2583Z" fill="#2C2C2C"/>
<path d="M95.542 52.5173C95.7378 52.5175 96.0361 52.6135 96.2852 52.8152C96.5257 53.0101 96.6698 53.26 96.6699 53.5427C96.6699 53.8526 96.4973 54.2381 96.2217 54.5652C96.0887 54.7229 95.9474 54.848 95.8223 54.9294C95.7601 54.9699 95.7071 54.9955 95.667 55.0105C95.6332 55.0231 95.6155 55.0248 95.6123 55.0251C95.3793 55.0251 95.0466 54.9756 94.7871 54.8005C94.5611 54.6479 94.3281 54.3603 94.3281 53.7283C94.3282 53.1737 94.611 52.8885 94.9258 52.7156C95.0906 52.625 95.2607 52.5701 95.3926 52.5378C95.4305 52.5286 95.4646 52.5228 95.4932 52.5173H95.542Z" fill="#A7E1B6" stroke="#2C2C2C"/>
<path d="M75.1084 24.9182C75.1084 24.9182 77.5298 18.0152 84.794 20.2401" stroke="#2C2C2C" stroke-miterlimit="10" stroke-linecap="round"/>
<path d="M90.1387 61.5023C90.1387 61.5023 94.1885 57.0524 95.8736 59.0777L97.5586 61.0887" stroke="black" stroke-miterlimit="10" stroke-linecap="round"/>
<path d="M115.627 65.0929C115.627 68.6345 113.721 69.9596 112.087 69.9596C110.453 69.9596 108.547 68.6345 108.547 65.0929C108.547 61.5514 112.087 55.697 112.087 55.697C112.087 55.697 115.627 61.5514 115.627 65.0929Z" fill="#93D1E0"/>
<path d="M109.47 53.4572C111.913 53.0028 113.728 51.7235 113.522 50.6C113.316 49.4764 111.168 48.9339 108.724 49.3884C106.28 49.8428 104.466 51.122 104.672 52.2456C104.878 53.3692 107.026 53.9116 109.47 53.4572Z" fill="#93D1E0"/>
<path d="M10.44 107.003C10.68 107.003 10.8533 107.09 10.96 107.263C11.08 107.436 11.14 107.636 11.14 107.863C11.14 108.09 11.08 108.29 10.96 108.463C10.8533 108.623 10.68 108.703 10.44 108.703H7.2V109.603C7.2 110.256 7.3 110.803 7.5 111.243C7.7 111.683 8.04 112.096 8.52 112.483C8.98667 112.87 9.42667 113.216 9.84 113.523C10.2533 113.83 10.62 114.096 10.94 114.323C11.1667 114.483 11.2867 114.676 11.3 114.903C11.3133 115.13 11.2467 115.343 11.1 115.543C10.9667 115.703 10.7867 115.83 10.56 115.923C10.3467 116.003 10.1133 115.956 9.86 115.783C9.62 115.61 9.30667 115.383 8.92 115.103C8.53333 114.81 8.12667 114.49 7.7 114.143C7.19333 113.73 6.83333 113.403 6.62 113.163C6.42 112.91 6.29333 112.683 6.24 112.483H6.22C6.16667 112.71 6.02667 112.956 5.8 113.223C5.58667 113.49 5.22667 113.823 4.72 114.223C4.28 114.57 3.84667 114.903 3.42 115.223C3.00667 115.53 2.6 115.823 2.2 116.103C1.97333 116.263 1.74 116.303 1.5 116.223C1.27333 116.143 1.1 116.016 0.98 115.843C0.833333 115.656 0.766667 115.443 0.78 115.203C0.793333 114.963 0.913333 114.756 1.14 114.583C1.62 114.25 2.08 113.923 2.52 113.603C2.97333 113.27 3.43333 112.916 3.9 112.543C4.36667 112.156 4.7 111.743 4.9 111.303C5.1 110.863 5.2 110.316 5.2 109.663V108.703H1.82C1.56667 108.703 1.38 108.623 1.26 108.463C1.15333 108.29 1.1 108.09 1.1 107.863C1.1 107.636 1.15333 107.436 1.26 107.263C1.38 107.09 1.56667 107.003 1.82 107.003H10.44ZM13.92 105.963C14.1867 105.963 14.42 106.03 14.62 106.163C14.82 106.296 14.92 106.51 14.92 106.803V110.283H17.12C17.3867 110.283 17.5733 110.37 17.68 110.543C17.8 110.716 17.86 110.916 17.86 111.143C17.86 111.396 17.8 111.61 17.68 111.783C17.5733 111.943 17.3867 112.023 17.12 112.023H14.92V115.943C14.92 116.236 14.82 116.45 14.62 116.583C14.42 116.716 14.1867 116.783 13.92 116.783C13.6533 116.783 13.42 116.716 13.22 116.583C13.02 116.45 12.92 116.236 12.92 115.943V106.803C12.92 106.51 13.02 106.296 13.22 106.163C13.42 106.03 13.6533 105.963 13.92 105.963ZM13.38 117.643C13.9667 117.643 14.3667 117.75 14.58 117.963C14.8067 118.176 14.92 118.57 14.92 119.143V123.723C14.92 124.016 14.82 124.23 14.62 124.363C14.42 124.496 14.1867 124.563 13.92 124.563C13.6533 124.563 13.42 124.496 13.22 124.363C13.02 124.23 12.92 124.016 12.92 123.723V119.763C12.92 119.496 12.78 119.363 12.5 119.363H3.8C3.54667 119.363 3.36 119.276 3.24 119.103C3.13333 118.93 3.08 118.73 3.08 118.503C3.08 118.276 3.13333 118.076 3.24 117.903C3.36 117.73 3.54667 117.643 3.8 117.643H13.38ZM24.1531 106.563C24.4198 106.563 24.6531 106.63 24.8531 106.763C25.0665 106.896 25.1731 107.11 25.1731 107.403V109.363C25.1731 110.003 25.2731 110.55 25.4731 111.003C25.6731 111.456 26.0065 111.883 26.4731 112.283C26.9398 112.67 27.3798 113.023 27.7931 113.343C28.2065 113.663 28.5731 113.936 28.8931 114.163C29.1198 114.323 29.2331 114.523 29.2331 114.763C29.2465 114.99 29.1798 115.196 29.0331 115.383C28.8998 115.556 28.7198 115.683 28.4931 115.763C28.2665 115.843 28.0331 115.796 27.7931 115.623C27.5398 115.436 27.2198 115.196 26.8331 114.903C26.4598 114.596 26.0598 114.27 25.6331 113.923C25.1398 113.536 24.7865 113.216 24.5731 112.963C24.3731 112.696 24.2465 112.463 24.1931 112.263H24.1731C24.1198 112.49 23.9798 112.743 23.7531 113.023C23.5398 113.29 23.1931 113.623 22.7131 114.023C22.2865 114.37 21.8665 114.703 21.4531 115.023C21.0398 115.343 20.6265 115.65 20.2131 115.943C19.9865 116.103 19.7531 116.15 19.5131 116.083C19.2865 116.003 19.1065 115.876 18.9731 115.703C18.8398 115.516 18.7731 115.303 18.7731 115.063C18.7731 114.81 18.8931 114.596 19.1331 114.423C19.5998 114.09 20.0531 113.756 20.4931 113.423C20.9331 113.09 21.3865 112.73 21.8531 112.343C22.3198 111.943 22.6531 111.516 22.8531 111.063C23.0531 110.596 23.1531 110.043 23.1531 109.403V107.403C23.1531 107.11 23.2531 106.896 23.4531 106.763C23.6531 106.63 23.8865 106.563 24.1531 106.563ZM32.6931 105.963C32.9465 105.963 33.1731 106.03 33.3731 106.163C33.5731 106.296 33.6731 106.51 33.6731 106.803V116.103C33.6731 116.383 33.5731 116.59 33.3731 116.723C33.1731 116.856 32.9465 116.923 32.6931 116.923C32.4265 116.923 32.1931 116.856 31.9931 116.723C31.7931 116.59 31.6931 116.383 31.6931 116.103V111.363H28.6531C28.3998 111.363 28.2131 111.283 28.0931 111.123C27.9865 110.95 27.9331 110.75 27.9331 110.523C27.9331 110.283 27.9865 110.083 28.0931 109.923C28.2131 109.75 28.3998 109.663 28.6531 109.663H31.6931V106.803C31.6931 106.51 31.7931 106.296 31.9931 106.163C32.1931 106.03 32.4265 105.963 32.6931 105.963ZM27.9131 117.103C29.7798 117.103 31.2198 117.423 32.2331 118.063C33.2598 118.69 33.7731 119.63 33.7731 120.883C33.7731 122.136 33.2598 123.076 32.2331 123.703C31.2198 124.343 29.7798 124.663 27.9131 124.663C26.0465 124.663 24.5998 124.343 23.5731 123.703C22.5598 123.076 22.0531 122.136 22.0531 120.883C22.0531 119.63 22.5598 118.69 23.5731 118.063C24.5998 117.423 26.0465 117.103 27.9131 117.103ZM27.9131 118.723C26.5531 118.723 25.5665 118.923 24.9531 119.323C24.3398 119.71 24.0331 120.23 24.0331 120.883C24.0331 121.55 24.3398 122.076 24.9531 122.463C25.5665 122.85 26.5531 123.043 27.9131 123.043C29.2731 123.043 30.2598 122.85 30.8731 122.463C31.4865 122.076 31.7931 121.55 31.7931 120.883C31.7931 120.216 31.4865 119.69 30.8731 119.303C30.2598 118.916 29.2731 118.723 27.9131 118.723ZM41.6662 110.863C42.9996 110.863 44.0396 111.17 44.7862 111.783C45.5463 112.383 45.9263 113.19 45.9263 114.203C45.9263 115.216 45.5463 116.03 44.7862 116.643C44.0396 117.243 42.9996 117.543 41.6662 117.543C40.3329 117.543 39.2862 117.243 38.5262 116.643C37.7796 116.03 37.4062 115.216 37.4062 114.203C37.4062 113.19 37.7796 112.383 38.5262 111.783C39.2862 111.17 40.3329 110.863 41.6662 110.863ZM41.6662 105.923C41.9329 105.923 42.1662 105.99 42.3662 106.123C42.5662 106.256 42.6662 106.47 42.6662 106.763V108.023H46.2462C46.4863 108.023 46.6596 108.11 46.7663 108.283C46.8863 108.456 46.9463 108.656 46.9463 108.883C46.9463 109.11 46.8863 109.31 46.7663 109.483C46.6596 109.656 46.4863 109.743 46.2462 109.743H36.8862C36.6462 109.743 36.4662 109.656 36.3462 109.483C36.2396 109.31 36.1862 109.11 36.1862 108.883C36.1862 108.656 36.2396 108.456 36.3462 108.283C36.4662 108.11 36.6462 108.023 36.8862 108.023H40.6662V106.763C40.6662 106.47 40.7662 106.256 40.9662 106.123C41.1796 105.99 41.4129 105.923 41.6662 105.923ZM41.6662 112.443C40.8662 112.443 40.2529 112.61 39.8262 112.943C39.4129 113.263 39.2062 113.683 39.2062 114.203C39.2062 114.71 39.4129 115.13 39.8262 115.463C40.2529 115.796 40.8662 115.963 41.6662 115.963C42.4796 115.963 43.0929 115.796 43.5063 115.463C43.9196 115.13 44.1262 114.71 44.1262 114.203C44.1262 113.683 43.9196 113.263 43.5063 112.943C43.0929 112.61 42.4796 112.443 41.6662 112.443ZM49.4663 105.963C49.7329 105.963 49.9662 106.03 50.1662 106.163C50.3663 106.296 50.4663 106.51 50.4663 106.803V111.303H52.6863C52.9396 111.303 53.1196 111.39 53.2263 111.563C53.3463 111.723 53.4063 111.923 53.4063 112.163C53.4063 112.403 53.3463 112.61 53.2263 112.783C53.1196 112.943 52.9396 113.023 52.6863 113.023H50.4663V118.843C50.4663 119.136 50.3663 119.35 50.1662 119.483C49.9662 119.616 49.7329 119.683 49.4663 119.683C49.2129 119.683 48.9863 119.616 48.7863 119.483C48.5862 119.35 48.4862 119.136 48.4862 118.843V106.803C48.4862 106.51 48.5862 106.296 48.7863 106.163C48.9863 106.03 49.2129 105.963 49.4663 105.963ZM40.0062 118.563C40.2596 118.563 40.4862 118.63 40.6862 118.763C40.8996 118.896 41.0062 119.11 41.0062 119.403V122.023C41.0062 122.17 41.0329 122.27 41.0862 122.323C41.1529 122.39 41.2662 122.423 41.4262 122.423H50.2262C50.4796 122.423 50.6596 122.51 50.7663 122.683C50.8863 122.856 50.9463 123.063 50.9463 123.303C50.9463 123.53 50.8863 123.73 50.7663 123.903C50.6596 124.076 50.4796 124.163 50.2262 124.163H40.5262C39.9396 124.163 39.5329 124.056 39.3062 123.843C39.0929 123.63 38.9862 123.236 38.9862 122.663V119.403C38.9862 119.11 39.0862 118.896 39.2862 118.763C39.4996 118.63 39.7396 118.563 40.0062 118.563ZM66.4494 107.323C67.036 107.323 67.436 107.43 67.6494 107.643C67.876 107.856 67.9894 108.25 67.9894 108.823V111.083C67.9894 111.643 67.956 112.15 67.8894 112.603C67.8227 113.043 67.696 113.463 67.5094 113.863C67.3227 114.263 67.0627 114.656 66.7294 115.043C66.396 115.416 65.9627 115.816 65.4294 116.243C64.9094 116.656 64.276 117.11 63.5294 117.603C62.7827 118.096 61.896 118.656 60.8694 119.283C60.6427 119.416 60.416 119.443 60.1894 119.363C59.9627 119.27 59.7827 119.13 59.6494 118.943C59.516 118.756 59.4494 118.536 59.4494 118.283C59.4627 118.03 59.5827 117.83 59.8094 117.683C60.756 117.11 61.5627 116.61 62.2294 116.183C62.9094 115.743 63.476 115.35 63.9294 115.003C64.3827 114.643 64.7427 114.316 65.0094 114.023C65.2894 113.716 65.5027 113.416 65.6494 113.123C65.796 112.816 65.8894 112.496 65.9294 112.163C65.9694 111.816 65.9894 111.43 65.9894 111.003V109.463C65.9894 109.316 65.956 109.216 65.8894 109.163C65.836 109.096 65.7294 109.063 65.5694 109.063H60.3694C60.116 109.063 59.9294 108.976 59.8094 108.803C59.7027 108.63 59.6494 108.43 59.6494 108.203C59.6494 107.963 59.7027 107.756 59.8094 107.583C59.9294 107.41 60.116 107.323 60.3694 107.323H66.4494ZM72.6494 105.963C72.916 105.963 73.1494 106.03 73.3494 106.163C73.5627 106.296 73.6694 106.51 73.6694 106.803V122.403C73.6694 122.696 73.5627 122.91 73.3494 123.043C73.1494 123.176 72.916 123.243 72.6494 123.243C72.396 123.243 72.1627 123.176 71.9494 123.043C71.7494 122.91 71.6494 122.696 71.6494 122.403V106.803C71.6494 106.51 71.7494 106.296 71.9494 106.163C72.1627 106.03 72.396 105.963 72.6494 105.963ZM89.2225 106.503C89.8092 106.503 90.2092 106.61 90.4225 106.823C90.6492 107.036 90.7625 107.43 90.7625 108.003V109.623C90.7625 110.196 90.6492 110.59 90.4225 110.803C90.2092 111.016 89.8092 111.123 89.2225 111.123H80.9825C80.7825 111.123 80.6825 111.223 80.6825 111.423V112.343C80.6825 112.543 80.7825 112.643 80.9825 112.643H90.5625C90.7892 112.643 90.9492 112.723 91.0425 112.883C91.1492 113.043 91.2025 113.23 91.2025 113.443C91.2025 113.656 91.1492 113.843 91.0425 114.003C90.9492 114.163 90.7892 114.243 90.5625 114.243H80.2825C79.6958 114.243 79.2892 114.136 79.0625 113.923C78.8492 113.71 78.7425 113.316 78.7425 112.743V111.103C78.7425 110.53 78.8492 110.136 79.0625 109.923C79.2892 109.71 79.6958 109.603 80.2825 109.603H88.5025C88.7158 109.603 88.8225 109.496 88.8225 109.283V108.403C88.8225 108.203 88.7158 108.103 88.5025 108.103H79.3425C79.1158 108.103 78.9492 108.023 78.8425 107.863C78.7492 107.703 78.7025 107.516 78.7025 107.303C78.7025 107.09 78.7492 106.903 78.8425 106.743C78.9492 106.583 79.1158 106.503 79.3425 106.503H89.2225ZM85.7425 115.863H92.4825C92.7092 115.863 92.8758 115.943 92.9825 116.103C93.1025 116.263 93.1625 116.456 93.1625 116.683C93.1625 116.91 93.1025 117.103 92.9825 117.263C92.8758 117.423 92.7092 117.503 92.4825 117.503H77.0425C76.8158 117.503 76.6425 117.423 76.5225 117.263C76.4158 117.103 76.3625 116.91 76.3625 116.683C76.3625 116.456 76.4158 116.263 76.5225 116.103C76.6425 115.943 76.8158 115.863 77.0425 115.863H83.7825V113.443H85.7425V115.863ZM89.3625 118.823C89.9492 118.823 90.3492 118.93 90.5625 119.143C90.7892 119.356 90.9025 119.75 90.9025 120.323V123.803C90.9025 124.096 90.7958 124.31 90.5825 124.443C90.3825 124.576 90.1558 124.643 89.9025 124.643C89.6492 124.643 89.4158 124.576 89.2025 124.443C89.0025 124.31 88.9025 124.096 88.9025 123.803V120.883C88.9025 120.736 88.8692 120.63 88.8025 120.563C88.7492 120.496 88.6425 120.463 88.4825 120.463H79.0825C78.8425 120.463 78.6692 120.383 78.5625 120.223C78.4558 120.063 78.4025 119.87 78.4025 119.643C78.4025 119.416 78.4558 119.223 78.5625 119.063C78.6692 118.903 78.8425 118.823 79.0825 118.823H89.3625ZM99.5156 106.983C101.076 106.983 102.249 107.496 103.036 108.523C103.822 109.536 104.216 111.016 104.216 112.963C104.216 114.91 103.822 116.396 103.036 117.423C102.249 118.436 101.076 118.943 99.5156 118.943C97.9556 118.943 96.7823 118.436 95.9956 117.423C95.2223 116.396 94.8356 114.91 94.8356 112.963C94.8356 111.016 95.2223 109.536 95.9956 108.523C96.7823 107.496 97.9556 106.983 99.5156 106.983ZM99.5156 108.743C98.529 108.743 97.8223 109.103 97.3956 109.823C96.9823 110.543 96.7756 111.59 96.7756 112.963C96.7756 114.336 96.9823 115.383 97.3956 116.103C97.8223 116.823 98.529 117.183 99.5156 117.183C100.516 117.183 101.222 116.823 101.636 116.103C102.062 115.383 102.276 114.336 102.276 112.963C102.276 111.59 102.062 110.543 101.636 109.823C101.222 109.103 100.516 108.743 99.5156 108.743ZM108.196 105.963C108.462 105.963 108.696 106.03 108.896 106.163C109.109 106.296 109.216 106.51 109.216 106.803V122.403C109.216 122.696 109.109 122.91 108.896 123.043C108.696 123.176 108.462 123.243 108.196 123.243C107.942 123.243 107.709 123.176 107.496 123.043C107.296 122.91 107.196 122.696 107.196 122.403V106.803C107.196 106.51 107.296 106.296 107.496 106.163C107.709 106.03 107.942 105.963 108.196 105.963ZM121.659 106.663C122.432 106.663 123.105 106.776 123.679 107.003C124.252 107.216 124.725 107.516 125.099 107.903C125.485 108.29 125.772 108.75 125.959 109.283C126.159 109.803 126.259 110.37 126.259 110.983C126.259 111.61 126.159 112.19 125.959 112.723C125.772 113.243 125.485 113.696 125.099 114.083C124.725 114.47 124.252 114.776 123.679 115.003C123.105 115.216 122.432 115.323 121.659 115.323C120.885 115.323 120.212 115.216 119.639 115.003C119.065 114.776 118.585 114.47 118.199 114.083C117.825 113.696 117.539 113.243 117.339 112.723C117.152 112.19 117.059 111.61 117.059 110.983C117.059 110.37 117.152 109.803 117.339 109.283C117.539 108.75 117.825 108.29 118.199 107.903C118.585 107.516 119.065 107.216 119.639 107.003C120.212 106.776 120.885 106.663 121.659 106.663ZM121.659 108.323C121.179 108.323 120.765 108.396 120.419 108.543C120.085 108.676 119.812 108.87 119.599 109.123C119.385 109.363 119.225 109.643 119.119 109.963C119.025 110.283 118.979 110.623 118.979 110.983C118.979 111.343 119.025 111.683 119.119 112.003C119.225 112.323 119.385 112.61 119.599 112.863C119.812 113.103 120.085 113.296 120.419 113.443C120.765 113.576 121.179 113.643 121.659 113.643C122.139 113.643 122.545 113.576 122.879 113.443C123.225 113.296 123.505 113.103 123.719 112.863C123.932 112.61 124.085 112.323 124.179 112.003C124.285 111.683 124.339 111.343 124.339 110.983C124.339 110.623 124.285 110.283 124.179 109.963C124.085 109.643 123.932 109.363 123.719 109.123C123.505 108.87 123.225 108.676 122.879 108.543C122.545 108.396 122.139 108.323 121.659 108.323ZM130.699 105.963C130.952 105.963 131.179 106.03 131.379 106.163C131.579 106.296 131.679 106.51 131.679 106.803V115.023C131.679 115.316 131.579 115.53 131.379 115.663C131.179 115.796 130.952 115.863 130.699 115.863C130.432 115.863 130.199 115.796 129.999 115.663C129.799 115.53 129.699 115.316 129.699 115.023V111.843H124.979V110.143H129.699V106.803C129.699 106.51 129.799 106.296 129.999 106.163C130.199 106.03 130.432 105.963 130.699 105.963ZM129.399 116.723C129.652 116.723 129.879 116.79 130.079 116.923C130.279 117.056 130.379 117.27 130.379 117.563V118.743C130.379 119.023 130.392 119.276 130.419 119.503C130.459 119.716 130.512 119.923 130.579 120.123C130.645 120.31 130.739 120.49 130.859 120.663C130.979 120.836 131.132 121.023 131.319 121.223C131.585 121.516 131.845 121.803 132.099 122.083C132.365 122.363 132.632 122.63 132.899 122.883C133.072 123.043 133.145 123.23 133.119 123.443C133.092 123.67 132.999 123.856 132.839 124.003C132.665 124.176 132.465 124.263 132.239 124.263C132.012 124.276 131.812 124.196 131.639 124.023C131.412 123.81 131.179 123.583 130.939 123.343C130.712 123.103 130.505 122.89 130.319 122.703C129.999 122.33 129.779 122.043 129.659 121.843C129.539 121.656 129.459 121.47 129.419 121.283H129.399C129.372 121.483 129.292 121.683 129.159 121.883C129.039 122.083 128.819 122.37 128.499 122.743C128.312 122.93 128.099 123.143 127.859 123.383C127.632 123.623 127.405 123.85 127.179 124.063C127.005 124.236 126.805 124.316 126.579 124.303C126.352 124.29 126.152 124.203 125.979 124.043C125.819 123.883 125.725 123.69 125.699 123.463C125.672 123.236 125.739 123.043 125.899 122.883C126.432 122.363 126.965 121.81 127.499 121.223C127.672 121.023 127.819 120.836 127.939 120.663C128.059 120.49 128.152 120.31 128.219 120.123C128.299 119.923 128.352 119.716 128.379 119.503C128.405 119.276 128.419 119.023 128.419 118.743V117.563C128.419 117.27 128.519 117.056 128.719 116.923C128.919 116.79 129.145 116.723 129.399 116.723ZM120.539 122.403C120.539 122.67 120.672 122.803 120.939 122.803H123.119C123.385 122.803 123.519 122.67 123.519 122.403V120.743H120.539V122.403ZM119.639 116.723C119.865 116.723 120.072 116.783 120.259 116.903C120.445 117.023 120.539 117.216 120.539 117.483V119.223H123.519V117.483C123.519 117.216 123.612 117.023 123.799 116.903C123.985 116.783 124.192 116.723 124.419 116.723C124.645 116.723 124.852 116.783 125.039 116.903C125.225 117.023 125.319 117.216 125.319 117.483V122.823C125.319 123.13 125.292 123.376 125.239 123.563C125.199 123.763 125.119 123.916 124.999 124.023C124.892 124.13 124.739 124.203 124.539 124.243C124.339 124.296 124.085 124.323 123.779 124.323H120.279C119.972 124.323 119.719 124.296 119.519 124.243C119.319 124.203 119.159 124.13 119.039 124.023C118.932 123.916 118.852 123.763 118.799 123.563C118.759 123.376 118.739 123.13 118.739 122.823V117.483C118.739 117.216 118.832 117.023 119.019 116.903C119.205 116.783 119.412 116.723 119.639 116.723ZM142.652 106.223C142.919 106.223 143.152 106.29 143.352 106.423C143.565 106.556 143.672 106.776 143.672 107.083V107.743C143.672 108.303 143.825 108.763 144.132 109.123C144.452 109.483 144.965 109.816 145.672 110.123C146.325 110.416 146.932 110.683 147.492 110.923C148.052 111.15 148.632 111.376 149.232 111.603C149.432 111.683 149.552 111.836 149.592 112.063C149.645 112.29 149.632 112.503 149.552 112.703C149.472 112.916 149.332 113.083 149.132 113.203C148.932 113.31 148.719 113.316 148.492 113.223C147.959 113.023 147.405 112.81 146.832 112.583C146.272 112.343 145.719 112.103 145.172 111.863C144.279 111.476 143.652 111.136 143.292 110.843C142.945 110.536 142.739 110.263 142.672 110.023H142.652C142.612 110.156 142.545 110.296 142.452 110.443C142.359 110.576 142.212 110.723 142.012 110.883C141.825 111.03 141.579 111.19 141.272 111.363C140.965 111.536 140.592 111.716 140.152 111.903C139.592 112.143 139.039 112.376 138.492 112.603C137.945 112.83 137.399 113.05 136.852 113.263C136.585 113.37 136.352 113.363 136.152 113.243C135.965 113.123 135.832 112.956 135.752 112.743C135.659 112.543 135.632 112.323 135.672 112.083C135.712 111.843 135.845 111.683 136.072 111.603C136.672 111.376 137.252 111.15 137.812 110.923C138.372 110.683 138.979 110.416 139.632 110.123C140.339 109.816 140.845 109.483 141.152 109.123C141.472 108.763 141.632 108.303 141.632 107.743V107.083C141.632 106.776 141.732 106.556 141.932 106.423C142.145 106.29 142.385 106.223 142.652 106.223ZM150.352 114.583C150.592 114.583 150.765 114.663 150.872 114.823C150.992 114.983 151.052 115.183 151.052 115.423C151.052 115.65 150.992 115.85 150.872 116.023C150.765 116.183 150.592 116.263 150.352 116.263H134.952C134.712 116.263 134.532 116.183 134.412 116.023C134.305 115.85 134.252 115.65 134.252 115.423C134.252 115.183 134.305 114.983 134.412 114.823C134.532 114.663 134.712 114.583 134.952 114.583H150.352ZM137.492 117.483C137.745 117.483 137.972 117.55 138.172 117.683C138.372 117.816 138.472 118.023 138.472 118.303V119.563H146.832V118.303C146.832 118.023 146.932 117.816 147.132 117.683C147.332 117.55 147.552 117.483 147.792 117.483C148.045 117.483 148.272 117.55 148.472 117.683C148.685 117.816 148.792 118.023 148.792 118.303V122.883C148.792 123.456 148.679 123.85 148.452 124.063C148.239 124.276 147.839 124.383 147.252 124.383H138.052C137.465 124.383 137.065 124.276 136.852 124.063C136.639 123.85 136.532 123.456 136.532 122.883V118.303C136.532 118.023 136.632 117.816 136.832 117.683C137.032 117.55 137.252 117.483 137.492 117.483ZM138.472 122.463C138.472 122.663 138.579 122.763 138.792 122.763H146.512C146.725 122.763 146.832 122.663 146.832 122.463V121.143H138.472V122.463ZM154.225 107.123C154.492 107.123 154.725 107.19 154.925 107.323C155.125 107.456 155.225 107.676 155.225 107.983V116.463C155.225 116.743 155.365 116.883 155.645 116.883C157.032 116.883 158.298 116.85 159.445 116.783C160.592 116.703 161.705 116.59 162.785 116.443C163.012 116.416 163.192 116.476 163.325 116.623C163.472 116.77 163.558 116.956 163.585 117.183C163.612 117.423 163.578 117.643 163.485 117.843C163.405 118.03 163.252 118.136 163.025 118.163C162.558 118.23 162.052 118.29 161.505 118.343C160.972 118.396 160.372 118.443 159.705 118.483C159.038 118.523 158.298 118.556 157.485 118.583C156.672 118.596 155.758 118.603 154.745 118.603C154.158 118.603 153.758 118.496 153.545 118.283C153.332 118.07 153.225 117.676 153.225 117.103V107.983C153.225 107.676 153.325 107.456 153.525 107.323C153.725 107.19 153.958 107.123 154.225 107.123ZM166.085 105.963C166.352 105.963 166.585 106.03 166.785 106.163C166.998 106.296 167.105 106.51 167.105 106.803V122.403C167.105 122.696 166.998 122.91 166.785 123.043C166.585 123.176 166.352 123.243 166.085 123.243C165.832 123.243 165.598 123.176 165.385 123.043C165.185 122.91 165.085 122.696 165.085 122.403V106.803C165.085 106.51 165.185 106.296 165.385 106.163C165.598 106.03 165.832 105.963 166.085 105.963ZM178.558 107.303C178.798 107.303 178.971 107.39 179.078 107.563C179.198 107.736 179.258 107.943 179.258 108.183C179.258 108.41 179.198 108.61 179.078 108.783C178.971 108.943 178.798 109.023 178.558 109.023H172.958C172.678 109.023 172.538 109.163 172.538 109.443V116.523C172.538 116.803 172.678 116.943 172.958 116.943C174.278 116.943 175.505 116.91 176.638 116.843C177.771 116.763 178.878 116.65 179.958 116.503C180.185 116.476 180.365 116.536 180.498 116.683C180.645 116.83 180.731 117.016 180.758 117.243C180.785 117.483 180.751 117.703 180.658 117.903C180.578 118.09 180.425 118.196 180.198 118.223C179.731 118.29 179.225 118.35 178.678 118.403C178.145 118.456 177.551 118.503 176.898 118.543C176.245 118.583 175.518 118.616 174.718 118.643C173.931 118.656 173.051 118.663 172.078 118.663C171.491 118.663 171.085 118.556 170.858 118.343C170.645 118.13 170.538 117.736 170.538 117.163V108.803C170.538 108.23 170.645 107.836 170.858 107.623C171.085 107.41 171.491 107.303 172.078 107.303H178.558ZM183.018 105.963C183.285 105.963 183.518 106.03 183.718 106.163C183.918 106.296 184.018 106.51 184.018 106.803V112.003H186.218C186.485 112.003 186.671 112.09 186.778 112.263C186.898 112.423 186.958 112.623 186.958 112.863C186.958 113.103 186.898 113.31 186.778 113.483C186.671 113.656 186.485 113.743 186.218 113.743H184.018V122.403C184.018 122.696 183.918 122.91 183.718 123.043C183.518 123.176 183.285 123.243 183.018 123.243C182.751 123.243 182.518 123.176 182.318 123.043C182.118 122.91 182.018 122.696 182.018 122.403V106.803C182.018 106.51 182.118 106.296 182.318 106.163C182.518 106.03 182.751 105.963 183.018 105.963Z" fill="#9C9C9C"/>
</svg>
