<svg width="191" height="165" viewBox="0 0 191 165" fill="none" xmlns="http://www.w3.org/2000/svg">
<g filter="url(#filter0_g_40001191_17076)">
<path d="M166 65.5708C166 69.4447 165.753 73.2357 165.272 76.9159C163.721 88.9252 156.94 99.5925 146.742 105.998C133.578 114.286 116.351 119.488 97.3806 119.958C96.4197 119.986 95.4588 120 94.4842 120H93.6469C75.9121 119.862 59.5774 115.614 46.5645 108.53C35.446 102.484 27.9238 91.4848 26.002 78.9083C25.3432 74.6054 25 70.1365 25 65.5708C25 54.0457 27.1963 43.2263 31.0534 33.8596C39.1247 14.2407 54.4436 1 72.0137 1C78.1221 1 83.9559 2.5911 89.323 5.51041C93.2076 7.61342 97.8061 7.61342 101.677 5.51041C107.03 2.60493 112.864 1 118.959 1C137.586 1 153.687 15.8733 161.292 37.4291C164.298 45.938 165.986 55.4846 165.986 65.5708H166Z" fill="#EEEDEB" stroke="#2C2C2C" stroke-miterlimit="10"/>
<path d="M96.623 60.444C96.623 67.2851 95.0985 72.8298 88.5608 72.8298C82.4352 72.8298 79.6196 67.2851 79.6196 60.444C79.6196 53.6028 81.6935 48.0581 88.5608 48.0581C94.5353 48.0581 96.623 53.6028 96.623 60.444Z" fill="#FBFBFB" stroke="#2C2C2C" stroke-miterlimit="10"/>
<path d="M113.611 60.444C113.611 67.2851 112.087 72.8298 105.549 72.8298C99.4235 72.8298 96.6079 67.2851 96.6079 60.444C96.6079 53.6028 98.6818 48.0581 105.549 48.0581C111.524 48.0581 113.611 53.6028 113.611 60.444Z" fill="#FBFBFB" stroke="#2C2C2C" stroke-miterlimit="10"/>
<path d="M96.6221 61.1344C96.6221 64.9274 95.7843 68.0032 92.1584 68.0032C88.7659 68.0032 87.2002 64.9274 87.2002 61.1344C87.2002 57.3414 88.3539 54.2656 92.1584 54.2656C95.4684 54.2656 96.6221 57.3414 96.6221 61.1344Z" fill="#2C2C2C"/>
<path d="M113.611 60.4445C113.611 64.2374 112.774 67.3132 109.148 67.3132C105.755 67.3132 104.189 64.2374 104.189 60.4445C104.189 56.6515 105.343 53.5757 109.148 53.5757C112.458 53.5757 113.611 56.6515 113.611 60.4445Z" fill="#2C2C2C"/>
<path d="M97.7619 73.2301C97.7619 73.2301 90.8259 73.5887 91.7049 77.4645C92.584 81.3402 102.267 80.5402 103.64 78.8851C105.014 77.23 104.052 73.5473 97.7619 73.2163V73.2301Z" fill="#FBD7D5" stroke="#2C2C2C" stroke-miterlimit="10"/>
<path d="M74.2485 54.4169C74.2485 54.4169 89.0544 63.5477 97.9131 45.562" stroke="#2C2C2C" stroke-miterlimit="10" stroke-linecap="round"/>
<path d="M65.5826 71.4925C66.0604 71.4925 66.4478 71.1035 66.4478 70.6236C66.4478 70.1437 66.0604 69.7546 65.5826 69.7546C65.1047 69.7546 64.7173 70.1437 64.7173 70.6236C64.7173 71.1035 65.1047 71.4925 65.5826 71.4925Z" fill="#2C2C2C"/>
<path d="M70.9663 71.4925C71.4442 71.4925 71.8316 71.1035 71.8316 70.6236C71.8316 70.1437 71.4442 69.7546 70.9663 69.7546C70.4885 69.7546 70.1011 70.1437 70.1011 70.6236C70.1011 71.1035 70.4885 71.4925 70.9663 71.4925Z" fill="#2C2C2C"/>
<path d="M68.2745 74.1822C68.7523 74.1822 69.1397 73.7932 69.1397 73.3133C69.1397 72.8334 68.7523 72.4443 68.2745 72.4443C67.7966 72.4443 67.4092 72.8334 67.4092 73.3133C67.4092 73.7932 67.7966 74.1822 68.2745 74.1822Z" fill="#2C2C2C"/>
<path d="M116.606 71.4925C117.084 71.4925 117.471 71.1035 117.471 70.6236C117.471 70.1437 117.084 69.7546 116.606 69.7546C116.128 69.7546 115.741 70.1437 115.741 70.6236C115.741 71.1035 116.128 71.4925 116.606 71.4925Z" fill="#2C2C2C"/>
<path d="M122.003 71.4925C122.481 71.4925 122.869 71.1035 122.869 70.6236C122.869 70.1437 122.481 69.7546 122.003 69.7546C121.526 69.7546 121.138 70.1437 121.138 70.6236C121.138 71.1035 121.526 71.4925 122.003 71.4925Z" fill="#2C2C2C"/>
<path d="M119.312 74.1822C119.789 74.1822 120.177 73.7932 120.177 73.3133C120.177 72.8334 119.789 72.4443 119.312 72.4443C118.834 72.4443 118.446 72.8334 118.446 73.3133C118.446 73.7932 118.834 74.1822 119.312 74.1822Z" fill="#2C2C2C"/>
<path d="M91.6372 86.5403C91.6372 86.5403 95.5653 82.237 97.1997 84.1955L98.8341 86.1403" stroke="#2C2C2C" stroke-miterlimit="10" stroke-linecap="round"/>
<path d="M75.458 86.6504C75.458 90.7055 77.8616 92.2227 79.9217 92.2227C81.9819 92.2227 84.3855 90.7055 84.3855 86.6504C84.3855 82.5953 79.9217 75.8921 79.9217 75.8921C79.9217 75.8921 75.458 82.5953 75.458 86.6504Z" fill="#93D1E0"/>
<path d="M88.7585 71.7896C88.9967 70.4937 86.8981 69.0182 84.071 68.4941C81.2439 67.97 78.759 68.5956 78.5207 69.8916C78.2825 71.1875 80.3812 72.6629 83.2082 73.1871C86.0353 73.7112 88.5203 73.0856 88.7585 71.7896Z" fill="#93D1E0"/>
</g>
<path d="M10.44 143.48C10.68 143.48 10.8533 143.567 10.96 143.74C11.08 143.913 11.14 144.113 11.14 144.34C11.14 144.567 11.08 144.767 10.96 144.94C10.8533 145.1 10.68 145.18 10.44 145.18H7.2V146.08C7.2 146.733 7.3 147.28 7.5 147.72C7.7 148.16 8.04 148.573 8.52 148.96C8.98667 149.347 9.42667 149.693 9.84 150C10.2533 150.307 10.62 150.573 10.94 150.8C11.1667 150.96 11.2867 151.153 11.3 151.38C11.3133 151.607 11.2467 151.82 11.1 152.02C10.9667 152.18 10.7867 152.307 10.56 152.4C10.3467 152.48 10.1133 152.433 9.86 152.26C9.62 152.087 9.30667 151.86 8.92 151.58C8.53333 151.287 8.12667 150.967 7.7 150.62C7.19333 150.207 6.83333 149.88 6.62 149.64C6.42 149.387 6.29333 149.16 6.24 148.96H6.22C6.16667 149.187 6.02667 149.433 5.8 149.7C5.58667 149.967 5.22667 150.3 4.72 150.7C4.28 151.047 3.84667 151.38 3.42 151.7C3.00667 152.007 2.6 152.3 2.2 152.58C1.97333 152.74 1.74 152.78 1.5 152.7C1.27333 152.62 1.1 152.493 0.98 152.32C0.833333 152.133 0.766667 151.92 0.78 151.68C0.793333 151.44 0.913333 151.233 1.14 151.06C1.62 150.727 2.08 150.4 2.52 150.08C2.97333 149.747 3.43333 149.393 3.9 149.02C4.36667 148.633 4.7 148.22 4.9 147.78C5.1 147.34 5.2 146.793 5.2 146.14V145.18H1.82C1.56667 145.18 1.38 145.1 1.26 144.94C1.15333 144.767 1.1 144.567 1.1 144.34C1.1 144.113 1.15333 143.913 1.26 143.74C1.38 143.567 1.56667 143.48 1.82 143.48H10.44ZM13.92 142.44C14.1867 142.44 14.42 142.507 14.62 142.64C14.82 142.773 14.92 142.987 14.92 143.28V146.76H17.12C17.3867 146.76 17.5733 146.847 17.68 147.02C17.8 147.193 17.86 147.393 17.86 147.62C17.86 147.873 17.8 148.087 17.68 148.26C17.5733 148.42 17.3867 148.5 17.12 148.5H14.92V152.42C14.92 152.713 14.82 152.927 14.62 153.06C14.42 153.193 14.1867 153.26 13.92 153.26C13.6533 153.26 13.42 153.193 13.22 153.06C13.02 152.927 12.92 152.713 12.92 152.42V143.28C12.92 142.987 13.02 142.773 13.22 142.64C13.42 142.507 13.6533 142.44 13.92 142.44ZM13.38 154.12C13.9667 154.12 14.3667 154.227 14.58 154.44C14.8067 154.653 14.92 155.047 14.92 155.62V160.2C14.92 160.493 14.82 160.707 14.62 160.84C14.42 160.973 14.1867 161.04 13.92 161.04C13.6533 161.04 13.42 160.973 13.22 160.84C13.02 160.707 12.92 160.493 12.92 160.2V156.24C12.92 155.973 12.78 155.84 12.5 155.84H3.8C3.54667 155.84 3.36 155.753 3.24 155.58C3.13333 155.407 3.08 155.207 3.08 154.98C3.08 154.753 3.13333 154.553 3.24 154.38C3.36 154.207 3.54667 154.12 3.8 154.12H13.38ZM24.1531 143.04C24.4198 143.04 24.6531 143.107 24.8531 143.24C25.0665 143.373 25.1731 143.587 25.1731 143.88V145.84C25.1731 146.48 25.2731 147.027 25.4731 147.48C25.6731 147.933 26.0065 148.36 26.4731 148.76C26.9398 149.147 27.3798 149.5 27.7931 149.82C28.2065 150.14 28.5731 150.413 28.8931 150.64C29.1198 150.8 29.2331 151 29.2331 151.24C29.2465 151.467 29.1798 151.673 29.0331 151.86C28.8998 152.033 28.7198 152.16 28.4931 152.24C28.2665 152.32 28.0331 152.273 27.7931 152.1C27.5398 151.913 27.2198 151.673 26.8331 151.38C26.4598 151.073 26.0598 150.747 25.6331 150.4C25.1398 150.013 24.7865 149.693 24.5731 149.44C24.3731 149.173 24.2465 148.94 24.1931 148.74H24.1731C24.1198 148.967 23.9798 149.22 23.7531 149.5C23.5398 149.767 23.1931 150.1 22.7131 150.5C22.2865 150.847 21.8665 151.18 21.4531 151.5C21.0398 151.82 20.6265 152.127 20.2131 152.42C19.9865 152.58 19.7531 152.627 19.5131 152.56C19.2865 152.48 19.1065 152.353 18.9731 152.18C18.8398 151.993 18.7731 151.78 18.7731 151.54C18.7731 151.287 18.8931 151.073 19.1331 150.9C19.5998 150.567 20.0531 150.233 20.4931 149.9C20.9331 149.567 21.3865 149.207 21.8531 148.82C22.3198 148.42 22.6531 147.993 22.8531 147.54C23.0531 147.073 23.1531 146.52 23.1531 145.88V143.88C23.1531 143.587 23.2531 143.373 23.4531 143.24C23.6531 143.107 23.8865 143.04 24.1531 143.04ZM32.6931 142.44C32.9465 142.44 33.1731 142.507 33.3731 142.64C33.5731 142.773 33.6731 142.987 33.6731 143.28V152.58C33.6731 152.86 33.5731 153.067 33.3731 153.2C33.1731 153.333 32.9465 153.4 32.6931 153.4C32.4265 153.4 32.1931 153.333 31.9931 153.2C31.7931 153.067 31.6931 152.86 31.6931 152.58V147.84H28.6531C28.3998 147.84 28.2131 147.76 28.0931 147.6C27.9865 147.427 27.9331 147.227 27.9331 147C27.9331 146.76 27.9865 146.56 28.0931 146.4C28.2131 146.227 28.3998 146.14 28.6531 146.14H31.6931V143.28C31.6931 142.987 31.7931 142.773 31.9931 142.64C32.1931 142.507 32.4265 142.44 32.6931 142.44ZM27.9131 153.58C29.7798 153.58 31.2198 153.9 32.2331 154.54C33.2598 155.167 33.7731 156.107 33.7731 157.36C33.7731 158.613 33.2598 159.553 32.2331 160.18C31.2198 160.82 29.7798 161.14 27.9131 161.14C26.0465 161.14 24.5998 160.82 23.5731 160.18C22.5598 159.553 22.0531 158.613 22.0531 157.36C22.0531 156.107 22.5598 155.167 23.5731 154.54C24.5998 153.9 26.0465 153.58 27.9131 153.58ZM27.9131 155.2C26.5531 155.2 25.5665 155.4 24.9531 155.8C24.3398 156.187 24.0331 156.707 24.0331 157.36C24.0331 158.027 24.3398 158.553 24.9531 158.94C25.5665 159.327 26.5531 159.52 27.9131 159.52C29.2731 159.52 30.2598 159.327 30.8731 158.94C31.4865 158.553 31.7931 158.027 31.7931 157.36C31.7931 156.693 31.4865 156.167 30.8731 155.78C30.2598 155.393 29.2731 155.2 27.9131 155.2ZM41.6662 147.34C42.9996 147.34 44.0396 147.647 44.7862 148.26C45.5463 148.86 45.9263 149.667 45.9263 150.68C45.9263 151.693 45.5463 152.507 44.7862 153.12C44.0396 153.72 42.9996 154.02 41.6662 154.02C40.3329 154.02 39.2862 153.72 38.5262 153.12C37.7796 152.507 37.4062 151.693 37.4062 150.68C37.4062 149.667 37.7796 148.86 38.5262 148.26C39.2862 147.647 40.3329 147.34 41.6662 147.34ZM41.6662 142.4C41.9329 142.4 42.1662 142.467 42.3662 142.6C42.5662 142.733 42.6662 142.947 42.6662 143.24V144.5H46.2462C46.4863 144.5 46.6596 144.587 46.7663 144.76C46.8863 144.933 46.9463 145.133 46.9463 145.36C46.9463 145.587 46.8863 145.787 46.7663 145.96C46.6596 146.133 46.4863 146.22 46.2462 146.22H36.8862C36.6462 146.22 36.4662 146.133 36.3462 145.96C36.2396 145.787 36.1862 145.587 36.1862 145.36C36.1862 145.133 36.2396 144.933 36.3462 144.76C36.4662 144.587 36.6462 144.5 36.8862 144.5H40.6662V143.24C40.6662 142.947 40.7662 142.733 40.9662 142.6C41.1796 142.467 41.4129 142.4 41.6662 142.4ZM41.6662 148.92C40.8662 148.92 40.2529 149.087 39.8262 149.42C39.4129 149.74 39.2062 150.16 39.2062 150.68C39.2062 151.187 39.4129 151.607 39.8262 151.94C40.2529 152.273 40.8662 152.44 41.6662 152.44C42.4796 152.44 43.0929 152.273 43.5063 151.94C43.9196 151.607 44.1262 151.187 44.1262 150.68C44.1262 150.16 43.9196 149.74 43.5063 149.42C43.0929 149.087 42.4796 148.92 41.6662 148.92ZM49.4663 142.44C49.7329 142.44 49.9662 142.507 50.1662 142.64C50.3663 142.773 50.4663 142.987 50.4663 143.28V147.78H52.6863C52.9396 147.78 53.1196 147.867 53.2263 148.04C53.3463 148.2 53.4063 148.4 53.4063 148.64C53.4063 148.88 53.3463 149.087 53.2263 149.26C53.1196 149.42 52.9396 149.5 52.6863 149.5H50.4663V155.32C50.4663 155.613 50.3663 155.827 50.1662 155.96C49.9662 156.093 49.7329 156.16 49.4663 156.16C49.2129 156.16 48.9863 156.093 48.7863 155.96C48.5862 155.827 48.4862 155.613 48.4862 155.32V143.28C48.4862 142.987 48.5862 142.773 48.7863 142.64C48.9863 142.507 49.2129 142.44 49.4663 142.44ZM40.0062 155.04C40.2596 155.04 40.4862 155.107 40.6862 155.24C40.8996 155.373 41.0062 155.587 41.0062 155.88V158.5C41.0062 158.647 41.0329 158.747 41.0862 158.8C41.1529 158.867 41.2662 158.9 41.4262 158.9H50.2262C50.4796 158.9 50.6596 158.987 50.7663 159.16C50.8863 159.333 50.9463 159.54 50.9463 159.78C50.9463 160.007 50.8863 160.207 50.7663 160.38C50.6596 160.553 50.4796 160.64 50.2262 160.64H40.5262C39.9396 160.64 39.5329 160.533 39.3062 160.32C39.0929 160.107 38.9862 159.713 38.9862 159.14V155.88C38.9862 155.587 39.0862 155.373 39.2862 155.24C39.4996 155.107 39.7396 155.04 40.0062 155.04ZM66.4494 143.8C67.036 143.8 67.436 143.907 67.6494 144.12C67.876 144.333 67.9894 144.727 67.9894 145.3V147.56C67.9894 148.12 67.956 148.627 67.8894 149.08C67.8227 149.52 67.696 149.94 67.5094 150.34C67.3227 150.74 67.0627 151.133 66.7294 151.52C66.396 151.893 65.9627 152.293 65.4294 152.72C64.9094 153.133 64.276 153.587 63.5294 154.08C62.7827 154.573 61.896 155.133 60.8694 155.76C60.6427 155.893 60.416 155.92 60.1894 155.84C59.9627 155.747 59.7827 155.607 59.6494 155.42C59.516 155.233 59.4494 155.013 59.4494 154.76C59.4627 154.507 59.5827 154.307 59.8094 154.16C60.756 153.587 61.5627 153.087 62.2294 152.66C62.9094 152.22 63.476 151.827 63.9294 151.48C64.3827 151.12 64.7427 150.793 65.0094 150.5C65.2894 150.193 65.5027 149.893 65.6494 149.6C65.796 149.293 65.8894 148.973 65.9294 148.64C65.9694 148.293 65.9894 147.907 65.9894 147.48V145.94C65.9894 145.793 65.956 145.693 65.8894 145.64C65.836 145.573 65.7294 145.54 65.5694 145.54H60.3694C60.116 145.54 59.9294 145.453 59.8094 145.28C59.7027 145.107 59.6494 144.907 59.6494 144.68C59.6494 144.44 59.7027 144.233 59.8094 144.06C59.9294 143.887 60.116 143.8 60.3694 143.8H66.4494ZM72.6494 142.44C72.916 142.44 73.1494 142.507 73.3494 142.64C73.5627 142.773 73.6694 142.987 73.6694 143.28V158.88C73.6694 159.173 73.5627 159.387 73.3494 159.52C73.1494 159.653 72.916 159.72 72.6494 159.72C72.396 159.72 72.1627 159.653 71.9494 159.52C71.7494 159.387 71.6494 159.173 71.6494 158.88V143.28C71.6494 142.987 71.7494 142.773 71.9494 142.64C72.1627 142.507 72.396 142.44 72.6494 142.44ZM89.2225 142.98C89.8092 142.98 90.2092 143.087 90.4225 143.3C90.6492 143.513 90.7625 143.907 90.7625 144.48V146.1C90.7625 146.673 90.6492 147.067 90.4225 147.28C90.2092 147.493 89.8092 147.6 89.2225 147.6H80.9825C80.7825 147.6 80.6825 147.7 80.6825 147.9V148.82C80.6825 149.02 80.7825 149.12 80.9825 149.12H90.5625C90.7892 149.12 90.9492 149.2 91.0425 149.36C91.1492 149.52 91.2025 149.707 91.2025 149.92C91.2025 150.133 91.1492 150.32 91.0425 150.48C90.9492 150.64 90.7892 150.72 90.5625 150.72H80.2825C79.6958 150.72 79.2892 150.613 79.0625 150.4C78.8492 150.187 78.7425 149.793 78.7425 149.22V147.58C78.7425 147.007 78.8492 146.613 79.0625 146.4C79.2892 146.187 79.6958 146.08 80.2825 146.08H88.5025C88.7158 146.08 88.8225 145.973 88.8225 145.76V144.88C88.8225 144.68 88.7158 144.58 88.5025 144.58H79.3425C79.1158 144.58 78.9492 144.5 78.8425 144.34C78.7492 144.18 78.7025 143.993 78.7025 143.78C78.7025 143.567 78.7492 143.38 78.8425 143.22C78.9492 143.06 79.1158 142.98 79.3425 142.98H89.2225ZM85.7425 152.34H92.4825C92.7092 152.34 92.8758 152.42 92.9825 152.58C93.1025 152.74 93.1625 152.933 93.1625 153.16C93.1625 153.387 93.1025 153.58 92.9825 153.74C92.8758 153.9 92.7092 153.98 92.4825 153.98H77.0425C76.8158 153.98 76.6425 153.9 76.5225 153.74C76.4158 153.58 76.3625 153.387 76.3625 153.16C76.3625 152.933 76.4158 152.74 76.5225 152.58C76.6425 152.42 76.8158 152.34 77.0425 152.34H83.7825V149.92H85.7425V152.34ZM89.3625 155.3C89.9492 155.3 90.3492 155.407 90.5625 155.62C90.7892 155.833 90.9025 156.227 90.9025 156.8V160.28C90.9025 160.573 90.7958 160.787 90.5825 160.92C90.3825 161.053 90.1558 161.12 89.9025 161.12C89.6492 161.12 89.4158 161.053 89.2025 160.92C89.0025 160.787 88.9025 160.573 88.9025 160.28V157.36C88.9025 157.213 88.8692 157.107 88.8025 157.04C88.7492 156.973 88.6425 156.94 88.4825 156.94H79.0825C78.8425 156.94 78.6692 156.86 78.5625 156.7C78.4558 156.54 78.4025 156.347 78.4025 156.12C78.4025 155.893 78.4558 155.7 78.5625 155.54C78.6692 155.38 78.8425 155.3 79.0825 155.3H89.3625ZM99.5156 143.46C101.076 143.46 102.249 143.973 103.036 145C103.822 146.013 104.216 147.493 104.216 149.44C104.216 151.387 103.822 152.873 103.036 153.9C102.249 154.913 101.076 155.42 99.5156 155.42C97.9556 155.42 96.7823 154.913 95.9956 153.9C95.2223 152.873 94.8356 151.387 94.8356 149.44C94.8356 147.493 95.2223 146.013 95.9956 145C96.7823 143.973 97.9556 143.46 99.5156 143.46ZM99.5156 145.22C98.529 145.22 97.8223 145.58 97.3956 146.3C96.9823 147.02 96.7756 148.067 96.7756 149.44C96.7756 150.813 96.9823 151.86 97.3956 152.58C97.8223 153.3 98.529 153.66 99.5156 153.66C100.516 153.66 101.222 153.3 101.636 152.58C102.062 151.86 102.276 150.813 102.276 149.44C102.276 148.067 102.062 147.02 101.636 146.3C101.222 145.58 100.516 145.22 99.5156 145.22ZM108.196 142.44C108.462 142.44 108.696 142.507 108.896 142.64C109.109 142.773 109.216 142.987 109.216 143.28V158.88C109.216 159.173 109.109 159.387 108.896 159.52C108.696 159.653 108.462 159.72 108.196 159.72C107.942 159.72 107.709 159.653 107.496 159.52C107.296 159.387 107.196 159.173 107.196 158.88V143.28C107.196 142.987 107.296 142.773 107.496 142.64C107.709 142.507 107.942 142.44 108.196 142.44ZM121.659 143.14C122.432 143.14 123.105 143.253 123.679 143.48C124.252 143.693 124.725 143.993 125.099 144.38C125.485 144.767 125.772 145.227 125.959 145.76C126.159 146.28 126.259 146.847 126.259 147.46C126.259 148.087 126.159 148.667 125.959 149.2C125.772 149.72 125.485 150.173 125.099 150.56C124.725 150.947 124.252 151.253 123.679 151.48C123.105 151.693 122.432 151.8 121.659 151.8C120.885 151.8 120.212 151.693 119.639 151.48C119.065 151.253 118.585 150.947 118.199 150.56C117.825 150.173 117.539 149.72 117.339 149.2C117.152 148.667 117.059 148.087 117.059 147.46C117.059 146.847 117.152 146.28 117.339 145.76C117.539 145.227 117.825 144.767 118.199 144.38C118.585 143.993 119.065 143.693 119.639 143.48C120.212 143.253 120.885 143.14 121.659 143.14ZM121.659 144.8C121.179 144.8 120.765 144.873 120.419 145.02C120.085 145.153 119.812 145.347 119.599 145.6C119.385 145.84 119.225 146.12 119.119 146.44C119.025 146.76 118.979 147.1 118.979 147.46C118.979 147.82 119.025 148.16 119.119 148.48C119.225 148.8 119.385 149.087 119.599 149.34C119.812 149.58 120.085 149.773 120.419 149.92C120.765 150.053 121.179 150.12 121.659 150.12C122.139 150.12 122.545 150.053 122.879 149.92C123.225 149.773 123.505 149.58 123.719 149.34C123.932 149.087 124.085 148.8 124.179 148.48C124.285 148.16 124.339 147.82 124.339 147.46C124.339 147.1 124.285 146.76 124.179 146.44C124.085 146.12 123.932 145.84 123.719 145.6C123.505 145.347 123.225 145.153 122.879 145.02C122.545 144.873 122.139 144.8 121.659 144.8ZM130.699 142.44C130.952 142.44 131.179 142.507 131.379 142.64C131.579 142.773 131.679 142.987 131.679 143.28V151.5C131.679 151.793 131.579 152.007 131.379 152.14C131.179 152.273 130.952 152.34 130.699 152.34C130.432 152.34 130.199 152.273 129.999 152.14C129.799 152.007 129.699 151.793 129.699 151.5V148.32H124.979V146.62H129.699V143.28C129.699 142.987 129.799 142.773 129.999 142.64C130.199 142.507 130.432 142.44 130.699 142.44ZM129.399 153.2C129.652 153.2 129.879 153.267 130.079 153.4C130.279 153.533 130.379 153.747 130.379 154.04V155.22C130.379 155.5 130.392 155.753 130.419 155.98C130.459 156.193 130.512 156.4 130.579 156.6C130.645 156.787 130.739 156.967 130.859 157.14C130.979 157.313 131.132 157.5 131.319 157.7C131.585 157.993 131.845 158.28 132.099 158.56C132.365 158.84 132.632 159.107 132.899 159.36C133.072 159.52 133.145 159.707 133.119 159.92C133.092 160.147 132.999 160.333 132.839 160.48C132.665 160.653 132.465 160.74 132.239 160.74C132.012 160.753 131.812 160.673 131.639 160.5C131.412 160.287 131.179 160.06 130.939 159.82C130.712 159.58 130.505 159.367 130.319 159.18C129.999 158.807 129.779 158.52 129.659 158.32C129.539 158.133 129.459 157.947 129.419 157.76H129.399C129.372 157.96 129.292 158.16 129.159 158.36C129.039 158.56 128.819 158.847 128.499 159.22C128.312 159.407 128.099 159.62 127.859 159.86C127.632 160.1 127.405 160.327 127.179 160.54C127.005 160.713 126.805 160.793 126.579 160.78C126.352 160.767 126.152 160.68 125.979 160.52C125.819 160.36 125.725 160.167 125.699 159.94C125.672 159.713 125.739 159.52 125.899 159.36C126.432 158.84 126.965 158.287 127.499 157.7C127.672 157.5 127.819 157.313 127.939 157.14C128.059 156.967 128.152 156.787 128.219 156.6C128.299 156.4 128.352 156.193 128.379 155.98C128.405 155.753 128.419 155.5 128.419 155.22V154.04C128.419 153.747 128.519 153.533 128.719 153.4C128.919 153.267 129.145 153.2 129.399 153.2ZM120.539 158.88C120.539 159.147 120.672 159.28 120.939 159.28H123.119C123.385 159.28 123.519 159.147 123.519 158.88V157.22H120.539V158.88ZM119.639 153.2C119.865 153.2 120.072 153.26 120.259 153.38C120.445 153.5 120.539 153.693 120.539 153.96V155.7H123.519V153.96C123.519 153.693 123.612 153.5 123.799 153.38C123.985 153.26 124.192 153.2 124.419 153.2C124.645 153.2 124.852 153.26 125.039 153.38C125.225 153.5 125.319 153.693 125.319 153.96V159.3C125.319 159.607 125.292 159.853 125.239 160.04C125.199 160.24 125.119 160.393 124.999 160.5C124.892 160.607 124.739 160.68 124.539 160.72C124.339 160.773 124.085 160.8 123.779 160.8H120.279C119.972 160.8 119.719 160.773 119.519 160.72C119.319 160.68 119.159 160.607 119.039 160.5C118.932 160.393 118.852 160.24 118.799 160.04C118.759 159.853 118.739 159.607 118.739 159.3V153.96C118.739 153.693 118.832 153.5 119.019 153.38C119.205 153.26 119.412 153.2 119.639 153.2ZM142.652 142.7C142.919 142.7 143.152 142.767 143.352 142.9C143.565 143.033 143.672 143.253 143.672 143.56V144.22C143.672 144.78 143.825 145.24 144.132 145.6C144.452 145.96 144.965 146.293 145.672 146.6C146.325 146.893 146.932 147.16 147.492 147.4C148.052 147.627 148.632 147.853 149.232 148.08C149.432 148.16 149.552 148.313 149.592 148.54C149.645 148.767 149.632 148.98 149.552 149.18C149.472 149.393 149.332 149.56 149.132 149.68C148.932 149.787 148.719 149.793 148.492 149.7C147.959 149.5 147.405 149.287 146.832 149.06C146.272 148.82 145.719 148.58 145.172 148.34C144.279 147.953 143.652 147.613 143.292 147.32C142.945 147.013 142.739 146.74 142.672 146.5H142.652C142.612 146.633 142.545 146.773 142.452 146.92C142.359 147.053 142.212 147.2 142.012 147.36C141.825 147.507 141.579 147.667 141.272 147.84C140.965 148.013 140.592 148.193 140.152 148.38C139.592 148.62 139.039 148.853 138.492 149.08C137.945 149.307 137.399 149.527 136.852 149.74C136.585 149.847 136.352 149.84 136.152 149.72C135.965 149.6 135.832 149.433 135.752 149.22C135.659 149.02 135.632 148.8 135.672 148.56C135.712 148.32 135.845 148.16 136.072 148.08C136.672 147.853 137.252 147.627 137.812 147.4C138.372 147.16 138.979 146.893 139.632 146.6C140.339 146.293 140.845 145.96 141.152 145.6C141.472 145.24 141.632 144.78 141.632 144.22V143.56C141.632 143.253 141.732 143.033 141.932 142.9C142.145 142.767 142.385 142.7 142.652 142.7ZM150.352 151.06C150.592 151.06 150.765 151.14 150.872 151.3C150.992 151.46 151.052 151.66 151.052 151.9C151.052 152.127 150.992 152.327 150.872 152.5C150.765 152.66 150.592 152.74 150.352 152.74H134.952C134.712 152.74 134.532 152.66 134.412 152.5C134.305 152.327 134.252 152.127 134.252 151.9C134.252 151.66 134.305 151.46 134.412 151.3C134.532 151.14 134.712 151.06 134.952 151.06H150.352ZM137.492 153.96C137.745 153.96 137.972 154.027 138.172 154.16C138.372 154.293 138.472 154.5 138.472 154.78V156.04H146.832V154.78C146.832 154.5 146.932 154.293 147.132 154.16C147.332 154.027 147.552 153.96 147.792 153.96C148.045 153.96 148.272 154.027 148.472 154.16C148.685 154.293 148.792 154.5 148.792 154.78V159.36C148.792 159.933 148.679 160.327 148.452 160.54C148.239 160.753 147.839 160.86 147.252 160.86H138.052C137.465 160.86 137.065 160.753 136.852 160.54C136.639 160.327 136.532 159.933 136.532 159.36V154.78C136.532 154.5 136.632 154.293 136.832 154.16C137.032 154.027 137.252 153.96 137.492 153.96ZM138.472 158.94C138.472 159.14 138.579 159.24 138.792 159.24H146.512C146.725 159.24 146.832 159.14 146.832 158.94V157.62H138.472V158.94ZM154.225 143.6C154.492 143.6 154.725 143.667 154.925 143.8C155.125 143.933 155.225 144.153 155.225 144.46V152.94C155.225 153.22 155.365 153.36 155.645 153.36C157.032 153.36 158.298 153.327 159.445 153.26C160.592 153.18 161.705 153.067 162.785 152.92C163.012 152.893 163.192 152.953 163.325 153.1C163.472 153.247 163.558 153.433 163.585 153.66C163.612 153.9 163.578 154.12 163.485 154.32C163.405 154.507 163.252 154.613 163.025 154.64C162.558 154.707 162.052 154.767 161.505 154.82C160.972 154.873 160.372 154.92 159.705 154.96C159.038 155 158.298 155.033 157.485 155.06C156.672 155.073 155.758 155.08 154.745 155.08C154.158 155.08 153.758 154.973 153.545 154.76C153.332 154.547 153.225 154.153 153.225 153.58V144.46C153.225 144.153 153.325 143.933 153.525 143.8C153.725 143.667 153.958 143.6 154.225 143.6ZM166.085 142.44C166.352 142.44 166.585 142.507 166.785 142.64C166.998 142.773 167.105 142.987 167.105 143.28V158.88C167.105 159.173 166.998 159.387 166.785 159.52C166.585 159.653 166.352 159.72 166.085 159.72C165.832 159.72 165.598 159.653 165.385 159.52C165.185 159.387 165.085 159.173 165.085 158.88V143.28C165.085 142.987 165.185 142.773 165.385 142.64C165.598 142.507 165.832 142.44 166.085 142.44ZM178.558 143.78C178.798 143.78 178.971 143.867 179.078 144.04C179.198 144.213 179.258 144.42 179.258 144.66C179.258 144.887 179.198 145.087 179.078 145.26C178.971 145.42 178.798 145.5 178.558 145.5H172.958C172.678 145.5 172.538 145.64 172.538 145.92V153C172.538 153.28 172.678 153.42 172.958 153.42C174.278 153.42 175.505 153.387 176.638 153.32C177.771 153.24 178.878 153.127 179.958 152.98C180.185 152.953 180.365 153.013 180.498 153.16C180.645 153.307 180.731 153.493 180.758 153.72C180.785 153.96 180.751 154.18 180.658 154.38C180.578 154.567 180.425 154.673 180.198 154.7C179.731 154.767 179.225 154.827 178.678 154.88C178.145 154.933 177.551 154.98 176.898 155.02C176.245 155.06 175.518 155.093 174.718 155.12C173.931 155.133 173.051 155.14 172.078 155.14C171.491 155.14 171.085 155.033 170.858 154.82C170.645 154.607 170.538 154.213 170.538 153.64V145.28C170.538 144.707 170.645 144.313 170.858 144.1C171.085 143.887 171.491 143.78 172.078 143.78H178.558ZM183.018 142.44C183.285 142.44 183.518 142.507 183.718 142.64C183.918 142.773 184.018 142.987 184.018 143.28V148.48H186.218C186.485 148.48 186.671 148.567 186.778 148.74C186.898 148.9 186.958 149.1 186.958 149.34C186.958 149.58 186.898 149.787 186.778 149.96C186.671 150.133 186.485 150.22 186.218 150.22H184.018V158.88C184.018 159.173 183.918 159.387 183.718 159.52C183.518 159.653 183.285 159.72 183.018 159.72C182.751 159.72 182.518 159.653 182.318 159.52C182.118 159.387 182.018 159.173 182.018 158.88V143.28C182.018 142.987 182.118 142.773 182.318 142.64C182.518 142.507 182.751 142.44 183.018 142.44Z" fill="#9C9C9C"/>
<defs>
<filter id="filter0_g_40001191_17076" x="24.1" y="0.1" width="142.8" height="120.8" filterUnits="userSpaceOnUse" color-interpolation-filters="sRGB">
<feFlood flood-opacity="0" result="BackgroundImageFix"/>
<feBlend mode="normal" in="SourceGraphic" in2="BackgroundImageFix" result="shape"/>
<feTurbulence type="fractalNoise" baseFrequency="0.66666668653488159 0.66666668653488159" numOctaves="3" seed="7043" />
<feDisplacementMap in="shape" scale="0.80000001192092896" xChannelSelector="R" yChannelSelector="G" result="displacedImage" width="100%" height="100%" />
<feMerge result="effect1_texture_40001191_17076">
<feMergeNode in="displacedImage"/>
</feMerge>
</filter>
</defs>
</svg>
