<svg width="191" height="220" viewBox="0 0 191 220" fill="none" xmlns="http://www.w3.org/2000/svg">
<path d="M139.522 138.027C139.522 158.111 120.143 174.391 96.2608 174.391C72.3783 174.391 53 158.111 53 138.027C53 131.876 54.8156 126.075 58.0104 121.011C62.6368 113.668 62.9685 104.607 59.3896 96.7035C57.7311 93.0408 56.8233 89.0802 56.8233 84.9268C56.8233 79.9146 58.1501 75.1829 60.5069 70.9244C65.0984 62.6701 66.0062 52.7686 61.8337 44.2865C60.0181 40.6063 59.023 36.558 59.023 32.3345C59.023 15.0374 75.6954 1 96.2608 1C116.826 1 133.516 15.0374 133.516 32.3345C133.516 36.5756 132.521 40.6238 130.705 44.304C126.533 52.7861 127.441 62.6877 132.032 70.9594C134.389 75.2004 135.698 79.9322 135.698 84.9268C135.698 89.0802 134.791 93.0408 133.132 96.7035C129.553 104.607 129.885 113.668 134.511 121.011C137.706 126.093 139.522 131.876 139.522 138.027Z" fill="#EEEDEB" stroke="#2C2C2C" stroke-miterlimit="10"/>
<path d="M95.0297 33.1893C95.0297 39.3808 93.6429 44.4182 87.7305 44.4182C82.1831 44.4182 79.6284 39.3991 79.6284 33.1893C79.6284 26.9796 81.508 21.9604 87.7305 21.9604C93.1502 21.9604 95.0297 26.9796 95.0297 33.1893Z" fill="#FBFBFB" stroke="#2C2C2C" stroke-miterlimit="10"/>
<path d="M110.431 33.1893C110.431 33.4092 110.431 33.6107 110.431 33.8305C110.394 36.7247 110.011 39.3075 108.971 41.2126C106.891 41.4324 105.102 42.6414 104.062 44.3633C103.77 44.3999 103.46 44.4182 103.15 44.4182C97.6026 44.4182 95.0479 39.3991 95.0479 33.1893C95.0479 26.9796 96.9456 21.9604 103.15 21.9604C108.369 21.9604 110.303 26.6132 110.449 32.5116C110.449 32.7314 110.449 32.9695 110.449 33.1893H110.431Z" fill="#FBFBFB" stroke="#2C2C2C" stroke-miterlimit="10"/>
<path d="M95.4238 43.8396C96.5939 44.0172 97.2478 44.6429 97.5703 45.3201C97.9132 46.0401 97.8782 46.8037 97.6826 47.2029C97.6403 47.2888 97.45 47.4633 97.0098 47.5964C96.6008 47.72 96.0795 47.7737 95.5557 47.7195C94.49 47.6092 93.6058 47.0928 93.4238 46.0544C93.3215 45.47 93.4119 45.0742 93.5625 44.7996C93.7163 44.5191 93.96 44.314 94.2441 44.1648C94.5299 44.0147 94.8378 43.9309 95.0811 43.8855C95.2006 43.8632 95.3006 43.8511 95.3691 43.8445C95.3906 43.8424 95.4091 43.8407 95.4238 43.8396Z" fill="#93D1E0" stroke="#2C2C2C"/>
<path d="M108.952 41.2124C109.189 41.1758 109.445 41.1575 109.682 41.1575C112.127 41.1575 114.262 42.4947 115.394 44.473" stroke="#2C2C2C" stroke-miterlimit="10" stroke-linecap="round"/>
<path d="M104.045 44.3633L103.971 44.4746" stroke="#2C2C2C" stroke-miterlimit="10" stroke-linecap="round"/>
<path d="M75.9604 64.8708C75.9604 68.4977 78.1063 69.8601 79.9587 69.8601C81.8111 69.8601 83.9569 68.4977 83.9569 64.8708C83.9569 61.2439 79.9587 55.2419 79.9587 55.2419C79.9587 55.2419 75.9604 61.2439 75.9604 64.8708Z" fill="#93D1E0"/>
<path d="M87.8521 44.1693C88.0654 43.0095 86.1873 41.6891 83.6573 41.2202C81.1272 40.7513 78.9033 41.3115 78.69 42.4714C78.4766 43.6313 80.3547 44.9516 82.8848 45.4205C85.4148 45.8894 87.6388 45.3292 87.8521 44.1693Z" fill="#93D1E0"/>
<path d="M80.3443 52.0385C81.4484 52.0385 82.3434 51.14 82.3434 50.0317C82.3434 48.9234 81.4484 48.0249 80.3443 48.0249C79.2402 48.0249 78.3452 48.9234 78.3452 50.0317C78.3452 51.14 79.2402 52.0385 80.3443 52.0385Z" fill="#93D1E0"/>
<path d="M92.4668 58.0051C92.4668 58.0051 98.996 50.8617 101.71 54.102L104.425 57.3423" stroke="#2C2C2C" stroke-miterlimit="10" stroke-linecap="round"/>
<path d="M96.814 33.0068L104.847 36.8731" stroke="#2C2C2C" stroke-miterlimit="10" stroke-linecap="round"/>
<path d="M93.1456 33.0068L85.1309 36.8731" stroke="#2C2C2C" stroke-miterlimit="10" stroke-linecap="round"/>
<path d="M10.44 197.871C10.68 197.871 10.8533 197.958 10.96 198.131C11.08 198.305 11.14 198.505 11.14 198.731C11.14 198.958 11.08 199.158 10.96 199.331C10.8533 199.491 10.68 199.571 10.44 199.571H7.2V200.471C7.2 201.125 7.3 201.671 7.5 202.111C7.7 202.551 8.04 202.965 8.52 203.351C8.98667 203.738 9.42667 204.085 9.84 204.391C10.2533 204.698 10.62 204.965 10.94 205.191C11.1667 205.351 11.2867 205.545 11.3 205.771C11.3133 205.998 11.2467 206.211 11.1 206.411C10.9667 206.571 10.7867 206.698 10.56 206.791C10.3467 206.871 10.1133 206.825 9.86 206.651C9.62 206.478 9.30667 206.251 8.92 205.971C8.53333 205.678 8.12667 205.358 7.7 205.011C7.19333 204.598 6.83333 204.271 6.62 204.031C6.42 203.778 6.29333 203.551 6.24 203.351H6.22C6.16667 203.578 6.02667 203.825 5.8 204.091C5.58667 204.358 5.22667 204.691 4.72 205.091C4.28 205.438 3.84667 205.771 3.42 206.091C3.00667 206.398 2.6 206.691 2.2 206.971C1.97333 207.131 1.74 207.171 1.5 207.091C1.27333 207.011 1.1 206.885 0.98 206.711C0.833333 206.525 0.766667 206.311 0.78 206.071C0.793333 205.831 0.913333 205.625 1.14 205.451C1.62 205.118 2.08 204.791 2.52 204.471C2.97333 204.138 3.43333 203.785 3.9 203.411C4.36667 203.025 4.7 202.611 4.9 202.171C5.1 201.731 5.2 201.185 5.2 200.531V199.571H1.82C1.56667 199.571 1.38 199.491 1.26 199.331C1.15333 199.158 1.1 198.958 1.1 198.731C1.1 198.505 1.15333 198.305 1.26 198.131C1.38 197.958 1.56667 197.871 1.82 197.871H10.44ZM13.92 196.831C14.1867 196.831 14.42 196.898 14.62 197.031C14.82 197.165 14.92 197.378 14.92 197.671V201.151H17.12C17.3867 201.151 17.5733 201.238 17.68 201.411C17.8 201.585 17.86 201.785 17.86 202.011C17.86 202.265 17.8 202.478 17.68 202.651C17.5733 202.811 17.3867 202.891 17.12 202.891H14.92V206.811C14.92 207.105 14.82 207.318 14.62 207.451C14.42 207.585 14.1867 207.651 13.92 207.651C13.6533 207.651 13.42 207.585 13.22 207.451C13.02 207.318 12.92 207.105 12.92 206.811V197.671C12.92 197.378 13.02 197.165 13.22 197.031C13.42 196.898 13.6533 196.831 13.92 196.831ZM13.38 208.511C13.9667 208.511 14.3667 208.618 14.58 208.831C14.8067 209.045 14.92 209.438 14.92 210.011V214.591C14.92 214.885 14.82 215.098 14.62 215.231C14.42 215.365 14.1867 215.431 13.92 215.431C13.6533 215.431 13.42 215.365 13.22 215.231C13.02 215.098 12.92 214.885 12.92 214.591V210.631C12.92 210.365 12.78 210.231 12.5 210.231H3.8C3.54667 210.231 3.36 210.145 3.24 209.971C3.13333 209.798 3.08 209.598 3.08 209.371C3.08 209.145 3.13333 208.945 3.24 208.771C3.36 208.598 3.54667 208.511 3.8 208.511H13.38ZM24.1531 197.431C24.4198 197.431 24.6531 197.498 24.8531 197.631C25.0665 197.765 25.1731 197.978 25.1731 198.271V200.231C25.1731 200.871 25.2731 201.418 25.4731 201.871C25.6731 202.325 26.0065 202.751 26.4731 203.151C26.9398 203.538 27.3798 203.891 27.7931 204.211C28.2065 204.531 28.5731 204.805 28.8931 205.031C29.1198 205.191 29.2331 205.391 29.2331 205.631C29.2465 205.858 29.1798 206.065 29.0331 206.251C28.8998 206.425 28.7198 206.551 28.4931 206.631C28.2665 206.711 28.0331 206.665 27.7931 206.491C27.5398 206.305 27.2198 206.065 26.8331 205.771C26.4598 205.465 26.0598 205.138 25.6331 204.791C25.1398 204.405 24.7865 204.085 24.5731 203.831C24.3731 203.565 24.2465 203.331 24.1931 203.131H24.1731C24.1198 203.358 23.9798 203.611 23.7531 203.891C23.5398 204.158 23.1931 204.491 22.7131 204.891C22.2865 205.238 21.8665 205.571 21.4531 205.891C21.0398 206.211 20.6265 206.518 20.2131 206.811C19.9865 206.971 19.7531 207.018 19.5131 206.951C19.2865 206.871 19.1065 206.745 18.9731 206.571C18.8398 206.385 18.7731 206.171 18.7731 205.931C18.7731 205.678 18.8931 205.465 19.1331 205.291C19.5998 204.958 20.0531 204.625 20.4931 204.291C20.9331 203.958 21.3865 203.598 21.8531 203.211C22.3198 202.811 22.6531 202.385 22.8531 201.931C23.0531 201.465 23.1531 200.911 23.1531 200.271V198.271C23.1531 197.978 23.2531 197.765 23.4531 197.631C23.6531 197.498 23.8865 197.431 24.1531 197.431ZM32.6931 196.831C32.9465 196.831 33.1731 196.898 33.3731 197.031C33.5731 197.165 33.6731 197.378 33.6731 197.671V206.971C33.6731 207.251 33.5731 207.458 33.3731 207.591C33.1731 207.725 32.9465 207.791 32.6931 207.791C32.4265 207.791 32.1931 207.725 31.9931 207.591C31.7931 207.458 31.6931 207.251 31.6931 206.971V202.231H28.6531C28.3998 202.231 28.2131 202.151 28.0931 201.991C27.9865 201.818 27.9331 201.618 27.9331 201.391C27.9331 201.151 27.9865 200.951 28.0931 200.791C28.2131 200.618 28.3998 200.531 28.6531 200.531H31.6931V197.671C31.6931 197.378 31.7931 197.165 31.9931 197.031C32.1931 196.898 32.4265 196.831 32.6931 196.831ZM27.9131 207.971C29.7798 207.971 31.2198 208.291 32.2331 208.931C33.2598 209.558 33.7731 210.498 33.7731 211.751C33.7731 213.005 33.2598 213.945 32.2331 214.571C31.2198 215.211 29.7798 215.531 27.9131 215.531C26.0465 215.531 24.5998 215.211 23.5731 214.571C22.5598 213.945 22.0531 213.005 22.0531 211.751C22.0531 210.498 22.5598 209.558 23.5731 208.931C24.5998 208.291 26.0465 207.971 27.9131 207.971ZM27.9131 209.591C26.5531 209.591 25.5665 209.791 24.9531 210.191C24.3398 210.578 24.0331 211.098 24.0331 211.751C24.0331 212.418 24.3398 212.945 24.9531 213.331C25.5665 213.718 26.5531 213.911 27.9131 213.911C29.2731 213.911 30.2598 213.718 30.8731 213.331C31.4865 212.945 31.7931 212.418 31.7931 211.751C31.7931 211.085 31.4865 210.558 30.8731 210.171C30.2598 209.785 29.2731 209.591 27.9131 209.591ZM41.6662 201.731C42.9996 201.731 44.0396 202.038 44.7862 202.651C45.5463 203.251 45.9263 204.058 45.9263 205.071C45.9263 206.085 45.5463 206.898 44.7862 207.511C44.0396 208.111 42.9996 208.411 41.6662 208.411C40.3329 208.411 39.2862 208.111 38.5262 207.511C37.7796 206.898 37.4062 206.085 37.4062 205.071C37.4062 204.058 37.7796 203.251 38.5262 202.651C39.2862 202.038 40.3329 201.731 41.6662 201.731ZM41.6662 196.791C41.9329 196.791 42.1662 196.858 42.3662 196.991C42.5662 197.125 42.6662 197.338 42.6662 197.631V198.891H46.2462C46.4863 198.891 46.6596 198.978 46.7663 199.151C46.8863 199.325 46.9463 199.525 46.9463 199.751C46.9463 199.978 46.8863 200.178 46.7663 200.351C46.6596 200.525 46.4863 200.611 46.2462 200.611H36.8862C36.6462 200.611 36.4662 200.525 36.3462 200.351C36.2396 200.178 36.1862 199.978 36.1862 199.751C36.1862 199.525 36.2396 199.325 36.3462 199.151C36.4662 198.978 36.6462 198.891 36.8862 198.891H40.6662V197.631C40.6662 197.338 40.7662 197.125 40.9662 196.991C41.1796 196.858 41.4129 196.791 41.6662 196.791ZM41.6662 203.311C40.8662 203.311 40.2529 203.478 39.8262 203.811C39.4129 204.131 39.2062 204.551 39.2062 205.071C39.2062 205.578 39.4129 205.998 39.8262 206.331C40.2529 206.665 40.8662 206.831 41.6662 206.831C42.4796 206.831 43.0929 206.665 43.5063 206.331C43.9196 205.998 44.1262 205.578 44.1262 205.071C44.1262 204.551 43.9196 204.131 43.5063 203.811C43.0929 203.478 42.4796 203.311 41.6662 203.311ZM49.4663 196.831C49.7329 196.831 49.9662 196.898 50.1662 197.031C50.3663 197.165 50.4663 197.378 50.4663 197.671V202.171H52.6863C52.9396 202.171 53.1196 202.258 53.2263 202.431C53.3463 202.591 53.4063 202.791 53.4063 203.031C53.4063 203.271 53.3463 203.478 53.2263 203.651C53.1196 203.811 52.9396 203.891 52.6863 203.891H50.4663V209.711C50.4663 210.005 50.3663 210.218 50.1662 210.351C49.9662 210.485 49.7329 210.551 49.4663 210.551C49.2129 210.551 48.9863 210.485 48.7863 210.351C48.5862 210.218 48.4862 210.005 48.4862 209.711V197.671C48.4862 197.378 48.5862 197.165 48.7863 197.031C48.9863 196.898 49.2129 196.831 49.4663 196.831ZM40.0062 209.431C40.2596 209.431 40.4862 209.498 40.6862 209.631C40.8996 209.765 41.0062 209.978 41.0062 210.271V212.891C41.0062 213.038 41.0329 213.138 41.0862 213.191C41.1529 213.258 41.2662 213.291 41.4262 213.291H50.2262C50.4796 213.291 50.6596 213.378 50.7663 213.551C50.8863 213.725 50.9463 213.931 50.9463 214.171C50.9463 214.398 50.8863 214.598 50.7663 214.771C50.6596 214.945 50.4796 215.031 50.2262 215.031H40.5262C39.9396 215.031 39.5329 214.925 39.3062 214.711C39.0929 214.498 38.9862 214.105 38.9862 213.531V210.271C38.9862 209.978 39.0862 209.765 39.2862 209.631C39.4996 209.498 39.7396 209.431 40.0062 209.431ZM66.4494 198.191C67.036 198.191 67.436 198.298 67.6494 198.511C67.876 198.725 67.9894 199.118 67.9894 199.691V201.951C67.9894 202.511 67.956 203.018 67.8894 203.471C67.8227 203.911 67.696 204.331 67.5094 204.731C67.3227 205.131 67.0627 205.525 66.7294 205.911C66.396 206.285 65.9627 206.685 65.4294 207.111C64.9094 207.525 64.276 207.978 63.5294 208.471C62.7827 208.965 61.896 209.525 60.8694 210.151C60.6427 210.285 60.416 210.311 60.1894 210.231C59.9627 210.138 59.7827 209.998 59.6494 209.811C59.516 209.625 59.4494 209.405 59.4494 209.151C59.4627 208.898 59.5827 208.698 59.8094 208.551C60.756 207.978 61.5627 207.478 62.2294 207.051C62.9094 206.611 63.476 206.218 63.9294 205.871C64.3827 205.511 64.7427 205.185 65.0094 204.891C65.2894 204.585 65.5027 204.285 65.6494 203.991C65.796 203.685 65.8894 203.365 65.9294 203.031C65.9694 202.685 65.9894 202.298 65.9894 201.871V200.331C65.9894 200.185 65.956 200.085 65.8894 200.031C65.836 199.965 65.7294 199.931 65.5694 199.931H60.3694C60.116 199.931 59.9294 199.845 59.8094 199.671C59.7027 199.498 59.6494 199.298 59.6494 199.071C59.6494 198.831 59.7027 198.625 59.8094 198.451C59.9294 198.278 60.116 198.191 60.3694 198.191H66.4494ZM72.6494 196.831C72.916 196.831 73.1494 196.898 73.3494 197.031C73.5627 197.165 73.6694 197.378 73.6694 197.671V213.271C73.6694 213.565 73.5627 213.778 73.3494 213.911C73.1494 214.045 72.916 214.111 72.6494 214.111C72.396 214.111 72.1627 214.045 71.9494 213.911C71.7494 213.778 71.6494 213.565 71.6494 213.271V197.671C71.6494 197.378 71.7494 197.165 71.9494 197.031C72.1627 196.898 72.396 196.831 72.6494 196.831ZM89.2225 197.371C89.8092 197.371 90.2092 197.478 90.4225 197.691C90.6492 197.905 90.7625 198.298 90.7625 198.871V200.491C90.7625 201.065 90.6492 201.458 90.4225 201.671C90.2092 201.885 89.8092 201.991 89.2225 201.991H80.9825C80.7825 201.991 80.6825 202.091 80.6825 202.291V203.211C80.6825 203.411 80.7825 203.511 80.9825 203.511H90.5625C90.7892 203.511 90.9492 203.591 91.0425 203.751C91.1492 203.911 91.2025 204.098 91.2025 204.311C91.2025 204.525 91.1492 204.711 91.0425 204.871C90.9492 205.031 90.7892 205.111 90.5625 205.111H80.2825C79.6958 205.111 79.2892 205.005 79.0625 204.791C78.8492 204.578 78.7425 204.185 78.7425 203.611V201.971C78.7425 201.398 78.8492 201.005 79.0625 200.791C79.2892 200.578 79.6958 200.471 80.2825 200.471H88.5025C88.7158 200.471 88.8225 200.365 88.8225 200.151V199.271C88.8225 199.071 88.7158 198.971 88.5025 198.971H79.3425C79.1158 198.971 78.9492 198.891 78.8425 198.731C78.7492 198.571 78.7025 198.385 78.7025 198.171C78.7025 197.958 78.7492 197.771 78.8425 197.611C78.9492 197.451 79.1158 197.371 79.3425 197.371H89.2225ZM85.7425 206.731H92.4825C92.7092 206.731 92.8758 206.811 92.9825 206.971C93.1025 207.131 93.1625 207.325 93.1625 207.551C93.1625 207.778 93.1025 207.971 92.9825 208.131C92.8758 208.291 92.7092 208.371 92.4825 208.371H77.0425C76.8158 208.371 76.6425 208.291 76.5225 208.131C76.4158 207.971 76.3625 207.778 76.3625 207.551C76.3625 207.325 76.4158 207.131 76.5225 206.971C76.6425 206.811 76.8158 206.731 77.0425 206.731H83.7825V204.311H85.7425V206.731ZM89.3625 209.691C89.9492 209.691 90.3492 209.798 90.5625 210.011C90.7892 210.225 90.9025 210.618 90.9025 211.191V214.671C90.9025 214.965 90.7958 215.178 90.5825 215.311C90.3825 215.445 90.1558 215.511 89.9025 215.511C89.6492 215.511 89.4158 215.445 89.2025 215.311C89.0025 215.178 88.9025 214.965 88.9025 214.671V211.751C88.9025 211.605 88.8692 211.498 88.8025 211.431C88.7492 211.365 88.6425 211.331 88.4825 211.331H79.0825C78.8425 211.331 78.6692 211.251 78.5625 211.091C78.4558 210.931 78.4025 210.738 78.4025 210.511C78.4025 210.285 78.4558 210.091 78.5625 209.931C78.6692 209.771 78.8425 209.691 79.0825 209.691H89.3625ZM99.5156 197.851C101.076 197.851 102.249 198.365 103.036 199.391C103.822 200.405 104.216 201.885 104.216 203.831C104.216 205.778 103.822 207.265 103.036 208.291C102.249 209.305 101.076 209.811 99.5156 209.811C97.9556 209.811 96.7823 209.305 95.9956 208.291C95.2223 207.265 94.8356 205.778 94.8356 203.831C94.8356 201.885 95.2223 200.405 95.9956 199.391C96.7823 198.365 97.9556 197.851 99.5156 197.851ZM99.5156 199.611C98.529 199.611 97.8223 199.971 97.3956 200.691C96.9823 201.411 96.7756 202.458 96.7756 203.831C96.7756 205.205 96.9823 206.251 97.3956 206.971C97.8223 207.691 98.529 208.051 99.5156 208.051C100.516 208.051 101.222 207.691 101.636 206.971C102.062 206.251 102.276 205.205 102.276 203.831C102.276 202.458 102.062 201.411 101.636 200.691C101.222 199.971 100.516 199.611 99.5156 199.611ZM108.196 196.831C108.462 196.831 108.696 196.898 108.896 197.031C109.109 197.165 109.216 197.378 109.216 197.671V213.271C109.216 213.565 109.109 213.778 108.896 213.911C108.696 214.045 108.462 214.111 108.196 214.111C107.942 214.111 107.709 214.045 107.496 213.911C107.296 213.778 107.196 213.565 107.196 213.271V197.671C107.196 197.378 107.296 197.165 107.496 197.031C107.709 196.898 107.942 196.831 108.196 196.831ZM121.659 197.531C122.432 197.531 123.105 197.645 123.679 197.871C124.252 198.085 124.725 198.385 125.099 198.771C125.485 199.158 125.772 199.618 125.959 200.151C126.159 200.671 126.259 201.238 126.259 201.851C126.259 202.478 126.159 203.058 125.959 203.591C125.772 204.111 125.485 204.565 125.099 204.951C124.725 205.338 124.252 205.645 123.679 205.871C123.105 206.085 122.432 206.191 121.659 206.191C120.885 206.191 120.212 206.085 119.639 205.871C119.065 205.645 118.585 205.338 118.199 204.951C117.825 204.565 117.539 204.111 117.339 203.591C117.152 203.058 117.059 202.478 117.059 201.851C117.059 201.238 117.152 200.671 117.339 200.151C117.539 199.618 117.825 199.158 118.199 198.771C118.585 198.385 119.065 198.085 119.639 197.871C120.212 197.645 120.885 197.531 121.659 197.531ZM121.659 199.191C121.179 199.191 120.765 199.265 120.419 199.411C120.085 199.545 119.812 199.738 119.599 199.991C119.385 200.231 119.225 200.511 119.119 200.831C119.025 201.151 118.979 201.491 118.979 201.851C118.979 202.211 119.025 202.551 119.119 202.871C119.225 203.191 119.385 203.478 119.599 203.731C119.812 203.971 120.085 204.165 120.419 204.311C120.765 204.445 121.179 204.511 121.659 204.511C122.139 204.511 122.545 204.445 122.879 204.311C123.225 204.165 123.505 203.971 123.719 203.731C123.932 203.478 124.085 203.191 124.179 202.871C124.285 202.551 124.339 202.211 124.339 201.851C124.339 201.491 124.285 201.151 124.179 200.831C124.085 200.511 123.932 200.231 123.719 199.991C123.505 199.738 123.225 199.545 122.879 199.411C122.545 199.265 122.139 199.191 121.659 199.191ZM130.699 196.831C130.952 196.831 131.179 196.898 131.379 197.031C131.579 197.165 131.679 197.378 131.679 197.671V205.891C131.679 206.185 131.579 206.398 131.379 206.531C131.179 206.665 130.952 206.731 130.699 206.731C130.432 206.731 130.199 206.665 129.999 206.531C129.799 206.398 129.699 206.185 129.699 205.891V202.711H124.979V201.011H129.699V197.671C129.699 197.378 129.799 197.165 129.999 197.031C130.199 196.898 130.432 196.831 130.699 196.831ZM129.399 207.591C129.652 207.591 129.879 207.658 130.079 207.791C130.279 207.925 130.379 208.138 130.379 208.431V209.611C130.379 209.891 130.392 210.145 130.419 210.371C130.459 210.585 130.512 210.791 130.579 210.991C130.645 211.178 130.739 211.358 130.859 211.531C130.979 211.705 131.132 211.891 131.319 212.091C131.585 212.385 131.845 212.671 132.099 212.951C132.365 213.231 132.632 213.498 132.899 213.751C133.072 213.911 133.145 214.098 133.119 214.311C133.092 214.538 132.999 214.725 132.839 214.871C132.665 215.045 132.465 215.131 132.239 215.131C132.012 215.145 131.812 215.065 131.639 214.891C131.412 214.678 131.179 214.451 130.939 214.211C130.712 213.971 130.505 213.758 130.319 213.571C129.999 213.198 129.779 212.911 129.659 212.711C129.539 212.525 129.459 212.338 129.419 212.151H129.399C129.372 212.351 129.292 212.551 129.159 212.751C129.039 212.951 128.819 213.238 128.499 213.611C128.312 213.798 128.099 214.011 127.859 214.251C127.632 214.491 127.405 214.718 127.179 214.931C127.005 215.105 126.805 215.185 126.579 215.171C126.352 215.158 126.152 215.071 125.979 214.911C125.819 214.751 125.725 214.558 125.699 214.331C125.672 214.105 125.739 213.911 125.899 213.751C126.432 213.231 126.965 212.678 127.499 212.091C127.672 211.891 127.819 211.705 127.939 211.531C128.059 211.358 128.152 211.178 128.219 210.991C128.299 210.791 128.352 210.585 128.379 210.371C128.405 210.145 128.419 209.891 128.419 209.611V208.431C128.419 208.138 128.519 207.925 128.719 207.791C128.919 207.658 129.145 207.591 129.399 207.591ZM120.539 213.271C120.539 213.538 120.672 213.671 120.939 213.671H123.119C123.385 213.671 123.519 213.538 123.519 213.271V211.611H120.539V213.271ZM119.639 207.591C119.865 207.591 120.072 207.651 120.259 207.771C120.445 207.891 120.539 208.085 120.539 208.351V210.091H123.519V208.351C123.519 208.085 123.612 207.891 123.799 207.771C123.985 207.651 124.192 207.591 124.419 207.591C124.645 207.591 124.852 207.651 125.039 207.771C125.225 207.891 125.319 208.085 125.319 208.351V213.691C125.319 213.998 125.292 214.245 125.239 214.431C125.199 214.631 125.119 214.785 124.999 214.891C124.892 214.998 124.739 215.071 124.539 215.111C124.339 215.165 124.085 215.191 123.779 215.191H120.279C119.972 215.191 119.719 215.165 119.519 215.111C119.319 215.071 119.159 214.998 119.039 214.891C118.932 214.785 118.852 214.631 118.799 214.431C118.759 214.245 118.739 213.998 118.739 213.691V208.351C118.739 208.085 118.832 207.891 119.019 207.771C119.205 207.651 119.412 207.591 119.639 207.591ZM142.652 197.091C142.919 197.091 143.152 197.158 143.352 197.291C143.565 197.425 143.672 197.645 143.672 197.951V198.611C143.672 199.171 143.825 199.631 144.132 199.991C144.452 200.351 144.965 200.685 145.672 200.991C146.325 201.285 146.932 201.551 147.492 201.791C148.052 202.018 148.632 202.245 149.232 202.471C149.432 202.551 149.552 202.705 149.592 202.931C149.645 203.158 149.632 203.371 149.552 203.571C149.472 203.785 149.332 203.951 149.132 204.071C148.932 204.178 148.719 204.185 148.492 204.091C147.959 203.891 147.405 203.678 146.832 203.451C146.272 203.211 145.719 202.971 145.172 202.731C144.279 202.345 143.652 202.005 143.292 201.711C142.945 201.405 142.739 201.131 142.672 200.891H142.652C142.612 201.025 142.545 201.165 142.452 201.311C142.359 201.445 142.212 201.591 142.012 201.751C141.825 201.898 141.579 202.058 141.272 202.231C140.965 202.405 140.592 202.585 140.152 202.771C139.592 203.011 139.039 203.245 138.492 203.471C137.945 203.698 137.399 203.918 136.852 204.131C136.585 204.238 136.352 204.231 136.152 204.111C135.965 203.991 135.832 203.825 135.752 203.611C135.659 203.411 135.632 203.191 135.672 202.951C135.712 202.711 135.845 202.551 136.072 202.471C136.672 202.245 137.252 202.018 137.812 201.791C138.372 201.551 138.979 201.285 139.632 200.991C140.339 200.685 140.845 200.351 141.152 199.991C141.472 199.631 141.632 199.171 141.632 198.611V197.951C141.632 197.645 141.732 197.425 141.932 197.291C142.145 197.158 142.385 197.091 142.652 197.091ZM150.352 205.451C150.592 205.451 150.765 205.531 150.872 205.691C150.992 205.851 151.052 206.051 151.052 206.291C151.052 206.518 150.992 206.718 150.872 206.891C150.765 207.051 150.592 207.131 150.352 207.131H134.952C134.712 207.131 134.532 207.051 134.412 206.891C134.305 206.718 134.252 206.518 134.252 206.291C134.252 206.051 134.305 205.851 134.412 205.691C134.532 205.531 134.712 205.451 134.952 205.451H150.352ZM137.492 208.351C137.745 208.351 137.972 208.418 138.172 208.551C138.372 208.685 138.472 208.891 138.472 209.171V210.431H146.832V209.171C146.832 208.891 146.932 208.685 147.132 208.551C147.332 208.418 147.552 208.351 147.792 208.351C148.045 208.351 148.272 208.418 148.472 208.551C148.685 208.685 148.792 208.891 148.792 209.171V213.751C148.792 214.325 148.679 214.718 148.452 214.931C148.239 215.145 147.839 215.251 147.252 215.251H138.052C137.465 215.251 137.065 215.145 136.852 214.931C136.639 214.718 136.532 214.325 136.532 213.751V209.171C136.532 208.891 136.632 208.685 136.832 208.551C137.032 208.418 137.252 208.351 137.492 208.351ZM138.472 213.331C138.472 213.531 138.579 213.631 138.792 213.631H146.512C146.725 213.631 146.832 213.531 146.832 213.331V212.011H138.472V213.331ZM154.225 197.991C154.492 197.991 154.725 198.058 154.925 198.191C155.125 198.325 155.225 198.545 155.225 198.851V207.331C155.225 207.611 155.365 207.751 155.645 207.751C157.032 207.751 158.298 207.718 159.445 207.651C160.592 207.571 161.705 207.458 162.785 207.311C163.012 207.285 163.192 207.345 163.325 207.491C163.472 207.638 163.558 207.825 163.585 208.051C163.612 208.291 163.578 208.511 163.485 208.711C163.405 208.898 163.252 209.005 163.025 209.031C162.558 209.098 162.052 209.158 161.505 209.211C160.972 209.265 160.372 209.311 159.705 209.351C159.038 209.391 158.298 209.425 157.485 209.451C156.672 209.465 155.758 209.471 154.745 209.471C154.158 209.471 153.758 209.365 153.545 209.151C153.332 208.938 153.225 208.545 153.225 207.971V198.851C153.225 198.545 153.325 198.325 153.525 198.191C153.725 198.058 153.958 197.991 154.225 197.991ZM166.085 196.831C166.352 196.831 166.585 196.898 166.785 197.031C166.998 197.165 167.105 197.378 167.105 197.671V213.271C167.105 213.565 166.998 213.778 166.785 213.911C166.585 214.045 166.352 214.111 166.085 214.111C165.832 214.111 165.598 214.045 165.385 213.911C165.185 213.778 165.085 213.565 165.085 213.271V197.671C165.085 197.378 165.185 197.165 165.385 197.031C165.598 196.898 165.832 196.831 166.085 196.831ZM178.558 198.171C178.798 198.171 178.971 198.258 179.078 198.431C179.198 198.605 179.258 198.811 179.258 199.051C179.258 199.278 179.198 199.478 179.078 199.651C178.971 199.811 178.798 199.891 178.558 199.891H172.958C172.678 199.891 172.538 200.031 172.538 200.311V207.391C172.538 207.671 172.678 207.811 172.958 207.811C174.278 207.811 175.505 207.778 176.638 207.711C177.771 207.631 178.878 207.518 179.958 207.371C180.185 207.345 180.365 207.405 180.498 207.551C180.645 207.698 180.731 207.885 180.758 208.111C180.785 208.351 180.751 208.571 180.658 208.771C180.578 208.958 180.425 209.065 180.198 209.091C179.731 209.158 179.225 209.218 178.678 209.271C178.145 209.325 177.551 209.371 176.898 209.411C176.245 209.451 175.518 209.485 174.718 209.511C173.931 209.525 173.051 209.531 172.078 209.531C171.491 209.531 171.085 209.425 170.858 209.211C170.645 208.998 170.538 208.605 170.538 208.031V199.671C170.538 199.098 170.645 198.705 170.858 198.491C171.085 198.278 171.491 198.171 172.078 198.171H178.558ZM183.018 196.831C183.285 196.831 183.518 196.898 183.718 197.031C183.918 197.165 184.018 197.378 184.018 197.671V202.871H186.218C186.485 202.871 186.671 202.958 186.778 203.131C186.898 203.291 186.958 203.491 186.958 203.731C186.958 203.971 186.898 204.178 186.778 204.351C186.671 204.525 186.485 204.611 186.218 204.611H184.018V213.271C184.018 213.565 183.918 213.778 183.718 213.911C183.518 214.045 183.285 214.111 183.018 214.111C182.751 214.111 182.518 214.045 182.318 213.911C182.118 213.778 182.018 213.565 182.018 213.271V197.671C182.018 197.378 182.118 197.165 182.318 197.031C182.518 196.898 182.751 196.831 183.018 196.831Z" fill="#9C9C9C"/>
</svg>
