<svg width="327" height="360" viewBox="0 0 327 360" fill="none" xmlns="http://www.w3.org/2000/svg" shape-rendering="crispEdges">
<g clip-path="url(#clip0_40000685_12547)">
<g clip-path="url(#clip1_40000685_12547)" filter="url(#filter0_g_40000685_12547)">
<path d="M164 179.416C204.862 179.416 241.851 180.166 268.621 181.378C282.008 181.985 292.829 182.707 300.298 183.507C304.036 183.908 306.914 184.325 308.848 184.753C309.82 184.969 310.519 185.18 310.961 185.377C311.015 185.402 311.063 185.424 311.105 185.446C311.063 185.467 311.015 185.492 310.961 185.516C310.519 185.713 309.82 185.924 308.848 186.139C306.914 186.567 304.036 186.985 300.298 187.385C292.829 188.185 282.008 188.908 268.621 189.514C241.851 190.727 204.862 191.477 164 191.477C123.138 191.477 86.1486 190.727 59.3789 189.514C45.992 188.908 35.1707 188.185 27.7021 187.385C23.9643 186.985 21.0863 186.567 19.1523 186.139C18.1802 185.924 17.4814 185.713 17.0391 185.516C16.9844 185.492 16.9363 185.468 16.8936 185.446C16.9362 185.424 16.9847 185.402 17.0391 185.377C17.4814 185.18 18.1801 184.969 19.1523 184.753C21.0863 184.325 23.9642 183.908 27.7021 183.507C35.1707 182.707 45.992 181.985 59.3789 181.378C86.1486 180.166 123.138 179.416 164 179.416Z" fill="#2C2C2C" stroke="#2C2C2C" stroke-width="1.34954"/>
<path d="M67.1032 119.636L73.7971 180.951C74.682 184.284 78.0808 186.268 81.4042 185.38L102.267 179.827C113.198 176.918 109.78 160.144 98.6614 162.203C98.3131 162.269 97.9647 162.344 97.6164 162.439C93.0408 163.657 89.2561 165.896 85.1607 169.315L73.6935 117.879L67.0938 119.636H67.1032Z" fill="#CBCBC5" stroke="#2C2C2C" stroke-width="1.34954" stroke-miterlimit="10"/>
<path d="M80.0952 173.99C80.9237 173.158 82.7502 171.232 86.4313 168.294L80.0952 173.99Z" fill="#CBCBC5"/>
<path d="M80.0952 173.99C80.9237 173.158 82.7502 171.232 86.4313 168.294" stroke="#2C2C2C" stroke-width="1.34954" stroke-miterlimit="10" stroke-linecap="round"/>
<path d="M81.4136 184.964C81.4136 184.964 99.9701 166.576 104.207 170.845L81.4136 184.964Z" fill="#CBCBC5"/>
<path d="M81.4136 184.964C81.4136 184.964 99.9701 166.576 104.207 170.845" stroke="#2C2C2C" stroke-width="1.34954" stroke-miterlimit="10" stroke-linecap="round"/>
<path d="M69.193 112.543L45.6938 168.332C44.1027 171.383 45.2701 175.161 48.3205 176.757L67.4419 186.806C77.4592 192.076 86.2432 177.39 76.6589 171.374C76.3577 171.185 76.047 171.005 75.7269 170.835C71.5373 168.635 65.8885 167.634 60.5691 167.378L75.2467 115.716L69.2024 112.533L69.193 112.543Z" fill="#CBCBC5" stroke="#2C2C2C" stroke-width="1.34954" stroke-miterlimit="10"/>
<path d="M55.0239 167.511C56.2008 167.463 58.8369 167.284 63.5349 167.605L55.0239 167.511Z" fill="#CBCBC5"/>
<path d="M55.0239 167.511C56.2008 167.463 58.8369 167.284 63.5349 167.605" stroke="#2C2C2C" stroke-width="1.34954" stroke-miterlimit="10" stroke-linecap="round"/>
<path d="M115.408 111.172C115.408 113.817 115.238 116.405 114.909 118.917C113.845 127.115 109.194 134.397 102.199 138.77C93.1699 144.427 81.3543 147.978 68.3432 148.299C67.6841 148.318 67.0251 148.328 66.3566 148.328H65.7823C53.6185 148.233 42.4149 145.334 33.4897 140.498C25.8638 136.371 20.7045 128.862 19.3864 120.277C18.9345 117.34 18.6991 114.289 18.6991 111.172C18.6991 103.305 20.2055 95.9192 22.851 89.5252C28.3869 76.1326 38.8938 67.094 50.9447 67.094C55.1342 67.094 59.1355 68.1802 62.8167 70.173C65.4811 71.6086 68.635 71.6086 71.29 70.173C74.9617 68.1896 78.963 67.094 83.1432 67.094C95.919 67.094 106.963 77.2471 112.178 91.9619C114.24 97.7704 115.398 104.287 115.398 111.172H115.408Z" fill="#FBD7D5"/>
<path d="M119.205 111.343C119.205 113.988 119.036 116.575 118.706 119.088C117.642 127.286 112.991 134.567 105.996 138.94C96.9673 144.598 85.1518 148.149 72.1406 148.47C71.4816 148.489 70.8225 148.498 70.1541 148.498H69.5798C57.4159 148.404 46.2124 145.504 37.2872 140.669C29.6612 136.541 24.5019 129.033 23.1839 120.448C22.732 117.51 22.4966 114.46 22.4966 111.343C22.4966 103.476 24.0029 96.0898 26.6485 89.6958C32.1844 76.3032 42.6912 67.2646 54.7421 67.2646C58.9317 67.2646 62.933 68.3508 66.6141 70.3436C69.2785 71.7792 72.4325 71.7792 75.0874 70.3436C78.7592 68.3602 82.7604 67.2646 86.9406 67.2646C99.7164 67.2646 110.76 77.4177 115.976 92.1325C118.038 97.941 119.196 104.458 119.196 111.343H119.205Z" stroke="#2C2C2C" stroke-width="1.34954" stroke-miterlimit="10"/>
<path d="M70.8508 106.167C70.8508 110.852 69.8057 114.649 65.3243 114.649C61.1253 114.649 59.1953 110.852 59.1953 106.167C59.1953 101.483 60.6169 97.686 65.3243 97.686C69.4197 97.686 70.8508 101.483 70.8508 106.167Z" fill="#FBFBFB" stroke="#2C2C2C" stroke-width="1.34954" stroke-miterlimit="10"/>
<path d="M67.7905 102.611C68.6651 102.611 69.2144 102.992 69.5845 103.646C69.9823 104.35 70.1762 105.389 70.1763 106.639C70.1763 107.915 70.0299 108.95 69.6577 109.648C69.4789 109.983 69.2538 110.227 68.9741 110.392C68.6933 110.558 68.3148 110.668 67.7905 110.668C66.8686 110.668 66.2253 110.267 65.7837 109.595C65.3213 108.891 65.0669 107.859 65.0669 106.639C65.0669 105.387 65.2614 104.361 65.688 103.667C66.0811 103.029 66.7059 102.611 67.7905 102.611Z" fill="#2C2C2C" stroke="#2C2C2C" stroke-width="1.34954"/>
<path d="M82.5056 106.167C82.5056 110.852 81.4605 114.649 76.9791 114.649C72.7801 114.649 70.8501 110.852 70.8501 106.167C70.8501 101.483 72.2717 97.686 76.9791 97.686C81.0745 97.686 82.5056 101.483 82.5056 106.167Z" fill="#FBFBFB" stroke="#2C2C2C" stroke-width="1.34954" stroke-miterlimit="10"/>
<path d="M79.4458 102.139C80.3203 102.139 80.8697 102.519 81.2397 103.174C81.6376 103.878 81.8315 104.917 81.8315 106.167C81.8315 107.443 81.6852 108.478 81.313 109.176C81.1342 109.511 80.9091 109.755 80.6294 109.92C80.3486 110.086 79.97 110.196 79.4458 110.196C78.5239 110.196 77.8806 109.795 77.439 109.123C76.9766 108.419 76.7222 107.387 76.7222 106.167C76.7222 104.915 76.9167 103.889 77.3433 103.195C77.7364 102.556 78.3612 102.139 79.4458 102.139Z" fill="#2C2C2C" stroke="#2C2C2C" stroke-width="1.34954"/>
<path d="M71.7139 115.594C73.6848 115.718 74.6677 116.346 75.082 116.912C75.5006 117.484 75.4082 118.054 75.1514 118.363C75.1344 118.384 75.0435 118.465 74.8057 118.568C74.5834 118.665 74.2873 118.757 73.9336 118.835C73.2269 118.991 72.3462 119.079 71.4727 119.054C70.5925 119.028 69.7678 118.891 69.1514 118.631C68.5321 118.37 68.2304 118.038 68.1475 117.673C68.0485 117.237 68.1616 116.947 68.3828 116.704C68.635 116.427 69.0522 116.195 69.5645 116.014C70.0654 115.837 70.5947 115.731 71.0068 115.67C71.2107 115.64 71.3815 115.621 71.5 115.61C71.5592 115.605 71.6056 115.601 71.6357 115.599C71.6507 115.598 71.6621 115.597 71.6689 115.597H71.6768L71.6758 115.596L71.7139 115.594Z" fill="#2C2C2C" stroke="#2C2C2C" stroke-width="1.34954"/>
<path d="M57.6699 116.33C57.6699 116.33 61.577 127.625 74.0516 121.94" stroke="#2C2C2C" stroke-width="1.34954" stroke-miterlimit="10" stroke-linecap="round"/>
<path d="M49.6548 113.137C49.6548 113.179 49.6199 113.217 49.5728 113.217C49.5375 113.217 49.5094 113.196 49.4976 113.167L49.4917 113.137C49.4919 113.095 49.5259 113.058 49.5728 113.058L49.606 113.064C49.6354 113.077 49.6547 113.106 49.6548 113.137Z" fill="#2C2C2C" stroke="#2C2C2C" stroke-width="1.34954"/>
<path d="M53.3545 113.137C53.3545 113.179 53.3196 113.217 53.2725 113.217C53.2372 113.217 53.2091 113.196 53.1973 113.167L53.1914 113.137C53.1916 113.095 53.2256 113.058 53.2725 113.058L53.3057 113.064C53.3351 113.077 53.3544 113.106 53.3545 113.137Z" fill="#2C2C2C" stroke="#2C2C2C" stroke-width="1.34954"/>
<path d="M51.5093 114.979C51.5093 115.021 51.4744 115.059 51.4272 115.059C51.392 115.059 51.3639 115.038 51.3521 115.009L51.3462 114.979C51.3464 114.937 51.3804 114.9 51.4272 114.9L51.4604 114.906C51.4899 114.918 51.5092 114.948 51.5093 114.979Z" fill="#2C2C2C" stroke="#2C2C2C" stroke-width="1.34954"/>
<path d="M84.6401 113.137C84.6401 113.179 84.6052 113.217 84.5581 113.217C84.5229 113.217 84.4947 113.196 84.4829 113.167L84.4771 113.137C84.4772 113.095 84.5113 113.058 84.5581 113.058L84.5913 113.064C84.6208 113.077 84.64 113.106 84.6401 113.137Z" fill="#2C2C2C" stroke="#2C2C2C" stroke-width="1.34954"/>
<path d="M88.3398 113.137C88.3398 113.179 88.3049 113.217 88.2578 113.217C88.2226 113.217 88.1945 113.196 88.1826 113.167L88.1768 113.137C88.1769 113.095 88.211 113.058 88.2578 113.058L88.291 113.064C88.3205 113.077 88.3397 113.106 88.3398 113.137Z" fill="#2C2C2C" stroke="#2C2C2C" stroke-width="1.34954"/>
<path d="M86.4946 114.979C86.4946 115.021 86.4597 115.059 86.4126 115.059C86.3773 115.059 86.3492 115.038 86.3374 115.009L86.3315 114.979C86.3317 114.937 86.3658 114.9 86.4126 114.9L86.4458 114.906C86.4753 114.918 86.4945 114.948 86.4946 114.979Z" fill="#2C2C2C" stroke="#2C2C2C" stroke-width="1.34954"/>
<path d="M260.454 118.04L281.76 168.625C283.21 171.393 282.146 174.812 279.378 176.266L262.046 185.38C252.96 190.159 244.995 176.842 253.695 171.383C253.968 171.213 254.25 171.053 254.542 170.901C258.346 168.899 263.467 168.002 268.288 167.766L254.975 120.92L260.454 118.04Z" fill="#CBCBC5" stroke="#2C2C2C" stroke-width="1.34954" stroke-miterlimit="10"/>
<path d="M273.296 167.879C272.232 167.832 269.841 167.671 265.585 167.964L273.296 167.879Z" fill="#CBCBC5"/>
<path d="M273.296 167.879C272.232 167.832 269.841 167.671 265.585 167.964" stroke="#2C2C2C" stroke-width="1.34954" stroke-miterlimit="10" stroke-linecap="round"/>
<path d="M258.675 120.118L251.981 181.432C251.096 184.766 247.697 186.75 244.374 185.862L223.511 180.309C212.58 177.4 215.998 160.626 227.117 162.685C227.465 162.751 227.813 162.826 228.162 162.921C232.737 164.139 236.522 166.378 240.618 169.797L252.085 118.361L258.684 120.118H258.675Z" fill="#CBCBC5" stroke="#2C2C2C" stroke-width="1.34954" stroke-miterlimit="10"/>
<path d="M245.683 174.462C244.854 173.631 243.028 171.704 239.347 168.767L245.683 174.462Z" fill="#CBCBC5"/>
<path d="M245.683 174.462C244.854 173.631 243.028 171.704 239.347 168.767" stroke="#2C2C2C" stroke-width="1.34954" stroke-miterlimit="10" stroke-linecap="round"/>
<path d="M244.364 185.446C244.364 185.446 225.808 167.057 221.571 171.326L244.364 185.446Z" fill="#CBCBC5"/>
<path d="M244.364 185.446C244.364 185.446 225.808 167.057 221.571 171.326" stroke="#2C2C2C" stroke-width="1.34954" stroke-miterlimit="10" stroke-linecap="round"/>
<path d="M193.807 145.014V182.67C193.807 184.729 192.141 186.4 190.088 186.4H177.181C170.421 186.4 169.828 176.181 176.569 175.662C176.776 175.643 176.992 175.633 177.209 175.633C180.033 175.633 183.3 176.682 186.191 178.023L189.721 145.014H193.798H193.807Z" fill="#CBCBC5" stroke="#2C2C2C" stroke-width="1.34954" stroke-miterlimit="10"/>
<path d="M189.09 179.638C188.478 179.288 187.132 178.457 184.562 177.324L189.09 179.638Z" fill="#CBCBC5"/>
<path d="M189.09 179.638C188.478 179.288 187.132 178.457 184.562 177.324" stroke="#2C2C2C" stroke-width="1.34954" stroke-miterlimit="10" stroke-linecap="round"/>
<path d="M196.565 145.014V182.67C196.565 184.729 198.232 186.4 200.284 186.4H213.192C219.952 186.4 220.545 176.181 213.804 175.662C213.597 175.643 213.38 175.633 213.164 175.633C210.339 175.633 207.072 176.682 204.182 178.023L200.651 145.014H196.575H196.565Z" fill="#CBCBC5" stroke="#2C2C2C" stroke-width="1.34954" stroke-miterlimit="10"/>
<path d="M201.283 179.638C201.895 179.288 203.241 178.457 205.811 177.324L201.283 179.638Z" fill="#CBCBC5"/>
<path d="M201.283 179.638C201.895 179.288 203.241 178.457 205.811 177.324" stroke="#2C2C2C" stroke-width="1.34954" stroke-miterlimit="10" stroke-linecap="round"/>
<path d="M138.533 139.139V181.281C138.533 183.586 136.669 185.456 134.372 185.456H119.93C112.36 185.456 111.701 174.018 119.252 173.442C119.487 173.423 119.723 173.414 119.967 173.414C123.131 173.414 126.793 174.585 130.022 176.086L133.967 139.129H138.533V139.139Z" fill="#CBCBC5" stroke="#2C2C2C" stroke-width="1.34954" stroke-miterlimit="10"/>
<path d="M133.251 177.89C132.573 177.493 131.067 176.568 128.177 175.302L133.251 177.89Z" fill="#CBCBC5"/>
<path d="M133.251 177.89C132.573 177.493 131.067 176.568 128.177 175.302" stroke="#2C2C2C" stroke-width="1.34954" stroke-miterlimit="10" stroke-linecap="round"/>
<path d="M141.63 139.139V181.281C141.63 183.586 143.494 185.456 145.792 185.456H160.234C167.803 185.456 168.462 174.018 160.912 173.442C160.676 173.423 160.441 173.414 160.196 173.414C157.033 173.414 153.371 174.585 150.141 176.086L146.197 139.129H141.63V139.139Z" fill="#CBCBC5" stroke="#2C2C2C" stroke-width="1.34954" stroke-miterlimit="10"/>
<path d="M146.903 177.89C147.581 177.493 149.087 176.568 151.977 175.302L146.903 177.89Z" fill="#CBCBC5"/>
<path d="M146.903 177.89C147.581 177.493 149.087 176.568 151.977 175.302" stroke="#2C2C2C" stroke-width="1.34954" stroke-miterlimit="10" stroke-linecap="round"/>
<path d="M145.535 109.634C149.141 98.4984 126.564 98.4984 130.17 109.634C126.564 98.4984 108.299 111.815 117.733 118.701C108.29 111.825 101.314 133.368 112.988 133.368C101.323 133.368 108.299 154.912 117.733 148.036C108.29 154.912 126.564 168.229 130.17 157.103C126.564 168.238 149.141 168.238 145.535 157.103C149.141 168.238 167.405 154.921 157.972 148.036C167.415 154.912 174.391 133.368 162.717 133.368C174.382 133.368 167.405 111.825 157.972 118.701C167.415 111.825 149.141 98.5078 145.535 109.634Z" fill="#FEE888"/>
<path d="M148.174 108.803C151.779 97.6674 129.203 97.6674 132.809 108.803C129.203 97.6674 110.938 110.984 120.372 117.87C110.929 110.994 103.952 132.537 115.627 132.537C103.962 132.537 110.938 154.08 120.372 147.205C110.929 154.08 129.203 167.397 132.809 156.272C129.203 167.407 151.779 167.407 148.174 156.272C151.779 167.407 170.044 154.09 160.61 147.205C170.053 154.08 177.03 132.537 165.355 132.537C177.02 132.537 170.044 110.994 160.61 117.87C170.053 110.994 151.779 97.6768 148.174 108.803Z" stroke="#2C2C2C" stroke-width="1.34954" stroke-miterlimit="10"/>
<path d="M141.631 129.062V129.269C141.631 129.392 141.631 129.515 141.631 129.638C141.631 129.827 141.612 130.016 141.602 130.205C141.602 130.261 141.602 130.318 141.593 130.375C141.395 132.877 140.52 134.738 137.95 134.738C135.144 134.738 133.845 132.188 133.845 129.052C133.845 128.325 133.892 127.626 134.024 126.984C135.21 127.135 136.443 127.239 137.705 127.314C138.882 127.39 140.087 127.428 141.32 127.428C141.386 127.428 141.461 127.428 141.537 127.428C141.602 127.938 141.64 128.476 141.64 129.043L141.631 129.062Z" fill="#FBFBFB" stroke="#2C2C2C" stroke-width="1.34954" stroke-miterlimit="10"/>
<path d="M134.594 128.033C135.47 128.081 136.361 128.11 137.266 128.117C137.346 128.447 137.391 128.832 137.398 129.27H137.397V129.638C137.397 129.807 137.381 129.935 137.37 130.171V130.204C137.37 130.234 137.369 130.249 137.369 130.261V130.264L137.365 130.293C137.296 130.861 137.153 131.251 136.957 131.49C136.787 131.696 136.528 131.853 136.039 131.853C135.502 131.853 135.138 131.626 134.88 131.235C134.602 130.813 134.435 130.172 134.435 129.383C134.435 128.852 134.488 128.398 134.594 128.033Z" fill="#2C2C2C" stroke="#2C2C2C" stroke-width="1.34954"/>
<path d="M149.426 129.062C149.426 129.166 149.426 129.279 149.426 129.383C149.379 132.367 148.635 134.738 145.735 134.738C142.835 134.738 141.63 132.188 141.63 129.052C141.63 128.486 141.659 127.957 141.734 127.437C142.967 127.437 144.172 127.399 145.349 127.333C146.639 127.267 147.872 127.154 149.068 127.003C149.134 127.003 149.19 127.003 149.256 126.984C149.36 127.522 149.407 128.098 149.416 128.712C149.416 128.826 149.416 128.939 149.416 129.052L149.426 129.062Z" fill="#FBFBFB" stroke="#2C2C2C" stroke-width="1.34954" stroke-miterlimit="10"/>
<path d="M145.05 127.746C145.12 128.027 145.165 128.356 145.183 128.731V129.574C145.146 130.228 145.031 130.717 144.835 131.038C144.655 131.331 144.382 131.532 143.824 131.532C143.288 131.532 142.924 131.306 142.666 130.915C142.388 130.493 142.221 129.851 142.221 129.062C142.221 128.654 142.25 128.296 142.312 127.987C143.251 127.93 144.161 127.848 145.05 127.746Z" fill="#2C2C2C" stroke="#2C2C2C" stroke-width="1.34954"/>
<path d="M142.778 135.133C142.773 135.239 142.759 135.371 142.728 135.518C142.69 135.691 142.638 135.86 142.583 135.996C142.521 136.151 142.481 136.198 142.494 136.184C142.246 136.448 142.011 136.591 141.748 136.617C141.483 136.643 141.045 136.564 140.364 136.063C140.353 136.055 140.344 136.046 140.335 136.039C140.353 136.022 140.374 136.001 140.401 135.979C140.5 135.901 140.631 135.817 140.791 135.732C141.111 135.563 141.485 135.417 141.79 135.312C141.94 135.26 142.07 135.22 142.16 135.192C142.205 135.179 142.24 135.169 142.264 135.162C142.265 135.162 142.266 135.16 142.267 135.16C142.287 135.157 142.319 135.153 142.358 135.148C142.438 135.139 142.542 135.13 142.648 135.129C142.697 135.128 142.74 135.13 142.778 135.133Z" fill="#2C2C2C" stroke="#2C2C2C" stroke-width="1.34954"/>
<path d="M136.603 140.31C139.503 141.812 142.949 141.831 145.867 140.357L145.952 140.31" stroke="#2C2C2C" stroke-width="1.34954" stroke-miterlimit="10" stroke-linecap="round"/>
<path d="M141.527 127.446C141.461 127.446 141.386 127.446 141.311 127.446C140.077 127.446 138.872 127.409 137.695 127.333C136.434 127.257 135.191 127.154 134.014 127.002C134.4 124.896 135.521 123.395 137.94 123.395C140.19 123.395 141.235 125.104 141.527 127.456V127.446Z" stroke="#2C2C2C" stroke-width="1.34954" stroke-miterlimit="10"/>
<path d="M149.257 126.993C149.191 127.003 149.134 127.012 149.068 127.012C147.873 127.163 146.639 127.267 145.35 127.343C144.173 127.409 142.968 127.446 141.734 127.446C142.045 125.095 143.156 123.385 145.736 123.385C147.835 123.385 148.89 124.887 149.266 126.993H149.257Z" stroke="#2C2C2C" stroke-width="1.34954" stroke-miterlimit="10"/>
<path d="M218.109 168.14H168.634C166.676 168.14 165.123 166.157 165.377 163.9C167.175 147.863 179.028 135.471 193.376 135.471C207.725 135.471 219.578 147.863 221.366 163.9C221.621 166.148 220.077 168.14 218.109 168.14Z" fill="#A7E1B6"/>
<path d="M220.423 168.54H170.948C168.99 168.54 167.437 166.556 167.691 164.299C169.489 148.262 181.342 135.871 195.69 135.871C210.038 135.871 221.892 148.262 223.68 164.299C223.935 166.547 222.391 168.54 220.423 168.54Z" stroke="#2C2C2C" stroke-width="1.34954" stroke-miterlimit="10"/>
<path d="M195.681 151.209C195.681 154.015 195.059 156.281 192.376 156.281C189.872 156.281 188.714 154.015 188.714 151.209C188.714 148.404 189.561 146.138 192.376 146.138C194.824 146.138 195.681 148.404 195.681 151.209Z" fill="#FBFBFB" stroke="#2C2C2C" stroke-width="1.34954" stroke-miterlimit="10"/>
<path d="M191.124 150.968C191.542 150.968 191.782 151.137 191.958 151.448C192.161 151.809 192.276 152.377 192.276 153.108C192.276 153.858 192.186 154.422 191.996 154.779C191.908 154.944 191.805 155.051 191.688 155.121C191.57 155.191 191.395 155.248 191.124 155.248C190.666 155.247 190.365 155.058 190.149 154.729C189.912 154.368 189.765 153.809 189.765 153.108C189.765 152.374 189.88 151.821 190.096 151.47C190.278 151.175 190.56 150.968 191.124 150.968Z" fill="#2C2C2C" stroke="#2C2C2C" stroke-width="1.34954"/>
<path d="M202.648 151.209C202.648 154.015 202.026 156.281 199.343 156.281C196.839 156.281 195.681 154.015 195.681 151.209C195.681 148.404 196.528 146.138 199.343 146.138C201.791 146.138 202.648 148.404 202.648 151.209Z" fill="#FBFBFB" stroke="#2C2C2C" stroke-width="1.34954" stroke-miterlimit="10"/>
<path d="M198.091 150.685C198.509 150.685 198.749 150.853 198.925 151.165C199.129 151.526 199.243 152.093 199.243 152.825C199.243 153.575 199.153 154.139 198.963 154.496C198.875 154.661 198.773 154.768 198.655 154.837C198.537 154.907 198.362 154.964 198.091 154.964C197.634 154.964 197.332 154.775 197.116 154.446C196.879 154.085 196.732 153.526 196.732 152.825C196.732 152.091 196.848 151.538 197.063 151.187C197.245 150.891 197.528 150.685 198.091 150.685Z" fill="#2C2C2C" stroke="#2C2C2C" stroke-width="1.34954"/>
<mask id="path-60-inside-1_40000685_12547" fill="white">
<path d="M195.7 156.064C195.7 156.064 195.022 156.13 195.022 156.744C195.022 157.358 195.502 157.452 195.728 157.452C195.954 157.452 196.349 157.046 196.349 156.668C196.349 156.291 195.963 156.064 195.7 156.064Z"/>
</mask>
<path d="M195.7 156.064C195.7 156.064 195.022 156.13 195.022 156.744C195.022 157.358 195.502 157.452 195.728 157.452C195.954 157.452 196.349 157.046 196.349 156.668C196.349 156.291 195.963 156.064 195.7 156.064Z" fill="#2C2C2C"/>
<path d="M195.7 156.064V154.714H195.634L195.569 154.721L195.7 156.064ZM195.7 156.064C195.569 154.721 195.568 154.721 195.568 154.721C195.567 154.721 195.567 154.721 195.566 154.721C195.566 154.721 195.565 154.721 195.564 154.721C195.562 154.721 195.561 154.722 195.559 154.722C195.555 154.722 195.551 154.723 195.548 154.723C195.54 154.724 195.531 154.725 195.521 154.726C195.502 154.729 195.48 154.732 195.455 154.736C195.405 154.744 195.341 154.756 195.269 154.774C195.129 154.809 194.926 154.873 194.71 154.991C194.241 155.25 193.672 155.811 193.672 156.744H195.022H196.372C196.372 156.856 196.335 157.004 196.24 157.143C196.155 157.267 196.059 157.33 196.012 157.356C195.965 157.382 195.932 157.39 195.919 157.394C195.91 157.396 195.9 157.398 195.887 157.4C195.88 157.401 195.872 157.402 195.863 157.404C195.859 157.404 195.854 157.405 195.848 157.405C195.846 157.406 195.843 157.406 195.84 157.406C195.838 157.406 195.837 157.407 195.835 157.407C195.835 157.407 195.834 157.407 195.833 157.407C195.833 157.407 195.832 157.407 195.832 157.407C195.831 157.407 195.831 157.407 195.7 156.064ZM195.022 156.744H193.672C193.672 157.465 193.988 158.076 194.534 158.446C194.992 158.756 195.473 158.802 195.728 158.802V157.452V156.103C195.76 156.103 195.795 156.106 195.838 156.116C195.88 156.126 195.957 156.15 196.047 156.211C196.144 156.276 196.238 156.374 196.303 156.501C196.366 156.624 196.372 156.719 196.372 156.744H195.022ZM195.728 157.452V158.802C196.151 158.802 196.477 158.629 196.647 158.52C196.844 158.394 197.013 158.238 197.15 158.079C197.397 157.789 197.699 157.293 197.699 156.668H196.349H195C195 156.532 195.034 156.44 195.051 156.401C195.069 156.361 195.087 156.338 195.097 156.325C195.107 156.315 195.134 156.284 195.194 156.246C195.225 156.226 195.279 156.195 195.357 156.166C195.431 156.139 195.56 156.103 195.728 156.103V157.452ZM196.349 156.668H197.699C197.699 155.977 197.336 155.467 196.968 155.172C196.625 154.896 196.17 154.714 195.7 154.714V156.064V157.414C195.581 157.414 195.495 157.39 195.444 157.371C195.388 157.35 195.333 157.32 195.279 157.277C195.17 157.19 195 156.982 195 156.668H196.349Z" fill="#2C2C2C" mask="url(#path-60-inside-1_40000685_12547)"/>
<path d="M187.584 145.344C187.584 145.344 188.544 142.605 191.435 143.493" stroke="#2C2C2C" stroke-width="1.34954" stroke-miterlimit="10" stroke-linecap="round"/>
<path d="M282.31 122.756C282.31 132.759 272.638 140.869 260.717 140.869C248.796 140.869 239.125 132.759 239.125 122.756C239.125 119.689 240.033 116.802 241.627 114.275C243.939 110.627 244.098 106.112 242.313 102.167C241.49 100.349 241.036 98.3713 241.036 96.2987C241.036 93.8032 241.69 91.4451 242.873 89.3197C245.164 85.2063 245.618 80.2787 243.538 76.0595C242.63 74.2196 242.134 72.2105 242.134 70.1062C242.134 61.4881 250.454 54.4985 260.717 54.4985C270.98 54.4985 279.311 61.4881 279.311 70.1062C279.311 72.221 278.815 74.2302 277.907 76.0701C275.827 80.2892 276.281 85.2274 278.562 89.3408C279.734 91.4557 280.388 93.8138 280.388 96.2987C280.388 98.3607 279.934 100.338 279.111 102.167C277.326 106.101 277.485 110.616 279.797 114.275C281.391 116.802 282.299 119.689 282.299 122.756H282.31Z" fill="#93D1E0"/>
<path d="M278.711 122.045C278.711 131.944 268.838 139.97 256.669 139.97C244.499 139.97 234.626 131.944 234.626 122.045C234.626 119.01 235.553 116.153 237.181 113.652C239.541 110.042 239.703 105.574 237.881 101.671C237.04 99.8711 236.577 97.9143 236.577 95.8633C236.577 93.3938 237.245 91.0602 238.452 88.957C240.791 84.8864 241.255 80.0101 239.132 75.8349C238.205 74.0142 237.698 72.026 237.698 69.9436C237.698 61.4153 246.192 54.4985 256.669 54.4985C267.145 54.4985 275.65 61.4153 275.65 69.9436C275.65 72.0364 275.143 74.0246 274.216 75.8454C272.093 80.0206 272.556 84.9073 274.885 88.9779C276.081 91.0707 276.749 93.4042 276.749 95.8633C276.749 97.9038 276.286 99.8606 275.445 101.671C273.624 105.564 273.785 110.032 276.146 113.652C277.773 116.153 278.7 119.01 278.7 122.045H278.711Z" stroke="#2C2C2C" stroke-width="1.34954" stroke-miterlimit="10"/>
<path d="M256.343 68.8944C256.343 71.783 255.697 74.1194 252.934 74.1194C250.351 74.1194 249.155 71.783 249.155 68.8944C249.155 66.0058 250.033 63.6694 252.934 63.6694C255.464 63.6694 256.343 66.0058 256.343 68.8944Z" fill="#FBFBFB" stroke="#2C2C2C" stroke-width="1.34954" stroke-miterlimit="10"/>
<path d="M254.458 66.9565C254.897 66.9565 255.152 67.1351 255.337 67.4624C255.55 67.8393 255.668 68.4278 255.668 69.1812C255.668 69.9593 255.575 70.5428 255.377 70.9136C255.285 71.0854 255.177 71.1983 255.053 71.272C254.927 71.3462 254.742 71.4058 254.458 71.4058C253.984 71.4057 253.666 71.2071 253.438 70.8608C253.189 70.4835 253.037 69.9032 253.037 69.1812C253.037 68.4253 253.156 67.8503 253.382 67.4839C253.574 67.1723 253.872 66.9566 254.458 66.9565Z" fill="#2C2C2C" stroke="#2C2C2C" stroke-width="1.34954"/>
<path d="M263.531 68.8944C263.531 68.99 263.531 69.0962 263.531 69.1918C263.51 70.5405 263.33 71.7511 262.843 72.6326C261.869 72.7388 261.043 73.3016 260.556 74.0981C260.418 74.1194 260.281 74.1194 260.122 74.1194C257.528 74.1194 256.343 71.783 256.343 68.8944C256.343 66.0058 257.221 63.6694 260.122 63.6694C262.557 63.6694 263.457 65.8359 263.52 68.5864C263.52 68.6926 263.52 68.7988 263.52 68.905L263.531 68.8944Z" fill="#FBFBFB" stroke="#2C2C2C" stroke-width="1.34954" stroke-miterlimit="10"/>
<path d="M261.646 66.6699C262.085 66.6699 262.34 66.8485 262.525 67.1758C262.738 67.5526 262.856 68.1411 262.856 68.8945C262.856 69.6726 262.763 70.2562 262.565 70.627C262.473 70.7988 262.365 70.9117 262.241 70.9854C262.115 71.0596 261.93 71.1191 261.646 71.1191C261.172 71.119 260.854 70.9205 260.625 70.5742C260.377 70.1969 260.225 69.6166 260.225 68.8945C260.225 68.1387 260.344 67.5637 260.57 67.1973C260.762 66.8857 261.06 66.67 261.646 66.6699Z" fill="#2C2C2C" stroke="#2C2C2C" stroke-width="1.34954"/>
<path d="M256.515 74.2998C256.875 74.3643 257.045 74.5491 257.131 74.7295C257.213 74.9017 257.216 75.0616 257.204 75.1533C257.187 75.1601 257.168 75.172 257.143 75.1797C257.012 75.2196 256.827 75.2409 256.638 75.2217C256.236 75.1806 256.07 75.0136 256.034 74.8096C256 74.6194 256.036 74.5397 256.05 74.5137C256.069 74.4797 256.107 74.4382 256.187 74.3965C256.268 74.3539 256.366 74.3258 256.453 74.3096C256.476 74.3052 256.497 74.3021 256.515 74.2998ZM256.569 74.2949H256.565L256.564 74.2939H256.571L256.569 74.2949Z" fill="#2C2C2C" stroke="#2C2C2C" stroke-width="1.34954"/>
<path d="M261.276 75.5C261.276 75.5 259.54 79.5674 254.49 77.2629" stroke="#2C2C2C" stroke-width="1.34954" stroke-miterlimit="10" stroke-linecap="round"/>
<path d="M262.843 72.6326C262.949 72.6113 263.065 72.6113 263.182 72.6113C264.314 72.6113 265.32 73.2379 265.849 74.1512" stroke="#2C2C2C" stroke-width="1.34954" stroke-miterlimit="10" stroke-linecap="round"/>
<path d="M260.555 74.0981L260.524 74.1499" stroke="#2C2C2C" stroke-width="1.34954" stroke-miterlimit="10" stroke-linecap="round"/>
</g>
<g filter="url(#filter1_g_40000685_12547)">
<path d="M18.585 233C10.1991 239.771 5.06479 250.414 5.00061 261.206C4.93643 271.988 9.92095 282.695 18.2321 289.584C21.8367 292.579 26.1902 294.911 30.8645 295.189C35.5388 295.467 40.534 293.381 42.8124 289.284C45.0907 285.188 43.8071 279.208 39.6034 277.123C35.0682 274.866 29.2921 277.903 26.9603 282.396C24.6285 286.888 24.9387 292.269 25.7409 297.275C28.7145 315.705 37.9883 333.054 51.6583 345.772" stroke="#9C9C9C" stroke-width="1.5" stroke-miterlimit="10"/>
<path d="M36.0195 343.708L52.0641 345.847L48.8552 330.872" stroke="#9C9C9C" stroke-width="1.5"/>
</g>
<g filter="url(#filter2_g_40000685_12547)">
<path d="M271.96 5.95459L270.649 34.853" stroke="#9C9C9C" stroke-width="1.5"/>
</g>
<g filter="url(#filter3_g_40000685_12547)">
<path d="M306.022 12.3804L283.966 40.56" stroke="#9C9C9C" stroke-width="1.5"/>
</g>
<g filter="url(#filter4_g_40000685_12547)">
<path d="M320.15 34.7852L297.719 51.8046" stroke="#9C9C9C" stroke-width="1.5"/>
</g>
<g filter="url(#filter5_g_40000685_12547)">
<path d="M328.292 59.7847L313.676 59.6899" stroke="#9C9C9C" stroke-width="1.5"/>
</g>
<g filter="url(#filter6_g_40000685_12547)">
<path d="M286.132 221.39C285.946 228.487 280.922 244.319 262.319 250.87C269.855 251.722 284.845 257.206 284.513 272.329C284.545 265.143 287.37 250.265 298.418 248.245C293.519 246.034 284.203 237.567 286.132 221.39Z" stroke="#9C9C9C"/>
</g>
<g filter="url(#filter7_g_40000685_12547)">
<path d="M312.803 200.213C312.813 200.67 312.793 201.182 312.737 201.737C312.655 211.28 318.882 216.626 322.168 218.151C314.755 219.089 313.199 228.347 313.34 233.133C313.344 233.229 313.348 233.326 313.35 233.423C313.346 233.328 313.342 233.232 313.34 233.133C312.878 223.479 302.5 219.479 297.317 218.684C308.704 215.378 312.227 206.79 312.737 201.737C312.742 201.24 312.763 200.732 312.803 200.213Z" fill="#9C9C9C"/>
<path d="M312.803 200.213C312.813 200.67 312.793 201.182 312.737 201.737C312.655 211.28 318.882 216.626 322.168 218.151C314.755 219.089 313.199 228.347 313.34 233.133C313.344 233.229 313.348 233.326 313.35 233.423C313.346 233.328 313.342 233.232 313.34 233.133C312.878 223.479 302.5 219.479 297.317 218.684C308.704 215.378 312.227 206.79 312.737 201.737C312.742 201.24 312.763 200.732 312.803 200.213Z" stroke="#9C9C9C"/>
</g>
</g>
<defs>
<filter id="filter0_g_40000685_12547" x="15.2802" y="49.2802" width="297.44" height="143.591" filterUnits="userSpaceOnUse" color-interpolation-filters="sRGB">
<feFlood flood-opacity="0" result="BackgroundImageFix"/>
<feBlend mode="normal" in="SourceGraphic" in2="BackgroundImageFix" result="shape"/>
<feTurbulence type="fractalNoise" baseFrequency="0.74099099636077881 0.74099099636077881" numOctaves="3" seed="3423" />
<feDisplacementMap in="shape" scale="1.4395136833190918" xChannelSelector="R" yChannelSelector="G" result="displacedImage" width="100%" height="100%" />
<feMerge result="effect1_texture_40000685_12547">
<feMergeNode in="displacedImage"/>
</feMerge>
</filter>
<filter id="filter1_g_40000685_12547" x="3.45" y="231.617" width="50.3705" height="115.914" filterUnits="userSpaceOnUse" color-interpolation-filters="sRGB">
<feFlood flood-opacity="0" result="BackgroundImageFix"/>
<feBlend mode="normal" in="SourceGraphic" in2="BackgroundImageFix" result="shape"/>
<feTurbulence type="fractalNoise" baseFrequency="0.38461539149284363 0.38461539149284363" numOctaves="3" seed="786" />
<feDisplacementMap in="shape" scale="1.6000000238418579" xChannelSelector="R" yChannelSelector="G" result="displacedImage" width="100%" height="100%" />
<feMerge result="effect1_texture_40000685_12547">
<feMergeNode in="displacedImage"/>
</feMerge>
</filter>
<filter id="filter2_g_40000685_12547" x="269.099" y="5.12041" width="4.41006" height="30.5668" filterUnits="userSpaceOnUse" color-interpolation-filters="sRGB">
<feFlood flood-opacity="0" result="BackgroundImageFix"/>
<feBlend mode="normal" in="SourceGraphic" in2="BackgroundImageFix" result="shape"/>
<feTurbulence type="fractalNoise" baseFrequency="0.25 0.25" numOctaves="3" seed="9272" />
<feDisplacementMap in="shape" scale="1.6000000238418579" xChannelSelector="R" yChannelSelector="G" result="displacedImage" width="100%" height="100%" />
<feMerge result="effect1_texture_40000685_12547">
<feMergeNode in="displacedImage"/>
</feMerge>
</filter>
<filter id="filter3_g_40000685_12547" x="282.575" y="11.118" width="24.8378" height="30.7045" filterUnits="userSpaceOnUse" color-interpolation-filters="sRGB">
<feFlood flood-opacity="0" result="BackgroundImageFix"/>
<feBlend mode="normal" in="SourceGraphic" in2="BackgroundImageFix" result="shape"/>
<feTurbulence type="fractalNoise" baseFrequency="0.25 0.25" numOctaves="3" seed="9272" />
<feDisplacementMap in="shape" scale="1.6000000238418579" xChannelSelector="R" yChannelSelector="G" result="displacedImage" width="100%" height="100%" />
<feMerge result="effect1_texture_40000685_12547">
<feMergeNode in="displacedImage"/>
</feMerge>
</filter>
<filter id="filter4_g_40000685_12547" x="296.465" y="33.3875" width="24.9384" height="19.8148" filterUnits="userSpaceOnUse" color-interpolation-filters="sRGB">
<feFlood flood-opacity="0" result="BackgroundImageFix"/>
<feBlend mode="normal" in="SourceGraphic" in2="BackgroundImageFix" result="shape"/>
<feTurbulence type="fractalNoise" baseFrequency="0.25 0.25" numOctaves="3" seed="9272" />
<feDisplacementMap in="shape" scale="1.6000000238418579" xChannelSelector="R" yChannelSelector="G" result="displacedImage" width="100%" height="100%" />
<feMerge result="effect1_texture_40000685_12547">
<feMergeNode in="displacedImage"/>
</feMerge>
</filter>
<filter id="filter5_g_40000685_12547" x="312.871" y="58.1399" width="16.2255" height="3.19473" filterUnits="userSpaceOnUse" color-interpolation-filters="sRGB">
<feFlood flood-opacity="0" result="BackgroundImageFix"/>
<feBlend mode="normal" in="SourceGraphic" in2="BackgroundImageFix" result="shape"/>
<feTurbulence type="fractalNoise" baseFrequency="0.25 0.25" numOctaves="3" seed="9272" />
<feDisplacementMap in="shape" scale="1.6000000238418579" xChannelSelector="R" yChannelSelector="G" result="displacedImage" width="100%" height="100%" />
<feMerge result="effect1_texture_40000685_12547">
<feMergeNode in="displacedImage"/>
</feMerge>
</filter>
<filter id="filter6_g_40000685_12547" x="261.713" y="220.891" width="38.8116" height="51.8898" filterUnits="userSpaceOnUse" color-interpolation-filters="sRGB">
<feFlood flood-opacity="0" result="BackgroundImageFix"/>
<feBlend mode="normal" in="SourceGraphic" in2="BackgroundImageFix" result="shape"/>
<feTurbulence type="fractalNoise" baseFrequency="0.76923078298568726 0.76923078298568726" numOctaves="3" seed="1258" />
<feDisplacementMap in="shape" scale="0.87999999523162842" xChannelSelector="R" yChannelSelector="G" result="displacedImage" width="100%" height="100%" />
<feMerge result="effect1_texture_40000685_12547">
<feMergeNode in="displacedImage"/>
</feMerge>
</filter>
<filter id="filter7_g_40000685_12547" x="296.738" y="199.734" width="27.6564" height="34.1515" filterUnits="userSpaceOnUse" color-interpolation-filters="sRGB">
<feFlood flood-opacity="0" result="BackgroundImageFix"/>
<feBlend mode="normal" in="SourceGraphic" in2="BackgroundImageFix" result="shape"/>
<feTurbulence type="fractalNoise" baseFrequency="0.76923078298568726 0.76923078298568726" numOctaves="3" seed="1258" />
<feDisplacementMap in="shape" scale="0.87999999523162842" xChannelSelector="R" yChannelSelector="G" result="displacedImage" width="100%" height="100%" />
<feMerge result="effect1_texture_40000685_12547">
<feMergeNode in="displacedImage"/>
</feMerge>
</filter>
<clipPath id="clip0_40000685_12547">
<rect width="327" height="360" fill="white"/>
</clipPath>
<clipPath id="clip1_40000685_12547">
<rect width="296" height="142.152" fill="white" transform="translate(16 50)"/>
</clipPath>
</defs>
</svg>