<svg width="91" height="119" viewBox="0 0 91 119" fill="none" xmlns="http://www.w3.org/2000/svg">
<rect width="91" height="118.3" rx="5" fill="#FFE5E4"/>
<g clip-path="url(#clip0_40000648_16945)">
<path d="M91.604 110.374C90.7838 113.482 86.3974 113.556 85.4743 110.477C82.6951 112.094 79.5439 109.046 81.068 106.214C77.96 105.394 77.887 101.007 80.9651 100.084C79.348 97.3049 82.3962 94.1538 85.2286 95.6779C86.0488 92.5699 90.4352 92.4968 91.3583 95.5749C94.1376 93.9579 97.2887 97.0061 95.7646 99.8385C98.8726 100.659 98.9457 105.045 95.8675 105.968C97.4846 108.747 94.4364 111.899 91.604 110.374Z" fill="#FBD7D5"/>
</g>
<g clip-path="url(#clip1_40000648_16945)">
<path d="M-0.692648 43.2966C-0.0971842 45.5708 3.08746 45.6242 3.75766 43.372C5.77549 44.5552 8.06332 42.3248 6.95677 40.2523C9.21326 39.6522 9.2663 36.4426 7.0315 35.7672C8.20556 33.7336 5.99246 31.4278 3.93606 32.543C3.3406 30.2689 0.15595 30.2154 -0.514249 32.4677C-2.53207 31.2845 -4.81991 33.5149 -3.71336 35.5874C-5.96985 36.1875 -6.02289 39.3971 -3.78809 40.0725C-4.96214 42.1061 -2.74905 44.4118 -0.692648 43.2966Z" fill="#FBD7D5"/>
</g>
<rect x="5.77539" y="7.01172" width="79.45" height="91.7" rx="0.996154" fill="white"/>
<g clip-path="url(#clip2_40000648_16945)">
<path d="M2.3314 104.537C-0.310002 104.066 -2.77866 103.465 -4.61869 102.843C-6.14718 102.327 -8.70359 101.462 -8.34743 99.4637C-8.20309 98.6538 -7.65394 98.2058 -7.05104 97.9522C-6.96585 97.3207 -6.72935 96.7141 -6.34646 96.2071C-5.60724 95.224 -4.44658 94.7339 -3.16733 94.8653C-3.04721 94.8762 -2.92818 94.8933 -2.80988 94.9143C-2.23469 95.0169 -1.62985 95.2128 -1.00113 95.4992L-0.565946 94.0021C-1.79846 93.4549 -2.92435 92.7819 -3.92564 91.9882C-5.79959 90.5058 -6.88504 88.1772 -6.83184 85.7534C-6.81563 85.013 -6.73796 84.2585 -6.60486 83.5117C-6.27518 81.662 -5.59458 79.898 -4.63832 78.4056C-2.49959 75.0728 0.807601 73.355 3.99565 73.9232C5.16031 74.1308 6.23472 74.6204 7.19178 75.3788C7.23062 75.4089 7.27703 75.4318 7.32599 75.4406C7.37494 75.4493 7.42403 75.4454 7.47325 75.429C8.63749 75.0487 9.81286 74.96 10.9734 75.1669C14.3349 75.766 16.9562 78.8408 17.6539 83.0025C17.9179 84.5674 17.902 86.1917 17.6104 87.8277C17.4976 88.4606 17.3444 89.0841 17.1529 89.6861C16.4553 91.888 14.8245 93.6464 12.6782 94.5068C11.5158 94.9714 10.2279 95.2898 8.8862 95.4496L8.93144 96.4591C9.35258 96.3515 9.77571 96.28 10.2049 96.2452C10.3225 96.2347 10.4415 96.2286 10.5573 96.2282C10.808 96.2267 11.0445 96.2458 11.2729 96.2865C13.023 96.5984 14.2319 98.1638 14.1455 100.006C14.1151 100.673 13.9225 101.281 13.6056 101.796C14.0003 102.238 14.2287 102.786 14.1076 103.466C13.7514 105.464 11.0536 105.393 9.44094 105.349C7.49937 105.297 4.97485 105.008 2.33344 104.538L2.3314 104.537Z" fill="#FBFBFB" stroke="#9C9C9C" stroke-width="0.332051" stroke-miterlimit="10"/>
<g filter="url(#filter0_g_40000648_16945)">
<path d="M3.10774 100.183C5.75147 100.654 8.11272 101.242 9.79236 101.809C10.6332 102.093 11.2965 102.37 11.7375 102.622C11.959 102.748 12.1155 102.863 12.2104 102.963C12.309 103.067 12.3145 103.125 12.3108 103.146C12.3068 103.167 12.2814 103.219 12.1535 103.282C12.03 103.343 11.8433 103.396 11.592 103.438C11.0912 103.522 10.3732 103.553 9.4858 103.529C7.71352 103.481 5.29484 103.217 2.65107 102.745C0.00709351 102.274 -2.35481 101.687 -4.03452 101.119C-4.87543 100.835 -5.53869 100.558 -5.97967 100.306C-6.20061 100.18 -6.35689 100.066 -6.45174 99.9663C-6.54998 99.8629 -6.55578 99.805 -6.55212 99.7837C-6.54837 99.7626 -6.52329 99.7104 -6.39485 99.6471C-6.27139 99.5863 -6.08534 99.5321 -5.83419 99.4901C-5.33344 99.4064 -4.61529 99.3754 -3.72795 99.3993C-1.95561 99.447 0.463764 99.7119 3.10774 100.183Z" fill="#2C2C2C" stroke="#2C2C2C" stroke-width="0.332051"/>
<path d="M4.88218 86.5751L2.46345 100.145C2.33107 100.888 1.61997 101.383 0.875481 101.25L-3.80154 100.417C-6.25122 99.9799 -5.80893 96.2587 -3.33237 96.509C-3.25581 96.5164 -3.17794 96.5281 -3.09839 96.5423C-2.07243 96.7252 -0.956499 97.3125 0.00354672 97.9833L3.40304 86.3135L4.88182 86.5771L4.88218 86.5751Z" fill="#CBCBC5" stroke="#2C2C2C" stroke-width="0.332051" stroke-miterlimit="10"/>
<path d="M0.94931 98.748C0.751509 98.5826 0.317699 98.1946 -0.543945 97.6211L0.94931 98.748Z" fill="#CBCBC5"/>
<path d="M0.94931 98.748C0.751509 98.5826 0.317699 98.1946 -0.543945 97.6211" stroke="#2C2C2C" stroke-width="0.332051" stroke-miterlimit="10" stroke-linecap="round"/>
<path d="M5.3711 87.4892L4.46679 100.958C4.5305 101.71 5.19066 102.269 5.94477 102.206L10.678 101.815C13.1578 101.61 13.0615 97.8646 10.5736 97.8788C10.4955 97.8796 10.4172 97.8825 10.3381 97.8893C9.3 97.9752 8.39409 98.3113 7.37553 98.8897L6.86635 87.3652L5.36906 87.4888L5.3711 87.4892Z" fill="#CBCBC5" stroke="#2C2C2C" stroke-width="0.332051" stroke-miterlimit="10"/>
<path d="M6.09869 99.6992C6.31009 99.5521 6.77978 99.2075 7.6901 98.7168L6.09869 99.6992Z" fill="#CBCBC5"/>
<path d="M6.09869 99.6992C6.31009 99.5521 6.77978 99.2075 7.6901 98.7168" stroke="#2C2C2C" stroke-width="0.332051" stroke-miterlimit="10" stroke-linecap="round"/>
</g>
<g filter="url(#filter1_g_40000648_16945)">
<path d="M15.9769 87.5361C15.8753 88.1059 15.7393 88.6569 15.5714 89.1854C15.0261 90.9106 13.7389 92.2999 12.0554 92.9719C9.88213 93.8421 7.18594 94.151 4.35475 93.7177C4.21124 93.6963 4.0681 93.6729 3.92328 93.6471L3.79886 93.6249C1.1672 93.1349 -1.14869 92.0776 -2.89663 90.6911C-4.39029 89.5074 -5.21972 87.6905 -5.17559 85.7899C-5.16071 85.1396 -5.09455 84.4733 -4.97487 83.8018C-4.67275 82.1068 -4.06278 80.5737 -3.24409 79.2982C-1.53047 76.6266 1.09292 75.085 3.70373 75.5503C4.6114 75.7121 5.43656 76.1006 6.15756 76.6721C6.67966 77.0843 7.36296 77.2061 7.99328 76.9993C8.86493 76.7138 9.77387 76.6322 10.6795 76.7937C13.4474 77.287 15.45 79.9009 16.015 83.2726C16.2386 84.6036 16.2393 86.0524 15.9749 87.5358L15.9769 87.5361Z" fill="#EEEDEB"/>
<path d="M15.9769 87.5361C15.8753 88.1059 15.7393 88.6569 15.5714 89.1854C15.0261 90.9106 13.7389 92.2999 12.0554 92.9719C9.88213 93.8421 7.18594 94.151 4.35475 93.7177C4.21124 93.6963 4.0681 93.6729 3.92328 93.6471L3.79886 93.6249C1.1672 93.1349 -1.14869 92.0776 -2.89663 90.6911C-4.39029 89.5074 -5.21972 87.6905 -5.17559 85.7899C-5.16071 85.1396 -5.09455 84.4733 -4.97487 83.8018C-4.67275 82.1068 -4.06278 80.5737 -3.24409 79.2982C-1.53047 76.6266 1.09292 75.085 3.70373 75.5503C4.6114 75.7121 5.43656 76.1006 6.15756 76.6721C6.67966 77.0843 7.36296 77.2061 7.99328 76.9993C8.86493 76.7138 9.77387 76.6322 10.6795 76.7937C13.4474 77.287 15.45 79.9009 16.015 83.2726C16.2386 84.6036 16.2393 86.0524 15.9749 87.5358L15.9769 87.5361Z" stroke="#2C2C2C" stroke-width="0.332051" stroke-miterlimit="10"/>
</g>
<g filter="url(#filter2_g_40000648_16945)">
<path d="M5.86645 84.582C5.68656 85.5913 5.31435 86.369 4.34346 86.1959C3.43375 86.0338 3.16141 85.1413 3.3413 84.132C3.52119 83.1227 3.97499 82.3596 4.99483 82.5414C5.8821 82.6995 6.04634 83.5728 5.86645 84.582Z" fill="#FBFBFB" stroke="#2C2C2C" stroke-width="0.332051" stroke-miterlimit="10"/>
<path d="M8.39282 85.0322C8.21292 86.0415 7.84072 86.8192 6.86982 86.6461C5.96012 86.484 5.68778 85.5914 5.86767 84.5822C6.04756 83.5729 6.50135 82.8098 7.5212 82.9916C8.40847 83.1497 8.57271 84.023 8.39282 85.0322Z" fill="#FBFBFB" stroke="#2C2C2C" stroke-width="0.332051" stroke-miterlimit="10"/>
<path d="M5.33817 83.7161C5.52137 83.7488 5.62101 83.8478 5.67394 83.9971C5.73143 84.1597 5.73338 84.3872 5.68566 84.6549C5.63678 84.9292 5.5665 85.1426 5.46211 85.2747C5.41229 85.3377 5.35683 85.3799 5.29336 85.4033C5.22958 85.4269 5.14639 85.4357 5.03521 85.4159C4.8412 85.3813 4.72141 85.2742 4.65386 85.1178C4.58266 84.9527 4.56725 84.7244 4.61369 84.4638C4.66154 84.1954 4.74219 83.9857 4.85781 83.8566C4.96297 83.7393 5.10838 83.6751 5.33817 83.7161Z" fill="#2C2C2C" stroke="#2C2C2C" stroke-width="0.332051"/>
<path d="M7.88114 84.0642C8.06434 84.0969 8.16398 84.1959 8.21691 84.3453C8.2744 84.5078 8.27635 84.7353 8.22863 85.0031C8.17974 85.2773 8.10947 85.4908 8.00507 85.6229C7.95526 85.6859 7.8998 85.728 7.83633 85.7515C7.77255 85.7751 7.68936 85.7838 7.57818 85.764C7.38417 85.7294 7.26438 85.6224 7.19683 85.4659C7.12563 85.3008 7.11021 85.0725 7.15666 84.812C7.20451 84.5435 7.28516 84.3339 7.40078 84.2048C7.50594 84.0874 7.65135 84.0233 7.88114 84.0642Z" fill="#2C2C2C" stroke="#2C2C2C" stroke-width="0.332051"/>
<path d="M5.70257 86.4989C5.70257 86.4989 4.6631 86.3682 4.69172 86.9632C4.72035 87.5583 6.17937 87.6966 6.42686 87.4888C6.67435 87.2809 6.62841 86.7122 5.70293 86.4968L5.70257 86.4989Z" fill="#FBD7D5" stroke="#2C2C2C" stroke-width="0.332051" stroke-miterlimit="10"/>
<path d="M2.62109 86.2646C2.62109 86.2646 3.0338 88.8492 5.95473 88.1059" stroke="#2C2C2C" stroke-width="0.332051" stroke-miterlimit="10" stroke-linecap="round"/>
<path d="M1.02444 85.2678C1.02092 85.2876 1.00231 85.3004 0.983487 85.2972C0.964553 85.2939 0.950719 85.2752 0.954255 85.2553C0.957937 85.2357 0.977167 85.2237 0.995996 85.2271L1.01832 85.241C1.02363 85.2484 1.02612 85.2579 1.02444 85.2678Z" fill="#2C2C2C" stroke="#2C2C2C" stroke-width="0.332051"/>
<path d="M1.8262 85.4104C1.82268 85.4301 1.80407 85.443 1.78524 85.4398C1.76631 85.4364 1.75248 85.4177 1.75601 85.3979C1.75969 85.3783 1.77892 85.3663 1.79775 85.3696L1.82008 85.3835C1.82539 85.391 1.82787 85.4005 1.8262 85.4104Z" fill="#2C2C2C" stroke="#2C2C2C" stroke-width="0.332051"/>
<path d="M1.35647 85.7356C1.35295 85.7553 1.33434 85.7682 1.31552 85.765C1.29658 85.7616 1.28275 85.7429 1.28629 85.7231C1.28997 85.7035 1.3092 85.6915 1.32803 85.6948L1.35035 85.7087C1.35567 85.7162 1.35815 85.7257 1.35647 85.7356Z" fill="#2C2C2C" stroke="#2C2C2C" stroke-width="0.332051"/>
<path d="M8.60452 86.6184C8.601 86.6381 8.58239 86.651 8.56357 86.6478C8.54463 86.6445 8.5308 86.6258 8.53433 86.6059C8.53801 86.5863 8.55724 86.5743 8.57607 86.5776L8.5984 86.5915C8.60371 86.599 8.60619 86.6085 8.60452 86.6184Z" fill="#2C2C2C" stroke="#2C2C2C" stroke-width="0.332051"/>
<path d="M9.40627 86.7615C9.40276 86.7812 9.38414 86.7941 9.36532 86.7909C9.34639 86.7875 9.33256 86.7688 9.33609 86.749C9.33977 86.7293 9.359 86.7174 9.37783 86.7207L9.40015 86.7346C9.40547 86.742 9.40795 86.7516 9.40627 86.7615Z" fill="#2C2C2C" stroke="#2C2C2C" stroke-width="0.332051"/>
<path d="M8.93557 87.0867C8.93206 87.1064 8.91344 87.1193 8.89462 87.1161C8.87569 87.1127 8.86185 87.094 8.86539 87.0742C8.86907 87.0545 8.8883 87.0426 8.90713 87.0459L8.92945 87.0598C8.93477 87.0672 8.93725 87.0768 8.93557 87.0867Z" fill="#2C2C2C" stroke="#2C2C2C" stroke-width="0.332051"/>
</g>
<path d="M5.96142 102.115C5.96142 102.115 10.6878 98.8694 11.4417 99.9527" stroke="black" stroke-width="0.332051" stroke-miterlimit="10" stroke-linecap="round"/>
</g>
<g clip-path="url(#clip3_40000648_16945)">
<path d="M90.3993 44.399C92.9347 43.7461 95.2924 42.9786 97.0369 42.2378C98.4861 41.623 100.91 40.5927 100.416 38.6747C100.216 37.8973 99.6483 37.5019 99.0429 37.2996C98.9135 36.6915 98.6386 36.1187 98.2287 35.6536C97.4369 34.7516 96.2714 34.3602 95.0363 34.5825C94.9203 34.6019 94.8057 34.6273 94.6922 34.6565C94.14 34.7987 93.566 35.034 92.9753 35.359L92.4415 33.9344C93.6004 33.3111 94.6463 32.5731 95.562 31.7271C97.276 30.1464 98.1605 27.8006 97.9299 25.4461C97.8596 24.7269 97.7283 23.9984 97.5437 23.2816C97.0865 21.5062 96.2942 19.8399 95.2536 18.4584C92.9268 15.3732 89.5821 13.9456 86.522 14.7337C85.4041 15.0216 84.3948 15.5772 83.5195 16.3858C83.4839 16.4179 83.4404 16.4436 83.3935 16.4557C83.3465 16.4678 83.2984 16.4677 83.2493 16.4554C82.0884 16.1711 80.9382 16.1716 79.8242 16.4585C76.5977 17.2894 74.2739 20.4745 73.9019 24.5754C73.7604 26.1176 73.8957 27.6969 74.3001 29.2672C74.4565 29.8747 74.6516 30.4701 74.8823 31.0417C75.7235 33.1327 77.4401 34.7234 79.5919 35.4023C80.7572 35.7686 82.0339 35.9835 83.3511 36.04L83.3815 37.0256C82.9638 36.952 82.5468 36.9136 82.1267 36.9114C82.0114 36.9098 81.8953 36.9127 81.7825 36.9209C81.5385 36.9379 81.3098 36.9739 81.0905 37.0303C79.4107 37.4629 78.3499 39.0753 78.5699 40.8618C78.6486 41.508 78.8808 42.0855 79.2271 42.5629C78.8756 43.022 78.6939 43.5728 78.8619 44.2252C79.3558 46.1432 81.9756 45.8747 83.5415 45.7131C85.4268 45.5191 87.862 45.0524 90.3974 44.3995L90.3993 44.399Z" fill="#FBFBFB" stroke="#9C9C9C" stroke-width="0.332051" stroke-miterlimit="10"/>
<g filter="url(#filter3_g_40000648_16945)">
<path d="M89.3253 40.2232C86.7876 40.8767 84.5333 41.6229 82.941 42.2989C82.1436 42.6374 81.5184 42.9556 81.1081 43.2327C80.9024 43.3718 80.7594 43.4949 80.6749 43.5984C80.5874 43.7057 80.5868 43.7606 80.5914 43.7793C80.5961 43.7976 80.6229 43.8462 80.7521 43.8982C80.8762 43.9481 81.0608 43.9868 81.3081 44.0092C81.8012 44.0537 82.5023 44.0303 83.364 43.9416C85.0847 43.7644 87.4191 43.3289 89.9567 42.6755C92.4942 42.022 94.7479 41.276 96.3401 40.6C97.1374 40.2615 97.7626 39.9433 98.1729 39.6662C98.3786 39.5272 98.5216 39.4041 98.6061 39.3005C98.6942 39.1926 98.6941 39.1371 98.6894 39.1187C98.6844 39.1001 98.6574 39.0524 98.5289 39.0007C98.4049 38.9509 98.2203 38.9121 97.973 38.8898C97.4799 38.8453 96.7787 38.8686 95.917 38.9573C94.1964 39.1345 91.8627 39.5698 89.3253 40.2232Z" fill="#2C2C2C" stroke="#2C2C2C" stroke-width="0.332051"/>
<path d="M86.595 27.1092L89.9494 40.135C90.133 40.848 90.8614 41.2769 91.576 41.0928L96.0653 39.9368C98.4167 39.3312 97.7119 35.743 95.3206 36.1693C95.2467 36.1821 95.1718 36.1993 95.0954 36.219C94.1106 36.4726 93.0681 37.1263 92.1834 37.8498L88.015 26.7456L86.5955 27.1112L86.595 27.1092Z" fill="#CBCBC5" stroke="#2C2C2C" stroke-width="0.332051" stroke-miterlimit="10"/>
<path d="M86.1863 28.0352L88.0596 41.0738C88.0531 41.8106 87.452 42.4028 86.7136 42.3972L82.0792 42.366C79.6512 42.3497 79.4687 38.6979 81.8905 38.5282C81.9665 38.5232 82.043 38.5202 82.1204 38.5211C83.1368 38.528 84.0431 38.7882 85.0768 39.276L84.7223 28.0248L86.1883 28.0347L86.1863 28.0352Z" fill="#CBCBC5" stroke="#2C2C2C" stroke-width="0.332051" stroke-miterlimit="10"/>
<path d="M86.3775 39.9693C86.161 39.8418 85.6785 39.5411 84.7566 39.1308L86.3775 39.9693Z" fill="#CBCBC5"/>
<path d="M86.3775 39.9693C86.161 39.8418 85.6785 39.5411 84.7566 39.1308" stroke="#2C2C2C" stroke-width="0.332051" stroke-miterlimit="10" stroke-linecap="round"/>
</g>
<g filter="url(#filter4_g_40000648_16945)">
<path d="M75.8682 28.8633C76.009 29.4102 76.1821 29.9363 76.3844 30.4382C77.0422 32.0766 78.3972 33.3334 80.0848 33.8632C82.2636 34.5496 84.9098 34.6513 87.6327 34.0209C87.7708 33.9895 87.9083 33.9562 88.0473 33.9204L88.1667 33.8896C90.6913 33.2187 92.8667 32.0191 94.4652 30.5411C95.8313 29.2792 96.5043 27.4501 96.3212 25.6041C96.2587 24.9724 96.1452 24.3289 95.9792 23.6844C95.5603 22.0574 94.8537 20.6107 93.963 19.43C92.0986 16.9569 89.4322 15.6503 86.9262 16.2957C86.055 16.52 85.2807 16.9589 84.6213 17.5682C84.1437 18.0077 83.4878 18.1766 82.8592 18.0219C81.9901 17.8084 81.0996 17.7961 80.2303 18.02C77.5735 18.7041 75.8177 21.3952 75.5167 24.7176C75.3972 26.0292 75.5035 27.4389 75.8701 28.8628L75.8682 28.8633Z" fill="#EEEDEB"/>
<path d="M75.8682 28.8633C76.009 29.4102 76.1821 29.9363 76.3844 30.4382C77.0422 32.0766 78.3972 33.3334 80.0848 33.8632C82.2636 34.5496 84.9098 34.6513 87.6327 34.0209C87.7708 33.9895 87.9083 33.9562 88.0473 33.9204L88.1667 33.8896C90.6913 33.2187 92.8667 32.0191 94.4652 30.5411C95.8313 29.2792 96.5043 27.4501 96.3212 25.6041C96.2587 24.9724 96.1452 24.3289 95.9792 23.6844C95.5603 22.0574 94.8537 20.6107 93.963 19.43C92.0986 16.9569 89.4322 15.6503 86.9262 16.2957C86.055 16.52 85.2807 16.9589 84.6213 17.5682C84.1437 18.0077 83.4878 18.1766 82.8592 18.0219C81.9901 17.8084 81.0996 17.7961 80.2303 18.02C77.5735 18.7041 75.8177 21.3952 75.5167 24.7176C75.3972 26.0292 75.5035 27.4389 75.8701 28.8628L75.8682 28.8633Z" stroke="#2C2C2C" stroke-width="0.332051" stroke-miterlimit="10"/>
</g>
<g filter="url(#filter5_g_40000648_16945)">
<path d="M85.4898 25.2429C85.7392 26.2117 86.1588 26.9409 87.0907 26.7009C87.9639 26.476 88.1631 25.5875 87.9136 24.6187C87.6641 23.6499 87.1663 22.9409 86.1874 23.193C85.3357 23.4123 85.2403 24.2741 85.4898 25.2429Z" fill="#FBFBFB" stroke="#2C2C2C" stroke-width="0.332051" stroke-miterlimit="10"/>
<path d="M83.0659 25.8674C83.3154 26.8362 83.7349 27.5654 84.6669 27.3254C85.5401 27.1005 85.7392 26.212 85.4898 25.2432C85.2403 24.2744 84.7425 23.5654 83.7635 23.8175C82.9119 24.0368 82.8165 24.8986 83.0659 25.8674Z" fill="#FBFBFB" stroke="#2C2C2C" stroke-width="0.332051" stroke-miterlimit="10"/>
<path d="M85.9424 24.3652C85.7681 24.41 85.6793 24.5123 85.6392 24.66C85.5953 24.8215 85.6097 25.0431 85.6759 25.3C85.7436 25.5627 85.8278 25.7639 85.9382 25.8839C85.9909 25.9411 86.0475 25.978 86.1102 25.9959C86.1732 26.0139 86.2544 26.0163 86.3605 25.9889C86.5452 25.9413 86.652 25.8291 86.7058 25.6731C86.7625 25.5084 86.7614 25.2865 86.6972 25.037C86.631 24.7797 86.5372 24.5824 86.4161 24.466C86.3062 24.3606 86.1615 24.3088 85.9424 24.3652Z" fill="#2C2C2C" stroke="#2C2C2C" stroke-width="0.332051"/>
<path d="M83.4932 24.8915C83.3188 24.9364 83.2301 25.0386 83.1899 25.1864C83.1461 25.3478 83.1605 25.5695 83.2267 25.8264C83.2944 26.0891 83.3785 26.2903 83.489 26.4103C83.5417 26.4675 83.5983 26.5043 83.661 26.5223C83.724 26.5403 83.8052 26.5426 83.9113 26.5153C84.096 26.4676 84.2028 26.3555 84.2565 26.1995C84.3133 26.0347 84.3122 25.8128 84.248 25.5634C84.1818 25.3061 84.088 25.1087 83.9669 24.9924C83.857 24.887 83.7123 24.8352 83.4932 24.8915Z" fill="#2C2C2C" stroke="#2C2C2C" stroke-width="0.332051"/>
<path d="M85.7921 27.0958C85.7921 27.0958 86.7939 26.8919 86.81 27.4731C86.826 28.0542 85.4165 28.2963 85.1604 28.1124C84.9042 27.9284 84.907 27.3716 85.7916 27.0938L85.7921 27.0958Z" fill="#FBD7D5" stroke="#2C2C2C" stroke-width="0.332051" stroke-miterlimit="10"/>
<path d="M88.7725 26.6406C88.7725 26.6406 88.5615 29.1859 85.6646 28.6781" stroke="#2C2C2C" stroke-width="0.332051" stroke-miterlimit="10" stroke-linecap="round"/>
<path d="M90.2478 25.555C90.2533 25.5762 90.2751 25.5883 90.2954 25.5831C90.3054 25.5804 90.313 25.5736 90.318 25.5651L90.3226 25.5357C90.3171 25.5147 90.2961 25.5024 90.2759 25.5074C90.2557 25.5126 90.2425 25.5338 90.2478 25.555Z" fill="#2C2C2C" stroke="#2C2C2C" stroke-width="0.332051"/>
<path d="M89.4783 25.7532C89.4838 25.7744 89.5056 25.7865 89.5259 25.7813C89.5359 25.7786 89.5435 25.7718 89.5485 25.7634L89.553 25.734C89.5476 25.713 89.5266 25.7007 89.5064 25.7056C89.4861 25.7109 89.4729 25.732 89.4783 25.7532Z" fill="#2C2C2C" stroke="#2C2C2C" stroke-width="0.332051"/>
<path d="M89.9598 26.0354C89.9652 26.0566 89.987 26.0688 90.0073 26.0635C90.0173 26.0608 90.0249 26.054 90.0299 26.0456L90.0345 26.0162C90.029 25.9952 90.008 25.9829 89.9878 25.9879C89.9676 25.9931 89.9544 26.0143 89.9598 26.0354Z" fill="#2C2C2C" stroke="#2C2C2C" stroke-width="0.332051"/>
<path d="M82.9725 27.4285C82.9779 27.4497 82.9997 27.4618 83.02 27.4566C83.03 27.4539 83.0376 27.4471 83.0426 27.4387L83.0472 27.4093C83.0417 27.3883 83.0207 27.376 83.0005 27.3809C82.9803 27.3862 82.9671 27.4073 82.9725 27.4285Z" fill="#2C2C2C" stroke="#2C2C2C" stroke-width="0.332051"/>
<path d="M82.2029 27.6263C82.2084 27.6475 82.2302 27.6596 82.2505 27.6543C82.2605 27.6517 82.2681 27.6449 82.2731 27.6364L82.2776 27.607C82.2722 27.586 82.2512 27.5737 82.231 27.5787C82.2107 27.5839 82.1975 27.6051 82.2029 27.6263Z" fill="#2C2C2C" stroke="#2C2C2C" stroke-width="0.332051"/>
<path d="M82.6844 27.9085C82.6898 27.9297 82.7116 27.9418 82.7319 27.9366C82.7419 27.9339 82.7495 27.9271 82.7545 27.9186L82.7591 27.8892C82.7536 27.8683 82.7326 27.856 82.7125 27.8609C82.6922 27.8661 82.679 27.8873 82.6844 27.9085Z" fill="#2C2C2C" stroke="#2C2C2C" stroke-width="0.332051"/>
</g>
<path d="M86.6885 42.3103C86.6885 42.3103 81.8503 39.5012 81.1966 40.6109" stroke="black" stroke-width="0.332051" stroke-miterlimit="10" stroke-linecap="round"/>
</g>
<defs>
<filter id="filter0_g_40000648_16945" x="-6.85157" y="85.9912" width="19.6397" height="17.8447" filterUnits="userSpaceOnUse" color-interpolation-filters="sRGB">
<feFlood flood-opacity="0" result="BackgroundImageFix"/>
<feBlend mode="normal" in="SourceGraphic" in2="BackgroundImageFix" result="shape"/>
<feTurbulence type="fractalNoise" baseFrequency="2.0077221393585205 2.0077221393585205" numOctaves="3" seed="7043" />
<feDisplacementMap in="shape" scale="0.26564103364944458" xChannelSelector="R" yChannelSelector="G" result="displacedImage" width="100%" height="100%" />
<feMerge result="effect1_texture_40000648_16945">
<feMergeNode in="displacedImage"/>
</feMerge>
</filter>
<filter id="filter1_g_40000648_16945" x="-5.47657" y="75.1689" width="21.9541" height="19.042" filterUnits="userSpaceOnUse" color-interpolation-filters="sRGB">
<feFlood flood-opacity="0" result="BackgroundImageFix"/>
<feBlend mode="normal" in="SourceGraphic" in2="BackgroundImageFix" result="shape"/>
<feTurbulence type="fractalNoise" baseFrequency="2.0077221393585205 2.0077221393585205" numOctaves="3" seed="7043" />
<feDisplacementMap in="shape" scale="0.26564103364944458" xChannelSelector="R" yChannelSelector="G" result="displacedImage" width="100%" height="100%" />
<feMerge result="effect1_texture_40000648_16945">
<feMergeNode in="displacedImage"/>
</feMerge>
</filter>
<filter id="filter2_g_40000648_16945" x="0.726554" y="82.2158" width="8.90822" height="6.32326" filterUnits="userSpaceOnUse" color-interpolation-filters="sRGB">
<feFlood flood-opacity="0" result="BackgroundImageFix"/>
<feBlend mode="normal" in="SourceGraphic" in2="BackgroundImageFix" result="shape"/>
<feTurbulence type="fractalNoise" baseFrequency="2.0077221393585205 2.0077221393585205" numOctaves="3" seed="7043" />
<feDisplacementMap in="shape" scale="0.26564103364944458" xChannelSelector="R" yChannelSelector="G" result="displacedImage" width="100%" height="100%" />
<feMerge result="effect1_texture_40000648_16945">
<feMergeNode in="displacedImage"/>
</feMerge>
</filter>
<filter id="filter3_g_40000648_16945" x="79.8642" y="26.415" width="19.126" height="17.9151" filterUnits="userSpaceOnUse" color-interpolation-filters="sRGB">
<feFlood flood-opacity="0" result="BackgroundImageFix"/>
<feBlend mode="normal" in="SourceGraphic" in2="BackgroundImageFix" result="shape"/>
<feTurbulence type="fractalNoise" baseFrequency="2.0077221393585205 2.0077221393585205" numOctaves="3" seed="7043" />
<feDisplacementMap in="shape" scale="0.26564103364944458" xChannelSelector="R" yChannelSelector="G" result="displacedImage" width="100%" height="100%" />
<feMerge result="effect1_texture_40000648_16945">
<feMergeNode in="displacedImage"/>
</feMerge>
</filter>
<filter id="filter4_g_40000648_16945" x="75.1709" y="15.8325" width="21.4785" height="18.9068" filterUnits="userSpaceOnUse" color-interpolation-filters="sRGB">
<feFlood flood-opacity="0" result="BackgroundImageFix"/>
<feBlend mode="normal" in="SourceGraphic" in2="BackgroundImageFix" result="shape"/>
<feTurbulence type="fractalNoise" baseFrequency="2.0077221393585205 2.0077221393585205" numOctaves="3" seed="7043" />
<feDisplacementMap in="shape" scale="0.26564103364944458" xChannelSelector="R" yChannelSelector="G" result="displacedImage" width="100%" height="100%" />
<feMerge result="effect1_texture_40000648_16945">
<feMergeNode in="displacedImage"/>
</feMerge>
</filter>
<filter id="filter5_g_40000648_16945" x="81.9805" y="22.8428" width="8.56545" height="6.20119" filterUnits="userSpaceOnUse" color-interpolation-filters="sRGB">
<feFlood flood-opacity="0" result="BackgroundImageFix"/>
<feBlend mode="normal" in="SourceGraphic" in2="BackgroundImageFix" result="shape"/>
<feTurbulence type="fractalNoise" baseFrequency="2.0077221393585205 2.0077221393585205" numOctaves="3" seed="7043" />
<feDisplacementMap in="shape" scale="0.26564103364944458" xChannelSelector="R" yChannelSelector="G" result="displacedImage" width="100%" height="100%" />
<feMerge result="effect1_texture_40000648_16945">
<feMergeNode in="displacedImage"/>
</feMerge>
</filter>
<clipPath id="clip0_40000648_16945">
<rect width="24.2397" height="27.2282" fill="white" transform="translate(66.4102 89.3218)"/>
</clipPath>
<clipPath id="clip1_40000648_16945">
<rect width="17.5987" height="19.9231" fill="white" transform="matrix(-1 0 0 1 17.5986 27.8921)"/>
</clipPath>
<clipPath id="clip2_40000648_16945">
<rect width="28.2244" height="34.8654" fill="white" transform="translate(0 72.3872)"/>
</clipPath>
<clipPath id="clip3_40000648_16945">
<rect width="28.2244" height="34.8654" fill="white" transform="matrix(-1 0 0 1 90.6504 11.6216)"/>
</clipPath>
</defs>
</svg>
