<svg width="91" height="119" viewBox="0 0 91 119" fill="none" xmlns="http://www.w3.org/2000/svg">
<rect width="91" height="118.3" rx="5" fill="#DAEDF1"/>
<rect x="5.77539" y="7.01172" width="79.45" height="91.7" rx="0.996154" fill="white"/>
<g clip-path="url(#clip0_40003001_8763)">
<g filter="url(#filter0_g_40003001_8763)">
<path d="M3.05179 80.6485C6.93776 80.6485 10.088 77.4983 10.088 73.6123C10.088 69.7264 6.93776 66.5762 3.05179 66.5762C-0.834176 66.5762 -3.98438 69.7264 -3.98438 73.6123C-3.98438 77.4983 -0.834176 80.6485 3.05179 80.6485Z" fill="#93D1E0"/>
</g>
</g>
<g clip-path="url(#clip1_40003001_8763)">
<g filter="url(#filter1_g_40003001_8763)">
<path d="M84.1932 114.514C84.1932 110.653 81.0632 107.523 77.2021 107.523C73.341 107.523 70.2109 110.653 70.2109 114.514C70.2109 118.375 73.341 121.505 77.2021 121.505C81.0632 121.505 84.1932 118.375 84.1932 114.514Z" fill="#93D1E0"/>
</g>
</g>
<g clip-path="url(#clip2_40003001_8763)">
<path d="M87.4471 78.2357L87.4306 78.262C87.4081 78.2901 87.3862 78.3201 87.3649 78.3522C87.3911 78.3144 87.4188 78.2741 87.4471 78.2357Z" fill="white" stroke="#2C2C2C" stroke-width="0.332051" stroke-miterlimit="10" stroke-linecap="round"/>
<path d="M99.3353 78.6146C99.8845 80.5921 97.3134 81.755 95.9331 82.3806C94.1532 83.186 91.7427 84.0323 89.1468 84.7636C86.551 85.495 84.0544 86.0312 82.1179 86.2728C80.6156 86.4593 77.8186 86.8088 77.2694 84.8313C77.0468 84.0299 77.3484 83.3804 77.7814 82.8849C77.5831 82.272 77.534 81.6128 77.6593 80.9825C77.8996 79.7619 78.7368 78.8074 79.9513 78.3631C80.0688 78.3192 80.1839 78.2824 80.2962 78.2508C80.8634 78.091 81.4963 78.0038 82.1882 77.9891L82.0189 76.9751C79.9654 76.3051 78.4269 74.7888 77.8815 72.8255C77.5879 71.7683 77.6035 70.6414 77.9289 69.5639C78.0859 69.0398 77.9539 68.4712 77.5683 68.0088C77.0674 67.4117 76.7097 66.7308 76.5033 65.9878C76.2545 65.0917 76.2407 64.1706 76.4617 63.2464C76.6371 62.5239 76.4917 61.8136 76.0752 61.349C75.5327 60.7419 75.1502 60.042 74.936 59.2707C74.0837 56.2019 76.2151 52.9112 79.6889 51.9325C83.1628 50.9538 86.6841 52.6519 87.5365 55.7207C87.7513 56.494 87.7849 57.2922 87.6333 58.0927C87.5172 58.7095 87.7608 59.3921 88.2821 59.9227C88.9352 60.5855 89.4107 61.4025 89.6551 62.2825C89.8626 63.0296 89.9061 63.8011 89.783 64.5719C89.6919 65.1621 89.874 65.7166 90.2813 66.086C91.112 66.8355 91.7058 67.7908 91.9995 68.848C92.453 70.4811 92.1497 72.2449 91.1942 73.7539L91.5921 74.5016C91.9263 74.2186 92.276 73.9681 92.6493 73.7478C92.7511 73.6866 92.8567 73.6308 92.9628 73.577C93.189 73.4655 93.4139 73.3804 93.6384 73.3172C95.3583 72.8326 97.1346 73.7261 97.8601 75.4433C98.1232 76.064 98.2142 76.7027 98.1518 77.3109C98.7024 77.5423 99.1479 77.94 99.3353 78.6146Z" fill="#FBFBFB" stroke="#9C9C9C" stroke-width="0.332051" stroke-miterlimit="10"/>
<g filter="url(#filter2_g_40003001_8763)">
<path d="M87.9515 80.4609C90.5507 79.7266 92.9446 79.2211 94.7123 78.9974C95.5975 78.8854 96.3192 78.8455 96.8279 78.8797C97.0831 78.8968 97.2749 78.932 97.4041 78.9807C97.5379 79.0312 97.5676 79.0811 97.5736 79.1023C97.5794 79.1234 97.5804 79.1822 97.4914 79.296C97.406 79.4054 97.2602 79.5359 97.0508 79.6843C96.6334 79.9801 95.9957 80.3233 95.1815 80.6914C93.5554 81.4265 91.2493 82.2488 88.6501 82.9832C86.0508 83.7175 83.657 84.223 81.8893 84.4467C81.0043 84.5587 80.2835 84.5992 79.7748 84.5651C79.5197 84.548 79.328 84.5127 79.1986 84.4641C79.0641 84.4134 79.0338 84.3628 79.028 84.3418C79.0222 84.3205 79.0227 84.2622 79.1113 84.1488C79.1969 84.0394 79.3425 83.9089 79.552 83.7605C79.9693 83.4647 80.6059 83.1208 81.4201 82.7527C83.0462 82.0176 85.3522 81.1953 87.9515 80.4609Z" fill="#2C2C2C" stroke="#2C2C2C" stroke-width="0.332051"/>
<path d="M83.6461 67.2741L87.3511 80.6855C87.5539 81.4196 87.1229 82.1835 86.3887 82.3914L81.7763 83.6979C79.3604 84.3822 78.1437 80.802 80.5029 79.9365C80.5757 79.9094 80.6516 79.8857 80.73 79.8635C81.7418 79.5769 83.0113 79.6185 84.1754 79.8048L82.1883 67.6891L83.6466 67.2761L83.6461 67.2741Z" fill="#CBCBC5" stroke="#2C2C2C" stroke-width="0.332051" stroke-miterlimit="10"/>
<path d="M85.3683 80.0926C85.1172 80.0296 84.5555 79.8685 83.5254 79.7275L85.3683 80.0926Z" fill="#CBCBC5"/>
<path d="M85.3683 80.0926C85.1172 80.0296 84.5555 79.8685 83.5254 79.7275" stroke="#2C2C2C" stroke-width="0.332051" stroke-miterlimit="10" stroke-linecap="round"/>
<path d="M84.4598 67.9139L89.4947 80.5618C89.8798 81.218 90.7224 81.4345 91.38 81.0444L95.5097 78.5997C97.6733 77.319 95.9571 73.955 93.7032 75.0661C93.6327 75.1013 93.5628 75.1384 93.4939 75.1796C92.5883 75.7159 91.9115 76.4214 91.2378 77.3971L85.7641 67.1412L84.4578 67.9145L84.4598 67.9139Z" fill="#CBCBC5" stroke="#2C2C2C" stroke-width="0.332051" stroke-miterlimit="10"/>
<path d="M90.4429 78.7C90.5708 78.4732 90.8473 77.953 91.4602 77.1057L90.4429 78.7Z" fill="#CBCBC5"/>
<path d="M90.4429 78.7C90.5708 78.4732 90.8473 77.953 91.4602 77.1057" stroke="#2C2C2C" stroke-width="0.332051" stroke-miterlimit="10" stroke-linecap="round"/>
<path d="M91.3716 80.9611C91.3716 80.9611 94.2429 75.9298 95.3973 76.5831" stroke="#2C2C2C" stroke-width="0.332051" stroke-miterlimit="10" stroke-linecap="round"/>
</g>
<g filter="url(#filter3_g_40003001_8763)">
<path d="M90.3964 69.2998C91.1 71.8331 89.2275 74.5775 86.2167 75.4257C83.2058 76.274 80.1913 74.9064 79.4877 72.3732C79.2718 71.5959 79.2973 70.8005 79.5244 70.0461C79.8504 68.9555 79.5749 67.7998 78.847 66.9301C78.5104 66.5277 78.2569 66.0585 78.1115 65.5349C77.9359 64.9026 77.9362 64.2577 78.0855 63.6359C78.3757 62.4316 78.1426 61.1489 77.3184 60.2282C76.9607 59.8274 76.6929 59.3535 76.5447 58.8199C75.9385 56.637 77.549 54.2726 80.1409 53.5424C82.7328 52.8121 85.3317 53.9906 85.938 56.1735C86.0867 56.7091 86.102 57.2542 86.0032 57.7857C85.773 59.0035 86.2371 60.2233 87.1041 61.1037C87.5496 61.5558 87.8801 62.1076 88.0545 62.7358C88.2 63.2594 88.225 63.793 88.1446 64.3129C87.9704 65.4367 88.3282 66.5692 89.1708 67.3306C89.7515 67.8574 90.1851 68.5234 90.4009 69.3007L90.3964 69.2998Z" fill="#EEEDEB"/>
<path d="M90.3964 69.2998C91.1 71.8331 89.2275 74.5775 86.2167 75.4257C83.2058 76.274 80.1913 74.9064 79.4877 72.3732C79.2718 71.5959 79.2973 70.8005 79.5244 70.0461C79.8504 68.9555 79.5749 67.7998 78.847 66.9301C78.5104 66.5277 78.2569 66.0585 78.1115 65.5349C77.9359 64.9026 77.9362 64.2577 78.0855 63.6359C78.3757 62.4316 78.1426 61.1489 77.3184 60.2282C76.9607 59.8274 76.6929 59.3535 76.5447 58.8199C75.9385 56.637 77.549 54.2726 80.1409 53.5424C82.7328 52.8121 85.3317 53.9906 85.938 56.1735C86.0867 56.7091 86.102 57.2542 86.0032 57.7857C85.773 59.0035 86.2371 60.2233 87.1041 61.1037C87.5496 61.5558 87.8801 62.1076 88.0545 62.7358C88.2 63.2594 88.225 63.793 88.1446 64.3129C87.9704 65.4367 88.3282 66.5692 89.1708 67.3306C89.7515 67.8574 90.1851 68.5234 90.4009 69.3007L90.3964 69.2998Z" stroke="#2C2C2C" stroke-width="0.332051" stroke-miterlimit="10"/>
</g>
<g filter="url(#filter4_g_40003001_8763)">
<path d="M81.1599 57.3873C81.3666 58.1353 81.367 58.7878 80.6496 58.9909C79.9783 59.1809 79.5036 58.6628 79.2968 57.9148C79.0901 57.1668 79.1499 56.4972 79.9016 56.2844C80.5567 56.0989 80.9531 56.6393 81.1599 57.3873Z" fill="#FBFBFB" stroke="#2C2C2C" stroke-width="0.332051" stroke-miterlimit="10"/>
<path d="M83.0182 56.8634C83.0254 56.8896 83.0321 56.9137 83.0393 56.9399C83.1314 57.2889 83.1719 57.6156 83.1086 57.8807C82.8647 57.978 82.6882 58.1862 82.6208 58.4286C82.5857 58.4428 82.5501 58.4551 82.5119 58.4659C81.8407 58.656 81.3639 58.1383 81.1572 57.3903C80.9505 56.6423 81.0123 55.9722 81.7639 55.7594C82.395 55.5808 82.7852 56.0752 82.9974 56.7804C83.0046 56.8066 83.0124 56.8347 83.0197 56.8609L83.0182 56.8634Z" fill="#FBFBFB" stroke="#2C2C2C" stroke-width="0.332051" stroke-miterlimit="10"/>
<path d="M80.5268 57.0138C80.6476 56.9796 80.7334 57.0089 80.8084 57.0833C80.8934 57.1678 80.9666 57.3149 81.0207 57.5104C81.0764 57.7119 81.0951 57.8727 81.0693 57.9868C81.0572 58.0398 81.0365 58.0793 81.0071 58.11C80.9772 58.1411 80.9297 58.1725 80.853 58.1942C80.724 58.2306 80.6219 58.2007 80.535 58.1249C80.441 58.0429 80.3596 57.9006 80.3075 57.7123C80.2534 57.5165 80.2421 57.3557 80.2753 57.2403C80.3044 57.1401 80.3708 57.0581 80.5268 57.0138Z" fill="#2C2C2C" stroke="#2C2C2C" stroke-width="0.332051"/>
<path d="M82.3628 56.4137C82.4835 56.3795 82.5693 56.4088 82.6444 56.4832C82.7294 56.5677 82.8026 56.7148 82.8566 56.9103C82.9123 57.1118 82.931 57.2726 82.9052 57.3867C82.8932 57.4397 82.8724 57.4792 82.843 57.5099C82.8131 57.541 82.7657 57.5724 82.689 57.5941C82.5599 57.6305 82.4579 57.6006 82.3709 57.5248C82.2769 57.4428 82.1955 57.3005 82.1434 57.1122C82.0893 56.9164 82.078 56.7556 82.1113 56.6402C82.1403 56.54 82.2068 56.458 82.3628 56.4137Z" fill="#2C2C2C" stroke="#2C2C2C" stroke-width="0.332051"/>
<path d="M81.5807 58.7644C81.6888 58.753 81.7531 58.7913 81.7919 58.8357C81.8317 58.8811 81.8405 58.931 81.8418 58.9575C81.8373 58.9613 81.8319 58.9673 81.8228 58.973C81.7896 58.9942 81.7413 59.0139 81.6888 59.0231C81.5777 59.0425 81.5145 59.0111 81.4868 58.9524C81.4635 58.9028 81.4666 58.8758 81.4694 58.8639C81.4728 58.85 81.4819 58.8343 81.5008 58.8164C81.5203 58.7982 81.5443 58.7824 81.5664 58.7715C81.5716 58.769 81.5765 58.7663 81.5807 58.7644Z" fill="#93D1E0" stroke="#2C2C2C" stroke-width="0.332051"/>
<path d="M82.9103 58.7414C82.9103 58.7414 82.7525 59.9207 81.279 59.6917" stroke="#2C2C2C" stroke-width="0.332051" stroke-miterlimit="10" stroke-linecap="round"/>
<path d="M83.1071 57.8859C83.1341 57.874 83.1636 57.8634 83.1937 57.8549C83.4886 57.7716 83.7919 57.8592 83.9945 58.0598" stroke="#2C2C2C" stroke-width="0.332051" stroke-miterlimit="10" stroke-linecap="round"/>
<path d="M82.6219 58.4321L82.6175 58.4496" stroke="#2C2C2C" stroke-width="0.332051" stroke-miterlimit="10" stroke-linecap="round"/>
</g>
</g>
<g clip-path="url(#clip3_40003001_8763)">
<path d="M2.17989 35.4012L2.19635 35.4276C2.21882 35.4556 2.24073 35.4857 2.26208 35.5177C2.23584 35.4799 2.20814 35.4396 2.17989 35.4012Z" fill="white" stroke="#2C2C2C" stroke-width="0.332051" stroke-miterlimit="10" stroke-linecap="round"/>
<path d="M-9.70831 35.7796C-10.2575 37.7571 -7.68644 38.92 -6.30614 39.5456C-4.52624 40.351 -2.11576 41.1973 0.480112 41.9287C3.07598 42.66 5.57259 43.1962 7.50909 43.4378C9.01132 43.6244 11.8084 43.9738 12.3576 41.9963C12.5802 41.1949 12.2786 40.5454 11.8456 40.05C12.0439 39.4371 12.093 38.7778 11.9676 38.1476C11.7274 36.9269 10.8902 35.9724 9.67567 35.5282C9.55819 35.4842 9.44305 35.4474 9.33079 35.4158C8.76351 35.256 8.13064 35.1689 7.43876 35.1542L7.60802 34.1401C9.66152 33.4702 11.2001 31.9539 11.7454 29.9905C12.039 28.9333 12.0235 27.8064 11.6981 26.729C11.5411 26.2049 11.6731 25.6363 12.0587 25.1739C12.5595 24.5768 12.9172 23.8959 13.1236 23.1528C13.3725 22.2567 13.3862 21.3357 13.1653 20.4114C12.9899 19.6889 13.1353 18.9786 13.5518 18.5141C14.0943 17.907 14.4767 17.207 14.691 16.4358C15.5433 13.3669 13.4119 10.0762 9.93802 9.0975C6.46416 8.1188 2.94281 9.81691 2.09046 12.8858C1.8757 13.659 1.84204 14.4573 1.99363 15.2577C2.10979 15.8745 1.86616 16.5572 1.34488 17.0877C0.691773 17.7505 0.216286 18.5676 -0.0281213 19.4475C-0.235616 20.1946 -0.279161 20.9662 -0.156051 21.7369C-0.0649305 22.3271 -0.247031 22.8816 -0.654391 23.251C-1.48505 24.0006 -2.07889 24.9558 -2.37252 26.013C-2.8261 27.6461 -2.52276 29.41 -1.56723 30.919L-1.96511 31.6667C-2.29931 31.3836 -2.64904 31.1331 -3.02231 30.9129C-3.12417 30.8516 -3.22971 30.7958 -3.33582 30.742C-3.56205 30.6305 -3.78698 30.5454 -4.01149 30.4822C-5.73137 29.9976 -7.50764 30.8912 -8.23313 32.6083C-8.49629 33.229 -8.58725 33.8678 -8.52489 34.4759C-9.07546 34.7073 -9.52095 35.1051 -9.70831 35.7796Z" fill="#FBFBFB" stroke="#9C9C9C" stroke-width="0.332051" stroke-miterlimit="10"/>
<g filter="url(#filter5_g_40003001_8763)">
<path d="M1.67546 37.6265C-0.923758 36.8921 -3.31761 36.3866 -5.08535 36.1629C-5.97052 36.0509 -6.69223 36.011 -7.20098 36.0452C-7.45618 36.0623 -7.6479 36.0975 -7.77717 36.1462C-7.91096 36.1967 -7.94065 36.2467 -7.94663 36.2678C-7.95246 36.2889 -7.95344 36.3477 -7.8645 36.4615C-7.77901 36.5709 -7.63327 36.7014 -7.42385 36.8499C-7.00648 37.1457 -6.3688 37.4889 -5.55455 37.8569C-3.92843 38.592 -1.62238 39.4144 0.976881 40.1487C3.57619 40.883 5.96997 41.3885 7.73769 41.6123C8.62267 41.7242 9.34341 41.7648 9.85212 41.7306C10.1073 41.7135 10.299 41.6783 10.4283 41.6296C10.5628 41.5789 10.5931 41.5284 10.599 41.5073C10.6047 41.4861 10.6043 41.4277 10.5156 41.3143C10.4301 41.2049 10.2844 41.0744 10.075 40.926C9.65763 40.6302 9.02107 40.2863 8.20689 39.9182C6.5808 39.1831 4.27476 38.3608 1.67546 37.6265Z" fill="#2C2C2C" stroke="#2C2C2C" stroke-width="0.332051"/>
<path d="M5.9809 24.4401L2.27588 37.8516C2.0731 38.5856 2.50406 39.3495 3.23827 39.5575L7.85068 40.8639C10.2665 41.5482 11.4833 37.9681 9.12404 37.1025C9.05128 37.0754 8.9754 37.0517 8.89695 37.0295C7.88516 36.7429 6.6157 36.7845 5.45157 36.9708L7.4387 24.8552L5.98035 24.4421L5.9809 24.4401Z" fill="#CBCBC5" stroke="#2C2C2C" stroke-width="0.332051" stroke-miterlimit="10"/>
<path d="M4.25861 37.2581C4.50974 37.1951 5.07146 37.034 6.10156 36.8931L4.25861 37.2581Z" fill="#CBCBC5"/>
<path d="M4.25861 37.2581C4.50974 37.1951 5.07146 37.034 6.10156 36.8931" stroke="#2C2C2C" stroke-width="0.332051" stroke-miterlimit="10" stroke-linecap="round"/>
<path d="M5.16716 25.079L0.132207 37.7268C-0.25285 38.383 -1.09541 38.5996 -1.75306 38.2095L-5.88272 35.7648C-8.04635 34.4841 -6.33012 31.12 -4.07629 32.2312C-4.00578 32.2663 -3.93582 32.3035 -3.86696 32.3447C-2.9613 32.8809 -2.28452 33.5864 -1.6108 34.5621L3.86281 24.3062L5.16917 25.0795L5.16716 25.079Z" fill="#CBCBC5" stroke="#2C2C2C" stroke-width="0.332051" stroke-miterlimit="10"/>
</g>
<g filter="url(#filter6_g_40003001_8763)">
<path d="M-0.769426 26.4649C-1.47301 28.9981 0.39949 31.7425 3.4103 32.5908C6.42111 33.439 9.43566 32.0714 10.1392 29.5382C10.3551 28.7609 10.3296 27.9656 10.1026 27.2111C9.77652 26.1205 10.0521 24.9649 10.78 24.0952C11.1165 23.6928 11.37 23.2235 11.5154 22.7C11.6911 22.0677 11.6908 21.4227 11.5414 20.8009C11.2513 19.5966 11.4843 18.314 12.3085 17.3932C12.6662 16.9924 12.934 16.5185 13.0822 15.9849C13.6885 13.8021 12.0779 11.4376 9.48604 10.7074C6.89418 9.97718 4.29525 11.1557 3.68898 13.3385C3.54021 13.8742 3.525 14.4192 3.62376 14.9508C3.85397 16.1686 3.38984 17.3883 2.52282 18.2688C2.07738 18.7208 1.7469 19.2726 1.5724 19.9009C1.42699 20.4244 1.40199 20.958 1.48238 21.4779C1.65656 22.6017 1.29879 23.7342 0.456195 24.4956C-0.124569 25.0225 -0.558109 25.6885 -0.773994 26.4658L-0.769426 26.4649Z" fill="#EEEDEB"/>
<path d="M-0.769426 26.4649C-1.47301 28.9981 0.39949 31.7425 3.4103 32.5908C6.42111 33.439 9.43566 32.0714 10.1392 29.5382C10.3551 28.7609 10.3296 27.9656 10.1026 27.2111C9.77652 26.1205 10.0521 24.9649 10.78 24.0952C11.1165 23.6928 11.37 23.2235 11.5154 22.7C11.6911 22.0677 11.6908 21.4227 11.5414 20.8009C11.2513 19.5966 11.4843 18.314 12.3085 17.3932C12.6662 16.9924 12.934 16.5185 13.0822 15.9849C13.6885 13.8021 12.0779 11.4376 9.48604 10.7074C6.89418 9.97718 4.29525 11.1557 3.68898 13.3385C3.54021 13.8742 3.525 14.4192 3.62376 14.9508C3.85397 16.1686 3.38984 17.3883 2.52282 18.2688C2.07738 18.7208 1.7469 19.2726 1.5724 19.9009C1.42699 20.4244 1.40199 20.958 1.48238 21.4779C1.65656 22.6017 1.29879 23.7342 0.456195 24.4956C-0.124569 25.0225 -0.558109 25.6885 -0.773994 26.4658L-0.769426 26.4649Z" stroke="#2C2C2C" stroke-width="0.332051" stroke-miterlimit="10"/>
</g>
<g filter="url(#filter7_g_40003001_8763)">
<path d="M8.4671 14.5528C8.26037 15.3008 8.25991 15.9533 8.97738 16.1564C9.64862 16.3465 10.1234 15.8283 10.3301 15.0803C10.5368 14.3323 10.477 13.6628 9.72537 13.4499C9.0702 13.2644 8.67383 13.8048 8.4671 14.5528Z" fill="#FBFBFB" stroke="#2C2C2C" stroke-width="0.332051" stroke-miterlimit="10"/>
<path d="M6.60973 14.029C6.60251 14.0551 6.59584 14.0792 6.58862 14.1054C6.4965 14.4544 6.45603 14.7811 6.51929 15.0462C6.76328 15.1435 6.93976 15.3517 7.00712 15.5941C7.04219 15.6084 7.07781 15.6206 7.11599 15.6314C7.78724 15.8215 8.264 15.3039 8.47073 14.5559C8.67746 13.8079 8.61562 13.1378 7.86399 12.925C7.23294 12.7463 6.84275 13.2407 6.63051 13.946C6.62328 13.9721 6.6155 14.0003 6.60828 14.0264L6.60973 14.029Z" fill="#FBFBFB" stroke="#2C2C2C" stroke-width="0.332051" stroke-miterlimit="10"/>
<path d="M9.10111 14.1794C8.98033 14.1452 8.89454 14.1744 8.8195 14.2488C8.7345 14.3333 8.66128 14.4804 8.60725 14.6759C8.55157 14.8774 8.53284 15.0382 8.55865 15.1524C8.57069 15.2053 8.59143 15.2448 8.62086 15.2755C8.65077 15.3066 8.69821 15.338 8.77489 15.3597C8.90392 15.3961 9.00599 15.3662 9.09292 15.2904C9.18694 15.2084 9.26835 15.0662 9.32043 14.8778C9.37454 14.682 9.38586 14.5213 9.35259 14.4059C9.32357 14.3056 9.25709 14.2237 9.10111 14.1794Z" fill="#2C2C2C" stroke="#2C2C2C" stroke-width="0.332051"/>
<path d="M7.26419 13.5793C7.14342 13.5451 7.05762 13.5743 6.98259 13.6487C6.89759 13.7332 6.82437 13.8803 6.77033 14.0758C6.71465 14.2773 6.69593 14.4381 6.72173 14.5523C6.73377 14.6052 6.75452 14.6447 6.78394 14.6754C6.81385 14.7065 6.86129 14.7379 6.93797 14.7596C7.06701 14.796 7.16908 14.7661 7.25601 14.6903C7.35003 14.6083 7.43143 14.4661 7.48351 14.2777C7.53762 14.0819 7.54894 13.9212 7.51568 13.8058C7.48666 13.7055 7.42018 13.6236 7.26419 13.5793Z" fill="#2C2C2C" stroke="#2C2C2C" stroke-width="0.332051"/>
<path d="M8.04627 15.9295C7.93817 15.918 7.87383 15.9564 7.83505 16.0007C7.7953 16.0462 7.78642 16.0961 7.78511 16.1226C7.78961 16.1263 7.79508 16.1323 7.80411 16.1381C7.83733 16.1593 7.8857 16.179 7.93819 16.1882C8.04921 16.2076 8.11247 16.1762 8.14017 16.1174C8.16347 16.0679 8.16038 16.0408 8.15755 16.0289C8.15415 16.015 8.1451 15.9994 8.12611 15.9815C8.10665 15.9632 8.08265 15.9475 8.06052 15.9366C8.05538 15.934 8.05042 15.9313 8.04627 15.9295Z" fill="#93D1E0" stroke="#2C2C2C" stroke-width="0.332051"/>
<path d="M6.7157 15.9064C6.7157 15.9064 6.87352 17.0857 8.34696 16.8567" stroke="#2C2C2C" stroke-width="0.332051" stroke-miterlimit="10" stroke-linecap="round"/>
<path d="M6.52079 15.0509C6.49382 15.039 6.46429 15.0285 6.43419 15.02C6.1393 14.9366 5.83602 15.0242 5.6334 15.2248" stroke="#2C2C2C" stroke-width="0.332051" stroke-miterlimit="10" stroke-linecap="round"/>
<path d="M7.00605 15.5967L7.01048 15.6142" stroke="#2C2C2C" stroke-width="0.332051" stroke-miterlimit="10" stroke-linecap="round"/>
</g>
</g>
<defs>
<filter id="filter0_g_40003001_8763" x="-4.1172" y="66.4434" width="14.3379" height="14.3379" filterUnits="userSpaceOnUse" color-interpolation-filters="sRGB">
<feFlood flood-opacity="0" result="BackgroundImageFix"/>
<feBlend mode="normal" in="SourceGraphic" in2="BackgroundImageFix" result="shape"/>
<feTurbulence type="fractalNoise" baseFrequency="2.0077221393585205 2.0077221393585205" numOctaves="3" seed="7043" />
<feDisplacementMap in="shape" scale="0.26564103364944458" xChannelSelector="R" yChannelSelector="G" result="displacedImage" width="100%" height="100%" />
<feMerge result="effect1_texture_40003001_8763">
<feMergeNode in="displacedImage"/>
</feMerge>
</filter>
<filter id="filter1_g_40003001_8763" x="70.0781" y="107.39" width="14.2481" height="14.2481" filterUnits="userSpaceOnUse" color-interpolation-filters="sRGB">
<feFlood flood-opacity="0" result="BackgroundImageFix"/>
<feBlend mode="normal" in="SourceGraphic" in2="BackgroundImageFix" result="shape"/>
<feTurbulence type="fractalNoise" baseFrequency="2.0077221393585205 2.0077221393585205" numOctaves="3" seed="7043" />
<feDisplacementMap in="shape" scale="0.26564103364944458" xChannelSelector="R" yChannelSelector="G" result="displacedImage" width="100%" height="100%" />
<feMerge result="effect1_texture_40003001_8763">
<feMergeNode in="displacedImage"/>
</feMerge>
</filter>
<filter id="filter2_g_40003001_8763" x="78.7275" y="66.7773" width="19.1475" height="18.0986" filterUnits="userSpaceOnUse" color-interpolation-filters="sRGB">
<feFlood flood-opacity="0" result="BackgroundImageFix"/>
<feBlend mode="normal" in="SourceGraphic" in2="BackgroundImageFix" result="shape"/>
<feTurbulence type="fractalNoise" baseFrequency="2.0077221393585205 2.0077221393585205" numOctaves="3" seed="7043" />
<feDisplacementMap in="shape" scale="0.26564103364944458" xChannelSelector="R" yChannelSelector="G" result="displacedImage" width="100%" height="100%" />
<feMerge result="effect1_texture_40003001_8763">
<feMergeNode in="displacedImage"/>
</feMerge>
</filter>
<filter id="filter3_g_40003001_8763" x="76.1182" y="53.0278" width="14.7256" height="22.9478" filterUnits="userSpaceOnUse" color-interpolation-filters="sRGB">
<feFlood flood-opacity="0" result="BackgroundImageFix"/>
<feBlend mode="normal" in="SourceGraphic" in2="BackgroundImageFix" result="shape"/>
<feTurbulence type="fractalNoise" baseFrequency="2.0077221393585205 2.0077221393585205" numOctaves="3" seed="7043" />
<feDisplacementMap in="shape" scale="0.26564103364944458" xChannelSelector="R" yChannelSelector="G" result="displacedImage" width="100%" height="100%" />
<feMerge result="effect1_texture_40003001_8763">
<feMergeNode in="displacedImage"/>
</feMerge>
</filter>
<filter id="filter4_g_40003001_8763" x="78.8955" y="55.4238" width="5.39748" height="4.59621" filterUnits="userSpaceOnUse" color-interpolation-filters="sRGB">
<feFlood flood-opacity="0" result="BackgroundImageFix"/>
<feBlend mode="normal" in="SourceGraphic" in2="BackgroundImageFix" result="shape"/>
<feTurbulence type="fractalNoise" baseFrequency="2.0077221393585205 2.0077221393585205" numOctaves="3" seed="7043" />
<feDisplacementMap in="shape" scale="0.26564103364944458" xChannelSelector="R" yChannelSelector="G" result="displacedImage" width="100%" height="100%" />
<feMerge result="effect1_texture_40003001_8763">
<feMergeNode in="displacedImage"/>
</feMerge>
</filter>
<filter id="filter5_g_40003001_8763" x="-8.24805" y="23.9424" width="19.1475" height="18.0991" filterUnits="userSpaceOnUse" color-interpolation-filters="sRGB">
<feFlood flood-opacity="0" result="BackgroundImageFix"/>
<feBlend mode="normal" in="SourceGraphic" in2="BackgroundImageFix" result="shape"/>
<feTurbulence type="fractalNoise" baseFrequency="2.0077221393585205 2.0077221393585205" numOctaves="3" seed="7043" />
<feDisplacementMap in="shape" scale="0.26564103364944458" xChannelSelector="R" yChannelSelector="G" result="displacedImage" width="100%" height="100%" />
<feMerge result="effect1_texture_40003001_8763">
<feMergeNode in="displacedImage"/>
</feMerge>
</filter>
<filter id="filter6_g_40003001_8763" x="-1.2168" y="10.1929" width="14.7256" height="22.9478" filterUnits="userSpaceOnUse" color-interpolation-filters="sRGB">
<feFlood flood-opacity="0" result="BackgroundImageFix"/>
<feBlend mode="normal" in="SourceGraphic" in2="BackgroundImageFix" result="shape"/>
<feTurbulence type="fractalNoise" baseFrequency="2.0077221393585205 2.0077221393585205" numOctaves="3" seed="7043" />
<feDisplacementMap in="shape" scale="0.26564103364944458" xChannelSelector="R" yChannelSelector="G" result="displacedImage" width="100%" height="100%" />
<feMerge result="effect1_texture_40003001_8763">
<feMergeNode in="displacedImage"/>
</feMerge>
</filter>
<filter id="filter7_g_40003001_8763" x="5.33495" y="12.5893" width="5.3965" height="4.59572" filterUnits="userSpaceOnUse" color-interpolation-filters="sRGB">
<feFlood flood-opacity="0" result="BackgroundImageFix"/>
<feBlend mode="normal" in="SourceGraphic" in2="BackgroundImageFix" result="shape"/>
<feTurbulence type="fractalNoise" baseFrequency="2.0077221393585205 2.0077221393585205" numOctaves="3" seed="7043" />
<feDisplacementMap in="shape" scale="0.26564103364944458" xChannelSelector="R" yChannelSelector="G" result="displacedImage" width="100%" height="100%" />
<feMerge result="effect1_texture_40003001_8763">
<feMergeNode in="displacedImage"/>
</feMerge>
</filter>
<clipPath id="clip0_40003001_8763">
<rect width="19.7172" height="19.7172" fill="white" transform="translate(0 63.7534)"/>
</clipPath>
<clipPath id="clip1_40003001_8763">
<rect width="19.591" height="19.591" fill="white" transform="translate(67.4062 117.546) rotate(-90)"/>
</clipPath>
<clipPath id="clip2_40003001_8763">
<rect width="26.5641" height="39.5141" fill="white" transform="translate(64.0859 46.8188)"/>
</clipPath>
<clipPath id="clip3_40003001_8763">
<rect width="26.5641" height="39.5141" fill="white" transform="matrix(-1 0 0 1 26.5645 3.98438)"/>
</clipPath>
</defs>
</svg>
