<svg width="91" height="119" viewBox="0 0 91 119" fill="none" xmlns="http://www.w3.org/2000/svg">
<rect width="91" height="118.3" rx="5" fill="#FFF4C2"/>
<g clip-path="url(#clip0_40003001_15037)">
<g filter="url(#filter0_g_40003001_15037)">
<path d="M-2.9066 31.4298C-5.12355 29.0755 0.486737 26.3892 0.912905 29.6009C0.486737 26.3892 6.60678 27.5438 5.07911 30.3876C6.60678 27.5438 10.898 32.1015 8.00047 33.4889C10.8995 32.1007 11.7234 38.3186 8.56124 37.7204C11.7234 38.3186 8.76588 43.8197 6.54736 41.4662C8.76431 43.8205 3.15402 46.5068 2.72785 43.2951C3.15402 46.5068 -2.96603 45.3522 -1.43835 42.5084C-2.96603 45.3522 -7.25877 40.7953 -4.35971 39.4071C-7.25877 40.7953 -8.08266 34.5774 -4.92048 35.1756C-8.08266 34.5774 -5.12512 29.0763 -2.9066 31.4298Z" fill="#FEE888"/>
</g>
</g>
<g clip-path="url(#clip1_40003001_15037)">
<g filter="url(#filter1_g_40003001_15037)">
<path d="M74.4548 -5.54569C76.965 -7.92442 79.8293 -1.90473 76.4048 -1.44747C79.8293 -1.90473 78.5982 4.6619 75.5661 3.02275C78.5982 4.6619 73.7387 9.26622 72.2594 6.15728C73.7395 9.2679 67.1097 10.1519 67.7475 6.75898C67.1097 10.1519 61.2442 6.97855 63.7536 4.59814C61.2434 6.97687 58.3791 0.957187 61.8036 0.49992C58.3791 0.957187 59.6102 -5.60945 62.6424 -3.9703C59.6102 -5.60945 64.469 -10.2154 65.9491 -7.10483C64.469 -10.2154 71.0987 -11.0995 70.4609 -7.70653C71.0987 -11.0995 76.9642 -7.9261 74.4548 -5.54569Z" fill="#FEE888"/>
</g>
</g>
<g clip-path="url(#clip2_40003001_15037)">
<g filter="url(#filter2_g_40003001_15037)">
<path d="M69.8889 119.026C67.3787 121.405 64.5144 115.385 67.9389 114.928C64.5144 115.385 65.7455 108.819 68.7777 110.458C65.7455 108.819 70.6051 104.214 72.0844 107.323C70.6043 104.213 77.2341 103.329 76.5962 106.721C77.2341 103.329 83.0996 106.502 80.5901 108.882C83.1004 106.504 85.9646 112.523 82.5401 112.981C85.9646 112.523 84.7336 119.09 81.7014 117.451C84.7336 119.09 79.8748 123.696 78.3947 120.585C79.8748 123.696 73.245 124.58 73.8828 121.187C73.245 124.58 67.3795 121.407 69.8889 119.026Z" fill="#FEE888"/>
</g>
</g>
<rect x="5.77539" y="7.01172" width="79.45" height="91.7" rx="0.996154" fill="white"/>
<g clip-path="url(#clip3_40003001_15037)">
<path d="M88.5729 88.6575C91.7202 88.6575 94.6903 88.4705 96.9416 88.1305C98.6877 87.8658 101.939 87.3752 101.939 84.988C101.939 83.7057 101 82.9942 100.001 82.5813C99.9723 81.9135 99.7951 81.2554 99.4696 80.6701C98.8018 79.4655 97.5948 78.7127 96.1547 78.601C96.0284 78.5913 95.89 78.5864 95.7273 78.5864C95.0424 78.5864 94.3042 78.6884 93.5198 78.89L93.4299 78.0473C93.9715 77.5713 94.3843 77.0127 94.6417 76.4007C96.7036 76.2016 99.0568 74.2831 99.4988 71.5C99.5935 70.8953 99.5741 70.3173 99.4502 69.783C99.8072 69.4722 100.12 69.0933 100.375 68.6513C101.366 66.9368 101.366 64.4451 100.375 62.7282C100.12 62.2862 99.8072 61.9049 99.4502 61.5965C99.5741 61.0622 99.5959 60.4842 99.5012 59.8795C99.0592 57.094 96.7084 55.1755 94.6442 54.9739C94.6077 54.8865 94.5665 54.7966 94.5203 54.7116C93.646 52.9971 91.5089 51.7998 89.3184 51.7998C88.3786 51.7998 87.5407 52.0329 86.8559 52.4482C86.1711 52.0329 85.3332 51.7998 84.3934 51.7998C82.2028 51.7998 80.0657 52.9971 79.1915 54.7092C79.1478 54.7966 79.1065 54.884 79.0676 54.9715C77.0034 55.1706 74.6501 57.0916 74.2106 59.8771C74.1159 60.4769 74.1353 61.0549 74.2591 61.5868C73.2222 62.4829 72.5883 63.94 72.5883 65.6837C72.5883 67.4273 73.2246 68.8869 74.2591 69.783C74.1353 70.3173 74.1159 70.8929 74.2106 71.4951C74.5967 73.9334 76.4497 75.7086 78.2905 76.2453C77.0131 76.7359 76.015 77.8749 75.6774 79.3417C75.3763 80.6507 75.6823 81.9378 76.4545 82.914C75.6823 83.3827 75.2038 84.0409 75.2038 84.988C75.2038 87.3752 78.4556 87.8658 80.2017 88.1305C82.4506 88.4705 85.4231 88.6575 88.5704 88.6575H88.5729Z" fill="#FBFBFB" stroke="#9C9C9C" stroke-width="0.332051" stroke-miterlimit="10"/>
<g filter="url(#filter3_g_40003001_15037)">
<path d="M89.4161 86.7649C83.1069 86.7649 77.9923 85.9929 77.9923 85.0407C77.9923 84.0884 83.1069 83.3164 89.4161 83.3164C95.7252 83.3164 100.84 84.0884 100.84 85.0407C100.84 85.9929 95.7252 86.7649 89.4161 86.7649Z" fill="#2C2C2C"/>
<path d="M89.4112 67.4048V83.6006C89.4112 84.487 90.1301 85.2059 91.0165 85.2059H96.5851C99.5017 85.2059 99.7567 80.8102 96.8474 80.5892C96.7575 80.5819 96.6652 80.5795 96.5705 80.5795C95.349 80.5795 93.9404 81.0288 92.6946 81.6068L91.1719 67.4072H89.4112V67.4048Z" fill="#9C9C9C" stroke="#2C2C2C" stroke-width="0.332051" stroke-miterlimit="10"/>
<path d="M90.3076 68.9569L86.8227 84.1036C86.4366 84.9025 85.4773 85.2353 84.6783 84.8491L79.6683 82.423C77.043 81.1505 78.7284 77.0851 81.4435 78.1513C81.5285 78.1853 81.6135 78.2217 81.6961 78.263C82.7938 78.7948 83.6437 79.5452 84.5132 80.6089L88.7218 68.1895L90.3076 68.9569Z" fill="#9C9C9C" stroke="#2C2C2C" stroke-width="0.332051" stroke-miterlimit="10"/>
<path d="M85.5703 82.0366C85.4003 81.7865 85.0336 81.2109 84.2443 80.2881L85.5703 82.0366Z" fill="#9C9C9C"/>
<path d="M85.5703 82.0366C85.4003 81.7865 85.0336 81.2109 84.2443 80.2881" stroke="#2C2C2C" stroke-width="0.332051" stroke-miterlimit="10" stroke-linecap="round"/>
<path d="M84.6973 84.7443C84.6973 84.7443 80.8991 79.1902 79.6168 80.0597L84.6973 84.7443Z" fill="#9C9C9C"/>
<path d="M84.6973 84.7443C84.6973 84.7443 80.8991 79.1902 79.6168 80.0597" stroke="#2C2C2C" stroke-width="0.332051" stroke-miterlimit="10" stroke-linecap="round"/>
<path d="M82.0661 57.98C79.4214 54.342 87.7003 51.6512 87.7003 56.1489C87.7003 51.6512 95.9791 54.342 93.3344 57.98C95.9791 54.342 101.094 61.3823 96.8169 62.7739C101.094 61.3848 101.094 70.0886 96.8169 68.6995C101.094 70.0886 95.9791 77.1313 93.3344 73.4934C95.9791 77.1313 87.7003 79.8221 87.7003 75.3245C87.7003 79.8221 79.4214 77.1313 82.0661 73.4934C79.4214 77.1313 74.307 70.091 78.5836 68.6995C74.307 70.0886 74.307 61.3848 78.5836 62.7739C74.307 61.3848 79.4214 54.342 82.0661 57.98Z" fill="#EEEDEB"/>
<path d="M82.0661 57.98C79.4214 54.342 87.7003 51.6512 87.7003 56.1489C87.7003 51.6512 95.9791 54.342 93.3344 57.98C95.9791 54.342 101.094 61.3823 96.8169 62.7739C101.094 61.3848 101.094 70.0886 96.8169 68.6995C101.094 70.0886 95.9791 77.1313 93.3344 73.4934C95.9791 77.1313 87.7003 79.8221 87.7003 75.3245C87.7003 79.8221 79.4214 77.1313 82.0661 73.4934C79.4214 77.1313 74.307 70.091 78.5836 68.6995C74.307 70.0886 74.307 61.3848 78.5836 62.7739C74.307 61.3848 79.4214 54.342 82.0661 57.98Z" fill="#EEEDEB" stroke="#2C2C2C" stroke-width="0.332051" stroke-miterlimit="10"/>
<path d="M86.8688 64.605L86.893 64.6802C86.9076 64.7264 86.9246 64.7701 86.9392 64.8162C86.9635 64.8842 86.9902 64.9522 87.0169 65.0178C87.0242 65.0397 87.0339 65.0591 87.0412 65.0785C87.4103 65.9698 87.9543 66.5453 88.8941 66.2418C89.9238 65.9066 90.0963 64.8235 89.7223 63.6773C89.6348 63.4126 89.5353 63.1624 89.4114 62.9438C88.9961 63.1406 88.5541 63.3276 88.1 63.5048C87.6775 63.6724 87.2403 63.8303 86.7886 63.976C86.7643 63.9857 86.7352 63.9954 86.7109 64.0027C86.7473 64.197 86.7983 64.3985 86.8663 64.6025L86.8688 64.605Z" fill="#FBFBFB" stroke="#2C2C2C" stroke-width="0.332051" stroke-miterlimit="10"/>
<path d="M84.0114 65.532C84.0235 65.5709 84.0381 65.6098 84.0526 65.6486C84.4242 66.7342 84.9803 67.5137 86.0416 67.1664C87.0713 66.8313 87.2437 65.7482 86.8697 64.6019C86.8017 64.3955 86.7264 64.2036 86.6414 64.0239C86.1897 64.1721 85.7429 64.3008 85.3033 64.4149C84.8249 64.5436 84.3586 64.6505 83.9021 64.7379C83.8778 64.7452 83.8559 64.7525 83.8316 64.7549C83.8584 64.9638 83.9094 65.1823 83.9774 65.4058C83.9895 65.447 84.0016 65.4908 84.0162 65.532H84.0114Z" fill="#FBFBFB" stroke="#2C2C2C" stroke-width="0.332051" stroke-miterlimit="10"/>
<path d="M84.0105 65.5327C84.0226 65.5715 84.0372 65.6104 84.0518 65.6492C84.2582 66.2224 84.5666 66.6231 85.1373 66.4385C85.708 66.2539 85.8027 65.6517 85.5963 65.0178C85.521 64.7847 85.4263 64.5783 85.3025 64.418C84.8241 64.5467 84.3578 64.6535 83.9012 64.741C83.8794 64.9377 83.9085 65.166 83.9741 65.4064C83.9862 65.4477 83.9984 65.4914 84.0129 65.5327H84.0105Z" fill="#2C2C2C"/>
<path d="M87.3542 66.6931C87.3542 66.6931 86.1253 67.4945 86.8126 67.7203C87.4999 67.9486 87.7792 67.6839 87.9249 67.373C87.9977 67.2176 87.9662 66.6979 87.8277 66.6032C87.6893 66.5085 87.3542 66.6931 87.3542 66.6931Z" fill="#FEE888" stroke="#2C2C2C" stroke-width="0.332051" stroke-miterlimit="10"/>
<path d="M86.7165 64.0025C86.7408 63.9952 86.7699 63.9855 86.7942 63.9757C87.2459 63.8276 87.683 63.6722 88.1056 63.5046C88.5597 63.3249 89.0017 63.1403 89.417 62.9436C89.026 62.2175 88.4359 61.8046 87.5495 62.0912C86.7238 62.3583 86.544 63.1088 86.7165 64.0049V64.0025Z" fill="#EEEDEB" stroke="#2C2C2C" stroke-width="0.332051" stroke-miterlimit="10"/>
<path d="M83.8259 64.7578C83.8502 64.7554 83.8745 64.7505 83.8964 64.7432C84.3529 64.6558 84.8192 64.5465 85.2976 64.4202C85.7372 64.3061 86.184 64.175 86.6357 64.0292C86.2423 63.206 85.6328 62.713 84.6856 63.0214C83.9134 63.2715 83.7069 63.9443 83.8211 64.7602L83.8259 64.7578Z" fill="#EEEDEB" stroke="#2C2C2C" stroke-width="0.332051" stroke-miterlimit="10"/>
<path d="M88.1077 63.7568C87.6439 63.8855 87.1363 64.279 87.1193 64.8667C87.1193 64.8958 87.1484 64.9152 87.1752 64.9055C87.367 64.8375 87.7289 64.6627 88.5303 65.0512" stroke="#2C2C2C" stroke-width="0.332051" stroke-miterlimit="10" stroke-linecap="round"/>
<path d="M89.9735 68.1896C90.0003 68.1653 90.0245 68.1434 90.0488 68.1167L89.9735 68.1896Z" fill="#EEEDEB"/>
<path d="M89.9735 68.1896C90.0003 68.1653 90.0245 68.1434 90.0488 68.1167" stroke="#2C2C2C" stroke-width="0.332051" stroke-miterlimit="10" stroke-linecap="round"/>
<path d="M86.7256 69.2455C86.7013 69.2431 86.6794 69.2407 86.66 69.2358L86.6236 69.231" fill="#EEEDEB"/>
<path d="M86.7256 69.2455C86.7013 69.2431 86.6794 69.2407 86.66 69.2358L86.6236 69.231" stroke="#2C2C2C" stroke-width="0.332051" stroke-miterlimit="10" stroke-linecap="round"/>
<path d="M86.7482 69.3328C86.9717 70.0177 87.8824 70.3382 88.7833 70.0468C89.6843 69.7554 90.2332 68.9612 90.0097 68.274C90 68.2473 89.9879 68.2181 89.9757 68.1914C89.1112 69.0244 87.9139 69.413 86.7288 69.2454C86.7337 69.2745 86.7409 69.3061 86.7507 69.3328H86.7482Z" fill="#EEEDEB" stroke="#2C2C2C" stroke-width="0.332051" stroke-miterlimit="10" stroke-linecap="round"/>
</g>
</g>
<defs>
<filter id="filter0_g_40003001_15037" x="-7.0752" y="27.5337" width="17.791" height="17.8286" filterUnits="userSpaceOnUse" color-interpolation-filters="sRGB">
<feFlood flood-opacity="0" result="BackgroundImageFix"/>
<feBlend mode="normal" in="SourceGraphic" in2="BackgroundImageFix" result="shape"/>
<feTurbulence type="fractalNoise" baseFrequency="2.0077221393585205 2.0077221393585205" numOctaves="3" seed="7043" />
<feDisplacementMap in="shape" scale="0.26564103364944458" xChannelSelector="R" yChannelSelector="G" result="displacedImage" width="100%" height="100%" />
<feMerge result="effect1_texture_40003001_15037">
<feMergeNode in="displacedImage"/>
</feMerge>
</filter>
<filter id="filter1_g_40003001_15037" x="59.6084" y="-10.0088" width="18.9922" height="19.0698" filterUnits="userSpaceOnUse" color-interpolation-filters="sRGB">
<feFlood flood-opacity="0" result="BackgroundImageFix"/>
<feBlend mode="normal" in="SourceGraphic" in2="BackgroundImageFix" result="shape"/>
<feTurbulence type="fractalNoise" baseFrequency="2.0077221393585205 2.0077221393585205" numOctaves="3" seed="7043" />
<feDisplacementMap in="shape" scale="0.26564103364944458" xChannelSelector="R" yChannelSelector="G" result="displacedImage" width="100%" height="100%" />
<feMerge result="effect1_texture_40003001_15037">
<feMergeNode in="displacedImage"/>
</feMerge>
</filter>
<filter id="filter2_g_40003001_15037" x="65.7432" y="104.419" width="18.9922" height="19.0698" filterUnits="userSpaceOnUse" color-interpolation-filters="sRGB">
<feFlood flood-opacity="0" result="BackgroundImageFix"/>
<feBlend mode="normal" in="SourceGraphic" in2="BackgroundImageFix" result="shape"/>
<feTurbulence type="fractalNoise" baseFrequency="2.0077221393585205 2.0077221393585205" numOctaves="3" seed="7043" />
<feDisplacementMap in="shape" scale="0.26564103364944458" xChannelSelector="R" yChannelSelector="G" result="displacedImage" width="100%" height="100%" />
<feMerge result="effect1_texture_40003001_15037">
<feMergeNode in="displacedImage"/>
</feMerge>
</filter>
<filter id="filter3_g_40003001_15037" x="75.0771" y="53.4936" width="25.8955" height="33.4043" filterUnits="userSpaceOnUse" color-interpolation-filters="sRGB">
<feFlood flood-opacity="0" result="BackgroundImageFix"/>
<feBlend mode="normal" in="SourceGraphic" in2="BackgroundImageFix" result="shape"/>
<feTurbulence type="fractalNoise" baseFrequency="2.0077221393585205 2.0077221393585205" numOctaves="3" seed="7043" />
<feDisplacementMap in="shape" scale="0.26564103364944458" xChannelSelector="R" yChannelSelector="G" result="displacedImage" width="100%" height="100%" />
<feMerge result="effect1_texture_40003001_15037">
<feMergeNode in="displacedImage"/>
</feMerge>
</filter>
<clipPath id="clip0_40003001_15037">
<rect width="19.259" height="24.5718" fill="white" transform="matrix(-1 0 0 1 19.2588 24.2393)"/>
</clipPath>
<clipPath id="clip1_40003001_15037">
<rect width="18.5949" height="23.5756" fill="white" transform="matrix(-1.19249e-08 -1 -1 1.19249e-08 81.3525 18.5947)"/>
</clipPath>
<clipPath id="clip2_40003001_15037">
<rect width="18.5949" height="23.5756" fill="white" transform="matrix(-4.37114e-08 1 1 4.37114e-08 62.7568 98.9512)"/>
</clipPath>
<clipPath id="clip3_40003001_15037">
<rect width="30.2167" height="46.1551" fill="white" transform="matrix(-1 0 0 1 90.6504 45.4907)"/>
</clipPath>
</defs>
</svg>
