<svg width="91" height="119" viewBox="0 0 91 119" fill="none" xmlns="http://www.w3.org/2000/svg">
<rect width="91" height="118.3" rx="5" fill="#E2F7E7"/>
<rect x="5.77539" y="7.01172" width="79.45" height="91.7" rx="0.996154" fill="white"/>
<g clip-path="url(#clip0_40003001_13267)">
<path d="M20.1834 91.5332L20.1537 91.5599C20.1158 91.5866 20.0779 91.6159 20.04 91.648C20.086 91.6106 20.1347 91.5706 20.1834 91.5332Z" fill="#2C2C2C" stroke="#2C2C2C" stroke-width="0.332051" stroke-miterlimit="10" stroke-linecap="round"/>
<path d="M1.84366 96.6173C-0.889761 95.8944 -3.42644 95.052 -5.30382 94.2437C-6.8634 93.5729 -9.47373 92.4482 -8.92765 90.4031C-8.55378 89.0029 -7.16935 88.5115 -4.07583 88.833C-3.98001 88.2881 -3.74 87.7613 -3.34814 87.317L-2.94749 86.806L-5.24643 86.198C-6.04368 85.9872 -6.72284 85.4356 -7.10956 84.6851C-7.53034 83.8678 -7.57564 82.8958 -7.23119 82.0202C-4.63571 75.412 1.96705 71.6566 8.12778 73.286C14.2885 74.9153 18.147 81.4373 17.1033 88.4582C16.9661 89.3864 16.4419 90.2077 15.6689 90.7094C15.0709 91.0969 14.3636 91.2596 13.6796 91.1744C13.8152 91.6558 13.8573 92.1748 13.7897 92.707C13.7242 93.2399 13.5592 93.7308 13.3157 94.1609C14.0597 94.7742 14.5555 95.5557 14.2916 96.5439C13.7456 98.589 10.9207 98.2762 9.23223 98.0881C7.1993 97.8622 4.57707 97.3402 1.84366 96.6173Z" fill="#FBFBFB" stroke="#9C9C9C" stroke-width="0.332051" stroke-miterlimit="10"/>
<g filter="url(#filter0_g_40003001_13267)">
<path d="M2.28773 94.9507C7.76711 96.3998 12.3856 96.9132 12.6034 96.0975C12.8213 95.2817 8.55595 93.4456 3.07657 91.9964C-2.40281 90.5473 -7.02131 90.0339 -7.23915 90.8497C-7.45698 91.6655 -3.19165 93.5016 2.28773 94.9507Z" fill="#2C2C2C"/>
<path d="M5.67763 78.9626L3.55232 92.8752C3.55326 93.6624 4.19608 94.3 4.99167 94.3002L9.98492 94.3053C12.6009 94.3082 12.8276 90.4086 10.2197 90.2073C10.1379 90.2013 10.0556 90.1974 9.9721 90.1977C8.87698 90.1967 7.89845 90.4671 6.78071 90.9796L7.25506 78.9637L5.67552 78.962L5.67763 78.9626Z" fill="#CBCBC5" stroke="#2C2C2C" stroke-width="0.332051" stroke-miterlimit="10"/>
<path d="M5.3733 91.707C5.60782 91.5725 6.13039 91.2552 7.12772 90.8243L5.3733 91.707Z" fill="#CBCBC5"/>
<path d="M5.3733 91.707C5.60782 91.5725 6.13039 91.2552 7.12772 90.8243" stroke="#2C2C2C" stroke-width="0.332051" stroke-miterlimit="10" stroke-linecap="round"/>
<path d="M5.02214 94.2046C5.02214 94.2046 10.2621 91.2452 10.9587 92.437L5.02214 94.2046Z" fill="#CBCBC5"/>
<path d="M5.02214 94.2046C5.02214 94.2046 10.2621 91.2452 10.9587 92.437" stroke="#2C2C2C" stroke-width="0.332051" stroke-miterlimit="10" stroke-linecap="round"/>
<path d="M6.54685 77.5191L-1.99997 88.427C-2.5358 89.0053 -2.49746 89.9068 -1.90925 90.4387L1.77535 93.782C3.70531 95.5348 6.53636 92.8166 4.74728 90.925C4.69102 90.8656 4.63211 90.8077 4.57053 90.7514C3.76315 90.0191 2.5586 89.465 1.38375 89.0948L7.71385 78.5758L6.54951 77.5175L6.54685 77.5191Z" fill="#CBCBC5" stroke="#2C2C2C" stroke-width="0.332051" stroke-miterlimit="10"/>
<path d="M0.137107 88.7934C0.403529 88.8527 1.00467 88.9691 2.03813 89.3184L0.137107 88.7934Z" fill="#CBCBC5"/>
<path d="M0.137107 88.7934C0.403529 88.8527 1.00467 88.9691 2.03813 89.3184" stroke="#2C2C2C" stroke-width="0.332051" stroke-miterlimit="10" stroke-linecap="round"/>
<path d="M13.875 89.3618L-4.6663 84.4582C-5.40238 84.2635 -5.78474 83.3783 -5.47028 82.5728C-3.21768 76.8428 2.44083 73.4524 7.81908 74.8748C13.1973 76.2972 16.4182 82.0359 15.5128 88.1244C15.386 88.9796 14.6105 89.5585 13.8744 89.3638L13.875 89.3618Z" fill="#EEEDEB" stroke="#2C2C2C" stroke-width="0.332051" stroke-miterlimit="10"/>
<path d="M6.17384 80.5995C5.89706 81.6324 5.43903 82.4079 4.43681 82.1438C3.49777 81.8963 3.29047 80.9454 3.56725 79.9125C3.84403 78.8796 4.38629 78.1263 5.43903 78.4037C6.35492 78.6451 6.45062 79.5666 6.17384 80.5995Z" fill="#FBFBFB" stroke="#2C2C2C" stroke-width="0.332051" stroke-miterlimit="10"/>
<path d="M8.78322 81.2894C8.50644 82.3223 8.0484 83.0979 7.04619 82.8338C6.10714 82.5863 5.89985 81.6354 6.17663 80.6025C6.45341 79.5696 6.99566 78.8162 8.04841 79.0936C8.96429 79.335 9.06 80.2565 8.78322 81.2894Z" fill="#FBFBFB" stroke="#2C2C2C" stroke-width="0.332051" stroke-miterlimit="10"/>
<path d="M6.15963 80.654C6.00617 81.2267 5.7533 81.6573 5.19745 81.5108C4.6774 81.3737 4.56181 80.8461 4.71527 80.2734C4.86872 79.7007 5.17002 79.2829 5.75324 79.4366C6.26066 79.5704 6.31309 80.0814 6.15963 80.654Z" fill="#2C2C2C"/>
<path d="M8.76998 81.344C8.61652 81.9167 8.36365 82.3472 7.8078 82.2007C7.28775 82.0637 7.17216 81.536 7.32562 80.9633C7.47908 80.3907 7.78038 79.9729 8.3636 80.1266C8.87102 80.2603 8.92344 80.7713 8.76998 81.344Z" fill="#2C2C2C"/>
<path d="M5.68188 82.5634C5.69285 82.5712 5.70334 82.5815 5.71152 82.5925C5.72787 82.6145 5.72808 82.6284 5.72622 82.6357C5.72454 82.642 5.71893 82.6545 5.70573 82.6707C5.69279 82.6866 5.67479 82.7025 5.65521 82.716C5.63607 82.729 5.61837 82.7364 5.60621 82.7404C5.58423 82.7327 5.56215 82.7216 5.54938 82.7072C5.54335 82.7004 5.53865 82.6935 5.53648 82.6836C5.53421 82.6733 5.53274 82.6523 5.54232 82.6165C5.54914 82.5911 5.55904 82.5806 5.56552 82.5751C5.57369 82.5682 5.58636 82.5616 5.6047 82.5572C5.62293 82.5529 5.64201 82.5517 5.65765 82.552C5.65888 82.552 5.66054 82.552 5.66168 82.552C5.66454 82.553 5.67183 82.5563 5.68188 82.5634Z" fill="#A7E1B6" stroke="#2C2C2C" stroke-width="0.332051"/>
<path d="M3.71587 77.637C3.71587 77.637 4.3462 76.7238 5.34065 77.3342" stroke="#2C2C2C" stroke-width="0.332051" stroke-miterlimit="10" stroke-linecap="round"/>
<path d="M6.08074 83.7696C6.08074 83.7696 4.98084 83.9746 4.71387 82.8467" stroke="#2C2C2C" stroke-width="0.332051" stroke-miterlimit="10" stroke-linecap="round"/>
</g>
</g>
<g clip-path="url(#clip1_40003001_13267)">
<path d="M92.1886 33.1959C94.922 32.473 97.4587 31.6307 99.336 30.8223C100.896 30.1515 103.506 29.0268 102.96 26.9817C102.586 25.5816 101.202 25.0902 98.1081 25.4116C98.0122 24.8667 97.7722 24.34 97.3804 23.8957L96.9797 23.3846L99.2787 22.7766C100.076 22.5658 100.755 22.0142 101.142 21.2638C101.563 20.4464 101.608 19.4744 101.263 18.5988C98.6679 11.9906 92.0652 8.23523 85.9044 9.86456C79.7437 11.4939 75.8852 18.016 76.929 25.0368C77.0662 25.965 77.5903 26.7863 78.3633 27.288C78.9613 27.6755 79.6686 27.8382 80.3526 27.753C80.217 28.2344 80.1749 28.7534 80.2425 29.2856C80.308 29.8185 80.473 30.3094 80.7165 30.7395C79.9725 31.3528 79.4767 32.1343 79.7406 33.1225C80.2867 35.1676 83.1115 34.8548 84.8 34.6667C86.8329 34.4409 89.4552 33.9189 92.1886 33.1959Z" fill="#FBFBFB" stroke="#9C9C9C" stroke-width="0.332051" stroke-miterlimit="10"/>
<g filter="url(#filter1_g_40003001_13267)">
<path d="M91.7445 31.5288C86.2651 32.9779 81.6466 33.4914 81.4288 32.6756C81.211 31.8598 85.4763 30.0237 90.9557 28.5746C96.435 27.1254 101.054 26.612 101.271 27.4278C101.489 28.2436 97.2239 30.0797 91.7445 31.5288Z" fill="#2C2C2C"/>
<path d="M88.3575 15.5412L90.4828 29.4539C90.4819 30.2411 89.8391 30.8786 89.0435 30.8788L84.0502 30.8839C81.4342 30.8868 81.2075 26.9872 83.8154 26.7859C83.8972 26.7799 83.9796 26.7761 84.0631 26.7764C85.1582 26.7753 86.1367 27.0458 87.2545 27.5582L86.7801 15.5423L88.3596 15.5406L88.3575 15.5412Z" fill="#CBCBC5" stroke="#2C2C2C" stroke-width="0.332051" stroke-miterlimit="10"/>
<path d="M88.6609 28.2856C88.4264 28.1511 87.9038 27.8338 86.9065 27.4029L88.6609 28.2856Z" fill="#CBCBC5"/>
<path d="M88.6609 28.2856C88.4264 28.1511 87.9038 27.8338 86.9065 27.4029" stroke="#2C2C2C" stroke-width="0.332051" stroke-miterlimit="10" stroke-linecap="round"/>
<path d="M89.012 30.7837C89.012 30.7837 83.772 27.8243 83.0755 29.0161L89.012 30.7837Z" fill="#CBCBC5"/>
<path d="M89.012 30.7837C89.012 30.7837 83.772 27.8243 83.0755 29.0161" stroke="#2C2C2C" stroke-width="0.332051" stroke-miterlimit="10" stroke-linecap="round"/>
<path d="M87.4854 14.0972L96.0322 25.0051C96.568 25.5835 96.5297 26.485 95.9415 27.0168L92.2569 30.3601C90.3269 32.1129 87.4959 29.3948 89.285 27.5031C89.3412 27.4437 89.4001 27.3858 89.4617 27.3295C90.2691 26.5972 91.4736 26.0431 92.6485 25.6729L86.3184 15.1539L87.4827 14.0957L87.4854 14.0972Z" fill="#CBCBC5" stroke="#2C2C2C" stroke-width="0.332051" stroke-miterlimit="10"/>
<path d="M80.1582 25.9399L98.6995 21.0363C99.4356 20.8416 99.8179 19.9564 99.5035 19.1509C97.2509 13.4209 91.5924 10.0305 86.2141 11.4529C80.8359 12.8753 77.615 18.614 78.5204 24.7025C78.6472 25.5577 79.4227 26.1366 80.1588 25.942L80.1582 25.9399Z" fill="#EEEDEB" stroke="#2C2C2C" stroke-width="0.332051" stroke-miterlimit="10"/>
<path d="M87.8584 17.1776C88.1352 18.2105 88.5932 18.9861 89.5954 18.7219C90.5345 18.4745 90.7418 17.5236 90.465 16.4907C90.1882 15.4578 89.6459 14.7044 88.5932 14.9818C87.6773 15.2232 87.5816 16.1447 87.8584 17.1776Z" fill="#FBFBFB" stroke="#2C2C2C" stroke-width="0.332051" stroke-miterlimit="10"/>
<path d="M85.25 17.8675C85.5268 18.9004 85.9848 19.676 86.987 19.4119C87.9261 19.1644 88.1334 18.2135 87.8566 17.1806C87.5798 16.1477 87.0375 15.3943 85.9848 15.6718C85.0689 15.9131 84.9732 16.8346 85.25 17.8675Z" fill="#FBFBFB" stroke="#2C2C2C" stroke-width="0.332051" stroke-miterlimit="10"/>
<path d="M87.8726 17.2322C88.0261 17.8048 88.2789 18.2354 88.8348 18.0889C89.3548 17.9518 89.4704 17.4242 89.317 16.8515C89.1635 16.2788 88.8622 15.8611 88.279 16.0148C87.7716 16.1485 87.7191 16.6595 87.8726 17.2322Z" fill="#2C2C2C"/>
<path d="M85.2632 17.9226C85.4167 18.4953 85.6696 18.9258 86.2254 18.7793C86.7455 18.6423 86.861 18.1146 86.7076 17.542C86.5541 16.9693 86.2528 16.5515 85.6696 16.7052C85.1622 16.8389 85.1098 17.3499 85.2632 17.9226Z" fill="#2C2C2C"/>
<path d="M88.3503 19.142C88.3394 19.1498 88.3289 19.1601 88.3207 19.1711C88.3044 19.1931 88.3041 19.207 88.306 19.2143C88.3077 19.2206 88.3133 19.2331 88.3265 19.2493C88.3394 19.2652 88.3574 19.2811 88.377 19.2946C88.3962 19.3077 88.4139 19.315 88.426 19.319C88.448 19.3113 88.4701 19.3002 88.4829 19.2858C88.4889 19.279 88.4936 19.2721 88.4957 19.2622C88.498 19.2519 88.4995 19.2309 88.4899 19.1951C88.4831 19.1697 88.4732 19.1593 88.4667 19.1538C88.4585 19.1469 88.4459 19.1402 88.4275 19.1358C88.4093 19.1315 88.3902 19.1303 88.3746 19.1306C88.3733 19.1306 88.3717 19.1306 88.3705 19.1306C88.3677 19.1316 88.3604 19.1349 88.3503 19.142Z" fill="#A7E1B6" stroke="#2C2C2C" stroke-width="0.332051"/>
<path d="M90.3173 14.2157C90.3173 14.2157 89.687 13.3024 88.6926 13.9128" stroke="#2C2C2C" stroke-width="0.332051" stroke-miterlimit="10" stroke-linecap="round"/>
<path d="M87.9515 20.3482C87.9515 20.3482 89.0514 20.5532 89.3184 19.4253" stroke="#2C2C2C" stroke-width="0.332051" stroke-miterlimit="10" stroke-linecap="round"/>
</g>
</g>
<g clip-path="url(#clip2_40003001_13267)">
<path d="M30.4597 -3.46842C33.5776 -3.87021 35.633 -0.310613 33.727 2.18973C35.633 4.69008 33.5776 8.24967 30.4597 7.84788C29.2477 10.75 25.1369 10.75 23.9249 7.84788C20.8069 8.24967 18.7515 4.69008 20.6575 2.18973C18.7515 -0.310613 20.8069 -3.87021 23.9249 -3.46842C25.1369 -6.37055 29.2477 -6.37055 30.4597 -3.46842Z" fill="#A7E1B6"/>
</g>
<defs>
<filter id="filter0_g_40003001_13267" x="-7.37989" y="74.2519" width="23.3428" height="22.3662" filterUnits="userSpaceOnUse" color-interpolation-filters="sRGB">
<feFlood flood-opacity="0" result="BackgroundImageFix"/>
<feBlend mode="normal" in="SourceGraphic" in2="BackgroundImageFix" result="shape"/>
<feTurbulence type="fractalNoise" baseFrequency="2.0077221393585205 2.0077221393585205" numOctaves="3" seed="7043" />
<feDisplacementMap in="shape" scale="0.26564103364944458" xChannelSelector="R" yChannelSelector="G" result="displacedImage" width="100%" height="100%" />
<feMerge result="effect1_texture_40003001_13267">
<feMergeNode in="displacedImage"/>
</feMerge>
</filter>
<filter id="filter1_g_40003001_13267" x="78.0703" y="10.8301" width="23.3418" height="22.3662" filterUnits="userSpaceOnUse" color-interpolation-filters="sRGB">
<feFlood flood-opacity="0" result="BackgroundImageFix"/>
<feBlend mode="normal" in="SourceGraphic" in2="BackgroundImageFix" result="shape"/>
<feTurbulence type="fractalNoise" baseFrequency="2.0077221393585205 2.0077221393585205" numOctaves="3" seed="7043" />
<feDisplacementMap in="shape" scale="0.26564103364944458" xChannelSelector="R" yChannelSelector="G" result="displacedImage" width="100%" height="100%" />
<feMerge result="effect1_texture_40003001_13267">
<feMergeNode in="displacedImage"/>
</feMerge>
</filter>
<clipPath id="clip0_40003001_13267">
<rect width="31.5449" height="30.2167" fill="white" transform="translate(0 70.0625)"/>
</clipPath>
<clipPath id="clip1_40003001_13267">
<rect width="31.5449" height="30.2167" fill="white" transform="matrix(-1 0 0 1 90.6504 5.64453)"/>
</clipPath>
<clipPath id="clip2_40003001_13267">
<rect width="20.2551" height="13.6141" fill="white" transform="translate(16.9346)"/>
</clipPath>
</defs>
</svg>
