<svg width="140" height="136" viewBox="0 0 140 136" fill="none" xmlns="http://www.w3.org/2000/svg">
<g filter="url(#filter0_g_40001696_16049)">
<path d="M69.6655 135.042C105.67 135.042 134.858 130.62 134.858 125.165C134.858 119.709 105.67 115.287 69.6655 115.287C33.6608 115.287 4.47314 119.709 4.47314 125.165C4.47314 130.62 33.6608 135.042 69.6655 135.042Z" fill="#2C2C2C"/>
<path d="M65.369 24.1494V116.929C65.369 122.007 61.2667 126.125 56.2082 126.125H24.4297C7.78515 126.125 6.32997 100.944 22.933 99.678C23.4457 99.6362 23.9724 99.6223 24.5129 99.6223C31.4839 99.6223 39.5221 102.196 46.6317 105.507L55.3213 24.1633H65.369V24.1494Z" fill="#CBCBC5" stroke="#2C2C2C" stroke-miterlimit="10"/>
<path d="M53.7556 109.444C52.2588 108.582 48.9465 106.523 42.5991 103.74L53.7556 109.444Z" fill="#CBCBC5"/>
<path d="M53.7555 109.444C52.2588 108.582 48.9465 106.523 42.5991 103.74" stroke="#2C2C2C" stroke-miterlimit="10" stroke-linecap="round"/>
<path d="M69.6662 29.6169L79.5199 119.934C80.8226 124.845 85.8257 127.767 90.7179 126.459L121.429 118.278C137.519 113.994 132.489 89.2858 116.121 92.3186C115.609 92.416 115.096 92.5273 114.583 92.6664C107.848 94.461 102.276 97.7582 96.2476 102.794L79.3674 27.0293L69.6523 29.6169H69.6662Z" fill="#CBCBC5" stroke="#2C2C2C" stroke-miterlimit="10"/>
<path d="M88.7915 109.68C90.0111 108.456 92.6997 105.618 98.1186 101.292L88.7915 109.68Z" fill="#CBCBC5"/>
<path d="M88.7915 109.68C90.0111 108.456 92.6997 105.618 98.1186 101.292" stroke="#2C2C2C" stroke-miterlimit="10" stroke-linecap="round"/>
<path d="M90.731 125.847C90.731 125.847 118.047 98.7603 124.283 105.049" stroke="#2C2C2C" stroke-miterlimit="10" stroke-linecap="round"/>
<path d="M130.923 81.4952H9.08876C4.25199 81.4952 0.45465 76.5981 1.06444 71.0472C5.48544 31.5231 34.6723 1 69.9987 1C105.325 1 134.512 31.5231 138.933 71.0472C139.557 76.5981 135.745 81.4952 130.909 81.4952H130.923Z" fill="#EEEDEB" stroke="#2C2C2C" stroke-miterlimit="10"/>
<path d="M98.1183 101.292L97.9659 101.431C97.7718 101.57 97.5778 101.723 97.3838 101.89C97.6194 101.695 97.8688 101.5 98.1183 101.292Z" fill="white" stroke="#2C2C2C" stroke-miterlimit="10" stroke-linecap="round"/>
<path d="M87.1422 38.7987C87.1422 45.6991 85.6039 51.2917 79.007 51.2917C72.8259 51.2917 69.9849 45.6991 69.9849 38.7987C69.9849 31.8983 72.0776 26.3057 79.007 26.3057C85.0357 26.3057 87.1422 31.8983 87.1422 38.7987Z" fill="#FBFBFB" stroke="#2C2C2C" stroke-miterlimit="10"/>
<path d="M69.9987 38.7987C69.9987 45.6991 68.4603 51.2917 61.8635 51.2917C55.6824 51.2917 52.8413 45.6991 52.8413 38.7987C52.8413 31.8983 54.934 26.3057 61.8635 26.3057C67.8921 26.3057 69.9987 31.8983 69.9987 38.7987Z" fill="#FBFBFB" stroke="#2C2C2C" stroke-miterlimit="10"/>
<path d="M69.9984 39.1465C69.9984 42.9723 69.153 46.0747 65.4943 46.0747C62.0711 46.0747 60.4912 42.9723 60.4912 39.1465C60.4912 35.3206 61.6554 32.2183 65.4943 32.2183C68.8343 32.2183 69.9984 35.3206 69.9984 39.1465Z" fill="#2C2C2C"/>
<path d="M87.142 39.1465C87.142 42.9723 86.2966 46.0747 82.6378 46.0747C79.2147 46.0747 77.6348 42.9723 77.6348 39.1465C77.6348 35.3206 78.7989 32.2183 82.6378 32.2183C85.9778 32.2183 87.142 35.3206 87.142 39.1465Z" fill="#2C2C2C"/>
<path d="M70.0405 51.2627C70.2298 51.2627 70.52 51.3563 70.7622 51.5518C70.9959 51.7405 71.1343 51.9813 71.1343 52.252C71.1341 52.5497 70.9675 52.9225 70.6987 53.2402C70.5692 53.3933 70.4316 53.514 70.3101 53.5928C70.2498 53.6319 70.1991 53.6566 70.1606 53.6709C70.1213 53.6855 70.1053 53.6856 70.1099 53.6855C69.8827 53.6855 69.5597 53.6369 69.3081 53.4678C69.09 53.3211 68.8638 53.0448 68.8638 52.4326C68.8638 51.8982 69.136 51.6226 69.4419 51.4551C69.6023 51.3672 69.7684 51.3135 69.897 51.2822C69.9346 51.2731 69.9684 51.268 69.9966 51.2627H70.0405Z" fill="#A7E1B6" stroke="#2C2C2C"/>
<path d="M50.042 24.33C50.042 24.33 52.4119 17.5966 59.5215 19.7669" stroke="#2C2C2C" stroke-miterlimit="10" stroke-linecap="round"/>
<path d="M74.6137 58.7348C74.6137 58.7348 68.197 61.8233 64.7046 55.229" stroke="#2C2C2C" stroke-miterlimit="10" stroke-linecap="round"/>
</g>
<defs>
<filter id="filter0_g_40001696_16049" x="0.100488" y="0.1" width="139.799" height="135.342" filterUnits="userSpaceOnUse" color-interpolation-filters="sRGB">
<feFlood flood-opacity="0" result="BackgroundImageFix"/>
<feBlend mode="normal" in="SourceGraphic" in2="BackgroundImageFix" result="shape"/>
<feTurbulence type="fractalNoise" baseFrequency="0.66666668653488159 0.66666668653488159" numOctaves="3" seed="7043" />
<feDisplacementMap in="shape" scale="0.80000001192092896" xChannelSelector="R" yChannelSelector="G" result="displacedImage" width="100%" height="100%" />
<feMerge result="effect1_texture_40001696_16049">
<feMergeNode in="displacedImage"/>
</feMerge>
</filter>
</defs>
</svg>
