<svg width="296" height="93" viewBox="0 0 296 93" fill="none" xmlns="http://www.w3.org/2000/svg">
<mask id="path-1-inside-1_40001696_15766" fill="white">
<path d="M281 0C289.284 2.31933e-06 296 6.71573 296 15V67C296 75.2843 289.284 82 281 82H155.61L148 93L140.389 82H15C6.71573 82 1.9329e-07 75.2843 0 67V15C1.9329e-07 6.71573 6.71573 0 15 0H281Z"/>
</mask>
<path d="M281 0C289.284 2.31933e-06 296 6.71573 296 15V67C296 75.2843 289.284 82 281 82H155.61L148 93L140.389 82H15C6.71573 82 1.9329e-07 75.2843 0 67V15C1.9329e-07 6.71573 6.71573 0 15 0H281Z" fill="#FBF9F3"/>
<path d="M281 0V-1V0ZM296 15H297H296ZM296 67H297H296ZM155.61 82V81H155.086L154.788 81.431L155.61 82ZM148 93L147.178 93.569L148 94.7575L148.822 93.569L148 93ZM140.389 82L141.211 81.431L140.913 81H140.389V82ZM15 82V83V82ZM0 67H-1H0ZM0 15H-1H0ZM281 0V1C288.732 1 295 7.26802 295 15H296H297C297 6.16345 289.837 -0.999997 281 -1V0ZM296 15H295V67H296H297V15H296ZM296 67H295C295 74.732 288.732 81 281 81V82V83C289.837 83 297 75.8366 297 67H296ZM281 82V81H155.61V82V83H281V82ZM155.61 82L154.788 81.431L147.178 92.431L148 93L148.822 93.569L156.433 82.569L155.61 82ZM148 93L148.822 92.431L141.211 81.431L140.389 82L139.566 82.569L147.178 93.569L148 93ZM140.389 82V81H15V82V83H140.389V82ZM15 82V81C7.26802 81 1 74.732 1 67H0H-1C-1 75.8366 6.16345 83 15 83V82ZM0 67H1V15H0H-1V67H0ZM0 15H1C1 7.26801 7.26801 1 15 1V0V-1C6.16344 -1 -1 6.16344 -1 15H0ZM15 0V1H281V0V-1H15V0Z" fill="#CBCBC5" mask="url(#path-1-inside-1_40001696_15766)"/>
<path d="M65.7214 24.528C66.4094 24.528 66.6814 24.688 67.1134 25.744L69.9614 32.176L72.7294 25.76C73.1294 24.736 73.4334 24.528 74.1374 24.528H74.3774C75.1614 24.528 75.4334 24.816 75.4334 25.664V35.376C75.4334 35.824 75.0814 36.016 74.6814 36.016C74.2814 36.016 73.9134 35.824 73.9134 35.376V26.096C73.6894 26.864 73.5134 27.344 73.2894 27.872L70.8254 33.44C70.6174 33.952 70.3774 34.096 69.9614 34.096C69.4654 34.096 69.2254 33.936 69.0174 33.408L66.5854 27.872C66.3614 27.36 66.1694 26.864 65.9294 26.096V35.376C65.9294 35.824 65.5614 36.016 65.1614 36.016C64.7774 36.016 64.4094 35.824 64.4094 35.376V25.664C64.4094 24.816 64.6974 24.528 65.4814 24.528H65.7214ZM82.0963 24.384C85.1683 24.384 86.8483 26.144 86.8483 29.872V30.624C86.8483 34.352 85.1683 36.112 82.0963 36.112C79.0243 36.112 77.3443 34.352 77.3443 30.624V29.872C77.3443 26.144 79.0243 24.384 82.0963 24.384ZM82.0963 25.84C79.9843 25.84 78.9603 27.04 78.9603 30V30.496C78.9603 33.456 79.9843 34.64 82.0963 34.64C84.2083 34.64 85.2323 33.456 85.2323 30.496V30C85.2323 27.04 84.2083 25.84 82.0963 25.84ZM92.5769 24.56C95.8249 24.56 97.4889 26.192 97.4889 29.792V30.704C97.4889 34.304 95.7449 35.936 92.5769 35.936H89.9689C89.0409 35.936 88.7369 35.648 88.7369 34.752V25.744C88.7369 24.848 89.0409 24.56 89.9689 24.56H92.5769ZM90.3369 34.56H92.3689C94.7689 34.56 95.8729 33.392 95.8729 30.592V29.936C95.8729 27.104 94.8649 25.936 92.3689 25.936H90.3369V34.56ZM100.169 24.48C100.601 24.48 100.985 24.688 100.985 25.152V35.344C100.985 35.808 100.601 36.016 100.169 36.016C99.7534 36.016 99.3694 35.808 99.3694 35.344V25.152C99.3694 24.688 99.7534 24.48 100.169 24.48ZM111.41 23.712C111.778 23.712 112.146 23.904 112.146 24.336V36.08C112.146 36.512 111.778 36.704 111.41 36.704C111.026 36.704 110.658 36.512 110.658 36.08V29.824H109.042C108.898 32.432 107.858 33.808 105.826 33.808C103.618 33.808 102.61 32.192 102.61 29.152C102.61 26.112 103.618 24.496 105.826 24.496C107.858 24.496 108.882 25.872 109.042 28.464H110.658V24.336C110.658 23.904 111.026 23.712 111.41 23.712ZM114.274 23.552C114.658 23.552 115.026 23.744 115.026 24.176V36.752C115.026 37.184 114.658 37.376 114.274 37.376C113.906 37.376 113.538 37.184 113.538 36.752V24.176C113.538 23.744 113.906 23.552 114.274 23.552ZM105.826 25.904C104.562 25.904 104.082 27.024 104.082 29.152C104.082 31.28 104.562 32.4 105.826 32.4C107.106 32.4 107.586 31.28 107.586 29.152C107.586 27.024 107.106 25.904 105.826 25.904ZM126.921 24.112C130.009 24.112 131.849 25.568 131.849 28.016C131.849 30.256 130.313 31.664 127.721 31.888V34.624H133.081C133.465 34.624 133.641 34.928 133.641 35.296C133.641 35.664 133.465 35.984 133.081 35.984H120.761C120.377 35.984 120.201 35.664 120.201 35.296C120.201 34.928 120.377 34.624 120.761 34.624H126.121V31.888C123.513 31.664 122.009 30.256 122.009 28.016C122.009 25.568 123.833 24.112 126.921 24.112ZM126.921 25.472C124.633 25.472 123.609 26.576 123.609 28.016C123.609 29.456 124.633 30.56 126.921 30.56C129.209 30.56 130.233 29.456 130.233 28.016C130.233 26.576 129.209 25.472 126.921 25.472ZM139.037 24.16C139.469 24.16 139.853 24.368 139.853 24.832V26.432C139.853 27.488 140.173 28.24 140.941 28.912C141.677 29.552 142.317 30.064 142.877 30.48C143.245 30.768 143.197 31.184 142.973 31.472C142.765 31.76 142.349 31.936 141.997 31.664C141.485 31.296 140.861 30.784 140.189 30.208C139.421 29.536 139.149 29.184 139.069 28.832H139.053C138.973 29.2 138.717 29.584 137.901 30.288C137.213 30.88 136.541 31.424 135.853 31.92C135.485 32.192 135.069 32.016 134.861 31.728C134.637 31.44 134.573 30.992 134.957 30.704C135.709 30.16 136.397 29.616 137.133 28.96C137.901 28.288 138.221 27.536 138.221 26.496V24.832C138.221 24.368 138.621 24.16 139.037 24.16ZM145.597 23.552C146.013 23.552 146.397 23.76 146.397 24.224V33.696C146.397 34.16 146.013 34.368 145.597 34.368C145.181 34.368 144.797 34.16 144.797 33.696V24.224C144.797 23.76 145.181 23.552 145.597 23.552ZM137.869 33.024C138.269 33.024 138.669 33.232 138.669 33.696V36.4C138.669 36.64 138.749 36.72 139.005 36.72H146.205C146.605 36.72 146.781 37.04 146.781 37.424C146.781 37.792 146.605 38.112 146.205 38.112H138.285C137.357 38.112 137.053 37.824 137.053 36.912V33.696C137.053 33.232 137.437 33.024 137.869 33.024ZM151.746 31.792H159.394C160.322 31.792 160.626 32.08 160.626 32.992V34.464C160.626 35.376 160.322 35.664 159.394 35.664H153.138C152.898 35.664 152.802 35.744 152.802 36V36.688C152.802 36.928 152.898 37.024 153.138 37.024H160.45C160.818 37.024 160.978 37.328 160.978 37.664C160.978 38 160.818 38.304 160.45 38.304H152.482C151.554 38.304 151.25 38.016 151.25 37.104V35.632C151.25 34.72 151.554 34.432 152.482 34.432H158.722C158.978 34.432 159.058 34.352 159.058 34.096V33.408C159.058 33.168 158.978 33.088 158.722 33.088H151.746C151.378 33.088 151.218 32.784 151.218 32.432C151.218 32.096 151.378 31.792 151.746 31.792ZM159.842 23.552C160.242 23.552 160.626 23.76 160.626 24.224V30.432C160.626 30.896 160.242 31.104 159.842 31.104C159.426 31.104 159.042 30.896 159.042 30.432V27.936H155.522C155.01 28.992 153.618 29.696 150.082 31.28C149.714 31.44 149.33 31.232 149.154 30.88C149.01 30.576 149.026 30.112 149.442 29.92C153.922 27.968 154.194 27.696 154.194 26.368V25.904C154.194 25.664 154.114 25.584 153.858 25.584H149.778C149.394 25.584 149.218 25.264 149.218 24.896C149.218 24.528 149.394 24.208 149.778 24.208H154.562C155.49 24.208 155.794 24.496 155.794 25.408V26.416V26.592H159.042V24.224C159.042 23.76 159.426 23.552 159.842 23.552ZM170.84 26.848C172.952 26.848 174.2 27.648 174.2 28.992C174.2 30.16 173.256 30.928 171.624 31.104V32.352C172.68 32.304 173.752 32.24 174.84 32.144C175.208 32.112 175.4 32.352 175.432 32.704C175.464 33.056 175.304 33.376 174.952 33.408C172.504 33.616 169.656 33.696 166.696 33.696C166.312 33.696 166.136 33.408 166.136 33.056C166.136 32.704 166.312 32.416 166.696 32.416C167.816 32.416 168.936 32.416 170.072 32.4V31.104C168.424 30.928 167.48 30.176 167.48 28.992C167.48 27.648 168.728 26.848 170.84 26.848ZM177.016 23.552C177.432 23.552 177.816 23.76 177.816 24.208V28.32H179.368C179.784 28.32 179.96 28.624 179.96 29.008C179.96 29.392 179.784 29.712 179.368 29.712H177.816V34.192C177.816 34.64 177.432 34.848 177.016 34.848C176.616 34.848 176.232 34.64 176.232 34.192V24.208C176.232 23.76 176.616 23.552 177.016 23.552ZM169.08 34.4C169.48 34.4 169.88 34.608 169.88 35.072V36.496C169.88 36.752 169.96 36.832 170.216 36.832H177.672C178.04 36.832 178.2 37.136 178.2 37.488C178.2 37.84 178.04 38.144 177.672 38.144H169.528C168.6 38.144 168.296 37.856 168.296 36.944V35.072C168.296 34.608 168.68 34.4 169.08 34.4ZM170.84 23.312C171.256 23.312 171.64 23.52 171.64 23.968V24.816H174.488C174.856 24.816 175.016 25.104 175.016 25.456C175.016 25.808 174.856 26.096 174.488 26.096H167.048C166.68 26.096 166.52 25.808 166.52 25.456C166.52 25.104 166.68 24.816 167.048 24.816H170.04V23.968C170.04 23.52 170.408 23.312 170.84 23.312ZM170.84 28.016C169.544 28.016 168.936 28.4 168.936 28.992C168.936 29.568 169.544 29.968 170.84 29.968C172.136 29.968 172.744 29.568 172.744 28.992C172.744 28.4 172.136 28.016 170.84 28.016ZM184.397 24.144C186.829 24.144 188.029 25.68 188.029 27.696C188.029 29.728 186.829 31.264 184.397 31.264C181.965 31.264 180.765 29.728 180.765 27.696C180.765 25.68 181.965 24.144 184.397 24.144ZM184.397 25.488C182.877 25.488 182.301 26.48 182.301 27.696C182.301 28.912 182.877 29.92 184.397 29.92C185.917 29.92 186.493 28.912 186.493 27.696C186.493 26.48 185.917 25.488 184.397 25.488ZM191.677 23.552C192.077 23.552 192.461 23.76 192.461 24.224V31.664C192.461 32.112 192.077 32.32 191.677 32.32C191.277 32.32 190.877 32.112 190.877 31.664V29.856H189.021C188.637 29.856 188.477 29.536 188.477 29.168C188.477 28.8 188.637 28.48 189.021 28.48H190.877V26.992H189.021C188.637 26.992 188.477 26.688 188.477 26.304C188.477 25.936 188.637 25.632 189.021 25.632H190.877V24.224C190.877 23.76 191.277 23.552 191.677 23.552ZM187.853 32.464C190.813 32.464 192.541 33.488 192.541 35.488C192.541 37.488 190.813 38.512 187.853 38.512C184.893 38.512 183.165 37.488 183.165 35.488C183.165 33.488 184.893 32.464 187.853 32.464ZM187.853 33.76C185.677 33.76 184.749 34.432 184.749 35.488C184.749 36.544 185.677 37.216 187.853 37.216C190.013 37.216 190.957 36.544 190.957 35.488C190.957 34.432 190.013 33.76 187.853 33.76ZM198.097 28C200.065 28 201.105 29.296 201.105 31.088C201.105 32.864 200.065 34.176 198.097 34.176C196.129 34.176 195.073 32.864 195.073 31.088C195.073 29.296 196.129 28 198.097 28ZM198.081 23.648C198.497 23.648 198.881 23.856 198.881 24.304V25.664H201.137C201.521 25.664 201.697 25.984 201.697 26.336C201.697 26.704 201.521 27.024 201.137 27.024H194.833C194.433 27.024 194.257 26.704 194.257 26.336C194.257 25.984 194.433 25.664 194.833 25.664H197.297V24.304C197.297 23.856 197.697 23.648 198.081 23.648ZM198.097 29.296C197.025 29.296 196.465 30.016 196.465 31.088C196.465 32.144 197.025 32.864 198.097 32.864C199.153 32.864 199.729 32.144 199.729 31.088C199.729 30.016 199.153 29.296 198.097 29.296ZM206.209 23.552C206.593 23.552 206.961 23.744 206.961 24.176V36.752C206.961 37.184 206.593 37.376 206.209 37.376C205.841 37.376 205.473 37.184 205.473 36.752V29.984H203.777V36.096C203.777 36.512 203.409 36.704 203.041 36.704C202.673 36.704 202.305 36.512 202.305 36.096V24.32C202.305 23.904 202.673 23.712 203.041 23.712C203.409 23.712 203.777 23.904 203.777 24.32V28.624H205.473V24.176C205.473 23.744 205.841 23.552 206.209 23.552ZM215.286 24.112C218.374 24.112 220.214 25.52 220.214 27.92C220.214 30.32 218.374 31.728 215.286 31.728C212.198 31.728 210.374 30.32 210.374 27.92C210.374 25.52 212.198 24.112 215.286 24.112ZM215.286 25.472C212.998 25.472 211.974 26.528 211.974 27.92C211.974 29.328 212.998 30.368 215.286 30.368C217.574 30.368 218.598 29.328 218.598 27.92C218.598 26.528 217.574 25.472 215.286 25.472ZM212.822 32.048C213.238 32.048 213.622 32.256 213.622 32.704V34.64H216.95V32.704C216.95 32.256 217.334 32.048 217.75 32.048C218.182 32.048 218.55 32.256 218.55 32.704V34.64H221.446C221.83 34.64 222.006 34.944 222.006 35.296C222.006 35.664 221.83 35.984 221.446 35.984H209.126C208.742 35.984 208.566 35.664 208.566 35.296C208.566 34.944 208.742 34.64 209.126 34.64H212.022V32.704C212.022 32.256 212.39 32.048 212.822 32.048ZM224.554 24.16C225.082 24.16 225.45 24.384 225.434 24.928L225.242 32.48C225.226 32.992 224.906 33.168 224.554 33.168C224.202 33.168 223.882 32.992 223.882 32.48L223.674 24.928C223.674 24.384 224.026 24.16 224.554 24.16ZM224.554 34.48C225.146 34.48 225.61 34.928 225.61 35.52C225.61 36.112 225.146 36.576 224.554 36.576C223.962 36.576 223.498 36.112 223.498 35.52C223.498 34.928 223.962 34.48 224.554 34.48Z" fill="#2C2C2C"/>
<path d="M76.453 46.92C77.4983 46.92 78.287 47.27 78.819 47.97C79.351 48.6607 79.617 49.6733 79.617 51.008C79.617 52.3427 79.351 53.36 78.819 54.06C78.287 54.7507 77.4983 55.096 76.453 55.096C75.4076 55.096 74.6143 54.7507 74.073 54.06C73.541 53.36 73.275 52.3427 73.275 51.008C73.275 49.6733 73.541 48.6607 74.073 47.97C74.6143 47.27 75.4076 46.92 76.453 46.92ZM76.453 47.83C75.697 47.83 75.1463 48.1053 74.801 48.656C74.4556 49.2067 74.283 49.9907 74.283 51.008C74.283 52.0253 74.4556 52.8093 74.801 53.36C75.1463 53.9107 75.697 54.186 76.453 54.186C77.209 54.186 77.7596 53.9107 78.105 53.36C78.4503 52.8093 78.623 52.0253 78.623 51.008C78.623 49.9907 78.4503 49.2067 78.105 48.656C77.7596 48.1053 77.209 47.83 76.453 47.83ZM82.263 46.164C82.3936 46.164 82.5103 46.1967 82.613 46.262C82.725 46.3273 82.781 46.4347 82.781 46.584V50.49H84.559C84.6896 50.49 84.783 50.5367 84.839 50.63C84.895 50.714 84.923 50.8167 84.923 50.938C84.923 51.0687 84.895 51.1807 84.839 51.274C84.783 51.358 84.6896 51.4 84.559 51.4H82.781V57.728C82.781 57.8773 82.725 57.9847 82.613 58.05C82.5103 58.1153 82.3936 58.148 82.263 58.148C82.1323 58.148 82.0156 58.1153 81.913 58.05C81.8103 57.9847 81.759 57.8773 81.759 57.728V46.584C81.759 46.4347 81.8103 46.3273 81.913 46.262C82.0156 46.1967 82.1323 46.164 82.263 46.164ZM92.5312 46.92C92.6525 46.92 92.7412 46.962 92.7972 47.046C92.8532 47.13 92.8812 47.2327 92.8812 47.354C92.8812 47.4847 92.8532 47.592 92.7972 47.676C92.7412 47.76 92.6525 47.802 92.5312 47.802H89.9552V48.712C89.9552 49.188 90.0298 49.5893 90.1792 49.916C90.3378 50.2333 90.5945 50.5367 90.9492 50.826C91.3038 51.106 91.6352 51.3627 91.9432 51.596C92.2605 51.8293 92.5358 52.03 92.7692 52.198C92.8905 52.282 92.9558 52.3847 92.9652 52.506C92.9745 52.618 92.9418 52.7253 92.8672 52.828C92.8018 52.9213 92.7132 52.9867 92.6012 53.024C92.4892 53.0613 92.3678 53.0333 92.2372 52.94C92.0505 52.8187 91.8078 52.6507 91.5092 52.436C91.2105 52.212 90.8978 51.9693 90.5712 51.708C90.2072 51.4093 89.9365 51.162 89.7592 50.966C89.5912 50.7607 89.4885 50.5833 89.4512 50.434H89.4372C89.3998 50.5927 89.2925 50.7793 89.1152 50.994C88.9472 51.1993 88.6765 51.4467 88.3032 51.736C87.9765 51.9973 87.6498 52.2493 87.3232 52.492C87.0058 52.7253 86.7025 52.94 86.4132 53.136C86.2918 53.22 86.1752 53.248 86.0632 53.22C85.9512 53.1827 85.8578 53.1173 85.7832 53.024C85.7085 52.9213 85.6712 52.8093 85.6712 52.688C85.6805 52.5573 85.7505 52.45 85.8812 52.366C86.5625 51.89 87.2438 51.386 87.9252 50.854C88.2798 50.5553 88.5318 50.2473 88.6812 49.93C88.8398 49.6033 88.9192 49.202 88.9192 48.726V47.802H86.2592C86.1378 47.802 86.0492 47.76 85.9932 47.676C85.9372 47.592 85.9092 47.4847 85.9092 47.354C85.9092 47.2327 85.9372 47.13 85.9932 47.046C86.0492 46.962 86.1378 46.92 86.2592 46.92H92.5312ZM95.1912 46.164C95.3218 46.164 95.4385 46.1967 95.5412 46.262C95.6438 46.3273 95.6952 46.4347 95.6952 46.584V53.234C95.6952 53.3833 95.6438 53.4907 95.5412 53.556C95.4385 53.6213 95.3218 53.654 95.1912 53.654C95.0605 53.654 94.9392 53.6213 94.8272 53.556C94.7245 53.4907 94.6732 53.3833 94.6732 53.234V46.584C94.6732 46.4347 94.7245 46.3273 94.8272 46.262C94.9392 46.1967 95.0605 46.164 95.1912 46.164ZM94.7292 54.368C95.0932 54.368 95.3452 54.438 95.4852 54.578C95.6252 54.7087 95.6952 54.9513 95.6952 55.306V58.652C95.6952 58.8013 95.6392 58.9087 95.5272 58.974C95.4245 59.0393 95.3078 59.072 95.1772 59.072C95.0465 59.072 94.9298 59.0393 94.8272 58.974C94.7245 58.9087 94.6732 58.8013 94.6732 58.652V55.502C94.6732 55.334 94.5845 55.25 94.4072 55.25H87.8552C87.7338 55.25 87.6452 55.208 87.5892 55.124C87.5332 55.04 87.5052 54.9373 87.5052 54.816C87.5052 54.6853 87.5332 54.578 87.5892 54.494C87.6452 54.41 87.7338 54.368 87.8552 54.368H94.7292ZM107.605 46.92C107.727 46.92 107.815 46.962 107.871 47.046C107.927 47.13 107.955 47.2327 107.955 47.354C107.955 47.4847 107.927 47.592 107.871 47.676C107.815 47.76 107.727 47.802 107.605 47.802H105.043V48.712C105.043 49.188 105.118 49.5893 105.267 49.916C105.417 50.2333 105.669 50.5367 106.023 50.826C106.378 51.106 106.709 51.3627 107.017 51.596C107.335 51.8293 107.61 52.03 107.843 52.198C107.965 52.282 108.03 52.3847 108.039 52.506C108.049 52.618 108.016 52.7253 107.941 52.828C107.876 52.9213 107.787 52.9867 107.675 53.024C107.563 53.0613 107.442 53.0333 107.311 52.94C107.125 52.8187 106.882 52.6507 106.583 52.436C106.285 52.212 105.972 51.9693 105.645 51.708C105.281 51.4093 105.015 51.162 104.847 50.966C104.679 50.7607 104.577 50.5833 104.539 50.434H104.525C104.488 50.5927 104.385 50.7793 104.217 50.994C104.049 51.1993 103.779 51.4467 103.405 51.736C103.079 51.9973 102.752 52.2493 102.425 52.492C102.108 52.7253 101.805 52.94 101.515 53.136C101.394 53.22 101.277 53.248 101.165 53.22C101.053 53.1827 100.96 53.1173 100.885 53.024C100.811 52.9213 100.773 52.8093 100.773 52.688C100.783 52.5573 100.853 52.45 100.983 52.366C101.665 51.89 102.346 51.386 103.027 50.854C103.382 50.5553 103.634 50.2473 103.783 49.93C103.933 49.6033 104.007 49.202 104.007 48.726V47.802H101.361C101.24 47.802 101.151 47.76 101.095 47.676C101.039 47.592 101.011 47.4847 101.011 47.354C101.011 47.2327 101.039 47.13 101.095 47.046C101.151 46.962 101.24 46.92 101.361 46.92H107.605ZM109.957 46.164C110.088 46.164 110.205 46.1967 110.307 46.262C110.419 46.3273 110.475 46.4347 110.475 46.584V49.272H112.253C112.384 49.272 112.477 49.3187 112.533 49.412C112.589 49.496 112.617 49.6033 112.617 49.734C112.617 49.8553 112.589 49.9627 112.533 50.056C112.477 50.14 112.384 50.182 112.253 50.182H110.475V53.234C110.475 53.3833 110.419 53.4907 110.307 53.556C110.205 53.6213 110.088 53.654 109.957 53.654C109.827 53.654 109.71 53.6213 109.607 53.556C109.505 53.4907 109.453 53.3833 109.453 53.234V46.584C109.453 46.4347 109.505 46.3273 109.607 46.262C109.71 46.1967 109.827 46.164 109.957 46.164ZM109.509 54.368C109.873 54.368 110.125 54.438 110.265 54.578C110.405 54.7087 110.475 54.9513 110.475 55.306V58.652C110.475 58.8013 110.419 58.9087 110.307 58.974C110.205 59.0393 110.088 59.072 109.957 59.072C109.827 59.072 109.71 59.0393 109.607 58.974C109.505 58.9087 109.453 58.8013 109.453 58.652V55.502C109.453 55.334 109.365 55.25 109.187 55.25H102.775C102.654 55.25 102.565 55.208 102.509 55.124C102.453 55.04 102.425 54.9373 102.425 54.816C102.425 54.6853 102.453 54.578 102.509 54.494C102.565 54.41 102.654 54.368 102.775 54.368H109.509ZM116.978 46.584C117.108 46.584 117.225 46.6167 117.328 46.682C117.44 46.7473 117.496 46.8547 117.496 47.004V48.516C117.496 48.992 117.57 49.398 117.72 49.734C117.878 50.07 118.135 50.3873 118.49 50.686C118.835 50.9753 119.157 51.2367 119.456 51.47C119.764 51.7033 120.039 51.904 120.282 52.072C120.394 52.156 120.454 52.2587 120.464 52.38C120.473 52.5013 120.44 52.6133 120.366 52.716C120.291 52.8187 120.198 52.884 120.086 52.912C119.974 52.94 119.857 52.912 119.736 52.828C119.549 52.6973 119.306 52.52 119.008 52.296C118.718 52.072 118.415 51.8293 118.098 51.568C117.743 51.288 117.477 51.0407 117.3 50.826C117.132 50.602 117.029 50.42 116.992 50.28H116.978C116.94 50.4293 116.833 50.616 116.656 50.84C116.478 51.064 116.212 51.3207 115.858 51.61C115.54 51.862 115.223 52.1093 114.906 52.352C114.598 52.5853 114.294 52.8093 113.996 53.024C113.874 53.108 113.753 53.136 113.632 53.108C113.52 53.08 113.426 53.0147 113.352 52.912C113.277 52.8187 113.24 52.7067 113.24 52.576C113.249 52.4453 113.314 52.338 113.436 52.254C113.79 52.0113 114.126 51.764 114.444 51.512C114.77 51.26 115.111 50.994 115.466 50.714C115.82 50.4153 116.072 50.098 116.222 49.762C116.38 49.426 116.46 49.02 116.46 48.544V47.004C116.46 46.8547 116.511 46.7473 116.614 46.682C116.716 46.6167 116.838 46.584 116.978 46.584ZM122.97 46.164C123.1 46.164 123.217 46.1967 123.32 46.262C123.422 46.3273 123.474 46.4347 123.474 46.584V53.402C123.474 53.5513 123.422 53.6587 123.32 53.724C123.217 53.7893 123.1 53.822 122.97 53.822C122.839 53.822 122.722 53.7893 122.62 53.724C122.517 53.6587 122.466 53.5513 122.466 53.402V49.734H119.96C119.838 49.734 119.75 49.692 119.694 49.608C119.638 49.524 119.61 49.4167 119.61 49.286C119.61 49.1647 119.638 49.062 119.694 48.978C119.75 48.894 119.838 48.852 119.96 48.852H122.466V46.584C122.466 46.4347 122.517 46.3273 122.62 46.262C122.722 46.1967 122.839 46.164 122.97 46.164ZM119.582 53.99C120.86 53.99 121.845 54.2093 122.536 54.648C123.226 55.0773 123.572 55.712 123.572 56.552C123.572 57.392 123.226 58.0267 122.536 58.456C121.845 58.8947 120.86 59.114 119.582 59.114C118.303 59.114 117.318 58.8947 116.628 58.456C115.946 58.0267 115.606 57.392 115.606 56.552C115.606 55.712 115.946 55.0773 116.628 54.648C117.318 54.2093 118.303 53.99 119.582 53.99ZM119.582 54.83C118.564 54.83 117.813 54.984 117.328 55.292C116.852 55.6 116.614 56.02 116.614 56.552C116.614 57.084 116.852 57.504 117.328 57.812C117.813 58.12 118.564 58.274 119.582 58.274C120.599 58.274 121.35 58.12 121.836 57.812C122.321 57.504 122.564 57.084 122.564 56.552C122.564 56.02 122.321 55.6 121.836 55.292C121.35 54.984 120.599 54.83 119.582 54.83ZM129.108 49.538C130.022 49.538 130.732 49.748 131.236 50.168C131.749 50.5787 132.006 51.1293 132.006 51.82C132.006 52.5107 131.749 53.066 131.236 53.486C130.732 53.8967 130.022 54.102 129.108 54.102C128.193 54.102 127.479 53.8967 126.966 53.486C126.462 53.066 126.21 52.5107 126.21 51.82C126.21 51.1293 126.462 50.5787 126.966 50.168C127.479 49.748 128.193 49.538 129.108 49.538ZM129.108 46.136C129.238 46.136 129.355 46.1687 129.458 46.234C129.57 46.2993 129.626 46.4067 129.626 46.556V47.662H132.412C132.542 47.662 132.636 47.704 132.692 47.788C132.748 47.872 132.776 47.9747 132.776 48.096C132.776 48.2267 132.748 48.334 132.692 48.418C132.636 48.502 132.542 48.544 132.412 48.544H125.664C125.533 48.544 125.44 48.502 125.384 48.418C125.328 48.334 125.3 48.2267 125.3 48.096C125.3 47.9747 125.328 47.872 125.384 47.788C125.44 47.704 125.533 47.662 125.664 47.662H128.59V46.556C128.59 46.4067 128.641 46.2993 128.744 46.234C128.856 46.1687 128.977 46.136 129.108 46.136ZM129.108 50.364C128.473 50.364 127.988 50.4993 127.652 50.77C127.316 51.0313 127.148 51.3813 127.148 51.82C127.148 52.2587 127.316 52.6133 127.652 52.884C127.988 53.1453 128.473 53.276 129.108 53.276C129.742 53.276 130.228 53.1453 130.564 52.884C130.9 52.6133 131.068 52.2587 131.068 51.82C131.068 51.3813 130.9 51.0313 130.564 50.77C130.228 50.4993 129.742 50.364 129.108 50.364ZM134.596 46.164C134.726 46.164 134.843 46.1967 134.946 46.262C135.048 46.3273 135.1 46.4347 135.1 46.584V49.986H136.878C137.008 49.986 137.102 50.0327 137.158 50.126C137.214 50.21 137.242 50.3127 137.242 50.434C137.242 50.5553 137.214 50.6627 137.158 50.756C137.102 50.84 137.008 50.882 136.878 50.882H135.1V55.264C135.1 55.4133 135.048 55.5207 134.946 55.586C134.843 55.6513 134.726 55.684 134.596 55.684C134.465 55.684 134.348 55.6513 134.246 55.586C134.143 55.5207 134.092 55.4133 134.092 55.264V46.584C134.092 46.4347 134.143 46.3273 134.246 46.262C134.348 46.1967 134.465 46.164 134.596 46.164ZM127.82 54.984C127.95 54.984 128.067 55.0167 128.17 55.082C128.282 55.1473 128.338 55.2547 128.338 55.404V57.616C128.338 57.784 128.426 57.868 128.604 57.868H135.1C135.23 57.868 135.324 57.91 135.38 57.994C135.436 58.0873 135.464 58.1947 135.464 58.316C135.464 58.4373 135.436 58.54 135.38 58.624C135.324 58.7173 135.23 58.764 135.1 58.764H128.268C127.904 58.764 127.652 58.694 127.512 58.554C127.372 58.4233 127.302 58.1807 127.302 57.826V55.404C127.302 55.2547 127.353 55.1473 127.456 55.082C127.568 55.0167 127.689 54.984 127.82 54.984ZM144.42 46.556C144.952 46.556 145.414 46.6307 145.806 46.78C146.198 46.92 146.525 47.116 146.786 47.368C147.057 47.62 147.257 47.9187 147.388 48.264C147.519 48.6 147.584 48.964 147.584 49.356C147.584 49.748 147.519 50.1167 147.388 50.462C147.257 50.798 147.057 51.092 146.786 51.344C146.525 51.5867 146.198 51.7827 145.806 51.932C145.414 52.072 144.952 52.142 144.42 52.142C143.888 52.142 143.426 52.072 143.034 51.932C142.642 51.7827 142.311 51.5867 142.04 51.344C141.779 51.092 141.583 50.798 141.452 50.462C141.321 50.1167 141.256 49.748 141.256 49.356C141.256 48.964 141.321 48.6 141.452 48.264C141.583 47.9187 141.779 47.62 142.04 47.368C142.311 47.116 142.642 46.92 143.034 46.78C143.426 46.6307 143.888 46.556 144.42 46.556ZM144.42 47.41C144.037 47.41 143.711 47.4613 143.44 47.564C143.169 47.6667 142.945 47.8067 142.768 47.984C142.591 48.1613 142.46 48.3713 142.376 48.614C142.292 48.8473 142.25 49.0947 142.25 49.356C142.25 49.6173 142.292 49.8647 142.376 50.098C142.46 50.3313 142.591 50.5367 142.768 50.714C142.945 50.8913 143.169 51.0313 143.44 51.134C143.711 51.2367 144.037 51.288 144.42 51.288C144.793 51.288 145.115 51.2367 145.386 51.134C145.666 51.0313 145.895 50.8913 146.072 50.714C146.249 50.5367 146.38 50.3313 146.464 50.098C146.548 49.8647 146.59 49.6173 146.59 49.356C146.59 49.0947 146.548 48.8473 146.464 48.614C146.38 48.3713 146.249 48.1613 146.072 47.984C145.895 47.8067 145.666 47.6667 145.386 47.564C145.115 47.4613 144.793 47.41 144.42 47.41ZM150.566 46.164C150.697 46.164 150.813 46.1967 150.916 46.262C151.028 46.3273 151.084 46.4347 151.084 46.584V52.296C151.084 52.4453 151.028 52.5527 150.916 52.618C150.813 52.6833 150.697 52.716 150.566 52.716C150.435 52.716 150.319 52.6833 150.216 52.618C150.113 52.5527 150.062 52.4453 150.062 52.296V46.584C150.062 46.4347 150.113 46.3273 150.216 46.262C150.319 46.1967 150.435 46.164 150.566 46.164ZM150.118 53.416C150.482 53.416 150.734 53.486 150.874 53.626C151.014 53.7567 151.084 53.9993 151.084 54.354V55.642C151.084 55.9967 151.014 56.244 150.874 56.384C150.734 56.5147 150.482 56.58 150.118 56.58H144.434C144.341 56.58 144.271 56.5987 144.224 56.636C144.187 56.664 144.168 56.7293 144.168 56.832V57.826C144.168 58.0033 144.257 58.092 144.434 58.092H151.084C151.196 58.092 151.28 58.134 151.336 58.218C151.392 58.302 151.42 58.4 151.42 58.512C151.42 58.624 151.392 58.722 151.336 58.806C151.28 58.89 151.196 58.932 151.084 58.932H144.14C143.776 58.932 143.524 58.862 143.384 58.722C143.244 58.5913 143.174 58.3487 143.174 57.994V56.692C143.174 56.3373 143.244 56.0947 143.384 55.964C143.524 55.824 143.776 55.754 144.14 55.754H149.824C149.927 55.754 149.997 55.74 150.034 55.712C150.071 55.6747 150.09 55.6047 150.09 55.502V54.508C150.09 54.34 150.001 54.256 149.824 54.256H143.482C143.37 54.256 143.286 54.214 143.23 54.13C143.174 54.046 143.146 53.948 143.146 53.836C143.146 53.724 143.174 53.626 143.23 53.542C143.286 53.458 143.37 53.416 143.482 53.416H150.118ZM158.482 47.144C158.846 47.144 159.098 47.214 159.238 47.354C159.378 47.4847 159.448 47.7273 159.448 48.082V49.664C159.448 50.056 159.425 50.406 159.378 50.714C159.331 51.022 159.238 51.316 159.098 51.596C158.967 51.8667 158.781 52.1327 158.538 52.394C158.305 52.6553 158.001 52.9353 157.628 53.234C157.255 53.5233 156.802 53.8407 156.27 54.186C155.738 54.5313 155.113 54.928 154.394 55.376C154.291 55.4413 154.179 55.4553 154.058 55.418C153.946 55.3807 153.853 55.3107 153.778 55.208C153.703 55.1053 153.671 54.9887 153.68 54.858C153.689 54.7273 153.75 54.6247 153.862 54.55C154.879 53.934 155.691 53.4207 156.298 53.01C156.905 52.5993 157.367 52.226 157.684 51.89C158.001 51.5447 158.207 51.204 158.3 50.868C158.393 50.5227 158.44 50.1073 158.44 49.622V48.292C158.44 48.124 158.351 48.04 158.174 48.04H154.184C154.053 48.04 153.96 47.998 153.904 47.914C153.848 47.8207 153.82 47.7133 153.82 47.592C153.82 47.4707 153.848 47.368 153.904 47.284C153.96 47.1907 154.053 47.144 154.184 47.144H158.482ZM162.878 46.164C163.009 46.164 163.125 46.1967 163.228 46.262C163.34 46.3273 163.396 46.4347 163.396 46.584V57.728C163.396 57.8773 163.34 57.9847 163.228 58.05C163.125 58.1153 163.009 58.148 162.878 58.148C162.747 58.148 162.631 58.1153 162.528 58.05C162.425 57.9847 162.374 57.8773 162.374 57.728V46.584C162.374 46.4347 162.425 46.3273 162.528 46.262C162.631 46.1967 162.747 46.164 162.878 46.164ZM170.486 47.158C170.85 47.158 171.102 47.228 171.242 47.368C171.382 47.4987 171.452 47.7413 171.452 48.096V49.65C171.452 50.042 171.429 50.392 171.382 50.7C171.336 51.008 171.242 51.302 171.102 51.582C170.972 51.8527 170.79 52.1187 170.556 52.38C170.323 52.6413 170.02 52.9213 169.646 53.22C169.282 53.5093 168.834 53.8267 168.302 54.172C167.77 54.5173 167.145 54.914 166.426 55.362C166.324 55.4273 166.212 55.4413 166.09 55.404C165.978 55.3667 165.885 55.2967 165.81 55.194C165.736 55.0913 165.703 54.9747 165.712 54.844C165.722 54.7133 165.782 54.6107 165.894 54.536C166.566 54.1253 167.145 53.7613 167.63 53.444C168.125 53.1267 168.54 52.842 168.876 52.59C169.212 52.3287 169.483 52.0907 169.688 51.876C169.894 51.652 170.052 51.428 170.164 51.204C170.276 50.9707 170.351 50.728 170.388 50.476C170.426 50.224 170.444 49.9347 170.444 49.608V48.306C170.444 48.138 170.356 48.054 170.178 48.054H166.216C166.086 48.054 165.992 48.012 165.936 47.928C165.88 47.8347 165.852 47.7273 165.852 47.606C165.852 47.4847 165.88 47.382 165.936 47.298C165.992 47.2047 166.086 47.158 166.216 47.158H170.486ZM174.588 46.164C174.719 46.164 174.836 46.1967 174.938 46.262C175.05 46.3273 175.106 46.4347 175.106 46.584V50.49H176.884C177.015 50.49 177.108 50.5367 177.164 50.63C177.22 50.714 177.248 50.8167 177.248 50.938C177.248 51.0687 177.22 51.1807 177.164 51.274C177.108 51.358 177.015 51.4 176.884 51.4H175.106V57.728C175.106 57.8773 175.05 57.9847 174.938 58.05C174.836 58.1153 174.719 58.148 174.588 58.148C174.458 58.148 174.341 58.1153 174.238 58.05C174.136 57.9847 174.084 57.8773 174.084 57.728V46.584C174.084 46.4347 174.136 46.3273 174.238 46.262C174.341 46.1967 174.458 46.164 174.588 46.164ZM184.3 46.668C184.832 46.668 185.29 46.7427 185.672 46.892C186.064 47.0413 186.391 47.2513 186.652 47.522C186.914 47.7833 187.105 48.096 187.226 48.46C187.357 48.8147 187.422 49.202 187.422 49.622C187.422 50.0327 187.357 50.42 187.226 50.784C187.105 51.1387 186.914 51.4513 186.652 51.722C186.391 51.9833 186.064 52.1887 185.672 52.338C185.29 52.4873 184.832 52.562 184.3 52.562C183.768 52.562 183.306 52.4873 182.914 52.338C182.532 52.1887 182.21 51.9833 181.948 51.722C181.687 51.4513 181.491 51.1387 181.36 50.784C181.239 50.42 181.178 50.0327 181.178 49.622C181.178 49.202 181.239 48.8147 181.36 48.46C181.491 48.096 181.687 47.7833 181.948 47.522C182.21 47.2513 182.532 47.0413 182.914 46.892C183.306 46.7427 183.768 46.668 184.3 46.668ZM184.3 47.536C183.918 47.536 183.591 47.592 183.32 47.704C183.05 47.816 182.83 47.97 182.662 48.166C182.494 48.3527 182.368 48.572 182.284 48.824C182.21 49.076 182.172 49.342 182.172 49.622C182.172 49.902 182.21 50.168 182.284 50.42C182.368 50.672 182.494 50.8913 182.662 51.078C182.83 51.2647 183.05 51.414 183.32 51.526C183.591 51.638 183.918 51.694 184.3 51.694C184.683 51.694 185.01 51.638 185.28 51.526C185.551 51.414 185.77 51.2647 185.938 51.078C186.106 50.8913 186.228 50.672 186.302 50.42C186.386 50.168 186.428 49.902 186.428 49.622C186.428 49.342 186.386 49.076 186.302 48.824C186.228 48.572 186.106 48.3527 185.938 48.166C185.77 47.97 185.551 47.816 185.28 47.704C185.01 47.592 184.683 47.536 184.3 47.536ZM190.67 46.164C190.801 46.164 190.918 46.1967 191.02 46.262C191.123 46.3273 191.174 46.4347 191.174 46.584V52.59C191.174 52.7393 191.123 52.8467 191.02 52.912C190.918 52.9773 190.801 53.01 190.67 53.01C190.54 53.01 190.423 52.9773 190.32 52.912C190.218 52.8467 190.166 52.7393 190.166 52.59V50.056H186.666V49.174H190.166V46.584C190.166 46.4347 190.218 46.3273 190.32 46.262C190.423 46.1967 190.54 46.164 190.67 46.164ZM189.69 53.724C189.821 53.724 189.933 53.7567 190.026 53.822C190.129 53.8873 190.18 53.9947 190.18 54.144V55.026C190.18 55.25 190.19 55.446 190.208 55.614C190.236 55.782 190.278 55.936 190.334 56.076C190.39 56.216 190.46 56.3513 190.544 56.482C190.638 56.6127 190.754 56.7527 190.894 56.902C191.109 57.1353 191.314 57.3453 191.51 57.532C191.716 57.728 191.926 57.924 192.14 58.12C192.224 58.204 192.262 58.2973 192.252 58.4C192.252 58.512 192.21 58.6147 192.126 58.708C192.042 58.792 191.94 58.8387 191.818 58.848C191.706 58.8573 191.604 58.82 191.51 58.736C191.324 58.568 191.132 58.386 190.936 58.19C190.74 58.0033 190.563 57.826 190.404 57.658C190.162 57.3967 189.989 57.1913 189.886 57.042C189.793 56.902 189.732 56.7667 189.704 56.636H189.69C189.653 56.776 189.583 56.916 189.48 57.056C189.387 57.2053 189.219 57.4107 188.976 57.672C188.818 57.84 188.64 58.0173 188.444 58.204C188.248 58.4 188.057 58.582 187.87 58.75C187.777 58.834 187.67 58.8713 187.548 58.862C187.436 58.862 187.338 58.8153 187.254 58.722C187.161 58.6287 187.11 58.526 187.1 58.414C187.1 58.302 187.147 58.204 187.24 58.12C187.455 57.924 187.66 57.728 187.856 57.532C188.052 57.3453 188.258 57.1353 188.472 56.902C188.612 56.7527 188.729 56.6127 188.822 56.482C188.916 56.3513 188.986 56.216 189.032 56.076C189.088 55.936 189.126 55.782 189.144 55.614C189.172 55.446 189.186 55.25 189.186 55.026V54.144C189.186 53.9947 189.238 53.8873 189.34 53.822C189.443 53.7567 189.56 53.724 189.69 53.724ZM183.264 57.812C183.264 57.9147 183.283 57.98 183.32 58.008C183.358 58.0453 183.423 58.064 183.516 58.064H185.588C185.682 58.064 185.747 58.0453 185.784 58.008C185.822 57.98 185.84 57.9147 185.84 57.812V56.356H183.264V57.812ZM182.788 53.724C182.91 53.724 183.017 53.7567 183.11 53.822C183.213 53.878 183.264 53.9713 183.264 54.102V55.558H185.84V54.102C185.84 53.9713 185.887 53.878 185.98 53.822C186.083 53.7567 186.19 53.724 186.302 53.724C186.424 53.724 186.531 53.7567 186.624 53.822C186.727 53.878 186.778 53.9713 186.778 54.102V57.938C186.778 58.302 186.708 58.5493 186.568 58.68C186.438 58.8107 186.186 58.876 185.812 58.876H183.292C182.919 58.876 182.662 58.8107 182.522 58.68C182.392 58.5493 182.326 58.302 182.326 57.938V54.102C182.326 53.9713 182.373 53.878 182.466 53.822C182.569 53.7567 182.676 53.724 182.788 53.724ZM196.641 46.92C197.686 46.92 198.47 47.27 198.993 47.97C199.515 48.6607 199.777 49.6733 199.777 51.008C199.777 52.3427 199.515 53.36 198.993 54.06C198.47 54.7507 197.686 55.096 196.641 55.096C195.595 55.096 194.807 54.7507 194.275 54.06C193.752 53.36 193.491 52.3427 193.491 51.008C193.491 49.6733 193.752 48.6607 194.275 47.97C194.807 47.27 195.595 46.92 196.641 46.92ZM196.641 47.83C195.885 47.83 195.339 48.1053 195.003 48.656C194.667 49.2067 194.499 49.9907 194.499 51.008C194.499 52.0253 194.667 52.8093 195.003 53.36C195.339 53.9107 195.885 54.186 196.641 54.186C197.397 54.186 197.943 53.9107 198.279 53.36C198.615 52.8093 198.783 52.0253 198.783 51.008C198.783 49.9907 198.615 49.2067 198.279 48.656C197.943 48.1053 197.397 47.83 196.641 47.83ZM202.983 46.164C203.113 46.164 203.23 46.1967 203.333 46.262C203.435 46.3273 203.487 46.4347 203.487 46.584V57.728C203.487 57.8773 203.435 57.9847 203.333 58.05C203.23 58.1153 203.113 58.148 202.983 58.148C202.852 58.148 202.735 58.1153 202.633 58.05C202.53 57.9847 202.479 57.8773 202.479 57.728V51.442H199.063V50.56H202.479V46.584C202.479 46.4347 202.53 46.3273 202.633 46.262C202.735 46.1967 202.852 46.164 202.983 46.164ZM211.165 46.682C212.509 46.682 213.54 46.9713 214.259 47.55C214.987 48.1193 215.351 48.9127 215.351 49.93C215.351 50.9473 214.987 51.7453 214.259 52.324C213.54 52.8933 212.509 53.178 211.165 53.178C209.821 53.178 208.785 52.8933 208.057 52.324C207.338 51.7453 206.979 50.9473 206.979 49.93C206.979 48.9127 207.338 48.1193 208.057 47.55C208.785 46.9713 209.821 46.682 211.165 46.682ZM211.165 47.55C210.633 47.55 210.166 47.6107 209.765 47.732C209.373 47.8533 209.046 48.0213 208.785 48.236C208.524 48.4413 208.328 48.6887 208.197 48.978C208.066 49.2673 208.001 49.5847 208.001 49.93C208.001 50.266 208.066 50.5787 208.197 50.868C208.328 51.1573 208.524 51.4093 208.785 51.624C209.046 51.8293 209.373 51.9927 209.765 52.114C210.166 52.2353 210.633 52.296 211.165 52.296C211.697 52.296 212.159 52.2353 212.551 52.114C212.952 51.9927 213.284 51.8293 213.545 51.624C213.806 51.4093 214.002 51.1573 214.133 50.868C214.264 50.5787 214.329 50.266 214.329 49.93C214.329 49.5847 214.264 49.2673 214.133 48.978C214.002 48.6887 213.806 48.4413 213.545 48.236C213.284 48.0213 212.952 47.8533 212.551 47.732C212.159 47.6107 211.697 47.55 211.165 47.55ZM208.939 53.5C209.079 53.5 209.2 53.5327 209.303 53.598C209.406 53.6633 209.457 53.7707 209.457 53.92V55.978H212.873V53.92C212.873 53.7707 212.924 53.6633 213.027 53.598C213.13 53.5327 213.246 53.5 213.377 53.5C213.508 53.5 213.624 53.5327 213.727 53.598C213.839 53.6633 213.895 53.7707 213.895 53.92V55.978H216.653C216.774 55.978 216.863 56.02 216.919 56.104C216.975 56.188 217.003 56.2907 217.003 56.412C217.003 56.5333 216.975 56.636 216.919 56.72C216.863 56.804 216.774 56.846 216.653 56.846H205.677C205.556 56.846 205.467 56.804 205.411 56.72C205.355 56.636 205.327 56.5333 205.327 56.412C205.327 56.2907 205.355 56.188 205.411 56.104C205.467 56.02 205.556 55.978 205.677 55.978H208.435V53.92C208.435 53.7707 208.486 53.6633 208.589 53.598C208.692 53.5327 208.808 53.5 208.939 53.5Z" fill="#2C2C2C"/>
</svg>
