<svg width="124" height="50" viewBox="0 0 124 50" fill="none" xmlns="http://www.w3.org/2000/svg">
<g filter="url(#filter0_d_40001696_17741)">
<mask id="path-1-inside-1_40001696_17741" fill="white">
<path d="M108 1C116.284 1 123 7.71573 123 16V21C123 29.2843 116.284 36 108 36H70.623L63.0127 47L55.4014 36H18C9.71573 36 3 29.2843 3 21V16C3 7.71573 9.71573 1 18 1H108Z"/>
</mask>
<path d="M108 1C116.284 1 123 7.71573 123 16V21C123 29.2843 116.284 36 108 36H70.623L63.0127 47L55.4014 36H18C9.71573 36 3 29.2843 3 21V16C3 7.71573 9.71573 1 18 1H108Z" fill="white"/>
<path d="M123 16H124H123ZM70.623 36V35H70.0989L69.8007 35.431L70.623 36ZM63.0127 47L62.1904 47.569L63.0127 48.7575L63.8351 47.569L63.0127 47ZM55.4014 36L56.2237 35.431L55.9255 35H55.4014V36ZM3 21H2H3ZM108 1V2C115.732 2 122 8.26801 122 16H123H124C124 7.16344 116.837 0 108 0V1ZM123 16H122V21H123H124V16H123ZM123 21H122C122 28.732 115.732 35 108 35V36V37C116.837 37 124 29.8366 124 21H123ZM108 36V35H70.623V36V37H108V36ZM70.623 36L69.8007 35.431L62.1903 46.431L63.0127 47L63.8351 47.569L71.4454 36.569L70.623 36ZM63.0127 47L63.835 46.431L56.2237 35.431L55.4014 36L54.579 36.569L62.1904 47.569L63.0127 47ZM55.4014 36V35H18V36V37H55.4014V36ZM18 36V35C10.268 35 4 28.732 4 21H3H2C2 29.8366 9.16344 37 18 37V36ZM3 21H4V16H3H2V21H3ZM3 16H4C4 8.26801 10.268 2 18 2V1V0C9.16344 0 2 7.16344 2 16H3ZM18 1V2H108V1V0H18V1Z" fill="#CBCBC5" mask="url(#path-1-inside-1_40001696_17741)"/>
</g>
<defs>
<filter id="filter0_d_40001696_17741" x="0" y="0" width="124" height="50" filterUnits="userSpaceOnUse" color-interpolation-filters="sRGB">
<feFlood flood-opacity="0" result="BackgroundImageFix"/>
<feColorMatrix in="SourceAlpha" type="matrix" values="0 0 0 0 0 0 0 0 0 0 0 0 0 0 0 0 0 0 127 0" result="hardAlpha"/>
<feOffset dx="-1" dy="1"/>
<feGaussianBlur stdDeviation="1"/>
<feComposite in2="hardAlpha" operator="out"/>
<feColorMatrix type="matrix" values="0 0 0 0 0 0 0 0 0 0 0 0 0 0 0 0 0 0 0.25 0"/>
<feBlend mode="normal" in2="BackgroundImageFix" result="effect1_dropShadow_40001696_17741"/>
<feBlend mode="normal" in="SourceGraphic" in2="effect1_dropShadow_40001696_17741" result="shape"/>
</filter>
</defs>
</svg>
