<svg width="90" height="117" viewBox="0 0 90 117" fill="none" xmlns="http://www.w3.org/2000/svg">
<g clip-path="url(#clip0_40000879_10489)">
<g filter="url(#filter0_f_40000879_10489)">
<ellipse cx="44.7363" cy="106.846" rx="13.7363" ry="3.84615" fill="#9C9C9C"/>
</g>
<path d="M56.6123 7.80762C68.345 7.80783 78.9636 16.6395 83.7646 30.1357L84.0938 31.0928C85.6875 35.8965 86.4893 41.0088 86.4893 46.2949C86.4892 48.4693 86.3488 50.6439 86.0752 52.7695V52.7705C85.0797 60.3896 80.8842 67.1203 74.5146 71.3477L73.8916 71.749C72.7715 72.4479 71.6055 73.1022 70.4014 73.7148C72.5098 74.6585 73.9793 76.7741 73.9795 79.2334V87.9082C73.9795 91.2461 71.2734 93.952 67.9355 93.9521H51.0215L46.8701 100.557H46.8828L46.3506 101.399C45.4141 102.883 43.1569 102.933 42.1416 101.538L42.0479 101.398L37.3672 93.9521H20.5723C17.2345 93.9519 14.5283 91.246 14.5283 87.9082V79.2334C14.5285 76.7851 15.9848 74.6775 18.0781 73.7275C17.7544 73.5624 17.432 73.3963 17.1133 73.2246C9.90142 69.3388 4.85114 62.1245 3.58301 53.9287C3.19697 51.4371 3.00001 48.8691 3 46.3086C3 39.9328 4.22108 33.6287 6.52637 28.0625C11.6882 15.633 21.7524 7.81462 32.8779 7.81445C36.9209 7.81451 40.8411 8.82453 44.5195 10.8018C44.606 10.8458 44.6777 10.8613 44.7451 10.8613C44.8165 10.8613 44.89 10.844 44.9668 10.8008L44.9766 10.7949L45.6689 10.4346C49.1453 8.68895 52.8223 7.80767 56.6123 7.80762Z" fill="#FBD7D5"/>
<path d="M56.6123 7.80762L56.6123 7.25817H56.6123L56.6123 7.80762ZM83.7646 30.1357L84.2843 29.9571L84.2823 29.9516L83.7646 30.1357ZM84.0938 31.0928L84.6153 30.9197L84.6133 30.9141L84.0938 31.0928ZM86.4893 46.2949L87.0387 46.2949V46.2949H86.4893ZM86.0752 52.7695L85.5302 52.6994L85.5257 52.7343V52.7695H86.0752ZM86.0752 52.7705L86.62 52.8417L86.6246 52.8062V52.7705H86.0752ZM74.5146 71.3477L74.8122 71.8096L74.8185 71.8055L74.5146 71.3477ZM73.8916 71.749L74.1825 72.2152L74.1892 72.2109L73.8916 71.749ZM70.4014 73.7148L70.1522 73.2251L69.1273 73.7466L70.1769 74.2164L70.4014 73.7148ZM73.9795 79.2334H74.5289V79.2334L73.9795 79.2334ZM67.9355 93.9521V94.5016H67.9356L67.9355 93.9521ZM51.0215 93.9521V93.4027H50.7179L50.5563 93.6597L51.0215 93.9521ZM46.8701 100.557L46.4049 100.264L45.8758 101.106H46.8701V100.557ZM46.8828 100.557L47.3474 100.85L47.8796 100.007H46.8828V100.557ZM46.3506 101.399L45.886 101.106L45.8859 101.106L46.3506 101.399ZM42.1416 101.538L41.6854 101.844L41.6912 101.853L41.6974 101.861L42.1416 101.538ZM42.0479 101.398L41.5827 101.691L41.5871 101.698L41.5917 101.705L42.0479 101.398ZM37.3672 93.9521L37.8324 93.6597L37.6708 93.4027H37.3672V93.9521ZM20.5723 93.9521L20.5722 94.5016H20.5723V93.9521ZM14.5283 79.2334L13.9789 79.2334V79.2334H14.5283ZM18.0781 73.7275L18.3052 74.2279L19.3441 73.7564L18.3278 73.2381L18.0781 73.7275ZM17.1133 73.2246L16.8527 73.7083L16.8528 73.7084L17.1133 73.2246ZM3.58301 53.9287L4.126 53.8447L4.12598 53.8446L3.58301 53.9287ZM3 46.3086H2.45055V46.3086L3 46.3086ZM6.52637 28.0625L6.01893 27.8518L6.01873 27.8523L6.52637 28.0625ZM32.8779 7.81445L32.8779 7.265H32.8779L32.8779 7.81445ZM44.5195 10.8018L44.2593 11.2858L44.2699 11.2912L44.5195 10.8018ZM44.7451 10.8613L44.7447 11.4108L44.7456 11.4108L44.7451 10.8613ZM44.9668 10.8008L45.2364 11.2795L45.243 11.2758L45.2495 11.2719L44.9668 10.8008ZM44.9766 10.7949L44.7229 10.3075L44.7081 10.3152L44.6939 10.3238L44.9766 10.7949ZM45.6689 10.4346L45.4224 9.9435L45.4153 9.94718L45.6689 10.4346ZM56.6123 7.80762L56.6123 8.35707C68.0487 8.35727 78.5 16.9758 83.247 30.3199L83.7646 30.1357L84.2823 29.9516C79.4272 16.3033 68.6413 7.25838 56.6123 7.25817L56.6123 7.80762ZM83.7646 30.1357L83.2451 30.3144L83.5742 31.2714L84.0938 31.0928L84.6133 30.9141L84.2842 29.9571L83.7646 30.1357ZM84.0938 31.0928L83.5723 31.2658C85.1465 36.0108 85.9398 41.0646 85.9398 46.2949H86.4893H87.0387C87.0387 40.9531 86.2284 35.7821 84.6152 30.9198L84.0938 31.0928ZM86.4893 46.2949L85.9398 46.2949C85.9398 48.4458 85.8008 50.597 85.5302 52.6994L86.0752 52.7695L86.6201 52.8397C86.8967 50.6908 87.0387 48.4927 87.0387 46.2949L86.4893 46.2949ZM86.0752 52.7695H85.5257V52.7705H86.0752H86.6246V52.7695H86.0752ZM86.0752 52.7705L85.5304 52.6993C84.5555 60.1612 80.4475 66.7506 74.2108 70.8899L74.5146 71.3477L74.8185 71.8055C81.3208 67.4899 85.604 60.6181 86.62 52.8417L86.0752 52.7705ZM74.5146 71.3477L74.2171 70.8858L73.594 71.2871L73.8916 71.749L74.1892 72.2109L74.8122 71.8096L74.5146 71.3477ZM73.8916 71.749L73.6008 71.2829C72.4952 71.9726 71.3433 72.6192 70.1522 73.2251L70.4014 73.7148L70.6505 74.2046C71.8678 73.5852 73.0478 72.9231 74.1824 72.2152L73.8916 71.749ZM70.4014 73.7148L70.1769 74.2164C72.095 75.0749 73.4299 76.9987 73.43 79.2334L73.9795 79.2334L74.5289 79.2334C74.5288 76.5495 72.9246 74.2422 70.6258 73.2133L70.4014 73.7148ZM73.9795 79.2334H73.43V87.9082H73.9795H74.5289V79.2334H73.9795ZM73.9795 87.9082H73.43C73.43 90.9426 70.97 93.4026 67.9355 93.4027L67.9355 93.9521L67.9356 94.5016C71.5768 94.5014 74.5289 91.5496 74.5289 87.9082H73.9795ZM67.9355 93.9521V93.4027H51.0215V93.9521V94.5016H67.9355V93.9521ZM51.0215 93.9521L50.5563 93.6597L46.4049 100.264L46.8701 100.557L47.3353 100.849L51.4867 94.2446L51.0215 93.9521ZM46.8701 100.557V101.106H46.8828V100.557V100.007H46.8701V100.557ZM46.8828 100.557L46.4182 100.263L45.886 101.106L46.3506 101.399L46.8152 101.693L47.3474 100.85L46.8828 100.557ZM46.3506 101.399L45.8859 101.106C45.1595 102.257 43.3758 102.3 42.5858 101.215L42.1416 101.538L41.6974 101.861C42.9381 103.566 45.6688 103.509 46.8153 101.693L46.3506 101.399ZM42.1416 101.538L42.5978 101.232L42.504 101.092L42.0479 101.398L41.5917 101.705L41.6854 101.844L42.1416 101.538ZM42.0479 101.398L42.513 101.106L37.8324 93.6597L37.3672 93.9521L36.902 94.2446L41.5827 101.691L42.0479 101.398ZM37.3672 93.9521V93.4027H20.5723V93.9521V94.5016H37.3672V93.9521ZM20.5723 93.9521L20.5723 93.4027C17.5379 93.4025 15.0778 90.9426 15.0778 87.9082H14.5283H13.9789C13.9789 91.5495 16.9311 94.5013 20.5722 94.5016L20.5723 93.9521ZM14.5283 87.9082H15.0778V79.2334H14.5283H13.9789V87.9082H14.5283ZM14.5283 79.2334L15.0778 79.2334C15.0779 77.0087 16.4008 75.0921 18.3052 74.2279L18.0781 73.7275L17.8511 73.2272C15.5689 74.2629 13.979 76.5616 13.9789 79.2334L14.5283 79.2334ZM18.0781 73.7275L18.3278 73.2381C18.0051 73.0735 17.6871 72.9095 17.3738 72.7408L17.1133 73.2246L16.8528 73.7084C17.177 73.883 17.5037 74.0514 17.8285 74.217L18.0781 73.7275ZM17.1133 73.2246L17.3739 72.7409C10.3163 68.9382 5.36828 61.8734 4.126 53.8447L3.58301 53.9287L3.04002 54.0127C4.33401 62.3756 9.48659 69.7394 16.8527 73.7083L17.1133 73.2246ZM3.58301 53.9287L4.12598 53.8446C3.7443 51.3812 3.54946 48.8412 3.54945 46.3086L3 46.3086L2.45055 46.3086C2.45056 48.8969 2.64963 51.4931 3.04004 54.0128L3.58301 53.9287ZM3 46.3086H3.54945C3.54945 40.0009 4.75781 33.7686 7.034 28.2727L6.52637 28.0625L6.01873 27.8523C3.68434 33.4887 2.45055 39.8647 2.45055 46.3086H3ZM6.52637 28.0625L7.0338 28.2732C12.1346 15.9907 22.0313 8.36407 32.8779 8.3639L32.8779 7.81445L32.8779 7.265C21.4735 7.26517 11.2418 15.2753 6.01893 27.8518L6.52637 28.0625ZM32.8779 7.81445L32.8779 8.3639C36.8265 8.36396 40.6577 9.34974 44.2594 11.2857L44.5195 10.8018L44.7797 10.3178C41.0245 8.29932 37.0153 7.26506 32.8779 7.265L32.8779 7.81445ZM44.5195 10.8018L44.2699 11.2912C44.426 11.3708 44.5826 11.4106 44.7447 11.4108L44.7451 10.8613L44.7456 10.3119C44.7498 10.3119 44.7548 10.3121 44.7602 10.3128C44.7656 10.3135 44.7703 10.3144 44.7739 10.3153C44.7814 10.3172 44.7804 10.318 44.7691 10.3123L44.5195 10.8018ZM44.7451 10.8613L44.7456 11.4108C44.9119 11.4106 45.078 11.3687 45.2364 11.2795L44.9668 10.8008L44.6972 10.322C44.6971 10.3221 44.6986 10.3212 44.7016 10.32C44.7047 10.3187 44.7088 10.3173 44.7139 10.3159C44.7247 10.3131 44.7355 10.3119 44.7447 10.3119L44.7451 10.8613ZM44.9668 10.8008L45.2495 11.2719L45.2593 11.2661L44.9766 10.7949L44.6939 10.3238L44.6841 10.3296L44.9668 10.8008ZM44.9766 10.7949L45.2302 11.2823L45.9226 10.922L45.6689 10.4346L45.4153 9.94718L44.7229 10.3075L44.9766 10.7949ZM45.6689 10.4346L45.9155 10.9256C49.3173 9.21744 52.9101 8.35712 56.6123 8.35707L56.6123 7.80762L56.6123 7.25817C52.7346 7.25822 48.9734 8.16047 45.4224 9.94355L45.6689 10.4346Z" fill="#5C5C5C"/>
<g filter="url(#filter1_g_40000879_10489)">
<path d="M80.2861 46.3009C80.2861 48.2439 80.1612 50.1453 79.9183 51.9911C79.1341 58.0145 75.7058 63.3647 70.5495 66.5776C63.8942 70.7343 55.1847 73.3434 45.5938 73.5794C45.108 73.5933 44.6222 73.6002 44.1295 73.6002H43.7062C34.7399 73.5308 26.4815 71.4004 19.9025 67.8475C14.2812 64.815 10.4782 59.2982 9.50661 52.9904C9.1735 50.8323 9 48.5909 9 46.3009C9 40.5204 10.1104 35.0939 12.0605 30.3959C16.1411 20.556 23.886 13.915 32.769 13.915C35.8572 13.915 38.8067 14.7131 41.5201 16.1773C43.4841 17.232 45.809 17.232 47.766 16.1773C50.4725 14.72 53.422 13.915 56.5033 13.915C65.9206 13.915 74.0611 21.3748 77.9058 32.1863C79.4256 36.454 80.2792 41.2421 80.2792 46.3009H80.2861Z" fill="#EEEDEB"/>
<path d="M80.2861 46.3009C80.2861 48.2439 80.1612 50.1453 79.9183 51.9911C79.1341 58.0145 75.7058 63.3647 70.5495 66.5776C63.8942 70.7343 55.1847 73.3434 45.5938 73.5794C45.108 73.5933 44.6222 73.6002 44.1295 73.6002H43.7062C34.7399 73.5308 26.4815 71.4004 19.9025 67.8475C14.2812 64.815 10.4782 59.2982 9.50661 52.9904C9.1735 50.8323 9 48.5909 9 46.3009C9 40.5204 10.1104 35.0939 12.0605 30.3959C16.1411 20.556 23.886 13.915 32.769 13.915C35.8572 13.915 38.8067 14.7131 41.5201 16.1773C43.4841 17.232 45.809 17.232 47.766 16.1773C50.4725 14.72 53.422 13.915 56.5033 13.915C65.9206 13.915 74.0611 21.3748 77.9058 32.1863C79.4256 36.454 80.2792 41.2421 80.2792 46.3009H80.2861Z" stroke="#2C2C2C" stroke-width="1.0989" stroke-miterlimit="10"/>
</g>
<g filter="url(#filter2_g_40000879_10489)">
<path d="M46.1248 43.7877C46.1248 47.4179 45.3543 50.3601 42.0502 50.3601C38.9543 50.3601 37.5312 47.4179 37.5312 43.7877C37.5312 40.1574 38.5864 37.2152 42.0502 37.2152C45.0697 37.2152 46.1248 40.1574 46.1248 43.7877Z" fill="#FBFBFB" stroke="#2C2C2C" stroke-miterlimit="10"/>
<path d="M54.7117 43.7877C54.7117 47.4179 53.9412 50.3601 50.6371 50.3601C47.5412 50.3601 46.1182 47.4179 46.1182 43.7877C46.1182 40.1574 47.1733 37.2152 50.6371 37.2152C53.6566 37.2152 54.7117 40.1574 54.7117 43.7877Z" fill="#FBFBFB" stroke="#2C2C2C" stroke-miterlimit="10"/>
<path d="M46.1251 43.9707C46.1251 45.9834 45.7017 47.6155 43.8692 47.6155C42.1546 47.6155 41.3633 45.9834 41.3633 43.9707C41.3633 41.9579 41.9464 40.3258 43.8692 40.3258C45.5421 40.3258 46.1251 41.9579 46.1251 43.9707Z" fill="#2C2C2C"/>
<path d="M54.7121 43.9707C54.7121 45.9834 54.2886 47.6155 52.4561 47.6155C50.7415 47.6155 49.9502 45.9834 49.9502 43.9707C49.9502 41.9579 50.5333 40.3258 52.4561 40.3258C54.129 40.3258 54.7121 41.9579 54.7121 43.9707Z" fill="#2C2C2C"/>
<path d="M46.7017 50.5793C46.7017 50.5793 43.1962 50.7696 43.6405 52.8263C44.0847 54.8829 48.9785 54.4584 49.6726 53.5801C50.3668 52.7019 49.8809 50.7477 46.7017 50.572V50.5793Z" fill="#FBD7D5" stroke="#2C2C2C" stroke-miterlimit="10"/>
<path d="M30.4373 49.6506C30.6788 49.6506 30.8746 49.4441 30.8746 49.1895C30.8746 48.9348 30.6788 48.7284 30.4373 48.7284C30.1958 48.7284 30 48.9348 30 49.1895C30 49.4441 30.1958 49.6506 30.4373 49.6506Z" fill="#2C2C2C"/>
<path d="M33.159 49.6506C33.4005 49.6506 33.5963 49.4441 33.5963 49.1895C33.5963 48.9348 33.4005 48.7284 33.159 48.7284C32.9175 48.7284 32.7217 48.9348 32.7217 49.1895C32.7217 49.4441 32.9175 49.6506 33.159 49.6506Z" fill="#2C2C2C"/>
<path d="M31.7977 51.0781C32.0392 51.0781 32.235 50.8716 32.235 50.617C32.235 50.3623 32.0392 50.1559 31.7977 50.1559C31.5561 50.1559 31.3604 50.3623 31.3604 50.617C31.3604 50.8716 31.5561 51.0781 31.7977 51.0781Z" fill="#2C2C2C"/>
<path d="M56.2244 49.6506C56.4659 49.6506 56.6617 49.4441 56.6617 49.1895C56.6617 48.9348 56.4659 48.7284 56.2244 48.7284C55.9829 48.7284 55.7871 48.9348 55.7871 49.1895C55.7871 49.4441 55.9829 49.6506 56.2244 49.6506Z" fill="#2C2C2C"/>
<path d="M58.9529 49.6506C59.1945 49.6506 59.3903 49.4441 59.3903 49.1895C59.3903 48.9348 59.1945 48.7284 58.9529 48.7284C58.7114 48.7284 58.5156 48.9348 58.5156 49.1895C58.5156 49.4441 58.7114 49.6506 58.9529 49.6506Z" fill="#2C2C2C"/>
<path d="M57.5926 51.0781C57.8341 51.0781 58.0299 50.8716 58.0299 50.617C58.0299 50.3623 57.8341 50.1559 57.5926 50.1559C57.3511 50.1559 57.1553 50.3623 57.1553 50.617C57.1553 50.8716 57.3511 51.0781 57.5926 51.0781Z" fill="#2C2C2C"/>
</g>
</g>
<defs>
<filter id="filter0_f_40000879_10489" x="22.0989" y="94.0989" width="45.2749" height="25.4945" filterUnits="userSpaceOnUse" color-interpolation-filters="sRGB">
<feFlood flood-opacity="0" result="BackgroundImageFix"/>
<feBlend mode="normal" in="SourceGraphic" in2="BackgroundImageFix" result="shape"/>
<feGaussianBlur stdDeviation="4.45055" result="effect1_foregroundBlur_40000879_10489"/>
</filter>
<filter id="filter1_g_40000879_10489" x="8.01063" y="12.926" width="73.2649" height="61.6632" filterUnits="userSpaceOnUse" color-interpolation-filters="sRGB">
<feFlood flood-opacity="0" result="BackgroundImageFix"/>
<feBlend mode="normal" in="SourceGraphic" in2="BackgroundImageFix" result="shape"/>
<feTurbulence type="fractalNoise" baseFrequency="0.6066666841506958 0.6066666841506958" numOctaves="3" seed="7043" />
<feDisplacementMap in="shape" scale="0.87912094593048096" xChannelSelector="R" yChannelSelector="G" result="displacedImage" width="100%" height="100%" />
<feMerge result="effect1_texture_40000879_10489">
<feMergeNode in="displacedImage"/>
</feMerge>
</filter>
<filter id="filter2_g_40000879_10489" x="29.6" y="36.3152" width="30.1906" height="18.892" filterUnits="userSpaceOnUse" color-interpolation-filters="sRGB">
<feFlood flood-opacity="0" result="BackgroundImageFix"/>
<feBlend mode="normal" in="SourceGraphic" in2="BackgroundImageFix" result="shape"/>
<feTurbulence type="fractalNoise" baseFrequency="0.66666668653488159 0.66666668653488159" numOctaves="3" seed="7043" />
<feDisplacementMap in="shape" scale="0.80000001192092896" xChannelSelector="R" yChannelSelector="G" result="displacedImage" width="100%" height="100%" />
<feMerge result="effect1_texture_40000879_10489">
<feMergeNode in="displacedImage"/>
</feMerge>
</filter>
<clipPath id="clip0_40000879_10489">
<rect width="90" height="117" fill="white"/>
</clipPath>
</defs>
</svg>
