<svg width="90" height="117" viewBox="0 0 90 117" fill="none" xmlns="http://www.w3.org/2000/svg">
<g clip-path="url(#clip0_40000879_10564)">
<g filter="url(#filter0_f_40000879_10564)">
<ellipse cx="44.7363" cy="106.846" rx="13.7363" ry="3.84615" fill="#9C9C9C"/>
</g>
<path d="M56.6123 7.80762C68.345 7.80783 78.9636 16.6395 83.7646 30.1357L84.0938 31.0928C85.6875 35.8965 86.4893 41.0088 86.4893 46.2949C86.4892 48.4693 86.3488 50.6439 86.0752 52.7695V52.7705C85.0797 60.3896 80.8842 67.1203 74.5146 71.3477L73.8916 71.749C72.7715 72.4479 71.6055 73.1022 70.4014 73.7148C72.5098 74.6585 73.9793 76.7741 73.9795 79.2334V87.9082C73.9795 91.2461 71.2734 93.952 67.9355 93.9521H51.0215L46.8701 100.557H46.8828L46.3506 101.399C45.4141 102.883 43.1569 102.933 42.1416 101.538L42.0479 101.398L37.3672 93.9521H20.5723C17.2345 93.9519 14.5283 91.246 14.5283 87.9082V79.2334C14.5285 76.7851 15.9848 74.6775 18.0781 73.7275C17.7544 73.5624 17.432 73.3963 17.1133 73.2246C9.90142 69.3388 4.85114 62.1245 3.58301 53.9287C3.19697 51.4371 3.00001 48.8691 3 46.3086C3 39.9328 4.22108 33.6287 6.52637 28.0625C11.6882 15.633 21.7524 7.81462 32.8779 7.81445C36.9209 7.81451 40.8411 8.82453 44.5195 10.8018C44.606 10.8458 44.6777 10.8613 44.7451 10.8613C44.8165 10.8613 44.89 10.844 44.9668 10.8008L44.9766 10.7949L45.6689 10.4346C49.1453 8.68895 52.8223 7.80767 56.6123 7.80762Z" fill="#FBD7D5"/>
<path d="M56.6123 7.80762L56.6123 7.25817H56.6123L56.6123 7.80762ZM83.7646 30.1357L84.2843 29.9571L84.2823 29.9516L83.7646 30.1357ZM84.0938 31.0928L84.6153 30.9197L84.6133 30.9141L84.0938 31.0928ZM86.4893 46.2949L87.0387 46.2949V46.2949H86.4893ZM86.0752 52.7695L85.5302 52.6994L85.5257 52.7343V52.7695H86.0752ZM86.0752 52.7705L86.62 52.8417L86.6246 52.8062V52.7705H86.0752ZM74.5146 71.3477L74.8122 71.8096L74.8185 71.8055L74.5146 71.3477ZM73.8916 71.749L74.1825 72.2152L74.1892 72.2109L73.8916 71.749ZM70.4014 73.7148L70.1522 73.2251L69.1273 73.7466L70.1769 74.2164L70.4014 73.7148ZM73.9795 79.2334H74.5289V79.2334L73.9795 79.2334ZM67.9355 93.9521V94.5016H67.9356L67.9355 93.9521ZM51.0215 93.9521V93.4027H50.7179L50.5563 93.6597L51.0215 93.9521ZM46.8701 100.557L46.4049 100.264L45.8758 101.106H46.8701V100.557ZM46.8828 100.557L47.3474 100.85L47.8796 100.007H46.8828V100.557ZM46.3506 101.399L45.886 101.106L45.8859 101.106L46.3506 101.399ZM42.1416 101.538L41.6854 101.844L41.6912 101.853L41.6974 101.861L42.1416 101.538ZM42.0479 101.398L41.5827 101.691L41.5871 101.698L41.5917 101.705L42.0479 101.398ZM37.3672 93.9521L37.8324 93.6597L37.6708 93.4027H37.3672V93.9521ZM20.5723 93.9521L20.5722 94.5016H20.5723V93.9521ZM14.5283 79.2334L13.9789 79.2334V79.2334H14.5283ZM18.0781 73.7275L18.3052 74.2279L19.3441 73.7564L18.3278 73.2381L18.0781 73.7275ZM17.1133 73.2246L16.8527 73.7083L16.8528 73.7084L17.1133 73.2246ZM3.58301 53.9287L4.126 53.8447L4.12598 53.8446L3.58301 53.9287ZM3 46.3086H2.45055V46.3086L3 46.3086ZM6.52637 28.0625L6.01893 27.8518L6.01873 27.8523L6.52637 28.0625ZM32.8779 7.81445L32.8779 7.265H32.8779L32.8779 7.81445ZM44.5195 10.8018L44.2593 11.2858L44.2699 11.2912L44.5195 10.8018ZM44.7451 10.8613L44.7447 11.4108L44.7456 11.4108L44.7451 10.8613ZM44.9668 10.8008L45.2364 11.2795L45.243 11.2758L45.2495 11.2719L44.9668 10.8008ZM44.9766 10.7949L44.7229 10.3075L44.7081 10.3152L44.6939 10.3238L44.9766 10.7949ZM45.6689 10.4346L45.4224 9.9435L45.4153 9.94718L45.6689 10.4346ZM56.6123 7.80762L56.6123 8.35707C68.0487 8.35727 78.5 16.9758 83.247 30.3199L83.7646 30.1357L84.2823 29.9516C79.4272 16.3033 68.6413 7.25838 56.6123 7.25817L56.6123 7.80762ZM83.7646 30.1357L83.2451 30.3144L83.5742 31.2714L84.0938 31.0928L84.6133 30.9141L84.2842 29.9571L83.7646 30.1357ZM84.0938 31.0928L83.5723 31.2658C85.1465 36.0108 85.9398 41.0646 85.9398 46.2949H86.4893H87.0387C87.0387 40.9531 86.2284 35.7821 84.6152 30.9198L84.0938 31.0928ZM86.4893 46.2949L85.9398 46.2949C85.9398 48.4458 85.8008 50.597 85.5302 52.6994L86.0752 52.7695L86.6201 52.8397C86.8967 50.6908 87.0387 48.4927 87.0387 46.2949L86.4893 46.2949ZM86.0752 52.7695H85.5257V52.7705H86.0752H86.6246V52.7695H86.0752ZM86.0752 52.7705L85.5304 52.6993C84.5555 60.1612 80.4475 66.7506 74.2108 70.8899L74.5146 71.3477L74.8185 71.8055C81.3208 67.4899 85.604 60.6181 86.62 52.8417L86.0752 52.7705ZM74.5146 71.3477L74.2171 70.8858L73.594 71.2871L73.8916 71.749L74.1892 72.2109L74.8122 71.8096L74.5146 71.3477ZM73.8916 71.749L73.6008 71.2829C72.4952 71.9726 71.3433 72.6192 70.1522 73.2251L70.4014 73.7148L70.6505 74.2046C71.8678 73.5852 73.0478 72.9231 74.1824 72.2152L73.8916 71.749ZM70.4014 73.7148L70.1769 74.2164C72.095 75.0749 73.4299 76.9987 73.43 79.2334L73.9795 79.2334L74.5289 79.2334C74.5288 76.5495 72.9246 74.2422 70.6258 73.2133L70.4014 73.7148ZM73.9795 79.2334H73.43V87.9082H73.9795H74.5289V79.2334H73.9795ZM73.9795 87.9082H73.43C73.43 90.9426 70.97 93.4026 67.9355 93.4027L67.9355 93.9521L67.9356 94.5016C71.5768 94.5014 74.5289 91.5496 74.5289 87.9082H73.9795ZM67.9355 93.9521V93.4027H51.0215V93.9521V94.5016H67.9355V93.9521ZM51.0215 93.9521L50.5563 93.6597L46.4049 100.264L46.8701 100.557L47.3353 100.849L51.4867 94.2446L51.0215 93.9521ZM46.8701 100.557V101.106H46.8828V100.557V100.007H46.8701V100.557ZM46.8828 100.557L46.4182 100.263L45.886 101.106L46.3506 101.399L46.8152 101.693L47.3474 100.85L46.8828 100.557ZM46.3506 101.399L45.8859 101.106C45.1595 102.257 43.3758 102.3 42.5858 101.215L42.1416 101.538L41.6974 101.861C42.9381 103.566 45.6688 103.509 46.8153 101.693L46.3506 101.399ZM42.1416 101.538L42.5978 101.232L42.504 101.092L42.0479 101.398L41.5917 101.705L41.6854 101.844L42.1416 101.538ZM42.0479 101.398L42.513 101.106L37.8324 93.6597L37.3672 93.9521L36.902 94.2446L41.5827 101.691L42.0479 101.398ZM37.3672 93.9521V93.4027H20.5723V93.9521V94.5016H37.3672V93.9521ZM20.5723 93.9521L20.5723 93.4027C17.5379 93.4025 15.0778 90.9426 15.0778 87.9082H14.5283H13.9789C13.9789 91.5495 16.9311 94.5013 20.5722 94.5016L20.5723 93.9521ZM14.5283 87.9082H15.0778V79.2334H14.5283H13.9789V87.9082H14.5283ZM14.5283 79.2334L15.0778 79.2334C15.0779 77.0087 16.4008 75.0921 18.3052 74.2279L18.0781 73.7275L17.8511 73.2272C15.5689 74.2629 13.979 76.5616 13.9789 79.2334L14.5283 79.2334ZM18.0781 73.7275L18.3278 73.2381C18.0051 73.0735 17.6871 72.9095 17.3738 72.7408L17.1133 73.2246L16.8528 73.7084C17.177 73.883 17.5037 74.0514 17.8285 74.217L18.0781 73.7275ZM17.1133 73.2246L17.3739 72.7409C10.3163 68.9382 5.36828 61.8734 4.126 53.8447L3.58301 53.9287L3.04002 54.0127C4.33401 62.3756 9.48659 69.7394 16.8527 73.7083L17.1133 73.2246ZM3.58301 53.9287L4.12598 53.8446C3.7443 51.3812 3.54946 48.8412 3.54945 46.3086L3 46.3086L2.45055 46.3086C2.45056 48.8969 2.64963 51.4931 3.04004 54.0128L3.58301 53.9287ZM3 46.3086H3.54945C3.54945 40.0009 4.75781 33.7686 7.034 28.2727L6.52637 28.0625L6.01873 27.8523C3.68434 33.4887 2.45055 39.8647 2.45055 46.3086H3ZM6.52637 28.0625L7.0338 28.2732C12.1346 15.9907 22.0313 8.36407 32.8779 8.3639L32.8779 7.81445L32.8779 7.265C21.4735 7.26517 11.2418 15.2753 6.01893 27.8518L6.52637 28.0625ZM32.8779 7.81445L32.8779 8.3639C36.8265 8.36396 40.6577 9.34974 44.2594 11.2857L44.5195 10.8018L44.7797 10.3178C41.0245 8.29932 37.0153 7.26506 32.8779 7.265L32.8779 7.81445ZM44.5195 10.8018L44.2699 11.2912C44.426 11.3708 44.5826 11.4106 44.7447 11.4108L44.7451 10.8613L44.7456 10.3119C44.7498 10.3119 44.7548 10.3121 44.7602 10.3128C44.7656 10.3135 44.7703 10.3144 44.7739 10.3153C44.7814 10.3172 44.7804 10.318 44.7691 10.3123L44.5195 10.8018ZM44.7451 10.8613L44.7456 11.4108C44.9119 11.4106 45.078 11.3687 45.2364 11.2795L44.9668 10.8008L44.6972 10.322C44.6971 10.3221 44.6986 10.3212 44.7016 10.32C44.7047 10.3187 44.7088 10.3173 44.7139 10.3159C44.7247 10.3131 44.7355 10.3119 44.7447 10.3119L44.7451 10.8613ZM44.9668 10.8008L45.2495 11.2719L45.2593 11.2661L44.9766 10.7949L44.6939 10.3238L44.6841 10.3296L44.9668 10.8008ZM44.9766 10.7949L45.2302 11.2823L45.9226 10.922L45.6689 10.4346L45.4153 9.94718L44.7229 10.3075L44.9766 10.7949ZM45.6689 10.4346L45.9155 10.9256C49.3173 9.21744 52.9101 8.35712 56.6123 8.35707L56.6123 7.80762L56.6123 7.25817C52.7346 7.25822 48.9734 8.16047 45.4224 9.94355L45.6689 10.4346Z" fill="#5C5C5C"/>
<g filter="url(#filter1_g_40000879_10564)">
<path d="M80.2861 46.3009C80.2861 48.2439 80.1612 50.1453 79.9183 51.9911C79.1341 58.0145 75.7058 63.3647 70.5495 66.5776C63.8942 70.7343 55.1847 73.3434 45.5938 73.5794C45.108 73.5933 44.6222 73.6002 44.1295 73.6002H43.7062C34.7399 73.5308 26.4815 71.4004 19.9025 67.8475C14.2812 64.815 10.4782 59.2982 9.50661 52.9904C9.1735 50.8323 9 48.5909 9 46.3009C9 40.5204 10.1104 35.0939 12.0605 30.3959C16.1411 20.556 23.886 13.915 32.769 13.915C35.8572 13.915 38.8067 14.7131 41.5201 16.1773C43.4841 17.232 45.809 17.232 47.766 16.1773C50.4725 14.72 53.422 13.915 56.5033 13.915C65.9206 13.915 74.0611 21.3748 77.9058 32.1863C79.4256 36.454 80.2792 41.2421 80.2792 46.3009H80.2861Z" fill="#EEEDEB"/>
<path d="M80.2861 46.3009C80.2861 48.2439 80.1612 50.1453 79.9183 51.9911C79.1341 58.0145 75.7058 63.3647 70.5495 66.5776C63.8942 70.7343 55.1847 73.3434 45.5938 73.5794C45.108 73.5933 44.6222 73.6002 44.1295 73.6002H43.7062C34.7399 73.5308 26.4815 71.4004 19.9025 67.8475C14.2812 64.815 10.4782 59.2982 9.50661 52.9904C9.1735 50.8323 9 48.5909 9 46.3009C9 40.5204 10.1104 35.0939 12.0605 30.3959C16.1411 20.556 23.886 13.915 32.769 13.915C35.8572 13.915 38.8067 14.7131 41.5201 16.1773C43.4841 17.232 45.809 17.232 47.766 16.1773C50.4725 14.72 53.422 13.915 56.5033 13.915C65.9206 13.915 74.0611 21.3748 77.9058 32.1863C79.4256 36.454 80.2792 41.2421 80.2792 46.3009H80.2861Z" stroke="#2C2C2C" stroke-width="1.0989" stroke-miterlimit="10"/>
</g>
<g filter="url(#filter2_g_40000879_10564)">
<path d="M46.1206 41.8043V42.0273C46.1206 42.1666 46.1136 42.3059 46.1136 42.4452V42.5079C46.0997 42.696 46.0928 42.8841 46.0789 43.0652C46.0789 43.1279 46.072 43.1837 46.065 43.2394C45.8499 46.005 44.8853 48.0601 42.0539 48.0601C38.9588 48.0601 37.5361 45.2596 37.5361 41.8043V41.7834C38.6048 41.7416 39.965 41.6302 41.3946 41.3933C42.8797 41.1495 44.4342 40.7594 45.8222 40.1533H45.8291C45.8985 40.1882 45.9679 40.216 46.0373 40.2439C46.0928 40.7455 46.1206 41.2679 46.1206 41.8043Z" fill="#FBFBFB" stroke="#2C2C2C" stroke-miterlimit="10"/>
<path d="M54.7115 41.805C54.7115 41.9234 54.7115 42.0419 54.7045 42.1603C54.656 45.4484 53.8301 48.0608 50.6379 48.0608C47.4456 48.0608 46.1201 45.2603 46.1201 41.805C46.1201 41.2895 46.1409 40.7949 46.1965 40.3142C47.3901 40.7879 48.6947 41.1223 49.9578 41.3452C51.776 41.6726 53.5109 41.7771 54.7115 41.805Z" fill="#FBFBFB" stroke="#2C2C2C" stroke-miterlimit="10"/>
<path d="M46.0373 40.2444C45.9679 40.2165 45.8985 40.1886 45.8291 40.1538H45.8221C44.4342 40.7599 42.8797 41.15 41.3946 41.3938C39.965 41.6307 38.6048 41.7421 37.5361 41.7839C37.5431 38.3356 38.591 35.5491 42.0539 35.5491C44.6008 35.5491 45.7458 37.5414 46.0373 40.2444Z" stroke="#2C2C2C" stroke-miterlimit="10"/>
<path d="M46.12 42.0273V42.1527C46.12 42.2502 46.12 42.3477 46.1131 42.4452V42.5079C46.0992 42.696 46.0923 42.8841 46.0784 43.0652C46.0784 43.1279 46.0714 43.1837 46.0645 43.2394C45.8979 44.6257 45.3358 45.6219 43.8646 45.6219C42.1505 45.6219 41.3594 44.0684 41.3594 42.1527C41.3594 41.8949 41.3733 41.6371 41.3941 41.3933C42.8792 41.1495 44.4337 40.7594 45.8216 40.1533H45.8285C46.0229 40.6828 46.1131 41.3306 46.12 42.0273Z" fill="#2C2C2C"/>
<path d="M54.7119 41.8045C54.7119 41.9229 54.7119 42.0414 54.705 42.1598C54.6495 43.9083 54.1637 45.2737 52.4496 45.2737C50.7355 45.2737 49.9443 43.7202 49.9443 41.8045C49.9443 41.6512 49.9513 41.498 49.9582 41.3447C51.7764 41.6721 53.5113 41.7766 54.7119 41.8045Z" fill="#2C2C2C"/>
<path d="M54.7113 41.8048C53.5107 41.777 51.7758 41.6725 49.9576 41.3451C48.6946 41.1221 47.3899 40.7877 46.1963 40.314C46.4878 37.5763 47.6883 35.5491 50.6377 35.5491C53.5871 35.5491 54.628 38.1475 54.7044 41.4286C54.7113 41.554 54.7113 41.6794 54.7113 41.8048Z" stroke="#2C2C2C" stroke-miterlimit="10"/>
<path d="M46.7038 48.2699C46.7038 48.2699 43.1993 48.451 43.6434 50.4086C44.0875 52.3661 48.98 51.9621 49.674 51.1261C50.368 50.2901 49.8822 48.4301 46.7038 48.2629V48.2699Z" fill="#FBD7D5" stroke="#2C2C2C" stroke-miterlimit="10"/>
<path d="M30.4372 47.3851C30.6787 47.3851 30.8744 47.1886 30.8744 46.9462C30.8744 46.7038 30.6787 46.5073 30.4372 46.5073C30.1957 46.5073 30 46.7038 30 46.9462C30 47.1886 30.1957 47.3851 30.4372 47.3851Z" fill="#2C2C2C"/>
<path d="M33.1647 47.3853C33.4062 47.3853 33.6019 47.1888 33.6019 46.9464C33.6019 46.7041 33.4062 46.5076 33.1647 46.5076C32.9233 46.5076 32.7275 46.7041 32.7275 46.9464C32.7275 47.1888 32.9233 47.3853 33.1647 47.3853Z" fill="#2C2C2C"/>
<path d="M31.8044 48.744C32.0458 48.744 32.2416 48.5475 32.2416 48.3051C32.2416 48.0627 32.0458 47.8662 31.8044 47.8662C31.5629 47.8662 31.3672 48.0627 31.3672 48.3051C31.3672 48.5475 31.5629 48.744 31.8044 48.744Z" fill="#2C2C2C"/>
<path d="M56.2253 47.3851C56.4667 47.3851 56.6625 47.1886 56.6625 46.9462C56.6625 46.7038 56.4667 46.5073 56.2253 46.5073C55.9838 46.5073 55.7881 46.7038 55.7881 46.9462C55.7881 47.1886 55.9838 47.3851 56.2253 47.3851Z" fill="#2C2C2C"/>
<path d="M58.9528 47.3853C59.1943 47.3853 59.39 47.1888 59.39 46.9464C59.39 46.7041 59.1943 46.5076 58.9528 46.5076C58.7114 46.5076 58.5156 46.7041 58.5156 46.9464C58.5156 47.1888 58.7114 47.3853 58.9528 47.3853Z" fill="#2C2C2C"/>
<path d="M57.5925 48.744C57.8339 48.744 58.0297 48.5475 58.0297 48.3051C58.0297 48.0627 57.8339 47.8662 57.5925 47.8662C57.351 47.8662 57.1553 48.0627 57.1553 48.3051C57.1553 48.5475 57.351 48.744 57.5925 48.744Z" fill="#2C2C2C"/>
<path d="M44.1224 55.639C44.5453 55.9391 45.0775 56.0635 45.5733 55.9025C45.8358 55.822 46.0399 55.6829 45.9524 55.4487C45.7483 54.8998 44.8588 54.3509 44.3994 54.5485C43.9401 54.7461 43.4152 55.0388 43.8526 55.4267C43.9401 55.5073 44.0349 55.5804 44.1297 55.6463L44.1224 55.639Z" fill="#2C2C2C"/>
</g>
<g filter="url(#filter3_g_40000879_10564)">
<path d="M46.4138 23.8125C49.2403 23.8125 52.0587 23.8938 54.8852 24.0645L56.8532 24.1784C58.1734 24.2597 59.2505 25.2515 59.453 26.5604L60.1576 31.2758C60.4005 32.9099 59.1938 34.4058 57.5416 34.4952L53.9862 34.6822C51.4594 34.8123 48.9406 34.8855 46.4138 34.8855C43.8869 34.8855 41.3601 34.8204 38.8413 34.6822L35.2859 34.4952C33.6419 34.4058 32.427 32.918 32.67 31.2758L33.3746 26.5604C33.569 25.2515 34.6542 24.2597 35.9743 24.1784L37.9424 24.0645C40.7608 23.8938 43.5873 23.8125 46.4138 23.8125ZM46.4138 22.9995C43.5873 22.9995 40.7203 23.0808 37.8938 23.2515L35.9257 23.3654C34.2331 23.4629 32.8239 24.7556 32.5728 26.4385L31.8682 31.1538C31.7143 32.1619 31.9978 33.1863 32.6376 33.983C33.2774 34.7716 34.225 35.2513 35.2373 35.3082L38.7927 35.4952C41.3196 35.6334 43.8788 35.6985 46.4138 35.6985C48.9487 35.6985 51.508 35.6334 54.0348 35.4952L57.5902 35.3082C58.6026 35.2513 59.5502 34.7716 60.19 33.983C60.8298 33.1944 61.1132 32.1619 60.9594 31.1538L60.2548 26.4385C60.0037 24.7556 58.5945 23.4629 56.9018 23.3654L54.9338 23.2515C52.1073 23.0808 49.2484 22.9995 46.4138 22.9995Z" fill="#2C2C2C"/>
<path d="M56.8605 24.1789C58.1725 24.2521 59.2577 25.2521 59.4521 26.5529L60.1567 31.2682C60.4078 32.9023 59.1848 34.3982 57.5408 34.4795L53.9854 34.6665C48.9398 34.9348 43.8861 34.9348 38.8324 34.6665L35.2851 34.4795C33.7706 34.4064 32.6367 33.1544 32.6367 31.691C32.6367 31.8373 32.7015 31.9511 32.7663 32.0162C32.8392 32.1056 32.9769 32.2032 33.1955 32.2194L37.0992 32.4064C39.8123 32.5365 42.5659 32.6015 45.2872 32.6015C48.0084 32.6015 50.762 32.5365 53.4751 32.4064L57.3788 32.2194C57.5975 32.2032 57.727 32.1056 57.808 32.0162C57.8809 31.9349 57.9619 31.7885 57.9295 31.6016L57.152 24.6179C57.1034 24.3659 56.8848 24.1708 56.6013 24.1545H56.8605V24.1789Z" fill="#2C2C2C"/>
<path d="M25 35.8933V48.1288" stroke="#2C2C2C" stroke-miterlimit="10" stroke-linecap="round"/>
<path d="M27.543 35.1943V42.0153" stroke="#2C2C2C" stroke-miterlimit="10" stroke-linecap="round"/>
<path d="M30.0859 36.438V39.0152" stroke="#2C2C2C" stroke-miterlimit="10" stroke-linecap="round"/>
</g>
</g>
<defs>
<filter id="filter0_f_40000879_10564" x="22.0989" y="94.0989" width="45.2749" height="25.4946" filterUnits="userSpaceOnUse" color-interpolation-filters="sRGB">
<feFlood flood-opacity="0" result="BackgroundImageFix"/>
<feBlend mode="normal" in="SourceGraphic" in2="BackgroundImageFix" result="shape"/>
<feGaussianBlur stdDeviation="4.45055" result="effect1_foregroundBlur_40000879_10564"/>
</filter>
<filter id="filter1_g_40000879_10564" x="8.01063" y="12.9259" width="73.2649" height="61.6633" filterUnits="userSpaceOnUse" color-interpolation-filters="sRGB">
<feFlood flood-opacity="0" result="BackgroundImageFix"/>
<feBlend mode="normal" in="SourceGraphic" in2="BackgroundImageFix" result="shape"/>
<feTurbulence type="fractalNoise" baseFrequency="0.6066666841506958 0.6066666841506958" numOctaves="3" seed="7043" />
<feDisplacementMap in="shape" scale="0.87912094593048096" xChannelSelector="R" yChannelSelector="G" result="displacedImage" width="100%" height="100%" />
<feMerge result="effect1_texture_40000879_10564">
<feMergeNode in="displacedImage"/>
</feMerge>
</filter>
<filter id="filter2_g_40000879_10564" x="29.6" y="34.6491" width="30.1896" height="21.7243" filterUnits="userSpaceOnUse" color-interpolation-filters="sRGB">
<feFlood flood-opacity="0" result="BackgroundImageFix"/>
<feBlend mode="normal" in="SourceGraphic" in2="BackgroundImageFix" result="shape"/>
<feTurbulence type="fractalNoise" baseFrequency="0.66666668653488159 0.66666668653488159" numOctaves="3" seed="7043" />
<feDisplacementMap in="shape" scale="0.80000001192092896" xChannelSelector="R" yChannelSelector="G" result="displacedImage" width="100%" height="100%" />
<feMerge result="effect1_texture_40000879_10564">
<feMergeNode in="displacedImage"/>
</feMerge>
</filter>
<filter id="filter3_g_40000879_10564" x="24.1" y="22.5995" width="37.3" height="26.4294" filterUnits="userSpaceOnUse" color-interpolation-filters="sRGB">
<feFlood flood-opacity="0" result="BackgroundImageFix"/>
<feBlend mode="normal" in="SourceGraphic" in2="BackgroundImageFix" result="shape"/>
<feTurbulence type="fractalNoise" baseFrequency="0.66666668653488159 0.66666668653488159" numOctaves="3" seed="7043" />
<feDisplacementMap in="shape" scale="0.80000001192092896" xChannelSelector="R" yChannelSelector="G" result="displacedImage" width="100%" height="100%" />
<feMerge result="effect1_texture_40000879_10564">
<feMergeNode in="displacedImage"/>
</feMerge>
</filter>
<clipPath id="clip0_40000879_10564">
<rect width="90" height="117" fill="white"/>
</clipPath>
</defs>
</svg>
